<svg xmlns="http://www.w3.org/2000/svg" viewBox="0 0 259.19 150"><rect x="1" y="1" width="242.63" height="148" fill="none" stroke="#fff" stroke-miterlimit="10" stroke-width="2"/><polygon points="258.19 133.1 258.19 16.78 169.63 16.78 169.63 133.32 214.05 105.72 258.19 133.1"/><polygon points="258.19 133.1 258.19 16.78 169.63 16.78 169.63 133.32 214.05 105.72 258.19 133.1" fill="none" stroke="#fff" stroke-miterlimit="10" stroke-width="2"/><path d="M215.8,81a5.07,5.07,0,0,1-.09-.54,3.54,3.54,0,0,1-.14.79l.23-.2" transform="translate(0 0)" fill="#fff"/><path d="M215.83,80.8a.55.55,0,0,1,.55-.55h0c.3,0-.55.85-.55.55" transform="translate(0 0)" fill="#fff"/><path d="M215.58,80.8a.55.55,0,0,1-.55.54h0a.55.55,0,0,1-.55-.54h0a.55.55,0,0,1,.55-.55h0a.55.55,0,0,1,.55.55h0" transform="translate(0 0)" fill="#fff"/><path d="M216.24,79.88a.54.54,0,0,1-.54.54h0a.55.55,0,1,1-.15-1.09.38.38,0,0,1,.15,0,.55.55,0,0,1,.54.55h0" transform="translate(0 0)" fill="#fff"/><path d="M212.69,78.24a6.2,6.2,0,0,1-.49-1.89,6.87,6.87,0,0,1-.51,1.89,2.73,2.73,0,0,1-.94,1,.68.68,0,0,0,.39.39.64.64,0,0,0,.47,0,1.45,1.45,0,0,0,.18.49,1.15,1.15,0,0,0,.41.35h0a1,1,0,0,0,.39-.35,1.47,1.47,0,0,0,.19-.49.64.64,0,0,0,.47,0,.69.69,0,0,0,.38-.39,2.9,2.9,0,0,1-.94-1" transform="translate(0 0)" fill="#fff"/><path d="M213.41,76.71a.55.55,0,0,1-.55.55h0a.55.55,0,0,1-.54-.55h0a.55.55,0,0,1,.54-.55h0a.55.55,0,0,1,.55.55h0" transform="translate(0 0)" fill="#fff"/><path d="M212.07,76.71a.55.55,0,0,1-.55.55h0a.55.55,0,0,1-.55-.55h0a.55.55,0,0,1,.55-.55h0a.55.55,0,0,1,.55.55h0" transform="translate(0 0)" fill="#fff"/><path d="M212.74,75.76a.55.55,0,0,1-.54.55h0a.55.55,0,0,1-.55-.55h0a.55.55,0,0,1,.55-.55h0a.55.55,0,0,1,.54.55h0" transform="translate(0 0)" fill="#fff"/><path d="M216.57,75a6.52,6.52,0,0,1-.5-1.89,6.52,6.52,0,0,1-.5,1.89,2.9,2.9,0,0,1-.94,1,.65.65,0,0,0,.83.4h0a1.42,1.42,0,0,0,.19.48,1,1,0,0,0,.4.35,1.34,1.34,0,0,0,.45-.29,1.41,1.41,0,0,0,.19-.39.72.72,0,0,0,.46,0,.68.68,0,0,0,.39-.39,2.73,2.73,0,0,1-.94-1" transform="translate(0 0)" fill="#fff"/><path d="M217.26,73.4a.55.55,0,0,1-.55.55h0a.55.55,0,1,1,.55-.55h0" transform="translate(0 0)" fill="#fff"/><path d="M215.94,73.4a.55.55,0,0,1-.55.55h0a.55.55,0,0,1-.54-.55h0a.55.55,0,0,1,.54-.55h0a.55.55,0,0,1,.55.55h0" transform="translate(0 0)" fill="#fff"/><path d="M216.62,72.47a.55.55,0,1,1-1.1,0h0a.55.55,0,0,1,.54-.55h0a.56.56,0,0,1,.56.55" transform="translate(0 0)" fill="#fff"/><path d="M220.43,71.65a6.77,6.77,0,0,1-.49-1.88,6.46,6.46,0,0,1-.5,1.88,2.76,2.76,0,0,1-.95,1,.68.68,0,0,0,.86.39,1.66,1.66,0,0,0,.19.48,1.25,1.25,0,0,0,.4.36,1.16,1.16,0,0,0,.4-.36,1.42,1.42,0,0,0,.19-.48.68.68,0,0,0,.86-.39,2.82,2.82,0,0,1-1-1" transform="translate(0 0)" fill="#fff"/><path d="M221.16,70.12a.55.55,0,1,1-1.1,0,.54.54,0,0,1,.54-.54h0a.55.55,0,0,1,.55.54" transform="translate(0 0)" fill="#fff"/><path d="M219.82,70.12a.56.56,0,0,1-1.11.15v-.15a.57.57,0,0,1,.63-.47.54.54,0,0,1,.48.47" transform="translate(0 0)" fill="#fff"/><path d="M220.52,69.17a.55.55,0,1,1-1.09,0h0a.55.55,0,0,1,.55-.55h0a.55.55,0,0,1,.54.55" transform="translate(0 0)" fill="#fff"/><path d="M223.68,66.88a.54.54,0,0,1-.51.57h0a.56.56,0,0,1-.57-.53h0a.54.54,0,0,1,.52-.56h0a.54.54,0,0,1,.54.54h0" transform="translate(0 0)" fill="#fff"/><path d="M224,66.4h-.22a.55.55,0,0,1-.54-.55.54.54,0,0,1,.54-.54.48.48,0,0,1,.39.16c.1.09,0,.81-.17.89" transform="translate(0 0)" fill="#fff"/><path d="M224.05,59.47a.55.55,0,0,1-1.1-.08.55.55,0,0,1,.57-.51.55.55,0,0,1,.55.55h0" transform="translate(0 0)" fill="#fff"/><path d="M224.18,59.06a.55.55,0,0,1-.55-.54h0a.6.6,0,0,1,.18-.42c.11-.08.15.33.37,1" transform="translate(0 0)" fill="#fff"/><path d="M220.81,64.29a6.69,6.69,0,0,1-.52-1.91,6.62,6.62,0,0,1-.48,1.91,2.9,2.9,0,0,1-.94,1,.76.76,0,0,0,.38.39.64.64,0,0,0,.47,0,1.45,1.45,0,0,0,.18.49,1.35,1.35,0,0,0,.4.35,1.39,1.39,0,0,0,.41-.35,1.45,1.45,0,0,0,.18-.49.61.61,0,0,0,.46,0,.8.8,0,0,0,.4-.39,2.58,2.58,0,0,1-.94-1" transform="translate(0 0)" fill="#fff"/><path d="M221.52,62.75a.56.56,0,1,1-.56-.55h0a.56.56,0,0,1,.56.55" transform="translate(0 0)" fill="#fff"/><path d="M220.18,62.75a.55.55,0,0,1-1.1.14.33.33,0,0,1,0-.14.55.55,0,0,1,1.1,0h0" transform="translate(0 0)" fill="#fff"/><path d="M220.85,61.79a.56.56,0,0,1-.54.56.55.55,0,0,1-.47-.62.54.54,0,0,1,.47-.47.55.55,0,0,1,.55.54h0" transform="translate(0 0)" fill="#fff"/><path d="M216.93,67.56a6.46,6.46,0,0,1-.5-1.88,6.46,6.46,0,0,1-.5,1.88,2.73,2.73,0,0,1-.94,1,.69.69,0,0,0,.38.39.76.76,0,0,0,.47,0,1.66,1.66,0,0,0,.19.48,1.35,1.35,0,0,0,.4.35,1,1,0,0,0,.4-.35A1.42,1.42,0,0,0,217,69a.72.72,0,0,0,.46,0,.68.68,0,0,0,.39-.39,2.58,2.58,0,0,1-.94-1" transform="translate(0 0)" fill="#fff"/><path d="M217.65,66a.56.56,0,1,1-.58-.54h0a.55.55,0,0,1,.56.54h0" transform="translate(0 0)" fill="#fff"/><path d="M216.31,66a.55.55,0,0,1-.55.55h0a.55.55,0,0,1-.47-.62.54.54,0,0,1,.47-.47h0a.55.55,0,0,1,.55.54h0" transform="translate(0 0)" fill="#fff"/><path d="M217,65.09a.55.55,0,1,1-1.1,0h0a.55.55,0,0,1,.55-.55h0a.55.55,0,0,1,.55.55h0" transform="translate(0 0)" fill="#fff"/><path d="M213.06,70.88a6.52,6.52,0,0,1-.5-1.89,6.52,6.52,0,0,1-.5,1.89,2.61,2.61,0,0,1-.95,1,.73.73,0,0,0,.4.39.58.58,0,0,0,.45,0,1.44,1.44,0,0,0,.2.48,1.16,1.16,0,0,0,.4.36,1.25,1.25,0,0,0,.4-.36,1.66,1.66,0,0,0,.19-.48.61.61,0,0,0,.46,0,.68.68,0,0,0,.39-.39,2.73,2.73,0,0,1-.94-1" transform="translate(0 0)" fill="#fff"/><path d="M213.78,69.35a.55.55,0,0,1-.55.55h0a.55.55,0,0,1-.55-.55h0a.55.55,0,0,1,.53-.56h0a.55.55,0,0,1,.55.54h0" transform="translate(0 0)" fill="#fff"/><path d="M212.43,69.35a.55.55,0,0,1-.55.55h0a.55.55,0,0,1-.54-.55h0a.54.54,0,0,1,.54-.54h0a.55.55,0,0,1,.55.54h0" transform="translate(0 0)" fill="#fff"/><path d="M213.11,68.34a.54.54,0,0,1-.56.54h0a.55.55,0,0,1-.55-.55h0a.55.55,0,0,1,.55-.55h0a.55.55,0,0,1,.55.55h0" transform="translate(0 0)" fill="#fff"/><path d="M209.16,74.15a6.79,6.79,0,0,1-.5-1.88,6.47,6.47,0,0,1-.51,1.88,2.76,2.76,0,0,1-1,1,.82.82,0,0,0,.39.39.76.76,0,0,0,.47,0,1.14,1.14,0,0,0,.19.47,1.22,1.22,0,0,0,.39.36A1.16,1.16,0,0,0,209,76a1.14,1.14,0,0,0,.19-.47.82.82,0,0,0,.94-.37,2.82,2.82,0,0,1-1-1" transform="translate(0 0)" fill="#fff"/><path d="M209.9,72.63a.55.55,0,0,1-.55.55h0a.55.55,0,0,1-.54-.55h0a.55.55,0,1,1,1.09-.15.38.38,0,0,1,0,.15" transform="translate(0 0)" fill="#fff"/><path d="M208.52,72.63a.55.55,0,0,1-.55.55h0a.55.55,0,0,1-.55-.55h0a.55.55,0,0,1,1.1,0" transform="translate(0 0)" fill="#fff"/><path d="M209.23,71.67a.54.54,0,1,1-1.08,0,.55.55,0,0,1,.55-.55h0a.55.55,0,0,1,.54.55h0" transform="translate(0 0)" fill="#fff"/><path d="M209.52,66.77a6.46,6.46,0,0,1-.5-1.88,6.46,6.46,0,0,1-.5,1.88,2.61,2.61,0,0,1-1,1,.68.68,0,0,0,.86.39,1.4,1.4,0,0,0,.18.48A1.29,1.29,0,0,0,209,69a1.16,1.16,0,0,0,.4-.36,1.18,1.18,0,0,0,.19-.48.68.68,0,0,0,.86-.39,2.61,2.61,0,0,1-.95-1" transform="translate(0 0)" fill="#fff"/><path d="M210.26,65.24a.55.55,0,0,1-.54.56h0a.56.56,0,0,1-.56-.56.55.55,0,0,1,.55-.54h0a.54.54,0,0,1,.54.54h0" transform="translate(0 0)" fill="#fff"/><path d="M208.92,65.24a.55.55,0,1,1-.55-.54h0a.55.55,0,0,1,.55.54h0" transform="translate(0 0)" fill="#fff"/><path d="M209.6,64.29a.55.55,0,1,1-.55-.54h0a.55.55,0,0,1,.55.54h0" transform="translate(0 0)" fill="#fff"/><path d="M213.42,63.48a6.2,6.2,0,0,1-.49-1.89,6.87,6.87,0,0,1-.51,1.89,2.58,2.58,0,0,1-.94,1,.71.71,0,0,0,.38.38.64.64,0,0,0,.47,0,1.47,1.47,0,0,0,.19.49,1.23,1.23,0,0,0,.41.34,1.16,1.16,0,0,0,.39-.34,1.52,1.52,0,0,0,.2-.47.64.64,0,0,0,.47,0,.71.71,0,0,0,.38-.38,2.82,2.82,0,0,1-.94-1" transform="translate(0 0)" fill="#fff"/><path d="M214.14,62a.54.54,0,0,1-.54.54h0a.54.54,0,0,1-.54-.54h0a.54.54,0,0,1,.53-.55h0a.54.54,0,0,1,.55.53v0h0" transform="translate(0 0)" fill="#fff"/><path d="M212.79,62a.54.54,0,0,1-.54.54h0a.55.55,0,0,1-.55-.54h0a.55.55,0,0,1,.55-.55h0a.54.54,0,0,1,.54.54h0" transform="translate(0 0)" fill="#fff"/><path d="M213.52,61a.54.54,0,0,1-.53.55h0a.55.55,0,1,1-.15-1.09H213a.54.54,0,0,1,.54.54h0" transform="translate(0 0)" fill="#fff"/><path d="M217.26,60.18a6.18,6.18,0,0,1-.51-1.88,5.89,5.89,0,0,1-.5,1.88,2.58,2.58,0,0,1-.94,1,.76.76,0,0,0,.39.38.72.72,0,0,0,.46,0,1.44,1.44,0,0,0,.2.48,1,1,0,0,0,.39.35,1.15,1.15,0,0,0,.41-.35,1.66,1.66,0,0,0,.19-.48.69.69,0,0,0,.45,0,.77.77,0,0,0,.47-.32,2.73,2.73,0,0,1-.94-1" transform="translate(0 0)" fill="#fff"/><path d="M218,58.67a.55.55,0,0,1-.55.54h0a.55.55,0,1,1,.55-.55h0" transform="translate(0 0)" fill="#fff"/><path d="M216.67,58.67a.54.54,0,0,1-.52.56h0a.54.54,0,0,1-.54-.54h0a.55.55,0,0,1,1.09-.15.38.38,0,0,1,0,.15" transform="translate(0 0)" fill="#fff"/><path d="M217.35,57.72a.56.56,0,1,1-.48-.48.56.56,0,0,1,.48.48" transform="translate(0 0)" fill="#fff"/><path d="M221.16,56.88a3.91,3.91,0,0,1-.24-.65,2.09,2.09,0,0,0-.5,0,3,3,0,0,1-.25.65,2.67,2.67,0,0,1-1,1,.76.76,0,0,0,.39.38.64.64,0,0,0,.47,0,1.72,1.72,0,0,0,.19.49.4.4,0,1,0,.8,0,1.07,1.07,0,0,0,.23-.45.64.64,0,0,0,.47,0,.69.69,0,0,0,.39-.38,2.85,2.85,0,0,1-1-1" transform="translate(0 0)" fill="#fff"/><path d="M209.91,59.4a7,7,0,0,1-.5-1.9,6.65,6.65,0,0,1-.49,1.9,2.67,2.67,0,0,1-1,1,.69.69,0,0,0,.39.38.64.64,0,0,0,.47,0,1.45,1.45,0,0,0,.18.49.4.4,0,1,0,.8,0,1.22,1.22,0,0,0,.19-.49.64.64,0,0,0,.47,0,.76.76,0,0,0,.39-.38,2.67,2.67,0,0,1-1-1" transform="translate(0 0)" fill="#fff"/><path d="M210.63,57.88a.55.55,0,0,1-.55.54h0a.54.54,0,0,1-.56-.52v0h0a.55.55,0,0,1,.54-.55h0a.55.55,0,0,1,.55.55h0" transform="translate(0 0)" fill="#fff"/><path d="M209.28,57.88a.54.54,0,0,1-.54.54h0a.54.54,0,0,1-.59-.49h0a.55.55,0,0,1,.55-.55h0a.55.55,0,0,1,.54.55h0" transform="translate(0 0)" fill="#fff"/><path d="M204.74,56.14c-.05.23-.05.27-.08.47a.72.72,0,0,0,.19.11.64.64,0,0,0,.47,0,1.47,1.47,0,0,0,.19.49,1.16,1.16,0,0,0,.39.34,1.23,1.23,0,0,0,.41-.34,1.45,1.45,0,0,0,.18-.49.61.61,0,0,0,.46,0,.74.74,0,0,0,.4-.38,1.1,1.1,0,0,1-.21-.14h-2.4" transform="translate(0 0)" fill="#fff"/><path d="M218.52,77.88a.54.54,0,0,1-.14-.36.56.56,0,0,1,.56-.56h.21c.07,0-.57.93-.63.87" transform="translate(0 0)" fill="#fff"/><path d="M219.2,77a.55.55,0,0,1,0-.78.52.52,0,0,1,.39-.17h0a.54.54,0,0,1,.18,0c.09,0-.49,1-.55.92" transform="translate(0 0)" fill="#fff"/><path d="M196.81,83.06l-.06.09a.37.37,0,0,0-.07.14l-.13.36.09.06h0l.2-.57v-.06" transform="translate(0 0)" fill="#fff"/><path d="M198.84,83" transform="translate(0 0)" fill="#fff"/><polyline points="231.17 83.74 231.18 83.74 231.17 83.74" fill="#fff"/><path d="M228.93,83h0" transform="translate(0 0)" fill="#fff"/><path d="M231.42,87.11l-.49.2-.52-1.26a2.43,2.43,0,0,0-.13-.38.73.73,0,0,0-.44-.37.66.66,0,0,1,.31.33,1.64,1.64,0,0,1,.14.39l.59,1.67.5-.18a1.29,1.29,0,0,0,.48-.28l-.1-.3a2.64,2.64,0,0,1-.38.18" transform="translate(0 0)" fill="#fff"/><path d="M206,78.88h-.06l.17.06Z" transform="translate(0 0)" fill="#fff"/><path d="M204.21,79.22a2.32,2.32,0,0,1,.38-.06h.27a1.48,1.48,0,0,1,.73-.27h.2l.1-.07-.49-.37-.28.17a1.09,1.09,0,0,1-.61.13h-.3a2.52,2.52,0,0,0,.67-.09,1.13,1.13,0,0,0,.42-.22l-.27-.16a1.17,1.17,0,0,0-.36-.16,2.78,2.78,0,0,1-.4.16,1,1,0,0,1-.43,0l.38-.09a2.06,2.06,0,0,0,.35-.12,3.68,3.68,0,0,0-.54-.16l-.65-.07H204a6,6,0,0,1,.74.13,1.07,1.07,0,0,0-.15-.22,1.91,1.91,0,0,0-.32-.24.89.89,0,0,1,.31.15c.1.1.33.38.33.38l.13.07.34.18-.19-.38-.31-.66a2.9,2.9,0,0,1,.31.54,4.1,4.1,0,0,0,.42.66l.27.19a2,2,0,0,0-.06-.6,7,7,0,0,0-.45-.86c.16.23.32.48.46.73a3,3,0,0,1,.22.89l.23.21c.06,0,0-.21.15-.36a4,4,0,0,0-.25-.6,6.46,6.46,0,0,1-.28-.73s.4.79.6,1.23h0a.81.81,0,0,0,.18-.19c-.09-.3-.18-.57-.18-.57a2.57,2.57,0,0,1,.21.52.31.31,0,0,0,0-.23.19.19,0,0,1,0-.15c-.48-.58-.73-1-1.09-1.12a1.44,1.44,0,0,0-1.36.19,5.57,5.57,0,0,1-1.38.69,1.73,1.73,0,0,0-.55.15.44.44,0,0,0-.13.14,1.75,1.75,0,0,1,.56,0,.68.68,0,0,1,.45.41,6.47,6.47,0,0,0,.46.91,2.36,2.36,0,0,0,.36.42l.39-.36.32-.23h-.59" transform="translate(0 0)" fill="#fff"/><path d="M215.13,50.54c-.41.09-.31.93.29.77.37-.1.28-.88-.29-.77" transform="translate(0 0)" fill="#fff"/><path d="M215.13,49.11c-.41.09-.31.93.29.77.37-.1.28-.88-.29-.77" transform="translate(0 0)" fill="#fff"/><path d="M215.34,48.42a.41.41,0,0,0,.17-.55.42.42,0,0,0-.46-.21c-.57.12-.31.92.29.76" transform="translate(0 0)" fill="#fff"/><path d="M202,75.76a28.14,28.14,0,0,1,4.74-1.52l-.06-.27a29.81,29.81,0,0,0-4.71,1.45v.31" transform="translate(0 0)" fill="#fff"/><path d="M196,79.62h-.08a6,6,0,0,0-1.36,3.67h.3a5.6,5.6,0,0,1,1.29-3.41c0-.11,0-.21-.15-.21" transform="translate(0 0)" fill="#fff"/><path d="M201.31,75.81v-.09h0" transform="translate(0 0)" fill="#fff"/><path d="M197.31,81.88h-.26l-.94-.13-.19.25a2.68,2.68,0,0,1-.07-.27c-.84-.06-1.07.11-1.21.5a1.14,1.14,0,0,0,.11.4h0c.11-.37.35-.69,2.16-.4l.82.15c0-.09-.25-.19-.42-.43" transform="translate(0 0)" fill="#fff"/><path d="M198.8,83.08V83a.41.41,0,0,1-.05.09h0Z" transform="translate(0 0)" fill="#fff"/><path d="M198.83,84.34h.27a2.43,2.43,0,0,1-.2-.25,1.59,1.59,0,0,1-.07.2" transform="translate(0 0)" fill="#fff"/><path d="M197.18,82.76a.45.45,0,0,0-.42.23l-.35.59a.77.77,0,0,1,.34.72l-.94,2.86a2.29,2.29,0,0,0,.51.32c.17.06.32.16.49.23l.13-.37-.46-.2a1.48,1.48,0,0,1-.52-.29l.84-2.43a.46.46,0,0,0-.12-.59l.31-.56c0,.08-.14.22.26.49a1.17,1.17,0,0,1-.07-1" transform="translate(0 0)" fill="#fff"/><path d="M204.18,56.41h3.19c0-.1.12-.22.2-.36H204a15.54,15.54,0,0,0-.59,4.55,2,2,0,0,0,.34-.06,19.8,19.8,0,0,1,.46-4.13" transform="translate(0 0)" fill="#fff"/><path d="M204.1,68.27a.33.33,0,0,0,.14,0,.27.27,0,0,0,.19-.08,29.84,29.84,0,0,1-.59-3.65l-.33.08a34.67,34.67,0,0,0,.59,3.65" transform="translate(0 0)" fill="#fff"/><path d="M203.84,64.17a3.57,3.57,0,0,0-.07-.87.77.77,0,0,0-.11.39.57.57,0,0,0,.18.48" transform="translate(0 0)" fill="#fff"/><path d="M205.4,61.62a.51.51,0,0,1-.08.32c.13.17.59.13.55.58,0,.2-.11.32-.11.42a.38.38,0,0,0,.22.31l.33.08a1.38,1.38,0,0,1-.66.33c-.28,0-.52-.27-.61-.29s-.16.38-.42.37a.5.5,0,0,1-.34-.16l-.18.14a.69.69,0,0,0,.39.38.72.72,0,0,0,.46,0,.55.55,0,1,0,1,.48,1.4,1.4,0,0,0,.18-.48.76.76,0,0,0,.47,0,.74.74,0,0,0,.4-.38,2.61,2.61,0,0,1-1-1,4.75,4.75,0,0,1-.37-1.1.62.62,0,0,0-.27,0" transform="translate(0 0)" fill="#fff"/><path d="M204.62,68h-.3v.27a.33.33,0,0,0,.13-.07,1.64,1.64,0,0,0,.14-.22" transform="translate(0 0)" fill="#fff"/><path d="M206.12,71.14a2.05,2.05,0,0,0,.07.34h0a.68.68,0,0,0,.39-.39,2,2,0,0,1-.43-.34h0c0,.09-.1.13,0,.37" transform="translate(0 0)" fill="#fff"/><path d="M205.44,71.48h-.09c.08.16.17.32.25.46a1.23,1.23,0,0,0,.12-.26c-.09-.18-.19-.24-.26-.25" transform="translate(0 0)" fill="#fff"/><path d="M204.63,67.59a.54.54,0,0,0,.06.25,2.77,2.77,0,0,1,.36-.78.54.54,0,0,0-.42.53" transform="translate(0 0)" fill="#fff"/><path d="M190.6,82.33l.22.14h0a.58.58,0,0,0,.46-.22l-.59-.37-.56-.31a2.27,2.27,0,0,0,.34.7h.1" transform="translate(0 0)" fill="#fff"/><path d="M192.82,83.41c0,.17,0,.15.18.28a.83.83,0,0,1,.33.41l.16.1c1.15.74,2.81,1.08,3.14.36l-.86,2.49a1.31,1.31,0,0,1-1.55.82,10.8,10.8,0,0,1-1.45-.5c-.62-.29-1.11-.59-1.7-.92l-1.44-.8A9.41,9.41,0,0,0,188,85v.08a1.37,1.37,0,0,1-.2-.13,8.64,8.64,0,0,0-2.86-.3,8,8,0,0,1,2.51-1,.49.49,0,0,0,0-.17v-.18a5,5,0,0,0-.92.23,6.06,6.06,0,0,0-2.14,1.14c-.35.31-.14.31-.06.31a10.94,10.94,0,0,1,4.94,1,21.71,21.71,0,0,0,4.7,2.28,1.81,1.81,0,0,0,2-.89l.93-2.8c.16-.65-.47-1-1.38-1.4a1.55,1.55,0,0,1-.87-.72h0a.66.66,0,0,1-.06-.2L194,84l-1.06-.7a.16.16,0,0,0-.06.13" transform="translate(0 0)" fill="#fff"/><path d="M187.52,82.39a3,3,0,0,0-2-.6,4.9,4.9,0,0,1,2.65-.29L188,81a4.13,4.13,0,0,0-3.54,1,9,9,0,0,1,1.78.41,3.89,3.89,0,0,1,1.13.7v-.19a1.34,1.34,0,0,1,.14-.47" transform="translate(0 0)" fill="#fff"/><path d="M207.89,60.88a1.1,1.1,0,0,1,.47.16,2,2,0,0,0-.21-.57.75.75,0,0,0-.51-.39c-.16,0-.16-.1-.24-.2s-.32-.11-.32-.19a1.4,1.4,0,0,0,.06-.41c0-.3-.31-.45-.36-.53s0-.12.23-.23a2.4,2.4,0,0,1,.53-.12,1.53,1.53,0,0,0-1.16-.46,3,3,0,0,0-.79.14c-.13,0,0-.19,0-.26s.14-.15.14-.15a1.48,1.48,0,0,0-.42,0,.53.53,0,0,0-.54.42c-.08.24-.65.22-.74.75s.42.85.39,1.32c0,.26-.33.36-.69.43-.11,0-.23,0-.34.06a3.58,3.58,0,0,0-.54.14c-.5.2-.86.69-1,.68a2.31,2.31,0,0,0-1.36-.62,3.06,3.06,0,0,0-1.12.26c-.14.08-.22.09-.21,0a7.55,7.55,0,0,0,.29-.72,4.15,4.15,0,0,0-.08-.79s-.33.61-.88.58a1.54,1.54,0,0,1-1-.49,1.6,1.6,0,0,1-.23-.45,1.74,1.74,0,0,1-.11-.45.54.54,0,0,1,.35-.09.53.53,0,0,1,.47.3,1.69,1.69,0,0,1,.21.62l.29-.43a2.38,2.38,0,0,0,.49-1.07.84.84,0,0,0-.35-.68,1,1,0,0,0,0-.25,1.57,1.57,0,0,0-.12-.3.63.63,0,0,1-.1.3.66.66,0,0,1-.52.36c-.29,0-.57-.18-.51-1s.31-1.1.58-1.09a.67.67,0,0,1,.49.34,1.12,1.12,0,0,1,.14.4h0a3.75,3.75,0,0,0,.37-1.13,2.21,2.21,0,0,0,0-.81c0-.07,0-.15-.11-.16h-.63a4.2,4.2,0,0,1,.62-.08c.19,0,.17-.28.1-.36s-.18-.19-.72-.24a6.46,6.46,0,0,0-.88,0h-.6v-.07s0-.08-.05-.08h-.5a7.46,7.46,0,0,0-.95.11,1.88,1.88,0,0,0-1.2.54.53.53,0,0,1-.36-.24,3.47,3.47,0,0,0-.3-.37,1.36,1.36,0,0,1-.31-.5,1.56,1.56,0,0,0-.57,1.24,4.41,4.41,0,0,0,.28.87c0,.14-.09.12-.31.41s-.11.81-.35,1.28a1.83,1.83,0,0,1-.68.7,1.23,1.23,0,0,0,.52.2,1.28,1.28,0,0,0,.39,0s0,.15-.28.44a1.36,1.36,0,0,0-.52,1.17,8.71,8.71,0,0,1,.05,1.35c0,.35-.18.42-.18.42a.5.5,0,0,0,.23.09.45.45,0,0,0,.31-.1c.18-.11.25-.07.25-.07a8.27,8.27,0,0,0-.12,1,4.72,4.72,0,0,0,.29,1.53,3,3,0,0,1,0,1,3.83,3.83,0,0,0,.29-.28,2.06,2.06,0,0,1,.31-.28,2.7,2.7,0,0,0,.08.85c.11.56.57.88.62,1.64v.62a1.06,1.06,0,0,0,.25-.09,1.68,1.68,0,0,0,.29-.24,2.81,2.81,0,0,1-.44,1,6.44,6.44,0,0,1-1.49,1.59c-.58.55-1.49,1.41-2,2a3,3,0,0,1-2.48,1.37,1.58,1.58,0,0,1-1.09-.41c-.68-.92,0-2.24.5-3.56.6-1.47.4-2.31,0-4.68s-1.74-3.72-1.46-5.49c.55-1.95,1.22-2.78,2.15-2.61.7.13.62.85.15,1.71s-1.14,1.14-1.25,1.88a1,1,0,0,0,.38,1.13,2.11,2.11,0,0,0,.23.19,1.27,1.27,0,0,1,1.19-1.32h.17a2.84,2.84,0,0,0-1,2.39,5.57,5.57,0,0,1,0,1,2.22,2.22,0,0,0,0,1.44,7.24,7.24,0,0,1,.41,1,1.19,1.19,0,0,0,.42-.7c.29-.8.39-.54.61-1.23a3.94,3.94,0,0,0,.25-1.13c.29.44.52,1,1.27,1a2.23,2.23,0,0,0,.88-.18c-.33-.53-.28-.63-.66-1.32a3.48,3.48,0,0,1-.72-2.17c-.06-1,.05-2.42,0-3a2.54,2.54,0,0,0-.64-1.53,2.65,2.65,0,0,0-3.14-.33,8.34,8.34,0,0,0-1.27.94c-2.46,2.2-1.35,4.75-.59,6.82a2.78,2.78,0,0,0-1.18-.14,19.59,19.59,0,0,1,1.48,1.4,10.46,10.46,0,0,1,.7,1.08,3.64,3.64,0,0,1,.25.57c-.35-.28-.55-.45-.79-.45a6.33,6.33,0,0,1,.35,1.55,10.37,10.37,0,0,1,0,1.93A2.38,2.38,0,0,0,184,67.08c.06.81.35,1.68.47,2.49s0,1.58.14,2.32c.43,2.28,2.34,3.09,4.68,1.89.68-.35,1.29-.73,1.29-.73a4.11,4.11,0,0,0-.08.6,10.36,10.36,0,0,0,.08,1.25c0,.43-.14.65-.6.92s-.47.26-.86.11c-.17-.06-.86-1.08-1.76-1.12a.84.84,0,0,0-.64.31,2.05,2.05,0,0,1,.49.39,1.55,1.55,0,0,1,.34.63A2.6,2.6,0,0,0,187,76c-.28,0-.49.34-.65.64s-.64.18-.64.18-.07.3.37.68a1.35,1.35,0,0,0,.93.3,3.06,3.06,0,0,0-.13.43,2.36,2.36,0,0,0,0,.75c0,.37-.68.34-.68.34a1.73,1.73,0,0,0,1,.49.87.87,0,0,0,.7-.24,8.27,8.27,0,0,0,.12,1,1.86,1.86,0,0,0,.08.41l.17.54a3.45,3.45,0,0,0,.14.34,1.42,1.42,0,0,0-.55.24.93.93,0,0,0-.26.33,1.33,1.33,0,0,0-.14.48v.86a1.94,1.94,0,0,0,.1.86.86.86,0,0,0,.26.37,1.37,1.37,0,0,0,.2.13v-.08a1,1,0,0,1,0-.35c0-.22.07-.37.22-.37s.23.2.46.21.35-.26.41-.38,0-.06,0-.08a1,1,0,0,0,.45.73,2.15,2.15,0,0,0,.67.35,1.07,1.07,0,0,0,.06.56.94.94,0,0,0,.84.58c.51,0,.63-.32.72-.32s.22.55.22.55.36-.29.38-.55a3.53,3.53,0,0,0,0-.46c0-.06.11-.12.1-.25s-.09-.28-.09-.36.06-.06.11-.12,0-.13,0-.26,0-.17.2-.15.41.41.41.41a.76.76,0,0,0,.15-.48.49.49,0,0,0,0-.17.83.83,0,0,0-.33-.41c-.17-.13-.2-.11-.18-.28a.16.16,0,0,1,.06-.13c.08-.07.2-.12.21-.25s-.14-.3-.13-.36,0-.11.12-.11.38.33.38.33a1.72,1.72,0,0,0-.06-.78c-.13-.38-.58-.46-.73-.5s-.22-.29-.57-.3-.48.61-.78,1a.62.62,0,0,1-.47.22h0a.51.51,0,0,1-.32-.19,2.22,2.22,0,0,1-.34-.69,9.21,9.21,0,0,1-.35-1.64c-.1-.89.31-.76.43-.76s.35.29.73.32.6-.28.69-.26.22.19.19.53-.45.45-.45.45.07.13.54.17.58-.07.68-.23l.21-.35a.84.84,0,0,0,.45,1,2.43,2.43,0,0,0,.84.22,2.21,2.21,0,0,0-.15-.5,1.69,1.69,0,0,1-.13-.8c0-.29,0-.47.16-.46s.21.2.5.17c.45,0,.54-.82.54-.82s-.33-.19-.46-.28-.32-.17-.27-.63a4.16,4.16,0,0,0,.34-1.56,8.27,8.27,0,0,0-.31-2.1,2.15,2.15,0,0,1,.62,0,4.09,4.09,0,0,1,1.62.76,1.14,1.14,0,0,1,.54,1,1.42,1.42,0,0,1-.38,1c-.22.19-.54.09-.89.07-.8-.06-.79.86-.79.86a.34.34,0,0,1,.34,0c.2.08.16.26.35.39s.07.25-.11.41a1.81,1.81,0,0,0-.33,1.1,1,1,0,0,0,.1.62s.11-.54.51-.61h.1c.14,0,.17.1.15.21a1.17,1.17,0,0,1-.09.24,1.84,1.84,0,0,0-.26.82,3.05,3.05,0,0,0,.05.8,2.68,2.68,0,0,0,.07.27l.19-.25.14-.17a1.41,1.41,0,0,1,.36-.24c.17-.08.23-.27.35-.25s0,.13.22.6a1.12,1.12,0,0,0,.13.24c.17.23.39.34.42.43h0c0,.13-.28,0-.54.38h0a1.17,1.17,0,0,0,.07,1l.06.11c.09.23-.05.37.1.85a.75.75,0,0,0,.57.54,1,1,0,0,1-.15-.52c0-.2.37-.17.6-.13s.33-.13.4-.27a1.18,1.18,0,0,0,.07-.2,2.43,2.43,0,0,0,.2.25l.22.23a1.19,1.19,0,0,0,.7.25.84.84,0,0,0,.8.84.85.85,0,0,0,.69-.4,2.61,2.61,0,0,1-.22-.61.06.06,0,0,1,0-.06v.06a1.18,1.18,0,0,1-.11.19c-.12.15-.2.22-.36.2a.47.47,0,0,1-.36-.36v-.47h-.43a.86.86,0,0,1-.44-.15,3.42,3.42,0,0,1-.36-.4l-.4-.63h0v.07h0a3.2,3.2,0,0,0-.24.74h-.26a.44.44,0,0,0-.33.1v-.22a.41.41,0,0,0-.06-.34c-.11-.26-.16-.39-.08-.51a.69.69,0,0,1,.11-.13l.18-.12a.53.53,0,0,0,.19-.33V82.3a.67.67,0,0,0,0-.2.58.58,0,0,0-.22-.42.91.91,0,0,1-.28-.34,1.56,1.56,0,0,1-.1-.37c0-.13-.3-.56-.55-.59s-.41,0-.74.43a2.18,2.18,0,0,1,.23-.75.74.74,0,0,0,.16-.7.64.64,0,0,0-.1-.18.33.33,0,0,0-.25-.16h0a.86.86,0,0,0-.39,0,1,1,0,0,1,.23-.41c.13-.12.25,0,.24-.31a2,2,0,0,0-.22-.52,1.44,1.44,0,0,0-.32-.38l.65.11a.7.7,0,0,0,.55-.19,2,2,0,0,0,.54-1.43,2.24,2.24,0,0,0-.94-1.56h0a5.15,5.15,0,0,0-1.9-.84h-.34a1.34,1.34,0,0,0-.4,0l-.44.11.08.66a8.46,8.46,0,0,1,.22,2,3.25,3.25,0,0,1-.13,1.12.9.9,0,0,0-.13.42c0,.35,0,.52.26.73l.45.35h-.3c-.12,0-.26-.16-.47-.15s-.35.75-.36,1a5.39,5.39,0,0,1,.22.68,1.1,1.1,0,0,1-.49-1,3.29,3.29,0,0,0-.23-.87c-.1.31,0,.43-.17.75a3.68,3.68,0,0,1-.48.75s.12-.52.12-.56c0-.37,0-.78-.28-.8a.76.76,0,0,0-.48.15c-.13.09-.16.19-.44.18a1.34,1.34,0,0,1-.59-.17,1.08,1.08,0,0,0-.5-.15.45.45,0,0,0-.46.21,1.87,1.87,0,0,0-.25,1.22,5.76,5.76,0,0,0,.21,1.23q.06.29.15.57c.31.93.74,1.2,1.13,1.21a1,1,0,0,0,.67-.25,1.35,1.35,0,0,0,.28-.35,2.92,2.92,0,0,0,.24-.37,2.61,2.61,0,0,1,.17-.28.35.35,0,0,1,.19.1.59.59,0,0,0,.29.18h0l.18.08a.43.43,0,0,0-.35.44v.2h0a.73.73,0,0,0-.18.4h0a.45.45,0,0,0,.12.41.45.45,0,0,0-.25.18.47.47,0,0,0-.08.41.39.39,0,0,0-.14.3,1.15,1.15,0,0,0,0,.37.61.61,0,0,0-.08.26v.07h0a.37.37,0,0,0-.31.15.43.43,0,0,1-.37.15.48.48,0,0,1-.49-.28,1.31,1.31,0,0,1,0-.28v-.37l-.3-.1a1.55,1.55,0,0,1-.54-.28,2.27,2.27,0,0,1-.58-1.09,2.67,2.67,0,0,0-.36.31l-.26.27h-.06a.48.48,0,0,0-.3-.13h0c-.13,0-.19.08-.29.18a.92.92,0,0,1,0-.33,1.61,1.61,0,0,0,0-.31,1.53,1.53,0,0,1-.07-.36.29.29,0,0,1,0-.13.59.59,0,0,1,.18-.29.81.81,0,0,1,.39-.17h.51l-.23-.59v-.09a3.58,3.58,0,0,0-.19-.55,2.4,2.4,0,0,1-.12-.53,8.69,8.69,0,0,1-.18-1.23V78l-.46.5c-.12.13-.49.54-.63.57a3.39,3.39,0,0,0,.21-.61l.14-.55.32-.79a2.55,2.55,0,0,1-.73.07,1.65,1.65,0,0,1-.61-.18c.08-.07.14-.08.21-.18s.1-.4.32-.41a1.48,1.48,0,0,1,.51.09l.62.19-.09-.66a3.47,3.47,0,0,0-.42-.72,1.25,1.25,0,0,1,.68.6,1.3,1.3,0,0,0,1,.56,1.43,1.43,0,0,0,.9-.25,1.82,1.82,0,0,0,1-1.46,3.05,3.05,0,0,0-.05-.52,2.43,2.43,0,0,1,0-.66,5.19,5.19,0,0,1,.12-.79l.18-1.53-1.19,1a6,6,0,0,1-2.7,1.18,2.22,2.22,0,0,1-1.17-.08c-2.12-1.16-.87-2.77-1.75-5.33a4.49,4.49,0,0,1,.95,1.51A10.26,10.26,0,0,0,186,68a3.51,3.51,0,0,0-.28-2.38s.43.53.74.89a4.53,4.53,0,0,0-1.79-4,3.29,3.29,0,0,1,.94.46c0-.67-.4-.91-.71-2s-.62-3.51.23-4.65a6.47,6.47,0,0,1,1.12-1.16,8.18,8.18,0,0,1,.79-.51,2,2,0,0,1,1.93-.12c1.44.62.77,3.93,1,5.72a3.56,3.56,0,0,0,.58,1.46q.25.38.54.72c-1,.13-1.53-1.82-1.53-1.82-.23.35-.43.46-.45.85,0,.73,0,.42-.26,1.15a6.69,6.69,0,0,0-.33,1.39,2.06,2.06,0,0,1-.2-1.76,6.85,6.85,0,0,1,.11-1.75c.35-.9,1-.75,1-1.29a6.18,6.18,0,0,0-.19-1.29c-.26,1.27-1.41.48-1.76,1.58-.09-.21-.1-.36.14-.74.13-.2.52-.34.73-.6.67-.79,1.08-2.09.3-2.8A1.49,1.49,0,0,0,187,55.3a2.37,2.37,0,0,0-.81.63c-.56.65-1.36,2.1-.58,4.72.06.23.76,2.42.83,2.7.13.53.41,1.63.51,2.27a9,9,0,0,1-.24,2.64c-.17,1-1.35,3.23-.36,4.3a2.16,2.16,0,0,0,2.16.32,5.51,5.51,0,0,0,2.57-2A18.85,18.85,0,0,1,193,69.17a10.86,10.86,0,0,0,1.2-1.42,7.62,7.62,0,0,0,.75-1.26,1.77,1.77,0,0,0,0-1.32l-.71.44c-.05-.53-.36-.51-.57-1.37a4.23,4.23,0,0,1,.12-2l-.84.59a7.76,7.76,0,0,1-.08-1.36,3.56,3.56,0,0,1,.11-.86L193,60s-.83.19-.9.22c0-.33.2-.68.18-.89a4,4,0,0,1,0-.49.85.85,0,0,1,.36-.78,1.71,1.71,0,0,0,.41-1.4.39.39,0,0,1-.2.2.51.51,0,0,1-.3,0,1.9,1.9,0,0,1,.2-.37,1.67,1.67,0,0,0,.23-.57.53.53,0,0,1,.23-.51c.28-.23.11-.46,0-.64a1.36,1.36,0,0,1-.15-.47,1.2,1.2,0,0,1,0-.75c.08.22.15.28.28.33s.27.23.39.28.21.21.31.22a.47.47,0,0,0,.31-.16,2,2,0,0,1,1-.39,11.18,11.18,0,0,1,1.83,0h.52a.68.68,0,0,0-.08.24c0,.15,0,.52.58.54h.26a2.41,2.41,0,0,1,0,.38,1.83,1.83,0,0,1-.08.25.81.81,0,0,0-.56-.29h0c-.2,0-.86.09-1,1.47a2.08,2.08,0,0,0,.26,1.36.74.74,0,0,0,.57.3.87.87,0,0,0,.51-.17h.12V58a1.51,1.51,0,0,1-.18.58.78.78,0,0,0-.69-.46,2.22,2.22,0,0,0-.57.07l-.36.14v.69a1.23,1.23,0,0,0,.5.9,2,2,0,0,0,1,.56,1.23,1.23,0,0,0,.71,0l-.09.18a1,1,0,0,0-.1.45.53.53,0,0,0,.51.51c.7,0,.67-.23,1.17-.23s.62,0,.77.21a1.21,1.21,0,0,0,.62.42,1.87,1.87,0,0,0,.83-.42,3.75,3.75,0,0,1,.66-.4.62.62,0,0,1,.19-.07l.33-.08h0c.67-.18,1.35-.42,1.38-1.08,0-.36-.06-.34-.23-.58a2.09,2.09,0,0,1-.2-.74.85.85,0,0,0,.3-.15.86.86,0,0,0,.18-.2.68.68,0,0,0,.37.34l.93-.14c-.15,0-.13.34-.14.41a3.15,3.15,0,0,0,.28.51,3.19,3.19,0,0,0-.19.67c0,.33.36.06.47.11h0l.16.06c.07.11,0,.17.23.21a.5.5,0,0,0-.37.42.92.92,0,0,0,0,.33.39.39,0,0,1-.36.09l-.24-.07a1.87,1.87,0,0,0-.66-.15h-.06a.67.67,0,0,0-.51.26,1,1,0,0,0-.12.58.72.72,0,0,0,.28.46.94.94,0,0,0,.22.12.54.54,0,0,0,0,.43H205a.17.17,0,0,0-.13.07c-.06.06-.13.14-.23.13s-.14-.54-.69-.54h-.17a.81.81,0,0,0-.24.17l-.09.11a1.23,1.23,0,0,0-.26.66,1,1,0,0,0,.12.53,6.52,6.52,0,0,1-.83-.33l-.42-.2-.07.54a1.33,1.33,0,0,0,.22.67,2.67,2.67,0,0,0-.57-.16c-.35-.08-.4-.17-.68-.24a2.73,2.73,0,0,0-.41-.1.51.51,0,0,0-.47.31,1.13,1.13,0,0,0,.28.82,5.43,5.43,0,0,0,1.36,1.26,7.66,7.66,0,0,1,1.27,1l.53.62a1.12,1.12,0,0,0,.76.45h.35c.22-.07.28-.24.36-.48v-.08h0c.08-.22.2-.51.31-.52a.67.67,0,0,1,.2.21l.09.15v.07h.21a.55.55,0,0,0-.12.24l.22.29v.25a.56.56,0,0,1,.32.15l-.14.15.34.32a.27.27,0,0,0-.22.12c-.15.16,0,.28,0,.36a.54.54,0,0,1,0,.18.51.51,0,0,0-.36.22.75.75,0,0,0-.09.29.67.67,0,0,0,0,.2,1.21,1.21,0,0,1,.11.32.55.55,0,0,0-.32-.14.34.34,0,0,0-.2,0h-.06l-.13.1-.14.16h0a.93.93,0,0,1-.26-.33c-.05-.11-.09-.28-.14-.44a3,3,0,0,0-.24-.72c-.13-.24-.32-.52-.6-.53a1.55,1.55,0,0,0-.51.18c-.25.17-.15.46-.14.68v.2c-.2,0-.23.19-.31.32a3.15,3.15,0,0,1-.11-.44,3.78,3.78,0,0,1,.06-.47l-.49.1h0a.39.39,0,0,1,0-.26,1.51,1.51,0,0,0,.15-.59c0-.35-.38-.51-.72-.53a.68.68,0,0,0-.75.59,2,2,0,0,1-.21-.67.68.68,0,0,0-.53-.63c-.25,0-.36-.14-.47.25a11.27,11.27,0,0,1-.28-1.11.58.58,0,0,0-.51-.41,1.23,1.23,0,0,0-.74.67A5.78,5.78,0,0,1,197,68.88a5.67,5.67,0,0,1-1.27.91.65.65,0,0,0-.41.65c0,.34.71.69.87.73a10.42,10.42,0,0,1,2.31,1.1,4.37,4.37,0,0,1,1.27,1.19s.33.33.51.33c.36,0,.66-.55.71-.64s0,.56,0,.71v.44h.43a1.59,1.59,0,0,0,.67-.24v.18a1.31,1.31,0,0,1-.64.42l-.53.09.38.45a1.4,1.4,0,0,1,.11.53v.09h-.08a.93.93,0,0,0-.46-.12h-.46l.05.54v.32a1.33,1.33,0,0,1-.58,1l-.1.08c-.89.66-1.38,1-1.38,1.83a7.43,7.43,0,0,0,.64,2.31c.17.4.59.94,1,1a.84.84,0,0,0,.89-.36c.18-.32.38-.81.42-.85s.32.15.35.16l-.06.06a.52.52,0,0,0-.14.35.37.37,0,0,0,.09.27h0c.1,0,.12-.09.26-.14s.2,0,.26-.07S202,82.05,202,82s0-.11.15-.09h0a.74.74,0,0,1,0-.21,1,1,0,0,1,.07-.34,1,1,0,0,0-.53-.21c-.36,0-.28-.24-.58-.11s-.35.55-.39.72a.73.73,0,0,1-.59.36c-.18,0-.47-.31-.65-.73a5.58,5.58,0,0,1-.54-1.87c0-.6.32-.83,1.25-1.52a1.72,1.72,0,0,0,.72-1.7s.37-.06.53.17a1.19,1.19,0,0,1,.17.61,3.3,3.3,0,0,0,.33-1.15v-.42a1.32,1.32,0,0,0-.08-.33c0-.11.7-.36.86-.81a3.8,3.8,0,0,0-.16-1.57,1.64,1.64,0,0,1-.41.68,1,1,0,0,1-.58.25,3.83,3.83,0,0,0-.08-1.17,1.46,1.46,0,0,0-.74-.75v.59c0,.18-.21.15-.28.26s-.13.27-.19.35-.15,0-.26-.19a5.35,5.35,0,0,0-1.32-1,10.24,10.24,0,0,0-2.58-1.19c-.33,0-.1-.24.12-.35a8.2,8.2,0,0,0,1.34-1,4.85,4.85,0,0,0,1.17-1.88c.11-.3.17-.13.23,0s0,.48.11.87a2.34,2.34,0,0,0,.32.93c.22.37.84.33.84.33a1.36,1.36,0,0,1-.34-.76c0-.36.31,0,.37.17s.19.41.3.61a1.3,1.3,0,0,0,.58.6.82.82,0,0,1-.08-.63.57.57,0,0,1,.56-.47.34.34,0,0,1,.31.27c0,.15-.36.34-.27.84s.52.2.52.2a2.54,2.54,0,0,0,.22.85c.18.32.65.27.65.27A1.21,1.21,0,0,1,203,71c0-.3.27-.16.47-.32s0-.78.11-.85.25,0,.42.31.23.77.37,1.11a1.14,1.14,0,0,0,.67.62.12.12,0,0,0,.13-.07,1.14,1.14,0,0,0,.15-.23h.09c.07,0,.17.07.26.25h0a3.48,3.48,0,0,1,.25.68,1.63,1.63,0,0,0,.25-.47,1.19,1.19,0,0,0,0-.46,1.87,1.87,0,0,0-.08-.34v-.37h0v-.27c0-.14.16-.06.28-.16a.72.72,0,0,0,.21-.57c0-.25.09-.13.23,0a6.3,6.3,0,0,1,.48.55,2.15,2.15,0,0,0,0-.62,1.67,1.67,0,0,0-.47-.85s.07-.09-.11-.38a.83.83,0,0,0-.58-.32.19.19,0,0,1,.19-.15,1.39,1.39,0,0,1,.45.14,1.59,1.59,0,0,0-.31-.59.7.7,0,0,0-.6-.21s-.24-.46-.54-.43a.56.56,0,0,0-.31.19,2.77,2.77,0,0,0-.36.78.18.18,0,0,1-.07.17,1.64,1.64,0,0,1-.14.22.33.33,0,0,1-.13.07h-.07a.33.33,0,0,1-.14,0c-.24-.13-.47-.53-.67-.73A8.74,8.74,0,0,0,202,66.4a6.92,6.92,0,0,1-1.42-1.28c-.16-.21,0-.18.29-.11s.53.14.89.21.63.34,1,.36.72-.41.72-.41l-.76-.36a.44.44,0,0,1-.18-.38,3.67,3.67,0,0,0,.92.3h.11l.33-.08.38-.16-.35-.2h-.07a.57.57,0,0,1-.18-.48.68.68,0,0,1,.11-.39.23.23,0,0,1,.07-.1c.14-.16.28,0,.32.15a.55.55,0,0,0,.12.24.53.53,0,0,0,.34.15c.26,0,.34-.38.42-.37s.33.29.62.29a1.35,1.35,0,0,0,.65-.33l-.33-.08a.42.42,0,0,1-.22-.31c0-.1.09-.21.11-.42,0-.45-.42-.41-.54-.58a.17.17,0,0,1,0-.1.2.2,0,0,1,.1-.22.61.61,0,0,1,.27,0h.1a7,7,0,0,1,1,.26.71.71,0,0,0,.67-.25c.24-.26,0-.47,0-.56s.21-.21.45-.2" transform="translate(0 0)" fill="#fff"/><path d="M220.91,89.53a.88.88,0,0,0,.39-.11.8.8,0,0,0,.21-.15h0l-.55.09-.1.18" transform="translate(0 0)" fill="#fff"/><path d="M222.32,86.88l.24-.06a1.19,1.19,0,0,1-.86-.49l-.15.1.06.48a4.21,4.21,0,0,0,.71,0" transform="translate(0 0)" fill="#fff"/><path d="M218.14,90a1.47,1.47,0,0,1,1-.36,2.6,2.6,0,0,0,1.48-.23c-1,.14-2,.26-3,.35a5.11,5.11,0,0,1-.71.51,20.5,20.5,0,0,0,2.34-.19,1.36,1.36,0,0,0-1.13-.08" transform="translate(0 0)" fill="#fff"/><path d="M199.42,90.6l.06-1.31-1,.84Zm.09-1.65.22.12-.09,2.55-.26-.13v-.68l-1.16-.58-.52.44-.26-.13Z" transform="translate(0 0)" fill="#fff"/><path d="M200.3,90.6h0a1.15,1.15,0,0,1,1.47-.73h.06a1.23,1.23,0,0,1,.72.6l-.23.13a1,1,0,0,0-.58-.51.92.92,0,0,0-1.18.57v0h0a.92.92,0,0,0,.39,1.24h.13a1.11,1.11,0,0,0,.72,0l.21-.55-.67-.26.08-.22.91.34-.33.89a1.43,1.43,0,0,1-1,0,1.16,1.16,0,0,1-.72-1.48l0-.11" transform="translate(0 0)" fill="#fff"/><polygon points="203.13 90.42 204.78 90.89 204.71 91.13 203.32 90.72 203.1 91.5 204.34 91.85 204.27 92.09 203.03 91.73 202.81 92.53 204.2 92.94 204.14 93.17 202.48 92.69 203.13 90.42" fill="#fff"/><path d="M208.15,92.75h0a.94.94,0,0,0-.72-1.12h-.09a.92.92,0,0,0-1.07.74h0v.05h0a1,1,0,0,0,.75,1.11h0a.94.94,0,0,0,1.11-.73h0M206,92.46h0a1.21,1.21,0,0,1,1.37-1h0a1.2,1.2,0,0,1,1,1.31v.09h0a1.2,1.2,0,0,1-1.36,1h0a1.2,1.2,0,0,1-1-1.36h0" transform="translate(0 0)" fill="#fff"/><polygon points="208.94 91.66 209.21 91.68 209.95 93.05 210.93 91.84 211.19 91.86 210.98 94.22 210.72 94.2 210.89 92.29 209.92 93.47 209.91 93.47 209.16 92.14 208.99 94.04 208.74 94.02 208.94 91.66" fill="#fff"/><polygon points="211.68 91.89 211.93 91.89 213.39 93.82 213.42 91.92 213.69 91.92 213.63 94.29 213.42 94.29 211.93 92.31 211.89 94.25 211.64 94.25 211.68 91.89" fill="#fff"/><polygon points="214.18 91.92 214.24 94.28 215.97 94.23 215.96 93.99 214.5 94.03 214.48 93.2 215.77 93.17 215.76 92.92 214.47 92.96 214.45 92.15 215.89 92.11 215.89 91.86 214.18 91.92" fill="#fff"/><path d="M218.71,93.78c.36,0,.56-.22.53-.48h0c0-.26-.25-.38-.67-.34l-.74.08.08.83Zm-.21-1c.33,0,.53-.2.5-.48h0c0-.24-.23-.37-.56-.33l-.72.07.09.81Zm-1-1,1-.1a.86.86,0,0,1,.64.14.52.52,0,0,1,.19.36h-.05a.56.56,0,0,1-.32.58c.29.06.53.19.56.52h0c0,.4-.27.67-.79.73l-1,.11Z" transform="translate(0 0)" fill="#fff"/><path d="M221.85,92.37h0a.93.93,0,0,0-1.86,0,.41.41,0,0,0,0,.11v.14h0a.94.94,0,0,0,1.06.8h0a.93.93,0,0,0,.76-1.06h0m-2.1.36h0a1.2,1.2,0,1,1,2.37-.41h0a1.2,1.2,0,0,1-2.37.42h0" transform="translate(0 0)" fill="#fff"/><polygon points="222.27 91.08 222.51 91.01 224.42 92.48 223.96 90.64 224.2 90.58 224.79 92.88 224.58 92.93 222.62 91.42 223.11 93.3 222.84 93.37 222.27 91.08" fill="#fff"/><path d="M225.1,91.75l-.48-1.3.26-.09.47,1.26a.71.71,0,0,0,.83.54h.12a.69.69,0,0,0,.48-.85h0a.77.77,0,0,0-.07-.16l-.47-1.29.26-.1L227,91a1,1,0,0,1-.34,1.29l-.25.1a.93.93,0,0,1-1.22-.49.88.88,0,0,1,0-.15" transform="translate(0 0)" fill="#fff"/><polygon points="226.87 89.59 227.11 89.47 228.47 90.22 228.65 88.67 228.88 88.55 229.98 90.65 229.74 90.77 228.85 89.07 228.67 90.59 228.66 90.6 227.32 89.87 228.19 91.57 227.96 91.69 226.87 89.59" fill="#fff"/><path d="M224.18,59.1a8.19,8.19,0,0,1-.3,1.39,2.71,2.71,0,0,0,.41.09l-.11-1.48" transform="translate(0 0)" fill="#fff"/><path d="M223.84,68.15a20.33,20.33,0,0,0,.56-3h0v-.44h0a1.5,1.5,0,0,1-.3,0,19.58,19.58,0,0,1-.65,3.72h.07a.59.59,0,0,0,.3-.16" transform="translate(0 0)" fill="#fff"/><path d="M222.13,71.7l-.07.13a5.66,5.66,0,0,0-.2.58l-.06-.08a36.24,36.24,0,0,1-5.48,7.79,17.2,17.2,0,0,1-2.26,2c-1-.71-6.27-4.67-8.62-10.64h-.09a2.33,2.33,0,0,0-.17.26c2.7,6.7,8.87,10.75,8.87,10.75s3.84-2.26,8.16-10.24l.35-.69a.2.2,0,0,0-.08-.12.42.42,0,0,0-.35.2" transform="translate(0 0)" fill="#fff"/><path d="M224.17,63.63a1,1,0,0,0,0,.24v-.24" transform="translate(0 0)" fill="#fff"/><path d="M224.42,60.6a20.19,20.19,0,0,0-.92-4.55h-1l-.07.15h-6.49a2.23,2.23,0,0,0-.84.22h8.24a23.23,23.23,0,0,1,.79,4.12h.39" transform="translate(0 0)" fill="#fff"/><path d="M223.52,68.34h.15a4.26,4.26,0,0,0,.23-1.17c-.08-.35-.11-.61-.11-.61a6.66,6.66,0,0,1-.48,1.69h.21" transform="translate(0 0)" fill="#fff"/><path d="M231.77,80.07a1.66,1.66,0,0,1,.19.48,5.58,5.58,0,0,1,1,3.11h.28a6.23,6.23,0,0,0-1.55-3.94.48.48,0,0,0,.08.35" transform="translate(0 0)" fill="#fff"/><path d="M225.88,75.77a28.85,28.85,0,0,0-5.06-1.51l-.06.27a28.83,28.83,0,0,1,5.13,1.54v-.3" transform="translate(0 0)" fill="#fff"/><path d="M226.52,76.33l.4.18a1.13,1.13,0,0,1,0-.26.69.69,0,0,0-.42.08" transform="translate(0 0)" fill="#fff"/><path d="M230.62,81.73h0a1.07,1.07,0,0,1-.31.39l.56-.11a6.64,6.64,0,0,1,1-.1l-.21-.28a5.56,5.56,0,0,0-1,.1" transform="translate(0 0)" fill="#fff"/><path d="M232.9,82.51a.43.43,0,0,1,0,.16.84.84,0,0,0,.14-.4c-.1-.25-.35-.54-1.1-.6a1.31,1.31,0,0,1-.06.27c.71,0,.88.29,1,.57" transform="translate(0 0)" fill="#fff"/><path d="M230.52,83.88h0c.57-.32.42-.62.43-.76l.26.7.26-.24-.29-.7c-.06-.14-.25-.2-.55-.17h0c.26.38,0,.93-.11,1.14" transform="translate(0 0)" fill="#fff"/><path d="M228.92,84.14a1.59,1.59,0,0,1-.26.32l.37-.07A1.12,1.12,0,0,1,228.92,84.14Z" transform="translate(0 0)" fill="#fff"/><path d="M243.65,84.81a14.37,14.37,0,0,0-3.29-1.56v.43a7.19,7.19,0,0,1,1,.4l1.65.73a9.88,9.88,0,0,0-4.82.89l-2,1.1a16.28,16.28,0,0,1-2.59,1.08c-1.41.35-1.67-.78-1.67-.78l-.87-2.65a1.66,1.66,0,0,0,1.58.48,4.62,4.62,0,0,0,1.3-.53l.52-.33a1,1,0,0,1,.33-.37c.17-.13.2-.11.18-.28a.21.21,0,0,0-.07-.14c-.46.29-.83.53-1.17.72L233,82.25a1.1,1.1,0,0,1-.06.26,1.41,1.41,0,0,1-.84.73c-.91.36-1.59.71-1.41,1.25l.92,2.84a1.91,1.91,0,0,0,2.08,1,19.86,19.86,0,0,0,4.63-2.2,12.51,12.51,0,0,1,5.3-1c.28,0,0-.25,0-.25" transform="translate(0 0)" fill="#fff"/><path d="M242.46,81.88a3.61,3.61,0,0,0-2.13.66,1.3,1.3,0,0,1,.07.33,1.5,1.5,0,0,1,0,.3,3.66,3.66,0,0,1,1.29-.79,8,8,0,0,1,1.88-.34c.09,0-.37-.29-.37-.29a6.38,6.38,0,0,0-3.43-.73,1.64,1.64,0,0,1-.13.43,4.49,4.49,0,0,1,2.88.43" transform="translate(0 0)" fill="#fff"/><path d="M237,82.51H237l.32-.19a2.55,2.55,0,0,0,.32-.69,6.65,6.65,0,0,0-.74.41l-.45.3a.58.58,0,0,0,.46.22" transform="translate(0 0)" fill="#fff"/><path d="M235.33,83V82.7a.44.44,0,0,0-.35-.44.42.42,0,0,1,.18-.08h0a.53.53,0,0,0,.28-.18.35.35,0,0,1,.19-.1,1.67,1.67,0,0,1,.18.28,2.16,2.16,0,0,0,.22.36,1.52,1.52,0,0,0,.31.31,1.08,1.08,0,0,0,.64.24c.4,0,.83-.29,1.14-1.25a5,5,0,0,0,.16-.55c.08-.4.15-.8.2-1.21a1.81,1.81,0,0,0-.26-1.2.43.43,0,0,0-.45-.21,1.16,1.16,0,0,0-.51.15,1.49,1.49,0,0,1-.59.17.52.52,0,0,1-.43-.18.71.71,0,0,0-.48-.15c-.25,0-.32.43-.29.8l.13.56a3.68,3.68,0,0,1-.48-.75c-.2-.32-.07-.43-.17-.75a3.31,3.31,0,0,0-.24.87,1.09,1.09,0,0,1-.48,1,5.73,5.73,0,0,1,.23-.7c0-.2,0-.93-.35-1s-.37.14-.48.15h-.29l.44-.33c.3-.21.27-.38.27-.73a.91.91,0,0,0-.14-.42,3.51,3.51,0,0,1-.13-1.12,9.65,9.65,0,0,1,.22-2l.09-.66-.44-.11a1.34,1.34,0,0,0-.4,0h-.35a5,5,0,0,0-1.88.85h0a2.18,2.18,0,0,0-.83,1.54,2,2,0,0,0,.54,1.43.67.67,0,0,0,.54.19c.08,0,.63-.13.67-.12a1,1,0,0,0-.32.39,1.64,1.64,0,0,0-.24.52c0,.32.11.19.25.31a1,1,0,0,1,.23.41.9.9,0,0,0-.4,0,.33.33,0,0,0-.24.12,1,1,0,0,0-.13.23h0a.78.78,0,0,0,.16.69,1.82,1.82,0,0,1,.23.75c-.33-.42-.35-.48-.73-.44s-.52.47-.55.6a3.1,3.1,0,0,1-.1.36.87.87,0,0,1-.28.35.6.6,0,0,0-.2.27,1,1,0,0,0,0,.35h0a.78.78,0,0,0,.23.47l.16.11a.8.8,0,0,1,.13.13c.08.13,0,.26-.08.52a.39.39,0,0,0-.06.33v.07a.47.47,0,0,0-.34-.1h-.25a4.1,4.1,0,0,0-.14-.5.5.5,0,0,0-.09-.23V83h0l-.07.12h0l-.31.47a2.23,2.23,0,0,1-.35.4.89.89,0,0,1-.45.15h-.37v.47a.53.53,0,0,1-.39.35.31.31,0,0,1-.34-.19.56.56,0,0,1-.09-.17.28.28,0,0,0-.15-.15v-.13a.81.81,0,0,0,0-1,.55.55,0,0,0-.28-.3.6.6,0,0,0,.07-.84c.06-.1.11-.13.1-.27a.51.51,0,0,0-.15-.35l-.06-.06s.29-.14.36-.16.24.53.41.85a.9.9,0,0,0,.89.36c.41,0,.82-.56,1-1a7.09,7.09,0,0,0,.56-2.17c0-.81-.48-1.17-1.37-1.83l-.11-.08a1.41,1.41,0,0,1-.56-.55,1,1,0,0,1-.06-.34.49.49,0,0,1,0-.17l.06-.68h-.47a.86.86,0,0,0-.53.19.06.06,0,0,1,0-.06,1.38,1.38,0,0,1,.11-.57l.37-.44-.48-.13a1.2,1.2,0,0,1-.64-.42.54.54,0,0,1,0-.18,1.55,1.55,0,0,0,.66.24H227V73.17s.37.64.72.64c.17,0,.51-.33.51-.33a4.49,4.49,0,0,1,1.23-1.19,11.73,11.73,0,0,1,2.32-1.1c.16,0,.85-.39.87-.73a.64.64,0,0,0-.42-.65,5.4,5.4,0,0,1-1.26-.91,5.94,5.94,0,0,1-1.19-1.66c-.11-.3-.53-.67-.73-.66a.56.56,0,0,0-.51.41,5.14,5.14,0,0,1-.28,1.09c-.12-.38-.23-.25-.48-.23a.67.67,0,0,0-.53.62,1.55,1.55,0,0,1-.21.67.67.67,0,0,0-.74-.59h0a.68.68,0,0,0-.72.53,1.79,1.79,0,0,0,.16.59.39.39,0,0,1,0,.26h0l-.5-.1a3.55,3.55,0,0,1,.06.47,3.13,3.13,0,0,1-.1.44c-.08-.13-.11-.28-.31-.32h-.1v-.15c0-.22.12-.51-.14-.68a1.78,1.78,0,0,0-.5-.19c-.29,0-.48.3-.61.54a2.63,2.63,0,0,0-.23.72,1.41,1.41,0,0,1-.14.44.86.86,0,0,1-.27.33.31.31,0,0,0-.09-.11l-.24-.21h0a.49.49,0,0,0-.17,0,.58.58,0,0,0-.33.14,1.21,1.21,0,0,1,.11-.32.67.67,0,0,0,0-.2.52.52,0,0,0-.44-.51.28.28,0,0,1,0-.18c0-.08.14-.2,0-.36a.35.35,0,0,0-.23-.12l.33-.32-.13-.16a.52.52,0,0,1,.31-.14v-.32l.22-.29a.55.55,0,0,0-.12-.24h.22l.05-.29c0-.09.15-.21.19-.21a1.64,1.64,0,0,1,.32.56.89.89,0,0,0,.3.52.6.6,0,0,0,.19.06h.36a1.18,1.18,0,0,0,.66-.45l.54-.63a7.59,7.59,0,0,1,1.26-1,5.15,5.15,0,0,0,1.34-1.21,1.16,1.16,0,0,0,.27-.82.5.5,0,0,0-.46-.31l-.42.09a5.54,5.54,0,0,1-.68.25,2.66,2.66,0,0,0-.55.16,1.55,1.55,0,0,0,.21-.67l-.07-.53-.46.19a6.52,6.52,0,0,1-.83.33,1,1,0,0,0,.12-.52,1.08,1.08,0,0,0-.15-.5.75.75,0,0,1-.07-.12c0-.06-.09-.11-.13-.16a.86.86,0,0,0-.14-.13.65.65,0,0,0-.27-.08.53.53,0,0,0-.25,0c-.28.14-.28.48-.42.49s-.24-.2-.38-.2h-.32a.54.54,0,0,0,0-.43.92.92,0,0,0,.4-.33.41.41,0,0,0,.09-.26v-.1a.87.87,0,0,0-.12-.47.73.73,0,0,0-.65-.26,1.86,1.86,0,0,0-.65.15l-.26.07a.4.4,0,0,1-.37,0,.62.62,0,0,0,0-.33.49.49,0,0,0-.35-.42c.2,0,.15-.1.22-.21l.17,0h0c.11,0,.46.22.48-.11a3.32,3.32,0,0,0-.13-.7s.33-.37.29-.51,0-.39-.14-.41l.93.14a.63.63,0,0,0,.36-.34.94.94,0,0,0,.14.26.89.89,0,0,0,.31.15,1.91,1.91,0,0,1-.21.74c-.17.24-.24.22-.23.58s.45.78.94.94l.45.14h.33a.48.48,0,0,1,.16.08,3.18,3.18,0,0,1,.66.41,2,2,0,0,0,.83.41,1.07,1.07,0,0,0,.62-.42c.16-.22.29-.21.78-.21s.46.23,1.17.23a.56.56,0,0,0,.52-.51,1,1,0,0,0-.11-.45l-.08-.18a1.16,1.16,0,0,0,.69,0,2,2,0,0,0,1-.56,1.28,1.28,0,0,0,.49-.9v-.69l-.35-.14a2.25,2.25,0,0,0-.58-.07.75.75,0,0,0-.69.46,2,2,0,0,1-.18-.58v-.15h.07a.91.91,0,0,0,.53.18.72.72,0,0,0,.55-.3,2.15,2.15,0,0,0,.27-1.36c-.1-1.38-.77-1.47-1-1.47h0a.87.87,0,0,0-.49.28,1,1,0,0,1-.07-.25,1.21,1.21,0,0,1,0-.38h.27c.53,0,.58-.39.57-.54a.67.67,0,0,0-.07-.24h.51a11.43,11.43,0,0,1,1.85,0,2,2,0,0,1,1,.39.47.47,0,0,0,.31.16c.09,0,.22-.19.32-.22s.23-.22.37-.27a.52.52,0,0,0,.29-.34,1.2,1.2,0,0,1,0,.75c-.08.24-.13.36-.16.47s-.23.4,0,.64a.53.53,0,0,1,.23.51,2.08,2.08,0,0,0,.23.69,1.65,1.65,0,0,0,.2.37.48.48,0,0,1-.29,0,.53.53,0,0,1-.21-.21,1.74,1.74,0,0,0,.42,1.4.87.87,0,0,1,.37.74,4.17,4.17,0,0,1,0,.5c0,.2.16.55.18.89-.07,0-.9-.23-.9-.23l.12.62a4.94,4.94,0,0,1,.11.86,8.87,8.87,0,0,1-.08,1.36l-.82-.63a4.51,4.51,0,0,1,.12,2c-.22.86-.53.84-.57,1.37l-.72-.44a1.77,1.77,0,0,0,0,1.32,7.62,7.62,0,0,0,.75,1.26,9.73,9.73,0,0,0,1.22,1.42,19.93,19.93,0,0,1,1.85,1.71,5.46,5.46,0,0,0,2.57,2,2.16,2.16,0,0,0,2.19-.4c1-1.07-.19-3.34-.36-4.3a9.35,9.35,0,0,1-.23-2.64c.1-.64.37-1.74.5-2.27.07-.28.77-2.47.83-2.7.79-2.62,0-4-.57-4.72a2.37,2.37,0,0,0-.81-.63,1.47,1.47,0,0,0-1.6.08c-.78.71-.38,2,.29,2.8.21.26.61.4.73.6.24.37.23.53.15.74-.35-1.1-1.51-.31-1.77-1.58a6.18,6.18,0,0,0-.19,1.29c0,.54.6.39,1,1.29a6.83,6.83,0,0,1,.14,1.75,2.12,2.12,0,0,1-.16,1.77,6.05,6.05,0,0,0-.34-1.38c-.24-.74-.23-.43-.26-1.16,0-.39-.21-.5-.44-.85,0,0-.52,2-1.52,1.82.28-.42.32-.38.52-.72a3.41,3.41,0,0,0,.58-1.5c.21-1.79-.45-5.06,1-5.72a2,2,0,0,1,1.94.12c.23.15.57.33.79.51a6.37,6.37,0,0,1,1.15,1.17c.85,1.14.54,3.56.22,4.65s-.66,1.34-.71,2a3.1,3.1,0,0,1,.95-.46,4.53,4.53,0,0,0-1.79,4c.32-.36.74-.89.74-.89a4,4,0,0,0-.26.76,4.89,4.89,0,0,0,0,1.62,11.08,11.08,0,0,0,.26,1.51,4.63,4.63,0,0,1,1-1.51c-.88,2.56.38,4.17-1.75,5.33a2.09,2.09,0,0,1-1.26.15,6,6,0,0,1-2.7-1.18c-.28-.2-1.2-1-1.2-1l.16,1.64a7,7,0,0,1,.13.8,3.64,3.64,0,0,1,0,.66,2.24,2.24,0,0,0-.06.52,1.88,1.88,0,0,0,1,1.47,1.42,1.42,0,0,0,.9.24,1.32,1.32,0,0,0,.95-.56,1.25,1.25,0,0,1,.7-.6,3,3,0,0,0-.44.72l-.09.66.63-.19a1.43,1.43,0,0,1,.5-.09c.23,0,.26.28.34.41s.11.11.19.18a1.65,1.65,0,0,1-.61.18,2.24,2.24,0,0,1-.73-.07l.33.8s.08.3.13.54a3.42,3.42,0,0,0,.22.61c-.15,0-.51-.44-.63-.57l-.47-.5v1.2q-.06.61-.18,1.23a5.79,5.79,0,0,1-.31,1,.23.23,0,0,1-.05.14l-.23.59h.52a1.33,1.33,0,0,1,.38.18.57.57,0,0,1,.21.42.14.14,0,0,1,0,.09,1.31,1.31,0,0,1-.06.27,1,1,0,0,0,0,.25.86.86,0,0,1,0,.39c-.1-.1-.16-.18-.29-.18h0a.37.37,0,0,0-.28.13h-.07l-.27-.27c-.11-.11-.23-.21-.35-.31a2.43,2.43,0,0,1-.59,1.09,1.55,1.55,0,0,1-.54.28l-.3.09v.38a.66.66,0,0,1,0,.28c-.1.23-.24.27-.48.28a.41.41,0,0,1-.37-.15.42.42,0,0,0-.31-.15h0a.79.79,0,0,0-.08-.26,1.15,1.15,0,0,0,0-.37.44.44,0,0,0-.15-.3.47.47,0,0,0-.24-.59.44.44,0,0,0,.12-.42h0a.63.63,0,0,0-.19-.4h0m-.32.45c0,.17,0,.15-.17.28a1.09,1.09,0,0,0-.34.37.74.74,0,0,0,0,.21.86.86,0,0,0,.15.49s.21-.41.42-.42.2,0,.19.15a1.22,1.22,0,0,0,0,.27c0,.06.11,0,.11.11s-.09.24-.1.36.11.18.11.26a3.38,3.38,0,0,0,0,.45c0,.26.39.55.39.55s0-.55.22-.55.2.34.72.32a1,1,0,0,0,.85-.58,1.75,1.75,0,0,0,.06-.56,2.3,2.3,0,0,0,.66-.34,1,1,0,0,0,.44-.74v.08c.06.11.18.39.42.38s.3-.21.45-.21.21.15.22.36a1.61,1.61,0,0,1-.06.44.89.89,0,0,0,.47-.5,2.28,2.28,0,0,0,.1-.86h0a.61.61,0,0,1,0-.19v-.24a.11.11,0,0,0,0-.08,1.61,1.61,0,0,0,0-.31A1.14,1.14,0,0,0,240,82a1.59,1.59,0,0,0-.55-.24s.07-.16.15-.4.09-.28.13-.43a2.46,2.46,0,0,0,.11-.45c.09-.57.13-1,.13-1a.82.82,0,0,0,.68.23,1.73,1.73,0,0,0,1-.49s-.69,0-.69-.34a2.36,2.36,0,0,0,0-.75,3.06,3.06,0,0,0-.13-.43,1.31,1.31,0,0,0,.93-.3c.43-.38.36-.67.36-.67s-.46.09-.64-.19-.36-.65-.64-.64a2.6,2.6,0,0,0-.62.11,1.65,1.65,0,0,1,.28-.6A1.73,1.73,0,0,1,241,75a.83.83,0,0,0-.65-.31c-.9,0-1.59,1-1.75,1.12-.4.15-.42.15-.87-.11s-.61-.49-.6-.92a7.43,7.43,0,0,0,.08-1.25,3.09,3.09,0,0,0-.08-.6s.61.38,1.31.73c2.32,1.2,4.25.39,4.65-1.89.14-.74,0-1.56.15-2.32a19,19,0,0,0,.47-2.48,2.33,2.33,0,0,0-1.36,1.16,10.37,10.37,0,0,1,0-1.93,6.85,6.85,0,0,1,.36-1.55c-.24,0-.46.16-.8.45a3.64,3.64,0,0,1,.25-.57c.07-.15.39-.63.7-1.08A17.27,17.27,0,0,1,244.25,62a2.87,2.87,0,0,0-1.2.14c.77-2,1.88-4.62-.57-6.82a9.79,9.79,0,0,0-1.28-.94,2.65,2.65,0,0,0-3.14.33,2.51,2.51,0,0,0-.63,1.47c0,.65.07,2,0,3a3.68,3.68,0,0,1-.71,2.17c-.4.69-.35.79-.68,1.31a2.39,2.39,0,0,0,.87.19c.76,0,1-.55,1.27-1a4.49,4.49,0,0,0,.26,1.14c.22.69.32.43.63,1.23a1.16,1.16,0,0,0,.4.7c.12-.34.26-.68.41-1a2.1,2.1,0,0,0,0-1.44,5.57,5.57,0,0,1,0-1,2.84,2.84,0,0,0-1-2.39,1.26,1.26,0,0,1,1.36,1.15v.2a2.11,2.11,0,0,0,.23-.19,1,1,0,0,0,.51-1.08c-.13-.71-.72-.91-1.23-1.84s-.54-1.58.16-1.71c.93-.18,1.59.66,2.14,2.61.28,1.77-1,3.1-1.46,5.49s-.61,3.22,0,4.68,1.2,2.64.53,3.56a1.58,1.58,0,0,1-1.1.41,3,3,0,0,1-2.42-1.51c-.56-.61-1.47-1.47-2-2a6.4,6.4,0,0,1-1.48-1.59c-.49-.75-.45-1-.45-1a2.17,2.17,0,0,0,.29.24,1.14,1.14,0,0,0,.26.09V66c.06-.77.5-1.08.62-1.65a2.7,2.7,0,0,0,.07-.85l.32.29.28.28a3,3,0,0,1,0-.95,4,4,0,0,0,.31-1.53,8.27,8.27,0,0,0-.12-1,.72.72,0,0,1,.25.07.41.41,0,0,0,.3.1.5.5,0,0,0,.23-.09s-.15-.07-.18-.42c-.06-.61.09-.92,0-1.35a1.38,1.38,0,0,0-.51-1.17c-.33-.29-.29-.44-.29-.44a1.34,1.34,0,0,0,.4,0,1.28,1.28,0,0,0,.5-.2,1.88,1.88,0,0,1-.67-.7c-.24-.48-.14-1-.35-1.29s-.34-.26-.3-.4a4.39,4.39,0,0,0,.27-.87,1.56,1.56,0,0,0-.57-1.24,1.31,1.31,0,0,1-.29.56,2.06,2.06,0,0,0-.29.37.62.62,0,0,1-.37.24,1.85,1.85,0,0,0-1.19-.54,8.27,8.27,0,0,0-1-.12h-.51c-.07,0-.07,0,0,.08v.07h-.61a6.46,6.46,0,0,0-.88,0c-.53,0-.64.15-.72.24s-.09.35.11.36.6,0,.61.08-.22,0-.36,0H229c-.07,0-.11.08-.12.15a2.75,2.75,0,0,0,0,.81,3.43,3.43,0,0,0,.38,1.13s.05.08.05,0a.94.94,0,0,1,.13-.4.64.64,0,0,1,.5-.34c.26,0,.52.29.57,1.1s-.21,1-.5,1a.66.66,0,0,1-.53-.36.87.87,0,0,1-.1-.31,1.21,1.21,0,0,0-.11.32,1,1,0,0,0,0,.24.81.81,0,0,0-.36.68,2.33,2.33,0,0,0,.44,1.16c.08.14.28.43.28.43a1.54,1.54,0,0,1,.22-.62.51.51,0,0,1,.46-.3.54.54,0,0,1,.35.09,1.4,1.4,0,0,1-.1.45,2,2,0,0,1-.24.45,1.5,1.5,0,0,1-1,.49,1.19,1.19,0,0,1-.89-.58,4.22,4.22,0,0,0-.07.79c0,.21.28.62.28.71s-.07.1-.2,0a3.44,3.44,0,0,0-1.1-.24c-.89,0-1.2.61-1.37.62s-.55-.48-1-.68a3.77,3.77,0,0,0-.58-.14h-.54c-.26-.07-.46-.18-.47-.37,0-.48.5-.68.38-1.33s-.64-.51-.72-.74a.51.51,0,0,0-.54-.42,1,1,0,0,0-.43,0s.14.07.15.14.14.3,0,.26a3,3,0,0,0-.79-.14,1.55,1.55,0,0,0-1.17.38,2.48,2.48,0,0,1,.54.12c.18.11.26.15.22.23s-.35.26-.34.53.08.3.07.38-.23.09-.32.19-.09.17-.24.2a.75.75,0,0,0-.51.39,1.73,1.73,0,0,0-.26.57,1.19,1.19,0,0,1,.48-.16c.23,0,.43.09.44.19s-.2.31,0,.57a.68.68,0,0,0,.68.23c.21,0,.56-.22,1-.24s.5.06.49.26-.63.17-.59.68c0,.2.11.32.11.42a.35.35,0,0,1-.22.31l-.32.08a1.31,1.31,0,0,0,.64.33c.3,0,.53-.27.62-.29s.16.38.43.37a.48.48,0,0,0,.45-.39c0-.19.18-.31.33-.15a.83.83,0,0,1,.18.42v.07a.56.56,0,0,1-.26.53l-.35.2c.18.08.36.14.54.2a1.59,1.59,0,0,0,.3.06h0a3.5,3.5,0,0,0,1-.3.39.39,0,0,1-.18.38l-.74.35h-.09c.07.08.43.42.7.39s.59-.28.95-.36l.89-.2c.28-.07.47-.11.28.1a6.26,6.26,0,0,1-1.34,1.28,7.28,7.28,0,0,0-1.48,1.23c-.15.15-.32.43-.52.6a.58.58,0,0,1-.15.11.38.38,0,0,1-.15,0h-.19c-.32-.26-.36-1.32-.9-1.38-.31,0-.55.43-.55.43a.68.68,0,0,0-.59.21,1.59,1.59,0,0,0-.31.59,1.41,1.41,0,0,1,.44-.14.21.21,0,0,1,.2.15.92.92,0,0,0-.59.32c-.19.29-.11.38-.11.38a1.67,1.67,0,0,0-.47.85,2.15,2.15,0,0,0,0,.62,6.3,6.3,0,0,1,.48-.55c.14-.11.23-.24.23,0a.76.76,0,0,0,.22.57c.12.1.27,0,.27.16a1.41,1.41,0,0,1,0,.29c0,.09.09.13,0,.37a1.52,1.52,0,0,0-.06.79,1.44,1.44,0,0,0,.18.4l.06.08a4,4,0,0,1,.2-.58v-.09h0c.14-.24.3-.24.35-.2s0,.06.08.12.12.22.21.21a1.12,1.12,0,0,0,.67-.61c.14-.35.2-.8.37-1.12s.31-.39.42-.32-.08.69.11.85.47,0,.48.33a1.22,1.22,0,0,1-.08.5s.47,0,.65-.26a2.59,2.59,0,0,0,.33-.85s.43.18.51-.21-.27-.71-.26-.81a.33.33,0,0,1,.3-.27.58.58,0,0,1,.57.48.79.79,0,0,1-.08.62,1.3,1.3,0,0,0,.57-.59c.12-.23.25-.46.32-.62s.37-.53.35-.17a1.47,1.47,0,0,1-.32.77s.61,0,.83-.35a2.3,2.3,0,0,0,.32-.92c.09-.38,0-.69.1-.87s.12-.35.24,0a5.26,5.26,0,0,0,1.2,1.81,6.94,6.94,0,0,0,1.35,1c.22.13.44.32.13.36a10,10,0,0,0-2.59,1.19,5.66,5.66,0,0,0-1.33,1c-.11.14-.2.26-.25.19s-.11-.25-.18-.36-.27-.06-.3-.25a2.91,2.91,0,0,1,0-.59,1.5,1.5,0,0,0-.74.75,3.83,3.83,0,0,0-.07,1.17,1,1,0,0,1-.59-.32,1.77,1.77,0,0,1-.42-.68,4,4,0,0,0-.16,1.57c.16.45.86.81.86.81a2.76,2.76,0,0,0-.1.64V76a3.5,3.5,0,0,0,.3,1,1.31,1.31,0,0,1,.18-.61.31.31,0,0,1,.11-.09.62.62,0,0,1,.42-.07,1,1,0,0,0,0,.25,1.75,1.75,0,0,0,.74,1.44c.93.69,1.26.92,1.26,1.51a5.93,5.93,0,0,1-.5,1.9c-.18.41-.48.71-.66.72s-.56-.19-.59-.36-.07-.6-.38-.72-.22.08-.59.11a.72.72,0,0,0-.66.43,1.88,1.88,0,0,0-.07.53.58.58,0,0,1,.31-.2c.16,0,.15,0,.15.09s-.18.26-.17.36.21.27.22.36-.09.16-.32.27c-.46.23-.25.89-.25.89s.35-.35.52-.31a.18.18,0,0,1,.17.19h0a.14.14,0,0,1,0,.09v.31a2.38,2.38,0,0,1-.11.7,3,3,0,0,0,0,.85s.2-.49.28-.47.31.51.78.49a.83.83,0,0,0,.8-.84,1.19,1.19,0,0,0,.7-.25l.16-.16a1.59,1.59,0,0,0,.26-.32h0a.8.8,0,0,0,.11.25c.08.13.19.25.36.22s.61-.07.61.14a1.16,1.16,0,0,1-.15.51.74.74,0,0,0,.56-.54c.15-.47,0-.62.1-.84h0c.09-.21.37-.76.11-1.14h0c-.26-.35-.51-.23-.52-.36s.08-.12.19-.23a1.07,1.07,0,0,0,.31-.39v0c.18-.47.11-.58.23-.6s.17.17.34.25a1.47,1.47,0,0,1,.37.24l.08.09.21.28h0a.66.66,0,0,1,.06-.27,3.14,3.14,0,0,0,0-.75.65.65,0,0,0-.06-.34,1.66,1.66,0,0,0-.19-.48.42.42,0,0,1-.08-.36.19.19,0,0,1,.14-.09c.46,0,.58.62.58.62a1,1,0,0,0,.11-.63,1.81,1.81,0,0,0-.34-1.1c-.18-.16-.29-.29-.11-.41s.15-.31.35-.39a.34.34,0,0,1,.34,0s0-.92-.79-.86c-.35,0-.66.12-.89-.07a1.42,1.42,0,0,1-.38-1,1.19,1.19,0,0,1,.54-1,4.09,4.09,0,0,1,1.62-.76,1.67,1.67,0,0,1,.63,0,7.86,7.86,0,0,0-.32,2.1,4,4,0,0,0,.35,1.56c0,.46-.15.55-.28.63l-.46.28s.09.77.54.82.36-.15.5-.17.14.17.17.46a1.7,1.7,0,0,1-.14.8,2.21,2.21,0,0,0-.15.5,2.43,2.43,0,0,0,.84-.22.84.84,0,0,0,.45-1l.22.35c.09.16.32.26.68.23a1.11,1.11,0,0,0,.53-.17s-.41-.11-.44-.45.09-.5.18-.53.31.29.7.26.61-.31.74-.32.51-.13.41.76a8.51,8.51,0,0,1-.18,1.59,2.85,2.85,0,0,1-.33.68.59.59,0,0,1-.39.26h0a.58.58,0,0,1-.46-.22c-.29-.35-.4-1-.75-.94s-.43.26-.58.3-.61.12-.74.5a1.72,1.72,0,0,0-.06.78s.15-.33.38-.33.12,0,.14.11-.15.2-.14.36.11.17.2.24a.21.21,0,0,1,.07.14" transform="translate(0 0)" fill="#fff"/><path d="M226.79,57.88a.85.85,0,0,1-.82-.71,1.15,1.15,0,0,1,.05-.58.77.77,0,0,1,.22-.29,1.31,1.31,0,0,0,.2,1,1,1,0,0,0,.72.26,3.1,3.1,0,0,0,1.1-.4h0a2.35,2.35,0,0,1-1.52.78m-.12-.94a1.09,1.09,0,0,1,.07-1.22,1,1,0,0,0-1.06.94.93.93,0,0,0,.06.4,1.18,1.18,0,0,0,1.13,1.17c1.62,0,2.09-2,3.39-1.77-1.27-.71-2.87,1.38-3.53.48" transform="translate(0 0)" fill="#fff"/><path d="M231,54a6,6,0,0,1,1.2,0,4.27,4.27,0,0,1,.71.15c.34.13.54.24.39.28-.75.16-.6.58-1.43.58-.58,0-1.08-.93-.87-1" transform="translate(0 0)" fill="#fff"/><path d="M201.85,57.21A.84.84,0,0,1,201,58a2.35,2.35,0,0,1-1.51-.78h0a3,3,0,0,0,1.09.39,1,1,0,0,0,.73-.26,1.35,1.35,0,0,0,.19-1,.7.7,0,0,1,.22.29,1.14,1.14,0,0,1,0,.58m-.73-1.42a1.13,1.13,0,0,1,.07,1.22c-.65.9-2.26-1.19-3.54-.48,1.29-.19,1.78,1.77,3.39,1.77a1.19,1.19,0,0,0,1.14-1.17c.1-.93-.46-1.38-1.06-1.34" transform="translate(0 0)" fill="#fff"/><path d="M196.8,54a5.92,5.92,0,0,0-1.19,0,4.61,4.61,0,0,0-.72.15c-.33.13-.53.24-.38.28.75.16.59.58,1.42.58.58,0,1.09-.93.87-1" transform="translate(0 0)" fill="#fff"/><path d="M214.34,57.51a.69.69,0,0,0,.39-.38l-.24-.17a5.16,5.16,0,0,0-.43.61.67.67,0,0,0,.28-.06" transform="translate(0 0)" fill="#fff"/><path d="M209.07,57.35a.6.6,0,0,0,.34.11.5.5,0,0,0,.38-.15,4.33,4.33,0,0,0-.72,0" transform="translate(0 0)" fill="#fff"/><path d="M229,34.79a.6.6,0,0,0,.21.52,1.65,1.65,0,0,1,.21,1.38,4.37,4.37,0,0,1-.33.69,1.31,1.31,0,0,1-.64.47c0-.83-.2-1.31-1.18-1.08-1.21.3-1.78,3.76.17,3.28.37-.09,1-1,.85.3a2.54,2.54,0,0,1-1.75,1.84,5.21,5.21,0,0,0-1.56.36c-.41.23-1.1,1.75-.34,2.1.3.14,1.53.21,1,.57a9.75,9.75,0,0,1-.84.59c-.84.41-1.92-.24-2.49-.43a2.07,2.07,0,0,0-.42-.08c-.68,0,.14.87.16,1a1.47,1.47,0,0,1-.12.9,2.9,2.9,0,0,1-1-.56c-.28-.41-.1-1.11-.68-1.25-.11.38.13.64,0,1.08s-.41.56-.49.94c-.89-.45-.75-1.51-.93-2.71a2.07,2.07,0,0,0-.42-.08c-.08.31,0,.55-.17.77s-.35.33-.51.52-.23.56-.46.78c-.4-.9.24-2,0-3H217c-.21.69-.76.82-.76,1.68a3.51,3.51,0,0,1-.33-.6,3.91,3.91,0,0,1,.08-1.56c0-.07.23-.2.25-.3.09-.26-.18-.56-.33-.42s-1.16,1.25-1,.21a2.87,2.87,0,0,1,.34-.94,2.4,2.4,0,0,1,.38-.4,4.68,4.68,0,0,1,1-.77v-.17a2,2,0,0,0,1.73.52c.09,0,.31-.25.37-.27s.76.18,1.19.18a1.61,1.61,0,0,0,1.47,1.74h0a1.56,1.56,0,0,0,.9-.19s.08-.16.12-.18a1.77,1.77,0,0,0,1.3-1.32c.17-.49.2-1.69-.16-2a2.46,2.46,0,0,0-1-.25,1.81,1.81,0,0,1,1.81-.95c0-.46-.18-.5-.25-.73a3.5,3.5,0,0,1,0-1.29,5,5,0,0,0,1,.38c.33.16.35.41.8.52,0-.51-.2-1,0-1.42.79-1.71,3.7-.36,3.7-3,1.13.9.47,2.25-.68,2.63m-3,12.36c.48,1.31-.63,2.73,0,4,0,.06.17,0,.21.08a.93.93,0,0,0,.38.43c.17.08,1.24,0,.8.31s-1,.08-1.56,0v.42c.09,0,.2.25.25.27.33.11.67.22,1,.3a1.12,1.12,0,0,1,.76.69c-1.42-.61-2.8.49-3.44-1.06a1.21,1.21,0,0,1,0-1.08c0-.09.25-.17.29-.25.16-.35-.08-.47-.38-.35-.58.23-.46.89-1.55.56.76-.09,1.9-1,1.13-2-.15-.18-.59-.32-.63-.61s.58-.29.63-.94a3.64,3.64,0,0,0-1.22.25,2.91,2.91,0,0,0,0-.59s-.16-.09-.17-.14c-.09-.36.09-1.07,0-1.5.25.06.41,0,.68.08.08,0,.32.24.46.26.54.08,1.13-.23,1.56-.08.09,0,.22.26.29.34a1.82,1.82,0,0,1,.51.56M219.58,52a12.18,12.18,0,0,0-3.35.38,11.68,11.68,0,0,0-2.3.9c-.71.4-1.11.59-1.69.87a2.43,2.43,0,0,0-.22-.64c-.09-.51,0-.89-.08-1.43a9.62,9.62,0,0,0-2.32-4.87,3.11,3.11,0,0,0-1.09-.81h7.55c-.1-.44-.22-.71-.33-1.08a.16.16,0,0,0,.08.13c.26.25.35.47.76.6a1.27,1.27,0,0,1,.34-1.29c.1-.08.06.07.08.08a6.06,6.06,0,0,0-.17,1.64c.07.45.7,1.33,1,.52a3.08,3.08,0,0,1,.51-.9c.1-.13.28-.22.37-.35,0,1.19.45,2.19,1.44,2.33a30.31,30.31,0,0,1-.55,3.92m.51.6a1.54,1.54,0,0,0-1,.26,9.69,9.69,0,0,0-2.6,1.52,16.43,16.43,0,0,0-1.78,1.66,2.82,2.82,0,0,0-.33.36l-.2.24h0a11.08,11.08,0,0,1-1.06,1.57l-.2-.16A6.31,6.31,0,0,0,210,56.94a4,4,0,0,0-.85,0h-.24c-.51.07-1,.2-1.45.27a9.27,9.27,0,0,1,.44-.82c.08-.12.15-.24.22-.36l.35-.59a11.08,11.08,0,0,1,2.91-3.19s.2,0,.21,0a9.89,9.89,0,0,1,.25,2.71c.62-.15,1-.68,1.48-1,1.35-.69,4.1-2,6.31-1.64,0,0,.48.18.51.18m.09,1.39h.29v1.94h-.28Zm.74.51h.28v1.43H221Zm-1.5-.91h.3v2.34h-.3Zm-.72-.35H219v2.69h-.29Zm-.71.35h.27v2.34H218Zm-.72.4h.2v1.94h-.3Zm-.72.51h.28v1.43h-.36Zm-.72.69h.28v.74h-.28Zm-.77.6h.27v.14h-.27Zm-4.05-5.28h.12c.08.49.25.84.3,1.34a5.44,5.44,0,0,0-2,1.5c-.21.26-.57.42-.37-.08.45-1.15,1.76-1.07,1.89-2.75m-2.25,2.19c.14-.63.58-1,.42-1.94a1.32,1.32,0,0,0-1.93-.95c-.89.38-.7,1.43-1.15,2.25a1.6,1.6,0,0,1-.7.73,3,3,0,0,0-.3-1.43c0-.08-.23-.19-.25-.29-.07-.29,0-.53-.09-.73h-.34c-.14.43-.42,2.32-1,1.55a1.83,1.83,0,0,1-.37-1h-.31c-.21.63-.61,1.87-1,2.75a5.28,5.28,0,0,1-1.61,1.93,1.91,1.91,0,0,0,.24-.32,1.32,1.32,0,0,0-.05-1.29c-.06,0-.13.08-.16,0s0-.35-.1-.42-.11,0-.13,0a3.75,3.75,0,0,1,.73-3.49c.23-.23.46-.43.46-.73-1,.08-1,.83-2.23.18h.29c.15-.05.18-.15.3-.21s.19,0,.29-.1a1,1,0,0,0,.21-.21,4.64,4.64,0,0,1,1.18-1.24c.46-.24,1,0,1.47.08v-.35c-1.09-.46-2.85.06-3.45-.9-.15-.23-.16-.45-.29-.69,0-.07-.16-.13-.21-.17,1-.62,1.37-.09,2.26-.3-.14-.65-.75-1-.84-1.68-.12-.94,1.07.1,1.19.13a.68.68,0,0,0,.42-.09A4.34,4.34,0,0,1,202,41c0,.34.29.76.34,1,.12.7.12,1.07.63.39a1.11,1.11,0,0,1,.46-.34h.1a3.39,3.39,0,0,1,0,.78c0,.14-1,1.27,0,.9.49-.2,1-.49,1.52-.13.28.2.32.38.39.82.15-.13-.16.57-.18.65a1.75,1.75,0,0,0-1.43.13c-.08.07-.12.35-.16.47a1.68,1.68,0,0,0,1,2.13h0a.66.66,0,0,0,.2.06,3.91,3.91,0,0,0,3.45-.91,5.6,5.6,0,0,1,1,.82c.69.65,1.67,2.3,1,3.49-.18.34-.66.59-.93.86a3.48,3.48,0,0,1-.46.48c-.18.12-.21.12-.21.12m-.55-7.09h.13c0,.62-.34.42-.13,0m.55-.21a1.12,1.12,0,0,1,.09.44c-.09.51-.49-.09-.09-.44m.38-.21h.21c0,1.2-.28.88-.21,0m-3.25-4.91a3,3,0,0,1-.12-1.12,8.83,8.83,0,0,0,.8.43c1.15.29,1.64-1.17,1.17-2.15,0-.1-.09-.18-.16-.35a1.39,1.39,0,0,0-.64-.65c-.37-.21-1.25-.2-1.38.22a3.39,3.39,0,0,0,0,.78c-.16-.14-.33-.22-.47-.35a2,2,0,0,1-.5-1.77c.11-.38.46-.44.5-1a2.17,2.17,0,0,1-1-.66,1.58,1.58,0,0,1,.25-2c.07.64.32,1.52.85,1.68.32.09.51,0,.8.08,0,0,.08.16.12.17.32.1.52,0,.8.09a2.88,2.88,0,0,1,.72.52,1.35,1.35,0,0,1,.51.47c.19.43,0,.91,0,1.42.47-.11.56-.47,1-.6.22-.08.37,0,.56-.09s.17-.15.25-.21a4,4,0,0,1,0,1.29c-.08.24-.25.28-.25.73a1.82,1.82,0,0,1,1.8.94c-.43.08-1.1.25-1.22.61a2.66,2.66,0,0,0,.59,2.46c-.07.09-.09.16-.17.25a12.46,12.46,0,0,0-.92,1.47c-.09-.14-.07-.25-.17-.38-.91-1.28-3-.43-3.63-2.33m5.48.42s-.09.18-.12.18c-.57.08-1.21-1.62-.22-2,0,0,.1-.16.14-.17h.16a1.57,1.57,0,0,0-.3,1.2c.06.46.79.54.34.86m.19-1.71c.66-.25,1.57.94.76,1.12-.64.14-1.35-.9-.76-1.12m1.14-.91c.07,0,0,.24,0,.31-.18-.09-.3-.18,0-.31m-2.94,7.09c0,1.2-.28.88-.22,0h.22m.5,0c0,1.2-.29.88-.21,0h.21m.5,0c0,1.2-.27.88-.2,0h.2m.51,0c0,1.2-.29.88-.21,0h.21m.5,0c0,1.2-.28.88-.21,0h.21m.51,0c0,1.2-.28.88-.21,0h.21m.5,0c0,1.2-.28.88-.21,0h.21m.51,0c0,1.2-.28.88-.21,0h.21m.51,0c0,1.31-.29,1-.22,0h.22m.5,0c0,1.31-.29,1-.21,0h.21m.51,0c0,1.31-.29,1-.21,0h.21m.5,0c0,1.31-.29,1-.21,0h.21m-2.27-4.91c.28,0,.51.42.84.47.78.13,1.2-.27,1.81-.09-.89.6-1.22,1.58-1.22,3.11.57,0,.61-.28,1.1-.39a5.8,5.8,0,0,0,.08,1.81.94.94,0,0,1-.17-.31c-2,0-4.14.11-6.08,0,.08-.32.09-.35.18-.68a8.48,8.48,0,0,1,.58-1.47,4.09,4.09,0,0,1,1.44-1.59c.11-.09.23-.35.38-.44s.28,0,.46-.08.43-.3.59-.3m1.27-2.49c.14.43.58.66-.13.9.39-.25.23-.43.13-.9m-.93.65v-.14c.06-.4.44-.74.51-1.08a2.54,2.54,0,0,0-.12-1.28c-.13,0,.08-.17.08-.17.26-.68-.16-1.34,0-2.12s.7-1.43.84-2.19c.05-.26-.08-.58,0-.82.14-.4.56,0,.42-1H215c-.09.26-.11.4-.29.52l-.08.09a.39.39,0,0,1-.26,0c-.09,0-.15-.2-.21-.22-.51-.16-.78.53-1.48.17-.36-.18,0-.49.35-.38s.54.34.45-.26a3.53,3.53,0,0,0-.72-.22v-.35c.47.14.69.27,1.11,0a1,1,0,0,0,.37.43.41.41,0,0,0,.19-.05.82.82,0,0,0,.2-.12c.47-.41-.38-.32-.59-.26a1.93,1.93,0,0,1,.49-.26,2.52,2.52,0,0,0,.47-.13c.05.5.57.9.68,1.3a3.1,3.1,0,0,1-.34,1.89h-.2a11.47,11.47,0,0,0,.25,2.41c.14.38.48,0,.63-.08,2.68-1.13,5.43,2.31,3.33,4.39a2.2,2.2,0,0,0,.25-1.66,2.49,2.49,0,0,0-2.19-2.42,3,3,0,0,0-3,1.34c-.13.44.25.48.17.82s-.59.63-.67.9.07.4,0,.51-.27.23-.34.44h-.5a1.53,1.53,0,0,1,.37-.08m0-3.36h.05c-.22.68-.56.11-.12,0m-.77-.65v-.3h.72a2.28,2.28,0,0,1,.09.51c-.4.11-.6.22-.81-.17m0-1.64c.18.28,1,0,.93.52s-1.33.76-.93-.52M214,30.65c.42.2.48,1.15,0,.86s0-.48,0-.86m-.64,1.07a2.88,2.88,0,0,0,.68.34c-.1.24-.2.43-.3.65-1.11,0-.73-.54-.38-1m2.73.74c.12,0,.43.18.64.08a3.62,3.62,0,0,1,.67-.56c.08.37.14.89.26,1.25.29-.24-.16-1.43.46-1.38s.57.24,1.09.56c.21.13.29.14.17-.18a2.42,2.42,0,0,0-.55-.68v-.13c.46-.08.41-.18.3-.56a4.25,4.25,0,0,1,1.77-.21,1.42,1.42,0,0,0-.08-.18,5.74,5.74,0,0,0-1-.21c.12-.47.33-.22.41-.47a1,1,0,0,0,0-.48,3,3,0,0,1,.76-.82V28.4c.13,0,.08.13,0,.21a2,2,0,0,0-.16,1.72c.07.21.12.36.21.57a3.88,3.88,0,0,0-1.47,2,2.22,2.22,0,0,0-1.64.35c-.1.06-.22.3-.37.34a5.47,5.47,0,0,1-.81,0,5,5,0,0,0-.84.32,2,2,0,0,1,.29-1.41m.6-.7c.07-.12.18-.29.33-.33s-.7.94-.33.33m.47-1.25a7.14,7.14,0,0,0,2.34-1l.27-.21a.18.18,0,0,0,.08.13l0,.17h-.21a.63.63,0,0,0-.29.77c-.39.12-.45.05-.56.48-.33.05-.32.14-.41.43-.65-.31-.34,0-.67.26a1.81,1.81,0,0,0-.6-.18,3.55,3.55,0,0,0,.1-.86m2.61,4.1.16-.18c.07,0-.12.28-.25.35s.08-.17.09-.17m.12-.72a3.75,3.75,0,0,0,.71-.25c.17-.11.41-.5.59-.57s.1.1.08.19-.28.27-.33.38c-.18.4-.24.73-.41,1.07a2.63,2.63,0,0,0-.73-.64.76.76,0,0,1,.09-.18m-1.09,2.8a2.7,2.7,0,0,1,.16-.48l.21.31v.13c-.2.29-.33,0-.33,0m.08,1.6c.2-.06-.19.43-.22.46-.25-.13.13-.44.22-.46m-.46-1.1c0,.19.25.4.16.69s-.29-.23-.16-.69m-.34-1h.12v-.74c.41.34.58,1.2-.12.74m-.39,2.33c.13-.25,0-.27.27-.4,0,.06.22.2.24.26.25.86-.56.25-.67.18Zm-.2-1.22a1.82,1.82,0,0,1,.33,0c0,.54-.1.34-.37.61-.07.06-.05.21-.09.3,0-.28-.34-.78.13-.91m.59-.42c-.3,0-.57-.15-.26-.17.14,0,.19.13.26.17M217.8,36H217a1.7,1.7,0,0,0,0-1c.72.06,1.18.28.84,1m-2.63-.22a2.3,2.3,0,0,1,1.19-.65c.39.63.36.77-.39,1,0-.44.09-.55-.37-.6a5,5,0,0,1-.09.56c0,.15-1.08.58-.34-.3m1,4.48c-.86.16-2.13-1.1-1-1.21.57,0,1.8,1,1,1.21m.8-1.51c-.2.11-.41.21-.62.3s-.47-.3-.64-.34a1.21,1.21,0,0,0-.38,0c-.11,0-.11-.22-.17-.31a3,3,0,0,0-.31-.4,4.55,4.55,0,0,0,.45-1.33,13.74,13.74,0,0,0,1.44-.35,1.12,1.12,0,0,1,.51.08,2.4,2.4,0,0,0-.22,2.29m2.4,1.68a1.64,1.64,0,0,1-.54-.57,3.53,3.53,0,0,1,0-.46h.38a.7.7,0,0,1,.24-.13c.46,0,1,1.45,0,1.16M207.77,46c-.2,0-.2-.18-.05-.22s.05.22.05.22m8.44-16.29s.09-.11.13-.12l.29-.13c.43-.08-.7.48-.42.25m1.82-.51c.05,0,.06-.15.12-.17.59-.22-.3.39-.3.39a3.42,3.42,0,0,1-.71-.13,2.67,2.67,0,0,0,.89-.09m12.21,2.69a2.83,2.83,0,0,0-.51-.34,2.43,2.43,0,0,0-.66,0c.13.57.26,1.11-.09,1.54s-.55.22-1,.35c-1.48.4-2.15.7-2.57,2.24a6.81,6.81,0,0,1-.76-.26c-.22-.15-.31-.46-.46-.69h-.33a14,14,0,0,0,0,2.24c0,.42-.29.19-.63.34v.18a1.21,1.21,0,0,0-.63.55,5,5,0,0,0-.39.52,1.45,1.45,0,0,0-.12.65c.56-.06,1-.36,1.39.21a1.67,1.67,0,0,1-.13,1.38c-.22.56-1.33,1.51-2.15,1.12a1.08,1.08,0,0,1-.38-.44c-.12-.17-.14,0-.17,0a1.38,1.38,0,0,1,0-.64c.74,0,1-.07,1.18-.65.19,0-.17-.76-.21-.81-.3-.41-1.26-.2-1.67-.48a4,4,0,0,0,.64-2.58c-.13-.46-.44-.93-.6-1.42.11,0,.09,0,.21.09.61.51.35.87.84-.17.33-.71.56-1.43.88-2.16a1.62,1.62,0,0,0,.17-.48c-.67,0-1,.75-1.55,1-.28.16-.5.11-.8.26-.84.4-1,.36-.09.9-.47,0-1-.55-1.55-.73a3.1,3.1,0,0,1,1.89-.34,2.54,2.54,0,0,1,1.93-2.16c0-.7-.62-.71-.67-1.33-.1-1.17,1-2,1.35-2.81a4.09,4.09,0,0,0-1,.7c-.78.51-1.53.86-2.32,1.38a9.15,9.15,0,0,1-.8.59,4.26,4.26,0,0,1-.92.35c-.23.06-.48,0-.64.09s0,.65,0,.82a6.52,6.52,0,0,0-.8.86,5,5,0,0,0-.33.47c-.49.68.28-1,.29-1,.09-.31-.07-.65.08-.9,0-.06.1,0,.18,0s.5-.44.79-.51c.53-.14.92,0,1.31-.18.57-.28.39-.91,1.09-1.2-.07,0,.18-.05.18-.05-.14.17-.12.21-.18.47.54-.18.58-.42.84-.86,0-.17.74-1.18.43-1.18-.14,0-1.55,1.2-1.85,1.39a15.82,15.82,0,0,1-2.68.87s-.08.15-.13.17c-.6.23-.63-1-.79-1.38a4,4,0,0,0-.42-.6c-.15.11-.1.84-.39,1.12-.94-.32-.71.22-1.09.34s-.68-.09-1-.09a3.65,3.65,0,0,0-.08.74c-.52.24-.61.52-1,.73,0-.17,0-.14-.14-.26a10.61,10.61,0,0,1-.58,1.29,3.35,3.35,0,0,1,1.26-.09c-.45-.59-.3-.79.38-1.11a.52.52,0,0,0,.09.51.91.91,0,0,0,.21.18c.44.11.63-.19,1,0s.08.24-.08.38a3.68,3.68,0,0,0-.72,4.35c.33.61,1.29.61.84,1.81,0,.15-.18.69-.33.73s-.42-.09-.59,0a2.49,2.49,0,0,0-.58.31,2.32,2.32,0,0,0-1.92-1.51,3.77,3.77,0,0,0,0-1.42,8.34,8.34,0,0,1,0-1c-.56.06-.45.45-.8.68a6.81,6.81,0,0,1-.76.26,2.25,2.25,0,0,0-1.26-1.72c-.08,0-.23-.24-.29-.26-.66-.2-1.18-.17-1.78-.39-.21-.08-.21-.2-.33-.38-.29-.46-.12-.86,0-1.39a3.86,3.86,0,0,0-.68,0,2.24,2.24,0,0,0-.62.57,1.57,1.57,0,0,0-.27,1.24,2.21,2.21,0,0,0,1,1.59,2.8,2.8,0,0,0,0,2.2c.27.87,1,1.24,2.11,1.24,0-.55-.32-.29-.5-.64a.86.86,0,0,1,0-.39c.11-.1.29-.36.5-.34.58,0,.89,1,1,1.5.08.37-.14,1.2-.84,1-.08,0-.28-.25-.38-.31a1.7,1.7,0,0,0-1.09,0c.24,1,.33,2.35,1.09,2.85a5.5,5.5,0,0,0,1.1.51c.36.09.63,0,1,.08l.13.18a1.36,1.36,0,0,1,.6,2.24l.12.17A14.53,14.53,0,0,0,207,45.88a.14.14,0,0,1-.09.13,1.84,1.84,0,0,0-.17.22c.47,0,1.58.06,1,.56a2.28,2.28,0,0,1-.33.29c-1,.62-3,.44-3.41-.64s.38-1.26,1-1a1.27,1.27,0,0,0,.39,0,1.49,1.49,0,0,0,.41-.82,1.36,1.36,0,0,0-.88-1.71,1.39,1.39,0,0,0-1,.08s-.08-.23,0-.18c0-.91,0-1.77-.92-1.2a2,2,0,0,0-.39.26c-.07-.57-.43-.95-.17-1.55a1.13,1.13,0,0,0,0-.26,1,1,0,0,0-.84.34,3.26,3.26,0,0,0-.5,2.54,7,7,0,0,0-1.44-.21,5,5,0,0,0,.29,2,1.65,1.65,0,0,0-1.17.17c-.34.17-.73.14-.8.52s.32.42.45.61.24.67.47.86a4.22,4.22,0,0,0,1.47.51c-.78.55-.95,1.64-2.31,1.64.06.83.92,1,1.81,1a9.25,9.25,0,0,0-.37,1c-.46,1.39.26,2.6.43,3.34s-.34.91-.23,1.39c1.14-.14,2.08-1.69,2.08-1.69a15.29,15.29,0,0,0,1.08-2.41c.08.16.16.32.25.47a2.09,2.09,0,0,0,.35.49,1.36,1.36,0,0,0,.49.29,3.76,3.76,0,0,1,.47-1.34c.19-.26.18-.1.29.14.31.64,0,.81,0,1.54a2,2,0,0,0,1.89-1.15c.3-1,0-1.29.76-1.81.08-.06.26-.25.38-.25a1.61,1.61,0,0,1,.55.25c1,.68-.34,1.87.16,3.15.1.25.1.41.31.55-.41.58-.92,1.4-1.25,2l-.2.36h0c-.19.39-1,1.58.49,1.17a5.64,5.64,0,0,1,1.22-.26,4.33,4.33,0,0,1,.72,0,5,5,0,0,1,1.38.23c1.53.46,1.59.92,1.66,1s.18.38.44.35.28-.39.42-.65a6,6,0,0,1,.41-.69,5.16,5.16,0,0,1,.43-.61,3.51,3.51,0,0,1,.42-.44l.18-.11a2.17,2.17,0,0,1,.79-.18h6.49l.06-.13.1-.2a3.64,3.64,0,0,0-.17-.86v-.91c-.17-1.17-1.32-1.72-2.36-2a18.5,18.5,0,0,1,.52-3.4,7,7,0,0,1,.2-1.64c.22.17.72.33.89.56s.12.48.24.64a1.51,1.51,0,0,0,.35-.14c-.15.62-.43.82-.43,1.59.31,0,.35,0,.47-.25a2.55,2.55,0,0,1,.29-.57c.38-.49.18.11.33.48s1.43.78.34,1.5c-.35.24-1.66.09-.88.82a2,2,0,0,0,1.56.31,1.67,1.67,0,0,0,.54,1.72,1.37,1.37,0,0,0,.78.25,3,3,0,0,0,.94,0,1.38,1.38,0,0,1,1.77.83h0c.38-.14.3-.15.25-.47-.11-.77,0-1.16-.5-1.5-.16-.12-.26-.1-.47-.18a1.33,1.33,0,0,0,.89-1.21c-1-.23-1.82.11-2-1.24-.07-.46.18-.72.24-1a3.23,3.23,0,0,0-.62-3c-.41-.41.16-.65.8-.65a2.07,2.07,0,0,0,.08-.42h-.06a1.52,1.52,0,0,0-.38-.52c-.45-.27-1.49,0-1.35-.91.1-.61.71-.88,1.35-1a2.91,2.91,0,0,0,2.52-1.9c.13-.55.14-1.08.25-1.55a2.06,2.06,0,0,0-.92-.09c-.48.12-1,1-1.39-.17a1.13,1.13,0,0,1,0-.26,3.41,3.41,0,0,1,.54-1.29c.67-.76,1.54.3.47.68v.36a3.93,3.93,0,0,0,.84,0c1.28-.33,1.8-2.09,1.22-3.45a4.78,4.78,0,0,0,.8-.69c.11-.2,0-.39.08-.65.12-.63.28-1.31-.25-1.76" transform="translate(0 0)" fill="#fff"/><path d="M207.14,78.46l.09.12a2.61,2.61,0,0,0-.36-.51h0c0,.12.13.21.26.38" transform="translate(0 0)" fill="#fff"/><path d="M203.71,82.8c-.14-.07-.65-.37-.61-.72.08-.65,1-.48,1.53-1s.85-1,1.18-1.07a.5.5,0,0,1,.54.46h0v.07c0,.34,0,.4.08.4s.08-.07.09-.18a1,1,0,0,0-.28-.81.7.7,0,0,0-1,0h0c-.24.24-.58.71-.79.89-.47.37-1.32.6-1.5.88a.59.59,0,0,0,0,.83h0a2,2,0,0,0,.65.36c.1,0,.18.08.21,0s0,0-.18-.12" transform="translate(0 0)" fill="#fff"/><path d="M210.58,82.34c-.2.14-.44.19-.41.28s.16,0,.32-.06.79-.36.77-.84a.7.7,0,0,0-.61-.73,3.38,3.38,0,0,1-1-.42c-.8-.64-.81-1.13-1.37-1.13a.75.75,0,0,0-.71.57,2.06,2.06,0,0,0-.12.6c0,.12,0,.2.06.2s.07-.11.07-.3.26-.8.57-.79.61.38.79.6a2.22,2.22,0,0,0,1.18.79c.64.15.89.26.92.59s-.41.64-.41.64" transform="translate(0 0)" fill="#fff"/><path d="M211.11,83.38c.21,0,.77,0,.77.4s-.61,1-.79,1.45,0,.71,0,1.33a.5.5,0,0,1-.53.47h0a.74.74,0,0,1-.66-.25c-.17-.15-.28-.28-.33-.23s0,.15.1.24a1.42,1.42,0,0,0,.94.47c.47,0,.76-.33.79-.91s-.09-1,.21-1.42.6-.74.6-1.09a.67.67,0,0,0-.66-.66h-.08c-.52,0-.89,0-.91.17s.12.07.61,0" transform="translate(0 0)" fill="#fff"/><path d="M205.31,87.43a1.75,1.75,0,0,0-.25.8.56.56,0,0,0,.53.57c.52-.08,1-.19,1.55-.32s.85.24,1.33.23a.69.69,0,0,0,.76-.61V88a1.58,1.58,0,0,0-.37-.87.1.1,0,0,0-.07-.09l-.06,0s0,.13,0,.21a1.34,1.34,0,0,1,.32.68.47.47,0,0,1-.44.5h-.09c-.34,0-1.1-.26-1.37-.26-.69,0-.71.36-1.51.38a.45.45,0,0,1-.43-.42,2,2,0,0,1,.21-.68c.07-.14.13-.2.06-.24s-.22.21-.22.21" transform="translate(0 0)" fill="#fff"/><path d="M205.73,83.35c.06,0,.14-.1,0-.24s-.22-.6-.58-.58-.28.27-.27.44a3.53,3.53,0,0,1,0,.65c-.09.39-.56.55-.55.78a.31.31,0,0,0,.3.29h0a1.32,1.32,0,0,0,.61-.22c.11-.06.18-.13.15-.16s-.07,0-.16,0a.75.75,0,0,1-.51.21c-.2,0-.2-.07-.2-.13a1.46,1.46,0,0,1,.34-.36.62.62,0,0,0,.25-.43,1.37,1.37,0,0,0,0-.57c0-.2,0-.32.09-.32a.51.51,0,0,1,.29.2c.06.08.14.41.21.43" transform="translate(0 0)" fill="#fff"/><path d="M207.42,82.77a.3.3,0,0,0,.2-.1c.11-.1.53-.3.52-.56a.4.4,0,0,0-.36-.38c-.24,0-.51.41-.79.42s-.59-.25-.79-.25a.34.34,0,0,0-.31.3c0,.16.27.4.43.53s.25.26.29.2,0-.11-.09-.2-.44-.37-.46-.5a.16.16,0,0,1,.12-.18h0a2,2,0,0,1,.39.25.87.87,0,0,0,.74,0c.15-.12.35-.33.47-.34a.18.18,0,0,1,.19.17h0c0,.09-.36.38-.47.45s-.19.12-.1.2" transform="translate(0 0)" fill="#fff"/><path d="M209.1,83.44a6.17,6.17,0,0,0,0-.86.31.31,0,0,0-.38-.22h0a.28.28,0,0,0-.2.15,4.66,4.66,0,0,0-.3.47c0,.09-.11.22,0,.27s.1,0,.15-.19.22-.59.39-.57.24.1.16.32a1.06,1.06,0,0,0-.08.68.74.74,0,0,0,.37.49c.18.12.27.2.28.3s-.09.15-.19.16a.78.78,0,0,1-.35-.18c-.1-.07-.15-.11-.2,0s.1.15.22.23a.64.64,0,0,0,.37.13c.14,0,.38-.1.38-.29s-.56-.47-.61-.83" transform="translate(0 0)" fill="#fff"/><path d="M208.28,85c0,.08.14.16.25.16s.51,0,.51.16-.17.16-.31.16a.83.83,0,0,0-.57.18,1.48,1.48,0,0,0-.35.48.26.26,0,0,1-.23.18c-.09,0-.15-.09-.11-.25s.22-.48.15-.51-.14,0-.16.1a3.5,3.5,0,0,0-.17.55c0,.12,0,.36.22.37a.67.67,0,0,0,.54-.42.7.7,0,0,1,.54-.43c.21,0,.72,0,.74-.3a.35.35,0,0,0-.29-.39H209a4,4,0,0,1-.49,0c-.12-.06-.16-.08-.21,0" transform="translate(0 0)" fill="#fff"/><path d="M205.82,85.11c0-.07-.1-.06-.3,0s-.74,0-.74.42.63.2.93.48.34.7.69.69a.36.36,0,0,0,.39-.31v0a.11.11,0,0,0,0-.08,3.19,3.19,0,0,0-.12-.6c0-.16,0-.22-.1-.21s-.08.11,0,.29a3.1,3.1,0,0,1,.1.53c0,.1,0,.27-.16.26s-.23-.29-.34-.46a.72.72,0,0,0-.57-.42c-.39-.06-.56,0-.6-.17s.16-.22.41-.26.46,0,.44-.11" transform="translate(0 0)" fill="#fff"/><path d="M208.07,84c-.1,0-.19,0-.19-.11s.07-.12.16-.13.18,0,.18.09a.17.17,0,0,1-.15.15m-.3,1.21a.16.16,0,0,1-.2-.07c-.06-.08-.11-.14,0-.21s.15,0,.21.07,0,.19,0,.21m-.38-1a.11.11,0,0,1-.1-.12h0a.11.11,0,0,1,.12-.1h0a.1.1,0,0,1,.11.09h0a.12.12,0,0,1-.12.12h0m-.06.74a.09.09,0,0,1-.1-.1h0a.1.1,0,0,1,.08-.11h0a.09.09,0,0,1,.1.1h0a.13.13,0,0,1-.1.1m-.2-.37a.09.09,0,0,1,.08-.1h0s.12,0,.12.08a.13.13,0,0,1-.12.12.11.11,0,0,1-.09-.1m-.1-.71a.1.1,0,0,1,.09-.11h0a.11.11,0,0,1,.1.1h0c0,.08,0,.13-.1.13s-.1,0-.1-.13m0,.51a.11.11,0,0,1-.13-.09h0a.13.13,0,0,1,.13-.1.11.11,0,0,1,.12.1h0c0,.06,0,.1-.12.1m0,.67a.11.11,0,0,1-.11-.1c0-.06,0-.11.09-.11a.12.12,0,0,1,.13.11h0a.14.14,0,0,1-.11.1m-.22-.37a.11.11,0,0,1,.1-.09.12.12,0,0,1,.12.09h0a.11.11,0,0,1-.11.11h0a.11.11,0,0,1-.1-.11m-.08-.15a.11.11,0,0,1-.09-.1.1.1,0,0,1,.08-.1h0a.08.08,0,0,1,.08.08v0h0a.1.1,0,0,1-.08.1m-.3.16a.39.39,0,0,1-.12-.31c0-.18,0-.31.11-.27s0,.09,0,.3,0,.13.12.21-.06.12-.13.07m.13.43c-.06.1-.21.21-.26.18s0-.19,0-.3a.14.14,0,1,1,.27-.07h0a.13.13,0,0,1,0,.18h0m.41-1.12a.11.11,0,0,1-.12.1h0a.12.12,0,0,1-.11-.1.11.11,0,0,1,.1-.11h0c.07,0,.12,0,.12.11m.8.49a.12.12,0,0,1-.13.11h0a.11.11,0,0,1-.1-.1.12.12,0,0,1,.1-.12.14.14,0,0,1,.13.11m-1.2-.73a.72.72,0,0,1,1.1.11c.09.13.14.27.08.32s-.13-.11-.21-.23a.54.54,0,0,0-.32-.29,1,1,0,0,0-.46.16c-.11.06-.21,0-.08-.11m.47-.71c.06,0,.15.14.15.24a.15.15,0,0,1-.13.15h0a.13.13,0,0,1-.14-.12h0c0-.1.06-.26.12-.26m-.78,1a.17.17,0,0,1-.18.11c-.09,0-.2-.1-.19-.15s.16-.1.27-.08.11,0,.1.12m2-.37c-.42,0-.72,0-.81-.15a1.83,1.83,0,0,1-.36-.62c-.06-.42-.2-.27-.25.12a1.11,1.11,0,0,1-.3.59,1.52,1.52,0,0,1-.95.23c-.26,0-.27.08,0,.21s.59.36.61.58a3,3,0,0,1-.18.84c0,.14,0,.33.22,0a1.16,1.16,0,0,1,.75-.42,1.59,1.59,0,0,1,.9.39c.22.15.22.1,0-.25a.71.71,0,0,1,0-.79,1.65,1.65,0,0,1,.47-.48c.25-.18.49-.29-.08-.29" transform="translate(0 0)" fill="#fff"/><path d="M204.59,86.93c-.07.1-.42.48-.68.47s-.49-.29-.53-.73a2.9,2.9,0,0,0-.4-1.4c-.28-.4-.7-.79-.7-1.08a.52.52,0,0,1,.57-.46,2.82,2.82,0,0,1,.58.1c.12,0,.19,0,.2-.07s0-.15-.2-.15-.34-.09-.67-.09a.67.67,0,0,0-.72.6v.13c0,.57.75,1.06.9,1.63s.17,1.73.78,1.73a1,1,0,0,0,.92-.55c.13-.14.15-.22.11-.27s-.17.12-.17.12" transform="translate(0 0)" fill="#fff"/><path d="M204.36,84.71a.7.7,0,0,0,.76,0,4.22,4.22,0,0,0-.86-.17.31.31,0,0,0,.1.15" transform="translate(0 0)" fill="#fff"/><path d="M205.52,86.81a.26.26,0,0,0-.17.09l.21-.09h0" transform="translate(0 0)" fill="#fff"/><path d="M201.34,83.52a.88.88,0,0,0-.15.59.81.81,0,0,0,.07.22,1.28,1.28,0,0,1,.39-.88c.1-.13.07-.16,0-.21a1.05,1.05,0,0,1-.17-.29l-.08-.16a.58.58,0,0,0,.2.43.57.57,0,0,0-.27.3" transform="translate(0 0)" fill="#fff"/><path d="M201.92,85.29c-.1-.18-.2-.36-.28-.54a1.63,1.63,0,0,1-.11-.31,1,1,0,0,1,0-.25.69.69,0,0,1,.4-.68,1.86,1.86,0,0,1,.56-.24h.24a3.38,3.38,0,0,1,1.17.27c.21.13.12.4.1.66a2.29,2.29,0,0,0,0,.37.61.61,0,0,1,0,.19v.17c0,.07-.09.13-.14.21s0,.22-.22.29-.08.2.1.16a1.15,1.15,0,0,1,.37.06h.3c.13,0,.16.39.33.58s.45.32.45.45a.43.43,0,0,1,0,.16.11.11,0,0,1,0,.08V87a3.94,3.94,0,0,1-.31.48,1.54,1.54,0,0,1-1.16.78c-.58,0-.85-.77-1-1.29a4.35,4.35,0,0,0-.2-.61,8.55,8.55,0,0,0-.4-.94l-.06-.1m0-2.48.1.06h.07a.26.26,0,0,1,.11.07.07.07,0,0,1,0,.1h0c-.07.09-.22,0-.39-.16s0-.19.07-.15m.08-.3h.21c.1,0,.11.12.09.16a.17.17,0,0,1-.21,0q-.12-.11-.09-.18m.32-.86c.1-.62.83-.91,1.27-1.16a6.78,6.78,0,0,0,1.2-1c.26-.23.5-.53.86-.46a1.52,1.52,0,0,1,1.1,1.3c0,.42.06.32,0,.62s-.2.32-.49.35a.86.86,0,0,0-.52.28c-.14.12-.26,0-.43,0a.49.49,0,0,1-.4-.13c-.13-.14-.28,0-.16.1s0,.17,0,.33a1.82,1.82,0,0,0,0,.33c0,.15-.31.1-.53.52s-.14.58-.36.55-.26-.19-.77-.3a1,1,0,0,1-.88-.92,1,1,0,0,1,0-.24.43.43,0,0,1,0-.16m4.1-2.71s.07-.23.18-.19,0,.24,0,.35.07.27-.1.26-.1-.3-.07-.42m-1.49,2.91v-.14a1,1,0,0,1,.34.06.24.24,0,0,1,.17.25c0,.23-.16.28-.34.22s-.2-.28-.2-.39m-.68,3.58a.36.36,0,0,1-.25,0c-.06,0-.19,0-.19-.06s.06-.1.12-.16.07-.17.16-.2a.22.22,0,0,1,.27.16h0c0,.11,0,.27-.11.28m2.65-4c1,0,1.27.35,1.3.72s-.5.67-.57.72-.31.3-.1.47.41-.08.5-.43.18-.32.43-.57.65,0,.85.21a2.24,2.24,0,0,1,.58,1.24c.11.65-.12.86-.37,1a.79.79,0,0,1-.71-.15c-.24-.18-.61-.31-.68,0s.44.34.77.35a.68.68,0,0,1,.67.47c.07.32-.43.84-.62,1a2.07,2.07,0,0,1-1.21.49c-.5,0-.56-.34-.56-.51s.13-.52.14-.72a.32.32,0,0,0-.26-.37h0c-.16,0-.22.14-.23.37s.18.37.16.74a.59.59,0,0,1-.56.53h-.34l-.32-.11h0a2.12,2.12,0,0,1-.36-.21,1.21,1.21,0,0,1-.62-1.14.38.38,0,0,1,.2-.29,1.36,1.36,0,0,1,.6-.11h.11c.24,0,.57-.1.44-.41s-.5,0-.78.17h-.13a.74.74,0,0,1-.76,0,.54.54,0,0,1-.1-.16,2.37,2.37,0,0,1,0-.84,4.74,4.74,0,0,1,.23-.84.76.76,0,0,1,.67-.54c.45,0,.69.53.8.9s.31.26.45.18.14-.2,0-.38-.57-.46-.63-.64a.71.71,0,0,1,.13-.63,1.24,1.24,0,0,1,1.1-.4m0-2.66c.09,0,.17.19.18.31s0,.29-.17.28-.08-.25-.08-.34v-.21s0-.13.09-.12M208.92,82c-.15.09-.28.08-.28-.1a.38.38,0,0,1,.25-.31c.16-.07.17,0,.18.11a.29.29,0,0,1-.15.3m-.56-3.13a1.38,1.38,0,0,1,.84.35,6.85,6.85,0,0,0,.8.72,2,2,0,0,0,.61.32,4.91,4.91,0,0,1,.89.44c.48.26.52.37.5.79a1.09,1.09,0,0,1-.36.85,3.64,3.64,0,0,1-.89.48c-.23.07-.48.18-.56.2s-.22-.17-.48-.55a1.27,1.27,0,0,0-.55-.5v-.29c0-.15-.09-.16,0-.37s0-.23-.22,0-.24.07-.38.14-.14.15-.26.13-.29-.2-.53-.3-.46,0-.59-.07-.1-.34-.1-.59a2.81,2.81,0,0,1,.22-1.18,1,1,0,0,1,1-.62m4,3.17c.21,0,.36,0,.36.15s0,.1-.12.11h-.24l-.21.07c-.06,0-.16,0-.17-.09s.17-.22.38-.21m-.16.46a1.4,1.4,0,0,0,.29-.09c.1,0,.14,0,.14.12s-.17.19-.35.18-.17-.21-.08-.21m-2.56,2.39c.06,0,.12-.1.24-.08s.13.1.26.23,0,.15-.09.16a.46.46,0,0,1-.23.06c-.09,0-.08-.08-.18-.16s-.07-.18,0-.21m3-1V84a6.09,6.09,0,0,1-.53,1.5.09.09,0,0,0,0,.07c-.09.33-.17.66-.23,1a.7.7,0,0,1-.06.35V87a1,1,0,0,1-.26.5,1.15,1.15,0,0,1-.84.35,1.21,1.21,0,0,1-.67-.19,1.94,1.94,0,0,1-.57-.57,2.22,2.22,0,0,1-.39-.57c0-.09.07-.13.29-.34a2.53,2.53,0,0,0,.43-.6c.12-.19.24-.13.33-.13s.17-.12.38-.09.21-.09,0-.24-.15-.24-.24-.32-.19-.08-.19-.29a3,3,0,0,0,.06-.74c0-.32-.08-.29-.1-.47s.24-.21.45-.26a2.06,2.06,0,0,1,1.19-.25.92.92,0,0,1,.79.35h0a1.37,1.37,0,0,1,.12.69m-2.3,4.59c-.1,0-.2-.21-.26-.31s-.06-.13-.12-.16-.11-.13,0-.16.22-.08.4.18.14.43,0,.45m-.17.21c-.06.08-.19,0-.27-.12s-.2-.21-.11-.28.15,0,.24.16.25.09.14.24m-3.36-1.73c.08-.08.12-.15.17-.16s.15.08.25.18,0,.16,0,.26a.19.19,0,0,1-.18.19c-.08,0-.12-.12-.18-.21l-.09-.08v-.18m2.77,1.7v.11a1.1,1.1,0,0,1-1,.6c-.36,0-.79-.13-1.47-.15a8.44,8.44,0,0,0-1,.09,1.89,1.89,0,0,1-1,0c-.37-.14-.41-.44-.41-.76a2,2,0,0,1,.3-1,2.59,2.59,0,0,1,.37-.56c.06-.06.12-.1.17-.09h0c.14,0,.26.12.45.16h.2a.93.93,0,0,1,.33.07.6.6,0,0,1,.3.29c.09.15.18.13.21.35s.19.18.21-.07.17-.21.23-.31.1-.22.19-.26a2.66,2.66,0,0,1,.56-.12c.26,0,.45-.25.56-.25s.28.23.56.7a1.57,1.57,0,0,1,.22,1.23m-5.17.16c-.06.12-.25.24-.34.16s0-.16.1-.27.07-.18.18-.21.12.2.06.32m-.56,0c-.12,0-.1-.16-.05-.29s.22-.23.31-.15,0,.12-.09.24-.08.22-.17.2m-1-.68c.35.37.63.14.75.53s.09.43,0,.54h0c0,.12-.18.48.23.21l.2-.13c.25-.15.35-.19.48-.18s.42.47.92.49,1-.06,1.6,0c.43,0,1,.1,1.41.1a1.69,1.69,0,0,0,.67-.11c.51-.23.63-.63.77-.65h0a1.59,1.59,0,0,1,.52.17c.31.12.42.52.42.12v-.7c0-.26-.12-.46.3-.47a1.1,1.1,0,0,0,.81-.48,1.46,1.46,0,0,0,.17-.3h0c0-.1.1-.23.15-.36l.16-.62a2.29,2.29,0,0,1,.18-.64,1,1,0,0,1,.15-.41c0-.12,0-.13.07-.19a2.53,2.53,0,0,0,.22-.9v-.23c0-.67-.28-.73-.26-.85a1.27,1.27,0,0,1,.31-.54c.08-.08.14-.18.23-.22s.24-.27,0-.23a1.07,1.07,0,0,1-.76-.16c-.18-.07-.38,0-.37-.22a1,1,0,0,0-.37-1c-.48-.47-1-.51-1.54-.89a5.17,5.17,0,0,0-1.77-1.1,2.29,2.29,0,0,0-1,.2c-.1,0-.26-.25-.39-.42s-.26-.27-.27-.39c0-.31-.19-.24-.17,0a.52.52,0,0,1-.26.48c-.28.2-.14.48-.32.48a2.52,2.52,0,0,0-.54-.14,2,2,0,0,0-1.13.57c-.19.15-.44.41-.77.65s-1,.71-1.17.87a1.52,1.52,0,0,0-.31.48.75.75,0,0,0-.07.33.74.74,0,0,0,0,.21.49.49,0,0,1,0,.24h0c-.06.07-.07,0-.26.07s-.16.12-.26.14h-.19c-.33,0-.46.08-.15.2a.58.58,0,0,1,.23.18l.08.16a1.05,1.05,0,0,0,.17.29c.06,0,.09.08,0,.21a1.28,1.28,0,0,0-.39.88v.13a.74.74,0,0,0,0,.21.06.06,0,0,0,0,.06,2.23,2.23,0,0,0,.22.61c.15.28.29.56.42.85l.05.12c.39,1,.45,1.46.8,1.81" transform="translate(0 0)" fill="#fff"/><path d="M212.88,88.06a.84.84,0,0,1,.4.14c.32.2.32.45.27.53l-.09.09a2.16,2.16,0,0,1,.22.49.9.9,0,0,1,.48-.14,1.88,1.88,0,0,1,.66.16.94.94,0,0,0-.31-.4,1.82,1.82,0,0,0-.5-.16.37.37,0,0,1,.29,0,1.06,1.06,0,0,1,.39.13s0-.28-.44-.55c-.27-.16-.47-.16-.92-.43s-.4-.59-.4-.59a2.82,2.82,0,0,0,.36.33c.16.12.2.08.58.16a1.35,1.35,0,0,1,.62.31,4.59,4.59,0,0,0-.47-.94c-.33-.46-.61-.46-1-1.15a1.56,1.56,0,0,1-.29-.86,1.5,1.5,0,0,1-.15.42c-.05.15-.13.42-.18.63a1.11,1.11,0,0,0,.3.31l.47.29s-.38.43-.76.16l-.2-.19a1.11,1.11,0,0,1-.13.36h0l.17.16.5.35-.13.1a3.15,3.15,0,0,1,.3.24" transform="translate(0 0)" fill="#fff"/><path d="M225,86.4l-.09.11c-.55.54-1.21.64-1.38.48a.5.5,0,0,1-.08-.12h0a.47.47,0,0,1,.23-.43,10.13,10.13,0,0,0,1.2-.44,5.63,5.63,0,0,0,.72-.48,2.68,2.68,0,0,1-.59,1m-1.88.44h0a2.11,2.11,0,0,1-.39.4,1.55,1.55,0,0,1-1,.27h-.51c-.4-.08-.58-.27-.58-.4s.24-.28.44-.25h.56a4.21,4.21,0,0,0,.71,0h.32a2.19,2.19,0,0,0,.66-.59,2,2,0,0,1-.23.51m-1.8,1.29a5.64,5.64,0,0,1-1.37,1.23.9.9,0,0,1-.91-.1s-.09-.07-.33,0l-.13.07a.76.76,0,0,0,.13-.23l-.15.07h-.2a3.32,3.32,0,0,0,.44-.62,2.61,2.61,0,0,1,.43-.56H219l-.19.06s.26-.34.44-.61l.62-.86a3.59,3.59,0,0,0,1.71,1.12h.13a3.79,3.79,0,0,0-.4.3m-2.4-2.65c-.36-.27,0-1.41.49-2a5,5,0,0,1,1.23-1s-.34.46-.67,1a4.46,4.46,0,0,0-.44,1.47c0,.21-.22.85-.57.56m.14-3.14a3.3,3.3,0,0,1,1.48-.91A4.29,4.29,0,0,0,220,82c-.19.28-.42.86-.62,1.2a.47.47,0,0,1-.64.21h0c-.12-.11-.23-.42.36-1.08m-.6,2.85c-.08.07-.24.08-.44-.12a1.88,1.88,0,0,1-.42-.86,2,2,0,0,1,.5-1.35c.21-.24.45-.47.45-.47s-.22.6-.29.89a1.77,1.77,0,0,0,.05,1.09c.38.59.23.74.15.82m-.16-4.4a2.91,2.91,0,0,1,.78-.66s-.51.66-.47,1a1.75,1.75,0,0,1-.19,1c-.11.15-.3.35-.56.17s.15-1.2.44-1.57m2-1.14a2.65,2.65,0,0,0-.33.34c-.13.16-.18.35-.39.61s-.47.29-.55.23-.1-.31.23-.64a3,3,0,0,1,1-.54m.55-.34a1.27,1.27,0,0,1,.64-.1l-.22.18-.28.25a.25.25,0,0,1-.34,0c0-.06,0-.21.25-.36m1.22.1-.24.16a1,1,0,0,0-.26.25c-.09.1-.3.08-.33,0s0-.21.24-.35a1.12,1.12,0,0,1,.6-.1m.1.54a1.68,1.68,0,0,1,.48-.2l-.21.29a.9.9,0,0,1-.17.3c-.09.13-.25.12-.29,0s0-.25.19-.37m.89.21-.12.12a.85.85,0,0,0-.15.3c0,.13-.21.31-.33.18s.08-.32.23-.43a1.76,1.76,0,0,1,.37-.17m0-2.68a3.14,3.14,0,0,0,0-.75h0a.08.08,0,0,0,.11,0h.07a.08.08,0,0,0,.11,0h0a.09.09,0,0,0,.12,0h0a.09.09,0,0,0,.12,0h0a.11.11,0,0,0,.11,0h0a.13.13,0,0,0,.12,0h0a.09.09,0,0,0,.1,0h0a.09.09,0,0,0,.1,0h0v.06a.11.11,0,0,0,.11,0h0a.06.06,0,0,0,0,.06.09.09,0,0,0,.1,0h0a.06.06,0,0,0,0,.06.09.09,0,0,0,.1,0h0a.06.06,0,0,0,0,.06.07.07,0,0,0,.1,0h0a.09.09,0,0,0,0,.07.09.09,0,0,0,.1,0h0a.09.09,0,0,0,0,.07.07.07,0,0,0,.1,0h0V77a.07.07,0,0,0,.09,0h0a.09.09,0,0,0,0,.07.33.33,0,0,0,0,.47.34.34,0,0,0,.47,0l.06-.08h0a.14.14,0,0,0,0,.09.09.09,0,0,0,.1,0h0a.11.11,0,0,0,0,.08.09.09,0,0,0,.1,0h0a.14.14,0,0,0,0,.09.11.11,0,0,0,.11,0h0a.06.06,0,0,0,.09.09h0a.08.08,0,0,0,0,.09.09.09,0,0,0,.1,0h0a.09.09,0,0,0,0,.1.11.11,0,0,0,.08,0h0a.07.07,0,0,0,0,.09H226a.08.08,0,0,0,0,.09h.08a.09.09,0,0,0,0,.1h.09a.11.11,0,0,0,0,.11.14.14,0,0,0,.09,0h0a.11.11,0,0,0,0,.11.06.06,0,0,0,.08,0h0v.11a.07.07,0,0,0,.09,0h0a.07.07,0,0,0,0,.1h0a.09.09,0,0,0,.07,0h0a.09.09,0,0,0,0,.12.09.09,0,0,0,.07,0h0a.11.11,0,0,0,0,.11.09.09,0,0,0,.07,0h0a.07.07,0,0,0,0,.1h0a.06.06,0,0,0,.06,0h0a.07.07,0,0,0,0,.1h0a.07.07,0,0,0,0,.1h.07a.09.09,0,0,0,0,.12h0a.09.09,0,0,0,0,.12h0a.07.07,0,0,0,0,.1h0a.07.07,0,0,0,0,.1h0a2.43,2.43,0,0,0-.84.18,6.49,6.49,0,0,0-1.06.59,4.17,4.17,0,0,1,1-.72,1.81,1.81,0,0,1,.71-.24l-.09-.22a4.28,4.28,0,0,0-.86.34,6.41,6.41,0,0,0-1.07.71,5.83,5.83,0,0,1,.94-.85,4.18,4.18,0,0,1,.91-.35l-.12-.25s-.18.07-.77.36a5.62,5.62,0,0,0-1.23,1,5.75,5.75,0,0,1,.91-1,5.49,5.49,0,0,1,1-.5l-.14-.24a4.07,4.07,0,0,0-.86.43,12.67,12.67,0,0,0-.57,1.44,7.29,7.29,0,0,1,.84-1,6.53,6.53,0,0,1,1-.64l-.26-.25a5.73,5.73,0,0,0-1,.76l-.92,1a5.3,5.3,0,0,1,.83-1.21,9.26,9.26,0,0,1,.88-.78l-.3-.23-.66.71L224,80l.91-1.27.59-.89-.29-.23a9,9,0,0,1-.62,1.09,6.43,6.43,0,0,1-.88,1,14.27,14.27,0,0,0,.88-1.31,3.3,3.3,0,0,0,.42-.94l-.36-.21a3.89,3.89,0,0,1-.32,1,8.78,8.78,0,0,1-.88,1.22,17.17,17.17,0,0,0,.83-1.52,2.11,2.11,0,0,0,.17-.82l-.28-.1a4.88,4.88,0,0,1-.25,1,3.08,3.08,0,0,1-.81,1.18,5,5,0,0,0,.75-1.45,4.28,4.28,0,0,0,.15-.87l-.27-.07a4.9,4.9,0,0,1-.19,1A5.47,5.47,0,0,1,222.9,79a8.1,8.1,0,0,0,.48-1.14,2.44,2.44,0,0,0,.16-1h-.25a3.7,3.7,0,0,1-.08.94,2.79,2.79,0,0,1-.48.94,6.33,6.33,0,0,0,.39-1.21m0-1h.11a.07.07,0,0,1,0,.1h-.11a.07.07,0,0,1,0-.1h0m.26-.09a.08.08,0,0,1,.11,0,.07.07,0,0,1,0,.1h0a.09.09,0,0,1-.1,0h0v-.11m.3.12a.09.09,0,0,1,.13,0h0a.07.07,0,0,1,0,.1h0a.08.08,0,0,1-.1,0l0,0h0a.11.11,0,0,1,0-.11h0m.26-.11a.11.11,0,0,1,.15,0,.12.12,0,0,1,0,.14h0a.11.11,0,0,1-.15,0,.11.11,0,0,1,0-.11m.26.25a.13.13,0,0,1,.18,0l0,0h0a.15.15,0,0,1,0,.2.17.17,0,0,1-.21,0,.15.15,0,0,1,0-.16m.29-.18a.13.13,0,0,1,.18,0h0a.13.13,0,0,1,.09.16v0a.14.14,0,0,1-.18.08h-.07a.14.14,0,0,1,0-.19h0M225,77a.14.14,0,0,1,0,.19.13.13,0,0,1-.2-.17.13.13,0,0,1,.18,0h0m.06-.25a.13.13,0,0,1,.18,0h0a.13.13,0,0,1,0,.18l0,0h0a.14.14,0,0,1-.19,0,.13.13,0,0,1,0-.18l0,0h0m.43.54a.12.12,0,0,1,0,.17h0a.13.13,0,0,1-.18,0h0a.13.13,0,0,1,0-.2h0a.14.14,0,0,1,.19,0m.12-.25a.15.15,0,0,1,.21,0h0a.16.16,0,0,1,0,.23h0a.17.17,0,0,1-.23,0h0a.15.15,0,0,1,0-.21h0m.52.44a.22.22,0,0,1-.06.29.24.24,0,0,1-.23,0,.19.19,0,0,1,0-.27h0a.21.21,0,0,1,.29,0m.13.58a.18.18,0,0,1,.22,0,.16.16,0,0,1,0,.22.13.13,0,0,1-.2,0h0a.17.17,0,0,1,0-.21m.09-.38a.16.16,0,0,1,.23,0h0a.16.16,0,0,1,0,.22.15.15,0,0,1-.17,0,.18.18,0,0,1,0-.22m.48.79a.14.14,0,0,1,0,.19.14.14,0,0,1-.22-.18h0a.14.14,0,0,1,.19,0m0-.32a.14.14,0,0,1,.19,0,.11.11,0,0,1,0,.15l0,0h0a.14.14,0,0,1-.19,0,.15.15,0,0,1,0-.2m.37.75a.14.14,0,0,1,0,.21h0a.14.14,0,0,1-.19,0,.14.14,0,0,1,.2-.2m-.12-.34a.15.15,0,0,1,.2,0,.14.14,0,0,1,0,.19h0a.17.17,0,0,1-.21,0,.13.13,0,0,1,0-.2h0m.41.57a.12.12,0,0,1,0,.14h0a.1.1,0,0,1-.14,0,.11.11,0,0,1,0-.15.11.11,0,0,1,.11,0m.11.57a.09.09,0,0,1,0,.12.08.08,0,0,1-.11,0,.09.09,0,0,1,0-.12.08.08,0,0,1,.11,0m0,.38a.07.07,0,0,1-.1,0h0a.07.07,0,0,1,0-.1h0a.08.08,0,0,1,.11,0,.09.09,0,0,1,0,.11l0,0m-.14-.52a.09.09,0,0,1-.1,0,.1.1,0,0,1,0-.14.08.08,0,0,1,.1,0s0,0,0,0h0a.12.12,0,0,1,0,.14m-2,3.13a.93.93,0,0,1,.07-.33,1.25,1.25,0,0,1,.18.65c0,.32-.16.41-.24.4s-.14-.18-.14-.33a1.29,1.29,0,0,0,.12-.38m.43.53a1.38,1.38,0,0,1,0,.64c-.1.29-.24.35-.31.33a.27.27,0,0,1,0-.36,3.45,3.45,0,0,0,.2-.32l.14-.29m-1.68,1.64a2.5,2.5,0,0,1,.31-.34c.14-.13.28-.23.35-.29a4.34,4.34,0,0,0,.56-.72,2.85,2.85,0,0,1-.12.58,1.66,1.66,0,0,1-.14.37,1.35,1.35,0,0,1-.19.33h0c-.21.27-.5.66-.76.44s-.09-.26,0-.42m.49-1.76a2.78,2.78,0,0,0,.48-.49,2.62,2.62,0,0,1,0,.56,1.7,1.7,0,0,1-.28.61c-.2.23-.47.4-.7.16s.31-.7.55-.84m.23-.93a1,1,0,0,0,.23-.28,1.41,1.41,0,0,1,0,.29.61.61,0,0,1-.11.35c-.09.13-.21.24-.36.13s.13-.39.24-.49m-.15-.63a1,1,0,0,1-.18.39c-.1.12-.29.2-.36.09s.18-.3.31-.4a3.07,3.07,0,0,0,.26-.25v.17M224,83.65c-.3.47-.74.6-.88.44a.49.49,0,0,1,.07-.64,8.87,8.87,0,0,1,.86-.61,3.18,3.18,0,0,0,.58-.58l-.12.43a4.71,4.71,0,0,1-.51,1m-1.36,2.08a5.5,5.5,0,0,1,.85-.75l.09-.08a3,3,0,0,0,.35-.36l.13-.16v.15c0,.12,0,.24-.07.36a.14.14,0,0,0,0,.09,3.08,3.08,0,0,1-.48,1c-.43.52-.81.68-1,.49s0-.45.19-.72m-1.4.08a1.15,1.15,0,0,0,.25-.12,5.9,5.9,0,0,0,.78-.62,6.17,6.17,0,0,0,.46-.43l.33-.3c0,.09-.08.18-.13.27s-.11.24-.18.37a4.59,4.59,0,0,1-.42.66,5.44,5.44,0,0,1-.48.48l-.26.19-.11.06h0c-.5.3-1.1.37-1.16,0s.52-.49.92-.68M220,84.88a9.4,9.4,0,0,1,1.76-1.38l-.28.56a12,12,0,0,1-1,1.64c-.28.32-.68.63-.94.42s-.06-.66.43-1.24m1.65-2.38-.39.55c-.22.34-.32.68-.53,1a.53.53,0,0,1-.73.24c-.16-.14-.09-.45.28-.92a3.94,3.94,0,0,1,1.37-.83m.42-1.46c-.2.29-.2.54-.48.93-.18.22-.39.38-.57.22s-.06-.65.41-1.13a3.17,3.17,0,0,1,1-.66s-.21.35-.41.64m.68.1c-.07.13-.1.35-.22.61s-.39.31-.5.17,0-.48.21-.74a3,3,0,0,1,.81-.5s-.21.34-.3.46m.77-.55a3.52,3.52,0,0,0-.15.42c0,.12-.14.26-.27.12s0-.39.2-.52a1.08,1.08,0,0,1,.36-.11l-.11.18m-.78,2.74a3.5,3.5,0,0,1-.12.63,3.4,3.4,0,0,1-.38.82l-.13.18a1.38,1.38,0,0,1-.47.36.3.3,0,0,1-.34,0c-.21-.18,0-.54.13-.71a7.47,7.47,0,0,1,.8-.69,3.85,3.85,0,0,0,.51-.56m.55-1.3a5.23,5.23,0,0,1-.41.82.64.64,0,0,1-.85.31h-.06c-.3-.27,0-.63.13-.78a3.23,3.23,0,0,1,.81-.71c.47-.32.8-.51.8-.51l-.42.9m.95-.36a1.09,1.09,0,0,1-.07.3,1.77,1.77,0,0,1-.35.73c-.19.22-.54.36-.68.14s.36-.55.61-.73a5.12,5.12,0,0,0,.49-.44m-.08-.34a1,1,0,0,1-.31.41c-.11.11-.22,0-.21-.12s.18-.21.25-.28l.37-.37-.1.36m-3.85-.42c-.18.25-.59.54-.76.4s0-.46.36-.84a4.45,4.45,0,0,1,1.32-.76s-.19.16-.37.35-.37.61-.55.85m.76-.6a2.14,2.14,0,0,1,1-.52l-.34.46a6,6,0,0,0-.36.6c-.11.23-.47.31-.57.22s-.13-.36.24-.76m4.8,4v.35a2.42,2.42,0,0,1-.21.39c-.18.29-.48.51-.67.31s.09-.44.32-.67a3.55,3.55,0,0,1,.23-.31l.12-.1c.11-.1.22-.21.32-.32a.66.66,0,0,1-.09.31m6.07,4.87-1.45-3.84c-.24-.58-1.72-.66-3.6.21l-.15.06V85.6a1.33,1.33,0,0,0-.32-.55.41.41,0,0,1,0,.22c0,.14-.17.25-.41.55a.55.55,0,0,0-.14.32l-.27.1-.07-.08a3,3,0,0,0,.57-1.33V84.5h0a4,4,0,0,0,0-1.82,2.81,2.81,0,0,0-.52-.84c-.12-.22-.2-.4,0-.65a4.33,4.33,0,0,1,1.12-.78,5.82,5.82,0,0,1,.93-.26h.09a.14.14,0,0,0,0-.2h0a.16.16,0,0,0,0-.22h0a.14.14,0,0,0,0-.2h0a.14.14,0,0,0-.09,0h0a.14.14,0,0,0,0-.21h-.1a.14.14,0,0,0,0-.2h0a.11.11,0,0,0-.11,0h0c.09,0,.16-.18.16-.27s-.07-.16-.16-.27a.17.17,0,0,0-.14,0h0a.14.14,0,0,0,0-.2h0a.12.12,0,0,0-.14,0h0a.14.14,0,0,0,0-.2h0a.14.14,0,0,0-.15,0h0a.13.13,0,0,0,0-.18.12.12,0,0,0-.18,0h0a.14.14,0,0,0,0-.19.15.15,0,0,0-.13,0h0a.17.17,0,0,0,0-.17.14.14,0,0,0-.15,0h0a.19.19,0,0,0-.13-.23.19.19,0,0,0-.15,0,.14.14,0,0,0-.05-.16.15.15,0,0,0-.18,0h0a.2.2,0,0,0-.06-.14.15.15,0,0,0-.2,0h0a.17.17,0,0,0-.06-.15.18.18,0,0,0-.22,0h-.08a.16.16,0,0,0-.13-.17.15.15,0,0,0-.13,0h0a.18.18,0,0,0-.09-.24h0a.14.14,0,0,0-.2,0h0a.18.18,0,0,0-.21-.14l-.07,0h0a.14.14,0,0,0-.06-.12.17.17,0,0,0-.21,0h0a.21.21,0,0,0-.06-.1.17.17,0,0,0-.21,0,.06.06,0,0,0,0,.06h0a.15.15,0,0,0-.06-.09.16.16,0,0,0-.22,0,.11.11,0,0,0,0,.08h0a.14.14,0,0,0,0-.09.15.15,0,0,0-.21,0,.17.17,0,0,0,0,.1m0-.05a.17.17,0,0,0-.21,0,.17.17,0,0,0,0,.1h0a4.2,4.2,0,0,1,0,1.12,3,3,0,0,1-.48,1.21s-.23.36-.42.32a3.36,3.36,0,0,0-1-.09,4.33,4.33,0,0,0-3,1.7c-1.26,1.62-.44,2-.44,2a2,2,0,0,0-.47,1.51c.13.87,1.51,2,1.51,2a6.77,6.77,0,0,1-.33,1.25,4.74,4.74,0,0,1-.58,1l-.15-.25a.65.65,0,0,0-.17-.16,1.1,1.1,0,0,1,0,.8,4.87,4.87,0,0,1-.55,1,.61.61,0,0,1,0-.19v-.07a3.88,3.88,0,0,1-.22.46h-.69a1.76,1.76,0,0,1,0-.91,3.11,3.11,0,0,1,.64-1.36c.37-.41.46-.49.46-.49H217a1.32,1.32,0,0,0,.28-.52c.11-.48-.16-.6-.16-.6s-.26.45-.42.7-.7,1-1.09.73-.06-.72.07-.88c.35-.32.68-.65,1-1a1.73,1.73,0,0,0,.22-.5,4.35,4.35,0,0,1-.41.34.91.91,0,0,1-.42.14.34.34,0,0,0,0-.17.17.17,0,0,0,0-.14.91.91,0,0,1-.47.32c-.34.12-.48.06-.58,0a.38.38,0,0,1-.06-.49,1.18,1.18,0,0,1,.9-.38,1.09,1.09,0,0,0,.82-.3h-.39a.82.82,0,0,1-.2-.12,1.65,1.65,0,0,0,.94-.55c.19-.24.18-.33.18-.33a3.6,3.6,0,0,1-.54.31.61.61,0,0,1-.42,0c-.08,0,.13-.38.13-.38a1.33,1.33,0,0,0-.49.28c-.18.17-.51.44-.64.34a.32.32,0,0,1-.09-.43h0a3.33,3.33,0,0,1,1.09-.64,1.71,1.71,0,0,0,.87-.63,1.92,1.92,0,0,0,.21-.46,2.79,2.79,0,0,1-.54.42c-.18.07-.44.14-.5.08a.24.24,0,0,1,0-.34h0a4.17,4.17,0,0,1,1-.72l.59-.35a2.35,2.35,0,0,0-.53,0,4.34,4.34,0,0,0-.52.09.32.32,0,0,0,.12-.18.45.45,0,0,0,0-.23.51.51,0,0,1-.41.2.81.81,0,0,0-.61.2,2,2,0,0,0-.2.31,1.06,1.06,0,0,0-.12-.34,1,1,0,0,0-.17-.18,1.09,1.09,0,0,1,0,.36c-.12.21-.66.48-.81.65a2.23,2.23,0,0,0-.24.49,2.34,2.34,0,0,1-.2-.58,3.84,3.84,0,0,1,0-.48,3.13,3.13,0,0,0-.72,1.37,2.79,2.79,0,0,0,.15,1.4,1,1,0,0,1,0,.71c-.06.1-.2.08-.31,0a.41.41,0,0,1-.2-.36,1.93,1.93,0,0,0,0-.34h-.08v.2a2.53,2.53,0,0,1-.22.9l.12.31a2.19,2.19,0,0,0,.3.59,1,1,0,0,1,0-.53,1.82,1.82,0,0,1,.16-.31,3.23,3.23,0,0,0,0,.44,1.61,1.61,0,0,0,.28.82,1.19,1.19,0,0,0,.36.38s-.05-.18-.12-.52,0-.3.1-1.09-.1-.78-.23-1.4a1,1,0,0,1,.26-1,1.91,1.91,0,0,0,0,.89,2.08,2.08,0,0,0,.26.59s.08-.25.14-.48a4.2,4.2,0,0,1,.15-.93,1.56,1.56,0,0,1,.36-.62,1.1,1.1,0,0,0-.06.26.86.86,0,0,0,0,.32s.21-.37.43-.69a1.33,1.33,0,0,1,.68-.41,4.51,4.51,0,0,0-.47.51,5,5,0,0,0-.29.62l.25-.16a1.34,1.34,0,0,1,.44-.1s-.5.35-.87.68a2.62,2.62,0,0,0-.63,1,2.16,2.16,0,0,0-.11.76,1.94,1.94,0,0,1,.46-.64,2.11,2.11,0,0,1,.52-.26.64.64,0,0,0-.1.13,1.62,1.62,0,0,0-.1.18,2,2,0,0,1,.46-.18H216a6.19,6.19,0,0,0-.8.34,2.24,2.24,0,0,0-.7.6,1.61,1.61,0,0,0-.17,1.4,1.29,1.29,0,0,1,.17-.33,1.07,1.07,0,0,1,.39-.31,2.46,2.46,0,0,0-.25.45,1,1,0,0,0,0,.64,3.43,3.43,0,0,1,.42-.58,3.26,3.26,0,0,1,.75-.47s-.26.26-.45.48a1.93,1.93,0,0,0-.44,1,1.9,1.9,0,0,0,.12,1,1.48,1.48,0,0,1,.1-.27,1,1,0,0,1,.25-.26,4.44,4.44,0,0,0-.18.88.75.75,0,0,0,.25.59,1.86,1.86,0,0,1,.32-.75,5.14,5.14,0,0,1,.65-.75s-.39.69-.54,1.07A3.92,3.92,0,0,0,215.7,90h-.49a1.43,1.43,0,0,0-.32-.28,1.49,1.49,0,0,0-1.07-.21,3.82,3.82,0,0,0,.09.44V90H213a1.21,1.21,0,0,0,.58.22,1.89,1.89,0,0,1,1.24.12h1.69c.17-.14.45-.31.73-.5a2.07,2.07,0,0,0,.6-.58,6.18,6.18,0,0,0,.77-1.46,3.12,3.12,0,0,1,.72-1,4.05,4.05,0,0,0-.56,1.19,4.19,4.19,0,0,1-.8,1.52,1.43,1.43,0,0,1-.3.35,6,6,0,0,1-.71.5,20.5,20.5,0,0,0,2.34-.19,1.35,1.35,0,0,0-1.13-.07,1.41,1.41,0,0,1,1-.37,2.78,2.78,0,0,0,1.48-.23h0c.37-.25.4-.65.75-.84l.44-.21.18-.06-.17.14c-.14.11-.27.23-.4.35a4.24,4.24,0,0,0-.38.56l-.1.18a1,1,0,0,0,.44-.1l.19-.16h0a.76.76,0,0,0,.11-.14v.13a1,1,0,0,1-.07.15.79.79,0,0,1-.34.1,1.26,1.26,0,0,0,1-.18,2.44,2.44,0,0,0,.91-1,3,3,0,0,1,.49-.73,4.51,4.51,0,0,0-.39,1,1.69,1.69,0,0,0-.06.55,3,3,0,0,0,1.48-.89,4.68,4.68,0,0,0,.66-1.64.35.35,0,0,1,.12.23,1.47,1.47,0,0,1,0,.59A3,3,0,0,0,226,87a3.77,3.77,0,0,0,.35-.73,1.78,1.78,0,0,1-.2.88,5.72,5.72,0,0,1-.41.67,1,1,0,0,0,.34-.09,1.08,1.08,0,0,0,.32-.24,1.5,1.5,0,0,1-.55.54,6.34,6.34,0,0,0-.91.62l-.41.39.16.07h.12l.32-.1h.14l.3-.11h0c3.28-1.16,4.24-2.58,4.4-3l1.47,3.8a1.81,1.81,0,0,1-.67,1.75,11,11,0,0,1-3.37,1.84,39.2,39.2,0,0,1-13.16,2c-7.08,0-11.59-1-16.09-3.14a3.22,3.22,0,0,1-1.6-1.4,1.17,1.17,0,0,1-.15-.66c0-.39,1.41-4.27,1.4-4.33.08.61,1.83,2.24,5.77,3.39a.91.91,0,0,0-.05-.54c-.11-.37-.4-.16-.74-.53a6,6,0,0,1-.8-1.81l-.05-.12c-.35-.13-.7-.27-1.08-.44-1.88-.87-3.22-.72-3.46-.15v.12L196,89.46c-.16.47-.59,1.93,2.47,3.26,2.09.91,5.84,3,15.18,3,9.72,0,13.65-2,15.72-2.91,3-1.41,2.59-3,2.45-3.51" transform="translate(0 0)" fill="#fff"/><path d="M213.83,90v-.07a1.65,1.65,0,0,0-.1-.44v-.12a3.12,3.12,0,0,0-.23-.49l-.17-.24a2.31,2.31,0,0,0-.45-.54,1.68,1.68,0,0,0-.29-.24,2.1,2.1,0,0,0-.72-.31,1.47,1.47,0,0,1-.31.3h.28l-.38.1a1,1,0,0,1-.39.11,1.91,1.91,0,0,0-.32.16,1.61,1.61,0,0,0,0,.31v.14h.08a1.29,1.29,0,0,1,.73-.4,4.36,4.36,0,0,1,1.08-.07,4.14,4.14,0,0,0-.92.17,1.29,1.29,0,0,0-.73.4l.38.22a1.15,1.15,0,0,1,.53-.23,2.26,2.26,0,0,1,1.31.15,3,3,0,0,0-1.2,0,1.62,1.62,0,0,0-.46.22l.48.31.16-.06.2-.06a1.59,1.59,0,0,1,1,.18,2.48,2.48,0,0,0-.86,0,.86.86,0,0,0-.23.06h-.1l.21.13a3.62,3.62,0,0,1,.41.27.57.57,0,0,1,.26,0h.12a.74.74,0,0,1,.29.08h.36" transform="translate(0 0)" fill="#fff"/><path d="M215.13,89.88h-2.32l-.32-.19.1.18h-.07l-.17-.29-.43-.23.26.43v.1h-.09l-.15-.24c-.16-.23-.32-.43-.32-.43l-.49-.31a4.88,4.88,0,0,1,.34.58,1.37,1.37,0,0,0,.15.38h0a3.94,3.94,0,0,0-.61-1,1,1,0,0,0-.18-.17v.6c.06.11.12.22.17.33a2.2,2.2,0,0,0-.21-.32c-.06,0-.17-.22-.36-.29a1.38,1.38,0,0,0-.52-.17h0c.07.07.15.17.26.27a4.83,4.83,0,0,1,.54.72,17.45,17.45,0,0,1-2.28-.24c-.45,0-1-.09-1.4-.1a14.41,14.41,0,0,1-1.61,0c-.49-.06-.67-.46-.92-.49s-.24,0-.48.18a33.76,33.76,0,0,0,7,1c.83,0,1.7.07,2.62.06h1.72a1,1,0,0,0-.23-.42" transform="translate(0 0)" fill="#fff"/><path d="M27.42,54.41h-2.9v6.24h3.12a4,4,0,0,0,2.7-.82,3,3,0,0,0,.94-2.35q0-3-3.81-3m-5.88,17.4v-20h6.34a6.55,6.55,0,0,1,4.59,1.52,5.33,5.33,0,0,1,1.7,4.15,5.6,5.6,0,0,1-.87,3,5,5,0,0,1-2.39,2,12.1,12.1,0,0,1-4.35.61H24.52v8.66Z" transform="translate(0 0)" fill="#fff"/><path d="M40.52,54.32h-.86v6.3h1.08a8,8,0,0,0,3-.36A2.77,2.77,0,0,0,45,59.13a3.23,3.23,0,0,0,.46-1.71A3.06,3.06,0,0,0,45,55.71a2.66,2.66,0,0,0-1.43-1.08,10.45,10.45,0,0,0-3-.31M36.78,71.88v-20h5.06a7.19,7.19,0,0,1,4.81,1.5,5.38,5.38,0,0,1-1.59,9,8.93,8.93,0,0,1,1.87,1.71,34.86,34.86,0,0,1,2.59,3.8c.7,1.13,1.26,2,1.68,2.56l1,1.42H48.8l-.87-1.31-.17-.25-.55-.78-.89-1.46-1-1.56a15.64,15.64,0,0,0-1.63-2,6.12,6.12,0,0,0-1.32-1,4.41,4.41,0,0,0-2-.32h-.74v8.7Z" transform="translate(0 0)" fill="#fff"/><path d="M62.52,54.32a7.76,7.76,0,0,0-5.64,2.14,7.36,7.36,0,0,0-2.21,5.48,7.19,7.19,0,0,0,2.22,5.39,8.32,8.32,0,0,0,11.12,0,7.31,7.31,0,0,0,2.25-5.45A7.12,7.12,0,0,0,68,56.54a7.57,7.57,0,0,0-5.5-2.17m-.11-2.72a10.75,10.75,0,0,1,7.71,2.93,9.76,9.76,0,0,1,3,7.36A9.59,9.59,0,0,1,70,69.25a11,11,0,0,1-7.85,2.9,10.42,10.42,0,0,1-7.52-2.9,9.7,9.7,0,0,1-3-7.26,9.88,9.88,0,0,1,3-7.41,10.63,10.63,0,0,1,7.74-3" transform="translate(0 0)" fill="#fff"/><path d="M82.4,54.41h-3v6.24h3.12a4,4,0,0,0,2.7-.82,3,3,0,0,0,1-2.35c0-2-1.28-3-3.81-3m-5.82,17.4v-20h6.34a6.5,6.5,0,0,1,4.59,1.52,5.33,5.33,0,0,1,1.7,4.15,5.6,5.6,0,0,1-.87,3,5,5,0,0,1-2.39,2,12.1,12.1,0,0,1-4.35.61H79.52v8.66Z" transform="translate(0 0)" fill="#fff"/><polygon points="91.65 51.88 102.98 51.88 102.98 54.43 94.51 54.43 94.51 60.52 102.69 60.52 102.69 63.08 94.51 63.08 94.51 69.29 103.25 69.29 103.25 71.84 91.65 71.84 91.65 51.88" fill="#fff"/><path d="M110.1,54.32h-.86v6.3h1.08a8.25,8.25,0,0,0,3-.36,2.79,2.79,0,0,0,1.25-1.13,3.23,3.23,0,0,0,.46-1.71,3.13,3.13,0,0,0-.5-1.71,2.67,2.67,0,0,0-1.41-1.08,10.45,10.45,0,0,0-3-.31M106.4,71.88v-20h5a7.29,7.29,0,0,1,4.82,1.5,5.07,5.07,0,0,1,1.77,4,5,5,0,0,1-3.37,4.94,9.14,9.14,0,0,1,1.9,1.72,39.1,39.1,0,0,1,2.6,3.79,28.81,28.81,0,0,0,1.67,2.56l1,1.42h-3.4l-.87-1.31-.17-.25-.56-.78-.88-1.46-1-1.56a16.46,16.46,0,0,0-1.62-2,6.24,6.24,0,0,0-1.34-1,4.41,4.41,0,0,0-2-.32h-.75v8.7Z" transform="translate(0 0)" fill="#fff"/><polygon points="119.65 51.86 136.34 51.86 136.34 54.4 129.38 54.4 129.38 71.87 126.5 71.87 126.5 54.4 119.65 54.4 119.65 51.86" fill="#fff"/><polygon points="151.05 51.88 154.53 51.88 147.15 61.29 147.15 71.87 144.22 71.87 144.22 61.29 136.84 51.88 140.3 51.88 145.64 58.77 151.05 51.88" fill="#fff"/><path d="M36.11,91.39l-3.65-8.17-3.38,8.17ZM31.36,78.24h2.28L43.76,101H40.45l-3-6.69H27.78L25,101H21.66Z" transform="translate(0 0)" fill="#fff"/><polygon points="72.35 78.38 75.58 78.38 66.45 101.06 65.73 101.06 58.36 82.7 50.9 101.06 50.2 101.06 41.1 78.38 44.35 78.38 50.59 93.95 56.85 78.38 59.91 78.38 66.19 93.95 72.35 78.38" fill="#fff"/><path d="M87.4,91.39l-3.65-8.17-3.37,8.17ZM82.64,78.24h2.28L95,101H91.77l-3-6.69H79.1L76.28,101H73Z" transform="translate(0 0)" fill="#fff"/><path d="M101.82,81.12h-1v7.14H102a9,9,0,0,0,3.37-.43,3.08,3.08,0,0,0,1.47-1.27,3.78,3.78,0,0,0,.51-1.94,3.39,3.39,0,0,0-.57-1.93,3,3,0,0,0-1.59-1.21,11.13,11.13,0,0,0-3.4-.37M97.62,101V78.38h5.66a8.15,8.15,0,0,1,5.44,1.7,5.68,5.68,0,0,1,2,4.58,5.77,5.77,0,0,1-3.79,5.57,10.23,10.23,0,0,1,2.12,1.93A41.45,41.45,0,0,1,112,96.45c.78,1.29,1.42,2.25,1.88,2.9l1.21,1.62h-3.83l-1-1.49a2.75,2.75,0,0,0-.19-.28l-.63-.89-1-1.65-1.1-1.78a18.69,18.69,0,0,0-1.84-2.22,7.73,7.73,0,0,0-1.54-1.19,5.14,5.14,0,0,0-2.26-.36h-.78V101Z" transform="translate(0 0)" fill="#fff"/><path d="M124.82,81.25h-4v16.8H125a16.54,16.54,0,0,0,3.78-.36,9,9,0,0,0,2.24-.84,7.39,7.39,0,0,0,1.64-1.19A8.28,8.28,0,0,0,135,89.59a7.78,7.78,0,0,0-2.47-5.93,7.53,7.53,0,0,0-2.08-1.4,8,8,0,0,0-2.22-.82,22.46,22.46,0,0,0-3.38-.19m-7.32,19.68V78.38h7.62a16,16,0,0,1,7.29,1.38,10.46,10.46,0,0,1,4.26,4,11.33,11.33,0,0,1-1.78,13.88,11,11,0,0,1-3.83,2.44,12.78,12.78,0,0,1-2.34.68,35.57,35.57,0,0,1-4,.16Z" transform="translate(0 0)" fill="#fff"/><path d="M147.94,91.49,145.52,90a11.28,11.28,0,0,1-3.29-2.78,5.27,5.27,0,0,1-1-3.14,5.52,5.52,0,0,1,1.85-4.33,6.88,6.88,0,0,1,4.81-1.67,9.08,9.08,0,0,1,5.19,1.59v3.67A7.48,7.48,0,0,0,147.81,81a4.37,4.37,0,0,0-2.6.73,2.24,2.24,0,0,0-1,1.87,2.86,2.86,0,0,0,.79,1.94,9.52,9.52,0,0,0,2.41,1.87l2.41,1.47c2.75,1.66,4.13,3.75,4.13,6.29a5.78,5.78,0,0,1-1.81,4.41,6.67,6.67,0,0,1-4.71,1.66,10,10,0,0,1-6.07-2V95.06a7.63,7.63,0,0,0,6.07,3.32,3.8,3.8,0,0,0,2.53-.85,2.61,2.61,0,0,0,1-2.12c0-1.35-1-2.65-3-3.92" transform="translate(0 0)" fill="#fff"/><polygon points="32.06 28.61 24.35 28.61 24.35 34.1 31.78 34.1 31.78 36.45 24.35 36.45 24.35 42.11 32.3 42.11 32.3 44.44 21.73 44.44 21.73 26.26 32.06 26.26 32.06 28.61" fill="#fff"/><path d="M50.62,37.29c0,4.47-2.67,7.4-8.1,7.4-3.85,0-7.58-2.16-7.58-7.08V26.25h2.58V37c0,2,.27,2.9,1.09,3.73a5.33,5.33,0,0,0,3.93,1.54,6,6,0,0,0,4.27-1.46c.93-.94,1.15-2.27,1.15-4V26.25h2.61Z" transform="translate(0 0)" fill="#fff"/><path d="M57.37,34.21h1.68c2.8,0,3.6-1.44,3.57-3s-1-2.74-3.57-2.74H57.37Zm2-8c3.68,0,6,2,6,5.06a4.57,4.57,0,0,1-3,4.46c1.66,1.09,2.68,2.77,4,5.06.77,1.25,1.23,1.87,2.48,3.6h-3.1l-2.41-3.74c-2.4-3.73-3.49-4.15-4.83-4.15H57.37v7.89H54.76V26.21Z" transform="translate(0 0)" fill="#fff"/><path d="M79,42.28a6.81,6.81,0,0,0,7.08-6.53v-.4a6.82,6.82,0,0,0-6.69-6.94H79a6.81,6.81,0,0,0-7.08,6.53h0v.4a6.82,6.82,0,0,0,6.7,6.94H79M79,26c6,0,9.79,4.26,9.79,9.33,0,4.91-3.69,9.34-9.84,9.34A9.3,9.3,0,0,1,69.2,35.8v-.45C69.2,30.29,73.06,26,79,26" transform="translate(0 0)" fill="#fff"/><path d="M94.71,34.23h3c2,0,3.21-1,3.21-2.86,0-1.33-.72-2.77-3.1-2.77h-3Zm3-8c4,0,5.79,2.35,5.79,5.24s-1.92,5.06-6.13,5.06H94.68V44.4H92.07V26.2Z" transform="translate(0 0)" fill="#fff"/><polygon points="116.2 28.61 108.49 28.61 108.49 34.1 115.94 34.1 115.94 36.45 108.49 36.45 108.49 42.11 116.44 42.11 116.44 44.44 105.88 44.44 105.88 26.26 116.2 26.26 116.2 28.61" fill="#fff"/><path d="M124,36.74h5.66l-2.93-6.59Zm11.82,7.71h-2.67l-2.43-5.36H123l-2.3,5.36H118l7.83-18.3h1.84Z" transform="translate(0 0)" fill="#fff"/><polygon points="154.84 44.44 152.6 44.44 140.44 30.44 140.44 44.44 137.98 44.44 137.98 26.25 140.06 26.25 152.39 40.34 152.39 26.25 154.84 26.25 154.84 44.44" fill="#fff"/><polygon points="33.13 126.04 31.98 126.04 28.67 119.02 25.35 126.04 24.2 126.04 19.46 115.14 22.29 115.14 24.84 121.08 27.6 115.14 29.79 115.14 32.48 121.08 35.04 115.14 37.88 115.14 33.13 126.04" fill="#fff"/><rect x="39.05" y="115.14" width="2.71" height="10.76" fill="#fff"/><polygon points="55.08 125.9 52.84 125.9 46.89 119.24 46.89 125.9 44.23 125.9 44.23 115.14 46.67 115.14 52.43 121.47 52.43 115.14 55.08 115.14 55.08 125.9" fill="#fff"/><polygon points="68.44 125.9 66.2 125.9 60.25 119.24 60.25 125.9 57.58 125.9 57.58 115.14 60.03 115.14 65.79 121.47 65.79 115.14 68.44 115.14 68.44 125.9" fill="#fff"/><polygon points="78.87 125.9 70.94 125.9 70.94 115.14 78.76 115.14 78.76 117.14 73.65 117.14 73.65 119.32 78.53 119.32 78.53 121.33 73.65 121.33 73.65 123.92 78.87 123.92 78.87 125.9" fill="#fff"/><path d="M83.77,117.1v2.46h1.12c.7,0,.87,0,1.16-.2a1.08,1.08,0,0,0,.58-1c0-1.22-1.2-1.22-1.51-1.22Zm1.43-2a5.18,5.18,0,0,1,2.82.54,3.17,3.17,0,0,1,1.4,2.54,2.83,2.83,0,0,1-1.85,2.7,4.15,4.15,0,0,1,1.6,2c.3.6.76,1.62,1,2.23l.37.77h-3c-.23-.46-1.16-2.6-1.38-3-.73-1.36-1.27-1.36-2-1.36h-.39v4.36H81V115.13Z" transform="translate(0 0)" fill="#fff"/><path d="M102.31,125.88H95.45v-.11a42,42,0,0,0,3.72-4.89,4.19,4.19,0,0,0,.78-2.31,1.83,1.83,0,0,0-1.65-2h-.21A3.11,3.11,0,0,0,95.67,118v-2a4.11,4.11,0,0,1,2.6-1,3.15,3.15,0,0,1,3.22,3.09v.23c0,2-1.44,3.8-3.33,6.07h4.11Z" transform="translate(0 0)" fill="#fff"/><path d="M104.9,120.49c0,3.33,1.12,4,1.91,4s1.93-.82,1.93-4c0-3.68-1.46-4-1.92-4-.93,0-1.92,1.07-1.92,4m5.39,0c0,3.4-1.52,5.54-3.47,5.54s-3.47-2.09-3.47-5.51c0-3.68,1.78-5.53,3.53-5.53,1.94,0,3.41,2.25,3.41,5.5" transform="translate(0 0)" fill="#fff"/><rect x="155.56" y="115.02" width="1.55" height="10.76" fill="#fff"/><rect x="127.09" y="121.66" width="3.84" height="1.5" fill="#fff"/><path d="M138.39,125.88h-6.81v-.11a44.17,44.17,0,0,0,3.73-5,4.24,4.24,0,0,0,.76-2.31,1.82,1.82,0,0,0-1.64-2h-.22a3.13,3.13,0,0,0-2.44,1.48v-2a4,4,0,0,1,2.6-1,3.17,3.17,0,0,1,3.23,3.12.67.67,0,0,1,0,.2c0,2-1.43,3.8-3.33,6.07h4.1Z" transform="translate(0 0)" fill="#fff"/><path d="M141,120.49c0,3.33,1.12,4,1.91,4s1.94-.82,1.94-4c0-3.68-1.47-4-1.92-4-.94,0-1.93,1.07-1.93,4m5.4,0c0,3.4-1.52,5.54-3.47,5.54s-3.48-2.09-3.48-5.51c0-3.68,1.79-5.53,3.54-5.53,1.94,0,3.41,2.25,3.41,5.5" transform="translate(0 0)" fill="#fff"/><path d="M154.15,125.88h-6.82v-.11a41.29,41.29,0,0,0,3.72-5,4.19,4.19,0,0,0,.78-2.31,1.83,1.83,0,0,0-1.65-2H150a3.11,3.11,0,0,0-2.42,1.46v-2a4.11,4.11,0,0,1,2.6-1,3.15,3.15,0,0,1,3.22,3.09v.23c0,2-1.44,3.8-3.33,6.07h4.11Z" transform="translate(0 0)" fill="#fff"/><path d="M117.82,126H111v-.11a41.29,41.29,0,0,0,3.72-5,4.19,4.19,0,0,0,.78-2.31,1.83,1.83,0,0,0-1.65-2h-.21a3.11,3.11,0,0,0-2.42,1.46v-2a4.11,4.11,0,0,1,2.6-1,3.15,3.15,0,0,1,3.22,3.09v.23c0,2-1.44,3.8-3.33,6.07h4.11Z" transform="translate(0 0)" fill="#fff"/><path d="M120.41,120.49c0,3.33,1.12,4,1.91,4s1.93-.82,1.93-4c0-3.68-1.46-4-1.92-4-.93,0-1.92,1.07-1.92,4m5.39,0c0,3.4-1.52,5.54-3.47,5.54s-3.47-2.09-3.47-5.51c0-3.68,1.78-5.53,3.53-5.53,2,0,3.41,2.25,3.41,5.5" transform="translate(0 0)" fill="#fff"/></svg>
