<svg xmlns="http://www.w3.org/2000/svg" viewBox="0 0 150 58.4"><rect x="1" y="1" width="142.73" height="56.4" fill="#fff" stroke="#cccccb" stroke-miterlimit="10" stroke-width="2"/><polygon points="149 51.34 149 7.01 115.25 7.01 115.25 51.42 132.18 40.91 149 51.34" fill="#353536" stroke="#fff" stroke-miterlimit="10" stroke-width="2"/><path d="M132.84,31.49c0-.13,0-.22,0-.22l-.05.3A.59.59,0,0,0,132.84,31.49Z" fill="#fff"/><path d="M132.86,31.41a.2.2,0,0,1,.2-.21C133.18,31.2,132.86,31.52,132.86,31.41Z" fill="#fff"/><path d="M132.76,31.41a.21.21,0,0,1-.21.21.22.22,0,0,1-.21-.21.21.21,0,0,1,.21-.21A.21.21,0,0,1,132.76,31.41Z" fill="#fff"/><path d="M133,31a.21.21,0,0,1-.42,0,.21.21,0,0,1,.42,0Z" fill="#fff"/><path d="M131.66,30.43a2.55,2.55,0,0,1-.19-.72,2.55,2.55,0,0,1-.19.72,1,1,0,0,1-.36.39.27.27,0,0,0,.15.15.26.26,0,0,0,.18,0,.62.62,0,0,0,.07.18.49.49,0,0,0,.15.14h0a.39.39,0,0,0,.15-.14.5.5,0,0,0,.08-.18.24.24,0,0,0,.17,0,.27.27,0,0,0,.15-.15A1,1,0,0,1,131.66,30.43Z" fill="#fff"/><path d="M131.94,29.85a.21.21,0,0,1-.21.21.21.21,0,0,1-.21-.21.21.21,0,0,1,.21-.21A.22.22,0,0,1,131.94,29.85Z" fill="#fff"/><path d="M131.42,29.85a.2.2,0,0,1-.2.21.21.21,0,0,1-.21-.21.21.21,0,1,1,.41,0Z" fill="#fff"/><path d="M131.68,29.49a.21.21,0,0,1-.21.21.22.22,0,0,1-.21-.21.21.21,0,0,1,.21-.21A.21.21,0,0,1,131.68,29.49Z" fill="#fff"/><path d="M133.14,29.18a2.55,2.55,0,0,1-.19-.72,2.55,2.55,0,0,1-.19.72,1.09,1.09,0,0,1-.36.39.27.27,0,0,0,.15.14.28.28,0,0,0,.17,0,.5.5,0,0,0,.08.18A.33.33,0,0,0,133,30h0a.39.39,0,0,0,.15-.13.4.4,0,0,0,.07-.18.32.32,0,0,0,.18,0,.27.27,0,0,0,.15-.14A1.09,1.09,0,0,1,133.14,29.18Z" fill="#fff"/><path d="M133.41,28.6a.2.2,0,0,1-.21.2.21.21,0,1,1,0-.41A.21.21,0,0,1,133.41,28.6Z" fill="#fff"/><path d="M132.9,28.6a.2.2,0,0,1-.21.2.21.21,0,1,1,0-.41A.21.21,0,0,1,132.9,28.6Z" fill="#fff"/><path d="M133.16,28.23a.21.21,0,0,1-.21.21.21.21,0,0,1-.21-.21A.21.21,0,0,1,133,28,.22.22,0,0,1,133.16,28.23Z" fill="#fff"/><path d="M134.61,27.92a2.47,2.47,0,0,1-.19-.72,2.17,2.17,0,0,1-.19.72,1,1,0,0,1-.36.39.32.32,0,0,0,.15.15.26.26,0,0,0,.18,0,.75.75,0,0,0,.07.19.54.54,0,0,0,.15.13h0a.52.52,0,0,0,.16-.13.75.75,0,0,0,.07-.19.26.26,0,0,0,.18,0,.28.28,0,0,0,.14-.15A1.08,1.08,0,0,1,134.61,27.92Z" fill="#fff"/><path d="M134.89,27.34a.21.21,0,0,1-.21.21.21.21,0,0,1-.21-.21.21.21,0,0,1,.21-.21A.22.22,0,0,1,134.89,27.34Z" fill="#fff"/><path d="M134.38,27.34a.21.21,0,0,1-.21.21.21.21,0,0,1-.21-.21.21.21,0,0,1,.21-.21A.22.22,0,0,1,134.38,27.34Z" fill="#fff"/><path d="M134.63,27a.21.21,0,1,1-.41,0,.2.2,0,0,1,.2-.21A.21.21,0,0,1,134.63,27Z" fill="#fff"/><path d="M135.85,26.09a.21.21,0,0,1-.21.21.21.21,0,0,1,0-.42A.21.21,0,0,1,135.85,26.09Z" fill="#fff"/><path d="M136,25.92l-.08,0a.21.21,0,0,1-.21-.21.21.21,0,0,1,.36-.15S136.06,25.89,136,25.92Z" fill="#fff"/><path d="M136,23.28a.21.21,0,0,1-.21.21.22.22,0,0,1-.21-.21.21.21,0,0,1,.21-.21A.21.21,0,0,1,136,23.28Z" fill="#fff"/><path d="M136,23.13a.21.21,0,0,1-.21-.21.22.22,0,0,1,.07-.16S136,22.89,136,23.13Z" fill="#fff"/><path d="M134.75,25.11a2.55,2.55,0,0,1-.19-.72,2.55,2.55,0,0,1-.19.72,1,1,0,0,1-.36.39.27.27,0,0,0,.15.15.26.26,0,0,0,.18,0,.62.62,0,0,0,.07.18.49.49,0,0,0,.15.14h0a.47.47,0,0,0,.16-.14.62.62,0,0,0,.07-.18.24.24,0,0,0,.17,0,.27.27,0,0,0,.15-.15A1,1,0,0,1,134.75,25.11Z" fill="#fff"/><path d="M135,24.53a.22.22,0,0,1-.21.21.21.21,0,0,1-.21-.21.21.21,0,0,1,.21-.21A.21.21,0,0,1,135,24.53Z" fill="#fff"/><path d="M134.51,24.53a.21.21,0,1,1-.41,0,.21.21,0,0,1,.21-.21A.2.2,0,0,1,134.51,24.53Z" fill="#fff"/><path d="M134.77,24.17a.21.21,0,0,1-.21.21.22.22,0,0,1-.21-.21.21.21,0,0,1,.21-.21A.21.21,0,0,1,134.77,24.17Z" fill="#fff"/><path d="M133.28,26.37a2.55,2.55,0,0,1-.19-.72,2.55,2.55,0,0,1-.19.72,1.09,1.09,0,0,1-.36.39.27.27,0,0,0,.15.14.24.24,0,0,0,.17,0,.63.63,0,0,0,.07.19.39.39,0,0,0,.16.13h0a.39.39,0,0,0,.15-.13.63.63,0,0,0,.07-.19.26.26,0,0,0,.18,0,.27.27,0,0,0,.15-.14A1.09,1.09,0,0,1,133.28,26.37Z" fill="#fff"/><path d="M133.55,25.78a.21.21,0,0,1-.21.21.21.21,0,1,1,0-.41A.2.2,0,0,1,133.55,25.78Z" fill="#fff"/><path d="M133,25.78a.21.21,0,0,1-.42,0,.21.21,0,0,1,.42,0Z" fill="#fff"/><path d="M133.3,25.42a.21.21,0,0,1-.21.21.21.21,0,0,1-.21-.21.21.21,0,0,1,.21-.21A.22.22,0,0,1,133.3,25.42Z" fill="#fff"/><path d="M131.8,27.62a2.55,2.55,0,0,1-.19-.72,2.55,2.55,0,0,1-.19.72,1,1,0,0,1-.36.39.27.27,0,0,0,.15.15.26.26,0,0,0,.18,0,.4.4,0,0,0,.07.18.49.49,0,0,0,.15.14h0a.39.39,0,0,0,.15-.14.5.5,0,0,0,.08-.18.24.24,0,0,0,.17,0,.27.27,0,0,0,.15-.15A1,1,0,0,1,131.8,27.62Z" fill="#fff"/><path d="M132.08,27a.22.22,0,0,1-.21.21.21.21,0,0,1-.21-.21.21.21,0,0,1,.21-.21A.21.21,0,0,1,132.08,27Z" fill="#fff"/><path d="M131.56,27a.21.21,0,1,1-.41,0,.2.2,0,0,1,.2-.21A.21.21,0,0,1,131.56,27Z" fill="#fff"/><path d="M131.82,26.68a.21.21,0,0,1-.21.21.22.22,0,0,1-.21-.21.21.21,0,0,1,.21-.21A.21.21,0,0,1,131.82,26.68Z" fill="#fff"/><path d="M130.33,28.87a2.17,2.17,0,0,1-.19-.72,2.47,2.47,0,0,1-.19.72,1.17,1.17,0,0,1-.36.4.28.28,0,0,0,.14.14.26.26,0,0,0,.18,0,.63.63,0,0,0,.07.19.39.39,0,0,0,.16.13h0a.39.39,0,0,0,.15-.13.63.63,0,0,0,.07-.19.26.26,0,0,0,.18,0,.32.32,0,0,0,.15-.14A1.07,1.07,0,0,1,130.33,28.87Z" fill="#fff"/><path d="M130.6,28.29a.21.21,0,0,1-.21.21.21.21,0,0,1-.21-.21.22.22,0,0,1,.21-.21A.21.21,0,0,1,130.6,28.29Z" fill="#fff"/><path d="M130.09,28.29a.21.21,0,0,1-.21.21.21.21,0,0,1-.21-.21.21.21,0,0,1,.21-.21A.22.22,0,0,1,130.09,28.29Z" fill="#fff"/><path d="M130.34,27.93a.2.2,0,0,1-.2.21.21.21,0,0,1-.21-.21.21.21,0,1,1,.41,0Z" fill="#fff"/><path d="M130.46,26.06a2.47,2.47,0,0,1-.19-.72,2.47,2.47,0,0,1-.19.72,1,1,0,0,1-.36.39.32.32,0,0,0,.15.15.26.26,0,0,0,.18,0,.75.75,0,0,0,.07.19.54.54,0,0,0,.15.13h0a.52.52,0,0,0,.16-.13.75.75,0,0,0,.07-.19.26.26,0,0,0,.18,0,.28.28,0,0,0,.14-.15A1.08,1.08,0,0,1,130.46,26.06Z" fill="#fff"/><path d="M130.74,25.48a.21.21,0,1,1-.42,0,.21.21,0,1,1,.42,0Z" fill="#fff"/><path d="M130.23,25.48a.21.21,0,0,1-.21.21.21.21,0,0,1-.21-.21.21.21,0,0,1,.21-.21A.22.22,0,0,1,130.23,25.48Z" fill="#fff"/><path d="M130.48,25.12a.21.21,0,1,1-.41,0,.2.2,0,0,1,.2-.21A.21.21,0,0,1,130.48,25.12Z" fill="#fff"/><path d="M131.94,24.81a2.55,2.55,0,0,1-.19-.72,2.55,2.55,0,0,1-.19.72,1,1,0,0,1-.36.39.27.27,0,0,0,.15.15.26.26,0,0,0,.18,0,.4.4,0,0,0,.07.18.39.39,0,0,0,.15.13h0a.39.39,0,0,0,.15-.13.4.4,0,0,0,.07-.18.26.26,0,0,0,.18,0,.27.27,0,0,0,.15-.15A1,1,0,0,1,131.94,24.81Z" fill="#fff"/><path d="M132.21,24.23a.21.21,0,1,1-.41,0A.21.21,0,0,1,132,24,.2.2,0,0,1,132.21,24.23Z" fill="#fff"/><path d="M131.7,24.23a.21.21,0,0,1-.21.21.22.22,0,0,1-.21-.21.21.21,0,0,1,.21-.21A.21.21,0,0,1,131.7,24.23Z" fill="#fff"/><path d="M132,23.86a.21.21,0,0,1-.42,0,.21.21,0,0,1,.42,0Z" fill="#fff"/><path d="M133.42,23.55a2.47,2.47,0,0,1-.19-.72,2.47,2.47,0,0,1-.19.72,1.17,1.17,0,0,1-.36.4.28.28,0,0,0,.14.14.26.26,0,0,0,.18,0,.63.63,0,0,0,.07.19.52.52,0,0,0,.16.13h0a.54.54,0,0,0,.15-.13.63.63,0,0,0,.07-.19.26.26,0,0,0,.18,0,.32.32,0,0,0,.15-.14A1.07,1.07,0,0,1,133.42,23.55Z" fill="#fff"/><path d="M133.69,23a.21.21,0,0,1-.21.21.21.21,0,0,1-.21-.21.22.22,0,0,1,.21-.21A.21.21,0,0,1,133.69,23Z" fill="#fff"/><path d="M133.18,23a.21.21,0,0,1-.21.21.21.21,0,0,1-.21-.21.21.21,0,0,1,.21-.21A.22.22,0,0,1,133.18,23Z" fill="#fff"/><path d="M133.44,22.61a.21.21,0,0,1-.21.21.21.21,0,0,1,0-.42A.21.21,0,0,1,133.44,22.61Z" fill="#fff"/><path d="M134.89,22.3a.92.92,0,0,1-.09-.25,1.09,1.09,0,0,0-.19,0,1.45,1.45,0,0,1-.1.25,1,1,0,0,1-.36.39.27.27,0,0,0,.15.15.26.26,0,0,0,.18,0,.62.62,0,0,0,.07.18.49.49,0,0,0,.15.14h0a.39.39,0,0,0,.15-.14.5.5,0,0,0,.08-.18.24.24,0,0,0,.17,0,.27.27,0,0,0,.15-.15A1,1,0,0,1,134.89,22.3Z" fill="#fff"/><path d="M130.6,23.25a2.55,2.55,0,0,1-.19-.72,2.55,2.55,0,0,1-.19.72,1,1,0,0,1-.36.39.27.27,0,0,0,.15.15.26.26,0,0,0,.18,0,.62.62,0,0,0,.07.18.49.49,0,0,0,.15.14h0a.47.47,0,0,0,.16-.14.62.62,0,0,0,.07-.18.24.24,0,0,0,.17,0,.27.27,0,0,0,.15-.15A1,1,0,0,1,130.6,23.25Z" fill="#fff"/><path d="M130.88,22.67a.21.21,0,0,1-.21.21.21.21,0,0,1-.21-.21.21.21,0,0,1,.21-.21A.22.22,0,0,1,130.88,22.67Z" fill="#fff"/><path d="M130.36,22.67a.2.2,0,0,1-.2.21.21.21,0,0,1-.21-.21.21.21,0,1,1,.41,0Z" fill="#fff"/><path d="M128.63,22a1.35,1.35,0,0,0,0,.18l.07,0a.26.26,0,0,0,.18,0,.63.63,0,0,0,.07.19.39.39,0,0,0,.16.13h0a.39.39,0,0,0,.15-.13.63.63,0,0,0,.07-.19.26.26,0,0,0,.18,0,.32.32,0,0,0,.15-.14l-.08-.06Z" fill="#fff"/><path d="M133.87,30.29a.2.2,0,0,1-.05-.14.21.21,0,0,1,.21-.21l.08,0S133.9,30.32,133.87,30.29Z" fill="#fff"/><path d="M134.14,29.94a.19.19,0,0,1-.06-.15.21.21,0,0,1,.21-.21h.06S134.17,30,134.14,29.94Z" fill="#fff"/><path d="M129.71,34.27" fill="#fff"/><path d="M125.61,32.27l0,0,0,.05,0,.14,0,0h0l.07-.22Z" fill="#fff"/><path d="M126.38,32.24v0Z" fill="#fff"/><polygon points="138.7 32.53 138.71 32.53 138.71 32.53 138.7 32.53" fill="#fff"/><path d="M137.85,32.24v0Z" fill="#fff"/><path d="M138.8,33.81l-.19.08-.18-.48a1.31,1.31,0,0,0-.05-.15.27.27,0,0,0-.17-.14.23.23,0,0,1,.12.12.6.6,0,0,1,0,.16l.23.63.19-.06a.7.7,0,0,0,.18-.11l0-.12A.46.46,0,0,1,138.8,33.81Z" fill="#fff"/><path d="M129.11,30.69h0l.07,0Z" fill="#fff"/><path d="M128.43,30.81l.15,0h.1a.5.5,0,0,1,.28-.11H129a.07.07,0,0,0,0,0l-.19-.13-.1.06a.45.45,0,0,1-.24.05h-.21l.1,0a.9.9,0,0,0,.26,0,.42.42,0,0,0,.15-.09l-.1-.06-.14-.06-.15.06a.3.3,0,0,1-.16,0l.14,0,.14-.05-.21-.06-.25,0a1.39,1.39,0,0,1,.22,0,2.49,2.49,0,0,1,.29,0,.34.34,0,0,0-.06-.09.52.52,0,0,0-.12-.09.31.31,0,0,1,.12.06l.12.14,0,0a.61.61,0,0,1,.13.07,1.17,1.17,0,0,1-.07-.15l-.12-.25a1.79,1.79,0,0,1,.12.21,1.86,1.86,0,0,0,.16.25l.1.07a.74.74,0,0,0,0-.23,3,3,0,0,0-.17-.33s.1.15.17.28a1.09,1.09,0,0,1,.09.34l.08.08s0-.08.06-.13a1.86,1.86,0,0,0-.09-.24,1.45,1.45,0,0,1-.11-.27l.23.47h0l.07-.07-.07-.21a.79.79,0,0,1,.08.19.29.29,0,0,0,0-.09,0,0,0,0,1,0-.05c-.19-.22-.28-.39-.42-.43s-.24-.07-.51.08a2.53,2.53,0,0,1-.53.26.44.44,0,0,0-.21.06.11.11,0,0,0,0,0,1,1,0,0,1,.21,0,.27.27,0,0,1,.17.16,2.36,2.36,0,0,0,.18.35,1.12,1.12,0,0,0,.13.16l.15-.14.12-.09Z" fill="#fff"/><path d="M132.59,19.88c-.16,0-.12.35.11.29A.16.16,0,0,0,132.59,19.88Z" fill="#fff"/><path d="M132.59,19.33c-.16,0-.12.35.11.29A.16.16,0,0,0,132.59,19.33Z" fill="#fff"/><path d="M132.67,19.07a.16.16,0,0,0-.11-.29C132.4,18.81,132.44,19.13,132.67,19.07Z" fill="#fff"/><path d="M127.57,29.49a10.4,10.4,0,0,1,1.81-.58l0-.11a11.76,11.76,0,0,0-1.79.57S127.57,29.45,127.57,29.49Z" fill="#fff"/><path d="M125.3,31h0a2.25,2.25,0,0,0-.51,1.39h.11a2.13,2.13,0,0,1,.49-1.31S125.36,31,125.3,31Z" fill="#fff"/><path d="M127.32,29.51v0h0l0,0Z" fill="#fff"/><path d="M125.8,31.82l-.1,0-.36-.05-.07.1,0-.1c-.32,0-.41,0-.47.18a.36.36,0,0,0,0,.16h0c0-.14.13-.26.82-.15L126,32S125.87,31.91,125.8,31.82Z" fill="#fff"/><path d="M126.37,32.28v0l0,0h0Z" fill="#fff"/><path d="M126.38,32.76l.1,0-.07-.1A.44.44,0,0,1,126.38,32.76Z" fill="#fff"/><path d="M125.75,32.15a.2.2,0,0,0-.16.09l-.13.23c.08.06.16.18.13.27l-.36,1.09a.7.7,0,0,0,.2.12,1.51,1.51,0,0,0,.18.09l0-.14-.17-.08a.53.53,0,0,1-.2-.11l.32-.92c0-.09,0-.17,0-.23l.12-.21s-.05.08.1.19A.48.48,0,0,1,125.75,32.15Z" fill="#fff"/><path d="M128.42,22.12h1.22l.07-.14h-1.37a5.74,5.74,0,0,0-.22,1.73l.12,0A7.72,7.72,0,0,1,128.42,22.12Z" fill="#fff"/><path d="M128.4,26.63l.06,0a.09.09,0,0,0,.07,0,13.39,13.39,0,0,1-.23-1.39l-.12,0C128.23,25.69,128.3,26.15,128.4,26.63Z" fill="#fff"/><path d="M128.29,25.07l0-.33a.28.28,0,0,0,0,.15A.23.23,0,0,0,128.29,25.07Z" fill="#fff"/><path d="M128.88,24.1l0,.12c.05.06.23.05.21.22s0,.12,0,.16a.14.14,0,0,0,.09.12l.12,0a.51.51,0,0,1-.25.12c-.11,0-.2-.1-.23-.1s-.06.14-.16.14a.23.23,0,0,1-.13-.06l-.07,0a.27.27,0,0,0,.15.14.28.28,0,0,0,.17,0,.62.62,0,0,0,.07.18.39.39,0,0,0,.16.13.39.39,0,0,0,.15-.13.62.62,0,0,0,.07-.18.32.32,0,0,0,.18,0,.27.27,0,0,0,.15-.14,1.09,1.09,0,0,1-.36-.39,1.66,1.66,0,0,1-.14-.43Z" fill="#fff"/><path d="M128.59,26.53h-.12a.41.41,0,0,1,0,.11l.05,0A.35.35,0,0,0,128.59,26.53Z" fill="#fff"/><path d="M129.17,27.73l0,.13h0a.27.27,0,0,0,.15-.15.73.73,0,0,1-.17-.13h0A.25.25,0,0,0,129.17,27.73Z" fill="#fff"/><path d="M128.9,27.86h-.05l.1.18A.47.47,0,0,0,129,28C129,27.88,128.92,27.86,128.9,27.86Z" fill="#fff"/><path d="M128.59,26.37a.3.3,0,0,0,0,.1,1.38,1.38,0,0,1,.14-.3A.21.21,0,0,0,128.59,26.37Z" fill="#fff"/><path d="M123.24,32l.09.05h0a.24.24,0,0,0,.18-.09l-.23-.14-.21-.11a.79.79,0,0,0,.13.26Z" fill="#fff"/><path d="M124.09,32.4c0,.07,0,.06.07.11a.3.3,0,0,1,.13.16l0,0c.44.28,1.08.41,1.21.14l-.34.95a.49.49,0,0,1-.58.31,4,4,0,0,1-.56-.19c-.24-.11-.42-.23-.65-.35l-.55-.31a4.79,4.79,0,0,0-.61-.24v0a.21.21,0,0,1-.07,0,3.39,3.39,0,0,0-1.09-.11,3,3,0,0,1,1-.38.25.25,0,0,0,0-.07l0-.07-.35.09a2.29,2.29,0,0,0-.81.44c-.14.11-.06.11,0,.11a4.36,4.36,0,0,1,1.89.36,8.11,8.11,0,0,0,1.79.87.69.69,0,0,0,.77-.34l.36-1.06c.06-.25-.19-.4-.53-.54a.56.56,0,0,1-.33-.27h0a.15.15,0,0,1,0-.08l-.26.69-.41-.27S124.09,32.38,124.09,32.4Z" fill="#fff"/><path d="M122.09,32a1.17,1.17,0,0,0-.76-.22,1.85,1.85,0,0,1,1-.13c0-.05,0-.13-.06-.2a1.57,1.57,0,0,0-1.35.38,3.29,3.29,0,0,1,.68.15,1.68,1.68,0,0,1,.43.27V32.2A.34.34,0,0,1,122.09,32Z" fill="#fff"/><path d="M129.83,23.8a.38.38,0,0,1,.18.06.61.61,0,0,0-.09-.22.36.36,0,0,0-.2-.15c-.06,0-.06,0-.09-.07s-.12,0-.12-.08,0,0,0-.14-.12-.17-.14-.2,0-.05.09-.09a.82.82,0,0,1,.2,0,.58.58,0,0,0-.44-.18,1.41,1.41,0,0,0-.3,0s0-.07,0-.1a.22.22,0,0,1,.06-.05.38.38,0,0,0-.17,0,.19.19,0,0,0-.2.16c0,.09-.25.08-.28.28s.16.32.15.5-.13.14-.27.17l-.12,0-.21.05c-.19.08-.33.27-.4.26s-.18-.22-.52-.23a1,1,0,0,0-.43.1s-.08,0-.08,0a2.9,2.9,0,0,0,.11-.27,1.63,1.63,0,0,0,0-.3.41.41,0,0,1-.33.22.57.57,0,0,1-.39-.19.72.72,0,0,1-.13-.34.22.22,0,0,1,.13,0,.21.21,0,0,1,.18.12.52.52,0,0,1,.08.23,1.27,1.27,0,0,0,.11-.16.85.85,0,0,0,.19-.41.28.28,0,0,0-.14-.25.27.27,0,0,0,0-.1.55.55,0,0,0-.05-.12.3.3,0,0,1,0,.12.28.28,0,0,1-.21.14c-.1,0-.21-.07-.19-.4s.12-.42.22-.42a.23.23,0,0,1,.19.13.35.35,0,0,1,0,.15s0,0,0,0a1.11,1.11,0,0,0,.15-.73s0-.06,0-.06h-.09c-.06,0-.15,0-.14,0s.16,0,.23,0,.07-.1,0-.14-.07-.07-.27-.09-.23,0-.34,0l-.23,0,0,0s0,0,0,0h-.19a2.85,2.85,0,0,0-.37.05c-.39.07-.43.2-.45.2a.19.19,0,0,1-.14-.09c-.09-.11-.07-.1-.11-.14a.51.51,0,0,1-.12-.2.64.64,0,0,0-.22.48,1.82,1.82,0,0,0,.11.33c0,.05,0,.05-.12.16s0,.3-.13.48a.76.76,0,0,1-.26.27.43.43,0,0,0,.2.08.61.61,0,0,0,.15,0s0,.06-.11.16a.52.52,0,0,0-.2.45c0,.17,0,.28,0,.51s-.07.17-.07.17a.17.17,0,0,0,.09,0,.19.19,0,0,0,.12,0c.07,0,.09,0,.09,0a2.55,2.55,0,0,0,0,.37,1.63,1.63,0,0,0,.12.58,1.15,1.15,0,0,1,0,.36,1,1,0,0,0,.11-.11l.12-.1a1.29,1.29,0,0,0,0,.32c0,.22.21.34.23.63,0,.13,0,.23,0,.23l.1,0a.65.65,0,0,0,.11-.09s0,.09-.17.37a2.27,2.27,0,0,1-.57.61c-.22.21-.57.53-.78.77a1.13,1.13,0,0,1-.93.58.62.62,0,0,1-.41-.15c-.26-.35,0-.86.19-1.36a2.77,2.77,0,0,0,0-1.79c-.16-.9-.66-1.41-.56-2.09s.47-1.06.82-1,.24.32.06.65-.42.43-.47.7a.41.41,0,0,0,.15.43l.09.08a.48.48,0,0,1,.51-.52,1.1,1.1,0,0,0-.38.91,1.56,1.56,0,0,1,0,.37.84.84,0,0,0,0,.54c0,.14.13.24.15.41a.44.44,0,0,0,.16-.27c.11-.3.15-.2.24-.47a1.71,1.71,0,0,0,.09-.43c.11.17.2.39.49.38a.84.84,0,0,0,.33-.07c-.13-.2-.11-.24-.26-.5a1.42,1.42,0,0,1-.27-.83c0-.4,0-.92,0-1.17a.94.94,0,0,0-.24-.58,1,1,0,0,0-1.19-.13,3.37,3.37,0,0,0-.49.36c-.93.84-.51,1.81-.22,2.6a1,1,0,0,0-.45-.05c.22.23.4.39.52.55l.27.41a1.9,1.9,0,0,1,.09.22c-.13-.11-.21-.17-.3-.17a2.27,2.27,0,0,1,.13.59,3.67,3.67,0,0,1,0,.74.94.94,0,0,0-.52-.45c0,.31.13.64.17.95s0,.6.06.88c.16.87.89,1.18,1.78.72a5.61,5.61,0,0,0,.49-.28,1.8,1.8,0,0,0,0,.24c0,.2,0,.31,0,.47s0,.25-.22.35-.19.1-.33,0-.33-.41-.67-.42a.3.3,0,0,0-.25.11,1,1,0,0,1,.19.15.8.8,0,0,1,.13.24,1,1,0,0,0-.24,0c-.11,0-.18.13-.25.24s-.24.07-.24.07,0,.12.14.26a.53.53,0,0,0,.36.12.7.7,0,0,0-.06.16,1.3,1.3,0,0,0,0,.28c0,.15-.26.14-.26.14a.64.64,0,0,0,.38.18.34.34,0,0,0,.27-.09,3.64,3.64,0,0,0,0,.41.4.4,0,0,0,0,.15c0,.07,0,.15.06.2l0,.14a.52.52,0,0,0-.2.09.28.28,0,0,0-.1.12.34.34,0,0,0,0,.19v.06s0,.07,0,.1l0,.07a.25.25,0,0,1,0,.07v0a.73.73,0,0,0,0,.33.26.26,0,0,0,.1.14.21.21,0,0,0,.07,0v0a.44.44,0,0,1,0-.13c0-.08,0-.14.08-.14s.09.07.18.08.13-.1.16-.15v0a.36.36,0,0,0,.17.28.79.79,0,0,0,.25.13.49.49,0,0,0,0,.21.35.35,0,0,0,.32.23c.2,0,.24-.13.27-.13s.09.21.09.21.14-.1.14-.2a1.62,1.62,0,0,0,0-.18s0,0,0-.09,0-.11,0-.14,0,0,0-.05,0,0,0-.1,0-.06.07-.05.16.15.16.15a.26.26,0,0,0,.06-.18s0,0,0-.06a.3.3,0,0,0-.13-.16c-.07,0-.08,0-.07-.11s0,0,0,0,.08-.05.08-.09,0-.12,0-.14,0,0,0,0,.15.13.15.13a.75.75,0,0,0,0-.3c0-.15-.22-.18-.28-.19s-.08-.11-.22-.12-.18.23-.29.36a.24.24,0,0,1-.18.09h0a.17.17,0,0,1-.12-.07.79.79,0,0,1-.13-.26,4.18,4.18,0,0,1-.14-.63c0-.34.12-.29.16-.28s.14.1.28.12.24-.11.27-.1.08.07.07.2-.17.17-.17.17,0,0,.21.07.22,0,.25-.09l.08-.14a.32.32,0,0,0,.18.39.9.9,0,0,0,.32.08s0-.11-.06-.19a.58.58,0,0,1,0-.3c0-.11,0-.18.06-.18s.08.08.19.07.21-.31.21-.31l-.18-.11c-.05,0-.12-.07-.1-.24a1.73,1.73,0,0,0,.13-.6,3.28,3.28,0,0,0-.12-.8,1,1,0,0,1,.24,0,1.6,1.6,0,0,1,.62.29.45.45,0,0,1,.2.37.55.55,0,0,1-.14.39c-.09.07-.21,0-.34,0-.31,0-.31.33-.31.33a.12.12,0,0,1,.13,0c.08,0,.07.1.14.15s0,.09,0,.16A.7.7,0,0,0,125,31a.35.35,0,0,0,0,.23s0-.21.19-.23h0c.06,0,.07,0,.06.08a.36.36,0,0,1,0,.09.76.76,0,0,0-.09.31,1.06,1.06,0,0,0,0,.31l0,.1.07-.1s0-.05.06-.06a.38.38,0,0,1,.14-.09c.06,0,.08-.1.13-.1s0,.05.08.23a.36.36,0,0,0,0,.09c.07.09.15.13.16.17h0s-.1,0-.2.14h0a.48.48,0,0,0,0,.39l0,0c0,.08,0,.14,0,.32a.29.29,0,0,0,.22.21.4.4,0,0,1-.06-.2c0-.08.14-.06.23,0s.12,0,.15-.1a.44.44,0,0,0,0-.08l.07.1.09.08a.41.41,0,0,0,.26.1.31.31,0,0,0,.57.17.7.7,0,0,1-.08-.23v0a0,0,0,0,1,0,0,.56.56,0,0,1,0,.08c0,.05-.07.08-.13.07a.19.19,0,0,1-.14-.13v-.18h-.14a.35.35,0,0,1-.17-.06c-.09-.08-.13-.15-.14-.15l-.15-.24h0l0,0h0a1.44,1.44,0,0,0-.09.29h-.1a.19.19,0,0,0-.13,0v0a.18.18,0,0,0,0-.13c0-.1-.06-.15,0-.19l0-.05s.06,0,.07,0,.06-.06.08-.12,0,0,0-.06v-.07a.25.25,0,0,0-.09-.17.5.5,0,0,1-.11-.13.45.45,0,0,1,0-.13s-.12-.22-.21-.23-.16,0-.28.16a.79.79,0,0,1,.09-.28.29.29,0,0,0,0-.27.17.17,0,0,0,0-.07.12.12,0,0,0-.1-.06h-.16a.57.57,0,0,1,.09-.15s.1,0,.09-.12a.76.76,0,0,0-.08-.2s-.07-.11-.13-.14.22,0,.25,0a.27.27,0,0,0,.21-.07.79.79,0,0,0,.21-.54.87.87,0,0,0-.32-.59h0a1.74,1.74,0,0,0-.72-.32h-.13a.84.84,0,0,0-.16,0l-.16.05,0,.25a3.15,3.15,0,0,1,.08.74,1.2,1.2,0,0,1,0,.43.34.34,0,0,0,0,.16c0,.13,0,.2.1.28l.17.12h-.11s-.1-.05-.18-.05-.13.29-.13.36a1.65,1.65,0,0,1,.07.26.43.43,0,0,1-.18-.38,1.28,1.28,0,0,0-.09-.33c0,.12,0,.16-.06.28a1.56,1.56,0,0,1-.19.29,2.09,2.09,0,0,0,.05-.21c0-.15,0-.3-.11-.31a.24.24,0,0,0-.18.06s-.06.07-.17.07a.57.57,0,0,1-.22-.07.53.53,0,0,0-.19-.06.21.21,0,0,0-.18.08.71.71,0,0,0-.09.47,2.69,2.69,0,0,0,.08.47.65.65,0,0,0,.06.21c.12.36.28.46.43.46a.31.31,0,0,0,.23-.08.74.74,0,0,0,.13-.12l.08-.14a1.05,1.05,0,0,1,.07-.11l.07,0a.21.21,0,0,0,.11.07h0l.07,0a.16.16,0,0,0-.13.17s0,.08,0,.1v0a.21.21,0,0,0-.07.15h0a.17.17,0,0,0,0,.16.26.26,0,0,0-.1.07.21.21,0,0,0,0,.15.19.19,0,0,0,0,.12.32.32,0,0,0,0,.14.15.15,0,0,0,0,.1v0h0a.15.15,0,0,0-.12.06.17.17,0,0,1-.14.06c-.09,0-.15,0-.19-.11a.39.39,0,0,1,0-.11v-.14l-.11,0a.68.68,0,0,1-.21-.11.91.91,0,0,1-.22-.42l-.14.12-.1.11s0,0,0,0a.16.16,0,0,0-.11,0h0c-.05,0-.07,0-.11.07a.28.28,0,0,1,0-.13c0-.05,0-.08,0-.12a.63.63,0,0,1,0-.13s0,0,0-.05a.29.29,0,0,1,.07-.12.37.37,0,0,1,.15-.06h.2l-.09-.23v0c0-.05,0-.12-.08-.21a1.77,1.77,0,0,1,0-.2,3.84,3.84,0,0,1-.07-.47c0-.13,0-.46,0-.46l-.18.19c0,.05-.18.21-.24.22a1.57,1.57,0,0,0,.09-.23c0-.1.05-.21.05-.21l.12-.31a.93.93,0,0,1-.28,0,.51.51,0,0,1-.23-.07.24.24,0,0,0,.08-.06c0-.05,0-.16.12-.16a.51.51,0,0,1,.19,0l.24.08,0-.26a1.72,1.72,0,0,0-.17-.27.52.52,0,0,1,.27.23.48.48,0,0,0,.36.21.5.5,0,0,0,.34-.09.68.68,0,0,0,.4-.56,1.21,1.21,0,0,0,0-.2,1.81,1.81,0,0,1,0-.25,2.51,2.51,0,0,1,0-.3l.07-.59s-.35.3-.46.38a2.16,2.16,0,0,1-1,.45.86.86,0,0,1-.49-.06c-.81-.44-.33-1.05-.66-2a1.84,1.84,0,0,1,.36.58,3.83,3.83,0,0,0,.1-.58,1.93,1.93,0,0,0,0-.61,1.86,1.86,0,0,0-.11-.3l.29.35a1.73,1.73,0,0,0-.69-1.52,1.21,1.21,0,0,1,.36.18c0-.26-.15-.35-.27-.77a2.42,2.42,0,0,1,.09-1.77,2.34,2.34,0,0,1,.44-.45l.3-.19a.76.76,0,0,1,.73-.05c.55.24.3,1.5.38,2.18a1.27,1.27,0,0,0,.21.56c.08.13.1.11.21.27-.39,0-.58-.69-.58-.69s-.16.17-.17.32,0,.16-.1.45a2.19,2.19,0,0,0-.13.52.79.79,0,0,1-.06-.67,2.57,2.57,0,0,1,0-.67c.13-.34.37-.29.36-.49a2.75,2.75,0,0,0-.06-.49c-.11.48-.55.18-.68.6,0-.08,0-.14.06-.28s.19-.13.28-.23c.25-.3.4-.8.11-1.07a.57.57,0,0,0-.61,0,1,1,0,0,0-.31.24,1.82,1.82,0,0,0-.22,1.8c0,.09.29.92.32,1s.15.62.19.86a3.84,3.84,0,0,1-.09,1c-.07.37-.52,1.23-.14,1.64a.82.82,0,0,0,.85.13,2.12,2.12,0,0,0,1-.76,8.82,8.82,0,0,1,.7-.65,4,4,0,0,0,.46-.54,3.4,3.4,0,0,0,.29-.48.69.69,0,0,0,0-.5l-.27.16c0-.2-.14-.19-.22-.52a1.7,1.7,0,0,1,.05-.75l-.33.23a3,3,0,0,1,0-.52,1.68,1.68,0,0,1,0-.33l0-.23-.34.08c0-.12.07-.26.06-.34v-.19a.32.32,0,0,1,.13-.29.63.63,0,0,0,.16-.53.18.18,0,0,1-.08.07.24.24,0,0,1-.11,0s.06-.12.08-.14a.63.63,0,0,0,.08-.26.49.49,0,0,1,0-.13l.06-.07c.11-.09,0-.17,0-.24l-.06-.18a.47.47,0,0,1,0-.29c0,.09.06.11.12.13s.09.09.14.11.08.07.12.08a.17.17,0,0,0,.12-.06.73.73,0,0,1,.39-.15,5.45,5.45,0,0,1,.7,0,1.33,1.33,0,0,1,.2,0,.16.16,0,0,0,0,.09c0,.06,0,.2.22.21h.1a.76.76,0,0,1,0,.15l0,.09a.29.29,0,0,0-.22-.11h0c-.08,0-.33,0-.37.56a.8.8,0,0,0,.1.52.26.26,0,0,0,.21.11.3.3,0,0,0,.2-.06l0,0s0,0,0,.05a.79.79,0,0,1-.07.22.31.31,0,0,0-.26-.17l-.23,0-.13.06v.26a.46.46,0,0,0,.19.34.72.72,0,0,0,.38.22.58.58,0,0,0,.27,0l0,.07a.41.41,0,0,0,0,.17.2.2,0,0,0,.19.2c.27,0,.26-.09.45-.09s.24,0,.3.08a.38.38,0,0,0,.23.16.61.61,0,0,0,.32-.15A1.17,1.17,0,0,1,128,24l.07,0,.12,0h0c.26-.06.51-.15.53-.41s0-.13-.09-.22a.8.8,0,0,1-.08-.28s.08,0,.12-.06a.17.17,0,0,0,.05-.1s.09.13.14.13l.35,0s0,.13,0,.16.1.17.11.19a1,1,0,0,0-.07.25c0,.13.13,0,.18,0h0l.05,0s0,.06.09.08a.19.19,0,0,0-.14.16.23.23,0,0,0,0,.12s-.07,0-.14,0l-.09,0a.83.83,0,0,0-.25-.06h-.06a.24.24,0,0,0-.19.1.37.37,0,0,0,0,.22.28.28,0,0,0,.11.18l.08,0a.28.28,0,0,0,0,.17s0,0-.13,0l-.05,0s0,.06-.09.06-.06-.21-.26-.21l-.07,0-.09.06,0,0a.4.4,0,0,0-.1.26.38.38,0,0,0,0,.2c-.06,0-.23-.1-.31-.13l-.17-.07,0,.2a.46.46,0,0,0,.08.25l-.21-.06a1.91,1.91,0,0,1-.26-.09l-.16,0a.18.18,0,0,0-.18.11.45.45,0,0,0,.11.31,1.9,1.9,0,0,0,.52.49,3.23,3.23,0,0,1,.48.36,2.54,2.54,0,0,1,.2.24.43.43,0,0,0,.29.16h.13c.09,0,.11-.09.14-.18l0,0v0c0-.08.08-.19.12-.2a.4.4,0,0,1,.07.09l0,.05,0,0h.08a.18.18,0,0,0,0,.09l.08.11v.12a.34.34,0,0,1,.12.06l-.05.06.12.12a.1.1,0,0,0-.08.05c-.06.06,0,.1,0,.13a.35.35,0,0,1,0,.07.24.24,0,0,0-.14.08.35.35,0,0,0,0,.12v.07a.34.34,0,0,1,0,.12.17.17,0,0,0-.12-.05.11.11,0,0,0-.08,0h0s0,0,0,0a.17.17,0,0,0-.06.06h0a.38.38,0,0,1-.1-.12l-.06-.17a.84.84,0,0,0-.09-.28c-.05-.09-.12-.2-.23-.2a.44.44,0,0,0-.19.07c-.1.06-.06.17,0,.26v.05l0,0c-.07,0-.08.07-.12.12a1,1,0,0,1,0-.17.68.68,0,0,1,0-.18l-.19,0h0a.13.13,0,0,1,0-.1.64.64,0,0,0,.06-.23.27.27,0,0,0-.28-.2.26.26,0,0,0-.28.22.71.71,0,0,1-.08-.25.26.26,0,0,0-.2-.24c-.1,0-.14,0-.18.09a2.44,2.44,0,0,1-.11-.42.22.22,0,0,0-.19-.15c-.08,0-.24.14-.28.25a2.3,2.3,0,0,1-.46.63,1.93,1.93,0,0,1-.48.35.25.25,0,0,0-.16.25c0,.13.27.26.33.28a4.14,4.14,0,0,1,.89.41,1.85,1.85,0,0,1,.48.46s.13.12.19.12.26-.2.28-.24v.44h.16a.58.58,0,0,0,.25-.1.19.19,0,0,1,0,.08.4.4,0,0,1-.24.15l-.2,0,.14.17a.38.38,0,0,1,0,.2h0v0l0,0a.32.32,0,0,0-.17,0h-.18l0,.21v.12a.53.53,0,0,1-.22.39l0,0c-.34.25-.53.39-.53.7a2.72,2.72,0,0,0,.27.88c.06.16.22.36.37.37a.33.33,0,0,0,.34-.14c.07-.12.14-.31.16-.32a.53.53,0,0,1,.13.06l0,0a.2.2,0,0,0-.05.14.17.17,0,0,0,0,.1h0s0,0,.1,0,.07,0,.09,0a.27.27,0,0,1,0-.07s0-.05.06,0h0s0,0,0-.08a.35.35,0,0,1,0-.13.4.4,0,0,0-.2-.08c-.14,0-.11-.09-.23,0s-.13.21-.14.27a.31.31,0,0,1-.23.15c-.07,0-.18-.13-.25-.28a2.51,2.51,0,0,1-.19-.73c0-.23.13-.32.48-.58a.66.66,0,0,0,.28-.64s.14,0,.2.06a.46.46,0,0,1,.06.23,1.24,1.24,0,0,0,.13-.44v0s0-.08,0-.12a.58.58,0,0,0,0-.12s.27-.14.33-.31a1.53,1.53,0,0,0-.06-.6.83.83,0,0,1-.16.26.41.41,0,0,1-.22.1,1.63,1.63,0,0,0,0-.45.61.61,0,0,0-.28-.29s0,.16,0,.23-.08.06-.11.1,0,.1-.07.13,0,0-.1-.07a1.9,1.9,0,0,0-.5-.4,4.09,4.09,0,0,0-1-.46c-.12,0,0-.08,0-.13a2.89,2.89,0,0,0,.51-.4,1.9,1.9,0,0,0,.46-.68c.05-.12.07-.05.09,0s0,.19,0,.34a1.2,1.2,0,0,0,.12.35c.09.14.32.13.32.13a.56.56,0,0,1-.12-.29c0-.14.11,0,.13.06s.08.15.12.24a.56.56,0,0,0,.22.22.34.34,0,0,1,0-.24.24.24,0,0,1,.22-.18c.05,0,.11,0,.11.11s-.13.12-.1.31.2.08.2.08a.89.89,0,0,0,.08.33c.07.12.25.1.25.1a.52.52,0,0,1,0-.19c0-.12.11-.06.18-.13s0-.29,0-.32.09,0,.15.12.09.29.15.42a.4.4,0,0,0,.25.24.05.05,0,0,0,.05,0l0-.09h.05s.06,0,.1.09h0a1.4,1.4,0,0,1,.1.26.46.46,0,0,0,.1-.35l0-.13a.25.25,0,0,1,0-.14h0s0-.06,0-.11.06,0,.11,0a.28.28,0,0,0,.08-.22c0-.1,0-.05.09,0a2.08,2.08,0,0,1,.18.21.57.57,0,0,0,0-.24.6.6,0,0,0-.18-.32s0,0,0-.15a.36.36,0,0,0-.22-.12.08.08,0,0,1,.07-.06.52.52,0,0,1,.17.06.58.58,0,0,0-.12-.22.25.25,0,0,0-.22-.09s-.1-.17-.21-.16a.19.19,0,0,0-.12.07,1.38,1.38,0,0,0-.14.3.14.14,0,0,0,0,.06.35.35,0,0,1-.06.09l-.05,0h0l-.06,0c-.09-.05-.18-.2-.25-.27a3.22,3.22,0,0,0-.56-.46,2.5,2.5,0,0,1-.54-.49c-.06-.08,0-.06.11,0l.34.08c.14,0,.24.13.36.14s.28-.15.28-.15l-.29-.15a.15.15,0,0,1-.07-.14,1.45,1.45,0,0,0,.35.11h.05l.12,0,.15-.06-.13-.08,0,0a.23.23,0,0,1-.07-.18.28.28,0,0,1,0-.15l0,0c.05-.06.11,0,.12.06a.41.41,0,0,0,.05.09.23.23,0,0,0,.13.06c.1,0,.13-.15.16-.14s.12.1.23.1a.51.51,0,0,0,.25-.12l-.12,0a.14.14,0,0,1-.09-.12s0-.08,0-.16-.16-.16-.21-.22,0,0,0,0a.08.08,0,0,1,0-.08l.11,0h0c.15,0,.28.09.36.09a.3.3,0,0,0,.26-.09c.09-.1,0-.18,0-.22A.17.17,0,0,1,129.83,23.8Z" fill="#fff"/><path d="M134.79,34.73a.4.4,0,0,0,.17,0,.13.13,0,0,0,.07-.06h0l-.21,0Z" fill="#fff"/><path d="M135.31,33.72l.1,0a.43.43,0,0,1-.33-.19l-.06,0,0,.19A1.28,1.28,0,0,0,135.31,33.72Z" fill="#fff"/><path d="M133.74,34.91a.55.55,0,0,1,.37-.13,1.07,1.07,0,0,0,.56-.09c-.38.05-.76.1-1.12.13a1.71,1.71,0,0,1-.27.2l.89-.08A.56.56,0,0,0,133.74,34.91Z" fill="#fff"/><path d="M126.64,34.5l.08,0,0,1-.1,0v-.26l-.44-.22-.2.17-.09,0Zm0,.63,0-.5-.39.32Z" fill="#fff"/><path d="M126.94,35.16h0a.46.46,0,0,1,.59-.28.48.48,0,0,1,.27.23l-.09,0a.35.35,0,0,0-.22-.19.35.35,0,0,0-.45.22h0a.35.35,0,0,0,.2.48.45.45,0,0,0,.28,0l.08-.21-.26-.1,0-.08.35.13-.13.34a.58.58,0,0,1-.39,0A.45.45,0,0,1,126.94,35.16Z" fill="#fff"/><path d="M128,35.07l.63.18,0,.09-.53-.15-.08.29.47.14,0,.09-.47-.14-.09.31.54.15,0,.09-.63-.18Z" fill="#fff"/><path d="M129.11,35.83h0A.46.46,0,1,1,130,36h0a.47.47,0,0,1-.54.39A.45.45,0,0,1,129.11,35.83Zm.8.13h0a.36.36,0,1,0-.7-.12h0a.37.37,0,0,0,.29.43A.36.36,0,0,0,129.91,36Z" fill="#fff"/><path d="M130.23,35.55h.11l.28.52.37-.47h.1l-.08.9h-.1l.07-.72-.37.45h0l-.28-.51-.07.72h-.1Z" fill="#fff"/><path d="M131.28,35.63h.09l.56.74v-.73h.1l0,.9h-.08l-.57-.75v.73h-.1Z" fill="#fff"/><path d="M132.23,35.64l.65,0v.1h-.55V36h.49v.09h-.5v.32l.56,0v.1h-.66Z" fill="#fff"/><path d="M133.47,35.59l.38,0a.37.37,0,0,1,.25.05.23.23,0,0,1,.07.14h0a.24.24,0,0,1-.12.23c.11,0,.2.07.21.19h0c0,.15-.1.25-.3.27l-.4,0Zm.41.36c.12,0,.2-.08.19-.18h0c0-.09-.09-.14-.22-.13l-.27,0,0,.31Zm.08.4c.13,0,.21-.08.2-.18h0c0-.1-.1-.15-.26-.13l-.28,0,0,.31Z" fill="#fff"/><path d="M134.35,36h0a.47.47,0,0,1,.38-.54.46.46,0,0,1,.53.38h0a.45.45,0,0,1-.38.53A.45.45,0,0,1,134.35,36Zm.8-.13h0a.35.35,0,0,0-.41-.3.36.36,0,0,0-.29.42h0a.37.37,0,0,0,.42.31A.34.34,0,0,0,135.15,35.82Z" fill="#fff"/><path d="M135.31,35.32l.09,0,.73.56-.18-.7.1,0,.22.88-.08,0-.74-.57.18.71-.1,0Z" fill="#fff"/><path d="M136.39,35.58l-.18-.49.1,0,.17.49a.26.26,0,0,0,.36.19.26.26,0,0,0,.16-.37l-.18-.49.1,0,.17.49a.35.35,0,0,1-.22.5A.35.35,0,0,1,136.39,35.58Z" fill="#fff"/><path d="M137.07,34.75l.09,0,.52.28.06-.58.09,0,.42.8-.09.05-.34-.65-.07.58h0l-.52-.28.34.65-.09.05Z" fill="#fff"/><path d="M136,23.14a3.09,3.09,0,0,1-.11.53l.15,0C136.06,23.4,136,23.14,136,23.14Z" fill="#fff"/><path d="M135.91,26.59a8.5,8.5,0,0,0,.21-1.15h0c0-.06,0-.11,0-.17h0a.23.23,0,0,1-.11,0,7.25,7.25,0,0,1-.25,1.4h0A.24.24,0,0,0,135.91,26.59Z" fill="#fff"/><path d="M135.26,27.94l0,0a1.25,1.25,0,0,0-.08.22l0,0a13.56,13.56,0,0,1-2.09,3,5.73,5.73,0,0,1-.86.76,9.92,9.92,0,0,1-3.28-4.05h0a.64.64,0,0,1-.06.1,10.09,10.09,0,0,0,3.38,4.11s1.47-.86,3.11-3.9c0-.08.09-.17.13-.26l0-.05S135.31,27.85,135.26,27.94Z" fill="#fff"/><path d="M136,24.86V25a.13.13,0,0,0,0-.06Z" fill="#fff"/><path d="M136.13,23.71a7.76,7.76,0,0,0-.35-1.73h-.39l0,.05c-1,0-1.65,0-2.47,0a.91.91,0,0,0-.33.09h3.12a7.75,7.75,0,0,1,.31,1.57h.13Z" fill="#fff"/><path d="M135.8,26.65l0,0a1.55,1.55,0,0,0,.09-.45,2,2,0,0,1,0-.23,2.45,2.45,0,0,1-.17.68h.07Z" fill="#fff"/><path d="M138.93,31.13a.45.45,0,0,1,.07.18,2.15,2.15,0,0,1,.38,1.19h.11A2.4,2.4,0,0,0,138.9,31,.24.24,0,0,0,138.93,31.13Z" fill="#fff"/><path d="M136.69,29.49a10.72,10.72,0,0,0-1.93-.57l0,.1a11,11,0,0,1,2,.59.22.22,0,0,1,0-.08Z" fill="#fff"/><path d="M136.92,29.7l.15.07a.31.31,0,0,1,0-.09A.25.25,0,0,0,136.92,29.7Z" fill="#fff"/><path d="M138.5,31.76h0a.49.49,0,0,1-.12.15l.21,0a2.13,2.13,0,0,1,.39,0l-.08-.11A3.22,3.22,0,0,0,138.5,31.76Z" fill="#fff"/><path d="M139.36,32.05a.14.14,0,0,1,0,.06.36.36,0,0,0,.05-.16c0-.09-.13-.2-.42-.22a.58.58,0,0,0,0,.1C139.26,31.84,139.33,31.94,139.36,32.05Z" fill="#fff"/><path d="M138.46,32.58h0c.22-.12.16-.24.16-.29l.1.27.11-.09-.12-.27c0-.05-.09-.08-.21-.06h0C138.6,32.29,138.49,32.5,138.46,32.58Z" fill="#fff"/><path d="M137.85,32.68a1.13,1.13,0,0,1-.1.12l.14,0a.27.27,0,0,1,0-.1Z" fill="#fff"/><path d="M143.46,32.93a5.8,5.8,0,0,0-1.26-.59.78.78,0,0,1,0,.09s0,0,0,.07.28.1.4.16l.64.28a3.81,3.81,0,0,0-1.84.33l-.77.42a5.71,5.71,0,0,1-1,.41.47.47,0,0,1-.63-.3l-.33-1a.65.65,0,0,0,.6.18,1.83,1.83,0,0,0,.5-.21l.19-.12a.35.35,0,0,1,.13-.14c.06,0,.07,0,.07-.11l0,0-.45.27-.26-.67,0,.1a.54.54,0,0,1-.32.28c-.35.14-.61.27-.54.48l.35,1.08a.74.74,0,0,0,.79.37,7.7,7.7,0,0,0,1.77-.84,4.68,4.68,0,0,1,2-.39C143.59,33,143.46,32.93,143.46,32.93Z" fill="#fff"/><path d="M143,31.81a1.43,1.43,0,0,0-.82.26.35.35,0,0,1,0,.13.45.45,0,0,1,0,.11,1.29,1.29,0,0,1,.49-.3,3.21,3.21,0,0,1,.71-.14s-.13-.11-.13-.11a2.52,2.52,0,0,0-1.31-.28,1.56,1.56,0,0,1-.05.16A1.78,1.78,0,0,1,143,31.81Z" fill="#fff"/><path d="M140.91,32.05l0,0,.12-.07a.89.89,0,0,0,.12-.26,1.64,1.64,0,0,0-.28.16l-.17.11A.28.28,0,0,0,140.91,32.05Z" fill="#fff"/><path d="M140.17,32.4c0,.07,0,.06-.07.11a.35.35,0,0,0-.13.14.19.19,0,0,0,0,.08.26.26,0,0,0,.06.18s.07-.15.15-.15.08,0,.08.05,0,.08,0,.1,0,0,0,.05,0,.09,0,.14,0,.07,0,.09v.18c0,.1.15.2.15.2s0-.2.08-.21.08.14.28.13a.38.38,0,0,0,.32-.23.43.43,0,0,0,0-.21.9.9,0,0,0,.26-.13.36.36,0,0,0,.16-.28l0,0s.07.15.16.15.11-.08.17-.08.08.06.08.14a.38.38,0,0,1,0,.16.33.33,0,0,0,.18-.19.91.91,0,0,0,0-.33v0s0,0,0-.07a.78.78,0,0,0,0-.09v0a.45.45,0,0,0,0-.11.35.35,0,0,0,0-.13.32.32,0,0,0-.12-.18.6.6,0,0,0-.21-.09l.06-.16a1.56,1.56,0,0,0,.05-.16,1.36,1.36,0,0,0,0-.17,3.64,3.64,0,0,0,.05-.41s.06.09.26.09a.64.64,0,0,0,.38-.18s-.26,0-.26-.14,0-.17,0-.28a1.66,1.66,0,0,0-.05-.16.5.5,0,0,0,.35-.12c.17-.14.14-.26.14-.26s-.17,0-.24-.07-.14-.24-.25-.24a.85.85,0,0,0-.23,0,.6.6,0,0,1,.13-.24.78.78,0,0,1,.18-.15.3.3,0,0,0-.24-.11c-.34,0-.61.4-.67.42s-.16.06-.33,0a.37.37,0,0,1-.23-.35,3.28,3.28,0,0,0,0-.47,1.8,1.8,0,0,0,0-.24,5,5,0,0,0,.5.28c.89.46,1.62.15,1.77-.72.06-.28,0-.59.06-.88s.15-.64.18-.95a.88.88,0,0,0-.52.45,3.66,3.66,0,0,1,0-.74,2.34,2.34,0,0,1,.14-.59c-.1,0-.18.06-.31.17a1.64,1.64,0,0,1,.1-.22,3.68,3.68,0,0,1,.27-.41,5.91,5.91,0,0,1,.52-.55,1,1,0,0,0-.46.05c.29-.79.72-1.76-.22-2.6a3.33,3.33,0,0,0-.48-.36,1,1,0,0,0-1.2.13.94.94,0,0,0-.24.58c0,.25,0,.77,0,1.17a1.29,1.29,0,0,1-.27.83c-.15.26-.13.3-.26.5a.89.89,0,0,0,.34.07c.28,0,.37-.21.48-.38a1.36,1.36,0,0,0,.1.43c.08.27.12.17.24.47a.46.46,0,0,0,.15.27c0-.17.13-.27.16-.41a.84.84,0,0,0,0-.54,1.52,1.52,0,0,1,0-.37,1.08,1.08,0,0,0-.38-.91.48.48,0,0,1,.52.52s.08-.07.08-.08a.38.38,0,0,0,.15-.43c-.05-.27-.27-.35-.46-.7s-.21-.6.05-.65.61.25.82,1-.39,1.19-.55,2.09a2.78,2.78,0,0,0,0,1.79c.2.5.46,1,.2,1.36a.65.65,0,0,1-.42.15,1.13,1.13,0,0,1-.93-.58c-.21-.24-.56-.56-.78-.77a2.65,2.65,0,0,1-.57-.61c-.18-.28-.16-.37-.16-.37a.65.65,0,0,0,.11.09l.1,0a1.45,1.45,0,0,1,0-.23c0-.29.19-.41.24-.63a1.29,1.29,0,0,0,0-.32l.11.1.11.11a1,1,0,0,1,0-.36,1.66,1.66,0,0,0,.11-.58c0-.25,0-.37,0-.37s0,0,.09,0a.17.17,0,0,0,.12,0,.22.22,0,0,0,.09,0s-.06,0-.08-.17,0-.34,0-.51a.58.58,0,0,0-.2-.45c-.13-.1-.11-.16-.11-.16a.61.61,0,0,0,.15,0,.49.49,0,0,0,.2-.08.68.68,0,0,1-.26-.27c-.09-.18-.05-.37-.14-.48s-.13-.11-.11-.16a1.29,1.29,0,0,0,.1-.33.61.61,0,0,0-.21-.48.69.69,0,0,1-.12.2c-.05,0,0,0-.11.14a.23.23,0,0,1-.14.09.73.73,0,0,0-.46-.2,2.87,2.87,0,0,0-.36-.05h-.2s0,0,0,0v0l-.22,0c-.12,0-.25,0-.34,0s-.25.06-.27.09,0,.14,0,.14.24,0,.24,0-.08,0-.14,0h-.1s0,0,0,.06a.75.75,0,0,0,0,.31A1.32,1.32,0,0,0,138,22s0,0,0,0a.61.61,0,0,1,.05-.15.23.23,0,0,1,.19-.13c.1,0,.2.11.22.42s-.08.39-.19.4a.26.26,0,0,1-.2-.14.24.24,0,0,1,0-.12.35.35,0,0,0,0,.12.67.67,0,0,0,0,.1.28.28,0,0,0-.13.25.87.87,0,0,0,.18.41l.11.16a.52.52,0,0,1,.08-.23.22.22,0,0,1,.18-.12.22.22,0,0,1,.13,0,.72.72,0,0,1,0,.17,1,1,0,0,1-.1.17.57.57,0,0,1-.38.19.43.43,0,0,1-.34-.22,1.63,1.63,0,0,0,0,.3,2.9,2.9,0,0,0,.11.27s0,0-.08,0a1,1,0,0,0-.42-.1c-.34,0-.46.23-.53.23s-.2-.18-.39-.26l-.22-.05H136l-.07,0c-.1,0-.18-.07-.18-.15s.19-.25.14-.5-.24-.19-.27-.28-.08-.16-.21-.16-.16,0-.16,0,.05,0,.05.05.06.12,0,.1a1.3,1.3,0,0,0-.3,0,.58.58,0,0,0-.44.18.87.87,0,0,1,.21,0c.07,0,.1.06.08.09s-.13.1-.13.2,0,.11,0,.14-.09,0-.12.08,0,.06-.1.07a.35.35,0,0,0-.19.15.76.76,0,0,0-.1.22.38.38,0,0,1,.18-.06c.09,0,.17,0,.17.07s-.08.12,0,.22a.28.28,0,0,0,.26.09c.08,0,.21-.09.36-.09s.19,0,.18.09-.24.07-.22.26,0,.12,0,.16a.13.13,0,0,1-.08.12l-.12,0a.46.46,0,0,0,.24.12c.11,0,.2-.1.24-.1s.06.14.16.14a.18.18,0,0,0,.17-.15c0-.07.07-.12.13-.06a.27.27,0,0,1,.06.16v0a.13.13,0,0,1,0,.06.22.22,0,0,1-.09.14l-.14.08a1.14,1.14,0,0,0,.21.07.23.23,0,0,0,.11,0h0a1.51,1.51,0,0,0,.33-.11.13.13,0,0,1-.07.14l-.28.14h0s.16.16.27.15.22-.11.36-.14l.34-.08c.11,0,.18,0,.11,0a2.08,2.08,0,0,1-.54.49,3.05,3.05,0,0,0-.55.46c-.06.06-.13.16-.2.23l-.06,0,0,0h-.07c-.12-.1-.14-.5-.34-.53s-.21.16-.21.16a.27.27,0,0,0-.23.09.58.58,0,0,0-.12.22.52.52,0,0,1,.17-.06.09.09,0,0,1,.08.06.36.36,0,0,0-.22.12c-.08.11-.05.15-.05.15a.62.62,0,0,0-.17.32.57.57,0,0,0,0,.24,2.08,2.08,0,0,1,.18-.21c.05,0,.08-.09.09,0a.32.32,0,0,0,.07.22c.05,0,.11,0,.11,0s0,.09,0,.12,0,.05,0,.14a.5.5,0,0,0,0,.3.36.36,0,0,0,.06.15l0,0a1.25,1.25,0,0,1,.08-.22v0h0c.05-.09.11-.09.13-.08l0,.05s.05.08.08.08a.44.44,0,0,0,.26-.24,3,3,0,0,1,.14-.42c.07-.12.12-.15.16-.12s0,.26,0,.32.18,0,.18.13a.35.35,0,0,1,0,.19s.18,0,.25-.1a1,1,0,0,0,.09-.33s.16.07.19-.08-.1-.26-.1-.31a.14.14,0,0,1,.12-.11.22.22,0,0,1,.21.18.28.28,0,0,1,0,.24.5.5,0,0,0,.22-.22,1.77,1.77,0,0,0,.12-.24c0-.06.15-.2.14-.06a.54.54,0,0,1-.13.29s.24,0,.32-.13a.81.81,0,0,0,.12-.35,1.85,1.85,0,0,0,0-.34c0-.06.05-.13.09,0a2,2,0,0,0,.46.68,3.33,3.33,0,0,0,.51.4c.09.05.17.12,0,.13a4.25,4.25,0,0,0-1,.46,2.08,2.08,0,0,0-.51.4s-.08.09-.1.07,0-.09-.07-.13-.1,0-.1-.1,0-.23,0-.23a.57.57,0,0,0-.28.29,1.63,1.63,0,0,0,0,.45.41.41,0,0,1-.22-.1.67.67,0,0,1-.16-.26,1.53,1.53,0,0,0-.06.6c.06.17.32.31.32.31a1.14,1.14,0,0,0,0,.24v0a.22.22,0,0,0,0,.08,1,1,0,0,0,.11.36.52.52,0,0,1,.07-.23.08.08,0,0,1,0,0,.25.25,0,0,1,.16,0,.31.31,0,0,0,0,.09.68.68,0,0,0,.28.55c.35.26.48.35.48.58a2.23,2.23,0,0,1-.19.73c-.07.15-.18.27-.25.28s-.21-.08-.22-.15,0-.22-.15-.27-.08,0-.22,0a.27.27,0,0,0-.25.16.79.79,0,0,0,0,.21.26.26,0,0,1,.12-.08c.06,0,.05,0,.06,0s-.08.09-.07.13.08.11.08.14,0,.06-.12.11-.09.33-.09.33.13-.13.19-.11.08.06.06.1,0,.07,0,.12,0,.1,0,.26a1.06,1.06,0,0,0,0,.33s.08-.18.11-.18.11.2.29.19a.32.32,0,0,0,.31-.32.45.45,0,0,0,.27-.1l.06-.06a1.13,1.13,0,0,0,.1-.12h0a.27.27,0,0,0,0,.1s.07.09.13.08.24,0,.24,0a.4.4,0,0,1-.06.2.28.28,0,0,0,.21-.21c.06-.18,0-.23,0-.32h0c0-.08.14-.29,0-.44h0c-.09-.14-.19-.09-.2-.14s0-.05.08-.09a.49.49,0,0,0,.12-.15s0,0,0,0c.07-.18,0-.22.09-.23s.06.07.13.1a.48.48,0,0,1,.14.09l0,0,.08.11v0a.58.58,0,0,1,0-.1,1.32,1.32,0,0,0,0-.29l0-.13a.45.45,0,0,0-.07-.18.24.24,0,0,1,0-.14,0,0,0,0,1,0,0c.18,0,.23.23.23.23a.35.35,0,0,0,0-.23.69.69,0,0,0-.13-.42c-.07-.07-.11-.11,0-.16s0-.12.13-.15a.12.12,0,0,1,.13,0s0-.35-.3-.33c-.13,0-.25,0-.34,0a.51.51,0,0,1-.14-.39.43.43,0,0,1,.2-.37,1.48,1.48,0,0,1,.62-.29,1,1,0,0,1,.23,0,3,3,0,0,0-.11.8,1.49,1.49,0,0,0,.13.6c0,.17-.06.21-.11.24l-.17.11s0,.29.2.31.14-.06.2-.07.05.07.06.18a.7.7,0,0,1-.05.3.84.84,0,0,0-.06.19,1,1,0,0,0,.32-.08.32.32,0,0,0,.17-.39l.08.14a.27.27,0,0,0,.26.09c.18,0,.21-.07.21-.07s-.16,0-.17-.17,0-.19.06-.2.12.11.27.1.23-.12.28-.12.2-.06.16.28a2.92,2.92,0,0,1-.13.61.89.89,0,0,1-.12.26.22.22,0,0,1-.15.1h0a.28.28,0,0,1-.18-.09c-.11-.13-.15-.36-.29-.36s-.16.1-.22.12a.33.33,0,0,0-.28.19.66.66,0,0,0,0,.3s.05-.13.14-.13.05,0,.05,0-.05.08-.05.14.05.06.08.09Zm.12-.17s0,0,0-.1a.17.17,0,0,0-.14-.17l.07,0h0a.18.18,0,0,0,.11-.07.2.2,0,0,1,.08,0l.06.11a.8.8,0,0,0,.09.14.68.68,0,0,0,.12.12.32.32,0,0,0,.24.08c.15,0,.31-.1.43-.47q0-.09.06-.21a3.93,3.93,0,0,0,.08-.46.77.77,0,0,0-.1-.47.18.18,0,0,0-.17-.08.53.53,0,0,0-.19.06.57.57,0,0,1-.23.07.19.19,0,0,1-.16-.07.25.25,0,0,0-.19-.06c-.09,0-.12.16-.11.31s.05.19.05.21a1.09,1.09,0,0,1-.18-.29c-.08-.12,0-.16-.07-.28a1,1,0,0,0-.08.33.44.44,0,0,1-.19.38c0-.09.08-.26.08-.26s0-.35-.14-.36-.13.05-.18.05h-.11l.17-.12c.11-.08.1-.15.1-.28a.34.34,0,0,0-.05-.16,2.11,2.11,0,0,1-.05-.43,3.55,3.55,0,0,1,.09-.74l0-.25-.17-.05a.72.72,0,0,0-.15,0h-.13a1.68,1.68,0,0,0-.72.32h0a.82.82,0,0,0-.31.59.78.78,0,0,0,.2.54.29.29,0,0,0,.21.07s.24-.05.25,0-.1.12-.12.14a1.29,1.29,0,0,0-.09.2c0,.12,0,.08.1.12a.57.57,0,0,1,.09.15h-.16a.13.13,0,0,0-.09,0,.28.28,0,0,0-.05.09h0a.32.32,0,0,0,.06.26.79.79,0,0,1,.09.28c-.13-.15-.14-.18-.28-.16s-.2.18-.21.23l0,.13a.28.28,0,0,1-.11.13.23.23,0,0,0-.07.11.27.27,0,0,0,0,.13h0a.25.25,0,0,0,.08.18l.06,0a.12.12,0,0,1,.05.05s0,.09,0,.19a.23.23,0,0,0,0,.13v0a.17.17,0,0,0-.13,0H138c0-.08,0-.14-.06-.2a.47.47,0,0,1,0-.09l0,0,0,0,0,0v0l-.12.18a1.34,1.34,0,0,1-.13.15.35.35,0,0,1-.17.06h-.15v.18a.19.19,0,0,1-.14.13c-.06,0-.08,0-.13-.07l0-.07s0,0-.05,0,0,0,0-.06a.53.53,0,0,0,.06-.13.48.48,0,0,0-.06-.23.19.19,0,0,0-.11-.11.2.2,0,0,0,.08-.19.19.19,0,0,0,0-.13s0-.05,0-.1a.22.22,0,0,0-.06-.14l0,0,.13-.06a3,3,0,0,1,.16.32.33.33,0,0,0,.34.14c.16,0,.31-.21.38-.37a2.71,2.71,0,0,0,.26-.88c0-.31-.18-.45-.52-.7l0,0a.49.49,0,0,1-.2-.27.27.27,0,0,1,0-.12V29.7l0-.26h-.18a.34.34,0,0,0-.2.07v0a.56.56,0,0,1,0-.21l.14-.17-.2,0a.47.47,0,0,1-.24-.15s0-.05,0-.08a.6.6,0,0,0,.26.1h.16v-.17a2.39,2.39,0,0,1,0-.27s.14.24.27.24.2-.12.2-.12a1.54,1.54,0,0,1,.48-.46,4.14,4.14,0,0,1,.88-.41c.06,0,.32-.15.33-.28a.25.25,0,0,0-.16-.25,2.14,2.14,0,0,1-.93-1c0-.11-.2-.26-.28-.25a.21.21,0,0,0-.19.15c0,.06,0,.14-.11.42,0-.14-.09-.09-.18-.09a.26.26,0,0,0-.2.24.71.71,0,0,1-.08.25.27.27,0,0,0-.29-.22c-.13,0-.26.07-.27.2a.66.66,0,0,0,.05.23s0,0,0,.1h0l-.19,0a1.3,1.3,0,0,1,0,.18l0,.17c0-.05,0-.11-.12-.12l0,0v-.05c0-.09,0-.2-.05-.26a.53.53,0,0,0-.2-.07c-.11,0-.18.11-.23.2a1.15,1.15,0,0,0-.09.28,1.09,1.09,0,0,1,0,.17.58.58,0,0,1-.1.12s0,0,0,0l-.09-.08h-.08a.21.21,0,0,0-.12.05c0-.07,0-.07,0-.12a.13.13,0,0,0,0-.07.22.22,0,0,0-.17-.2.1.1,0,0,1,0-.07s.06-.07,0-.13a.14.14,0,0,0-.09-.05l.13-.12,0-.06a.23.23,0,0,1,.12-.06v-.12l.09-.11a.41.41,0,0,0-.05-.09h.09l0-.08a.24.24,0,0,1,.08-.09s.09.13.12.22.05.16.11.19l.08,0h.13a.45.45,0,0,0,.25-.16l.21-.24a2.76,2.76,0,0,1,.48-.36,2.07,2.07,0,0,0,.52-.49.43.43,0,0,0,.1-.31.18.18,0,0,0-.17-.11l-.16,0c-.11,0-.13.06-.26.09l-.22.06a.58.58,0,0,0,.09-.25l0-.2-.16.07a2.69,2.69,0,0,1-.32.13.39.39,0,0,0,0-.2.53.53,0,0,0-.06-.19l0-.05,0-.06s0,0-.05,0a.19.19,0,0,0-.1,0l-.1,0c-.11.05-.11.18-.16.19s-.09-.08-.14-.08-.14,0-.14,0a.33.33,0,0,0,0-.17.35.35,0,0,0,.15-.12.17.17,0,0,0,0-.1v0a.37.37,0,0,0,0-.18.3.3,0,0,0-.25-.1A.83.83,0,0,0,135,24l-.1,0a.18.18,0,0,1-.14,0,.16.16,0,0,0,0-.12.18.18,0,0,0-.14-.16c.08,0,.06,0,.09-.08l.06,0h0s.17.09.18,0a1.64,1.64,0,0,0-.07-.25s.12-.14.11-.19,0-.16-.06-.16l.36,0c.05,0,.13-.1.13-.13a.41.41,0,0,0,.06.1s.11,0,.11.06a.51.51,0,0,1-.08.28c-.06.09-.09.08-.08.22s.17.3.36.36l.17.05h0l.08,0,.05,0,.07,0a1.48,1.48,0,0,1,.25.16.62.62,0,0,0,.31.15c.08,0,.19-.1.24-.16s.11-.08.3-.08.17.09.44.09a.21.21,0,0,0,.2-.2.41.41,0,0,0,0-.17l0-.07a.58.58,0,0,0,.27,0,.72.72,0,0,0,.38-.22.43.43,0,0,0,.19-.34l0-.26-.14-.06-.22,0a.27.27,0,0,0-.26.17.55.55,0,0,1-.07-.22s0-.05,0-.05l0,0a.3.3,0,0,0,.2.06.28.28,0,0,0,.22-.11.94.94,0,0,0,.1-.52c0-.53-.3-.56-.37-.56h0a.31.31,0,0,0-.22.11s0-.05,0-.09a.38.38,0,0,1,0-.15h.1c.2,0,.22-.15.21-.21a.29.29,0,0,0,0-.09,1.2,1.2,0,0,1,.19,0,5.44,5.44,0,0,1,.7,0,.79.79,0,0,1,.4.15.17.17,0,0,0,.12.06s.08-.07.12-.08.09-.09.14-.11.08,0,.11-.13a.57.57,0,0,1,0,.29l-.06.18c0,.07-.09.15,0,.24a.22.22,0,0,1,.06.07s0,.07,0,.13a.67.67,0,0,0,.09.26l.07.14a.24.24,0,0,1-.11,0,.31.31,0,0,1-.08-.07.71.71,0,0,0,.16.53.33.33,0,0,1,.14.29,1.67,1.67,0,0,1,0,.19,3.46,3.46,0,0,0,.07.34l-.34-.08,0,.23a1.68,1.68,0,0,1,0,.33,4.41,4.41,0,0,1,0,.52l-.32-.23a1.7,1.7,0,0,1,0,.75c-.08.33-.21.32-.22.52l-.27-.16a.63.63,0,0,0,0,.5,2.61,2.61,0,0,0,.28.48,4,4,0,0,0,.46.54,8.68,8.68,0,0,1,.71.65,2.12,2.12,0,0,0,1,.76.8.8,0,0,0,.84-.13c.38-.41-.07-1.27-.14-1.64a3.45,3.45,0,0,1-.08-1c0-.24.14-.66.19-.86s.29-.94.32-1a1.85,1.85,0,0,0-.22-1.8,1,1,0,0,0-.32-.24.56.56,0,0,0-.6,0c-.3.27-.14.77.11,1.07.08.1.23.15.28.23s.08.2.05.28c-.13-.42-.57-.12-.67-.6a2.5,2.5,0,0,0-.07.49c0,.2.23.15.36.49a2.2,2.2,0,0,1,0,.67c.05.31.1.38,0,.67a2.76,2.76,0,0,0-.14-.52.93.93,0,0,1-.09-.45c0-.15-.09-.18-.17-.32s-.2.74-.58.69c.11-.16.12-.14.2-.27a1.26,1.26,0,0,0,.22-.56c.08-.68-.17-1.94.37-2.18a.78.78,0,0,1,.74.05l.3.19a2.67,2.67,0,0,1,.44.45,2.52,2.52,0,0,1,.09,1.77c-.12.42-.26.51-.28.77a1.14,1.14,0,0,1,.37-.18,1.73,1.73,0,0,0-.69,1.52l.28-.35a1.37,1.37,0,0,0-.1.3,1.93,1.93,0,0,0,0,.61,3.83,3.83,0,0,0,.1.58,1.84,1.84,0,0,1,.36-.58c-.34,1,.14,1.59-.67,2a.81.81,0,0,1-.48.06,2.21,2.21,0,0,1-1-.45l-.45-.38.06.59a1.26,1.26,0,0,1,.05.3,1,1,0,0,1,0,.25,1.12,1.12,0,0,0,0,.2.7.7,0,0,0,.4.56.52.52,0,0,0,.34.09.51.51,0,0,0,.37-.21.46.46,0,0,1,.26-.23,1.37,1.37,0,0,0-.16.27l0,.26.24-.08a.53.53,0,0,1,.2,0c.08,0,.09.11.12.16a.2.2,0,0,0,.07.06.46.46,0,0,1-.23.07.93.93,0,0,1-.28,0l.13.31s0,.11.05.21a1.86,1.86,0,0,0,.08.23c-.05,0-.19-.17-.24-.22l-.18-.19s0,.33,0,.46a3.54,3.54,0,0,1-.06.47,1.6,1.6,0,0,1-.05.21c0,.07,0,.14-.06.18l0,0-.09.23h.19a.37.37,0,0,1,.15.06.25.25,0,0,1,.08.17v0a.66.66,0,0,1,0,.1s0,.06,0,.09a.39.39,0,0,1,0,.16s-.07-.07-.11-.07h0c-.07,0-.08,0-.11,0l0,0-.1-.11a1.11,1.11,0,0,0-.13-.12.87.87,0,0,1-.23.42.68.68,0,0,1-.2.11l-.12,0,0,.14a.31.31,0,0,1,0,.11c0,.09-.09.1-.18.11s-.12,0-.14-.06a.2.2,0,0,0-.12-.06h0v0a.24.24,0,0,0,0-.1.32.32,0,0,0,0-.14.15.15,0,0,0-.05-.12s0-.1,0-.15a.17.17,0,0,0-.1-.07.16.16,0,0,0,.05-.16h0a.35.35,0,0,0-.07-.15Z" fill="#fff"/><path d="M137,22.33a.41.41,0,0,1,0-.46c-.22,0-.44.15-.4.51a.45.45,0,0,0,.43.44c.62,0,.8-.74,1.29-.67C137.85,21.88,137.24,22.67,137,22.33Zm0,.36a.32.32,0,0,1-.31-.29.5.5,0,0,1,0-.22.24.24,0,0,1,.09-.11.51.51,0,0,0,.07.38.34.34,0,0,0,.28.1,1,1,0,0,0,.41-.15h0A.89.89,0,0,1,137,22.69Z" fill="#fff"/><path d="M138.64,21.19a2.12,2.12,0,0,1,.46,0,1.08,1.08,0,0,1,.27.05c.13.05.21.09.15.11-.29.06-.23.22-.54.22S138.56,21.21,138.64,21.19Z" fill="#fff"/><path d="M127.24,21.87a.41.41,0,0,1,0,.46c-.25.34-.86-.45-1.35-.18.49-.07.68.67,1.29.67a.45.45,0,0,0,.44-.44C127.68,22,127.47,21.85,127.24,21.87Zm.29.53a.32.32,0,0,1-.31.29.89.89,0,0,1-.58-.3h0a1,1,0,0,0,.42.15.35.35,0,0,0,.28-.1.51.51,0,0,0,.07-.38.23.23,0,0,1,.08.11A.39.39,0,0,1,127.53,22.4Z" fill="#fff"/><path d="M125.61,21.19a2.09,2.09,0,0,0-.46,0,1.17,1.17,0,0,0-.27.05c-.13.05-.2.09-.14.11.28.06.22.22.54.22S125.69,21.21,125.61,21.19Z" fill="#fff"/><path d="M132.29,22.53a.24.24,0,0,0,.15-.14.39.39,0,0,1-.09-.07l-.17.24Z" fill="#fff"/><path d="M130.28,22.47a.21.21,0,0,0,.13.05.25.25,0,0,0,.15-.06Z" fill="#fff"/><path d="M138.35,12.79l-.19-.13a1.13,1.13,0,0,0-.26,0c0,.22.1.43,0,.59s-.21.09-.39.13c-.56.16-.82.27-1,.86-.08,0-.21-.05-.29-.1s-.12-.18-.18-.26h-.13c0,.31,0,.56,0,.85s-.11.07-.24.13,0,.06,0,.07a.45.45,0,0,0-.24.21,1,1,0,0,0-.15.2.52.52,0,0,0,0,.24c.21,0,.38-.13.52.08a.6.6,0,0,1,0,.51c-.09.22-.51.58-.82.43-.07,0-.1-.1-.14-.16s-.06,0-.07,0a.53.53,0,0,1,0-.25c.29,0,.39,0,.45-.24.08,0-.06-.29-.08-.31s-.46-.06-.62-.17a1.48,1.48,0,0,0,.24-1c0-.18-.16-.36-.22-.54,0,0,0,0,.08,0,.23.2.13.33.32-.07s.21-.54.33-.82a.84.84,0,0,0,.07-.18c-.26,0-.41.29-.6.4s-.19,0-.3.09c-.32.16-.36.14,0,.35-.18,0-.4-.21-.6-.28a1.2,1.2,0,0,1,.73-.13c.14-.49.27-.67.73-.82,0-.27-.23-.27-.25-.51,0-.44.37-.76.51-1.07-.19.06-.26.18-.4.27-.3.19-.58.32-.88.52-.1.06-.21.18-.31.23a1.89,1.89,0,0,1-.35.13c-.09,0-.18,0-.24,0s0,.25,0,.32a3.14,3.14,0,0,0-.31.32l-.13.18c-.18.26.11-.38.12-.39s0-.25,0-.34,0,0,.06,0a1.65,1.65,0,0,1,.31-.2c.2-.05.35,0,.5-.06s.15-.35.41-.46c0,0,.07,0,.07,0a.33.33,0,0,0-.07.18c.21-.07.22-.16.32-.33s.3-.44.18-.42-.59.45-.71.52a5.44,5.44,0,0,1-1,.33s0,.06-.05.07c-.23.09-.24-.37-.3-.53a1.6,1.6,0,0,0-.16-.23c-.06,0,0,.32-.14.43-.36-.12-.28.08-.42.13s-.26,0-.4,0a1,1,0,0,0,0,.28c-.2.09-.24.19-.41.27,0-.06,0,0,0-.1-.07.2-.15.32-.23.5a1.29,1.29,0,0,1,.48,0c-.17-.22-.11-.3.15-.42a.19.19,0,0,0,0,.2l.08.06c.17,0,.24-.07.37,0s0,.09,0,.15a1.41,1.41,0,0,0-.28,1.66c.13.23.49.23.32.69,0,0-.06.26-.12.27s-.16,0-.23,0a1.13,1.13,0,0,0-.22.11.89.89,0,0,0-.68-.56,1.38,1.38,0,0,0,0-.54,2.36,2.36,0,0,1,0-.39c-.21,0-.17.18-.3.26s-.21.06-.29.1a.89.89,0,0,0-.48-.66s-.09-.09-.11-.09c-.25-.08-.45-.07-.68-.15-.08,0-.08-.08-.13-.15s0-.33,0-.53a1,1,0,0,0-.25,0,.72.72,0,0,0-.24.22.61.61,0,0,0-.1.49.86.86,0,0,0,.39.61,1,1,0,0,0,0,.83c.1.34.37.48.8.48,0-.21-.12-.11-.19-.25s0-.11,0-.14.11-.14.2-.13.33.36.38.57,0,.46-.32.38c0,0-.11-.1-.15-.12a.64.64,0,0,0-.41,0c.09.39.12.89.41,1.08a2,2,0,0,0,.42.2c.14,0,.24,0,.37,0s0,.06,0,.06c.41.19.47.47.22.86,0,0,0,.06.05.06a6.77,6.77,0,0,0-.85.43l0,.05-.06.08c.17,0,.6,0,.4.21l-.13.12c-.39.23-1.17.16-1.3-.25s.15-.48.4-.39a.63.63,0,0,0,.14,0,.49.49,0,0,0,.16-.31.52.52,0,0,0-.72-.59s0-.09,0-.07c0-.35,0-.68-.35-.46l-.15.1c0-.22-.17-.36-.06-.59,0,0,0-.08,0-.1a.4.4,0,0,0-.32.13,1.28,1.28,0,0,0-.19,1,2.31,2.31,0,0,0-.55-.08,1.88,1.88,0,0,0,.12.79.62.62,0,0,0-.45.06c-.13.06-.28,0-.31.2s.13.15.18.23.09.25.18.33a1.54,1.54,0,0,0,.56.19c-.3.21-.37.63-.89.63,0,.32.36.36.7.36a4,4,0,0,0-.15.4,2,2,0,0,0,.17,1.27c0,.23-.13.35-.09.53.44-.05.79-.64.79-.64a5,5,0,0,0,.41-.92c0,.06,0,.11.1.18a.75.75,0,0,0,.13.18.48.48,0,0,0,.19.11,1.54,1.54,0,0,1,.18-.51c.07-.09.07,0,.11.05.12.25,0,.32,0,.6a.81.81,0,0,0,.71-.46c.11-.37,0-.49.28-.69,0,0,.1-.1.15-.1s.15.06.21.1c.38.26-.13.71.06,1.19,0,.1,0,.16.11.22-.15.22-.35.53-.47.75l-.07.14h0c-.07.15-.39.6.19.44a2,2,0,0,1,.46-.1h.28a1.89,1.89,0,0,1,.51.07c.58.18.6.36.63.4s.07.15.17.14.1-.15.16-.25a2.17,2.17,0,0,1,.15-.26l.17-.24a.81.81,0,0,1,.16-.16l.06,0a.91.91,0,0,1,.33-.09c.82,0,1.48,0,2.47,0l0-.05,0-.08a2,2,0,0,0-.06-.33c0-.11,0-.23,0-.34-.07-.45-.51-.66-.9-.77a7.53,7.53,0,0,1,.19-1.3,2.83,2.83,0,0,1,.08-.62c.08.06.27.12.34.21s0,.18.09.25l.13-.05c-.05.23-.16.31-.16.6.12,0,.14,0,.18-.09a1.51,1.51,0,0,1,.11-.22c.14-.19.07.05.13.18s.54.29.13.58c-.14.09-.64,0-.34.31a.7.7,0,0,0,.59.11.67.67,0,0,0,.21.66.54.54,0,0,0,.3.1,1.34,1.34,0,0,0,.36,0,.51.51,0,0,1,.67.33c.15,0,.12-.06.1-.18,0-.29,0-.44-.19-.57s-.1,0-.18-.07a.52.52,0,0,0,.34-.46c-.39-.09-.69,0-.77-.48,0-.17.07-.27.09-.37a1.22,1.22,0,0,0-.24-1.14c-.15-.15.07-.24.31-.24a1.39,1.39,0,0,0,0-.17h-.05a.45.45,0,0,0-.14-.19c-.17-.11-.57,0-.52-.35s.28-.33.52-.37a1.11,1.11,0,0,0,1-.73c0-.21.06-.41.1-.59a1,1,0,0,0-.36,0c-.18,0-.37.4-.53-.07a.78.78,0,0,0,0-.09,1.26,1.26,0,0,1,.21-.5c.25-.29.58.12.17.27a.56.56,0,0,1,0,.13,1.71,1.71,0,0,0,.32,0,1,1,0,0,0,.47-1.31,2,2,0,0,0,.3-.27c.05-.07,0-.14,0-.24S138.55,13,138.35,12.79Zm-4.65-1s0-.05.05-.06c.22-.08-.12.15-.12.15a1.64,1.64,0,0,1-.27-.05A.94.94,0,0,0,133.7,11.74Zm-.69.2s0,0,.05,0l.11-.05C133.33,11.81,132.9,12,133,11.94Zm-3.21,6.2c-.08,0-.08-.06,0-.08S129.8,18.14,129.8,18.14ZM134.26,16a.7.7,0,0,1-.21-.21,1.41,1.41,0,0,1,0-.18h.15s.08-.06.09,0C134.45,15.58,134.64,16.12,134.26,16Zm-.92-.64a1.28,1.28,0,0,1-.24.11c-.08,0-.17-.11-.24-.13s-.1,0-.14,0,0-.08-.07-.11a.86.86,0,0,0-.14-.13,1.92,1.92,0,0,0,.18-.51,5.38,5.38,0,0,0,.54-.13.36.36,0,0,1,.19,0A.92.92,0,0,0,133.34,15.37Zm-.3.57c-.33.07-.81-.42-.39-.46C132.87,15.46,133.34,15.89,133,15.94Zm-.4-1.7a.83.83,0,0,1,.45-.25c.15.24.14.29-.15.38,0-.17,0-.21-.14-.23,0,0,0,.15,0,.21S132.36,14.57,132.64,14.24Zm1,.1-.31,0a.7.7,0,0,0,0-.38C133.57,14,133.75,14.05,133.62,14.34Zm.12.32c-.11,0-.21-.05-.09-.06S133.72,14.65,133.74,14.66Zm-.22.17h.13c0,.2,0,.13-.15.23s0,.08,0,.11S133.34,14.87,133.52,14.83Zm.08.46c.05-.1,0-.1.1-.15s.08.07.09.1c.1.32-.21.09-.25.06Zm.14-.89h0v-.28C134,14.25,134,14.58,133.74,14.4Zm.13.4c0,.07.1.14.07.26S133.83,15,133.87,14.8Zm.16.42c.08,0-.06.17-.08.18S134,15.23,134,15.22Zm0-.61a1.34,1.34,0,0,1,.07-.18l.08.12,0,0C134.05,14.71,134,14.61,134,14.61Zm.42-1.06c.1-.05.18,0,.27-.1s.16-.19.23-.21,0,0,0,.06-.11.11-.13.15-.09.28-.16.41a1.07,1.07,0,0,0-.27-.25S134.41,13.55,134.42,13.55Zm0,.26.07-.07s-.05.11-.1.14S134.37,13.81,134.37,13.81Zm-1-1.56a2.63,2.63,0,0,0,.89-.38s.1-.08.1-.08,0,0,0,.05v.07h-.08a.24.24,0,0,0-.12.29c-.14.05-.17,0-.2.18s-.13.06-.16.17c-.25-.12-.13,0-.26.1a.56.56,0,0,0-.23-.07A1,1,0,0,0,133.38,12.25Zm-.18.48a.27.27,0,0,1,.13-.13C133.41,12.57,133.06,13,133.2,12.73ZM133,13c.05,0,.17.07.25,0a1,1,0,0,1,.25-.21c0,.14.06.34.1.48.11-.09-.06-.55.17-.53s.23.09.42.21.11,0,.07-.06a.78.78,0,0,0-.21-.26V12.6c.18,0,.16-.07.12-.22a1.66,1.66,0,0,1,.67-.08s0-.06,0-.06a2.74,2.74,0,0,0-.39-.09c0-.18.13-.08.16-.18s0-.13,0-.18a1.21,1.21,0,0,1,.29-.31l0,0s0,.05,0,.08a.79.79,0,0,0-.06.66l.08.21a1.44,1.44,0,0,0-.64.75.87.87,0,0,0-.63.14s-.08.11-.14.13-.21,0-.31,0a2,2,0,0,0-.32.11A.77.77,0,0,1,133,13Zm-1-.28a1.05,1.05,0,0,0,.26.13,2.72,2.72,0,0,0-.11.25C131.65,13.09,131.8,12.88,131.93,12.71Zm.24-.41c.17.08.19.44,0,.33S132.15,12.45,132.17,12.3Zm-.49.84c.07.1.37,0,.35.19S131.52,13.62,131.68,13.14Zm0,.62v-.11l.27,0a.69.69,0,0,1,0,.2C131.84,13.87,131.77,13.91,131.69,13.76ZM132,14H132C131.94,14.28,131.81,14.07,132,14Zm0,1.28v0c0-.15.17-.29.2-.41s0-.48,0-.49,0-.07,0-.07c.1-.26-.06-.51,0-.8s.26-.55.32-.84c0-.1,0-.22,0-.31s.21,0,.16-.38h-.07c0,.09,0,.15-.11.2s0,0,0,0a.15.15,0,0,1-.1,0s-.05-.07-.08-.08c-.19-.06-.3.2-.56.07s0-.19.13-.15.21.13.17-.1a1.46,1.46,0,0,0-.27-.08v-.13c.18.05.26.1.42,0a.36.36,0,0,0,.14.16s.05,0,.07,0a.2.2,0,0,0,.08,0c.18-.16-.14-.13-.23-.1a.75.75,0,0,1,.2-.1l.17-.05c0,.19.22.34.26.49a1.16,1.16,0,0,1-.13.72s-.06,0-.06,0a4.63,4.63,0,0,0,.09.92c.05.15.18,0,.24,0,1-.43,2.07.88,1.27,1.67a.85.85,0,0,0,.1-.64,1,1,0,0,0-.84-.92,1.17,1.17,0,0,0-1.15.51c0,.17.09.19.06.31s-.22.25-.25.35,0,.15,0,.2-.1.08-.13.16h-.19A.78.78,0,0,1,132,15.29Zm.36-.25c.05.16.22.25,0,.35C132.41,15.29,132.36,15.22,132.32,15Zm-.48.92c.1,0,.19.16.32.18.29.05.45-.1.69,0a1.27,1.27,0,0,0-.47,1.18c.22,0,.24-.11.42-.15a2.23,2.23,0,0,0,0,.69s0,0-.06-.11c-.76,0-1.58,0-2.31,0a2.44,2.44,0,0,1,.06-.26,3.83,3.83,0,0,1,.22-.56,1.62,1.62,0,0,1,.55-.61c.05,0,.09-.13.15-.16s.1,0,.17,0S131.77,16,131.84,16Zm.86,1.87c0,.5-.11.37-.08,0Zm-.19,0c0,.5-.11.37-.08,0Zm-.19,0c0,.5-.11.37-.08,0Zm-.19,0c0,.5-.11.37-.09,0Zm-.2,0c0,.46-.1.34-.08,0Zm-.19,0c0,.46-.11.34-.08,0Zm-.19,0c0,.46-.11.34-.08,0Zm-.2,0c0,.46-.1.34-.08,0Zm-.19,0c0,.46-.1.34-.08,0Zm-.19,0c0,.46-.11.34-.08,0Zm-.19,0c0,.46-.11.34-.08,0Zm-.19,0c0,.46-.11.34-.09,0Zm1.12-2.69s0,.09,0,.11S131.61,15.19,131.71,15.14Zm-.44.34c.26-.09.6.36.29.43S131.05,15.57,131.27,15.48Zm-.11.63s0,.06,0,.06c-.21,0-.45-.61-.08-.78,0,0,0-.07.05-.07h.07a.58.58,0,0,0-.12.46C131.06,16,131.34,16,131.16,16.11Zm-2.08-.17a.94.94,0,0,1-.05-.42,2.19,2.19,0,0,0,.3.16c.44.11.63-.44.45-.82l-.06-.13a.58.58,0,0,0-.24-.25c-.15-.08-.48-.08-.53.09a1.46,1.46,0,0,0,0,.29c-.06,0-.12-.08-.17-.13a.78.78,0,0,1-.2-.67c0-.15.18-.17.2-.38a.76.76,0,0,1-.39-.25.6.6,0,0,1,.1-.75c0,.24.11.58.32.64s.19,0,.3,0,0,.06,0,.07.2,0,.31,0a1.26,1.26,0,0,1,.27.2.47.47,0,0,1,.19.18c.08.16,0,.35,0,.54.19,0,.21-.18.37-.23s.14,0,.21,0l.1-.09a1.67,1.67,0,0,1,0,.5c0,.09-.1.1-.1.28a.68.68,0,0,1,.69.36c-.16,0-.42.09-.47.23a1,1,0,0,0,.23.93l-.07.1a5.28,5.28,0,0,0-.35.56c0-.06,0-.1-.06-.15C130.11,16.35,129.33,16.67,129.08,15.94Zm1.23,1.87.08,0C130.39,18.29,130.29,18.17,130.31,17.81Zm-.14.09a.4.4,0,0,1,0,.16C130.17,18.26,130,18,130.17,17.9ZM130,18l0,0C130,18.23,129.88,18.16,130,18Zm.21,2.71c.05-.25.22-.41.16-.74a.5.5,0,0,0-.74-.36c-.34.14-.27.54-.43.85a.63.63,0,0,1-.28.28,1.09,1.09,0,0,0-.09-.54s-.09-.08-.1-.12a2,2,0,0,0,0-.28h-.13c-.05.17-.16.89-.37.59A.65.65,0,0,1,128,20h-.12c-.08.24-.23.71-.38,1.05a1.91,1.91,0,0,1-.61.73.42.42,0,0,0,0-.1.48.48,0,0,0,0-.5s0,0,0,0,0-.13,0-.16,0,0,0,0a1.42,1.42,0,0,1,.27-1.33c.09-.09.18-.17.18-.28-.37,0-.4.32-.85.07l.11,0c.06,0,.07-.06.11-.08s.08,0,.11,0l.09-.08c.12-.15.26-.4.44-.47s.37,0,.57,0a.56.56,0,0,1,0-.13c-.42-.18-1.09,0-1.32-.35-.05-.09-.06-.17-.11-.26l-.08-.06c.37-.24.52,0,.86-.12-.05-.25-.28-.37-.32-.64s.41,0,.45.05.12,0,.16,0a1.72,1.72,0,0,1,.1-1,3.76,3.76,0,0,0,.13.4c0,.26,0,.4.24.14a.76.76,0,0,1,.17-.13s0,0,0,0,.05,0,.05,0a2.81,2.81,0,0,1,0,.29c0,.06-.36.49,0,.35.19-.08.39-.19.58-.05s.12.14.14.31c.06-.05,0,.21-.06.25a.7.7,0,0,0-.55,0s0,.14-.06.19a.65.65,0,0,0,.48.83,1.49,1.49,0,0,0,1.32-.34,2.1,2.1,0,0,1,.37.31c.26.25.63.87.4,1.33-.07.13-.25.22-.35.33s-.08.1-.18.18Zm.85-.84,0,0c0,.18.09.32.11.5a2.3,2.3,0,0,0-.74.56c-.08.1-.22.16-.14,0C130.47,20.46,131,20.49,131,19.85Zm1.55,2.06v-.05h.1v.05Zm.29,0v-.28H133v.28Zm.27,0v-.52h.11v.52Zm.28,0V21.2h.11v.71Zm.27,0v-.86h.11v.86Zm.28,0v-1h.11v1Zm.27,0v-.86h.11v.86Zm.57-.52h.11v.52h-.11Zm-.28-.19h.11v.71h-.11Zm0-.53a.65.65,0,0,0-.37.1,4.13,4.13,0,0,0-1,.57c-.22.2-.46.41-.68.64l-.12.14-.07.09h0a3.59,3.59,0,0,1-.4.59l-.07-.06a2.52,2.52,0,0,0-1.13-.43h-.41l-.56.11a3.07,3.07,0,0,1,.17-.31l.09-.14.13-.23a4.15,4.15,0,0,1,1.11-1.21h.08a4.24,4.24,0,0,1,.09,1c.24-.06.37-.26.56-.36a4.49,4.49,0,0,1,2.41-.63Zm-.19-.23a4.61,4.61,0,0,0-1.27.15,4.43,4.43,0,0,0-.88.34c-.26.15-.41.22-.64.33,0-.09-.07-.18-.08-.25s0-.33,0-.54a3.61,3.61,0,0,0-.89-1.85,1,1,0,0,0-.41-.31H133c0-.17-.09-.27-.13-.41,0,0,0,0,0,.05a.85.85,0,0,0,.29.23.49.49,0,0,1,.13-.5s0,0,0,0a1.92,1.92,0,0,0-.06.62c0,.17.26.51.37.2a1,1,0,0,1,.19-.35c0-.05.11-.08.14-.13,0,.45.17.84.55.89A12.14,12.14,0,0,1,134.29,20.44Zm2.42-1.85c.19.49-.24,1,0,1.52,0,0,.07,0,.08,0s.08.14.15.17.47,0,.3.11-.37,0-.59,0v.16a.73.73,0,0,1,.09.1,3.43,3.43,0,0,0,.39.12.42.42,0,0,1,.29.26c-.54-.24-1.07.19-1.32-.41a.49.49,0,0,1,0-.41s.1-.06.12-.1,0-.18-.15-.13-.17.34-.59.21c.29,0,.72-.39.43-.75-.06-.07-.23-.12-.24-.23s.22-.12.24-.36a1.15,1.15,0,0,0-.46.1,2,2,0,0,0,0-.23s-.06,0-.06-.05a5.75,5.75,0,0,1,0-.58,1.17,1.17,0,0,1,.26,0s.12.09.17.09c.21,0,.44-.08.6,0s.08.1.11.13A.79.79,0,0,1,136.71,18.59Zm1.16-4.71c0,.13,0,.12.08.19a.65.65,0,0,1,.1.53,2.1,2.1,0,0,1-.13.26.53.53,0,0,1-.25.18c0-.32-.07-.5-.44-.41s-.68,1.43.06,1.25c.14,0,.4-.39.32.11a.94.94,0,0,1-.66.71c-.23.06-.41,0-.59.13s-.42.67-.13.8c.12.06.59.09.4.22a2.35,2.35,0,0,1-.32.23c-.32.15-.73-.09-.94-.17l-.16,0c-.26,0,0,.33.06.38a.57.57,0,0,1-.05.34,1,1,0,0,1-.37-.21c-.1-.16,0-.43-.25-.48,0,.15,0,.24,0,.41s-.16.22-.2.36c-.33-.17-.28-.58-.35-1a.5.5,0,0,0-.16,0c0,.12,0,.21-.06.29s-.14.13-.2.2-.09.21-.17.3c-.16-.34.09-.78,0-1.15h-.1c-.08.26-.28.31-.28.64a.65.65,0,0,1-.13-.23,1.27,1.27,0,0,1,0-.59s.09-.08.1-.12-.07-.21-.13-.16-.45.48-.39.08a1.4,1.4,0,0,1,.13-.36,1,1,0,0,1,.14-.15,2.06,2.06,0,0,1,.41-.3s0-.06,0-.06a.83.83,0,0,0,.66.2s.12-.1.14-.1.29.06.45.06a.62.62,0,0,0,.85.59s0-.06,0-.06a.7.7,0,0,0,.5-.51c.06-.18.07-.64-.07-.74a1,1,0,0,0-.36-.1.69.69,0,0,1,.69-.36c0-.17-.07-.19-.1-.28s0-.28,0-.49c.1.08.24.08.37.15s.13.15.3.2a1.45,1.45,0,0,1,0-.55c.3-.65,1.41-.13,1.41-1.14C138.55,13.22,138.3,13.73,137.87,13.88Z" fill="#fff"/><path d="M129.56,30.53l0,0a.83.83,0,0,0-.13-.2h0S129.51,30.47,129.56,30.53Z" fill="#fff"/><path d="M128.24,32.17c-.05,0-.25-.14-.23-.27s.39-.19.58-.38.33-.4.45-.4.2.06.2.2,0,.15,0,.15,0,0,0-.07a.39.39,0,0,0-.11-.31.27.27,0,0,0-.36,0c-.09.1-.23.27-.31.34s-.5.23-.57.34a.22.22,0,0,0,0,.32,1.43,1.43,0,0,0,.25.14s.07,0,.08,0S128.29,32.2,128.24,32.17Z" fill="#fff"/><path d="M130.86,32c-.08.06-.17.08-.16.11s.06,0,.12,0,.3-.14.3-.32a.27.27,0,0,0-.24-.28,1.51,1.51,0,0,1-.4-.16c-.3-.25-.31-.43-.52-.43a.29.29,0,0,0-.27.22,2,2,0,0,0-.05.22c0,.05,0,.08,0,.08s0,0,0-.11.09-.31.21-.3.23.14.3.23a.87.87,0,0,0,.45.3c.25.06.34.09.36.22S130.86,32,130.86,32Z" fill="#fff"/><path d="M131.06,32.39c.08,0,.3,0,.3.16s-.24.36-.31.54,0,.28,0,.51a.19.19,0,0,1-.2.18c-.16,0-.19,0-.25-.09s-.11-.11-.13-.09,0,0,0,.09a.52.52,0,0,0,.35.18c.19,0,.3-.13.31-.34s0-.38.08-.55.22-.28.22-.41a.25.25,0,0,0-.28-.25c-.19,0-.34,0-.34.06S130.87,32.41,131.06,32.39Z" fill="#fff"/><path d="M128.85,33.93a.59.59,0,0,0-.09.31.2.2,0,0,0,.2.22c.25,0,.43-.13.58-.13a3.86,3.86,0,0,0,.51.09.25.25,0,0,0,.29-.27.56.56,0,0,0-.14-.33s0,0,0,0,0,.05,0,.08a.42.42,0,0,1,.12.26.18.18,0,0,1-.19.19c-.13,0-.42-.1-.53-.1-.26,0-.26.14-.57.14-.09,0-.16-.09-.16-.16a.79.79,0,0,1,.08-.26s.05-.07,0-.08S128.85,33.93,128.85,33.93Z" fill="#fff"/><path d="M129,32.38s.06,0,0-.09-.08-.23-.22-.22-.11.1-.1.17a1.85,1.85,0,0,1,0,.24c0,.15-.21.21-.21.3a.1.1,0,0,0,.11.11.48.48,0,0,0,.24-.08s.06-.05.05-.06,0,0-.06,0a.28.28,0,0,1-.19.08c-.08,0-.08,0-.08,0s.08-.09.13-.14a.25.25,0,0,0,.1-.16.77.77,0,0,0,0-.22q0-.12,0-.12c.08,0,.09,0,.11.08S129,32.37,129,32.38Z" fill="#fff"/><path d="M129.65,32.16s0,0,.08,0,.2-.11.2-.21a.15.15,0,0,0-.14-.15c-.09,0-.19.16-.3.16s-.22-.09-.3-.09a.13.13,0,0,0-.12.11c0,.06.1.15.17.2s.09.1.11.08,0,0,0-.08-.17-.14-.17-.19a0,0,0,0,1,.05-.06.65.65,0,0,1,.15.09.31.31,0,0,0,.28,0c.06,0,.13-.12.18-.13a.07.07,0,0,1,.07.07c0,.07-.13.15-.18.17S129.62,32.13,129.65,32.16Z" fill="#fff"/><path d="M130.29,32.41a1.71,1.71,0,0,0,0-.32.11.11,0,0,0-.21,0,.72.72,0,0,0-.12.18s0,.08,0,.1,0,0,.06-.08.09-.22.15-.21.09,0,.06.12a.46.46,0,0,0,0,.26.26.26,0,0,0,.14.18c.07,0,.11.08.11.12s0,.06-.07.06a.31.31,0,0,1-.14-.07s0,0-.07,0,0,.06.08.09a.27.27,0,0,0,.14.05c.06,0,.14,0,.14-.11S130.31,32.55,130.29,32.41Z" fill="#fff"/><path d="M130,33s.05.06.1.06.19,0,.19.06-.06.07-.12.06a.35.35,0,0,0-.22.07.8.8,0,0,0-.13.19.09.09,0,0,1-.09.06s-.05,0,0-.09.09-.19.06-.2,0,0-.06,0-.07.17-.07.21,0,.14.09.14a.24.24,0,0,0,.2-.16.31.31,0,0,1,.21-.16c.08,0,.28,0,.28-.12s0-.14-.13-.15a1,1,0,0,1-.19,0S130,33,130,33Z" fill="#fff"/><path d="M129,33.05s0,0-.11,0-.28,0-.28.16.24.07.35.18.13.27.27.26a.14.14,0,0,0,.15-.15c0-.05,0-.17,0-.23s0-.08,0-.08,0,0,0,.11,0,.16,0,.2,0,.1-.06.1-.09-.11-.13-.17-.07-.15-.22-.17-.22,0-.23-.06.06-.08.15-.1S129.05,33.09,129,33.05Z" fill="#fff"/><path d="M130,32.48c-.16,0-.27,0-.3-.06a.75.75,0,0,1-.15-.24c0-.16-.08-.1-.1,0a.39.39,0,0,1-.11.22c-.06.08-.27.1-.37.09s-.1,0,0,.08.22.14.23.22a1,1,0,0,1-.07.32c0,.05,0,.13.09,0a.43.43,0,0,1,.28-.16.59.59,0,0,1,.34.15c.09.06.09,0,0-.1a.29.29,0,0,1,0-.3.7.7,0,0,1,.18-.18C130.12,32.52,130.21,32.48,130,32.48Zm-.78.14s0,.05-.06,0-.08,0-.08-.06.06,0,.1,0S129.21,32.59,129.21,32.62Zm.3-.39s.05.05.06.09a.05.05,0,0,1,0,0s-.05,0-.05,0S129.48,32.23,129.51,32.23Zm-.18.27a.27.27,0,0,1,.22-.08.3.3,0,0,1,.2.12c0,.05.05.1,0,.12s-.05,0-.08-.09a.22.22,0,0,0-.16-.09.38.38,0,0,0-.18.06S129.28,32.54,129.33,32.5Zm.46.28a0,0,0,0,1,0,0,0,0,0,1,1,0-.08A0,0,0,0,1,129.79,32.78Zm-.3-.19a0,0,0,0,1-.05,0,0,0,0,1,1,0-.08A0,0,0,0,1,129.49,32.59Zm-.16.43s-.08.08-.1.07,0-.08,0-.12.06,0,.08,0S129.35,33,129.33,33Zm-.05-.16a.17.17,0,0,1,0-.12c0-.07,0-.12,0-.11s0,0,0,.12,0,0,.05.08S129.31,32.88,129.28,32.86Zm.11-.07a0,0,0,0,1,0,0s0,0,0,0a0,0,0,0,1,0,0S129.41,32.79,129.39,32.79Zm0,.06s0,0,0,0,0,0,0,0a0,0,0,0,1,0,0S129.43,32.88,129.43,32.85Zm.08.14a0,0,0,0,1,0,0s0,0,0,0,.05,0,.05,0A0,0,0,0,1,129.51,33Zm0-.25a0,0,0,1,1,0-.08,0,0,0,1,1,0,.08Zm0-.19a0,0,0,1,1,.08,0,0,0,0,1,1-.08,0Zm0,.26s0,0,0,0,0,0,0,0,0,0,0,0S129.56,32.84,129.56,32.81Zm.06.16a0,0,0,1,1,0-.08,0,0,0,0,1,0,.08A0,0,0,0,1,129.62,33Zm0-.28s0,0,0,0a0,0,0,0,1,0,0,0,0,0,0,1,0,0A.05.05,0,0,1,129.64,32.69Zm.15.38a.08.08,0,0,1-.08,0s0-.06,0-.08.06,0,.08,0A.07.07,0,0,1,129.79,33.07Zm.11-.46s-.07,0-.07,0,0,0,.06,0,.07,0,.07,0A.06.06,0,0,1,129.9,32.61Z" fill="#fff"/><path d="M128.57,33.74s-.15.19-.25.18-.19-.11-.2-.28a1.3,1.3,0,0,0-.16-.53c-.1-.15-.26-.3-.26-.41a.2.2,0,0,1,.21-.18l.22,0c.05,0,.07,0,.08,0s0-.06-.08-.06-.14,0-.25,0a.25.25,0,0,0-.27.28c0,.22.28.4.34.62s.06.66.3.66a.42.42,0,0,0,.35-.21c.05,0,.06-.08,0-.1S128.57,33.74,128.57,33.74Z" fill="#fff"/><path d="M128.49,32.9a.3.3,0,0,0,.29,0,1.21,1.21,0,0,0-.33-.07Z" fill="#fff"/><path d="M128.93,33.7a.09.09,0,0,0-.06,0l.08,0Z" fill="#fff"/><path d="M127.34,32.43a.33.33,0,0,0-.06.23l0,.08a.49.49,0,0,1,.15-.34s0-.06,0-.07a.42.42,0,0,1-.07-.11s0,0,0-.07a.27.27,0,0,0,.08.17A.2.2,0,0,0,127.34,32.43Z" fill="#fff"/><path d="M127.88,34.19c.14.13.24.05.29.2s0,.16,0,.2h0s-.07.19.08.09l.08,0c.1-.06.13-.08.18-.07s.17.18.35.18.36,0,.62,0,.36,0,.53,0a.68.68,0,0,0,.26,0c.19-.09.24-.24.29-.25h0a.69.69,0,0,1,.2.07c.12,0,.16.2.16,0s0-.17,0-.27-.05-.17.11-.17a.4.4,0,0,0,.31-.19l.07-.11v0a1.12,1.12,0,0,1,0-.13l.06-.24a2.17,2.17,0,0,1,.07-.24l.06-.16a.24.24,0,0,0,0-.08.71.71,0,0,0,.08-.34.2.2,0,0,0,0-.07c0-.26-.11-.28-.1-.32a.39.39,0,0,1,.11-.21s.06-.08.09-.09.1-.1,0-.08a.39.39,0,0,1-.26-.06c-.07,0-.15,0-.15-.09a.37.37,0,0,0-.13-.38c-.19-.18-.4-.2-.59-.34s-.46-.4-.68-.42a1,1,0,0,0-.36.07s-.1-.09-.15-.15-.1-.11-.1-.15-.08-.09-.07,0a.22.22,0,0,1-.1.19c-.1.07,0,.18-.12.18a1.2,1.2,0,0,0-.23-.06.81.81,0,0,0-.43.21,2,2,0,0,1-.29.25c-.18.14-.38.27-.44.33a.51.51,0,0,0-.12.18.35.35,0,0,0,0,.13s0,.06,0,.08,0,.08,0,.09v0s0,0-.09,0-.07,0-.1,0h-.08c-.12,0-.17,0,0,.08a.17.17,0,0,1,.08.06s0,0,0,.07a.42.42,0,0,0,.07.11s0,0,0,.07a.49.49,0,0,0-.15.34h0v0a.25.25,0,0,1,0,.08v0a.7.7,0,0,0,.08.23,2.35,2.35,0,0,1,.16.32l0,0A2.33,2.33,0,0,0,127.88,34.19Zm.4.26s0-.07,0-.12.09-.08.12,0,0,0,0,.09S128.32,34.45,128.28,34.45Zm.22,0c0,.05-.1.09-.13.06s0-.06,0-.1,0-.07.07-.08S128.52,34.4,128.5,34.44Zm2-.06a.06.06,0,0,0,0,0c0,.15-.25.23-.38.23s-.3,0-.56-.06a2.33,2.33,0,0,0-.37,0,1,1,0,0,1-.38,0,.27.27,0,0,1-.16-.29.77.77,0,0,1,.12-.38.85.85,0,0,1,.14-.21.09.09,0,0,1,.06,0h0a1.62,1.62,0,0,0,.17.06h0a.27.27,0,0,1,.12,0c.06,0,.08.05.11.11s.08.05.09.13.06.07.07,0,.07-.09.09-.12,0-.08.07-.1a1.4,1.4,0,0,1,.23,0c.1,0,.17-.1.21-.1s.11.09.22.27a.77.77,0,0,1,.08.19A.68.68,0,0,1,130.47,34.38Zm-1-.65s0,0,.06,0,0,0,.09.06,0,.07,0,.1-.05.07-.07.07,0,0-.07-.07l0,0S129.4,33.77,129.43,33.73Zm1.29.68s-.07,0-.11,0-.07-.08,0-.1.06,0,.09.06S130.76,34.35,130.72,34.41Zm.07-.07s-.08-.08-.1-.11,0,0-.05-.06,0-.05,0-.07.09,0,.16.07S130.83,34.34,130.79,34.34Zm.87-1.74v0a2.43,2.43,0,0,1-.21.56v0a2.61,2.61,0,0,0-.08.37l0,.14v0a.35.35,0,0,1-.1.19.42.42,0,0,1-.32.13.49.49,0,0,1-.25-.07.74.74,0,0,1-.22-.22.78.78,0,0,1-.15-.22s0,0,.11-.12a1,1,0,0,0,.17-.23c0-.08.09,0,.12,0s.07-.05.15,0,.08,0,0-.09-.06-.09-.09-.12-.07,0-.07-.11a.9.9,0,0,0,0-.25,1,1,0,0,0,0-.18c0-.07.09-.08.17-.1a.76.76,0,0,1,.46-.09.32.32,0,0,1,.3.13h0A.47.47,0,0,1,131.66,32.6ZM130.5,33s.05,0,.09,0,0,0,.11.09,0,.06,0,.06,0,0-.09,0,0,0-.07-.07A0,0,0,0,1,130.5,33Zm1-.9a.66.66,0,0,0,.11,0s.06,0,.06,0-.07.07-.14.07S131.44,32.06,131.48,32.06Zm0-.19c.09,0,.14,0,.14.05s0,0,0,0-.05,0-.1,0l-.08,0s-.06,0-.06,0S131.44,31.86,131.52,31.87ZM130,30.66a.45.45,0,0,1,.32.13,2.87,2.87,0,0,0,.3.28.88.88,0,0,0,.24.12,2.66,2.66,0,0,1,.33.16c.19.1.2.15.2.3a.46.46,0,0,1-.14.33,1.4,1.4,0,0,1-.34.18l-.22.08s-.08-.07-.18-.21a.44.44,0,0,0-.18-.16s0-.06,0-.12,0-.06,0-.14,0-.08-.08,0-.09,0-.15.05-.05.06-.1.05-.11-.07-.2-.11-.18,0-.23,0,0-.13,0-.23a1,1,0,0,1,.08-.43A.36.36,0,0,1,130,30.66Zm.21,1.19c-.06,0-.1,0-.1,0a.14.14,0,0,1,.09-.12c.06,0,.06,0,.07,0A.11.11,0,0,1,130.19,31.85Zm-.69-1.24s.06.07.06.12,0,.11-.06.11,0-.1,0-.13a.2.2,0,0,1,0-.05S129.46,30.61,129.5,30.61Zm0,1c.38,0,.48.14.5.28s-.19.25-.22.27-.12.11,0,.18.16,0,.19-.17.07-.12.17-.21.24,0,.32.08a.82.82,0,0,1,.22.47c0,.25,0,.33-.14.38a.32.32,0,0,1-.32-.07c-.09-.07-.23-.12-.26,0s.17.13.29.13a.25.25,0,0,1,.26.18c0,.12-.16.32-.23.38a.85.85,0,0,1-.46.18c-.2,0-.22-.13-.22-.19s0-.2,0-.28,0-.14-.1-.14-.08.06-.09.14.07.14.07.29a.24.24,0,0,1-.22.2l-.13,0-.12,0h0l-.14-.08a.47.47,0,0,1-.23-.44c0-.05,0-.08.08-.11a.43.43,0,0,1,.22,0h0c.1,0,.22,0,.17-.15s-.19,0-.3.06l0,0a.3.3,0,0,1-.29,0l0-.06a.86.86,0,0,1,0-.32,1.65,1.65,0,0,1,.09-.32.31.31,0,0,1,.26-.21c.16,0,.26.21.3.35s.12.1.17.06.05-.07,0-.14-.21-.17-.23-.24a.26.26,0,0,1,0-.24A.47.47,0,0,1,129.49,31.62Zm-1,1.54a.12.12,0,0,1-.09,0s-.08,0-.08,0,0,0,.05-.06,0-.06.06-.08.08,0,.1.07A.09.09,0,0,1,128.48,33.16Zm.26-1.37v-.05s.09,0,.13,0,.06,0,.06.1-.05.1-.12.08S128.74,31.84,128.74,31.79Zm.57-1.11s0-.08.06-.07,0,.09,0,.14,0,.1,0,.09S129.3,30.73,129.31,30.68Zm-1.59,1.05c0-.23.31-.35.48-.44a3.32,3.32,0,0,0,.46-.38c.1-.09.19-.21.33-.18a.58.58,0,0,1,.42.49c0,.17,0,.13,0,.24s-.08.12-.19.14a.3.3,0,0,0-.2.1s-.1,0-.17,0a.17.17,0,0,1-.15-.05s-.1,0-.06,0,0,.06,0,.12a.28.28,0,0,0,0,.13c0,.06-.12,0-.2.2s-.06.22-.14.21-.1-.07-.29-.11a.4.4,0,0,1-.34-.35s0-.07,0-.1S127.72,31.75,127.72,31.73Zm-.12.33s0,0,.08,0,0,0,0,.06a.07.07,0,0,1-.08,0S127.59,32.08,127.6,32.06Zm0,.11,0,0h0l0,0s0,0,0,0-.09,0-.15-.06S127.52,32.16,127.56,32.17Zm0,.95a2.12,2.12,0,0,1-.11-.21s0-.08,0-.11,0-.07,0-.1a.29.29,0,0,1,.15-.26,1.12,1.12,0,0,1,.22-.09h.1a1.05,1.05,0,0,1,.44.1c.08.05,0,.15,0,.25a.28.28,0,0,0,0,.14v.07a.14.14,0,0,1,0,.07.35.35,0,0,1-.05.08s0,.08-.08.11,0,.08,0,.06.1,0,.14,0,.08,0,.12,0,.06.15.12.23.18.11.18.16a.25.25,0,0,1,0,.07,0,0,0,0,1,0,0s0,0,0,0l-.12.18a.58.58,0,0,1-.44.3c-.22,0-.33-.3-.38-.49s0-.16-.07-.24a3,3,0,0,0-.16-.35Z" fill="#fff"/><path d="M131.74,34.17l.15.06c.12.07.12.17.1.2l0,0a2.05,2.05,0,0,1,.08.19.27.27,0,0,1,.18,0,.63.63,0,0,1,.25.06.33.33,0,0,0-.11-.15.53.53,0,0,0-.2-.06.19.19,0,0,1,.11,0,.38.38,0,0,1,.15.06s0-.11-.17-.22-.17-.06-.34-.16-.16-.22-.16-.22a1.2,1.2,0,0,0,.14.12c.06,0,.08,0,.22.06a.58.58,0,0,1,.24.12,1.52,1.52,0,0,0-.18-.35c-.12-.18-.23-.18-.4-.44a.69.69,0,0,1-.1-.33l-.06.16a2.17,2.17,0,0,0-.07.24.43.43,0,0,0,.12.11l.17.12s-.14.16-.29.06l-.06,0a1.12,1.12,0,0,0,0,.13v0l.06.06.2.13-.06,0Z" fill="#fff"/><path d="M139,34.66l-.54-1.48c-.1-.22-.66-.26-1.38.08l-.05,0a.13.13,0,0,0,0-.06.45.45,0,0,0-.12-.21.11.11,0,0,1,0,.09s-.06.09-.16.2a.27.27,0,0,0-.05.13l-.1,0,0,0a1.07,1.07,0,0,0,.22-.51.5.5,0,0,1,0-.12h0a1.6,1.6,0,0,0,0-.69,1.18,1.18,0,0,0-.2-.33c0-.08-.08-.15,0-.24a1.7,1.7,0,0,1,.43-.3,3.28,3.28,0,0,1,.35-.1h0l0,0a.05.05,0,0,0,0-.08h0l0,0a.05.05,0,0,0,0-.08h0a.05.05,0,0,0,0-.08l0,0h0a.05.05,0,0,0,0-.08s0,0,0,0h0l0,0a.06.06,0,0,0,0-.08h0a.05.05,0,0,0,0-.08,0,0,0,0,0,0,0h0a.06.06,0,0,0,0-.08h-.05a.06.06,0,0,0,0-.08,0,0,0,0,0-.06,0h0a.06.06,0,0,0,0-.08,0,0,0,0,0-.06,0h0a.08.08,0,0,0,0-.08H137s0,0,0-.06,0,0-.05,0h0a.07.07,0,0,0,0-.07.08.08,0,0,0-.08,0h0a0,0,0,0,0,0,0,.06.06,0,0,0-.07,0h0a.06.06,0,0,0,0-.05.06.06,0,0,0-.08,0h0a0,0,0,0,0,0-.06.05.05,0,0,0-.08,0h0a.07.07,0,0,0,0-.06.06.06,0,0,0-.08,0h0a0,0,0,0,0,0-.05.05.05,0,0,0-.08,0h0a.06.06,0,0,0-.1,0h0a.05.05,0,0,0,0,0,.06.06,0,0,0-.08,0v0l0,0a.05.05,0,0,0-.08,0,0,0,0,0,1,0,0h0a.05.05,0,0,0,0,0,.08.08,0,0,0-.08,0v0h0l0,0a.06.06,0,0,0-.08,0s0,0,0,0l0,0a.05.05,0,0,0-.08,0s0,0,0,0h0a1.66,1.66,0,0,1,0,.42,1.16,1.16,0,0,1-.18.46s-.09.14-.16.12a2.1,2.1,0,0,0-.37,0,1.65,1.65,0,0,0-1.06.57c-.48.62-.17.78-.17.78a.78.78,0,0,0-.18.57c0,.33.58.78.58.78a2.15,2.15,0,0,1-.13.47,1.52,1.52,0,0,1-.22.38l-.05-.09a.43.43,0,0,0-.07-.07.45.45,0,0,1,0,.31,1.73,1.73,0,0,1-.22.37.35.35,0,0,1,0-.07s0,0,0,0a.86.86,0,0,1-.08.18H133a.54.54,0,0,1,0-.34,1.26,1.26,0,0,1,.28-.54l.17-.18h-.13a.6.6,0,0,0,.1-.21c0-.18-.06-.23-.06-.23a2.31,2.31,0,0,1-.16.26c-.06.1-.26.39-.42.28s0-.27,0-.33a4.76,4.76,0,0,0,.39-.39.94.94,0,0,0,.09-.19l-.16.13a.48.48,0,0,1-.16,0,.2.2,0,0,0,0-.07.12.12,0,0,0,0,0,.45.45,0,0,1-.19.13c-.12,0-.18,0-.22,0a.13.13,0,0,1,0-.18.41.41,0,0,1,.35-.15.43.43,0,0,0,.31-.11H133a.21.21,0,0,1-.08,0,.64.64,0,0,0,.36-.2c.07-.1.07-.13.07-.13a1.52,1.52,0,0,1-.21.12H133s0-.15,0-.15a.71.71,0,0,0-.17.1c-.07.07-.2.17-.25.13a.1.1,0,0,1,0-.15,1.11,1.11,0,0,1,.41-.25.65.65,0,0,0,.33-.24.68.68,0,0,0,.08-.17,1,1,0,0,1-.2.16.31.31,0,0,1-.2,0,.1.1,0,0,1,0-.14,1.51,1.51,0,0,1,.36-.27,2,2,0,0,0,.23-.14l-.2,0-.2,0a.16.16,0,0,0,.05-.07.17.17,0,0,0,0-.08.2.2,0,0,1-.15.07.29.29,0,0,0-.23.08.63.63,0,0,0-.08.11.58.58,0,0,0,0-.13.28.28,0,0,0-.06-.06.23.23,0,0,1,0,.13c0,.08-.25.19-.3.25a.68.68,0,0,0-.1.19.77.77,0,0,1-.07-.22.69.69,0,0,1,0-.19,1.21,1.21,0,0,0-.28.52,1.06,1.06,0,0,0,.06.54.41.41,0,0,1,0,.27s-.08,0-.12,0a.17.17,0,0,1-.07-.14.85.85,0,0,0,0-.13l0,0a.2.2,0,0,1,0,.07.71.71,0,0,1-.08.34l0,.12a.9.9,0,0,0,.12.23.4.4,0,0,1,0-.2.64.64,0,0,1,.06-.12,1.15,1.15,0,0,0,0,.17.61.61,0,0,0,.11.31.42.42,0,0,0,.13.14,1.81,1.81,0,0,1,0-.2c0-.13,0-.11,0-.41s0-.3-.09-.53a.39.39,0,0,1,.1-.37.68.68,0,0,0,0,.34.94.94,0,0,0,.1.22l.06-.18c0-.09,0-.22.05-.35a.62.62,0,0,1,.14-.24.66.66,0,0,0,0,.09.32.32,0,0,0,0,.13,2.9,2.9,0,0,1,.17-.26.51.51,0,0,1,.26-.16,1.13,1.13,0,0,0-.18.19,1.24,1.24,0,0,0-.11.24.58.58,0,0,1,.15-.09.81.81,0,0,1,.17,0,3.84,3.84,0,0,0-.33.26,1,1,0,0,0-.24.38.9.9,0,0,0-.05.29.85.85,0,0,1,.18-.24.68.68,0,0,1,.2-.1.11.11,0,0,0,0,0l0,.07a.72.72,0,0,1,.18-.07.58.58,0,0,1,.15,0,2.64,2.64,0,0,0-.32.16.77.77,0,0,0-.26.23.81.81,0,0,0-.1.27.64.64,0,0,0,0,.26.4.4,0,0,1,.07-.12.35.35,0,0,1,.15-.12.67.67,0,0,0-.1.17.43.43,0,0,0,0,.24,1.19,1.19,0,0,1,.16-.21,1.08,1.08,0,0,1,.29-.19,1.85,1.85,0,0,0-.18.19.8.8,0,0,0-.17.37.77.77,0,0,0,0,.37.94.94,0,0,1,0-.1.41.41,0,0,1,.1-.1,1.77,1.77,0,0,0-.07.34.27.27,0,0,0,.09.22.85.85,0,0,1,.12-.29,3.08,3.08,0,0,1,.25-.28,3.11,3.11,0,0,0-.2.41,1.24,1.24,0,0,0-.09.42h-.19a.63.63,0,0,0-.12-.1.55.55,0,0,0-.41-.08.69.69,0,0,1,0,.16,0,0,0,0,1,0,0h-.34A.42.42,0,0,0,132,35c.14,0,.29-.07.47,0l0,0h.63c.07-.06.18-.12.28-.19a1,1,0,0,0,.24-.22,2.73,2.73,0,0,0,.29-.56,1.15,1.15,0,0,1,.27-.4,1.54,1.54,0,0,0-.21.46,1.71,1.71,0,0,1-.31.57.69.69,0,0,1-.11.13,2.69,2.69,0,0,1-.27.2l.89-.08a.56.56,0,0,0-.43,0,.55.55,0,0,1,.37-.13,1.07,1.07,0,0,0,.56-.09h0c.15-.1.15-.25.28-.32l.17-.08.08,0-.07.06-.16.13-.14.21,0,.07a.4.4,0,0,0,.17,0,.13.13,0,0,0,.07-.06h0l0-.05a.18.18,0,0,1,0,.05l0,.06-.08.08a.47.47,0,0,0,.39-.08.91.91,0,0,0,.35-.38,1,1,0,0,1,.18-.27,1.72,1.72,0,0,0-.15.37.68.68,0,0,0,0,.21,1,1,0,0,0,.56-.34,1.72,1.72,0,0,0,.26-.62.24.24,0,0,1,.05.09,1.09,1.09,0,0,1,0,.22,1.37,1.37,0,0,0,.16-.22,1.42,1.42,0,0,0,.13-.28.64.64,0,0,1-.07.34,2.21,2.21,0,0,1-.16.25.37.37,0,0,0,.13,0,.63.63,0,0,0,.12-.09.61.61,0,0,1-.21.21,1.93,1.93,0,0,0-.35.23l-.15.14.06,0h0l0,0,.12,0,.06,0,.11,0h0c1.25-.44,1.62-1,1.67-1.13l.52,1.5a.68.68,0,0,1-.26.66,4.11,4.11,0,0,1-1.27.7,14.81,14.81,0,0,1-5,.77,13.27,13.27,0,0,1-6.13-1.19,1.31,1.31,0,0,1-.61-.54.51.51,0,0,1-.06-.25c0-.15.54-1.63.54-1.65,0,.24.7.86,2.2,1.29,0,0,0-.06,0-.2s-.15-.07-.29-.2a2.33,2.33,0,0,1-.3-.69l0,0c-.13-.05-.27-.1-.41-.17-.72-.33-1.22-.27-1.32-.05,0,0,0,0,0,0l-.51,1.45c0,.18-.22.74,1,1.24a11.88,11.88,0,0,0,5.79,1.14,12.6,12.6,0,0,0,6-1.1C139.19,35.46,139,34.84,139,34.66Zm-2.32-1.86a.35.35,0,0,1,0,.06.14.14,0,0,1,0,.07.48.48,0,0,1-.07.15c-.07.11-.19.2-.26.12s0-.16.12-.25.09-.08.11-.11l0,0,.12-.13Zm-1.83-1.55a.9.9,0,0,1,.4-.2l-.13.18a2,2,0,0,0-.14.22.19.19,0,0,1-.22.09S134.68,31.4,134.82,31.25Zm-.28.23c-.07.09-.23.2-.29.15s0-.18.13-.32a1.77,1.77,0,0,1,.51-.29l-.15.13C134.67,31.23,134.61,31.38,134.54,31.48Zm1.46.16a.42.42,0,0,1-.11.15.05.05,0,0,1-.09,0,.27.27,0,0,1,.1-.11l.14-.14Zm0,.12s0,0,0,.12a.58.58,0,0,1-.13.28c-.07.08-.21.13-.26.05s.14-.21.24-.28A1.65,1.65,0,0,0,136,31.76Zm-.36.14c-.09.18-.08.2-.15.32s-.23.2-.35.1,0-.24.05-.3a1.64,1.64,0,0,1,.31-.27,3.26,3.26,0,0,1,.3-.19Zm-.21.5a1.52,1.52,0,0,1-.05.24,1.23,1.23,0,0,1-.14.31l-.05.07a.59.59,0,0,1-.18.14.12.12,0,0,1-.13,0c-.08-.07,0-.21.05-.27a3,3,0,0,1,.31-.27A2,2,0,0,0,135.46,32.4Zm.3-1a.91.91,0,0,0-.06.16s0,.11-.1,0,0-.15.07-.2a.4.4,0,0,1,.13-.07Zm-.29.22c0,.05,0,.13-.09.23s-.15.12-.19.06,0-.18.08-.28a1.2,1.2,0,0,1,.31-.19Zm-.26,0c-.08.11-.08.2-.19.35s-.15.14-.21.09,0-.25.16-.44a1.12,1.12,0,0,1,.39-.25Zm-.16.55a1.71,1.71,0,0,0-.15.21c-.09.13-.13.26-.21.37s-.21.14-.28.09,0-.17.11-.35A1.57,1.57,0,0,1,135.05,32.08Zm-.63.91a3.34,3.34,0,0,1,.67-.53l-.11.22a3.76,3.76,0,0,1-.37.62c-.11.12-.26.24-.35.16S134.23,33.21,134.42,33Zm.5.32.09,0a1.88,1.88,0,0,0,.33-.23l.18-.16.12-.11,0,.1s0,.09-.07.14a1.32,1.32,0,0,1-.16.25,1,1,0,0,1-.18.18l-.1.07,0,0h0c-.19.11-.41.14-.44,0S134.77,33.39,134.92,33.31Zm.53,0a3.11,3.11,0,0,1,.33-.29l0,0,.13-.14.05-.06v.06l0,.13v0a1,1,0,0,1-.18.38c-.16.2-.3.26-.38.18S135.37,33.38,135.45,33.28Zm.51-.8c-.12.18-.28.23-.34.17a.2.2,0,0,1,0-.25c.07-.06.2-.13.33-.23a1.33,1.33,0,0,0,.22-.22s0,.08,0,.17A1.59,1.59,0,0,1,136,32.48Zm.34-.81a.26.26,0,0,1-.06.15s-.11.07-.14,0,.07-.11.12-.15a.84.84,0,0,0,.1-.1Zm0,.27.09-.11a.36.36,0,0,1,0,.11.4.4,0,0,1,0,.13s-.09.09-.14,0S136.3,32,136.34,31.94Zm-.09.34a.82.82,0,0,0,.19-.18,1.11,1.11,0,0,1,0,.21.76.76,0,0,1-.11.24c-.08.08-.18.15-.27.06S136.16,32.34,136.25,32.28Zm-.18.68a.53.53,0,0,1,.12-.14l.13-.11a1.93,1.93,0,0,0,.21-.26,1.26,1.26,0,0,1,0,.22.84.84,0,0,1-.06.14.56.56,0,0,1-.07.13h0c-.08.1-.19.25-.29.17S136,33,136.07,33Zm.63-.66a.5.5,0,0,1,0,.24c0,.11-.09.14-.12.13a.12.12,0,0,1,0-.14.62.62,0,0,0,.08-.12Zm-.16-.2,0-.13a.53.53,0,0,1,.06.25c0,.12,0,.16-.08.15s-.08-.07-.06-.13A.34.34,0,0,0,136.54,32.1Zm.76-1.2a0,0,0,0,1-.06,0s0,0,0-.05,0,0,0,0S137.31,30.89,137.3,30.9Zm.06.2a0,0,0,0,1,0,0s0,0,0-.05h0A0,0,0,0,1,137.36,31.1Zm0-.14a0,0,0,0,1,0,0s0,0,0,0a0,0,0,0,1,0-.05A0,0,0,0,1,137.36,31Zm-.05-.22s0,0,0,.06a0,0,0,0,1-.06,0,.06.06,0,0,1,0-.06S137.29,30.72,137.31,30.74Zm-.15-.21a0,0,0,0,1,.07,0,0,0,0,0,1,0,.07,0,0,0,0,1-.08-.06Zm0,.11a0,0,0,0,1,0,.07,0,0,0,0,1-.07,0,.06.06,0,0,1,0-.08A0,0,0,0,1,137.18,30.64Zm-.14-.29a.06.06,0,1,1,0,.07A0,0,0,0,1,137,30.35Zm0,.12a0,0,0,0,1,0,.07,0,0,0,0,1-.07,0,0,0,0,0,1,0-.07A0,0,0,0,1,137.05,30.47Zm-.18-.3a.06.06,0,1,1,.1.08.05.05,0,0,1-.08,0A.06.06,0,0,1,136.87,30.17Zm-.05.14a.05.05,0,0,1,.08,0,.06.06,0,0,1,0,.08.06.06,0,0,1-.08,0A.06.06,0,0,1,136.82,30.31Zm0-.23a.08.08,0,0,1,0,.11s-.07,0-.11,0a.09.09,0,0,1,0-.12S136.73,30.06,136.77,30.08Zm-.2-.16a.05.05,0,0,1,.08,0,.07.07,0,0,1,0,.09.06.06,0,0,1-.09,0A.05.05,0,0,1,136.57,29.92Zm0,.09a.06.06,0,0,1,0,.07.05.05,0,0,1-.08,0,0,0,0,0,1,0-.07A.06.06,0,0,1,136.53,30Zm-.17-.2a0,0,0,0,1,.07,0,.05.05,0,0,1,0,.08s-.05,0-.07,0A0,0,0,0,1,136.36,29.81Zm0,.09a.06.06,0,0,1,0,.08.06.06,0,0,1-.08,0,.05.05,0,0,1,.06-.08Zm-.17-.16a.06.06,0,0,1,.08,0,.08.08,0,0,1,0,.08.06.06,0,0,1-.08,0A0,0,0,0,1,136.16,29.74Zm-.11.07a.08.08,0,0,1,.08,0,.06.06,0,0,1,0,.08.08.08,0,0,1-.08,0A.08.08,0,0,1,136.05,29.81Zm-.1-.09s0,0,.06,0,0,0,0,.06,0,0-.06,0A0,0,0,0,1,136,29.72Zm-.1,0a0,0,0,0,1,.06,0s0,0,0,.05,0,0,0,0A0,0,0,0,1,135.85,29.76Zm-.11-.05a0,0,0,0,1,0,0s0,0,0,0a0,0,0,0,1,0,0A0,0,0,0,1,135.74,29.71Zm-.1,0h0s0,0,0,0a0,0,0,0,1-.05,0S135.63,29.76,135.64,29.74Zm0,.37a1,1,0,0,0,0-.29h0v0a0,0,0,0,0,.05,0h0s0,0,0,0a0,0,0,0,0,0,0h0s0,0,0,0a0,0,0,0,0,0,0h0s0,0,0,0,0,0,0,0h0s0,0,0,0a0,0,0,0,0,0,0h0s0,0,0,0h0a0,0,0,0,0,0,0h0a0,0,0,0,0,0,0s0,0,0,0h0v0s0,0,0,0h0a0,0,0,0,0,0,0,0,0,0,0,0,0,0h0a0,0,0,0,0,0,0,0,0,0,0,0,0,0h0a0,0,0,0,0,0,0h0a0,0,0,0,0,0,0,0,0,0,0,0,0,0h0s0,0,0,0a0,0,0,0,0,0,0h0a0,0,0,0,0,0,0h0s0,0,0,0,0,0,0,0h0a0,0,0,0,0,0,0h0s0,0,0,0h0s0,0,0,0a0,0,0,0,0,0,0h0s0,0,0,0a0,0,0,0,0,0,0h0a.06.06,0,0,0,0,0h0a0,0,0,0,0,0,0h0s0,0,0,0h0a.06.06,0,0,0,0,0,0,0,0,0,0,0,0h0a.07.07,0,0,0,0,.05s0,0,0,0h0s0,0,0,0,0,0,0,0h0a0,0,0,0,0,0,0s0,0,0,0h0a0,0,0,0,0,0,0h0s0,0,0,.05h0s0,0,0,0,0,0,0,0h0s0,0,0,0h0s0,0,0,0h0s0,0,0,0h0s0,0,0,.05h0s0,0,0,.05h0a0,0,0,0,0,0,.05h0a0,0,0,0,0,0,0h0a.89.89,0,0,0-.32.07,2.94,2.94,0,0,0-.41.22,2.3,2.3,0,0,1,.37-.27.65.65,0,0,1,.27-.09l0-.08a1.31,1.31,0,0,0-.32.12,3.06,3.06,0,0,0-.41.27,1.84,1.84,0,0,1,.36-.32,1.41,1.41,0,0,1,.35-.13l0-.1-.29.14a2,2,0,0,0-.47.36,2.83,2.83,0,0,1,.34-.37,3.08,3.08,0,0,1,.38-.19l-.05-.09a1.51,1.51,0,0,0-.33.16,4.49,4.49,0,0,0-.45.41,2.07,2.07,0,0,1,.32-.39,2.2,2.2,0,0,1,.38-.25l-.09-.1a1.78,1.78,0,0,0-.38.28c-.15.16-.36.41-.36.41a1.89,1.89,0,0,1,.32-.46,3.26,3.26,0,0,1,.34-.3l-.12-.09-.25.28-.41.47.35-.48c0-.07.23-.34.23-.34l-.12-.09a3,3,0,0,1-.23.42,2.27,2.27,0,0,1-.34.37,4.78,4.78,0,0,0,.34-.49,1.33,1.33,0,0,0,.15-.36l-.13-.08a1.54,1.54,0,0,1-.12.38,3.66,3.66,0,0,1-.34.47,5.19,5.19,0,0,0,.32-.58.63.63,0,0,0,.06-.31l-.1,0a1.8,1.8,0,0,1-.1.41,1.24,1.24,0,0,1-.31.45,1.93,1.93,0,0,0,.29-.56,1.27,1.27,0,0,0,.05-.32l-.1,0a2.43,2.43,0,0,1-.07.39,1.88,1.88,0,0,1-.23.42,2.63,2.63,0,0,0,.18-.43.93.93,0,0,0,.06-.38l-.09,0s0,.2,0,.36a1.25,1.25,0,0,1-.18.36A3,3,0,0,0,135.65,30.11Zm0,1a.14.14,0,0,0,0,0,.26.26,0,0,0-.07.11c0,.05-.08.12-.12.07s0-.12.09-.16A.42.42,0,0,1,135.65,31.14Zm-.34-.09a.62.62,0,0,1,.18-.07l-.08.08a.88.88,0,0,1-.07.12c0,.05-.09.05-.1,0S135.25,31.1,135.31,31.05Zm0-.2-.09.07a.48.48,0,0,0-.11.09.09.09,0,0,1-.12,0s0-.08.09-.13A.39.39,0,0,1,135.27,30.85Zm-.47,0a.46.46,0,0,1,.25,0l-.1.07-.11.1s-.12,0-.13,0S134.7,30.87,134.8,30.81Zm-.2.13a.7.7,0,0,0-.13.13c-.05.06-.07.13-.15.23s-.18.11-.21.09,0-.12.09-.24A1.07,1.07,0,0,1,134.6,30.94Zm-.79.43a1.22,1.22,0,0,1,.3-.25s-.19.25-.17.38a.68.68,0,0,1-.08.41c0,.05-.11.13-.21.06S133.7,31.52,133.81,31.37Zm.07,1.68s-.1,0-.17,0a.67.67,0,0,1-.16-.32.73.73,0,0,1,.19-.52l.17-.18s-.08.23-.11.34a.71.71,0,0,0,0,.42C134,33,133.91,33,133.88,33.05Zm.2-1.1a1.23,1.23,0,0,1,.56-.35,2.33,2.33,0,0,0-.2.23c-.08.1-.16.33-.24.45a.17.17,0,0,1-.25.08S133.86,32.2,134.08,32Zm-.05,1.2c-.14-.11,0-.54.18-.78a2.07,2.07,0,0,1,.47-.4l-.25.39a1.65,1.65,0,0,0-.18.57C134.23,33,134.16,33.25,134,33.15Zm.91,1.05a2,2,0,0,1-.52.48.35.35,0,0,1-.35,0s0,0-.12,0l0,0a.44.44,0,0,0,0-.09l-.06,0-.08,0a1.51,1.51,0,0,0,.18-.24.77.77,0,0,1,.16-.21h-.09l-.07,0s.1-.13.17-.24l.23-.32a1.35,1.35,0,0,0,.66.42h0Zm.7-.49h0a.64.64,0,0,1-.14.15.62.62,0,0,1-.4.11l-.19,0c-.16,0-.23-.11-.23-.15s.1-.11.17-.1l.22,0a1.28,1.28,0,0,0,.26,0h.13a1,1,0,0,0,.28-.17A.51.51,0,0,1,135.64,33.71Zm.71-.17,0,0c-.21.21-.46.25-.53.19l0-.05h0v0a.17.17,0,0,1,.09-.17c.16-.08.24-.05.45-.16a2.69,2.69,0,0,0,.28-.19A1,1,0,0,1,136.35,33.54Z" fill="#fff"/><path d="M132.1,34.89a0,0,0,0,0,0,0,.69.69,0,0,0,0-.16s0,0,0-.05a2.05,2.05,0,0,0-.08-.19l-.06-.08a1.16,1.16,0,0,0-.16-.21l-.12-.09a.83.83,0,0,0-.27-.12.68.68,0,0,1-.12.12h.11l-.15,0a.24.24,0,0,1-.14,0,.52.52,0,0,0-.13.06s0,.07,0,.11v.06h0a.53.53,0,0,1,.28-.15,1.83,1.83,0,0,1,.41,0,1.91,1.91,0,0,0-.35.07.56.56,0,0,0-.28.15l.14.09a.5.5,0,0,1,.21-.09.84.84,0,0,1,.49,0,1,1,0,0,0-.45,0,.5.5,0,0,0-.18.08l.19.12.05,0,.08,0a.58.58,0,0,1,.39.07.89.89,0,0,0-.33,0l-.08,0-.05,0,.09.05.16.1.09,0h0l.11,0a.54.54,0,0,0-.13,0h.26Z" fill="#fff"/><path d="M132.59,34.88h-.89l-.12-.07a.28.28,0,0,0,0,.07h0l-.06-.11-.17-.09.1.16,0,0h0a.73.73,0,0,0-.05-.09l-.13-.17-.18-.12a2,2,0,0,1,.13.22c0,.05,0,.1.05.15h0a1.61,1.61,0,0,0-.23-.39l-.08-.07a1,1,0,0,1,0,.17v.06l.06.13-.08-.12a.34.34,0,0,0-.14-.11.69.69,0,0,0-.2-.07h0l.1.1a2,2,0,0,1,.21.28c-.29,0-.58,0-.86-.09s-.37,0-.53,0-.43,0-.62,0-.25-.17-.35-.18-.08,0-.18.07A12.66,12.66,0,0,0,131,35c.31,0,.65,0,1,0h.1l.55,0A.44.44,0,0,0,132.59,34.88Z" fill="#fff"/><path d="M7.39,26.46V18.84H9.8a2.49,2.49,0,0,1,1.74.59A2,2,0,0,1,12.19,21a2.14,2.14,0,0,1-.33,1.18,1.89,1.89,0,0,1-.91.74,4.78,4.78,0,0,1-1.66.23h-.8v3.3Zm2.22-6.65H8.49v2.38H9.68a1.5,1.5,0,0,0,1-.31,1.13,1.13,0,0,0,.36-.9C11.06,20.2,10.58,19.81,9.61,19.81Z" fill="#231f20"/><path d="M13.17,26.46V18.85h1.91a2.75,2.75,0,0,1,1.83.57A1.91,1.91,0,0,1,17.59,21a2,2,0,0,1-.33,1.15,2,2,0,0,1-1,.73,3.25,3.25,0,0,1,.71.65,14.36,14.36,0,0,1,1,1.44c.27.44.48.76.64,1l.4.54h-1.3l-.33-.5-.06-.09-.22-.3L16.8,25l-.37-.59a5.88,5.88,0,0,0-.62-.75,2.64,2.64,0,0,0-.5-.4,1.75,1.75,0,0,0-.76-.12h-.29v3.31Zm1.42-6.68h-.33v2.4h.42A3.13,3.13,0,0,0,15.81,22a1,1,0,0,0,.48-.43,1.19,1.19,0,0,0,.17-.65,1.13,1.13,0,0,0-.19-.65,1,1,0,0,0-.53-.41A3.91,3.91,0,0,0,14.59,19.78Z" fill="#231f20"/><path d="M23,18.74a4.1,4.1,0,0,1,2.93,1.12,3.89,3.89,0,0,1,0,5.59,4.22,4.22,0,0,1-3,1.1A4,4,0,0,1,20,25.45a3.67,3.67,0,0,1-1.15-2.77A3.76,3.76,0,0,1,20,19.86,4,4,0,0,1,23,18.74Zm0,1a2.94,2.94,0,0,0-2.15.82A2.77,2.77,0,0,0,20,22.68a2.74,2.74,0,0,0,.84,2.05,3.14,3.14,0,0,0,4.24,0,2.79,2.79,0,0,0,.85-2.08,2.72,2.72,0,0,0-.85-2A2.88,2.88,0,0,0,23,19.78Z" fill="#231f20"/><path d="M28.34,26.46V18.84h2.41a2.49,2.49,0,0,1,1.74.59A2,2,0,0,1,33.14,21a2.07,2.07,0,0,1-.34,1.18,1.85,1.85,0,0,1-.91.74,4.67,4.67,0,0,1-1.65.23h-.81v3.3Zm2.22-6.65H29.43v2.38h1.2a1.5,1.5,0,0,0,1-.31A1.13,1.13,0,0,0,32,21C32,20.2,31.53,19.81,30.56,19.81Z" fill="#231f20"/><path d="M34.09,18.85H38.4v1H35.18v2.32h3.11v1H35.18v2.36H38.5v1H34.09Z" fill="#231f20"/><path d="M39.7,26.46V18.85h1.9a2.77,2.77,0,0,1,1.84.57,2.11,2.11,0,0,1,.34,2.7,2,2,0,0,1-1,.73,3.25,3.25,0,0,1,.71.65,14,14,0,0,1,1,1.44c.26.44.47.76.63,1l.41.54h-1.3l-.33-.5-.07-.09-.21-.3L43.32,25,43,24.42a6.87,6.87,0,0,0-.62-.75,3,3,0,0,0-.51-.4,1.72,1.72,0,0,0-.76-.12h-.28v3.31Zm1.41-6.68h-.32v2.4h.41A3.24,3.24,0,0,0,42.34,22a1.11,1.11,0,0,0,.48-.43A1.29,1.29,0,0,0,43,21a1.13,1.13,0,0,0-.19-.65,1.06,1.06,0,0,0-.54-.41A3.86,3.86,0,0,0,41.11,19.78Z" fill="#231f20"/><path d="M44.75,18.84h6.36v1H48.46v6.65h-1.1V19.81H44.75Z" fill="#231f20"/><path d="M56.72,18.85H58l-2.81,3.59v4H54.12v-4L51.3,18.85h1.32l2,2.63Z" fill="#231f20"/><path d="M11.12,28.9H12l3.86,8.65H14.58L13.43,35H9.76L8.69,37.55H7.42Zm1.81,5-1.39-3.11L10.25,33.9Z" fill="#231f20"/><path d="M26.73,29H28l-3.48,8.64h-.27l-2.81-7-2.84,7h-.27L14.82,29h1.25l2.37,5.93L20.82,29H22l2.4,5.93Z" fill="#231f20"/><path d="M30.65,28.9h.87l3.86,8.65H34.12L33,35H29.3l-1.08,2.55H27Zm1.81,5-1.38-3.11L29.79,33.9Z" fill="#231f20"/><path d="M36.36,37.55V29h2.15a3.14,3.14,0,0,1,2.08.64,2.17,2.17,0,0,1,.76,1.75,2.23,2.23,0,0,1-.37,1.3,2.21,2.21,0,0,1-1.08.82,4.18,4.18,0,0,1,.81.74,16.22,16.22,0,0,1,1.11,1.63q.45.73.72,1.11l.45.61H41.53L41.15,37l-.07-.1-.24-.34-.38-.63L40,35.24a6,6,0,0,0-.7-.84,2.94,2.94,0,0,0-.57-.46,2,2,0,0,0-.86-.13h-.32v3.74ZM38,30h-.37v2.72h.47a3.39,3.39,0,0,0,1.28-.16,1.26,1.26,0,0,0,.54-.48,1.44,1.44,0,0,0,.2-.74,1.29,1.29,0,0,0-.22-.74,1.11,1.11,0,0,0-.6-.46A4.39,4.39,0,0,0,38,30Z" fill="#231f20"/><path d="M44,37.54V29h2.9a6.15,6.15,0,0,1,2.78.52A4,4,0,0,1,51.26,31a4.34,4.34,0,0,1,.6,2.23,4.19,4.19,0,0,1-.33,1.65,4.25,4.25,0,0,1-2.41,2.32,3.9,3.9,0,0,1-.89.25,10.53,10.53,0,0,1-1.55.07ZM46.72,30H45.18v6.4h1.58a6.64,6.64,0,0,0,1.44-.12,4.1,4.1,0,0,0,.85-.32,2.92,2.92,0,0,0,.63-.48,3.24,3.24,0,0,0,.91-2.34,3,3,0,0,0-.94-2.26,3.12,3.12,0,0,0-.79-.53,3.51,3.51,0,0,0-.85-.28A7.84,7.84,0,0,0,46.72,30Z" fill="#231f20"/><path d="M55.53,34l-.93-.57a4.26,4.26,0,0,1-1.26-1.06,2,2,0,0,1-.37-1.2,2.11,2.11,0,0,1,.71-1.65,2.64,2.64,0,0,1,1.83-.63,3.49,3.49,0,0,1,2,.6v1.4a2.85,2.85,0,0,0-2-.9,1.7,1.7,0,0,0-1,.28.86.86,0,0,0-.39.72,1.09,1.09,0,0,0,.29.72,3.58,3.58,0,0,0,.92.71l.94.56a2.74,2.74,0,0,1,1.57,2.39A2.19,2.19,0,0,1,57.13,37a2.53,2.53,0,0,1-1.8.65A3.79,3.79,0,0,1,53,36.87V35.3a2.9,2.9,0,0,0,2.31,1.27,1.44,1.44,0,0,0,1-.33,1,1,0,0,0,.39-.8C56.67,34.91,56.29,34.42,55.53,34Z" fill="#231f20"/><path d="M11.38,10H8.44v2.09h2.84V13H8.44v2.15h3V16h-4V9.09h3.94Z" fill="#231f20"/><path d="M18.45,13.29c0,1.7-1,2.82-3.08,2.82a2.64,2.64,0,0,1-2.88-2.71V9.09h1v4.09c0,.78.1,1.11.42,1.42a2,2,0,0,0,1.49.59A2.29,2.29,0,0,0,17,14.64a2.07,2.07,0,0,0,.44-1.52v-4h1Z" fill="#231f20"/><path d="M21.76,9.09c1.4,0,2.27.74,2.27,1.94a1.73,1.73,0,0,1-1.16,1.69,5.7,5.7,0,0,1,1.55,1.93c.29.47.47.71.94,1.37H24.17l-.91-1.43C22.34,13.17,21.93,13,21.42,13H21v3H20V9.09Zm-.76,3h.64c1.07,0,1.38-.54,1.37-1.12s-.4-1.05-1.37-1.05H21Z" fill="#231f20"/><path d="M29.25,9a3.56,3.56,0,1,1,0,7.12,3.56,3.56,0,1,1,0-7.12Zm0,6.2a2.64,2.64,0,1,0-2.69-2.64A2.6,2.6,0,0,0,29.25,15.19Z" fill="#231f20"/><path d="M36.42,9.09a2,2,0,0,1,2.21,2c0,1.09-.74,1.94-2.34,1.94h-1v3h-1V9.09Zm-1.17,3h1.13A1.07,1.07,0,0,0,37.6,11,1,1,0,0,0,36.42,10H35.25Z" fill="#231f20"/><path d="M43.44,10H40.5v2.09h2.84V13H40.5v2.15h3V16h-4V9.09h3.93Z" fill="#231f20"/><path d="M50.91,16h-1L49,14H46l-.88,2h-1l3-7h.7ZM46.4,13.08h2.16l-1.12-2.51Z" fill="#231f20"/><path d="M58.16,16h-.85l-4.64-5.34V16h-.93V9.09h.79l4.7,5.36V9.09h.93Z" fill="#231f20"/><path d="M20.26,41.94,17.07,49.4H15.79l-1.91-4.34-2,4.34h-1.3L7.5,41.94H9.8L11.33,46l1.75-4.08h1.59L16.39,46,18,41.94Z" fill="#231f20"/><path d="M23.18,49.31H21V41.94h2.22Z" fill="#231f20"/><path d="M32.74,49.31h-2L27,45.21v4.1h-2.2V41.94h2L30.53,46V41.94h2.21Z" fill="#231f20"/><path d="M42.29,49.31h-2l-3.82-4.1v4.1H34.3V41.94h2L40.08,46V41.94h2.21Z" fill="#231f20"/><path d="M49.4,49.31H43.85V41.94h5.46v1.48H46.07v1.35h3.09v1.48H46.07v1.57H49.4Z" fill="#231f20"/><path d="M57.82,49.31H55.44L54.86,48a5.24,5.24,0,0,0-.57-1,1.23,1.23,0,0,0-.5-.42,1.58,1.58,0,0,0-.62-.1h-.25v2.88H50.7V41.94h3.77a2.73,2.73,0,0,1,1.5.38,2.12,2.12,0,0,1,.84.9,2.33,2.33,0,0,1,.26,1,1.84,1.84,0,0,1-.22.94,1.67,1.67,0,0,1-.45.56,4.56,4.56,0,0,1-.54.34,1.91,1.91,0,0,1,.59.49,5.48,5.48,0,0,1,.63,1.15Zm-3-5a.74.74,0,0,0-.34-.71,2.13,2.13,0,0,0-1.09-.2h-.46v1.77h.47A2.39,2.39,0,0,0,54.51,45,.72.72,0,0,0,54.81,44.27Z" fill="#231f20"/><path d="M63.57,29.29v-.54l.69-.67c1.66-1.58,2.41-2.42,2.42-3.4a1.16,1.16,0,0,0-1.29-1.27A2.21,2.21,0,0,0,64,24l-.28-.62a2.9,2.9,0,0,1,1.84-.65,1.82,1.82,0,0,1,2,1.88c0,1.2-.87,2.17-2.24,3.49l-.52.48v0h2.92v.73Z" fill="#231f20"/><path d="M73,26c0,2.21-.82,3.43-2.26,3.43-1.27,0-2.13-1.19-2.15-3.34s.94-3.37,2.26-3.37S73,23.9,73,26Zm-3.53.1c0,1.69.52,2.65,1.32,2.65s1.33-1,1.33-2.71-.41-2.65-1.32-2.65S69.49,24.3,69.49,26.07Z" fill="#231f20"/><path d="M75.74,23.61h0l-1.13.61-.17-.67,1.42-.75h.75v6.49h-.85Z" fill="#231f20"/><path d="M80.16,25.87a1.61,1.61,0,0,1-1-1.46,1.82,1.82,0,0,1,2-1.72A1.67,1.67,0,0,1,83,24.28,1.65,1.65,0,0,1,82,25.8v0a1.8,1.8,0,0,1,1.31,1.68,2,2,0,0,1-2.21,1.89c-1.36,0-2.18-.81-2.18-1.76a1.86,1.86,0,0,1,1.29-1.74Zm2.22,1.73c0-.79-.55-1.17-1.43-1.42a1.41,1.41,0,0,0-1.17,1.34,1.2,1.2,0,0,0,1.3,1.24A1.18,1.18,0,0,0,82.38,27.6ZM80,24.35c0,.65.49,1,1.24,1.2a1.28,1.28,0,0,0,1-1.18,1,1,0,0,0-1.1-1.05A1,1,0,0,0,80,24.35Z" fill="#231f20"/><path d="M88.53,26.26v.65H86.06v-.65Z" fill="#231f20"/><path d="M91.4,29.29v-.54l.69-.67c1.66-1.58,2.41-2.42,2.42-3.4a1.16,1.16,0,0,0-1.29-1.27,2.21,2.21,0,0,0-1.38.55l-.28-.62a2.9,2.9,0,0,1,1.84-.65,1.82,1.82,0,0,1,2,1.88c0,1.2-.87,2.17-2.24,3.49l-.52.48v0h2.92v.73Z" fill="#231f20"/><path d="M100.85,26c0,2.21-.82,3.43-2.26,3.43-1.27,0-2.13-1.19-2.15-3.34s.94-3.37,2.26-3.37S100.85,23.9,100.85,26Zm-3.53.1c0,1.69.52,2.65,1.32,2.65S100,27.67,100,26s-.41-2.65-1.32-2.65S97.32,24.3,97.32,26.07Z" fill="#231f20"/><path d="M103.57,23.61h0l-1.13.61-.17-.67,1.42-.75h.75v6.49h-.85Z" fill="#231f20"/><path d="M107.3,28.67a3.67,3.67,0,0,0,.71,0,2.45,2.45,0,0,0,1.36-.63,2.85,2.85,0,0,0,.86-1.73h0a1.91,1.91,0,0,1-1.53.7,1.88,1.88,0,0,1-1.92-2,2.22,2.22,0,0,1,2.22-2.3c1.33,0,2.15,1.07,2.15,2.73a4.11,4.11,0,0,1-1.12,3,3.25,3.25,0,0,1-1.89.87,4.1,4.1,0,0,1-.81.05Zm1.59-5.31c-.74,0-1.27.65-1.27,1.57a1.25,1.25,0,0,0,1.25,1.38,1.45,1.45,0,0,0,1.28-.68.58.58,0,0,0,.08-.32c0-1.11-.41-1.95-1.33-1.95Z" fill="#231f20"/><path d="M63.57,39.29v-.54l.69-.67c1.66-1.58,2.41-2.42,2.42-3.4a1.16,1.16,0,0,0-1.29-1.27A2.21,2.21,0,0,0,64,34l-.28-.62a2.9,2.9,0,0,1,1.84-.65,1.82,1.82,0,0,1,2,1.88c0,1.2-.87,2.17-2.24,3.49l-.52.48v0h2.92v.73Z" fill="#231f20"/><path d="M73,36c0,2.21-.82,3.43-2.26,3.43-1.27,0-2.13-1.19-2.15-3.34s.94-3.37,2.26-3.37S73,33.9,73,36Zm-3.53.1c0,1.69.52,2.65,1.32,2.65s1.33-1,1.33-2.71-.41-2.65-1.32-2.65S69.49,34.3,69.49,36.07Z" fill="#231f20"/><path d="M75.74,33.61h0l-1.13.61-.17-.67,1.42-.75h.75v6.49h-.85Z" fill="#231f20"/><path d="M79.47,38.67a3.67,3.67,0,0,0,.71,0A2.45,2.45,0,0,0,81.54,38a2.85,2.85,0,0,0,.86-1.73h0a1.91,1.91,0,0,1-1.53.7,1.88,1.88,0,0,1-1.92-2,2.22,2.22,0,0,1,2.22-2.3c1.33,0,2.15,1.07,2.15,2.73a4.11,4.11,0,0,1-1.12,3,3.25,3.25,0,0,1-1.89.87,4.1,4.1,0,0,1-.81,0Zm1.59-5.31c-.74,0-1.27.65-1.27,1.57A1.25,1.25,0,0,0,81,36.31a1.45,1.45,0,0,0,1.28-.68.58.58,0,0,0,.08-.32c0-1.11-.41-2-1.33-2Z" fill="#231f20"/><path d="M88.53,36.26v.65H86.06v-.65Z" fill="#231f20"/><path d="M91.4,39.29v-.54l.69-.67c1.66-1.58,2.41-2.42,2.42-3.4a1.16,1.16,0,0,0-1.29-1.27,2.21,2.21,0,0,0-1.38.55l-.28-.62a2.9,2.9,0,0,1,1.84-.65,1.82,1.82,0,0,1,2,1.88c0,1.2-.87,2.17-2.24,3.49l-.52.48v0h2.92v.73Z" fill="#231f20"/><path d="M100.85,36c0,2.21-.82,3.43-2.26,3.43-1.27,0-2.13-1.19-2.15-3.34s.94-3.37,2.26-3.37S100.85,33.9,100.85,36Zm-3.53.1c0,1.69.52,2.65,1.32,2.65S100,37.67,100,36s-.41-2.65-1.32-2.65S97.32,34.3,97.32,36.07Z" fill="#231f20"/><path d="M101.66,39.29v-.54l.69-.67c1.66-1.58,2.41-2.42,2.42-3.4a1.16,1.16,0,0,0-1.29-1.27,2.21,2.21,0,0,0-1.38.55l-.28-.62a2.9,2.9,0,0,1,1.84-.65,1.82,1.82,0,0,1,2,1.88c0,1.2-.87,2.17-2.24,3.49l-.52.48v0h2.92v.73Z" fill="#231f20"/><path d="M111.11,36c0,2.21-.82,3.43-2.26,3.43-1.27,0-2.13-1.19-2.15-3.34s.94-3.37,2.26-3.37S111.11,33.9,111.11,36Zm-3.53.1c0,1.69.52,2.65,1.32,2.65s1.33-1,1.33-2.71-.41-2.65-1.32-2.65S107.58,34.3,107.58,36.07Z" fill="#231f20"/><path d="M63.57,49.29v-.54l.69-.67c1.66-1.58,2.41-2.42,2.42-3.4a1.15,1.15,0,0,0-1.29-1.26A2.21,2.21,0,0,0,64,44l-.28-.63a2.9,2.9,0,0,1,1.84-.65,1.82,1.82,0,0,1,2,1.88c0,1.2-.87,2.17-2.24,3.49l-.52.48v0h2.92v.73Z" fill="#231f20"/><path d="M73,46c0,2.21-.82,3.43-2.26,3.43-1.27,0-2.13-1.19-2.15-3.34s.94-3.37,2.26-3.37S73,43.9,73,46Zm-3.53.1c0,1.69.52,2.65,1.32,2.65s1.33-1,1.33-2.71-.41-2.64-1.32-2.64S69.49,44.3,69.49,46.07Z" fill="#231f20"/><path d="M73.83,49.29v-.54l.69-.67c1.66-1.58,2.41-2.42,2.42-3.4a1.15,1.15,0,0,0-1.29-1.26,2.21,2.21,0,0,0-1.38.55L74,43.34a2.9,2.9,0,0,1,1.84-.65,1.82,1.82,0,0,1,2,1.88c0,1.2-.87,2.17-2.24,3.49l-.52.48v0H78v.73Z" fill="#231f20"/><path d="M83.28,46c0,2.21-.82,3.43-2.26,3.43-1.27,0-2.13-1.19-2.15-3.34s.94-3.37,2.26-3.37S83.28,43.9,83.28,46Zm-3.53.1c0,1.69.52,2.65,1.32,2.65s1.33-1,1.33-2.71-.41-2.64-1.32-2.64S79.75,44.3,79.75,46.07Z" fill="#231f20"/><path d="M88.53,46.26v.65H86.06v-.65Z" fill="#231f20"/><path d="M91.4,49.29v-.54l.69-.67c1.66-1.58,2.41-2.42,2.42-3.4a1.15,1.15,0,0,0-1.29-1.26,2.21,2.21,0,0,0-1.38.55l-.28-.63a2.9,2.9,0,0,1,1.84-.65,1.82,1.82,0,0,1,2,1.88c0,1.2-.87,2.17-2.24,3.49l-.52.48v0h2.92v.73Z" fill="#231f20"/><path d="M100.85,46c0,2.21-.82,3.43-2.26,3.43-1.27,0-2.13-1.19-2.15-3.34s.94-3.37,2.26-3.37S100.85,43.9,100.85,46Zm-3.53.1c0,1.69.52,2.65,1.32,2.65S100,47.67,100,46s-.41-2.64-1.32-2.64S97.32,44.3,97.32,46.07Z" fill="#231f20"/><path d="M101.66,49.29v-.54l.69-.67c1.66-1.58,2.41-2.42,2.42-3.4a1.15,1.15,0,0,0-1.29-1.26,2.21,2.21,0,0,0-1.38.55l-.28-.63a2.9,2.9,0,0,1,1.84-.65,1.82,1.82,0,0,1,2,1.88c0,1.2-.87,2.17-2.24,3.49l-.52.48v0h2.92v.73Z" fill="#231f20"/><path d="M108.7,43.62h0l-1.13.6-.17-.67,1.42-.75h.75v6.49h-.85Z" fill="#231f20"/><path d="M64.27,9.14H66.5l1.23,3.55c.18.54.42,1.39.42,1.39h0s.24-.85.43-1.39l1.22-3.55h2.24l.68,8.41H70.68l-.26-3.79a11.78,11.78,0,0,1,0-1.41h0s-.28.88-.47,1.41L69,16.2H67.28l-.88-2.44c-.19-.53-.47-1.41-.47-1.41h0a11.78,11.78,0,0,1,0,1.41l-.26,3.79H63.57Z" fill="#231f20"/><path d="M75.64,9.14h5.28V10.9H77.7v1.53h2.57V14.2H77.7v1.59h3.38v1.76H75.64Z" fill="#231f20"/><path d="M84.21,14.93a3.47,3.47,0,0,0,2,.87c.42,0,.88-.17.88-.67,0-1-3.79-1-3.79-3.56a2.71,2.71,0,0,1,3-2.58A3.82,3.82,0,0,1,89,10l-.87,1.68a3.22,3.22,0,0,0-1.86-.74c-.43,0-.9.19-.9.66,0,1.06,3.79.87,3.79,3.53a2.67,2.67,0,0,1-3,2.61,4.37,4.37,0,0,1-3.08-1.2Z" fill="#231f20"/><path d="M91.76,9.14h3.49A2.7,2.7,0,0,1,98,12,2.71,2.71,0,0,1,95.25,15H93.82v2.6H91.76Zm3.07,4A1,1,0,0,0,95.9,12a1,1,0,0,0-1-1.13h-1v2.29Z" fill="#231f20"/><path d="M100.4,9.14h2.06v8.41H100.4Z" fill="#231f20"/><path d="M105.62,9.14h2.06v6.65h3.44v1.76h-5.5Z" fill="#231f20"/></svg>
