<svg xmlns="http://www.w3.org/2000/svg" viewBox="0 0 48 48"><path d="M425.71,275.93a26.25,26.25,0,0,1,8.29,2.59c.4.21.59.12.62-.35a3.23,3.23,0,0,1,.47-1.82L439,283l-.19.26-7.43-2c.5-.72,1.32-.63,1.84-1.2a15.76,15.76,0,0,0-4.65-1.83,22.31,22.31,0,0,0-17.87,2.9,6.14,6.14,0,0,1-.92.54c-.49.19-1,.23-1.29-.34s.06-.89.54-1.2A25.21,25.21,0,0,1,420,276a.84.84,0,0,0,.2-.08Z" transform="translate(-398.83 -275.93)" fill="#fff"/><path d="M420,323.93a28.18,28.18,0,0,1-8.11-2.46c-.53-.27-.78-.14-.8.48a2.84,2.84,0,0,1-.3,1.32c-.35.07-.43-.22-.55-.41q-1.6-2.7-3.18-5.42a.84.84,0,0,1-.15-.59c.08-.24.36-.13.56-.08l6.87,1.83c-.49.68-1.29.65-1.82,1.21a18.26,18.26,0,0,0,6.14,2.13,22.15,22.15,0,0,0,16.58-3.36c.52-.34,1.11-.74,1.55,0s-.09,1.09-.64,1.46A23.71,23.71,0,0,1,426,323.8a4.77,4.77,0,0,0-.51.13Z" transform="translate(-398.83 -275.93)" fill="#fff"/><path d="M398.83,297.05a27.39,27.39,0,0,1,2.42-8c.33-.64.17-.91-.55-.92a2.24,2.24,0,0,1-1.21-.29c-.05-.29.16-.37.34-.48l5.41-3.2c.21-.13.46-.33.68-.21s.09.52,0,.77c-.57,2.19-1.16,4.37-1.77,6.67-.71-.47-.65-1.27-1.22-1.82a17.24,17.24,0,0,0-1.88,4.93,22.29,22.29,0,0,0,3.07,17.74l.23.36c.27.45.3.89-.17,1.21a.81.81,0,0,1-1.2-.28,20.27,20.27,0,0,1-2.34-4.16,30.51,30.51,0,0,1-1.83-6.55Z" transform="translate(-398.83 -275.93)" fill="#fff"/><path d="M446.83,302.81A26.63,26.63,0,0,1,444.3,311c-.23.44-.06.66.42.69a3.4,3.4,0,0,1,1.69.46l-3.1,1.86c-1,.59-2,1.19-3,1.76-.28.16-.8.43-.63-.28.58-2.33,1.22-4.64,1.87-7.09.66.56.65,1.29,1.12,1.84a3.56,3.56,0,0,0,.86-1.52c2.83-7.35,2.3-14.39-1.95-21.09l-.17-.27c-.31-.46-.44-.93.09-1.31s.94-.1,1.27.34a22.3,22.3,0,0,1,2.24,4,29.1,29.1,0,0,1,1.86,6.87Z" transform="translate(-398.83 -275.93)" fill="#fff"/><path d="M422.85,283.2h-1c-1.5,0-1.9.43-1.92,1.92,0,.67,0,1.35,0,2a1,1,0,0,1-.81,1.08,11.26,11.26,0,0,0-4.9,2.91,1,1,0,0,1-1.42.13c-.66-.42-1.33-.82-2-1.18a1.26,1.26,0,0,0-1.9.5c-.4.72-.86,1.4-1.23,2.12a1.51,1.51,0,0,0,.64,2.19c.6.37,1.23.72,1.86,1a.9.9,0,0,1,.53,1.2,9,9,0,0,0-.21,4.75c.53,1.87-.3,2.58-1.73,3.29s-1.55,1.16-.72,2.67c1.52,2.76,1.77,3.09,4.69,1.27a1.05,1.05,0,0,1,1.49.15,11.8,11.8,0,0,0,5.13,2.94,1.06,1.06,0,0,1,.93,1.3,7.54,7.54,0,0,0,0,.95c0,1.88.31,2.2,2.14,2.21,2.72,0,3.53.29,3.28-3.19a1.17,1.17,0,0,1,1-1.38,7.53,7.53,0,0,0,3.56-1.85c1.53-1.61,2.93-2,4.72-.45a1.14,1.14,0,0,0,1.81-.45c.42-.74.87-1.46,1.26-2.22a1.45,1.45,0,0,0-.59-2.11c-.6-.38-1.22-.73-1.85-1.06a.91.91,0,0,1-.51-1.13,12.9,12.9,0,0,0-.18-6,.9.9,0,0,1,.5-1.21,23.41,23.41,0,0,0,2.11-1.25,1.19,1.19,0,0,0,.43-1.82c-.4-.63-.74-1.3-1.13-1.94a1.61,1.61,0,0,0-2.44-.65c-.59.33-1.19.65-1.74,1a1,1,0,0,1-1.49-.13,10.13,10.13,0,0,0-4.42-2.48,1.48,1.48,0,0,1-1.3-1.9c0-.21,0-.42,0-.64,0-2.4-.17-2.6-2.57-2.61m17,9.77a3.15,3.15,0,0,1-2,3.12,1.54,1.54,0,0,0-1,2.09,8.73,8.73,0,0,1,.05,3.6c-.11.66,0,1.12.64,1.38,2.34,1,3.07,3.21,1.45,5.62-.27.41-.5.86-.76,1.29-1.08,1.76-2.56,2.2-4.33,1.12a1.65,1.65,0,0,0-2.4.18,9.83,9.83,0,0,1-3.27,2,1.14,1.14,0,0,0-.85,1.17c-.09,2.82-1.2,3.88-4,3.9-.57,0-1.14,0-1.71,0a2.84,2.84,0,0,1-3.07-3.07,1.88,1.88,0,0,0-1.51-2.14,9,9,0,0,1-3.17-1.92,1,1,0,0,0-1.41-.14c-2.58,1.42-4,1-5.48-1.58-.21-.38-.44-.74-.65-1.11-1.09-2-.82-3.38,1.1-4.51a2,2,0,0,0,1.16-2.48,8.07,8.07,0,0,1,.09-3.28,1.28,1.28,0,0,0-.77-1.54c-2.5-1.38-2.89-3-1.43-5.44.28-.49.55-1,.85-1.48,1-1.65,2.55-2.15,4.17-1.08a2.32,2.32,0,0,0,3.33-.23,7,7,0,0,1,2.41-1.34,1.16,1.16,0,0,0,.88-1.36,8,8,0,0,1,0-.85,3.19,3.19,0,0,1,3.23-3.39c.85-.05,1.7,0,2.56,0,1.88.07,3.08,1.14,3,3-.07,1.59.38,2.48,2,2.93a7.31,7.31,0,0,1,2.37,1.41,1.13,1.13,0,0,0,1.59,0,4.94,4.94,0,0,1,1.81-.89,2.57,2.57,0,0,1,2,.35c1.78,1.2,2.46,3.11,3.09,4.69" transform="translate(-398.83 -275.93)" fill="#fff"/><path d="M422.79,295.37a4.81,4.81,0,0,0-4.84,4.79,4.89,4.89,0,1,0,9.77-.08,4.83,4.83,0,0,0-4.93-4.71m0,11.36a6.51,6.51,0,0,1-6.57-6.56,6.57,6.57,0,0,1,13.13,0,6.53,6.53,0,0,1-6.56,6.57" transform="translate(-398.83 -275.93)" fill="#fff"/></svg>
