<svg xmlns="http://www.w3.org/2000/svg" viewBox="0 0 60 60"><rect width="60" height="60" fill="#363636"/><rect x="3.61" y="3.61" width="52.77" height="52.77" fill="#fff"/><path d="M462.09,306.1c5.21,1.85,15.7,13.36,21.17,10.11,1.05-.62.63-.85,1.88-.95a11.24,11.24,0,0,0,2.63-.05,3,3,0,0,0,2.69-2.86c4.55-.32,3.44-2.12,5.81-3.34,3.31-1.71,1.42-1.05,3.23-2.46l.95,2.27c1.66.32,8.36.4,9.35-.32.67-.74.38-1.24.21-2.42-.15-1-.26-2-.4-3-.64-4.85-1.56-13.46-2.39-17.49-1.28-.17-8.16.63-9.5,1.34-.9.48.52.14-1.08.58-3-2-15-4-19.4-3.3-1.86.3-2.51.92-4.63,1-1.85.07-3.63.13-5.5.24-2.79.16-7.4-.87-10.32-1.41-4.41-.81-3.59.18-4.47,6.44l-2,15.06c-.33,2.6.23,3.08,2.74,3,6.69-.19,8.57.7,9-2.44" transform="translate(-450.22 -265.94)" fill="#363636"/><path d="M462.94,303.7l4.23,3c1.63,1.06,2.92,2,4.57,3.08,4,2.73,6.52,5.16,10.42,4.65-.28-.62-.09-.31-.54-.76-1.22-1.2-5.9-3.6-4.43-5.1,1.14-.65,2,.4,2.72,1,.94.76,1.47,1.23,2.39,1.89,1.81,1.32,4,2.58,6.2.91L484,309.08c-1.3-1.05-4.58-3-3.18-4.18,2.91-1.25,7.84,8.78,12.39,4-.39-.46-9.85-5.19-8.11-7.29,1.13-1.37,3.24,1.92,6.11,3.61,2.5,1.47,5,2.9,6.41-.29.07-2.41-10.34-8.42-12.48-9.81-3.56-2.3-4.42-3.47-7.42-2.48-1.4.46-4.37,5.64-7,4.3-1.18-1.15-1.7-2.51-1.31-5s1.34-3.19,2.09-4.94c-7.57.05-6.28-.73-7.09,5.77-.44,3.46-1.29,7.64-1.5,10.9" transform="translate(-450.22 -265.94)" fill="#fff"/><path d="M498.94,288.28c-.59,4.07,1.27,10,1.63,14.24a28.08,28.08,0,0,0,1,4.65h5l-.85-19.8Z" transform="translate(-450.22 -265.94)" fill="#fff"/></svg>
