<svg xmlns="http://www.w3.org/2000/svg" viewBox="0 0 54.56 48"><path d="M395.55,294.86a26.62,26.62,0,0,1,4.17-10.62,24,24,0,0,1,43.46,10.54l.3,2.25c1.44-1.43,2.8-2.75,4.12-4.12.8-.82,1.59-1.09,2.51-.23v1.21c-2.3,2.33-4.59,4.66-6.9,7a1.34,1.34,0,0,1-2.12,0l-6.42-6.43c-.59-.59-.83-1.25-.18-1.91s1.32-.45,1.91.13c1.13,1.1,2.23,2.23,3.36,3.33.27.27.47.66,1,.73a6.75,6.75,0,0,0-.25-3,21.62,21.62,0,0,0-22.66-17.29c-9.8.55-18.48,8.66-19.74,18.86a21.46,21.46,0,0,0,21,24A21.14,21.14,0,0,0,434,313.66c.15-.13.29-.28.45-.4a1.21,1.21,0,0,1,1.75.05,1.15,1.15,0,0,1-.06,1.73,17.22,17.22,0,0,1-3,2.48,24,24,0,0,1-37.44-15.78c-.05-.27-.12-.54-.19-.82Z" transform="translate(-395.55 -273.89)" fill="#fff"/><path d="M419.39,294.34h4.71c.56,0,.9-.14.93-.81a5.61,5.61,0,0,0-11.21-.2c0,.72.25,1,1,1,1.53,0,3.06,0,4.59,0m.11,2.54c-2.26,0-4.52,0-6.78,0-.85,0-1.13.32-1.12,1.14q0,4.42,0,8.84c0,.85.35,1.14,1.16,1.13q6.66,0,13.32,0c.91,0,1.19-.36,1.18-1.23,0-2.91,0-5.81,0-8.72,0-.93-.37-1.17-1.23-1.16-2.18,0-4.36,0-6.54,0m-.08,13.59h-8.48c-1.5,0-1.86-.36-1.86-1.87,0-4.07,0-8.15,0-12.23,0-1.11.26-1.93,1.53-2,.77-.06.68-.65.73-1.17a8.15,8.15,0,0,1,4.37-7,8.29,8.29,0,0,1,11.84,7.06c0,.65.23,1,1,1.11.92.09,1.28.75,1.28,1.62,0,4.28,0,8.56,0,12.84,0,1.23-.47,1.62-1.75,1.63h-8.6" transform="translate(-395.55 -273.89)" fill="#fff"/><path d="M419.54,298.93a2.27,2.27,0,0,1,2,1.25,2.09,2.09,0,0,1-.12,2.4,2.87,2.87,0,0,0-.77,2.08,1.1,1.1,0,0,1-1.05,1.25,1.13,1.13,0,0,1-1.35-1.09,6.19,6.19,0,0,0-.9-2.56,2.33,2.33,0,0,1,2.23-3.33" transform="translate(-395.55 -273.89)" fill="#fff"/></svg>
