<svg xmlns="http://www.w3.org/2000/svg" viewBox="0 0 46.68 60"><path d="M486.46,313.5a3.69,3.69,0,0,0-.67.11,3.82,3.82,0,0,1-4.71-1,5.48,5.48,0,0,0-4.47-1.78,3.58,3.58,0,0,1-3.59-2.12c-.08-.16-.14-.4-.37-.38s-.29.3-.38.49l-4.63,10.42c-.12.25-.33.53-.16.8s.57.15.86.11c2.18-.28,4.36-.55,6.54-.87a1.35,1.35,0,0,1,1.49.68c1.23,1.86,2.5,3.69,3.77,5.53.15.22.24.6.58.55s.35-.42.46-.67c.85-1.89,1.68-3.79,2.53-5.68s1.77-4,2.75-6.2m3.62.1a2.57,2.57,0,0,0,.11.44q2.56,5.77,5.12,11.54c.29.65.53.58.88.06,1.21-1.8,2.48-3.56,3.64-5.39a1.82,1.82,0,0,1,2.1-.93c2.08.34,4.17.58,6.25.87.58.08,1,0,.69-.71q-2.39-5.39-4.79-10.76c-.27-.61-.49-.42-.71,0a3.74,3.74,0,0,1-3.43,2.11c-.34,0-.69,0-1,0a3.84,3.84,0,0,0-3,1.2c-.37.37-.8.7-1.21,1a3.47,3.47,0,0,1-3.43.71c-.38-.11-.73-.37-1.22-.24m2.1-.91a2.83,2.83,0,0,0,2.29-1.07,6.29,6.29,0,0,1,5.14-2.1,2.63,2.63,0,0,0,2.84-1.86,6.37,6.37,0,0,1,4.05-4.06,2.68,2.68,0,0,0,1.88-2.92,5.91,5.91,0,0,1,2-4.91,3,3,0,0,0,.77-3.9,5.32,5.32,0,0,1,0-4.91,3.14,3.14,0,0,0-.83-4.14,5.46,5.46,0,0,1-1.85-4.56,3,3,0,0,0-2.2-3.32,5.72,5.72,0,0,1-3.6-3.61,3,3,0,0,0-3.33-2.18,5.26,5.26,0,0,1-4.41-1.74,3.24,3.24,0,0,0-4.29-.91,5.18,5.18,0,0,1-4.74,0,3.2,3.2,0,0,0-4.21.86,5.37,5.37,0,0,1-4.49,1.8,3,3,0,0,0-3.32,2.18A5.8,5.8,0,0,1,470.2,275a3,3,0,0,0-2.19,3.32,5.53,5.53,0,0,1-1.86,4.56c-.18.17-.33.38-.5.56a2.46,2.46,0,0,0-.52,2.95,6.53,6.53,0,0,1,0,6,2.44,2.44,0,0,0,.62,3.09,6.79,6.79,0,0,1,2.29,5.64,2.25,2.25,0,0,0,1.53,2.37,7.21,7.21,0,0,1,4.52,4.49,2.28,2.28,0,0,0,2.42,1.58,6.77,6.77,0,0,1,5.57,2.25,2.53,2.53,0,0,0,3.17.66c.34-.15.72-.22,1.07-.37a4.78,4.78,0,0,1,3.85,0,8,8,0,0,0,2,.62" transform="translate(-464.84 -266.05)" fill="#363636"/><path d="M480.93,299.09c0,.72.27.87,1,.5,1.78-.93,3.58-1.84,5.33-2.82a1.8,1.8,0,0,1,1.93,0c1.74,1,3.5,1.85,5.26,2.77.27.13.55.39.86.14s.17-.57.12-.88c-.34-1.95-.65-3.9-1-5.85a1.78,1.78,0,0,1,.59-1.83c1.41-1.3,2.77-2.65,4.14-4,.25-.26.68-.49.54-.92s-.61-.38-1-.43c-1.9-.28-3.79-.56-5.69-.81a1.82,1.82,0,0,1-1.57-1.14c-.81-1.74-1.68-3.45-2.54-5.16-.17-.32-.23-.8-.68-.82s-.54.47-.7.79c-.85,1.68-1.72,3.36-2.5,5.07a2,2,0,0,1-1.77,1.29c-1.87.23-3.73.52-5.6.79-.34.05-.75,0-.91.38s.24.67.5.92c1.29,1.27,2.57,2.58,3.94,3.78a2.3,2.3,0,0,1,.76,2.5c-.4,1.9-.68,3.83-1,5.71m7.23,8a17.75,17.75,0,1,1,17.78-17.72,17.93,17.93,0,0,1-17.78,17.72" transform="translate(-464.84 -266.05)" fill="#fff"/></svg>
