<svg xmlns="http://www.w3.org/2000/svg" viewBox="0 0 49.78 48"><path d="M442.48,303.5a4.18,4.18,0,1,0-4.15-4.24,4.15,4.15,0,0,0,4.15,4.24m5.39-4.19a5.37,5.37,0,1,1-5.36-5.35,5.37,5.37,0,0,1,5.36,5.35" transform="translate(-398.09 -275.85)" fill="#fff"/><path d="M417.4,278.8a4.18,4.18,0,1,0,4.17,4.23,4.18,4.18,0,0,0-4.17-4.23m0-1.18A5.37,5.37,0,1,1,412,283a5.38,5.38,0,0,1,5.37-5.35" transform="translate(-398.09 -275.85)" fill="#fff"/><path d="M416.37,319.06a4.18,4.18,0,1,0-4.2-4.15,4.18,4.18,0,0,0,4.2,4.15m-5.37-4.2a5.37,5.37,0,1,1,5.44,5.39,5.38,5.38,0,0,1-5.44-5.39" transform="translate(-398.09 -275.85)" fill="#fff"/><path d="M407.81,303.34a.55.55,0,0,0,.22-.76,2.63,2.63,0,0,0-1.42-1.47c-.34-.14-.57-.09-.73.26a8.44,8.44,0,0,1-.63,1.19.69.69,0,0,1-1.28,0,10.33,10.33,0,0,1-.66-1.23.41.41,0,0,0-.6-.25,2.46,2.46,0,0,0-1.51,1.43.62.62,0,0,0,.27.85,5.44,5.44,0,0,0,6.34,0m30.43-15.71a4.91,4.91,0,0,0,3.23-1,.56.56,0,0,0,.22-.77,2.63,2.63,0,0,0-1.43-1.46c-.33-.14-.56-.1-.72.26a8.32,8.32,0,0,1-.63,1.18c-.15.21-.42.45-.63.44a1,1,0,0,1-.65-.43,10.46,10.46,0,0,1-.66-1.24.42.42,0,0,0-.6-.25,2.5,2.5,0,0,0-1.51,1.44.6.6,0,0,0,.27.84,4.9,4.9,0,0,0,3.11,1m.13,34.86a4.88,4.88,0,0,0,3.2-1.14.73.73,0,0,0,.21-.58A2.37,2.37,0,0,0,440,319a.49.49,0,0,0-.41.17c-.27.45-.47.93-.75,1.36-.13.2-.38.44-.58.44a1,1,0,0,1-.6-.42c-.28-.44-.47-.92-.74-1.36a.49.49,0,0,0-.41-.19,2.26,2.26,0,0,0-1.77,1.72.73.73,0,0,0,.23.61,5.16,5.16,0,0,0,3.38,1.14m-9.91-16.89c0-.31-.09-.6-.13-.89a.52.52,0,0,1,.43-.63.49.49,0,0,1,.66.37c.05.15.09.3.13.46.88-.39,1-.64.67-1.46a3.34,3.34,0,0,0-2.38-2.1.44.44,0,0,0-.59.26c-.3.63-.61,1.26-1,1.86-.13.22-.41.5-.6.48a1.05,1.05,0,0,1-.65-.5c-.36-.6-.64-1.25-1-1.85a.58.58,0,0,0-.48-.25,3.17,3.17,0,0,0-2.47,2.11c-.3.81-.17,1.06.71,1.4,0-.12.05-.23.07-.34a.51.51,0,0,1,.64-.47.51.51,0,0,1,.48.63,2.34,2.34,0,0,1-.07.45c-.1.35,0,.54.38.66a7.47,7.47,0,0,0,5.16-.19m14.34-20.43a5.19,5.19,0,0,0-.93-6.77,5.39,5.39,0,0,0-7.25.11,5.23,5.23,0,0,0-.82,6.65c.08-.16.16-.3.24-.44a3.61,3.61,0,0,1,3-1.81.72.72,0,0,1,.81.5,8.65,8.65,0,0,0,.44.84c.09-.16.17-.28.24-.41.52-1,.78-1.12,1.86-.79a3.85,3.85,0,0,1,2.4,2.12m-38.2,15.6c.16-.28.27-.5.38-.71.33-.64.53-.74,1.24-.62a3.73,3.73,0,0,1,2.68,1.84l.23.36a5.19,5.19,0,0,0-1.05-6.82,5.43,5.43,0,0,0-7.44.46c-1.6,1.73-1.87,5-.52,6.42l.13-.22.12-.22a3.64,3.64,0,0,1,2.82-1.77.84.84,0,0,1,1,.56,7.51,7.51,0,0,0,.38.72M433.79,320l.17-.31a3.6,3.6,0,0,1,3.06-2,.71.71,0,0,1,.83.47,8.51,8.51,0,0,0,.46.89c.15-.3.29-.52.39-.77a.9.9,0,0,1,1.08-.58,3.75,3.75,0,0,1,2.79,1.82l.25.41a5.48,5.48,0,0,0-.85-6.74,5.36,5.36,0,0,0-8.18,6.77m-8.24-17.85.75-1.57a.81.81,0,0,1,.88-.52,4.6,4.6,0,0,1,3.9,2.59c.08.14.15.29.23.45a6.85,6.85,0,0,0-1.35-9.33,7,7,0,0,0-9.86,1.14c-2.24,2.81-1.7,6.67-.28,8.21l.15-.31a4.63,4.63,0,0,1,3.76-2.66c.52-.07.9,0,1.11.58a14.44,14.44,0,0,0,.71,1.42m4.15-9.91,3.93-5.16a6.5,6.5,0,0,1-1.87-5.35,6.32,6.32,0,0,1,2.26-4.27,6.54,6.54,0,1,1,.53,10.34l-3.86,5.09a8.19,8.19,0,0,1,3,6.35,7.92,7.92,0,0,1-3,6.35c1.44,2,2.88,3.91,4.34,5.89a6.47,6.47,0,0,1,5.93-.19,6.28,6.28,0,0,1,3.23,3.34,6.5,6.5,0,0,1-2.66,8.36,6.43,6.43,0,0,1-8.37-1.59,6.55,6.55,0,0,1,1-9.14l-4.34-5.89a8,8,0,0,1-7.93.26,8.16,8.16,0,0,1-4.47-6.54h-6.34a6.58,6.58,0,0,1-8,5.31,6.55,6.55,0,0,1,1.33-12.94c3.55-.09,6,2.27,6.68,6.33h6.24a8.19,8.19,0,0,1,12.28-6.55" transform="translate(-398.09 -275.85)" fill="#fff"/><path d="M427.4,296.9a1.81,1.81,0,0,0-1.83-1.85,1.88,1.88,0,0,0-1.89,1.86,1.92,1.92,0,0,0,1.85,1.87,1.89,1.89,0,0,0,1.87-1.88m1.19,0a3,3,0,1,1-3.08-3,3,3,0,0,1,3.08,3" transform="translate(-398.09 -275.85)" fill="#fff"/><path d="M437,314.89a1.36,1.36,0,0,0,1.3,1.32,1.33,1.33,0,1,0,0-2.66,1.36,1.36,0,0,0-1.29,1.34m1.24,2.47a2.48,2.48,0,1,1,2.56-2.46,2.49,2.49,0,0,1-2.56,2.46" transform="translate(-398.09 -275.85)" fill="#fff"/><path d="M404.64,297.91a1.32,1.32,0,1,0-1.34-1.28,1.33,1.33,0,0,0,1.34,1.28m0,1.17a2.45,2.45,0,0,1-2.48-2.48,2.5,2.5,0,1,1,2.48,2.48" transform="translate(-398.09 -275.85)" fill="#fff"/><path d="M437,280a1.35,1.35,0,0,0,1.28,1.39,1.4,1.4,0,0,0,1.35-1.29,1.31,1.31,0,0,0-1.31-1.35A1.23,1.23,0,0,0,437,280m1.3-2.42a2.45,2.45,0,0,1,2.5,2.46,2.51,2.51,0,0,1-2.52,2.51,2.49,2.49,0,0,1,0-5" transform="translate(-398.09 -275.85)" fill="#fff"/></svg>
