<svg xmlns="http://www.w3.org/2000/svg" viewBox="0 0 50.43 48"><path d="M407.19,303.38h1.62c.84,0,.87-.58.87-1.2s.05-1.3-.88-1.31h-3.13c-.56,0-.81.29-.86.86-.14,1.37.08,1.65,1.45,1.66h.93m39.1-.81a3,3,0,0,0-.53-1.39l-6.42-11.53c-1.28-2.29-2.54-4.59-3.85-6.87-.16-.28-.24-1-.86-.52a2.26,2.26,0,0,0-.59,3l7.61,13.12,2.61,4.51a1.1,1.1,0,0,0,1.35.62.94.94,0,0,0,.68-1m-35,.71c0,2.52,0,5,0,7.54,0,.76.24,1.15,1.06,1.15,3.64,0,7.27,0,10.9,0a1.34,1.34,0,0,0,1.48-1.31c.1-.95-.59-1.05-1.25-1.17L415,307.84a2.91,2.91,0,0,1-2.74-3.26c0-2.86,0-5.72,0-8.58,0-.39.16-1-.43-1s-.45.62-.45,1c0,2.43,0,4.87,0,7.3m34.09,9.42c0-.85,0-1.7,0-2.55,0-1-.38-1.27-1.35-1-2.36.58-4.75,1.08-7.12,1.61s-2.49.56-1.08,2.73a8.1,8.1,0,0,0,8,3.49c1-.22,1.57-.72,1.52-1.81,0-.81,0-1.62,0-2.43m-41-.74c1.39,0,2.79,0,4.18,0,.79,0,1.11-.33,1.09-1.11,0-1.59,0-3.17,0-4.76,0-.8-.34-1.1-1.11-1.09-1.82,0-3.64,0-5.45,0-.78,0-1.09.3-1.13,1.09,0,.64.41,1.68-.81,1.66s-.67-1.07-.79-1.7c-.08-.4,0-.95-.58-1s-.59.51-.59.94c0,1.62,0,3.24,0,4.86,0,.83.4,1.08,1.15,1.07,1.35,0,2.7,0,4.05,0m30.08-33.08a1,1,0,0,0-.7-1.08c-.71-.24-1.17.18-1.57.7-3.33,4.26-6.68,8.51-10,12.79-1.93,2.49-1.91,2.51-.29,5.28.63,1.08.77,1.09,1.44.05q5.34-8.22,10.66-16.45a2.13,2.13,0,0,0,.45-1.29m-20.64,21.28v4.4a1.36,1.36,0,0,0,1.08,1.56c3,.61,6,1.17,9,1.76.45.09.81,0,.83-.52a6.15,6.15,0,0,0-.51-3.6c-1.14-1.88-2.2-3.81-3.31-5.71-2-3.36-2-3.35-5.82-3.24H415c-.87-.07-1.16.36-1.14,1.18,0,1.39,0,2.78,0,4.17m.75,22.27h0c4.13,0,8.26,0,12.39,0a2.86,2.86,0,0,0,2.87-2,3.16,3.16,0,0,0-.74-3.52,3.59,3.59,0,0,0-2.76-1q-11.82,0-23.63,0a3.21,3.21,0,0,0-3.51,3.32c0,2.06,1.25,3.15,3.57,3.16H414.6m0,1.63H402.77c-3.1,0-5.13-1.79-5.18-4.55a4.85,4.85,0,0,1,5-5.19c1.85-.07,3.71,0,5.57,0,.3,0,.62,0,.92,0s.41-.11.36-.35a.45.45,0,0,0-.32-.26,5.69,5.69,0,0,0-.92-.06c-2.75,0-5.49,0-8.24,0-1.91,0-2.38-.5-2.39-2.42s0-3.94,0-5.92c0-1.33.48-1.81,1.81-1.86q1.34,0,2.67,0c.78,0,1.15-.3,1.11-1.1a8.83,8.83,0,0,1,0-1.15,1.77,1.77,0,0,1,1.9-1.9c1.16-.05,2.32,0,3.48,0,.78,0,1.13-.31,1.11-1.1,0-1.12,0-2.24,0-3.36,0-1.55,0-1.59,1.54-1.59,2.09,0,4.17,0,6.26,0a2,2,0,0,0,1.77-.84q5.82-7.44,11.69-14.85c1-1.3,2.17-1.72,3.41-1.25s1.89,1.49,1.75,3.16a3,3,0,0,0,.4,1.76q5.16,9.29,10.29,18.56c.34.61.67,1.22.95,1.86a2.29,2.29,0,0,1-.05,2.23,4.71,4.71,0,0,0-.65,2.87c0,2.86,0,5.73,0,8.59,0,2-.82,2.88-2.77,3.19a9.67,9.67,0,0,1-10.14-4.74c-.8-1.37-1.53-2.77-2.31-4.15-.28-.5-.4-.91.22-1.26s1-.1,1.2.44c.35.79.92.88,1.71.7,3.09-.7,6.19-1.35,9.28-2,.59-.13,1.12-.26,1.18-1a1.11,1.11,0,0,0-1-1.31,3,3,0,0,1-1.69-1.66l-9.69-16.63c-.64-1.11-.68-1.11-1.39,0-2.48,3.82-4.94,7.66-7.44,11.48a1.6,1.6,0,0,0-.07,2.1,11.86,11.86,0,0,1,2.25,8.85,11.2,11.2,0,0,0,0,1.16,2.93,2.93,0,0,1-3,3.2c-1,.06-2,0-3,0-.27,0-.71-.07-.68.39s.41.3.67.3c2,0,3.94,0,5.91,0a6.28,6.28,0,0,1,3.12.78,4.81,4.81,0,0,1,2.25,5.17,4.52,4.52,0,0,1-4.37,3.79c-4.22,0-8.43,0-12.64,0Z" transform="translate(-397.58 -276.06)" fill="#fff"/><path d="M414.42,320.09c-2.24,0-4.48,0-6.72,0-.57,0-1.24.09-1.25-.8s.64-.82,1.22-.82q6.9,0,13.79,0c.6,0,1.22,0,1.2.85s-.62.77-1.17.77c-2.35,0-4.71,0-7.07,0" transform="translate(-397.58 -276.06)" fill="#fff"/><path d="M403.6,319.16c-.12.79-.5,1.31-1.28,1.28a1.09,1.09,0,0,1-1.12-1.2,1.14,1.14,0,0,1,1.19-1.16c.73,0,1.06.48,1.21,1.08" transform="translate(-397.58 -276.06)" fill="#fff"/></svg>
