<svg xmlns="http://www.w3.org/2000/svg" viewBox="0 0 62.73 60"><path d="M429.77,289.15a1.69,1.69,0,0,0-1.11-1.1l-16.81-5.3L401.61,268.4a1.7,1.7,0,0,0-2.78,0L388.6,282.75l-16.81,5.3a1.71,1.71,0,0,0-.86,2.64l10.48,14.17-.15,17.62a1.71,1.71,0,0,0,2.25,1.64l16.71-5.6,16.72,5.6a1.68,1.68,0,0,0,1.54-.24,1.71,1.71,0,0,0,.71-1.4L419,304.86l10.49-14.17A1.7,1.7,0,0,0,429.77,289.15Z" transform="translate(-368.86 -265.94)" fill="none" stroke="#363636" stroke-miterlimit="10" stroke-width="3.47"/><path d="M428,289.56a1.62,1.62,0,0,0-1-1l-15.78-5-9.6-13.47a1.61,1.61,0,0,0-1.31-.67,1.59,1.59,0,0,0-1.3.67l-9.61,13.47-15.78,5a1.62,1.62,0,0,0-1,1,1.59,1.59,0,0,0,.24,1.45l9.84,13.3-.15,16.54a1.6,1.6,0,0,0,2.12,1.54l15.68-5.25,15.69,5.25a1.75,1.75,0,0,0,.51.08,1.56,1.56,0,0,0,.94-.31,1.58,1.58,0,0,0,.66-1.31l-.14-16.54,9.84-13.3a1.59,1.59,0,0,0,.23-1.45" transform="translate(-368.86 -265.94)" fill="#fff"/><path d="M405.15,299.37h-7.26a.84.84,0,0,1-.43-1.56c3.17-1.87,4.81-4.05,5-6.67a1.79,1.79,0,0,1,1.8-1.62,3.53,3.53,0,0,1,3.49,3.54v.29a9.21,9.21,0,0,1-1.93,5.64.81.81,0,0,1-.7.38" transform="translate(-368.86 -265.94)" fill="#363636"/><path d="M414.05,300.32a2.63,2.63,0,0,0-2.63-2.63H397.89a.82.82,0,0,0-.43.12c-.95.56-1.9,1-2.68,1.39l-.75.37a.84.84,0,0,0-.46.75v10.75a.84.84,0,0,0,.46.75,19.39,19.39,0,0,0,9.5,1.9h6.07a2.63,2.63,0,0,0,2.63-2.63,2.54,2.54,0,0,0-.37-1.34,2.61,2.61,0,0,0,.9-3.58,2.63,2.63,0,0,0,.57-4,2.59,2.59,0,0,0,.72-1.81" transform="translate(-368.86 -265.94)" fill="#363636"/><path d="M412.31,293h-1.79a.84.84,0,0,1,0-1.68h1.79a.84.84,0,1,1,0,1.68" transform="translate(-368.86 -265.94)" fill="#363636"/><path d="M399.77,293H398a.84.84,0,1,1,0-1.68h1.79a.84.84,0,0,1,0,1.68" transform="translate(-368.86 -265.94)" fill="#363636"/><path d="M402.46,288.34a.84.84,0,0,1-.73-.42l-.9-1.55a.84.84,0,0,1,1.46-.84l.89,1.55a.84.84,0,0,1-.3,1.15.83.83,0,0,1-.42.11" transform="translate(-368.86 -265.94)" fill="#363636"/><path d="M407.83,288.34a.8.8,0,0,1-.42-.11.84.84,0,0,1-.31-1.15l.9-1.55a.84.84,0,0,1,1.45.84l-.89,1.55a.85.85,0,0,1-.73.42" transform="translate(-368.86 -265.94)" fill="#363636"/><path d="M394.4,297.69h-7.17a.85.85,0,0,0-.84.84v14.33a.86.86,0,0,0,.84.85h5.37a2.68,2.68,0,0,0,2.36-1.47,2.56,2.56,0,0,0,.28-1.17V298.53a.85.85,0,0,0-.84-.84" transform="translate(-368.86 -265.94)" fill="#363636"/><path d="M391.65,309.23v4.48H390v-4.48a.84.84,0,0,1,1.68,0" transform="translate(-368.86 -265.94)" fill="#fff"/></svg>
