<svg xmlns="http://www.w3.org/2000/svg" viewBox="0 0 66.32 60"><path d="M578.29,321.34c-2.89,2.12-5.54,3.87-6.93,4.31l-1.17.38-1-.63c-2-1.21-4-2.63-5.88-4-1.12-.81-2.21-1.6-3.33-2.34a75,75,0,0,1-14.5-12.46c-3.41-3.92-6.16-8.32-7.32-13a24.53,24.53,0,0,1-.59-8.9,21.81,21.81,0,0,1,5.11-11.61,20,20,0,0,1,17.79-6.9,21.22,21.22,0,0,1,9.15,3.44l.95.56.94-.55a21,21,0,0,1,9.55-3.5,19.71,19.71,0,0,1,7.47.59,20.89,20.89,0,0,1,13.93,13.31,24,24,0,0,1,.55,13.54A29.37,29.37,0,0,1,597,305a58.09,58.09,0,0,1-7.46,7.51c-1.49,1.29-6.79,5.57-11.25,8.83M570.71,320c1-.62,2.63-1.73,4.4-3,4.36-3.19,9.49-7.34,10.93-8.58a52.75,52.75,0,0,0,6.76-6.79,24,24,0,0,0,4.91-9.29,18.59,18.59,0,0,0-.37-10.52,15.56,15.56,0,0,0-5.87-7.79,15.26,15.26,0,0,0-4.44-2.1,14.1,14.1,0,0,0-5.44-.42,16.41,16.41,0,0,0-7.38,2.78c-.74.44-1.51.89-2.42,1.38l-1.25.66-1.26-.66c-.91-.49-1.69-.94-2.44-1.39a16.76,16.76,0,0,0-7.07-2.73,14.63,14.63,0,0,0-13.06,5.07,16.37,16.37,0,0,0-3.82,8.75,18.89,18.89,0,0,0,.46,6.95,27,27,0,0,0,6.16,10.76,69.33,69.33,0,0,0,13.43,11.51c1.13.75,2.29,1.59,3.47,2.44,1.39,1,2.8,2,4.3,3" transform="translate(-537.36 -266.03)" fill="#363636"/><path d="M570.54,322.57c2.77-.9,14.61-10.4,16.94-12.39,4-3.42,10.51-9.58,12.31-17.18,2.21-9.31-1.61-16.95-7.23-20.77a16.54,16.54,0,0,0-11.45-2.92c-5,.52-7.1,2.52-10.57,4.37-3.42-1.81-5.56-3.75-10.25-4.33-12.25-1.51-22.4,10-19,23.65,2.42,9.72,12.92,18.46,20.33,23.41,2.84,1.91,5.75,4.24,8.93,6.16" transform="translate(-537.36 -266.03)" fill="#fff"/><path d="M570.57,305.6h-.42a.23.23,0,0,0-.2.11l-1.2,2c-.39.62-.77,1.24-1.16,1.85l0,.07a.1.1,0,0,1-.15.05l-.27-.11-4.53-1.88-1-.42c-.14-.06-.14-.06-.11-.21.23-1,.46-2,.68-3l.33-1.39a.21.21,0,0,0-.07-.22c-.2-.19-.39-.39-.58-.59a.22.22,0,0,0-.24-.06l-2.68.62-1.67.38h0c-.12,0-.14,0-.19-.11l-.36-.86-2-4.86c-.08-.19-.08-.19.09-.29l3.75-2.33a.26.26,0,0,0,.15-.27,5.34,5.34,0,0,1,0-.8.23.23,0,0,0-.12-.21l-3.78-2.35,0,0c-.11-.07-.11-.08-.06-.2.2-.49.4-1,.61-1.47l1.74-4.21c.1-.24.1-.23.34-.18l4.29,1a.21.21,0,0,0,.24-.07,6.88,6.88,0,0,1,.54-.54.31.31,0,0,0,.09-.3c-.26-1.09-.51-2.18-.76-3.27l-.24-1c0-.17,0-.17.12-.23l4.6-1.91,1.13-.47c.16-.07.16-.07.25.08q1.15,1.88,2.33,3.75a.3.3,0,0,0,.3.17,6.42,6.42,0,0,1,.76,0,.26.26,0,0,0,.24-.13q1.14-1.86,2.31-3.72c.15-.25.1-.23.37-.12l5.55,2.31.06,0c.19.08.19.08.15.3-.33,1.41-.65,2.82-1,4.23a.36.36,0,0,1,0,.1.16.16,0,0,0,.07.2l.58.59a.22.22,0,0,0,.23.07l3.2-.74,1.17-.27c.16,0,.16,0,.22.12l1.46,3.51.91,2.19c.09.22.07.19-.09.29L582.77,293c-.29.18-.25.09-.25.45,0,.21,0,.42,0,.63a.27.27,0,0,0,.15.29c.59.35,1.17.72,1.76,1.09l2,1.24,0,0c.1.07.1.08.06.19s-.2.47-.29.71l-1.4,3.36-.71,1.71c-.06.14-.07.14-.21.11l-3.38-.77-1-.24a.21.21,0,0,0-.22.07,5.29,5.29,0,0,1-.58.58.21.21,0,0,0-.07.22c.14.58.27,1.17.41,1.76.2.87.4,1.74.59,2.61,0,.17,0,.17-.12.24l-3.9,1.62-1.78.74-.07,0c-.12.05-.13.05-.2-.06s-.19-.3-.28-.45l-2.07-3.32s0-.06,0-.09a.17.17,0,0,0-.17-.09h-.45" transform="translate(-537.36 -266.03)" fill="#363636"/><path d="M564.67,293.67a5.92,5.92,0,1,1,5.9,5.92,5.92,5.92,0,0,1-5.9-5.92" transform="translate(-537.36 -266.03)" fill="#fff"/></svg>
