<svg xmlns="http://www.w3.org/2000/svg" viewBox="0 0 44.47 48"><path d="M436.82,278.81c-1.82.76-3.54,1.47-5.25,2.2-.69.3-1.35.38-1.69-.41s.19-1.21.89-1.5c2.33-1,4.67-1.92,7-2.92a1.15,1.15,0,0,1,1.71.57c1.21,2.23,2.48,4.42,3.74,6.62.39.67.45,1.3-.3,1.71s-1.24,0-1.61-.67c-.81-1.45-1.64-2.88-2.53-4.46-.47,1.45-.84,2.75-1.29,4-4.56,12.74-13.66,20.24-26.72,23.16a51.1,51.1,0,0,1-8.62,1.11c-.78,0-1.48-.05-1.53-1s.6-1.11,1.4-1.15c6.9-.36,13.54-1.72,19.58-5.27,7.32-4.3,11.84-10.78,14.45-18.72.31-.95.54-1.92.81-2.88a1.62,1.62,0,0,0,0-.43" transform="translate(-400.62 -276.01)" fill="#fff"/><path d="M443.46,309.54h0c0-4,0-7.94,0-11.91,0-.8-.25-1.16-1.09-1.14-1.3.05-2.61.05-3.91,0-.86,0-1.19.3-1.17,1.16,0,1.87,0,3.74,0,5.61,0,5.94,0,11.88,0,17.81,0,.84.16,1.34,1.15,1.29,1.23-.05,2.47,0,3.7,0s1.32-.08,1.32-1.3V309.54m-7.78-.11c0-4,0-7.94,0-11.91,0-2,.62-2.6,2.65-2.61h4.1c2.06,0,2.64.57,2.64,2.6q0,10.2,0,20.41c0,1.27,0,2.54,0,3.81a2,2,0,0,1-2.23,2.23c-1.47,0-2.94,0-4.41,0-2.12,0-2.76-.63-2.76-2.73,0-3.94,0-7.87,0-11.81Z" transform="translate(-400.62 -276.01)" fill="#fff"/><path d="M421.25,315c0,2.1,0,4.21,0,6.31,0,.72.26,1,1,1,1.34,0,2.67,0,4,0,.71,0,1-.24,1-1q0-6.3,0-12.61c0-.73-.28-1-1-1-1.3,0-2.6.05-3.9,0-.9,0-1.14.36-1.13,1.2,0,2,0,4.07,0,6.1m7.63.06c0,2.21,0,4.41,0,6.61a2,2,0,0,1-2.21,2.23q-2.35,0-4.71,0c-1.66,0-2.32-.71-2.33-2.32q0-6.57,0-13.13c0-1.55.6-2.24,2.13-2.29s3.34-.06,5,0,2.1.68,2.1,2.29c0,2.2,0,4.41,0,6.61" transform="translate(-400.62 -276.01)" fill="#fff"/><path d="M411,318.56c0-.94,0-1.87,0-2.8,0-.66-.24-1-.93-1-1.4,0-2.8,0-4.2,0-.69,0-.93.32-.93,1,0,1.89,0,3.79,0,5.69,0,.62.22.91.87.9,1.44,0,2.87,0,4.3,0,.65,0,.89-.28.88-.91,0-1,0-1.93,0-2.89m1.6.07c0,1.06,0,2.13,0,3.19,0,1.55-.59,2.15-2.1,2.17-1.7,0-3.4,0-5.1,0a1.82,1.82,0,0,1-2-2q0-3.35,0-6.7a1.74,1.74,0,0,1,2-2c1.77,0,3.54,0,5.3,0,1.32,0,1.87.58,1.93,1.9,0,.56,0,1.13,0,1.7v1.7" transform="translate(-400.62 -276.01)" fill="#fff"/></svg>
