<svg xmlns="http://www.w3.org/2000/svg" viewBox="0 0 51.15 60"><path d="M421.62,267.39a99.42,99.42,0,0,0,23.73,10.2c1.31.37,1.48.61,1.48,2,0,4.47.07,8.94,0,13.41a36.35,36.35,0,0,1-10.08,24.79,37.94,37.94,0,0,1-10.91,8.16,17.29,17.29,0,0,1-4.18,1.46h-.7c-9-2.12-19.08-11.71-22.73-21.66a40.45,40.45,0,0,1-2.49-14.15c0-4,0-8.05,0-12.07,0-1.29.19-1.56,1.42-1.9a96.47,96.47,0,0,0,17.39-6.71c2.17-1.09,4.31-2.25,6.4-3.51Z" transform="translate(-395.7 -267.39)" fill="#363636"/><path d="M444.35,287.84c0-2.62,0-4.94,0-7.27a.72.72,0,0,0-.61-.85,100.54,100.54,0,0,1-22-9.34.9.9,0,0,0-1.06,0,99.14,99.14,0,0,1-22,9.36c-.28.08-.55.12-.54.54.1,5.09-.21,10.19.22,15.28a33.6,33.6,0,0,0,3.44,12.2A35.2,35.2,0,0,0,410.72,319a33.16,33.16,0,0,0,8.56,5.34,4.39,4.39,0,0,0,3.73.1c.54-.26,1.11-.46,1.65-.74A35.63,35.63,0,0,0,440,309.1a33.58,33.58,0,0,0,4.16-13.54c.25-2.67.18-5.34.2-7.72" transform="translate(-395.7 -267.39)" fill="#fff"/><path d="M417.15,306.76a2,2,0,0,0,1.47-.74l14.95-15c.93-.93,1.05-1.82.34-2.55s-1.64-.64-2.59.31l-12.93,12.92c-.87.87-1.47.87-2.33,0-1.7-1.69-3.39-3.4-5.1-5.08a1.59,1.59,0,1,0-2.27,2.22l7.33,7.33a1.74,1.74,0,0,0,1.13.54" transform="translate(-395.7 -267.39)" fill="#363636"/><path d="M417.15,306.76a2,2,0,0,0,1.47-.74l14.95-15c.93-.93,1.05-1.82.34-2.55s-1.64-.64-2.59.31l-12.93,12.92c-.87.87-1.47.87-2.33,0-1.7-1.69-3.39-3.4-5.1-5.08a1.59,1.59,0,1,0-2.27,2.22l7.33,7.33A1.74,1.74,0,0,0,417.15,306.76Z" transform="translate(-395.7 -267.39)" fill="none" stroke="#363636" stroke-miterlimit="10" stroke-width="3.28"/><path d="M400.68,285.11V283a1.38,1.38,0,0,1,1.12-1.56c2.15-.71,4.29-1.45,6.4-2.26a1.57,1.57,0,0,1,.91-.15,1.25,1.25,0,0,1,1,1.07,1.23,1.23,0,0,1-.83,1.33c-1.05.42-2.12.81-3.18,1.19-.8.29-1.61.58-2.43.82a.6.6,0,0,0-.5.71c0,1.1,0,2.19,0,3.28a1.29,1.29,0,0,1-.76,1.28,1.2,1.2,0,0,1-1.27-.17,1.39,1.39,0,0,1-.48-1.2c0-.75,0-1.49,0-2.23" transform="translate(-395.7 -267.39)" fill="#363636"/><path d="M426.85,317.1a1.42,1.42,0,0,1,.63-1c.74-.63,1.5-1.25,2.22-1.9a29.63,29.63,0,0,0,4.68-5.44,1.51,1.51,0,0,1,1-.79,1.23,1.23,0,0,1,1.28,1.92c-.57.83-1.15,1.67-1.78,2.46a35.16,35.16,0,0,1-5.87,5.76,1.24,1.24,0,0,1-2.12-1" transform="translate(-395.7 -267.39)" fill="#363636"/><path d="M423.72,319.33A1.3,1.3,0,0,1,425,318a1.24,1.24,0,0,1,1.22,1.23,1.36,1.36,0,0,1-1.32,1.3,1.24,1.24,0,0,1-1.21-1.24" transform="translate(-395.7 -267.39)" fill="#363636"/><path d="M412.52,277.51a1.29,1.29,0,0,1,1.22,1.25,1.31,1.31,0,0,1-1.29,1.25,1.29,1.29,0,0,1-1.22-1.25,1.32,1.32,0,0,1,1.29-1.25" transform="translate(-395.7 -267.39)" fill="#363636"/></svg>
