<svg xmlns="http://www.w3.org/2000/svg" viewBox="0 0 51.36 48"><path d="M415.75,293.57h1.64l17.7-.22c.79,0,2,.36,2.28-.23s-.8-1.22-1.21-1.88a9.22,9.22,0,0,0-.62-.78c-1.7-2.17-1.25-4.17,1.23-5.33,1.81-.85,3.65-1.63,5.47-2.46a7.14,7.14,0,0,0,1.25-.67.88.88,0,0,0,.43-1.1,1,1,0,0,0-1.2-.51,6.89,6.89,0,0,0-1.07.4c-2,.91-4.06,1.88-6.14,2.71a2.94,2.94,0,0,1-4.24-2.41c-.14-.75-.21-1.51-.32-2.26-.06-.46.14-1.13-.34-1.3s-.84.5-1.17.86c-2.09,2.28-4.16,4.58-6.23,6.87l-7.46,8.31m10.71,2.49H415.75c-1.09,0-2.15-.12-2.68-1.22s0-2.12.79-3q7.5-8.31,15-16.62a2.54,2.54,0,0,1,2.75-1.06c1.12.34,1.42,1.32,1.57,2.34s.38,2.25.45,3.39.52,1.5,1.63,1c2-.93,4-1.81,6-2.7a4.07,4.07,0,0,1,3.06-.17,3.07,3.07,0,0,1,2.19,2.74,3.4,3.4,0,0,1-1.94,3.53c-1.94,1-4,1.85-5.95,2.77-1.84.84-1.86,1-.52,2.57a27.19,27.19,0,0,1,2.14,2.67c1.07,1.65.41,3.16-1.53,3.48-2.59.42-5.22.14-7.83.2-1.48,0-2.95,0-4.43,0Z" transform="translate(-395.17 -274.08)" fill="#fff"/><path d="M395.21,289.14c0-1.47,0-2.95,0-4.42,0-.87.27-1.34,1.2-1.34,3,0,5.89,0,8.84,0,.92,0,1.28.45,1.24,1.32a6.66,6.66,0,0,0,0,1c.16,1.37-.43,1.88-1.8,1.79s-2.85,0-4.27,0c-1,0-1.34.37-1.31,1.34.05,1.57,0,3.14,0,4.7,0,1-.29,1.55-1.37,1.43a4.12,4.12,0,0,0-.86,0c-1.26.16-1.83-.29-1.72-1.65s0-2.75,0-4.13" transform="translate(-395.17 -274.08)" fill="#fff"/><path d="M400.74,322.06c-1.47,0-2.95,0-4.43,0-.78,0-1.11-.33-1.1-1.11q0-4.5,0-9c0-.87.39-1.21,1.21-1.18a8.66,8.66,0,0,0,1.14,0c1.15-.11,1.66.33,1.59,1.54-.08,1.37.06,2.76,0,4.14s.3,1.83,1.67,1.72,2.85,0,4.28,0c1.06-.05,1.49.39,1.43,1.41,0,.48,0,1,0,1.43,0,.78-.38,1.11-1.16,1.09-1.52,0-3,0-4.57,0" transform="translate(-395.17 -274.08)" fill="#fff"/><path d="M425.64,322.06c-1.38,0-2.76,0-4.14,0-1,0-1.45-.27-1.46-1.36,0-2.57-.07-2.57,2.54-2.57,1.28,0,2.57,0,3.85,0,.8,0,1.11-.34,1.1-1.12,0-1.62,0-3.24,0-4.85,0-1.07.43-1.41,1.44-1.42,2.34,0,2.4,0,2.39,2.33,0,2.52,0,5.05,0,7.57,0,1-.36,1.47-1.43,1.42-1.42-.06-2.85,0-4.28,0" transform="translate(-395.17 -274.08)" fill="#fff"/><path d="M399.12,302.9c0,1.05,0,2.1,0,3.14,0,.86-.36,1.14-1.2,1.18-2.71.13-2.71.16-2.72-2.5,0-1.62.05-3.24,0-4.85,0-1.06.38-1.49,1.41-1.41a11.39,11.39,0,0,0,1.43,0c.8,0,1.1.39,1.08,1.15,0,1.09,0,2.19,0,3.28" transform="translate(-395.17 -274.08)" fill="#fff"/><path d="M431.35,303v1.71c0,2.65-.27,2.87-2.86,2.55-.64-.08-.95-.34-.95-1q0-3.35,0-6.7c0-.7.33-1.06,1-1,.52,0,1,0,1.57,0,.85,0,1.2.39,1.2,1.2,0,1.1,0,2.19,0,3.28h0" transform="translate(-395.17 -274.08)" fill="#fff"/><path d="M413.15,287.46H412c-2,0-2.07-.1-2.13-2.18,0-1.37.36-2,1.85-1.93a32.5,32.5,0,0,0,3.42,0c.93,0,1.44.34,1.36,1.34,0,.24,0,.48,0,.71,0,2,0,2-2.08,2h-1.28" transform="translate(-395.17 -274.08)" fill="#fff"/><path d="M413.22,318.14h1.42c1.84,0,1.87,0,1.87,1.93s0,2-1.95,2c-1.14,0-2.28,0-3.41,0-.84,0-1.24-.32-1.24-1.15,0-.38,0-.76,0-1.14-.11-1.19.34-1.79,1.61-1.65a16.24,16.24,0,0,0,1.71,0" transform="translate(-395.17 -274.08)" fill="#fff"/></svg>
