<svg xmlns="http://www.w3.org/2000/svg" viewBox="0 0 500 915.72"><path d="M162,16.88A9,9,0,0,1,168.23,19l-1.91,3a6.48,6.48,0,0,0-4-1.5c-3.41,0-4.8,2.18-4.8,4.59a4.62,4.62,0,0,0,4.67,4.94,5.54,5.54,0,0,0,3.29-1.18V27.62h-2.29V24.23h5.82v9.19h-3.32V33c0-.34,0-.68,0-.68h0a6.75,6.75,0,0,1-4.28,1.41c-4.16,0-8-3.12-8-8.44A8.23,8.23,0,0,1,162,16.88Z" fill="#363436"/><path d="M181.15,16.88a8.22,8.22,0,0,1,8.51,8.3,8.51,8.51,0,1,1-17,0A8.22,8.22,0,0,1,181.15,16.88Zm0,13.17a4.58,4.58,0,0,0,4.39-4.87,4.4,4.4,0,1,0-8.78,0A4.59,4.59,0,0,0,181.15,30.05Z" fill="#363436"/><path d="M194.06,17.15h4V30h6.64v3.42H194.06Z" fill="#363436"/><path d="M208.57,17.15h5.78c5.12,0,8.39,3,8.39,8.1s-3.27,8.17-8.39,8.17h-5.78ZM214.19,30c2.75,0,4.43-1.63,4.43-4.75s-1.75-4.69-4.43-4.69h-1.64V30Z" fill="#363436"/><path d="M227.25,17.15h10.19v3.41h-6.21v3h5v3.41h-5V30h6.53v3.42H227.25Z" fill="#363436"/><path d="M242.31,17.15h4l4.5,7.6a28.05,28.05,0,0,1,1.36,2.77h.05s-.18-1.75-.18-2.77v-7.6h4V33.42h-4l-4.52-7.58a29.16,29.16,0,0,1-1.37-2.77h0s.18,1.75.18,2.77v7.58h-4Z" fill="#363436"/><path d="M266.45,17.15h4.32l2.87,9.26c.31,1,.61,2.62.61,2.62h0s.3-1.6.62-2.62l2.91-9.26h4.25l-5.73,16.27H272.2Z" fill="#363436"/><path d="M285.56,17.15h4V33.42h-4Z" fill="#363436"/><path d="M296,28.34A6.76,6.76,0,0,0,299.84,30c.82,0,1.71-.32,1.71-1.3,0-1.93-7.32-1.87-7.32-6.87,0-3,2.52-5,5.75-5a7.38,7.38,0,0,1,5.23,1.84L303.53,22a6.23,6.23,0,0,0-3.6-1.43c-.81,0-1.72.37-1.72,1.28,0,2,7.32,1.68,7.32,6.82,0,2.71-2.07,5-5.73,5a8.41,8.41,0,0,1-5.94-2.32Z" fill="#363436"/><path d="M318.11,30H313l-1,3.42H308l5.52-16.27h4.19l5.53,16.27h-4.1Zm-2.55-9.14s-.36,1.77-.66,2.8L314,26.82h3.21l-.91-3.16c-.3-1-.66-2.8-.66-2.8Z" fill="#363436"/><path d="M341.79,30h-5.07l-1,3.42h-4.09l5.53-16.27h4.18l5.53,16.27H342.8Zm-2.54-9.14s-.37,1.77-.66,2.8l-.94,3.16h3.21L340,23.66c-.29-1-.66-2.8-.66-2.8Z" fill="#363436"/><path d="M350.42,17.15h6.75c3.17,0,5.3,2.32,5.3,5.6s-2.13,5.64-5.3,5.64H354.4v5h-4ZM356.35,25a2,2,0,0,0,2.08-2.23,1.94,1.94,0,0,0-2-2.19h-2V25Z" fill="#363436"/><path d="M366.55,17.15h6.75c3.17,0,5.3,2.32,5.3,5.6s-2.13,5.64-5.3,5.64h-2.77v5h-4ZM372.49,25a2,2,0,0,0,2.07-2.23,1.94,1.94,0,0,0-2-2.19h-2V25Z" fill="#363436"/><path d="M382.68,17.15h4V30h6.64v3.42H382.68Z" fill="#363436"/><path d="M397.19,17.15h4V33.42h-4Z" fill="#363436"/><path d="M414.12,16.88a8.46,8.46,0,0,1,6.09,2.3l-1.84,3a6.83,6.83,0,0,0-4.07-1.66,4.39,4.39,0,0,0-4.59,4.64,4.62,4.62,0,0,0,4.59,4.89,6.65,6.65,0,0,0,4.32-2L420.67,31a8.93,8.93,0,0,1-6.55,2.73,8.16,8.16,0,0,1-8.53-8.44A8.27,8.27,0,0,1,414.12,16.88Z" fill="#363436"/><path d="M432.93,30h-5.07l-1,3.42h-4.09l5.53-16.27h4.18L438,33.42h-4.1Zm-2.54-9.14s-.37,1.77-.66,2.8l-.94,3.16H432l-.91-3.16c-.3-1-.66-2.8-.66-2.8Z" fill="#363436"/><path d="M443.81,20.56h-4.94V17.15h13.86v3.41h-4.94V33.42h-4Z" fill="#363436"/><path d="M456.43,17.15h4V33.42h-4Z" fill="#363436"/><path d="M473.34,16.88a8.22,8.22,0,0,1,8.5,8.3,8.51,8.51,0,1,1-17,0A8.22,8.22,0,0,1,473.34,16.88Zm0,13.17a4.59,4.59,0,0,0,4.39-4.87,4.4,4.4,0,1,0-8.78,0A4.58,4.58,0,0,0,473.34,30.05Z" fill="#363436"/><path d="M486.26,17.15h4l4.5,7.6a29.16,29.16,0,0,1,1.37,2.77h0s-.18-1.75-.18-2.77v-7.6h4V33.42h-4l-4.53-7.58a29.16,29.16,0,0,1-1.37-2.77h0s.18,1.75.18,2.77v7.58h-4Z" fill="#363436"/><path d="M154.08,60.72a3.51,3.51,0,0,1-.07-.53c0-.17,0-.33,0-.5a4.93,4.93,0,0,1,.35-1.89,6.26,6.26,0,0,1,.93-1.53A9.34,9.34,0,0,1,156.58,55c.49-.39,1-.76,1.51-1.12l1.5-1.06a8.91,8.91,0,0,0,1.31-1.09,4.87,4.87,0,0,0,.93-1.23,3.13,3.13,0,0,0,.35-1.47,3.09,3.09,0,0,0-.24-1.22,2.86,2.86,0,0,0-.67-1,3.09,3.09,0,0,0-1.05-.64,3.7,3.7,0,0,0-1.36-.24,3.1,3.1,0,0,0-.83.1,4.16,4.16,0,0,0-.73.24,4,4,0,0,0-.61.35l-.5.4a5,5,0,0,0-.9,1.09l-1.19-.79a6.07,6.07,0,0,1,1.83-2,6,6,0,0,1,.83-.47,5.58,5.58,0,0,1,1-.32,5,5,0,0,1,1.19-.13,5.76,5.76,0,0,1,2.05.35,4.74,4.74,0,0,1,1.53,1,4.06,4.06,0,0,1,1,1.42,4.92,4.92,0,0,1,0,3.57,5.66,5.66,0,0,1-.92,1.47,9,9,0,0,1-1.3,1.23c-.48.38-1,.74-1.48,1.08s-1,.69-1.48,1a9.43,9.43,0,0,0-1.3,1.08,4.79,4.79,0,0,0-.92,1.21,2.91,2.91,0,0,0-.35,1.45h8.34v1.41Z" fill="#363436"/><path d="M167.85,53.6h11.37v1.32H167.85Z" fill="#363436"/><path d="M182.86,59.31h3.59V47.24c0-.11,0-.21,0-.29a2.28,2.28,0,0,1,0-.27h0a2.06,2.06,0,0,1-.15.24l-.25.31a4.7,4.7,0,0,1-.39.4l-1.71,1.71-1-1,3.61-3.6H188V59.31h3.52v1.41h-8.67Z" fill="#363436"/><path d="M194.42,57.62a3.92,3.92,0,0,0,.89.93,5.41,5.41,0,0,0,.5.35,3.92,3.92,0,0,0,.62.29,5.33,5.33,0,0,0,.74.22,4.76,4.76,0,0,0,.86.07,4.39,4.39,0,0,0,1.55-.27,4,4,0,0,0,1.27-.78,3.67,3.67,0,0,0,.86-1.19,3.81,3.81,0,0,0,0-3,3.56,3.56,0,0,0-.87-1.19,4,4,0,0,0-1.28-.78,5.06,5.06,0,0,0-2.77-.14c-.35.1-.66.2-.92.3a6.3,6.3,0,0,0-.82.42l-1-.35.87-7.77h7.73v1.41h-6.37l-.45,4.1a2.77,2.77,0,0,1-.06.38c0,.11,0,.21-.05.29s0,.17-.06.24h.05a3.67,3.67,0,0,1,.69-.31,6.53,6.53,0,0,1,.76-.22,5.06,5.06,0,0,1,1-.09,5.87,5.87,0,0,1,2.21.4,5.18,5.18,0,0,1,2.88,2.78,5.15,5.15,0,0,1,.41,2,5,5,0,0,1-.43,2.07A5.07,5.07,0,0,1,202,59.47a5.35,5.35,0,0,1-1.76,1.12,5.86,5.86,0,0,1-2.18.4,5.62,5.62,0,0,1-1.12-.1,6.1,6.1,0,0,1-1-.25,4.31,4.31,0,0,1-.81-.36c-.24-.14-.45-.28-.65-.42a4.75,4.75,0,0,1-1.14-1.14Z" fill="#363436"/><path d="M212.11,55a7.38,7.38,0,0,1,.39-2.46,5.65,5.65,0,0,1,1.06-1.88,4.75,4.75,0,0,1,1.63-1.22,5,5,0,0,1,2.07-.42,4.75,4.75,0,0,1,1,.09,4.07,4.07,0,0,1,.79.25,3.36,3.36,0,0,1,.65.35,4.3,4.3,0,0,1,.51.4,3.52,3.52,0,0,1,.82,1.07h0l0-.25c0-.08,0-.17,0-.27s0-.22,0-.34V44.72h1.54v16H221V59.17a1.81,1.81,0,0,1,0-.25,1.38,1.38,0,0,1,0-.22h0a4.08,4.08,0,0,1-.85,1.15,4,4,0,0,1-.53.43,3.37,3.37,0,0,1-.68.36,4.62,4.62,0,0,1-.84.25,5.31,5.31,0,0,1-3.12-.33,4.72,4.72,0,0,1-1.57-1.24,5.62,5.62,0,0,1-1-1.9A8.12,8.12,0,0,1,212.11,55Zm1.6,0A6.36,6.36,0,0,0,214,56.9a4.4,4.4,0,0,0,.74,1.45,3.24,3.24,0,0,0,2.6,1.26,3.7,3.7,0,0,0,1.39-.27,3.21,3.21,0,0,0,1.19-.83,4,4,0,0,0,.82-1.43A6.18,6.18,0,0,0,221,55a6.44,6.44,0,0,0-.23-1.69,4.7,4.7,0,0,0-.67-1.47,3.44,3.44,0,0,0-1.14-1,3.2,3.2,0,0,0-1.61-.39,3.35,3.35,0,0,0-2.6,1.21,4.68,4.68,0,0,0-.79,1.45A6.11,6.11,0,0,0,213.71,55Z" fill="#363436"/><path d="M225.33,57.6a3.21,3.21,0,0,1,.39-1.64,3.51,3.51,0,0,1,1-1.11,4.93,4.93,0,0,1,1.38-.68,11.17,11.17,0,0,1,1.55-.36,13.6,13.6,0,0,1,1.5-.15l1.2,0H233v-.3a4,4,0,0,0-.21-1.39,2.3,2.3,0,0,0-.6-.91,2.16,2.16,0,0,0-.9-.5,4.14,4.14,0,0,0-1.14-.15,4.45,4.45,0,0,0-1.3.17,5.63,5.63,0,0,0-1,.38,5.36,5.36,0,0,0-.91.55l-.72-1.19a6,6,0,0,1,1.06-.65,9.87,9.87,0,0,1,1.28-.45,6.83,6.83,0,0,1,1.72-.2,4.27,4.27,0,0,1,3.18,1.11,4.52,4.52,0,0,1,1.1,3.29v7.32H233V59.46c0-.14,0-.27,0-.39a2.36,2.36,0,0,1,0-.3,2.11,2.11,0,0,1,0-.26H233a4.28,4.28,0,0,1-1.35,1.7,4.62,4.62,0,0,1-.66.4,4.75,4.75,0,0,1-.83.28,4.28,4.28,0,0,1-1,.1,4.82,4.82,0,0,1-1.41-.21,3.87,3.87,0,0,1-1.25-.63,3.17,3.17,0,0,1-.89-1.06A3.21,3.21,0,0,1,225.33,57.6Zm1.59-.09a2.23,2.23,0,0,0,.16.79,2.15,2.15,0,0,0,.48.69,2.35,2.35,0,0,0,.8.49,2.92,2.92,0,0,0,1.12.19,2.8,2.8,0,0,0,1.46-.39,3.75,3.75,0,0,0,1.1-1,4.39,4.39,0,0,0,.7-1.36,5,5,0,0,0,.24-1.5v-.5h-1.69c-.38,0-.77,0-1.17.1a8,8,0,0,0-1.18.24,3.94,3.94,0,0,0-1,.45,2.39,2.39,0,0,0-.73.72A2,2,0,0,0,226.92,57.51Z" fill="#363436"/><path d="M237,63.58a3.62,3.62,0,0,0,.41.27,2.14,2.14,0,0,0,.43.18,1.7,1.7,0,0,0,.51.08A1.63,1.63,0,0,0,239,64a2.33,2.33,0,0,0,.59-.39,3.28,3.28,0,0,0,.49-.6,4.63,4.63,0,0,0,.39-.73l.71-1.61-4.79-11.36h1.71l3.37,8.35c.06.15.11.29.16.43s.09.27.13.39l.12.39h0l.11-.39.13-.39a4.43,4.43,0,0,1,.15-.43l3.3-8.35h1.68L241.7,63.11a4.17,4.17,0,0,1-1.31,1.73,3.13,3.13,0,0,1-2,.65,2.92,2.92,0,0,1-.82-.1,4.64,4.64,0,0,1-.64-.23,3,3,0,0,1-.55-.34Z" fill="#363436"/><path d="M249.36,58.22a4,4,0,0,0,.9.7,7.26,7.26,0,0,0,1.07.47,4.54,4.54,0,0,0,1.44.22,3.24,3.24,0,0,0,.89-.12,2.25,2.25,0,0,0,.73-.35,1.56,1.56,0,0,0,.68-1.36,1.28,1.28,0,0,0-.26-.8,2.8,2.8,0,0,0-.7-.61,6.52,6.52,0,0,0-1-.48L252,55.43c-.39-.15-.77-.33-1.13-.51a5,5,0,0,1-1-.66,3,3,0,0,1-.7-.89,2.67,2.67,0,0,1-.26-1.21,2.7,2.7,0,0,1,.32-1.35,3.06,3.06,0,0,1,.86-1,3.88,3.88,0,0,1,1.24-.61,5.58,5.58,0,0,1,1.49-.2,5.19,5.19,0,0,1,1.56.2,5.37,5.37,0,0,1,1.1.43,3.88,3.88,0,0,1,.86.62l-.7,1.18a3.33,3.33,0,0,0-.72-.52,4.94,4.94,0,0,0-.9-.36,4.26,4.26,0,0,0-1.25-.16,3.33,3.33,0,0,0-.84.1,2.09,2.09,0,0,0-.73.31,1.59,1.59,0,0,0-.51.55,1.57,1.57,0,0,0-.19.81,1.23,1.23,0,0,0,.26.81,2.44,2.44,0,0,0,.7.6,6.89,6.89,0,0,0,1,.49l1.14.44a11.47,11.47,0,0,1,1.13.51,4.21,4.21,0,0,1,1,.66,2.88,2.88,0,0,1,.7.89,2.58,2.58,0,0,1,.27,1.22,2.91,2.91,0,0,1-.29,1.29,3,3,0,0,1-.8,1,4,4,0,0,1-1.24.67,5.19,5.19,0,0,1-1.58.23,5.93,5.93,0,0,1-3.15-.83,4.83,4.83,0,0,1-1.08-.83Z" fill="#363436"/><path d="M154.54,98.92h5.66a8.49,8.49,0,0,1,3.16.38,4.74,4.74,0,0,1,3,4.74,5,5,0,0,1-2.44,4.43v0a8.7,8.7,0,0,1,.62,1l3.16,5.69h-4.44l-2.89-5.48h-1.86v5.48h-4Zm5.71,7.37a1.87,1.87,0,0,0,2.07-2c0-1.23-.46-2-2.46-2h-1.34v4Z" fill="#363436"/><path d="M171.74,98.92h10.19v3.41h-6.21v3h5v3.41h-5v3.07h6.53v3.41H171.74Z" fill="#363436"/><path d="M187.69,110.11a6.73,6.73,0,0,0,3.88,1.68c.82,0,1.71-.32,1.71-1.29,0-1.94-7.32-1.87-7.32-6.87,0-3,2.52-5,5.75-5a7.38,7.38,0,0,1,5.23,1.84l-1.68,3.25a6.22,6.22,0,0,0-3.59-1.43c-.82,0-1.73.36-1.73,1.27,0,2,7.32,1.68,7.32,6.82,0,2.71-2.07,5-5.73,5a8.41,8.41,0,0,1-5.94-2.32Z" fill="#363436"/><path d="M201.7,98.92h4v16.26h-4Z" fill="#363436"/><path d="M211.21,98.92H217c5.11,0,8.39,3,8.39,8.1s-3.28,8.16-8.39,8.16h-5.78Zm5.62,12.85c2.75,0,4.43-1.64,4.43-4.75s-1.75-4.69-4.43-4.69h-1.64v9.44Z" fill="#363436"/><path d="M229.89,98.92h10.19v3.41h-6.21v3h5v3.41h-5v3.07h6.53v3.41H229.89Z" fill="#363436"/><path d="M245,98.92h4l4.51,7.6a29.42,29.42,0,0,1,1.36,2.77h0s-.18-1.75-.18-2.77v-7.6h4v16.26h-4l-4.52-7.57a28.83,28.83,0,0,1-1.37-2.78h0s.18,1.75.18,2.78v7.57h-4Z" fill="#363436"/><path d="M271.63,98.65a8.49,8.49,0,0,1,6.1,2.29l-1.84,3a6.83,6.83,0,0,0-4.07-1.66,4.4,4.4,0,0,0-4.6,4.64,4.63,4.63,0,0,0,4.6,4.9,6.67,6.67,0,0,0,4.32-2l2,2.91a8.9,8.9,0,0,1-6.55,2.73A8.16,8.16,0,0,1,263.1,107,8.27,8.27,0,0,1,271.63,98.65Z" fill="#363436"/><path d="M285.67,108.52l-5.37-9.6h4.53l1.84,3.91c.52,1.11,1,2.34,1,2.34h0s.46-1.23,1-2.34l1.82-3.91H295l-5.37,9.6v6.66h-4Z" fill="#363436"/><path d="M313.61,111.77h-5.08l-1,3.41h-4.1L309,98.92h4.19l5.52,16.26h-4.09Zm-2.55-9.14s-.36,1.77-.66,2.79l-.93,3.16h3.2l-.91-3.16c-.29-1-.65-2.79-.65-2.79Z" fill="#363436"/><path d="M322.23,98.92H329c3.16,0,5.3,2.32,5.3,5.59s-2.14,5.64-5.3,5.64h-2.78v5h-4Zm5.94,7.82a2,2,0,0,0,2.07-2.23,1.93,1.93,0,0,0-2-2.18h-2v4.41Z" fill="#363436"/><path d="M338.36,98.92h6.76c3.16,0,5.3,2.32,5.3,5.59s-2.14,5.64-5.3,5.64h-2.78v5h-4Zm5.94,7.82a2,2,0,0,0,2.07-2.23,1.93,1.93,0,0,0-2-2.18h-2v4.41Z" fill="#363436"/><path d="M354.49,98.92h4v12.85h6.64v3.41H354.49Z" fill="#363436"/><path d="M369,98.92h4v16.26h-4Z" fill="#363436"/><path d="M385.93,98.65a8.49,8.49,0,0,1,6.1,2.29l-1.85,3a6.83,6.83,0,0,0-4.07-1.66,4.4,4.4,0,0,0-4.59,4.64,4.63,4.63,0,0,0,4.59,4.9,6.64,6.64,0,0,0,4.32-2l2.05,2.91a8.93,8.93,0,0,1-6.55,2.73A8.16,8.16,0,0,1,377.4,107,8.27,8.27,0,0,1,385.93,98.65Z" fill="#363436"/><path d="M404.75,111.77h-5.08l-1,3.41H394.6l5.53-16.26h4.18l5.53,16.26h-4.09Zm-2.55-9.14s-.37,1.77-.66,2.79l-.93,3.16h3.2l-.91-3.16c-.29-1-.66-2.79-.66-2.79Z" fill="#363436"/><path d="M415.62,102.33h-4.94V98.92h13.86v3.41H419.6v12.85h-4Z" fill="#363436"/><path d="M428.25,98.92h4v16.26h-4Z" fill="#363436"/><path d="M445.15,98.65a8.22,8.22,0,0,1,8.51,8.3,8.51,8.51,0,0,1-17,0A8.22,8.22,0,0,1,445.15,98.65Zm0,13.17a4.6,4.6,0,0,0,4.39-4.87,4.4,4.4,0,1,0-8.78,0A4.6,4.6,0,0,0,445.15,111.82Z" fill="#363436"/><path d="M458.07,98.92h4l4.5,7.6a28,28,0,0,1,1.37,2.77h0s-.18-1.75-.18-2.77v-7.6h4v16.26h-4l-4.53-7.57a30.38,30.38,0,0,1-1.36-2.78h-.05s.18,1.75.18,2.78v7.57h-4Z" fill="#363436"/><path d="M153.4,137l7.87-10.53H163v10.17h2.28v1.39H163v4.43h-1.57v-4.43h-8Zm8-.36V130c0-.17,0-.34,0-.52a3.68,3.68,0,0,1,0-.49c0-.17,0-.33,0-.5h0l-.24.39c-.07.12-.16.25-.26.4l-.3.42-5.32,7v0Z" fill="#363436"/><path d="M168.58,135.36H180v1.32H168.58Z" fill="#363436"/><path d="M183.78,137.88a4.2,4.2,0,0,1,.16-1.2,5.19,5.19,0,0,1,1-1.86c.21-.24.41-.46.6-.64a5.55,5.55,0,0,1,.53-.44l.32-.22a6.24,6.24,0,0,1-.8-.61,3.58,3.58,0,0,1-.62-.73,3.19,3.19,0,0,1-.42-.87,3.51,3.51,0,0,1-.15-1.05,3.86,3.86,0,0,1,.3-1.5,3.71,3.71,0,0,1,.9-1.3,4.54,4.54,0,0,1,1.52-.9,5.87,5.87,0,0,1,2.11-.34,6.44,6.44,0,0,1,2,.3,4.56,4.56,0,0,1,1.54.84,3.59,3.59,0,0,1,1,1.31,4.14,4.14,0,0,1,.35,1.7,4.94,4.94,0,0,1-.13,1.1,5.87,5.87,0,0,1-.34,1,6.16,6.16,0,0,1-.44.85c-.16.27-.32.49-.46.69s-.27.35-.38.47l-.21.23a6.78,6.78,0,0,1,.93.61,4.36,4.36,0,0,1,.73.76,3.44,3.44,0,0,1,.49.93,3.35,3.35,0,0,1,.18,1.13,4.16,4.16,0,0,1-.4,1.77,4.51,4.51,0,0,1-1.1,1.47,5.41,5.41,0,0,1-1.68,1,5.85,5.85,0,0,1-2.13.37,6.41,6.41,0,0,1-2.07-.33,5.37,5.37,0,0,1-1.72-1,4.52,4.52,0,0,1-1.62-3.58Zm9.09.24a2,2,0,0,0-.22-.94,3,3,0,0,0-.6-.75,5.07,5.07,0,0,0-.88-.62q-.51-.28-1.08-.54c-.39-.18-.79-.35-1.2-.52s-.81-.35-1.2-.54a4.8,4.8,0,0,0-.58.4,4.45,4.45,0,0,0-.76.75,4.53,4.53,0,0,0-.67,1.07,3.48,3.48,0,0,0,0,2.85,3.42,3.42,0,0,0,.85,1.1,4,4,0,0,0,1.22.69,4.22,4.22,0,0,0,1.41.24,4,4,0,0,0,1.37-.24,3.88,3.88,0,0,0,1.18-.65,3.32,3.32,0,0,0,.82-1A2.67,2.67,0,0,0,192.87,138.12ZM186,130.29a2.06,2.06,0,0,0,.44,1.32,4.16,4.16,0,0,0,1.13,1,10.3,10.3,0,0,0,1.56.76c.58.23,1.16.47,1.73.72a3.78,3.78,0,0,0,.39-.4,4.35,4.35,0,0,0,.56-.79,5.68,5.68,0,0,0,.5-1.08,3.88,3.88,0,0,0,.22-1.34,2.52,2.52,0,0,0-.93-2,3.13,3.13,0,0,0-1-.55,4.31,4.31,0,0,0-1.33-.2,4.15,4.15,0,0,0-1.37.21,3.13,3.13,0,0,0-1,.56,2.48,2.48,0,0,0-.62.83A2.37,2.37,0,0,0,186,130.29Z" fill="#363436"/><path d="M204,131h1.52v1.7c0,.13,0,.24,0,.36a2.16,2.16,0,0,1,0,.28,2.13,2.13,0,0,1,0,.27h.05a3.68,3.68,0,0,1,.62-1.1,5.41,5.41,0,0,1,1-.92,4.5,4.5,0,0,1,1.21-.63,3.84,3.84,0,0,1,1.32-.24,3.63,3.63,0,0,1,2.44.73,3.47,3.47,0,0,1,1.1,2.14h0a4.14,4.14,0,0,1,.65-1.1,4.68,4.68,0,0,1,2.18-1.53,4,4,0,0,1,1.38-.24,4.68,4.68,0,0,1,1.77.3,2.86,2.86,0,0,1,1.17.87,3.51,3.51,0,0,1,.65,1.39,7.75,7.75,0,0,1,.21,1.89v7.27h-1.55v-6.9a9.09,9.09,0,0,0-.09-1.31,3.11,3.11,0,0,0-.36-1.09,1.91,1.91,0,0,0-.76-.73,2.45,2.45,0,0,0-1.26-.28,3,3,0,0,0-1.25.27,4,4,0,0,0-1.06.72,4.85,4.85,0,0,0-.81,1,4.62,4.62,0,0,0-.5,1.22,3.36,3.36,0,0,0-.17.79q0,.41,0,.87v5.41h-1.55v-6.9a10.41,10.41,0,0,0-.07-1.26,3.31,3.31,0,0,0-.32-1.09,2,2,0,0,0-.74-.77,2.51,2.51,0,0,0-1.29-.29,3.06,3.06,0,0,0-1.31.29,4,4,0,0,0-1.08.75,4.58,4.58,0,0,0-.83,1.07,4.93,4.93,0,0,0-.52,1.26,4.4,4.4,0,0,0-.13.74,7,7,0,0,0,0,.79v5.41H204Z" fill="#363436"/><path d="M224,136.71a5.79,5.79,0,0,1,.48-2.36,5.9,5.9,0,0,1,3.22-3.14,6.39,6.39,0,0,1,4.71,0,5.9,5.9,0,0,1,3.22,3.14,5.79,5.79,0,0,1,.48,2.36,6,6,0,0,1-1.78,4.32,6.12,6.12,0,0,1-1.92,1.27,6.26,6.26,0,0,1-4.71,0,6.12,6.12,0,0,1-1.92-1.27,6,6,0,0,1-1.78-4.32Zm1.6,0a4.91,4.91,0,0,0,.35,1.85,4.56,4.56,0,0,0,1,1.47,4.33,4.33,0,0,0,6.29,0,4.56,4.56,0,0,0,1-1.47,4.91,4.91,0,0,0,.35-1.85,4.64,4.64,0,0,0-.35-1.81,4.45,4.45,0,0,0-2.37-2.38,4.48,4.48,0,0,0-3.47,0A4.45,4.45,0,0,0,226,134.9,4.64,4.64,0,0,0,225.6,136.71Z" fill="#363436"/><path d="M239,131h1.52v1.7c0,.13,0,.24,0,.36s0,.2,0,.28,0,.19,0,.27h.05a4.65,4.65,0,0,1,.5-.89,4.52,4.52,0,0,1,.92-.94,5.14,5.14,0,0,1,1.35-.75,4.8,4.8,0,0,1,1.81-.31,4.66,4.66,0,0,1,1.78.3,2.86,2.86,0,0,1,1.19.87,3.65,3.65,0,0,1,.65,1.39,8.3,8.3,0,0,1,.2,1.89v7.27h-1.55v-6.86a10.85,10.85,0,0,0-.07-1.3,3.19,3.19,0,0,0-.34-1.08,2,2,0,0,0-.75-.74,2.64,2.64,0,0,0-1.32-.28,4.08,4.08,0,0,0-1.4.24,4.49,4.49,0,0,0-1.22.66,4.45,4.45,0,0,0-1,1,4.81,4.81,0,0,0-.74,2,6.74,6.74,0,0,0,0,.79v5.49H239Z" fill="#363436"/><path d="M252.92,132.47h-1.5v-1.3h1.52v-3.3h1.52v3.3h2.87v1.3h-2.87v5.69a4.82,4.82,0,0,0,.13,1.16,3.11,3.11,0,0,0,.35.82,2.11,2.11,0,0,0,.48.54,2.39,2.39,0,0,0,.56.31,2,2,0,0,0,.56.15,3,3,0,0,0,.5,0h.21l.17,0,.14,0v1.39l-.18,0-.21,0h-.28a7.24,7.24,0,0,1-.75,0,4,4,0,0,1-.86-.2,4.19,4.19,0,0,1-.87-.44,2.72,2.72,0,0,1-.75-.76,4,4,0,0,1-.54-1.16,6.08,6.08,0,0,1-.2-1.64Z" fill="#363436"/><path d="M260.1,126.49h1.55v6.18c0,.14,0,.26,0,.38s0,.21,0,.29l0,.27h0a4.23,4.23,0,0,1,.53-.91,4.88,4.88,0,0,1,.94-.93,5.25,5.25,0,0,1,1.33-.72,5.06,5.06,0,0,1,1.75-.29,4.72,4.72,0,0,1,1.79.3,2.83,2.83,0,0,1,1.18.87,3.51,3.51,0,0,1,.65,1.39,7.77,7.77,0,0,1,.2,1.89v7.27h-1.54v-6.86a10.8,10.8,0,0,0-.08-1.3,2.8,2.8,0,0,0-.34-1.08,1.84,1.84,0,0,0-.75-.74,2.59,2.59,0,0,0-1.32-.28,4.12,4.12,0,0,0-1.4.24,4.37,4.37,0,0,0-2.16,1.7,4.7,4.7,0,0,0-.59,1.31,3,3,0,0,0-.15.73,6.85,6.85,0,0,0,0,.79v5.49H260.1Z" fill="#363436"/><path d="M273.5,140a3.73,3.73,0,0,0,.9.7,6.79,6.79,0,0,0,1.07.48,4.55,4.55,0,0,0,1.44.21,3.68,3.68,0,0,0,.89-.11,2.47,2.47,0,0,0,.73-.35,1.61,1.61,0,0,0,.5-.57,1.65,1.65,0,0,0,.18-.79,1.28,1.28,0,0,0-.27-.81,2.63,2.63,0,0,0-.7-.6,5.26,5.26,0,0,0-1-.48l-1.13-.46c-.39-.16-.77-.33-1.13-.52a4.58,4.58,0,0,1-1-.65,3,3,0,0,1-.7-.89,2.54,2.54,0,0,1-.26-1.21,2.76,2.76,0,0,1,.32-1.36,3,3,0,0,1,.86-1,3.88,3.88,0,0,1,1.24-.61,5.21,5.21,0,0,1,1.49-.21,5.53,5.53,0,0,1,1.56.2,6,6,0,0,1,1.1.44,3.59,3.59,0,0,1,.86.62l-.7,1.18a3.36,3.36,0,0,0-.72-.53,5.85,5.85,0,0,0-.9-.35,4.25,4.25,0,0,0-1.25-.17,3.33,3.33,0,0,0-.84.1,2.3,2.3,0,0,0-.73.31,1.68,1.68,0,0,0-.51.55,1.63,1.63,0,0,0-.2.82,1.24,1.24,0,0,0,.27.81,2.79,2.79,0,0,0,.7.6,6,6,0,0,0,1,.48l1.14.45c.39.15.76.32,1.13.5a4.94,4.94,0,0,1,1,.66,3,3,0,0,1,.7.9,2.58,2.58,0,0,1,.27,1.22,2.91,2.91,0,0,1-.29,1.29,3,3,0,0,1-.8,1,3.79,3.79,0,0,1-1.24.67,4.9,4.9,0,0,1-1.58.24,5.61,5.61,0,0,1-1.83-.26,6.71,6.71,0,0,1-1.33-.57,5,5,0,0,1-1.07-.84Z" fill="#363436"/><path d="M154.54,271h5.66a8.23,8.23,0,0,1,3.16.39,4.71,4.71,0,0,1,3,4.73,4.94,4.94,0,0,1-2.44,4.43v.05a8.42,8.42,0,0,1,.62,1l3.16,5.68h-4.44l-2.89-5.48h-1.86v5.48h-4Zm5.71,7.37a1.87,1.87,0,0,0,2.07-2c0-1.23-.46-2-2.46-2h-1.34v4Z" fill="#363436"/><path d="M171.74,271h10.19v3.41h-6.21v3h5v3.41h-5v3.07h6.53v3.41H171.74Z" fill="#363436"/><path d="M187.69,282.15a6.73,6.73,0,0,0,3.88,1.68c.82,0,1.71-.31,1.71-1.29,0-1.94-7.32-1.87-7.32-6.87,0-3,2.52-5,5.75-5a7.38,7.38,0,0,1,5.23,1.84l-1.68,3.25a6.22,6.22,0,0,0-3.59-1.43c-.82,0-1.73.36-1.73,1.27,0,2.05,7.32,1.69,7.32,6.83,0,2.7-2.07,5.05-5.73,5.05a8.41,8.41,0,0,1-5.94-2.32Z" fill="#363436"/><path d="M201.7,271h4v16.26h-4Z" fill="#363436"/><path d="M211.21,271H217c5.11,0,8.39,3,8.39,8.1s-3.28,8.16-8.39,8.16h-5.78Zm5.62,12.85c2.75,0,4.43-1.64,4.43-4.75s-1.75-4.69-4.43-4.69h-1.64v9.44Z" fill="#363436"/><path d="M229.89,271h10.19v3.41h-6.21v3h5v3.41h-5v3.07h6.53v3.41H229.89Z" fill="#363436"/><path d="M245,271h4l4.51,7.6a30.75,30.75,0,0,1,1.36,2.77h0s-.18-1.75-.18-2.77V271h4v16.26h-4l-4.52-7.57a28.83,28.83,0,0,1-1.37-2.78h0s.18,1.75.18,2.78v7.57h-4Z" fill="#363436"/><path d="M271.63,270.69a8.49,8.49,0,0,1,6.1,2.29l-1.84,3a6.83,6.83,0,0,0-4.07-1.66,4.39,4.39,0,0,0-4.6,4.64,4.63,4.63,0,0,0,4.6,4.89,6.67,6.67,0,0,0,4.32-2l2,2.92a8.9,8.9,0,0,1-6.55,2.73,8.16,8.16,0,0,1-8.53-8.44A8.27,8.27,0,0,1,271.63,270.69Z" fill="#363436"/><path d="M285.67,280.56,280.3,271h4.53l1.84,3.91c.52,1.12,1,2.34,1,2.34h0s.46-1.22,1-2.34l1.82-3.91H295l-5.37,9.6v6.66h-4Z" fill="#363436"/><path d="M304.83,283.81h3.45V277c0-.61,0-1.25,0-1.25h-.05a3,3,0,0,1-.63.87l-1,.88-2.3-2.45,4.39-4.12h3.43v12.85h3.48v3.41H304.83Z" fill="#363436"/><path d="M319.59,276.69a3.92,3.92,0,0,0,2.27,1c.47,0,1-.18,1-.75,0-1.13-4.27-1.09-4.27-4,0-1.75,1.47-2.91,3.35-2.91a4.31,4.31,0,0,1,3.06,1.08l-1,1.9a3.59,3.59,0,0,0-2.09-.84c-.48,0-1,.21-1,.74,0,1.2,4.27,1,4.27,4a3,3,0,0,1-3.34,2.95,4.87,4.87,0,0,1-3.46-1.36Z" fill="#363436"/><path d="M329.57,272.15H326.7v-2h8.07v2H331.9v7.5h-2.33Z" fill="#363436"/><path d="M344.65,271h5.66a8.43,8.43,0,0,1,3.16.39,4.71,4.71,0,0,1,3,4.73,4.93,4.93,0,0,1-2.44,4.43v.05a9.82,9.82,0,0,1,.62,1l3.16,5.68h-4.44l-2.89-5.48h-1.86v5.48h-4Zm5.71,7.37a1.86,1.86,0,0,0,2.07-2c0-1.23-.46-2-2.46-2h-1.34v4Z" fill="#363436"/><path d="M361.85,271H372v3.41h-6.21v3h5v3.41h-5v3.07h6.53v3.41H361.85Z" fill="#363436"/><path d="M376.93,271h4l4.5,7.6a29.16,29.16,0,0,1,1.37,2.77h0s-.18-1.75-.18-2.77V271h4v16.26h-4l-4.53-7.57a29.16,29.16,0,0,1-1.37-2.77h0s.18,1.75.18,2.77v7.57h-4Z" fill="#363436"/><path d="M396.2,271h10.19v3.41h-6.21v3h5v3.41h-5v3.07h6.53v3.41H396.2Z" fill="#363436"/><path d="M409.85,271H414l2,10.17a9.21,9.21,0,0,1,.21,1.71h0a9.46,9.46,0,0,1,.28-1.71l2.5-10.17h3.21l2.43,10.17a8.83,8.83,0,0,1,.27,1.71h.05a9.65,9.65,0,0,1,.2-1.71L427.5,271h4.12l-4.12,16.26h-4.43L421,279a13.89,13.89,0,0,1-.32-1.91h0a13.89,13.89,0,0,1-.32,1.91l-2,8.21h-4.48Z" fill="#363436"/><path d="M443.41,283.81h-5.08l-1,3.41h-4.1L438.79,271H443l5.53,16.26h-4.09Zm-2.55-9.14s-.36,1.77-.66,2.8l-.93,3.16h3.2l-.91-3.16c-.29-1-.66-2.8-.66-2.8Z" fill="#363436"/><path d="M452,271h4v12.85h6.64v3.41H452Z" fill="#363436"/><path d="M154.09,314.53A3.8,3.8,0,0,1,154,314c0-.17,0-.33,0-.5a4.75,4.75,0,0,1,.35-1.89,5.93,5.93,0,0,1,.92-1.53,8.89,8.89,0,0,1,1.32-1.28c.48-.39,1-.76,1.5-1.12l1.51-1.06a10.23,10.23,0,0,0,1.31-1.09,5.07,5.07,0,0,0,.92-1.23,3,3,0,0,0,.35-1.47,3.27,3.27,0,0,0-.23-1.22,2.89,2.89,0,0,0-.68-1,3.27,3.27,0,0,0-1.05-.65,3.92,3.92,0,0,0-1.36-.23,3.2,3.2,0,0,0-.83.1,3.8,3.8,0,0,0-.72.24,3.6,3.6,0,0,0-.61.35,4.37,4.37,0,0,0-.5.4,4.47,4.47,0,0,0-.9,1.09l-1.19-.79a5.93,5.93,0,0,1,1.15-1.44,6.42,6.42,0,0,1,.68-.53,4.62,4.62,0,0,1,.82-.47,5.7,5.7,0,0,1,1-.33,5.55,5.55,0,0,1,1.18-.12,5.72,5.72,0,0,1,2.05.35,4.48,4.48,0,0,1,1.53,1,4.13,4.13,0,0,1,1,1.42,4.86,4.86,0,0,1,0,3.57,5.9,5.9,0,0,1-.91,1.47,9.53,9.53,0,0,1-1.3,1.23c-.49.38-1,.74-1.48,1.08l-1.49,1a10.91,10.91,0,0,0-1.3,1.07,5.17,5.17,0,0,0-.92,1.21,3.08,3.08,0,0,0-.35,1.45h8.34v1.42Z" fill="#363436"/><path d="M167.85,307.4h11.37v1.33H167.85Z" fill="#363436"/><path d="M183.57,311.4a6.12,6.12,0,0,0,1.13,1c.18.12.38.23.6.35a5.66,5.66,0,0,0,.7.3,4.69,4.69,0,0,0,.78.21,4.27,4.27,0,0,0,.89.08,3.87,3.87,0,0,0,1.38-.25,3.5,3.5,0,0,0,1.17-.71,3.83,3.83,0,0,0,.81-1.09,3.26,3.26,0,0,0,.3-1.4,3.09,3.09,0,0,0-.34-1.49,3.15,3.15,0,0,0-.89-1.06,3.92,3.92,0,0,0-1.29-.65,5.45,5.45,0,0,0-1.51-.21h-1.09l-.39-.94,4-4.68c.11-.13.21-.25.31-.35l.28-.29.26-.25v-.05l-.34,0q-.33,0-1,0h-6v-1.41h9.34v1l-4.78,5.51c.35,0,.7.08,1.08.15a6.59,6.59,0,0,1,1.12.35,6,6,0,0,1,1.07.6,4.41,4.41,0,0,1,.9.88,4.32,4.32,0,0,1,.62,1.19,5.22,5.22,0,0,1-.17,3.48,5,5,0,0,1-1.1,1.59,5.11,5.11,0,0,1-1.67,1.08,5.3,5.3,0,0,1-2.09.4,6.69,6.69,0,0,1-1.12-.09,7,7,0,0,1-1-.25,5.64,5.64,0,0,1-.87-.35,8.25,8.25,0,0,1-.73-.4,6.13,6.13,0,0,1-1.36-1.1Z" fill="#363436"/><path d="M202.36,303.08h1.53v1.7c0,.13,0,.25,0,.36a2.33,2.33,0,0,1,0,.29,2.11,2.11,0,0,1,0,.26h0a3.68,3.68,0,0,1,.62-1.1,5.78,5.78,0,0,1,1-.92,4.8,4.8,0,0,1,1.21-.63,3.83,3.83,0,0,1,1.32-.23,3.68,3.68,0,0,1,2.44.72,3.47,3.47,0,0,1,1.1,2.14h.05a4.3,4.3,0,0,1,.65-1.1,4.87,4.87,0,0,1,1-.91,4.67,4.67,0,0,1,1.22-.62,4,4,0,0,1,1.38-.23,4.59,4.59,0,0,1,1.76.3,2.81,2.81,0,0,1,1.18.86,3.63,3.63,0,0,1,.65,1.4,7.66,7.66,0,0,1,.21,1.88v7.28h-1.55v-6.9a9.13,9.13,0,0,0-.09-1.32,3,3,0,0,0-.36-1.08,1.93,1.93,0,0,0-.76-.74,2.59,2.59,0,0,0-1.26-.27,3.11,3.11,0,0,0-1.25.26,4,4,0,0,0-1.06.72,4.85,4.85,0,0,0-.81,1,4.76,4.76,0,0,0-.5,1.22,3.36,3.36,0,0,0-.17.79c0,.27,0,.56,0,.88v5.41h-1.55v-6.9a10.41,10.41,0,0,0-.07-1.26,3.37,3.37,0,0,0-.32-1.1,1.86,1.86,0,0,0-.74-.76,2.42,2.42,0,0,0-1.29-.29,3.05,3.05,0,0,0-1.31.28,4,4,0,0,0-1.08.75,4.58,4.58,0,0,0-.83,1.07,5.25,5.25,0,0,0-.52,1.26,4.52,4.52,0,0,0-.13.75,6.85,6.85,0,0,0,0,.79v5.41h-1.55Z" fill="#363436"/><path d="M222.36,308.75a5.79,5.79,0,0,1,.48-2.36,5.92,5.92,0,0,1,3.22-3.13,6.39,6.39,0,0,1,4.71,0,5.92,5.92,0,0,1,3.22,3.13,5.79,5.79,0,0,1,.48,2.36,6,6,0,0,1-1.78,4.32,6.12,6.12,0,0,1-1.92,1.27,6.26,6.26,0,0,1-4.71,0,6.12,6.12,0,0,1-1.92-1.27,6,6,0,0,1-1.78-4.32Zm1.6,0a4.87,4.87,0,0,0,.35,1.85,4.61,4.61,0,0,0,1,1.48,4.52,4.52,0,0,0,1.41,1,4.48,4.48,0,0,0,3.47,0,4.52,4.52,0,0,0,1.41-1,4.61,4.61,0,0,0,1-1.48,4.87,4.87,0,0,0,.35-1.85,4.71,4.71,0,0,0-.35-1.81,4.29,4.29,0,0,0-1-1.43,4.44,4.44,0,0,0-1.41-.95,4.6,4.6,0,0,0-3.47,0,4.44,4.44,0,0,0-1.41.95,4.29,4.29,0,0,0-1,1.43A4.71,4.71,0,0,0,224,308.75Z" fill="#363436"/><path d="M237.36,303.08h1.52v1.7c0,.13,0,.25,0,.36s0,.21,0,.29l0,.26h0a4.33,4.33,0,0,1,.5-.88,4.56,4.56,0,0,1,.92-.95,5.14,5.14,0,0,1,1.35-.75,5,5,0,0,1,1.81-.3,4.66,4.66,0,0,1,1.78.3,2.84,2.84,0,0,1,1.19.86,3.63,3.63,0,0,1,.65,1.4,8.21,8.21,0,0,1,.2,1.88v7.28h-1.55v-6.87a10.68,10.68,0,0,0-.07-1.29,3.24,3.24,0,0,0-.34-1.09,2,2,0,0,0-.75-.74,2.64,2.64,0,0,0-1.32-.28,4.08,4.08,0,0,0-1.4.24,4.26,4.26,0,0,0-1.22.67,4.21,4.21,0,0,0-.95,1,4.81,4.81,0,0,0-.74,2.05,6.91,6.91,0,0,0,0,.8v5.49h-1.54Z" fill="#363436"/><path d="M251.28,304.52h-1.5v-1.3h1.52v-3.3h1.52v3.3h2.87v1.3h-2.87v5.68a4.31,4.31,0,0,0,.13,1.16,3,3,0,0,0,.35.82,2.11,2.11,0,0,0,.48.54,2.44,2.44,0,0,0,.56.32,3.11,3.11,0,0,0,.56.15,4.77,4.77,0,0,0,.5,0h.21l.17,0,.14,0v1.39l-.18,0-.21,0h-.28a5.23,5.23,0,0,1-.75-.05,4,4,0,0,1-.86-.2,3.75,3.75,0,0,1-.87-.44,2.72,2.72,0,0,1-.75-.76,4,4,0,0,1-.54-1.16,6,6,0,0,1-.2-1.64Z" fill="#363436"/><path d="M258.46,298.53H260v6.19c0,.13,0,.25,0,.37s0,.21,0,.29,0,.19,0,.27H260a4.48,4.48,0,0,1,.53-.91,5.07,5.07,0,0,1,.93-.92,5.52,5.52,0,0,1,1.34-.73,5.06,5.06,0,0,1,1.75-.28,4.72,4.72,0,0,1,1.79.3,2.81,2.81,0,0,1,1.18.86,3.49,3.49,0,0,1,.65,1.4,7.69,7.69,0,0,1,.2,1.88v7.28h-1.54v-6.87a10.64,10.64,0,0,0-.08-1.29,2.85,2.85,0,0,0-.34-1.09,1.84,1.84,0,0,0-.75-.74,2.59,2.59,0,0,0-1.32-.28,4.12,4.12,0,0,0-1.4.24,4.21,4.21,0,0,0-1.21.67,4.28,4.28,0,0,0-.95,1,4.45,4.45,0,0,0-.59,1.31,2.88,2.88,0,0,0-.15.72,6.91,6.91,0,0,0,0,.8v5.49h-1.55Z" fill="#363436"/><path d="M271.86,312a4,4,0,0,0,.9.7,6.82,6.82,0,0,0,1.07.47,4.55,4.55,0,0,0,1.44.21,3.12,3.12,0,0,0,.88-.11,2.2,2.2,0,0,0,.74-.35,1.56,1.56,0,0,0,.68-1.36,1.28,1.28,0,0,0-.26-.8,2.8,2.8,0,0,0-.7-.61,5.7,5.7,0,0,0-1-.48l-1.13-.46c-.39-.16-.77-.33-1.13-.51a5,5,0,0,1-1-.66,3,3,0,0,1-.7-.89,2.54,2.54,0,0,1-.26-1.21,2.7,2.7,0,0,1,.32-1.35,3,3,0,0,1,.86-1,3.88,3.88,0,0,1,1.24-.61,5.91,5.91,0,0,1,3.05,0,5.37,5.37,0,0,1,1.1.43,3.59,3.59,0,0,1,.86.62l-.7,1.18a3.33,3.33,0,0,0-.72-.52,4.94,4.94,0,0,0-.9-.36,4.29,4.29,0,0,0-1.25-.17,3.86,3.86,0,0,0-.84.1,2.11,2.11,0,0,0-.73.32,1.59,1.59,0,0,0-.51.55,1.57,1.57,0,0,0-.2.81,1.24,1.24,0,0,0,.27.81,2.79,2.79,0,0,0,.7.6,6.89,6.89,0,0,0,1,.49l1.14.44a11.47,11.47,0,0,1,1.13.51,4,4,0,0,1,1,.66,2.88,2.88,0,0,1,.7.89,2.58,2.58,0,0,1,.27,1.22,2.91,2.91,0,0,1-.29,1.29,3.15,3.15,0,0,1-.8,1,3.77,3.77,0,0,1-1.24.66,4.94,4.94,0,0,1-1.58.24,5.91,5.91,0,0,1-1.83-.25,6.69,6.69,0,0,1-1.33-.58,5,5,0,0,1-1.07-.83Z" fill="#363436"/><path d="M154.54,475h5.67a8.47,8.47,0,0,1,3.16.39,4.72,4.72,0,0,1,3,4.73,4.94,4.94,0,0,1-2.43,4.43v.05s.22.3.61,1l3.16,5.68h-4.43l-2.89-5.48h-1.87v5.48h-4Zm5.71,7.37a1.86,1.86,0,0,0,2.07-2c0-1.23-.45-2-2.46-2h-1.34v4Z" fill="#363436"/><path d="M171.74,475h10.19v3.41h-6.21v3h5v3.41h-5v3.07h6.53v3.41H171.74Z" fill="#363436"/><path d="M187.69,486.2a6.72,6.72,0,0,0,3.89,1.69c.82,0,1.7-.32,1.7-1.3,0-1.93-7.32-1.87-7.32-6.87,0-3,2.53-5,5.76-5a7.38,7.38,0,0,1,5.23,1.84l-1.69,3.25a6.18,6.18,0,0,0-3.59-1.43c-.82,0-1.73.36-1.73,1.27,0,2.05,7.33,1.69,7.33,6.83,0,2.71-2.07,5.05-5.74,5.05a8.37,8.37,0,0,1-5.93-2.32Z" fill="#363436"/><path d="M201.7,475h4v16.26h-4Z" fill="#363436"/><path d="M211.21,475H217c5.12,0,8.39,3,8.39,8.1s-3.27,8.16-8.39,8.16h-5.78Zm5.62,12.85c2.75,0,4.44-1.63,4.44-4.75s-1.75-4.69-4.44-4.69h-1.64v9.44Z" fill="#363436"/><path d="M229.89,475h10.19v3.41h-6.21v3h5v3.41h-5v3.07h6.53v3.41H229.89Z" fill="#363436"/><path d="M245,475h4l4.5,7.6a29.16,29.16,0,0,1,1.37,2.77h0s-.18-1.75-.18-2.77V475h4v16.26h-4l-4.53-7.57a28.05,28.05,0,0,1-1.36-2.77h-.05s.18,1.75.18,2.77v7.57h-4Z" fill="#363436"/><path d="M271.64,474.74a8.46,8.46,0,0,1,6.09,2.3l-1.84,3a6.83,6.83,0,0,0-4.07-1.66,4.39,4.39,0,0,0-4.6,4.64,4.63,4.63,0,0,0,4.6,4.89,6.65,6.65,0,0,0,4.32-2l2.05,2.91a8.93,8.93,0,0,1-6.55,2.73,8.16,8.16,0,0,1-8.53-8.44A8.27,8.27,0,0,1,271.64,474.74Z" fill="#363436"/><path d="M285.67,484.61l-5.36-9.6h4.52l1.85,3.91c.52,1.12,1,2.35,1,2.35h.05s.45-1.23,1-2.35L290.5,475H295l-5.36,9.6v6.66h-4Z" fill="#363436"/><path d="M304.65,489.52c0-6,7-7.07,7-9.41a1.61,1.61,0,0,0-1.75-1.62c-1.55,0-2.41,1.73-2.41,1.73l-3-2a6.27,6.27,0,0,1,5.73-3.5c2.66,0,5.55,1.52,5.55,5,0,5.07-6.55,6-6.66,8.14h6.91v3.41H304.83A10.19,10.19,0,0,1,304.65,489.52Z" fill="#363436"/><path d="M320.12,474.21h2.34l2.63,4.43c.37.63.8,1.62.8,1.62h0s-.1-1-.1-1.62v-4.43h2.32v9.49h-2.34l-2.64-4.42a16.22,16.22,0,0,1-.79-1.62h0s.11,1,.11,1.62v4.42h-2.32Z" fill="#363436"/><path d="M331.35,474.21h3.37c3,0,4.89,1.74,4.89,4.73s-1.91,4.76-4.89,4.76h-3.37Zm3.28,7.5c1.6,0,2.58-1,2.58-2.77a2.43,2.43,0,0,0-2.58-2.74h-1v5.51Z" fill="#363436"/><path d="M350,475h5.67a8.26,8.26,0,0,1,3.16.39,4.72,4.72,0,0,1,3,4.73,4.94,4.94,0,0,1-2.43,4.43v.05a9.75,9.75,0,0,1,.61,1l3.16,5.68h-4.43l-2.89-5.48h-1.87v5.48h-4Zm5.71,7.37a1.87,1.87,0,0,0,2.07-2c0-1.23-.45-2-2.46-2h-1.34v4Z" fill="#363436"/><path d="M367.15,475h10.19v3.41h-6.21v3h5v3.41h-5v3.07h6.53v3.41H367.15Z" fill="#363436"/><path d="M382.23,475h4l4.5,7.6a29.16,29.16,0,0,1,1.37,2.77h0s-.18-1.75-.18-2.77V475h4v16.26h-4l-4.53-7.57a30.38,30.38,0,0,1-1.36-2.78H386s.19,1.76.19,2.78v7.57h-4Z" fill="#363436"/><path d="M401.5,475h10.19v3.41h-6.2v3h4.95v3.41h-4.95v3.07H412v3.41H401.5Z" fill="#363436"/><path d="M415.16,475h4.18l2.05,10.17a9.6,9.6,0,0,1,.2,1.7h.05a8.8,8.8,0,0,1,.27-1.7l2.5-10.17h3.21l2.43,10.17a9.43,9.43,0,0,1,.28,1.7h0a9.16,9.16,0,0,1,.21-1.7L432.81,475h4.11l-4.11,16.26h-4.44l-2.05-8.21a12.93,12.93,0,0,1-.31-1.91H426a13.89,13.89,0,0,1-.32,1.91l-2.05,8.21h-4.48Z" fill="#363436"/><path d="M448.71,487.86h-5.07l-1,3.41h-4.09L444.09,475h4.19l5.53,16.26h-4.1Zm-2.55-9.14s-.36,1.77-.66,2.8l-.93,3.16h3.21l-.91-3.16c-.3-1-.66-2.8-.66-2.8Z" fill="#363436"/><path d="M457.33,475h4v12.85H468v3.41H457.33Z" fill="#363436"/><path d="M154.09,518.57a3.39,3.39,0,0,1-.07-.52c0-.17,0-.33,0-.5a4.93,4.93,0,0,1,.35-1.89,5.7,5.7,0,0,1,.93-1.53,8.36,8.36,0,0,1,1.31-1.28c.49-.39,1-.77,1.5-1.12l1.51-1.06a9.59,9.59,0,0,0,1.31-1.09,5.11,5.11,0,0,0,.93-1.23,3.13,3.13,0,0,0,.35-1.47,3.05,3.05,0,0,0-.24-1.22,2.86,2.86,0,0,0-.67-1,3.11,3.11,0,0,0-1.05-.65,4,4,0,0,0-1.36-.23,3.73,3.73,0,0,0-.84.09,4.67,4.67,0,0,0-.72.25,4,4,0,0,0-.61.35c-.18.13-.35.27-.5.4a5,5,0,0,0-.9,1.09l-1.19-.79a6.22,6.22,0,0,1,1.16-1.45,7.82,7.82,0,0,1,.67-.52,4.72,4.72,0,0,1,.83-.47,4.89,4.89,0,0,1,1-.33,5.58,5.58,0,0,1,1.19-.12,5.76,5.76,0,0,1,2,.35,4.43,4.43,0,0,1,1.53,1,4,4,0,0,1,1,1.42,4.62,4.62,0,0,1,.33,1.75,4.53,4.53,0,0,1-.34,1.81,5.82,5.82,0,0,1-.92,1.48,9,9,0,0,1-1.3,1.23c-.48.38-1,.74-1.48,1.08s-1,.69-1.48,1a10.16,10.16,0,0,0-1.3,1.07,5.22,5.22,0,0,0-.93,1.21,3.08,3.08,0,0,0-.35,1.45h8.35v1.41Z" fill="#363436"/><path d="M167.85,511.45h11.38v1.33H167.85Z" fill="#363436"/><path d="M183.57,515.45a6.82,6.82,0,0,0,1.73,1.3,6.4,6.4,0,0,0,.7.3,4.81,4.81,0,0,0,.79.21,4.18,4.18,0,0,0,.88.08,3.83,3.83,0,0,0,1.38-.25,3.67,3.67,0,0,0,1.17-.71,3.49,3.49,0,0,0,.81-1.09,3.12,3.12,0,0,0,.31-1.4,3.21,3.21,0,0,0-.34-1.49,3.3,3.3,0,0,0-.9-1.06,4,4,0,0,0-1.28-.65,5.5,5.5,0,0,0-1.51-.21h-1.09l-.39-.94,4-4.69c.1-.12.2-.24.31-.35l.28-.28.25-.25v-.05a1.55,1.55,0,0,1-.33,0,8,8,0,0,1-1,0h-6v-1.41h9.35v1l-4.78,5.51a7.35,7.35,0,0,1,1.08.15,6.88,6.88,0,0,1,1.12.35,5.87,5.87,0,0,1,1.06.6,4.41,4.41,0,0,1,.9.88,4.07,4.07,0,0,1,.62,1.19,4.84,4.84,0,0,1,.23,1.54,4.67,4.67,0,0,1-.4,1.93,4.92,4.92,0,0,1-1.1,1.6,5.41,5.41,0,0,1-1.66,1.08,5.35,5.35,0,0,1-2.1.4,6.77,6.77,0,0,1-1.12-.09,9.13,9.13,0,0,1-1-.25,5.15,5.15,0,0,1-.86-.35,7.24,7.24,0,0,1-.74-.4,6.12,6.12,0,0,1-1.35-1.1Z" fill="#363436"/><path d="M202.37,507.13h1.52v1.7c0,.13,0,.25,0,.36a2.62,2.62,0,0,1,0,.29,2.46,2.46,0,0,0,0,.26h0a3.51,3.51,0,0,1,.63-1.1,5,5,0,0,1,1-.92,4.65,4.65,0,0,1,1.21-.63,3.84,3.84,0,0,1,1.32-.24,3.61,3.61,0,0,1,2.44.73,3.48,3.48,0,0,1,1.11,2.14h0a4.61,4.61,0,0,1,.65-1.1,4.66,4.66,0,0,1,1-.91,4.61,4.61,0,0,1,1.21-.62,4,4,0,0,1,1.38-.24,4.61,4.61,0,0,1,1.77.3,2.86,2.86,0,0,1,1.17.87,3.64,3.64,0,0,1,.66,1.4,8.15,8.15,0,0,1,.2,1.88v7.27h-1.54v-6.89a7.86,7.86,0,0,0-.1-1.32,3,3,0,0,0-.36-1.08,2,2,0,0,0-.75-.74,2.63,2.63,0,0,0-1.27-.27,2.9,2.9,0,0,0-1.24.26,3.68,3.68,0,0,0-1.06.72,4.59,4.59,0,0,0-.82,1,5.14,5.14,0,0,0-.5,1.22,3.36,3.36,0,0,0-.16.79,8,8,0,0,0,0,.87v5.41h-1.55v-6.89a10.41,10.41,0,0,0-.07-1.26,3.08,3.08,0,0,0-.32-1.1,2,2,0,0,0-.73-.77,2.56,2.56,0,0,0-1.3-.28,3,3,0,0,0-1.3.28,3.92,3.92,0,0,0-1.09.75,4.86,4.86,0,0,0-.83,1.07,5.32,5.32,0,0,0-.52,1.26,5.86,5.86,0,0,0-.13.75c0,.25,0,.52,0,.78v5.41h-1.54Z" fill="#363436"/><path d="M222.36,512.8a5.79,5.79,0,0,1,.48-2.36,5.9,5.9,0,0,1,3.22-3.14,6.2,6.2,0,0,1,2.36-.45,6.11,6.11,0,0,1,2.35.45,6,6,0,0,1,1.93,1.25,6.24,6.24,0,0,1,1.3,1.89,6,6,0,0,1,.47,2.36,5.94,5.94,0,0,1-3.7,5.59,5.93,5.93,0,0,1-2.35.46,6,6,0,0,1-2.36-.46,6.12,6.12,0,0,1-1.92-1.27,6,6,0,0,1-1.78-4.32Zm1.6,0a4.91,4.91,0,0,0,.35,1.85,4.8,4.8,0,0,0,1,1.47,4.3,4.3,0,0,0,3.15,1.34,4.38,4.38,0,0,0,1.73-.35,4.54,4.54,0,0,0,1.42-1,4.6,4.6,0,0,0,1-1.47,4.72,4.72,0,0,0,.35-1.85,4.49,4.49,0,0,0-.35-1.81,4.42,4.42,0,0,0-1-1.43,4.6,4.6,0,0,0-1.42-.95,4.47,4.47,0,0,0-4.88.95,4.61,4.61,0,0,0-1,1.43A4.67,4.67,0,0,0,224,512.8Z" fill="#363436"/><path d="M237.36,507.13h1.52v2.06c0,.11,0,.2,0,.29s0,.18,0,.26h0a5.41,5.41,0,0,1,.51-.89,4.51,4.51,0,0,1,.92-.94,4.92,4.92,0,0,1,1.34-.75,5.08,5.08,0,0,1,1.81-.31,4.75,4.75,0,0,1,1.79.3,2.83,2.83,0,0,1,1.18.87,3.49,3.49,0,0,1,.65,1.4,7.64,7.64,0,0,1,.2,1.88v7.27h-1.54v-6.86a10.64,10.64,0,0,0-.08-1.29,3,3,0,0,0-.34-1.09,1.84,1.84,0,0,0-.75-.74,2.64,2.64,0,0,0-1.32-.28,4.08,4.08,0,0,0-1.4.24,4.26,4.26,0,0,0-1.22.67,4.17,4.17,0,0,0-.94,1,4.82,4.82,0,0,0-.6,1.3,4.53,4.53,0,0,0-.15.75c0,.26,0,.52,0,.8v5.48h-1.55Z" fill="#363436"/><path d="M251.28,508.57h-1.5v-1.3h1.52V504h1.52v3.3h2.87v1.3h-2.87v5.68a4.33,4.33,0,0,0,.14,1.16,3,3,0,0,0,.34.82,2,2,0,0,0,.49.54,2.25,2.25,0,0,0,.56.32,3.11,3.11,0,0,0,.56.15l.49,0h.22l.16,0,.14,0v1.39l-.17,0-.21,0h-.28a5.36,5.36,0,0,1-.76,0,4,4,0,0,1-.86-.2,4.45,4.45,0,0,1-.87-.44,2.86,2.86,0,0,1-.75-.76,3.77,3.77,0,0,1-.53-1.16,5.64,5.64,0,0,1-.21-1.64Z" fill="#363436"/><path d="M258.47,502.58H260v6.56c0,.11,0,.21,0,.29s0,.19,0,.27h0a3.93,3.93,0,0,1,.54-.91,4.28,4.28,0,0,1,.93-.92,5.34,5.34,0,0,1,1.34-.73,5,5,0,0,1,1.75-.29,4.75,4.75,0,0,1,1.79.3,2.89,2.89,0,0,1,1.18.87,3.49,3.49,0,0,1,.65,1.4,8.15,8.15,0,0,1,.2,1.88v7.27h-1.55v-6.86a10.68,10.68,0,0,0-.07-1.29,3.17,3.17,0,0,0-.34-1.09,2,2,0,0,0-.75-.74,2.64,2.64,0,0,0-1.32-.28,4.08,4.08,0,0,0-1.4.24,4.26,4.26,0,0,0-1.22.67,4.2,4.2,0,0,0-.94,1,4.45,4.45,0,0,0-.6,1.31,4.29,4.29,0,0,0-.15.73c0,.26,0,.52,0,.8v5.48h-1.54Z" fill="#363436"/><path d="M271.87,516.07a3.73,3.73,0,0,0,.9.7,6.4,6.4,0,0,0,1.07.48,4.5,4.5,0,0,0,1.44.21,3.6,3.6,0,0,0,.88-.11,2.35,2.35,0,0,0,.73-.35,1.6,1.6,0,0,0,.69-1.36,1.23,1.23,0,0,0-.27-.8,2.63,2.63,0,0,0-.7-.61,6,6,0,0,0-1-.48l-1.14-.46c-.39-.16-.76-.33-1.13-.51a4.94,4.94,0,0,1-1-.66,2.88,2.88,0,0,1-.7-.89,2.54,2.54,0,0,1-.27-1.21,2.81,2.81,0,0,1,.32-1.35,3.07,3.07,0,0,1,.86-1,3.94,3.94,0,0,1,1.25-.61,5.14,5.14,0,0,1,1.48-.21,5.65,5.65,0,0,1,1.57.2,6.27,6.27,0,0,1,1.1.44,3.52,3.52,0,0,1,.85.62l-.7,1.18a3,3,0,0,0-.72-.52,5.12,5.12,0,0,0-.89-.36,4.29,4.29,0,0,0-1.25-.17,4,4,0,0,0-.85.1,2.4,2.4,0,0,0-.73.31,1.68,1.68,0,0,0-.51.55,1.63,1.63,0,0,0-.19.82,1.24,1.24,0,0,0,.27.81,2.74,2.74,0,0,0,.69.6,5.7,5.7,0,0,0,1,.48l1.13.45c.39.15.77.32,1.13.5a4.65,4.65,0,0,1,1,.67,3,3,0,0,1,.7.89,2.58,2.58,0,0,1,.26,1.22,2.9,2.9,0,0,1-.28,1.29,3.32,3.32,0,0,1-.81,1,4,4,0,0,1-1.23.66,5,5,0,0,1-1.59.24,6,6,0,0,1-1.83-.25,6.34,6.34,0,0,1-1.32-.58,5.14,5.14,0,0,1-1.08-.83Z" fill="#363436"/><path d="M162,687.32a8.47,8.47,0,0,1,6.1,2.3l-1.85,3a6.83,6.83,0,0,0-4.07-1.66,4.4,4.4,0,0,0-4.59,4.64,4.62,4.62,0,0,0,4.59,4.89,6.65,6.65,0,0,0,4.32-2l2,2.91a8.93,8.93,0,0,1-6.55,2.73,8.16,8.16,0,0,1-8.53-8.44A8.27,8.27,0,0,1,162,687.32Z" fill="#363436"/><path d="M172.63,687.59h4v16.27h-4Z" fill="#363436"/><path d="M185.26,691h-4.94v-3.42h13.85V691h-4.93v12.85h-4Z" fill="#363436"/><path d="M197.88,687.59h4v16.27h-4Z" fill="#363436"/><path d="M206.35,701.36l6.28-8.9a8.85,8.85,0,0,1,1.25-1.48v0a10.58,10.58,0,0,1-1.25.07h-6v-3.42h12.29v2.46l-6.3,8.94a9.13,9.13,0,0,1-1.26,1.48v0a12.41,12.41,0,0,1,1.26-.06H219v3.41H206.35Z" fill="#363436"/><path d="M223.62,687.59h10.19V691H227.6v3h5v3.41h-5v3.08h6.52v3.41h-10.5Z" fill="#363436"/><path d="M238.7,687.59h4l4.51,7.6a27.76,27.76,0,0,1,1.36,2.78h0s-.18-1.75-.18-2.78v-7.6h4v16.27h-4l-4.52-7.58a29.16,29.16,0,0,1-1.37-2.77h0s.18,1.75.18,2.77v7.58h-4Z" fill="#363436"/><path d="M258.86,698.79a6.73,6.73,0,0,0,3.88,1.68c.82,0,1.71-.32,1.71-1.3,0-1.93-7.32-1.86-7.32-6.87,0-3,2.52-5,5.75-5a7.38,7.38,0,0,1,5.23,1.84l-1.68,3.26a6.2,6.2,0,0,0-3.59-1.44c-.82,0-1.73.37-1.73,1.28,0,2,7.32,1.68,7.32,6.82,0,2.71-2.07,5-5.73,5a8.41,8.41,0,0,1-5.94-2.32Z" fill="#363436"/><path d="M272.87,687.59h4v6.51h5.91v-6.51h4v16.27h-4v-6.37h-5.91v6.37h-4Z" fill="#363436"/><path d="M292.25,687.59h4v16.27h-4Z" fill="#363436"/><path d="M301.76,687.59h6.76c3.16,0,5.3,2.32,5.3,5.6s-2.14,5.64-5.3,5.64h-2.78v5h-4Zm5.94,7.83a2,2,0,0,0,2.07-2.23,1.92,1.92,0,0,0-2-2.18h-2v4.41Z" fill="#363436"/><path d="M333,700.45h-5.07l-1,3.41h-4.09l5.52-16.27h4.19l5.53,16.27H334Zm-2.55-9.15s-.36,1.78-.66,2.8l-.93,3.16H332l-.91-3.16c-.3-1-.66-2.8-.66-2.8Z" fill="#363436"/><path d="M341.58,687.59h6.75c3.16,0,5.3,2.32,5.3,5.6s-2.14,5.64-5.3,5.64h-2.77v5h-4Zm5.93,7.83a2,2,0,0,0,2.07-2.23,1.92,1.92,0,0,0-2-2.18h-2v4.41Z" fill="#363436"/><path d="M357.71,687.59h6.75c3.16,0,5.3,2.32,5.3,5.6s-2.14,5.64-5.3,5.64h-2.77v5h-4Zm5.93,7.83a2,2,0,0,0,2.07-2.23,1.92,1.92,0,0,0-2-2.18h-2v4.41Z" fill="#363436"/><path d="M373.84,687.59h4v12.86h6.64v3.41H373.84Z" fill="#363436"/><path d="M388.35,687.59h4v16.27h-4Z" fill="#363436"/><path d="M405.28,687.32a8.46,8.46,0,0,1,6.09,2.3l-1.84,3a6.83,6.83,0,0,0-4.07-1.66,4.4,4.4,0,0,0-4.6,4.64,4.63,4.63,0,0,0,4.6,4.89,6.68,6.68,0,0,0,4.32-2l2.05,2.91a8.93,8.93,0,0,1-6.55,2.73,8.16,8.16,0,0,1-8.53-8.44A8.27,8.27,0,0,1,405.28,687.32Z" fill="#363436"/><path d="M424.09,700.45H419l-1,3.41H414l5.52-16.27h4.19l5.53,16.27h-4.1Zm-2.55-9.15s-.36,1.78-.66,2.8l-.93,3.16h3.21l-.91-3.16c-.3-1-.66-2.8-.66-2.8Z" fill="#363436"/><path d="M435,691H430v-3.42h13.85V691H439v12.85h-4Z" fill="#363436"/><path d="M447.59,687.59h4v16.27h-4Z" fill="#363436"/><path d="M464.49,687.32a8.22,8.22,0,0,1,8.51,8.3,8.51,8.51,0,1,1-17,0A8.22,8.22,0,0,1,464.49,687.32Zm0,13.17a4.58,4.58,0,0,0,4.39-4.87,4.4,4.4,0,1,0-8.78,0A4.59,4.59,0,0,0,464.49,700.49Z" fill="#363436"/><path d="M477.4,687.59h4l4.51,7.6a30.38,30.38,0,0,1,1.36,2.78h0s-.19-1.75-.19-2.78v-7.6h4v16.27h-4l-4.52-7.58a29.16,29.16,0,0,1-1.37-2.77h-.05s.19,1.75.19,2.77v7.58h-4Z" fill="#363436"/><path d="M154.75,715.16h1.6v10.4a5,5,0,0,0,.32,1.86,3.78,3.78,0,0,0,.91,1.38,4,4,0,0,0,1.42.88,6,6,0,0,0,3.74,0,4.2,4.2,0,0,0,1.44-.88,3.88,3.88,0,0,0,.92-1.4,5.25,5.25,0,0,0,.32-1.88V715.16H167v10.42a6.25,6.25,0,0,1-.45,2.42,5.05,5.05,0,0,1-1.25,1.84,5.59,5.59,0,0,1-1.92,1.18,7.05,7.05,0,0,1-2.48.42,7.17,7.17,0,0,1-2.5-.42,5.63,5.63,0,0,1-1.93-1.18A5.2,5.2,0,0,1,155.2,728a6.25,6.25,0,0,1-.45-2.42Z" fill="#363436"/><path d="M171,719.72h1.47v1.46c0,.11,0,.2,0,.28s0,.18,0,.26h0a3.87,3.87,0,0,1,1.38-1.55,4,4,0,0,1,.68-.37,4.84,4.84,0,0,1,.86-.26,5.2,5.2,0,0,1,3.11.34,4.51,4.51,0,0,1,1.58,1.23,5.62,5.62,0,0,1,1,1.9,8.17,8.17,0,0,1,.35,2.44,7.38,7.38,0,0,1-.39,2.46A5.6,5.6,0,0,1,180,729.8a4.86,4.86,0,0,1-1.63,1.21,5,5,0,0,1-2,.43,4.07,4.07,0,0,1-1-.1,4.68,4.68,0,0,1-.8-.24,4,4,0,0,1-.65-.35c-.19-.14-.36-.27-.51-.4a3.88,3.88,0,0,1-.84-1.1h0c0,.08,0,.17,0,.28s0,.19,0,.31,0,.26,0,.41v5.46H171Zm1.5,5.75a6,6,0,0,0,.23,1.69,5,5,0,0,0,.7,1.47,3.68,3.68,0,0,0,1.14,1,3.1,3.1,0,0,0,1.57.39,3.35,3.35,0,0,0,1.43-.31,3.5,3.5,0,0,0,1.17-.91,4.38,4.38,0,0,0,.79-1.45,5.87,5.87,0,0,0,.3-1.95,6.27,6.27,0,0,0-.27-1.9,4.71,4.71,0,0,0-.74-1.45,3.3,3.3,0,0,0-1.15-.92,3.23,3.23,0,0,0-1.46-.33,3.62,3.62,0,0,0-1.39.27,3.18,3.18,0,0,0-1.19.82,4.18,4.18,0,0,0-.82,1.44A6.18,6.18,0,0,0,172.48,725.47Z" fill="#363436"/><path d="M190.93,721.15h-1.5v-1.3H191v-3.3h1.52v3.3h2.87v1.3h-2.87v5.69a4.36,4.36,0,0,0,.13,1.16,3.26,3.26,0,0,0,.35.82,1.91,1.91,0,0,0,.48.53,2.12,2.12,0,0,0,.56.32,3.11,3.11,0,0,0,.56.15,3,3,0,0,0,.5,0h.38l.14,0v1.38l-.18,0h-.49a7.24,7.24,0,0,1-.75,0,4,4,0,0,1-.86-.21,3.75,3.75,0,0,1-.87-.44,2.81,2.81,0,0,1-.75-.75,4.16,4.16,0,0,1-.54-1.16,5.73,5.73,0,0,1-.2-1.65Z" fill="#363436"/><path d="M197.27,725.38a5.74,5.74,0,0,1,.48-2.35,5.85,5.85,0,0,1,1.3-1.89,6.07,6.07,0,0,1,1.92-1.25,6.39,6.39,0,0,1,4.71,0,6.07,6.07,0,0,1,1.92,1.25,5.85,5.85,0,0,1,1.3,1.89,5.74,5.74,0,0,1,.48,2.35,6,6,0,0,1-1.78,4.32,6.09,6.09,0,0,1-8.55,0,6,6,0,0,1-1.78-4.32Zm1.6,0a4.84,4.84,0,0,0,.35,1.85,4.64,4.64,0,0,0,.95,1.48,4.35,4.35,0,0,0,1.42,1,4.36,4.36,0,0,0,4.88-1,4.5,4.5,0,0,0,1-1.48,4.84,4.84,0,0,0,.35-1.85,4.62,4.62,0,0,0-.35-1.8,4.39,4.39,0,0,0-4.11-2.73,4.38,4.38,0,0,0-1.73.34,4.5,4.5,0,0,0-2.72,4.19Z" fill="#363436"/><path d="M223.78,731.44a4.94,4.94,0,0,1-2.37-.57,5.6,5.6,0,0,1-1.83-1.57,7.2,7.2,0,0,1-1.17-2.37,10.61,10.61,0,0,1-.41-3,12.21,12.21,0,0,1,.18-2.06,10.53,10.53,0,0,1,.55-2.07,9.26,9.26,0,0,1,.94-1.89,6.33,6.33,0,0,1,1.35-1.56,5.8,5.8,0,0,1,1.78-1.06,6.07,6.07,0,0,1,2.23-.39,6.44,6.44,0,0,1,1.21.1,9.47,9.47,0,0,1,.92.23,5.55,5.55,0,0,1,.8.32l-.59,1.39a5,5,0,0,0-.66-.28,6.39,6.39,0,0,0-.74-.2,4.35,4.35,0,0,0-.92-.09,4.47,4.47,0,0,0-1.53.26,4.8,4.8,0,0,0-1.27.72,5.09,5.09,0,0,0-1,1.06,6.69,6.69,0,0,0-.75,1.33,8.15,8.15,0,0,0-.5,1.49,10.45,10.45,0,0,0-.26,1.55h.05a3.43,3.43,0,0,1,.72-.76,4.48,4.48,0,0,1,1-.59,5.18,5.18,0,0,1,1.13-.38,5.56,5.56,0,0,1,1.22-.13,5.15,5.15,0,0,1,2,.38,4.66,4.66,0,0,1,1.57,1.07,4.72,4.72,0,0,1,1,1.63,5.62,5.62,0,0,1,.37,2.08,5.88,5.88,0,0,1-.4,2.24,5,5,0,0,1-1.07,1.68,4.48,4.48,0,0,1-1.6,1.06A5.15,5.15,0,0,1,223.78,731.44Zm0-1.49a3.51,3.51,0,0,0,1.45-.29,3,3,0,0,0,1.09-.81,3.56,3.56,0,0,0,.67-1.21,4.74,4.74,0,0,0,.24-1.54,4.48,4.48,0,0,0-.26-1.54,3.43,3.43,0,0,0-.74-1.19,3.15,3.15,0,0,0-1.14-.77,3.94,3.94,0,0,0-1.48-.27,4.64,4.64,0,0,0-1.51.24,5.07,5.07,0,0,0-1.23.63,3.27,3.27,0,0,0-.83.88,1.86,1.86,0,0,0-.3,1,4.86,4.86,0,0,0,.13,1.11,5.63,5.63,0,0,0,.39,1.11,5.37,5.37,0,0,0,.61,1,4.68,4.68,0,0,0,.81.85,3.73,3.73,0,0,0,1,.58A3,3,0,0,0,223.75,730Z" fill="#363436"/><path d="M238.05,719.72h1.52v2c0,.11,0,.21,0,.29s0,.19,0,.27h0a3.6,3.6,0,0,1,.63-1.1,4.76,4.76,0,0,1,1-.92,5,5,0,0,1,1.21-.64,4.09,4.09,0,0,1,1.33-.23,3.65,3.65,0,0,1,2.43.72,3.51,3.51,0,0,1,1.11,2.14h0a4.77,4.77,0,0,1,1.62-2,5.52,5.52,0,0,1,1.21-.62,4.25,4.25,0,0,1,1.38-.23,4.61,4.61,0,0,1,1.77.3,2.86,2.86,0,0,1,1.17.87,3.59,3.59,0,0,1,.66,1.39,8.21,8.21,0,0,1,.2,1.88v7.28h-1.54v-6.9a7.86,7.86,0,0,0-.1-1.32,3,3,0,0,0-.36-1.08,1.91,1.91,0,0,0-.75-.74,2.63,2.63,0,0,0-1.27-.27,2.91,2.91,0,0,0-1.24.27,3.59,3.59,0,0,0-1.06.71,4.34,4.34,0,0,0-.81,1,4.58,4.58,0,0,0-.51,1.21,4.1,4.1,0,0,0-.16.79,8.26,8.26,0,0,0,0,.88v5.41h-1.54v-6.9a10.39,10.39,0,0,0-.08-1.26,2.94,2.94,0,0,0-.32-1.1,1.9,1.9,0,0,0-.73-.76,2.55,2.55,0,0,0-1.3-.29,3,3,0,0,0-1.3.28,4.07,4.07,0,0,0-1.09.75,4.86,4.86,0,0,0-.83,1.07,5.57,5.57,0,0,0-.52,1.27,5.42,5.42,0,0,0-.13.74c0,.26,0,.52,0,.79v5.41h-1.54Z" fill="#363436"/><path d="M258.05,725.38a5.91,5.91,0,0,1,.47-2.35,5.87,5.87,0,0,1,3.23-3.14,6.11,6.11,0,0,1,2.35-.45,6.2,6.2,0,0,1,2.36.45,6.07,6.07,0,0,1,1.92,1.25,5.85,5.85,0,0,1,1.3,1.89,5.74,5.74,0,0,1,.47,2.35,5.92,5.92,0,0,1-1.77,4.32,6.17,6.17,0,0,1-6.63,1.28,6.08,6.08,0,0,1-1.93-1.28,5.92,5.92,0,0,1-1.77-4.32Zm1.6,0a4.77,4.77,0,0,0,1.3,3.33,4.38,4.38,0,0,0,6.3,0,4.77,4.77,0,0,0,1.3-3.33,4.45,4.45,0,0,0-.35-1.8,4.57,4.57,0,0,0-.95-1.44,4.48,4.48,0,0,0-1.42-.95,4.57,4.57,0,0,0-3.46,0,4.48,4.48,0,0,0-1.42.95,4.57,4.57,0,0,0-.95,1.44A4.45,4.45,0,0,0,259.65,725.38Z" fill="#363436"/><path d="M273,719.72h1.52v2a2.33,2.33,0,0,1,0,.29,2.13,2.13,0,0,1,0,.27h0a5,5,0,0,1,.51-.89,4.55,4.55,0,0,1,.92-1,5.4,5.4,0,0,1,1.35-.75,5,5,0,0,1,1.8-.3,4.72,4.72,0,0,1,1.79.3,2.83,2.83,0,0,1,1.18.87,3.45,3.45,0,0,1,.65,1.39,7.69,7.69,0,0,1,.2,1.88v7.28h-1.54v-6.87a10.64,10.64,0,0,0-.08-1.29,2.8,2.8,0,0,0-.34-1.08,1.93,1.93,0,0,0-.75-.75,2.7,2.7,0,0,0-1.32-.28,4.08,4.08,0,0,0-1.4.24,4.4,4.4,0,0,0-1.22.67,4.41,4.41,0,0,0-1.53,2.33,3,3,0,0,0-.15.74,7,7,0,0,0,0,.8v5.49H273Z" fill="#363436"/><path d="M287,721.15h-1.5v-1.3H287v-3.3h1.53v3.3h2.86v1.3h-2.86v5.69a4.36,4.36,0,0,0,.13,1.16,3.26,3.26,0,0,0,.34.82,1.93,1.93,0,0,0,.49.53,2.12,2.12,0,0,0,.56.32,3.11,3.11,0,0,0,.56.15,3,3,0,0,0,.49,0h.38l.15,0v1.38l-.18,0h-.49a7.42,7.42,0,0,1-.76,0,4,4,0,0,1-.86-.21,3.69,3.69,0,0,1-.86-.44,2.85,2.85,0,0,1-.76-.75,3.89,3.89,0,0,1-.53-1.16A5.71,5.71,0,0,1,287,727Z" fill="#363436"/><path d="M294.15,715.16h1.54v6.56c0,.12,0,.22,0,.3s0,.18,0,.26h0a4.1,4.1,0,0,1,.54-.9,4.55,4.55,0,0,1,.93-.93,5,5,0,0,1,3.09-1,4.75,4.75,0,0,1,1.79.3,2.83,2.83,0,0,1,1.18.87,3.45,3.45,0,0,1,.65,1.39,8.21,8.21,0,0,1,.2,1.88v7.28h-1.54v-6.87a10.64,10.64,0,0,0-.08-1.29,3,3,0,0,0-.34-1.08,1.93,1.93,0,0,0-.75-.75,2.75,2.75,0,0,0-1.32-.28,4.08,4.08,0,0,0-1.4.24,4.52,4.52,0,0,0-1.22.67,4.25,4.25,0,0,0-.94,1,4.72,4.72,0,0,0-.6,1.31,4.1,4.1,0,0,0-.15.73c0,.25,0,.52,0,.79v5.49h-1.54Z" fill="#363436"/><path d="M307.55,728.66a3.73,3.73,0,0,0,.9.7,5.7,5.7,0,0,0,1.07.47,4.27,4.27,0,0,0,1.44.22,3.17,3.17,0,0,0,.88-.12,2.34,2.34,0,0,0,.73-.34,1.61,1.61,0,0,0,.5-.57,1.57,1.57,0,0,0,.19-.79,1.28,1.28,0,0,0-.27-.81,2.44,2.44,0,0,0-.7-.6,6.89,6.89,0,0,0-1-.49l-1.14-.45c-.38-.16-.76-.33-1.13-.52a4.21,4.21,0,0,1-1-.66,3,3,0,0,1-.7-.88,2.58,2.58,0,0,1-.27-1.22,2.81,2.81,0,0,1,.32-1.35,3.27,3.27,0,0,1,.86-1,4,4,0,0,1,1.25-.62,5.51,5.51,0,0,1,1.48-.2,5.65,5.65,0,0,1,1.57.2,6.32,6.32,0,0,1,1.1.43,3.81,3.81,0,0,1,.85.62l-.7,1.18a3.7,3.7,0,0,0-.72-.52,5.63,5.63,0,0,0-.89-.36,4.31,4.31,0,0,0-1.25-.16,3.47,3.47,0,0,0-.85.1,2.12,2.12,0,0,0-.72.31,1.52,1.52,0,0,0-.52.55,1.59,1.59,0,0,0-.19.81,1.28,1.28,0,0,0,.27.82,2.63,2.63,0,0,0,.7.6,7.46,7.46,0,0,0,1,.48l1.13.44c.39.16.77.32,1.14.51a4.43,4.43,0,0,1,1,.66,3.17,3.17,0,0,1,.7.89,2.6,2.6,0,0,1,.26,1.23,3,3,0,0,1-.28,1.29,3,3,0,0,1-.81,1,3.64,3.64,0,0,1-1.23.67,5,5,0,0,1-1.59.24,6,6,0,0,1-1.83-.26,6.29,6.29,0,0,1-1.32-.58,5.33,5.33,0,0,1-1.08-.83Z" fill="#363436"/><path d="M157.91,811.65l-5.37-9.6h4.53l1.84,3.92c.53,1.11,1,2.34,1,2.34h.05s.45-1.23,1-2.34l1.82-3.92h4.53l-5.37,9.6v6.67h-4Z" fill="#363436"/><path d="M177.82,801.78a8.22,8.22,0,0,1,8.5,8.3,8.51,8.51,0,1,1-17,0A8.22,8.22,0,0,1,177.82,801.78Zm0,13.17a4.59,4.59,0,0,0,4.39-4.87,4.4,4.4,0,1,0-8.78,0A4.58,4.58,0,0,0,177.82,815Z" fill="#363436"/><path d="M190.51,802.05h4v10.28c0,1.71,1.12,2.62,2.83,2.62a2.5,2.5,0,0,0,2.82-2.62V802.05h4v10.28c0,3.67-2.69,6.26-6.78,6.26s-6.83-2.59-6.83-6.26Z" fill="#363436"/><path d="M224.48,814.91h-5.07l-1,3.41h-4.1l5.53-16.27h4.19l5.52,16.27h-4.09Zm-2.55-9.15s-.36,1.78-.66,2.8l-.93,3.16h3.21l-.91-3.16c-.3-1-.66-2.8-.66-2.8Z" fill="#363436"/><path d="M233.1,802.05h5.67a8.47,8.47,0,0,1,3.16.39,4.73,4.73,0,0,1,3,4.73,5,5,0,0,1-2.43,4.44v0s.22.3.61,1l3.16,5.69h-4.43L239,812.83h-1.87v5.49h-4Zm5.71,7.37a1.86,1.86,0,0,0,2.07-2c0-1.23-.45-2-2.45-2h-1.35v4Z" fill="#363436"/><path d="M250.3,802.05h10.19v3.41h-6.21v3h5v3.41h-5v3.08h6.53v3.41H250.3Z" fill="#363436"/><path d="M272.28,802.05h4l4.5,7.6a28.05,28.05,0,0,1,1.36,2.77h.05s-.18-1.75-.18-2.77v-7.6h4v16.27h-4l-4.52-7.58a29.16,29.16,0,0,1-1.37-2.77h0s.18,1.75.18,2.77v7.58h-4Z" fill="#363436"/><path d="M298.94,801.78a8.23,8.23,0,0,1,8.51,8.3,8.51,8.51,0,1,1-17,0A8.23,8.23,0,0,1,298.94,801.78Zm0,13.17a4.58,4.58,0,0,0,4.39-4.87,4.4,4.4,0,1,0-8.78,0A4.59,4.59,0,0,0,298.94,815Z" fill="#363436"/><path d="M310.34,802.05h4.19l2,10.17a9.21,9.21,0,0,1,.21,1.71h0a9.46,9.46,0,0,1,.28-1.71l2.5-10.17h3.21l2.43,10.17a8.83,8.83,0,0,1,.27,1.71h.05a9.65,9.65,0,0,1,.2-1.71L328,802.05h4.12L328,818.32h-4.43l-2.05-8.21a14.15,14.15,0,0,1-.32-1.92h0a14.15,14.15,0,0,1-.32,1.92l-2.05,8.21H314.3Z" fill="#363436"/><path d="M351.24,814.91h-5.07l-1,3.41H341.1l5.53-16.27h4.18l5.53,16.27h-4.09Zm-2.54-9.15s-.37,1.78-.66,2.8l-.94,3.16h3.21l-.91-3.16c-.29-1-.66-2.8-.66-2.8Z" fill="#363436"/><path d="M154.55,829.35h6.75c3.16,0,5.3,2.32,5.3,5.6s-2.14,5.64-5.3,5.64h-2.77v5h-4Zm5.93,7.83a2,2,0,0,0,2.07-2.23,1.92,1.92,0,0,0-2-2.18h-2v4.41Z" fill="#363436"/><path d="M178.07,829.08a8.22,8.22,0,0,1,8.5,8.3,8.51,8.51,0,1,1-17,0A8.22,8.22,0,0,1,178.07,829.08Zm0,13.17a4.59,4.59,0,0,0,4.39-4.87,4.4,4.4,0,1,0-8.78,0A4.58,4.58,0,0,0,178.07,842.25Z" fill="#363436"/><path d="M191,829.35h5.66a8.43,8.43,0,0,1,3.16.39,4.73,4.73,0,0,1,3,4.73,5,5,0,0,1-2.44,4.44v0a9.82,9.82,0,0,1,.62,1l3.16,5.69H199.7l-2.89-5.49H195v5.49h-4Zm5.71,7.37a1.86,1.86,0,0,0,2.07-2c0-1.23-.46-2-2.46-2H195v4Z" fill="#363436"/><path d="M211.38,832.77h-4.94v-3.42h13.85v3.42h-4.93v12.85h-4Z" fill="#363436"/><path d="M223.78,829.35h4v10.29c0,1.7,1.11,2.61,2.82,2.61a2.5,2.5,0,0,0,2.82-2.61V829.35h4v10.29c0,3.66-2.69,6.25-6.78,6.25s-6.82-2.59-6.82-6.25Z" fill="#363436"/><path d="M250.12,829.08a9,9,0,0,1,6.25,2.16l-1.91,3a6.47,6.47,0,0,0-4-1.5c-3.42,0-4.8,2.18-4.8,4.59a4.61,4.61,0,0,0,4.66,4.94,5.58,5.58,0,0,0,3.3-1.18v-1.25h-2.3v-3.39h5.82v9.19h-3.32v-.46c0-.34,0-.68,0-.68h0a6.75,6.75,0,0,1-4.28,1.41c-4.16,0-8-3.12-8-8.44A8.23,8.23,0,0,1,250.12,829.08Z" fill="#363436"/><path d="M261.68,829.35h4v10.29c0,1.7,1.11,2.61,2.82,2.61a2.5,2.5,0,0,0,2.82-2.61V829.35h4v10.29c0,3.66-2.68,6.25-6.78,6.25s-6.82-2.59-6.82-6.25Z" fill="#363436"/><path d="M280.58,829.35h10.19v3.42h-6.21v3h5v3.41h-5v3.08h6.53v3.41H280.58Z" fill="#363436"/><path d="M296.53,840.54a6.72,6.72,0,0,0,3.89,1.69c.82,0,1.71-.32,1.71-1.3,0-1.93-7.33-1.86-7.33-6.87,0-3,2.53-5,5.76-5a7.38,7.38,0,0,1,5.23,1.84l-1.68,3.26a6.21,6.21,0,0,0-3.6-1.44c-.82,0-1.73.37-1.73,1.28,0,2,7.33,1.68,7.33,6.82,0,2.71-2.07,5-5.74,5a8.37,8.37,0,0,1-5.93-2.32Z" fill="#363436"/><path d="M310.55,829.35h10.19v3.42h-6.21v3h5v3.41h-5v3.08h6.52v3.41h-10.5Z" fill="#363436"/><path d="M340,829.08a8.47,8.47,0,0,1,6.1,2.3l-1.85,3a6.83,6.83,0,0,0-4.07-1.66,4.4,4.4,0,0,0-4.59,4.64,4.62,4.62,0,0,0,4.59,4.89,6.65,6.65,0,0,0,4.32-2l2.05,2.91a8.93,8.93,0,0,1-6.55,2.73,8.16,8.16,0,0,1-8.53-8.44A8.27,8.27,0,0,1,340,829.08Z" fill="#363436"/><path d="M350.63,829.35h4v16.27h-4Z" fill="#363436"/><path d="M363.26,832.77h-4.94v-3.42h13.85v3.42h-4.93v12.85h-4Z" fill="#363436"/><path d="M375.88,829.35h4v16.27h-4Z" fill="#363436"/><path d="M384.35,843.12l6.28-8.9a8.85,8.85,0,0,1,1.25-1.48v0a10.58,10.58,0,0,1-1.25.07h-6v-3.42h12.29v2.46l-6.3,8.94a9.47,9.47,0,0,1-1.25,1.48v0a12.08,12.08,0,0,1,1.25-.06H397v3.41H384.35Z" fill="#363436"/><path d="M401.62,829.35h10.19v3.42H405.6v3h4.95v3.41H405.6v3.08h6.52v3.41h-10.5Z" fill="#363436"/><path d="M416.7,829.35h4l4.5,7.6a27.76,27.76,0,0,1,1.36,2.78h.05s-.18-1.76-.18-2.78v-7.6h4v16.27h-4L421.91,838a29.16,29.16,0,0,1-1.37-2.77h0s.18,1.75.18,2.77v7.58h-4Z" fill="#363436"/><line x1="126.2" y1="196.23" x2="126.2" y2="719.5" fill="none" stroke="#bd964c" stroke-width="1.31"/><rect y="196.23" width="70.08" height="521.98" fill="#e5d6bc"/><rect width="70.08" height="196.23" fill="#f4ede3"/><rect y="718.21" width="70.08" height="197.52" fill="#d9c198"/><path d="M126.2,718.78V915m0-915V196.23" fill="none" stroke="#231f20" stroke-width="1.31"/><path d="M126.2,28.44a6,6,0,1,0-6-6,6,6,0,0,0,6,6" fill="#363436"/><path d="M126.2,110.2a6,6,0,1,0-6-6,6,6,0,0,0,6,6" fill="#363436"/><path d="M126.2,282.39a6,6,0,1,0-6-6,6,6,0,0,0,6,6" fill="#363436"/><path d="M126.2,486.3a6,6,0,1,0-6-6,6,6,0,0,0,6,6" fill="#363436"/><path d="M126.2,698.88a6,6,0,1,0-6-6,6,6,0,0,0,6,6" fill="#363436"/><path d="M126.2,813.35a6.05,6.05,0,1,0-6-6.05,6.05,6.05,0,0,0,6,6.05" fill="#363436"/><path d="M118.24,914.3h15.92M118.24.71h15.92" fill="none" stroke="#231f20" stroke-width="1.31"/><path d="M29,871.24a6.37,6.37,0,0,1,1.73-4.58L33,868.05a5.09,5.09,0,0,0-1.25,3.05,3.3,3.3,0,0,0,3.48,3.45,3.48,3.48,0,0,0,3.67-3.45,5,5,0,0,0-1.5-3.24l2.18-1.54a6.71,6.71,0,0,1,2,4.92,6.12,6.12,0,0,1-6.33,6.4A6.21,6.21,0,0,1,29,871.24Z" fill="#363436"/><path d="M29.24,863.24v-3h12.2v3Z" fill="#363436"/><path d="M31.8,853.77v3.7H29.24V847.08H31.8v3.7h9.64v3Z" fill="#363436"/><path d="M29.24,844.3v-3h12.2v3Z" fill="#363436"/><path d="M39.56,838l-6.67-4.71a6.86,6.86,0,0,1-1.11-.94h0a8.18,8.18,0,0,1,.05.94v4.49H29.24v-9.22h1.84l6.71,4.73a6.86,6.86,0,0,1,1.11.94h0a8.4,8.4,0,0,1,0-.94v-4.81h2.56V838Z" fill="#363436"/><path d="M29.24,825v-7.65H31.8V822H34v-3.72h2.55V822h2.31v-4.9h2.56V825Z" fill="#363436"/><path d="M29.24,813.7v-3l5.7-3.38c.8-.47,2.08-1,2.08-1v0s-1.32.13-2.08.13h-5.7v-3h12.2v3l-5.68,3.39a22.7,22.7,0,0,1-2.09,1v0s1.32-.13,2.09-.13h5.68v3Z" fill="#363436"/><path d="M37.63,798.58a5,5,0,0,0,1.27-2.91c0-.62-.24-1.28-1-1.28-1.45,0-1.4,5.49-5.15,5.49-2.25,0-3.74-1.89-3.74-4.32a5.54,5.54,0,0,1,1.38-3.92l2.44,1.26a4.67,4.67,0,0,0-1.07,2.7c0,.61.27,1.29,1,1.29,1.53,0,1.26-5.49,5.11-5.49,2,0,3.79,1.55,3.79,4.3a6.28,6.28,0,0,1-1.74,4.45Z" fill="#363436"/><path d="M29.24,788.07v-3h4.88v-4.44H29.24v-3h12.2v3H36.66v4.44h4.78v3Z" fill="#363436"/><path d="M29.24,773.54v-3h12.2v3Z" fill="#363436"/><path d="M29.24,766.4v-5.06a3.9,3.9,0,0,1,4.19-4,3.94,3.94,0,0,1,4.24,4v2.08h3.77v3ZM35.11,762a1.49,1.49,0,0,0-1.68-1.55,1.44,1.44,0,0,0-1.63,1.5v1.52h3.31Z" fill="#363436"/><path d="M102.19,684.76l-4.8,2.69v-2.27l2-.92c.55-.26,1.17-.49,1.17-.49v0s-.62-.23-1.17-.49l-2-.91v-2.26l4.8,2.68h3.34v2Z" fill="#bd964c"/><path d="M97.39,678.33v-5.1H99.1v3.1h1.47v-2.48h1.71v2.48h1.54v-3.26h1.71v5.26Z" fill="#bd964c"/><path d="M103.82,666.71v2.54l1.71.49v2L97.39,669v-2.1l8.14-2.76v2.05ZM99.24,668s.89.19,1.4.33l1.59.47v-1.6l-1.59.45c-.51.15-1.4.33-1.4.33Z" fill="#bd964c"/><path d="M97.39,662.4v-2.83a4.46,4.46,0,0,1,.19-1.59,2.37,2.37,0,0,1,2.37-1.5,2.48,2.48,0,0,1,2.22,1.22h0s.15-.11.49-.31l2.85-1.58V658l-2.75,1.44v.94h2.75v2Zm3.69-2.86a.94.94,0,0,0-1-1c-.61,0-1,.23-1,1.23v.67h2Z" fill="#bd964c"/><path d="M103.06,649.88a2.7,2.7,0,0,0,.72-1.66,1,1,0,0,0-1-1.13c-.63,0-1,.55-1,1.29a2.42,2.42,0,0,0,.27,1.1l-.4,1.06-4.25-.34v-4.55H99.1v2.83l.75,0a1.23,1.23,0,0,1,.32.05v0a2.42,2.42,0,0,1-.08-.59,2.62,2.62,0,0,1,2.67-2.91,2.85,2.85,0,0,1,2.9,3,3.93,3.93,0,0,1-1.07,2.78Z" fill="#bd964c"/><path d="M102.19,476l-4.8,2.69v-2.27l2-.92c.55-.26,1.17-.49,1.17-.49v0s-.62-.23-1.17-.49l-2-.91v-2.27l4.8,2.69h3.34v2Z" fill="#bd964c"/><path d="M97.39,469.55v-5.1H99.1v3.11h1.47v-2.48h1.71v2.48h1.54v-3.27h1.71v5.26Z" fill="#bd964c"/><path d="M103.82,457.94v2.53l1.71.49V463l-8.14-2.76v-2.1l8.14-2.76v2.05Zm-4.58,1.27s.89.18,1.4.33l1.59.47V458.4l-1.59.46c-.51.15-1.4.33-1.4.33Z" fill="#bd964c"/><path d="M97.39,453.63v-2.84a4.35,4.35,0,0,1,.19-1.58,2.37,2.37,0,0,1,2.37-1.5,2.48,2.48,0,0,1,2.22,1.22h0a4,4,0,0,1,.49-.31l2.85-1.58v2.22l-2.75,1.44v.94h2.75v2Zm3.69-2.86a.93.93,0,0,0-1-1c-.61,0-1,.22-1,1.22v.68h2Z" fill="#bd964c"/><path d="M103.06,441.18a2.68,2.68,0,0,0,.72-1.67c0-.74-.36-1.16-.8-1.16-.64,0-.9.64-.9,1.51v.57l-1,.42-1.29-1.07a9,9,0,0,1-.76-.7h0a3.81,3.81,0,0,1,.06.77v1.95H97.39v-5.14h1.24l1.9,1.66a2.39,2.39,0,0,1,2.36-2,2.76,2.76,0,0,1,2.77,3,3.87,3.87,0,0,1-1.07,2.78Z" fill="#bd964c"/><path d="M102.19,580.71l-4.8,2.69v-2.27l2-.92c.55-.26,1.17-.49,1.17-.49v0s-.62-.23-1.17-.49l-2-.91V576l4.8,2.69h3.34v2Z" fill="#bd964c"/><path d="M97.39,574.27v-5.09H99.1v3.1h1.48V569.8h1.7v2.48h1.54V569h1.71v5.25Z" fill="#bd964c"/><path d="M103.82,562.66v2.54l1.71.48v2.05L97.39,565v-2.1l8.14-2.76v2Zm-4.58,1.27s.89.18,1.4.33l1.59.47v-1.61l-1.59.46c-.51.15-1.4.33-1.4.33Z" fill="#bd964c"/><path d="M97.39,558.35v-2.84a4.35,4.35,0,0,1,.19-1.58,2.38,2.38,0,0,1,2.37-1.5,2.48,2.48,0,0,1,2.22,1.22h0a4,4,0,0,1,.49-.31l2.85-1.58V554l-2.75,1.44v.94h2.75v2Zm3.69-2.86a.93.93,0,0,0-1-1c-.62,0-1,.22-1,1.22v.68h2Z" fill="#bd964c"/><path d="M102.35,546.9l-5-3.14v-2.43h4.52v-1h1.65v1h2v2h-2v3.6Zm-.44-3.6h-1.82a7,7,0,0,1-.91-.07v0a4.21,4.21,0,0,1,.84.4l1.86,1.23h0Z" fill="#bd964c"/><path d="M102.19,371.68l-4.8,2.68V372.1l2-.92c.55-.27,1.17-.49,1.17-.49v0s-.62-.22-1.17-.49l-2-.91V367l4.8,2.68h3.34v2Z" fill="#bd964c"/><path d="M97.39,365.24v-5.1H99.1v3.11h1.48v-2.48h1.7v2.48h1.54V360h1.71v5.26Z" fill="#bd964c"/><path d="M103.82,353.63v2.54l1.71.49v2l-8.14-2.77v-2.09l8.14-2.77v2.05Zm-4.58,1.28s.89.18,1.4.33l1.59.47V354.1l-1.59.46c-.51.14-1.4.33-1.4.33Z" fill="#bd964c"/><path d="M97.39,349.32v-2.83a4.35,4.35,0,0,1,.19-1.58,2.38,2.38,0,0,1,2.37-1.5,2.49,2.49,0,0,1,2.22,1.21h0a5.27,5.27,0,0,1,.49-.3l2.85-1.58V345l-2.75,1.45v.93h2.75v2Zm3.69-2.85a.94.94,0,0,0-1-1c-.62,0-1,.23-1,1.23v.67h2Z" fill="#bd964c"/><path d="M104.65,337.64c-3,0-3.54-3.51-4.71-3.51a.8.8,0,0,0-.81.87c0,.78.87,1.21.87,1.21l-1,1.48a3.14,3.14,0,0,1-1.76-2.87,2.55,2.55,0,0,1,2.5-2.78c2.53,0,3,3.28,4.07,3.34v-3.46h1.71v5.63A4.78,4.78,0,0,1,104.65,337.64Z" fill="#bd964c"/><path d="M102.19,267l-4.8,2.69v-2.27l2-.92c.55-.26,1.17-.49,1.17-.49v0s-.62-.23-1.17-.49l-2-.91v-2.27l4.8,2.69h3.34v2Z" fill="#bd964c"/><path d="M97.39,260.59v-5.1H99.1v3.1h1.48v-2.48h1.7v2.48h1.54v-3.26h1.71v5.26Z" fill="#bd964c"/><path d="M103.82,249v2.54l1.71.49v2.05l-8.14-2.77V249.2l8.14-2.77v2Zm-4.58,1.27s.89.19,1.4.33l1.59.47v-1.6l-1.59.45c-.51.15-1.4.33-1.4.33Z" fill="#bd964c"/><path d="M97.39,244.67v-2.83a4.35,4.35,0,0,1,.19-1.58,2.37,2.37,0,0,1,2.37-1.51,2.48,2.48,0,0,1,2.22,1.22h0s.15-.11.49-.31l2.85-1.58v2.22l-2.75,1.45v.93h2.75v2Zm3.69-2.86a.93.93,0,0,0-1-1c-.62,0-1,.23-1,1.23v.67h2Z" fill="#bd964c"/><path d="M103.82,232.9v-1.73h-4v0a1.41,1.41,0,0,1,.43.32l.45.49-1.23,1.15-2.06-2.2v-1.72h6.43v-1.74h1.71v5.42Z" fill="#bd964c"/><path d="M31.8,566.36v3.71H29.24V559.68H31.8v3.7h9.64v3Z" fill="#363436"/><path d="M29.24,556.9v-7.65H31.8v4.66H34v-3.72h2.55v3.72h2.31V549h2.56v7.89Z" fill="#363436"/><path d="M29.24,545v-3.24L34.39,540c.79-.27,2-.61,2-.61v0s-1.22-.34-2-.61l-5.15-1.78v-3.24l12.2-1v3l-5.5.37a17.57,17.57,0,0,1-2,0v0s1.28.41,2,.68L39.48,538v2.56l-3.54,1.28c-.76.27-2,.68-2,.68v0a17.57,17.57,0,0,1,2,0l5.5.37v3Z" fill="#363436"/><path d="M29.24,528.91v-5.07a3.9,3.9,0,0,1,4.19-4,3.94,3.94,0,0,1,4.24,4v2.09h3.77v3Zm5.87-4.45a1.49,1.49,0,0,0-1.68-1.55,1.44,1.44,0,0,0-1.63,1.5v1.52h3.31Z" fill="#363436"/><path d="M29,511.27a6.17,6.17,0,0,1,6.23-6.38,6.38,6.38,0,0,1,0,12.76A6.17,6.17,0,0,1,29,511.27Zm9.88,0A3.44,3.44,0,0,0,35.26,508a3.3,3.3,0,1,0,0,6.58A3.44,3.44,0,0,0,38.91,511.27Z" fill="#363436"/><path d="M29.24,501.58v-4.25a6.18,6.18,0,0,1,.29-2.37,3.53,3.53,0,0,1,3.55-2.25,3.7,3.7,0,0,1,3.32,1.82h0a6.93,6.93,0,0,1,.73-.46l4.27-2.37V495l-4.11,2.16v1.4h4.11v3Zm5.53-4.29a1.4,1.4,0,0,0-1.51-1.55c-.92,0-1.46.34-1.46,1.84v1h3Z" fill="#363436"/><path d="M38.88,482.52v3.8l2.56.74v3.07L29.24,486v-3.14l12.2-4.15v3.08ZM32,484.43s1.33.27,2.1.49l2.37.7v-2.4l-2.37.68c-.77.22-2.1.49-2.1.49Z" fill="#363436"/><path d="M29.24,476.05V471.8a6.22,6.22,0,0,1,.29-2.37,3.55,3.55,0,0,1,3.55-2.25A3.7,3.7,0,0,1,36.4,469h0a6.93,6.93,0,0,1,.73-.46l4.27-2.37v3.33l-4.11,2.17v1.4h4.11v3Zm5.53-4.28a1.39,1.39,0,0,0-1.51-1.55c-.92,0-1.46.34-1.46,1.84v1h3Z" fill="#363436"/><path d="M36.44,460.83l-7.2,4v-3.4l2.93-1.38c.84-.39,1.76-.73,1.76-.73v0s-.92-.34-1.76-.73l-2.93-1.37v-3.39l7.2,4h5v3Z" fill="#363436"/><path d="M29.24,446v-4.25a6.15,6.15,0,0,1,.29-2.37,3.54,3.54,0,0,1,3.55-2.26,3.71,3.71,0,0,1,3.32,1.83h0a6.93,6.93,0,0,1,.73-.46l4.27-2.37v3.32l-4.11,2.17V443h4.11v3Zm5.53-4.29a1.4,1.4,0,0,0-1.51-1.55c-.92,0-1.46.34-1.46,1.84v1h3Z" fill="#363436"/><path d="M29.24,433.07v-7.64H31.8v4.65H34v-3.72h2.55v3.72h2.31v-4.89h2.56v7.88Z" fill="#363436"/><path d="M37.63,421.09a5,5,0,0,0,1.27-2.92c0-.61-.24-1.28-1-1.28-1.45,0-1.4,5.5-5.15,5.5-2.25,0-3.74-1.9-3.74-4.32a5.51,5.51,0,0,1,1.38-3.92l2.44,1.26a4.67,4.67,0,0,0-1.07,2.7c0,.61.27,1.29,1,1.29,1.53,0,1.26-5.49,5.11-5.49,2,0,3.79,1.55,3.79,4.3a6.3,6.3,0,0,1-1.74,4.45Z" fill="#363436"/><path d="M29.24,410.58v-3h12.2v3Z" fill="#363436"/><path d="M29.24,403.45v-4.34c0-3.83,2.23-6.29,6.07-6.29s6.13,2.46,6.13,6.29v4.34Zm9.64-4.22c0-2.06-1.23-3.32-3.57-3.32s-3.51,1.31-3.51,3.32v1.23h7.08Z" fill="#363436"/><path d="M29.24,389.44V381.8H31.8v4.65H34v-3.72h2.55v3.72h2.31v-4.89h2.56v7.88Z" fill="#363436"/><path d="M29.24,378.14v-3l5.7-3.37a21.76,21.76,0,0,1,2.08-1v0s-1.32.13-2.08.13h-5.7v-3h12.2v3l-5.68,3.4c-.81.47-2.09,1-2.09,1v0s1.32-.14,2.09-.14h5.68v3Z" fill="#363436"/><path d="M29,358.13a6.33,6.33,0,0,1,1.73-4.57L33,354.94A5.09,5.09,0,0,0,31.76,358a3.3,3.3,0,0,0,3.48,3.45A3.47,3.47,0,0,0,38.91,358a5,5,0,0,0-1.5-3.24l2.18-1.53a6.68,6.68,0,0,1,2,4.91,6.12,6.12,0,0,1-6.33,6.4A6.21,6.21,0,0,1,29,358.13Z" fill="#363436"/><path d="M36.44,347.6l-7.2,4v-3.4l2.93-1.38c.84-.39,1.76-.73,1.76-.73v0s-.92-.34-1.76-.73L29.24,344v-3.39l7.2,4h5v3Z" fill="#363436"/><path d="M38.88,154.38v3.8l2.56.74V162l-12.2-4.15V154.7l12.2-4.14v3.07ZM32,156.29s1.33.27,2.1.49l2.37.7v-2.4l-2.37.68c-.77.22-2.1.49-2.1.49Z" fill="#363436"/><path d="M29.24,147.91v-5.07a3.9,3.9,0,0,1,4.19-4,3.94,3.94,0,0,1,4.24,4v2.09h3.77v3Zm5.87-4.45a1.49,1.49,0,0,0-1.68-1.55,1.44,1.44,0,0,0-1.63,1.5v1.52h3.31Z" fill="#363436"/><path d="M29.24,135.81v-5.06a3.9,3.9,0,0,1,4.19-4,3.94,3.94,0,0,1,4.24,4v2.08h3.77v3Zm5.87-4.45a1.49,1.49,0,0,0-1.68-1.55,1.44,1.44,0,0,0-1.63,1.5v1.52h3.31Z" fill="#363436"/><path d="M29.24,123.72v-3h9.64v-5h2.56v8Z" fill="#363436"/><path d="M29.24,112.83v-3h12.2v3Z" fill="#363436"/><path d="M29,100.14a6.39,6.39,0,0,1,1.72-4.58L33,96.94A5.13,5.13,0,0,0,31.76,100a3.3,3.3,0,0,0,3.48,3.45A3.48,3.48,0,0,0,38.91,100a5,5,0,0,0-1.5-3.24l2.18-1.54a6.69,6.69,0,0,1,2,4.92,6.11,6.11,0,0,1-6.33,6.39A6.2,6.2,0,0,1,29,100.14Z" fill="#363436"/><path d="M38.88,86v3.81l2.56.73v3.07l-12.2-4.14V86.35l12.2-4.15v3.07ZM32,87.94s1.33.27,2.1.49l2.37.7V86.72l-2.37.69c-.77.22-2.1.49-2.1.49Z" fill="#363436"/><path d="M31.8,77.87v3.7H29.24V71.18H31.8v3.7h9.64v3Z" fill="#363436"/><path d="M29.24,68.4v-3h12.2v3Z" fill="#363436"/><path d="M29,55.72a6.17,6.17,0,0,1,6.23-6.38,6.38,6.38,0,1,1,0,12.76A6.17,6.17,0,0,1,29,55.72Zm9.88,0a3.44,3.44,0,0,0-3.65-3.29,3.3,3.3,0,1,0,0,6.58A3.44,3.44,0,0,0,38.91,55.72Z" fill="#363436"/><path d="M29.24,46V43l5.7-3.38a20.68,20.68,0,0,1,2.08-1v0s-1.32.14-2.08.14h-5.7v-3h12.2v3l-5.69,3.39a21.76,21.76,0,0,1-2.08,1v0S35,43,35.75,43h5.69v3Z" fill="#363436"/><line x1="118.24" y1="196.23" x2="134.16" y2="196.23" fill="none" stroke="#bd964c" stroke-width="1.31"/><line x1="118.24" y1="300.62" x2="134.16" y2="300.62" fill="none" stroke="#bd964c" stroke-width="1.31"/><line x1="118.24" y1="405.02" x2="134.16" y2="405.02" fill="none" stroke="#bd964c" stroke-width="1.31"/><line x1="118.24" y1="509.41" x2="134.16" y2="509.41" fill="none" stroke="#bd964c" stroke-width="1.31"/><line x1="118.24" y1="613.81" x2="134.16" y2="613.81" fill="none" stroke="#bd964c" stroke-width="1.31"/><line x1="118.24" y1="718.21" x2="134.16" y2="718.21" fill="none" stroke="#bd964c" stroke-width="1.31"/></svg>
