<svg xmlns="http://www.w3.org/2000/svg" viewBox="0 0 480 371.37"><path d="M178.47,320.35h5.66a5.42,5.42,0,0,1,2,.34,4.38,4.38,0,0,1,2.55,2.51,5.62,5.62,0,0,1,0,4,4.48,4.48,0,0,1-1,1.55,4.61,4.61,0,0,1-1.54,1,5.21,5.21,0,0,1-2,.35h-3.49v5.74h-2.17Zm5.31,7.88A3.52,3.52,0,0,0,185,328a2.66,2.66,0,0,0,.95-.6,2.61,2.61,0,0,0,.6-1,3.54,3.54,0,0,0,.21-1.26,3.43,3.43,0,0,0-.21-1.24A2.73,2.73,0,0,0,186,323a2.61,2.61,0,0,0-1-.58,3.47,3.47,0,0,0-1.24-.21h-3.16v6Z" transform="translate(-178.47 -113.07)" fill="#363536"/><path d="M190.54,330.27A5.73,5.73,0,0,1,191,328a5.63,5.63,0,0,1,3.19-3,6.55,6.55,0,0,1,4.67,0,5.71,5.71,0,0,1,3.19,3,5.73,5.73,0,0,1,.47,2.32,5.69,5.69,0,0,1-1.76,4.19,6,6,0,0,1-1.9,1.22,6.42,6.42,0,0,1-4.67,0,6,6,0,0,1-1.91-1.22,5.94,5.94,0,0,1-1.28-1.85A5.79,5.79,0,0,1,190.54,330.27Zm2.18,0a4.23,4.23,0,0,0,.3,1.61,3.76,3.76,0,0,0,3.51,2.39A3.71,3.71,0,0,0,198,334a3.67,3.67,0,0,0,1.22-.83,3.9,3.9,0,0,0,.81-1.26,4.23,4.23,0,0,0,.3-1.61,4.13,4.13,0,0,0-.3-1.59,4,4,0,0,0-.81-1.25,3.8,3.8,0,0,0-1.22-.82,3.8,3.8,0,0,0-4.18.82,3.82,3.82,0,0,0-.82,1.25A4.13,4.13,0,0,0,192.72,330.27Z" transform="translate(-178.47 -113.07)" fill="#363536"/><path d="M204.92,320.35h2.13v12.1a2.92,2.92,0,0,0,.09.81,1.35,1.35,0,0,0,.25.48.89.89,0,0,0,.38.23,1.84,1.84,0,0,0,.47.06h.37v1.88l-.21,0-.22,0h-.27l-.64,0a3.93,3.93,0,0,1-.68-.15,2.71,2.71,0,0,1-.63-.33,2,2,0,0,1-.53-.56,2.7,2.7,0,0,1-.37-.84,4.3,4.3,0,0,1-.14-1.2Z" transform="translate(-178.47 -113.07)" fill="#363536"/><path d="M210.86,320.35H213v2.17h-2.14Zm0,4.39H213v11.11h-2.12Z" transform="translate(-178.47 -113.07)" fill="#363536"/><path d="M216.81,326.61h-1.46v-1.72h1.52v-3.2h2.06v3.2h2.68v1.72h-2.68v4.94a2.77,2.77,0,0,0,.26,1.32,2,2,0,0,0,.62.75,2.09,2.09,0,0,0,.78.35,4,4,0,0,0,.71.08h.37l.14,0v1.88l-.21,0-.24,0h-.3c-.23,0-.5,0-.81,0a4.51,4.51,0,0,1-.92-.21,4.33,4.33,0,0,1-.93-.43,3,3,0,0,1-.81-.74,3.53,3.53,0,0,1-.57-1.13,5.37,5.37,0,0,1-.21-1.59Z" transform="translate(-178.47 -113.07)" fill="#363536"/><path d="M224.18,320.35h2.15v2.17h-2.15Zm0,4.39h2.13v11.11H224.2Z" transform="translate(-178.47 -113.07)" fill="#363536"/><path d="M228.88,330.3a5.82,5.82,0,0,1,.44-2.3,5.57,5.57,0,0,1,1.22-1.85,5.83,5.83,0,0,1,1.89-1.23,6.22,6.22,0,0,1,2.4-.44,5.8,5.8,0,0,1,1.82.25,6,6,0,0,1,1.31.56,5.06,5.06,0,0,1,1,.81l-1,1.49a4.61,4.61,0,0,0-.84-.63,5.19,5.19,0,0,0-1-.44,3.6,3.6,0,0,0-1.27-.2,4.1,4.1,0,0,0-1.54.29,3.57,3.57,0,0,0-1.22.83,3.8,3.8,0,0,0-.81,1.25,4.45,4.45,0,0,0,0,3.16,4.06,4.06,0,0,0,.81,1.27,3.86,3.86,0,0,0,1.24.85,4.09,4.09,0,0,0,1.59.3,3.92,3.92,0,0,0,1.4-.23,6,6,0,0,0,1.08-.52,5.41,5.41,0,0,0,.95-.75l.85,1.57a5.11,5.11,0,0,1-1.13.89q-.28.16-.63.33a4.82,4.82,0,0,1-.76.28,5.55,5.55,0,0,1-.89.2,6.59,6.59,0,0,1-1,.08,6.41,6.41,0,0,1-2.4-.44,5.67,5.67,0,0,1-1.89-1.23,5.53,5.53,0,0,1-1.22-1.84A5.87,5.87,0,0,1,228.88,330.3Z" transform="translate(-178.47 -113.07)" fill="#363536"/><path d="M240.78,332.73a3.16,3.16,0,0,1,.36-1.56,3.25,3.25,0,0,1,1-1.06,4.82,4.82,0,0,1,1.32-.67,10.27,10.27,0,0,1,1.48-.36c.5-.07,1-.12,1.42-.14l1.15,0H248v-.2a3.19,3.19,0,0,0-.18-1.15,2.07,2.07,0,0,0-.51-.75,2,2,0,0,0-.78-.41,3.68,3.68,0,0,0-1-.12,4.37,4.37,0,0,0-1.21.16,6.75,6.75,0,0,0-1,.37,5.64,5.64,0,0,0-.9.54l-.88-1.56a6.33,6.33,0,0,1,1.12-.65,9.81,9.81,0,0,1,1.31-.46,6.4,6.4,0,0,1,1.72-.2,4.45,4.45,0,0,1,3.25,1.11,4.32,4.32,0,0,1,1.14,3.24v7h-2v-1.4c0-.11,0-.21,0-.28s0-.18,0-.25h0a3.86,3.86,0,0,1-.78,1.1,5,5,0,0,1-.49.4,2.78,2.78,0,0,1-.61.35,4.09,4.09,0,0,1-.77.25,4.3,4.3,0,0,1-.91.1,4.64,4.64,0,0,1-1.39-.22,3.72,3.72,0,0,1-1.21-.65,3.09,3.09,0,0,1-1.17-2.52Zm2.14-.11a1.65,1.65,0,0,0,.53,1.23,1.93,1.93,0,0,0,.65.4,2.59,2.59,0,0,0,.91.15,2.29,2.29,0,0,0,1.22-.32,3.11,3.11,0,0,0,.94-.83,4.11,4.11,0,0,0,.59-1.14,3.86,3.86,0,0,0,.21-1.25v-.35h-.55c-.26,0-.56,0-.88,0s-.66,0-1,.08a7.74,7.74,0,0,0-1,.21,2.73,2.73,0,0,0-.83.37,1.82,1.82,0,0,0-.59.58A1.54,1.54,0,0,0,242.92,332.62Z" transform="translate(-178.47 -113.07)" fill="#363536"/><path d="M253.13,320.35h2.13v12.1a2.92,2.92,0,0,0,.09.81,1.21,1.21,0,0,0,.25.48.89.89,0,0,0,.38.23,1.78,1.78,0,0,0,.47.06h.36v1.88l-.2,0-.23,0h-.26l-.65,0a3.82,3.82,0,0,1-.67-.15,2.71,2.71,0,0,1-.63-.33,2,2,0,0,1-.53-.56,2.7,2.7,0,0,1-.37-.84,4.3,4.3,0,0,1-.14-1.2Z" transform="translate(-178.47 -113.07)" fill="#363536"/><path d="M607,320.35h2.17V334h6.94v1.89H607Z" transform="translate(-178.47 -113.07)" fill="#363536"/><path d="M617.36,330.3a6.59,6.59,0,0,1,.42-2.41,5.74,5.74,0,0,1,1.17-1.83,5,5,0,0,1,1.76-1.17,5.7,5.7,0,0,1,2.2-.41,5,5,0,0,1,2.08.4A4.35,4.35,0,0,1,626.5,326a4.92,4.92,0,0,1,.92,1.65,6.74,6.74,0,0,1,.31,2c0,.08,0,.16,0,.27a1.53,1.53,0,0,1,0,.3l0,.36h-8.09a4.09,4.09,0,0,0,.36,1.59,3.68,3.68,0,0,0,.84,1.15,3.42,3.42,0,0,0,1.2.69,4.17,4.17,0,0,0,1.41.23,4,4,0,0,0,1.32-.2,6.78,6.78,0,0,0,1-.44,4.53,4.53,0,0,0,.93-.65l.88,1.55a6.13,6.13,0,0,1-1.15.79,7.55,7.55,0,0,1-1.35.55,6.14,6.14,0,0,1-1.79.25,6.22,6.22,0,0,1-2.4-.45,5.4,5.4,0,0,1-1.86-1.23,5.48,5.48,0,0,1-1.2-1.84A6.07,6.07,0,0,1,617.36,330.3Zm8.19-1.3a3.35,3.35,0,0,0-.25-1.25,2.65,2.65,0,0,0-.58-.88,2.31,2.31,0,0,0-.84-.53,3.06,3.06,0,0,0-1-.17,3.34,3.34,0,0,0-1.15.19,3,3,0,0,0-1,.54,3.35,3.35,0,0,0-.72.89,3.92,3.92,0,0,0-.41,1.21Z" transform="translate(-178.47 -113.07)" fill="#363536"/><path d="M631.31,337.87a6.24,6.24,0,0,0,.9.37,6.6,6.6,0,0,0,1,.26,5.57,5.57,0,0,0,1.18.11,5,5,0,0,0,1.37-.17,3,3,0,0,0,1.11-.54,2.68,2.68,0,0,0,.76-1,3.33,3.33,0,0,0,.28-1.44v-1.07a1.48,1.48,0,0,1,0-.22,1.77,1.77,0,0,1,0-.23h0a3.62,3.62,0,0,1-1.29,1.29,4.05,4.05,0,0,1-2,.45,4.78,4.78,0,0,1-2.08-.44,4.45,4.45,0,0,1-1.57-1.21,5.4,5.4,0,0,1-1-1.8,7.56,7.56,0,0,1,0-4.45,5.05,5.05,0,0,1,1-1.76,4.28,4.28,0,0,1,1.52-1.17,5,5,0,0,1,2.06-.41,6.56,6.56,0,0,1,.92.06,5,5,0,0,1,.76.19,4.17,4.17,0,0,1,.6.27,4.6,4.6,0,0,1,.46.3,2.75,2.75,0,0,1,.74.83h0s0-.08,0-.11,0-.07,0-.11v-1.17h2v10.65a5.25,5.25,0,0,1-.48,2.34,4.45,4.45,0,0,1-1.26,1.57,5.3,5.3,0,0,1-1.8.88,7.53,7.53,0,0,1-2.06.28,7.94,7.94,0,0,1-2-.26,9.18,9.18,0,0,1-1.81-.66Zm3.66-4a3.4,3.4,0,0,0,1.11-.19,2.37,2.37,0,0,0,.94-.63,3.24,3.24,0,0,0,.65-1.18,6,6,0,0,0,.24-1.83,5.46,5.46,0,0,0-.25-1.8,2.87,2.87,0,0,0-.67-1.15,2.4,2.4,0,0,0-1-.6,4,4,0,0,0-1.22-.18,2.92,2.92,0,0,0-1.29.26,2.53,2.53,0,0,0-1,.73,3.2,3.2,0,0,0-.59,1.15,5.52,5.52,0,0,0-.19,1.53,5.29,5.29,0,0,0,.22,1.58,3.62,3.62,0,0,0,.63,1.22,2.84,2.84,0,0,0,1,.8A3.11,3.11,0,0,0,635,333.88Z" transform="translate(-178.47 -113.07)" fill="#363536"/><path d="M642.44,332.73a3.16,3.16,0,0,1,.36-1.56,3.33,3.33,0,0,1,1-1.06,5,5,0,0,1,1.33-.67,10.27,10.27,0,0,1,1.48-.36c.49-.07,1-.12,1.42-.14l1.14,0h.49v-.2a3,3,0,0,0-.19-1.15,1.85,1.85,0,0,0-1.28-1.16,3.68,3.68,0,0,0-1-.12,4.32,4.32,0,0,0-1.21.16,6.34,6.34,0,0,0-1,.37,6.24,6.24,0,0,0-.91.54l-.87-1.56a6,6,0,0,1,1.12-.65,10.16,10.16,0,0,1,1.3-.46,6.5,6.5,0,0,1,1.72-.2,4.46,4.46,0,0,1,3.26,1.11,4.32,4.32,0,0,1,1.14,3.24v7h-2v-1.4c0-.11,0-.21,0-.28s0-.18,0-.25h0a3.92,3.92,0,0,1-1.27,1.5,2.78,2.78,0,0,1-.61.35,4.34,4.34,0,0,1-.77.25,4.3,4.3,0,0,1-.91.1,4.76,4.76,0,0,1-1.4-.22,3.67,3.67,0,0,1-1.2-.65,3,3,0,0,1-.85-1.05A3.12,3.12,0,0,1,642.44,332.73Zm2.14-.11a1.65,1.65,0,0,0,.13.66,1.69,1.69,0,0,0,.4.57,1.84,1.84,0,0,0,.65.4,2.55,2.55,0,0,0,.91.15,2.29,2.29,0,0,0,1.22-.32,3,3,0,0,0,.93-.83,4,4,0,0,0,.81-2.39v-.35h-.55c-.26,0-.56,0-.88,0s-.66,0-1,.08a7.38,7.38,0,0,0-1,.21,2.79,2.79,0,0,0-.84.37,1.92,1.92,0,0,0-.59.58A1.54,1.54,0,0,0,644.58,332.62Z" transform="translate(-178.47 -113.07)" fill="#363536"/><path d="M654.79,320.35h2.13v12.1a2.92,2.92,0,0,0,.09.81,1.21,1.21,0,0,0,.25.48.83.83,0,0,0,.38.23,1.78,1.78,0,0,0,.47.06h.36v1.88l-.2,0-.23,0h-.26l-.65,0a3.82,3.82,0,0,1-.67-.15,2.78,2.78,0,0,1-.64-.33,2.38,2.38,0,0,1-.53-.56,3.27,3.27,0,0,1-.37-.84,4.74,4.74,0,0,1-.13-1.2Z" transform="translate(-178.47 -113.07)" fill="#363536"/><path d="M426.52,482a127.3,127.3,0,1,0-127.3-127.3A127.31,127.31,0,0,0,426.52,482Z" transform="translate(-178.47 -113.07)" fill="none" stroke="#eee" stroke-width="5"/><line x1="380.33" y1="241.57" x2="436.91" y2="241.57" fill="none" stroke="#bc974a" stroke-dasharray="5.67 5.67"/><path d="M634,363.14a8.49,8.49,0,1,1,8.48-8.49,8.49,8.49,0,0,1-8.48,8.49" transform="translate(-178.47 -113.07)" fill="#bc9749"/><line x1="115.45" y1="241.57" x2="58.88" y2="241.57" fill="none" stroke="#bc974a" stroke-dasharray="5.67 5.67"/><path d="M218.88,363.14a8.49,8.49,0,1,0-8.48-8.49,8.49,8.49,0,0,0,8.48,8.49" transform="translate(-178.47 -113.07)" fill="#bc9749"/><line x1="248.05" y1="109.01" x2="248.05" y2="52.43" fill="none" stroke="#bc974a" stroke-dasharray="5.67 5.67"/><path d="M435,147a8.49,8.49,0,1,1-8.48-8.49A8.49,8.49,0,0,1,435,147" transform="translate(-178.47 -113.07)" fill="#bc9749"/><path d="M385.54,113.07H391a5.87,5.87,0,0,1,1.81.27,4.21,4.21,0,0,1,1.42.77,3.61,3.61,0,0,1,.94,1.24,4.06,4.06,0,0,1,.33,1.68,3.84,3.84,0,0,1-.51,2,3.37,3.37,0,0,1-1.42,1.33v0a3.37,3.37,0,0,1,1.09.54,3.31,3.31,0,0,1,.8.87,4,4,0,0,1,.49,1.09,4.39,4.39,0,0,1,.17,1.25,4.45,4.45,0,0,1-.39,1.92,4,4,0,0,1-1.08,1.39,4.81,4.81,0,0,1-1.59.83,6.65,6.65,0,0,1-1.92.27h-5.55Zm5.41,6.52a2.4,2.4,0,0,0,.95-.18,2.11,2.11,0,0,0,.72-.48,2.25,2.25,0,0,0,.46-.74,2.87,2.87,0,0,0,.15-1,2.75,2.75,0,0,0-.15-.93,1.91,1.91,0,0,0-.45-.72,2,2,0,0,0-.73-.46,2.78,2.78,0,0,0-1-.17H387.7v4.63Zm.25,7.1a3.06,3.06,0,0,0,1.12-.19,2.06,2.06,0,0,0,.83-.54,2.21,2.21,0,0,0,.52-.83,3.06,3.06,0,0,0,.19-1.08,2.92,2.92,0,0,0-.2-1.08,2.63,2.63,0,0,0-.54-.84,2.29,2.29,0,0,0-.84-.54,3,3,0,0,0-1.1-.2H387.7v5.3Z" transform="translate(-178.47 -113.07)" fill="#363536"/><path d="M398.11,125.46a3.05,3.05,0,0,1,.37-1.56,3.37,3.37,0,0,1,.95-1.07,4.86,4.86,0,0,1,1.33-.66,10,10,0,0,1,1.48-.36,10.18,10.18,0,0,1,1.42-.14l1.14,0h.48v-.2a3.25,3.25,0,0,0-.18-1.16,1.85,1.85,0,0,0-.51-.75,1.89,1.89,0,0,0-.77-.4,3.35,3.35,0,0,0-1-.13,4.31,4.31,0,0,0-1.21.17,5.89,5.89,0,0,0-1,.37,5.61,5.61,0,0,0-.9.53l-.88-1.55a6.43,6.43,0,0,1,1.13-.65,8.43,8.43,0,0,1,1.3-.46,6.43,6.43,0,0,1,1.72-.21,4.43,4.43,0,0,1,3.26,1.12,4.31,4.31,0,0,1,1.14,3.23v7h-2v-1c0-.12,0-.23,0-.34a2.33,2.33,0,0,1,0-.29,2,2,0,0,1,0-.25h-.05a3.6,3.6,0,0,1-.78,1.11,3.91,3.91,0,0,1-.48.4,3.34,3.34,0,0,1-.62.35,4.84,4.84,0,0,1-.76.25,4.6,4.6,0,0,1-2.31-.13,3.8,3.8,0,0,1-1.21-.64,3.19,3.19,0,0,1-.85-1.06A3.23,3.23,0,0,1,398.11,125.46Zm2.14-.11a1.66,1.66,0,0,0,.14.66,1.69,1.69,0,0,0,.4.57,2,2,0,0,0,.65.4,2.52,2.52,0,0,0,.91.15,2.41,2.41,0,0,0,1.22-.32,3.38,3.38,0,0,0,.93-.84,3.71,3.71,0,0,0,.6-1.13,4.18,4.18,0,0,0,.2-1.25v-.35h-1.43a8.67,8.67,0,0,0-1,.09,6.18,6.18,0,0,0-1,.2,2.93,2.93,0,0,0-.84.37,2,2,0,0,0-.59.59A1.52,1.52,0,0,0,400.25,125.35Z" transform="translate(-178.47 -113.07)" fill="#363536"/><path d="M410.6,117.47h2.06v1.47a3,3,0,0,1,0,.31c0,.09,0,.18,0,.26a1.94,1.94,0,0,0,0,.24h0a4.71,4.71,0,0,1,.49-.81,4.48,4.48,0,0,1,.85-.83,5.2,5.2,0,0,1,1.22-.65,4.73,4.73,0,0,1,1.61-.26,3.69,3.69,0,0,1,2.9,1.06,4.74,4.74,0,0,1,.93,3.2v7.11h-2.14V122a6.39,6.39,0,0,0-.08-1.1,2.36,2.36,0,0,0-.31-.88,1.68,1.68,0,0,0-.64-.6,2.28,2.28,0,0,0-1.08-.22,3.58,3.58,0,0,0-1.19.2,3.37,3.37,0,0,0-1,.56,3.64,3.64,0,0,0-.79.87,4,4,0,0,0-.51,1.09,3.31,3.31,0,0,0-.14.71c0,.25,0,.52,0,.8v5.19H410.6Z" transform="translate(-178.47 -113.07)" fill="#363536"/><path d="M423.84,113.07H426v8.48h1.57l3-4.08H433l-3.68,4.89v0l4.1,6.16H430.9l-3.33-5.22H426v5.22h-2.12Z" transform="translate(-178.47 -113.07)" fill="#363536"/><path d="M435.36,113.07h2.15v2.18h-2.15Zm0,4.4h2.13v11.1h-2.13Z" transform="translate(-178.47 -113.07)" fill="#363536"/><path d="M440.85,117.47h2.06v1.78c0,.09,0,.18,0,.26s0,.16,0,.24h0a4.26,4.26,0,0,1,.5-.81,4.41,4.41,0,0,1,.84-.83,5.2,5.2,0,0,1,1.22-.65,4.77,4.77,0,0,1,1.61-.26,3.68,3.68,0,0,1,2.9,1.06,4.74,4.74,0,0,1,.93,3.2v7.11h-2.13V122a6.36,6.36,0,0,0-.09-1.1,2.19,2.19,0,0,0-.31-.88,1.61,1.61,0,0,0-.64-.6,2.25,2.25,0,0,0-1.08-.22,3.58,3.58,0,0,0-1.19.2,3.37,3.37,0,0,0-1,.56,3.64,3.64,0,0,0-.79.87,3.73,3.73,0,0,0-.5,1.09,4.06,4.06,0,0,0-.15.71c0,.25,0,.52,0,.8v5.19h-2.13Z" transform="translate(-178.47 -113.07)" fill="#363536"/><path d="M455.08,130.59a6.24,6.24,0,0,0,.9.38,8.18,8.18,0,0,0,1,.26,6.31,6.31,0,0,0,1.18.11,5.47,5.47,0,0,0,1.37-.17,3.11,3.11,0,0,0,1.11-.54,2.63,2.63,0,0,0,.76-1,3.27,3.27,0,0,0,.28-1.44v-1.07a1.55,1.55,0,0,1,0-.22,1.62,1.62,0,0,1,0-.22h0a3.52,3.52,0,0,1-1.29,1.28,4.05,4.05,0,0,1-2,.46,4.78,4.78,0,0,1-2.08-.44,4.69,4.69,0,0,1-1.57-1.21,5.35,5.35,0,0,1-1-1.81,7.52,7.52,0,0,1,0-4.44,5.19,5.19,0,0,1,.95-1.77,4.37,4.37,0,0,1,1.52-1.16,4.83,4.83,0,0,1,2.06-.42,5.21,5.21,0,0,1,.92.07,5,5,0,0,1,.76.19,4.17,4.17,0,0,1,.6.27,4.6,4.6,0,0,1,.46.3,2.72,2.72,0,0,1,.74.82h.05a.37.37,0,0,1,0-.11.36.36,0,0,1,0-.11v-1.16h2v10.64a5.19,5.19,0,0,1-.48,2.34A4.36,4.36,0,0,1,462,132a5.32,5.32,0,0,1-1.8.89,7.85,7.85,0,0,1-2.05.27,8,8,0,0,1-2-.25,9.18,9.18,0,0,1-1.81-.67Zm3.66-4a3.16,3.16,0,0,0,1.11-.19,2.17,2.17,0,0,0,.94-.63,3.16,3.16,0,0,0,.65-1.18,6,6,0,0,0,.24-1.83,5.77,5.77,0,0,0-.24-1.8,3,3,0,0,0-.68-1.14,2.42,2.42,0,0,0-1-.61,4,4,0,0,0-1.22-.18,3.06,3.06,0,0,0-1.29.26,2.63,2.63,0,0,0-.95.73,3.2,3.2,0,0,0-.58,1.15,5.87,5.87,0,0,0,0,3.11,3.43,3.43,0,0,0,.64,1.23,2.83,2.83,0,0,0,1,.8A3.14,3.14,0,0,0,458.74,126.6Z" transform="translate(-178.47 -113.07)" fill="#363536"/><path d="M373.32,421.67h2.84l5.9,9q.22.35.45.75c.16.28.29.54.41.79s.29.58.43.87h0c0-.29-.06-.57-.08-.86s0-.5-.05-.79,0-.53,0-.76v-9h2.8v15.59h-2.8l-5.91-9c-.15-.23-.3-.48-.46-.76s-.29-.54-.41-.79-.29-.57-.43-.87h0c0,.29,0,.58.07.86s0,.52.06.79,0,.54,0,.77v9h-2.84Z" transform="translate(-178.47 -113.07)" fill="#363536"/><path d="M390,421.67h9.34v2.44h-6.5v4.08h5.24v2.44h-5.24v4.2h6.84v2.43H390Z" transform="translate(-178.47 -113.07)" fill="#363536"/><path d="M405.85,424.11h-5.11v-2.44h13.07v2.44h-5.12v13.15h-2.84Z" transform="translate(-178.47 -113.07)" fill="#363536"/><path d="M428.52,432.45c.06.22.1.44.14.64s.06.37.08.53,0,.26,0,.35,0,.13,0,.13h.05a5,5,0,0,1,0-.5c0-.15.05-.32.08-.52s.08-.41.13-.63l2.57-10.78h2.92l-4,15.59h-3.26L424.92,428a5.11,5.11,0,0,1-.18-.75c-.05-.24-.09-.46-.12-.65s-.07-.45-.1-.65h0c0,.2-.07.42-.1.65s-.08.41-.13.65-.11.5-.17.75l-2.39,9.22h-3.27l-3.91-15.59h2.92l2.46,10.78q.08.33.12.63c0,.2.06.37.08.52s.05.35.07.5h0s0-.05,0-.13,0-.21,0-.35,0-.33.08-.53a5.71,5.71,0,0,1,.14-.64l2.81-10.78h2.46Z" transform="translate(-178.47 -113.07)" fill="#363536"/><path d="M436,429.36a7.9,7.9,0,0,1,.28-2.14,8.26,8.26,0,0,1,.79-1.91,8.06,8.06,0,0,1,1.24-1.6,7.53,7.53,0,0,1,1.62-1.23,7.92,7.92,0,0,1,1.94-.8,8.76,8.76,0,0,1,2.19-.28,8.64,8.64,0,0,1,2.19.28,8.17,8.17,0,0,1,3.56,2,7.71,7.71,0,0,1,1.24,1.6,7.94,7.94,0,0,1,1.06,4.05,8.84,8.84,0,0,1-.27,2.2,8.39,8.39,0,0,1-.79,1.95,7.83,7.83,0,0,1-2.87,2.92,7.88,7.88,0,0,1-1.93.81,8.21,8.21,0,0,1-2.19.29,8.33,8.33,0,0,1-2.19-.29,8,8,0,0,1-1.94-.81,7.39,7.39,0,0,1-1.62-1.27,8.1,8.1,0,0,1-1.24-1.65,8.39,8.39,0,0,1-1.07-4.15Zm2.92,0a6,6,0,0,0,.4,2.22,5.3,5.3,0,0,0,1.1,1.77,4.81,4.81,0,0,0,1.63,1.16,4.89,4.89,0,0,0,2,.42,4.83,4.83,0,0,0,2-.42,4.91,4.91,0,0,0,1.63-1.16,5.47,5.47,0,0,0,1.1-1.77,6.17,6.17,0,0,0,.4-2.22,5.74,5.74,0,0,0-.4-2.14,5.31,5.31,0,0,0-1.1-1.69,5.1,5.1,0,0,0-1.63-1.12,4.82,4.82,0,0,0-2-.41,4.89,4.89,0,0,0-2,.41,5,5,0,0,0-1.63,1.12,5.15,5.15,0,0,0-1.1,1.69A5.55,5.55,0,0,0,438.94,429.36Z" transform="translate(-178.47 -113.07)" fill="#363536"/><path d="M455,421.67h5q.64,0,1.11,0c.32,0,.6,0,.85.08s.45.08.64.13a4.3,4.3,0,0,1,.54.2,4.19,4.19,0,0,1,1.87,1.61,4.86,4.86,0,0,1,.69,2.65A5.2,5.2,0,0,1,465,429a4.33,4.33,0,0,1-.82,1,3.73,3.73,0,0,1-1.11.68v.05l.15.17a1.72,1.72,0,0,1,.17.23l.21.36,3.2,5.82h-3.16l-3.1-5.82h-2.71v5.82H455Zm5.38,7.31a2.44,2.44,0,0,0,1.79-.64,2.41,2.41,0,0,0,.66-1.81,3.53,3.53,0,0,0-.13-1,1.79,1.79,0,0,0-.46-.77,2.12,2.12,0,0,0-.88-.48,4.84,4.84,0,0,0-1.38-.16h-2.14V429Z" transform="translate(-178.47 -113.07)" fill="#363536"/><path d="M469.46,421.67h2.84V428h2l3.67-6.35h3.08l-4.42,7.42v0l4.67,8.13h-3.18l-3.82-6.81h-2v6.81h-2.84Z" transform="translate(-178.47 -113.07)" fill="#363536"/><path d="M434.79,320.71v-8.27l4-2.71,3,2,3.09-2.11-2.95-2,6.05-4.13,6,4.13Zm19.23-.56L434.79,333.3V325L448,316Zm-35.84-7.75,0,8.29-10-6.83,6-4.13Zm.08,20.89L399,320.15l6.05-4.13,13.16,9Zm32.81-32,9.14-6.25-33.69-23-33.69,23,6,4.12,3.09-2.12-2.92-2,27.5-18.8,27.5,18.8-15.25,10.42-12.25-8.37-12.25,8.37-6-4.13,18.29-12.5,15.16,10.37,3.17-2.17-18.33-12.52-33.69,23,.06.05-.06.05,5.94,4.06,3.16-2.16-2.84-1.95,6-4.13,6,4.13-18.34,12.54,28.95,19.78,0-12.61h0l-.07-16.78-4.3-2.94,9.15-6.26,9.15,6.26-4.37,3v16.74h0v12.59l28.92-19.77-9.14-6.25,9.14-6.24-.07-.05.07-.05Z" transform="translate(-178.47 -113.07)" fill="#bd964c"/><path d="M408.23,313.86l6-4.13,3.1-2.12,9.15-6.26,15.2,10.39,3.09-2.11-18.29-12.51-12.25,8.37-3.1,2.12-6,4.13Zm10,19.43L399,320.15l6.05-4.13L402,313.9l-9.14,6.25,25.43,17.38Zm16.53,4.23,25.42-17.37-9.14-6.25L448,316l6,4.13L434.79,333.3Z" transform="translate(-178.47 -113.07)" fill="#363436"/><path d="M333.67,402.46a3.49,3.49,0,0,0,1.36-.24,2.86,2.86,0,0,0,1.75-1.62,3.25,3.25,0,0,0,.24-1.23,3.34,3.34,0,0,0-.24-1.24,3.1,3.1,0,0,0-.65-1,3.26,3.26,0,0,0-1-.67,3.59,3.59,0,0,0-1.42-.19h-1.84v6.22Zm-2.73-7.07h2.73a4.48,4.48,0,0,1,1.7.3,3.81,3.81,0,0,1,1.34.83,3.46,3.46,0,0,1,.86,1.25,4.08,4.08,0,0,1,0,3.12,3.54,3.54,0,0,1-.86,1.26,4.16,4.16,0,0,1-1.34.84,4.91,4.91,0,0,1-1.7.3h-2.73Z" transform="translate(-178.47 -113.07)"/><polygon points="161.81 282.31 167.54 282.31 167.54 283.16 162.71 283.16 162.71 285.89 167.03 285.89 167.03 286.7 162.71 286.7 162.71 289.49 167.65 289.49 167.65 290.29 161.86 290.29 161.81 282.31"/><polygon points="169.22 282.31 170.26 282.31 173.08 289.14 175.91 282.31 176.86 282.31 173.46 290.29 172.66 290.29 169.22 282.31"/><polygon points="178.89 282.31 184.62 282.31 184.62 283.16 179.78 283.16 179.78 285.89 184.11 285.89 184.11 286.7 179.78 286.7 179.78 289.49 184.67 289.49 184.67 290.29 178.89 290.29 178.89 282.31"/><polygon points="186.98 282.31 187.87 282.31 187.87 289.39 192.33 289.39 192.33 290.21 186.98 290.21 186.98 282.31"/><path d="M376.64,402.67a3.14,3.14,0,0,0,1.25-.25,3.09,3.09,0,0,0,1-.7,3.43,3.43,0,0,0,.64-1,3.7,3.7,0,0,0,.23-1.27,3.76,3.76,0,0,0-.23-1.28,3.27,3.27,0,0,0-.65-1,3.37,3.37,0,0,0-1-.71,3.15,3.15,0,0,0-1.25-.26,3,3,0,0,0-1.25.26,2.8,2.8,0,0,0-1,.7,3.27,3.27,0,0,0-.65,1,3.53,3.53,0,0,0,0,2.56,3.13,3.13,0,0,0,.66,1,2.84,2.84,0,0,0,2.3.89Zm0,.83a3.91,3.91,0,0,1-3.75-2.52,4.4,4.4,0,0,1-.29-1.56,4.45,4.45,0,0,1,.29-1.57,4.24,4.24,0,0,1,.83-1.3,3.79,3.79,0,0,1,1.28-.89,4.26,4.26,0,0,1,3.31,0,3.89,3.89,0,0,1,1.27.89,4,4,0,0,1,.82,1.3,4.4,4.4,0,0,1,.29,1.56,4.21,4.21,0,0,1-.3,1.57,3.84,3.84,0,0,1-2.07,2.19,3.92,3.92,0,0,1-1.68.34" transform="translate(-178.47 -113.07)"/><path d="M385.94,399.71a3.35,3.35,0,0,0,.89-.12,2.14,2.14,0,0,0,.7-.37,1.55,1.55,0,0,0,.43-.55,1.57,1.57,0,0,0,.16-.71,1.53,1.53,0,0,0-.58-1.29,2.56,2.56,0,0,0-1.56-.44h-2v3.5Zm-2.86-4.32h3a3.93,3.93,0,0,1,1.23.17,2.8,2.8,0,0,1,.93.5,2,2,0,0,1,.6.79,2.31,2.31,0,0,1,.21,1,2.37,2.37,0,0,1-.92,1.94,3.06,3.06,0,0,1-1,.49,4.45,4.45,0,0,1-1.2.16H384v2.8h-.89Z" transform="translate(-178.47 -113.07)"/><polygon points="212.67 282.31 213.57 282.31 216.46 286.64 219.35 282.31 220.25 282.31 220.25 290.24 219.36 290.24 219.36 283.81 216.47 288.07 213.59 283.83 213.59 290.24 212.72 290.24 212.67 282.31"/><polygon points="223 282.31 228.73 282.31 228.73 283.16 223.89 283.16 223.89 285.89 228.22 285.89 228.22 286.7 223.89 286.7 223.89 289.49 228.83 289.49 228.83 290.29 223.04 290.29 223 282.31"/><polygon points="231.08 282.31 231.94 282.31 236.93 288.66 236.93 282.31 237.8 282.31 237.8 290.24 237.13 290.24 231.94 283.73 231.94 290.24 231.07 290.24 231.08 282.31"/><polygon points="242.62 283.16 239.96 283.16 239.96 282.34 246.18 282.34 246.18 283.16 243.51 283.16 243.51 290.27 242.62 290.27 242.62 283.16"/><path d="M432.9,398.61A3.2,3.2,0,0,0,434,398a1.19,1.19,0,0,0,.38-.87A1.06,1.06,0,0,0,433.3,396a1.17,1.17,0,0,0-.87.32,1.1,1.1,0,0,0-.33.82,1.82,1.82,0,0,0,0,.33,1.2,1.2,0,0,0,.13.33,2.45,2.45,0,0,0,.24.38c.14.11.27.26.43.41m-.23,4.06a2.07,2.07,0,0,0,1-.28,4,4,0,0,0,.93-.75l-2.08-2.19a2.66,2.66,0,0,0-1.15.74,1.47,1.47,0,0,0-.36,1,1.32,1.32,0,0,0,.11.59,1.57,1.57,0,0,0,.87.79,2.1,2.1,0,0,0,.65.14m2.53-.48a4.15,4.15,0,0,1-1.17.91,3.3,3.3,0,0,1-2.41.17,2.56,2.56,0,0,1-.8-.46,2.1,2.1,0,0,1-.52-.7,2.21,2.21,0,0,1-.18-.91,1.91,1.91,0,0,1,.49-1.35,3.76,3.76,0,0,1,1.42-.94,3.74,3.74,0,0,1-.6-.87,2,2,0,0,1-.19-.87,1.88,1.88,0,0,1,.15-.74,2.28,2.28,0,0,1,.43-.6,2,2,0,0,1,.65-.39,2.57,2.57,0,0,1,.87-.15,2.28,2.28,0,0,1,.77.14,2.1,2.1,0,0,1,.6.38,1.73,1.73,0,0,1,.4.57,1.79,1.79,0,0,1-.35,2,3.51,3.51,0,0,1-1.37.8L435.2,401c.17-.26.34-.53.51-.83s.31-.62.44-.94l.74.33a9.29,9.29,0,0,1-.54,1,7.39,7.39,0,0,1-.6.93l1.38,1.42-.68.51Z" transform="translate(-178.47 -113.07)"/><rect x="264.62" y="282.31" width="0.89" height="7.92"/><polygon points="268.33 282.31 269.17 282.31 274.16 288.66 274.16 282.31 275.03 282.31 275.03 290.24 274.31 290.24 269.2 283.73 269.2 290.24 268.33 290.24 268.33 282.31"/><polygon points="277.09 282.31 278.13 282.31 280.95 289.14 283.79 282.31 284.76 282.31 281.34 290.29 280.56 290.29 277.09 282.31"/><polygon points="286.77 282.31 292.49 282.31 292.49 283.16 287.66 283.16 287.66 285.89 291.98 285.89 291.98 286.7 287.66 286.7 287.66 289.49 292.55 289.49 292.55 290.29 286.77 290.29 286.77 282.31"/><path d="M476.06,403.42a4.55,4.55,0,0,1-1.75-.31,5,5,0,0,1-1.5-.95l.56-.66a4.85,4.85,0,0,0,1.25.85,3.54,3.54,0,0,0,1.47.26,2,2,0,0,0,1.28-.37,1.19,1.19,0,0,0,.48-1,1.43,1.43,0,0,0-.09-.5,1.27,1.27,0,0,0-.31-.41,2.59,2.59,0,0,0-.64-.33c-.34-.11-.68-.2-1-.28a7,7,0,0,1-1.19-.34,2.88,2.88,0,0,1-.84-.46,1.76,1.76,0,0,1-.48-.63,2.12,2.12,0,0,1-.16-.86,2,2,0,0,1,.19-.86,2.15,2.15,0,0,1,.55-.69,2.7,2.7,0,0,1,.82-.44,3.27,3.27,0,0,1,1-.17,4.94,4.94,0,0,1,1.53.24,4.64,4.64,0,0,1,1.25.74L478,397a3.86,3.86,0,0,0-1.11-.65,3.32,3.32,0,0,0-1.17-.21,1.88,1.88,0,0,0-1.23.38,1.12,1.12,0,0,0-.46.91,1.32,1.32,0,0,0,.1.51.89.89,0,0,0,.32.4,2,2,0,0,0,.66.33,5.35,5.35,0,0,0,1,.29,5,5,0,0,1,1.95.82,1.75,1.75,0,0,1,.62,1.43,2,2,0,0,1-.76,1.63,2.51,2.51,0,0,1-.85.46,3.48,3.48,0,0,1-1,.15" transform="translate(-178.47 -113.07)"/><polygon points="304.69 283.16 302.03 283.16 302.03 282.34 308.25 282.34 308.25 283.16 305.57 283.16 305.57 290.27 304.68 290.27 304.69 283.16"/><polygon points="310.43 282.31 311.33 282.31 314.23 286.64 317.11 282.31 318.01 282.31 318.01 290.24 317.11 290.24 317.11 283.81 314.23 288.07 314.18 288.07 311.29 283.83 311.29 290.24 310.42 290.24 310.43 282.31"/><polygon points="320.76 282.31 326.49 282.31 326.49 283.16 321.65 283.16 321.65 285.89 325.98 285.89 325.98 286.7 321.65 286.7 321.65 289.49 326.55 289.49 326.55 290.29 320.76 290.29 320.76 282.31"/><polygon points="328.85 282.31 329.68 282.31 334.68 288.66 334.68 282.31 335.55 282.31 335.55 290.24 334.83 290.24 329.72 283.73 329.72 290.24 328.85 290.24 328.85 282.31"/><polygon points="340.38 283.16 337.72 283.16 337.72 282.34 343.94 282.34 343.94 283.16 341.28 283.16 341.28 290.27 340.38 290.27 340.38 283.16"/><polygon points="200.83 272.3 218.91 272.3 218.91 268.31 204.81 268.31 204.81 260.93 218.78 260.93 218.78 257.18 204.85 257.18 204.85 249.31 218.96 249.31 218.96 245.33 200.83 245.33 200.83 272.3"/><rect x="302.27" y="245.64" width="4.15" height="26.59"/><polygon points="326.49 272.39 342.33 272.39 342.33 268.55 330.57 268.55 330.57 245.83 326.49 245.83 326.49 272.39"/><path d="M456.13,373.42h-4.62V362h4.64a5.9,5.9,0,0,1,6.11,5.7h0a5.51,5.51,0,0,1-1.68,3.95l-.16.17a6.05,6.05,0,0,1-3.4,1.57l-.44.05h-.45Zm-8.62,12h4v-8.4h5.71l.46-.06a2,2,0,0,0,.35-.06,9.51,9.51,0,0,0,8-9v-.86a9.69,9.69,0,0,0-9.84-8.61h-8.64Z" transform="translate(-178.47 -113.07)"/><polygon points="179.37 272.02 183.31 272.02 183.31 245.19 181.57 245.19 167.75 264.5 167.62 264.31 153.9 245.19 152.15 245.19 152.15 272.02 156.36 272.02 156.36 255.75 167.77 271.69 179.39 255.7 179.37 272.02"/><path d="M425.77,370a30.3,30.3,0,0,0-2.91-.87,16.57,16.57,0,0,1-3.9-1.24,4,4,0,0,1-1.33-1.13,2.48,2.48,0,0,1-.37-1.4,3.16,3.16,0,0,1,1.36-2.67,5.86,5.86,0,0,1,3.69-1.1,5.2,5.2,0,0,1,3.34,1,3.36,3.36,0,0,1,1,1.41l4-1.62a6.66,6.66,0,0,0-2-2.47,10.11,10.11,0,0,0-6.44-1.91,11.05,11.05,0,0,0-6.9,2.08,6.5,6.5,0,0,0-2.75,5.43,5.49,5.49,0,0,0,1.83,4.27,13.87,13.87,0,0,0,5.64,2.57l.81.2c3,.75,6.63,2.17,6.63,4.64a4,4,0,0,1-1.5,3.29,6.59,6.59,0,0,1-4.22,1.28,6.1,6.1,0,0,1-4-1.23,4.13,4.13,0,0,1-1.31-1.95l-4.09,1.66a7.74,7.74,0,0,0,2.19,3.05,10.84,10.84,0,0,0,7.11,2.28,11.45,11.45,0,0,0,7.53-2.4,7.41,7.41,0,0,0,2.82-6.28,7,7,0,0,0-1.81-4.27,12.67,12.67,0,0,0-4.49-2.61" transform="translate(-178.47 -113.07)"/></svg>
