<svg xmlns="http://www.w3.org/2000/svg" viewBox="0 0 481 537.9"><path d="M455.11,368.7,499,338.33l20.14,13.93-64.09,44.32ZM335.87,352.26,356,338.33l43.86,30.3.11,27.94Zm30.68-21.21,20.15-13.93,13,9,.11,27.94Zm122-14.27-9.84-6.8,20.14-13.93L519,310l-63.87,44.16,0-27.88,13.23-9.15,9.84,6.81Zm-61-126.73L315.23,267.7l20.07,13.87,10.32-7.13-9.75-6.74,91.65-63.38,91.65,63.38-50.83,35.14-40.82-28.22L386.7,302.84l-20.15-13.92,61-42.16,50.55,34.95,10.54-7.29-61.09-42.24L315.23,309.82l.22.16-.22.16L335,323.83l10.53-7.29L336.09,310l20.14-13.93L376.38,310l-61.15,42.28L411.73,419l-.17-42.52,0,0-.22-56.55L397,310l30.5-21.09L458,310,443.47,320l-.05,56.44,0,0,0,42.47,96.39-66.66L509.34,331.2l30.47-21.06-.23-.16.23-.16-30.47-21.06,30.47-21.06Z" transform="translate(-186.72 -36.76)" fill="#bd964c"/><polygon points="9.69 377.49 9.69 168.64 240.8 8.84 471.9 168.64 471.9 377.49 240.8 537.29 9.69 377.49" fill="none" stroke="#ece1cf" stroke-miterlimit="10"/><polygon points="33.47 365.02 33.47 181.11 240.79 37.75 448.12 181.11 448.12 365.02 240.79 508.38 33.47 365.02" fill="none" stroke="#e5d6bc" stroke-miterlimit="10"/><polygon points="57.25 352.56 57.25 193.57 240.79 66.66 424.34 193.57 424.34 352.56 240.79 479.47 57.25 352.56" fill="none" stroke="#dfccaa" stroke-miterlimit="10"/><polygon points="81.03 340.09 81.03 206.04 240.8 95.57 400.56 206.04 400.56 340.09 240.8 450.56 81.03 340.09" fill="none" stroke="#d9c198" stroke-miterlimit="10"/><polygon points="104.81 327.63 104.81 218.51 240.8 124.47 376.78 218.51 376.78 327.63 240.8 421.66 104.81 327.63" fill="none" stroke="#d3b98a" stroke-miterlimit="10"/><path d="M427.52,53.59a8.17,8.17,0,1,0-8.17-8.17,8.16,8.16,0,0,0,8.17,8.17" transform="translate(-186.72 -36.76)" fill="#fff"/><circle cx="240.8" cy="8.66" r="8.16" fill="none" stroke="#bd964c"/><path d="M195.39,213.87a8.16,8.16,0,1,0-8.17-8.16,8.16,8.16,0,0,0,8.17,8.16" transform="translate(-186.72 -36.76)" fill="#fff"/><circle cx="8.66" cy="168.95" r="8.16" fill="none" stroke="#bd964c"/><path d="M195.39,422.37a8.17,8.17,0,1,0-8.17-8.17,8.16,8.16,0,0,0,8.17,8.17" transform="translate(-186.72 -36.76)" fill="#fff"/><circle cx="8.66" cy="377.45" r="8.16" fill="none" stroke="#bd964c"/><path d="M659.06,213.87a8.16,8.16,0,1,0-8.16-8.16,8.16,8.16,0,0,0,8.16,8.16" transform="translate(-186.72 -36.76)" fill="#fff"/><circle cx="472.34" cy="168.95" r="8.16" fill="none" stroke="#bd964c"/><path d="M659.06,422.37a8.17,8.17,0,1,0-8.16-8.17,8.16,8.16,0,0,0,8.16,8.17" transform="translate(-186.72 -36.76)" fill="#fff"/><circle cx="472.34" cy="377.45" r="8.16" fill="none" stroke="#bd964c"/></svg>
