<svg xmlns="http://www.w3.org/2000/svg" viewBox="0 0 65.23 100"><path d="M0,.05c2.9.1,5.9,0,8.79,0H65.27V75H43.59c.3-.8.7-1.5,1-2.3H63.07V2.25H2.13V72.68H32L31,75H0V.05" transform="translate(-0.03 -0.05)" fill="#363636"/><path d="M8.22,6.44,29.3,29c0-7.49,0-15,.1-22.48h2.4V35.31c-7.09-7.59-14.09-15.18-21.18-22.87V51.8H8.12c0-15.09.1-30.17.1-45.36" transform="translate(-0.03 -0.05)" fill="#363636"/><path d="M45.19,8.94a8.3,8.3,0,0,0-6.2,4.7,8.56,8.56,0,0,0-.4,6.29,8.24,8.24,0,0,0,8.8,5.69,9.14,9.14,0,0,0,4.69-2.09A8.52,8.52,0,0,0,54,13.64a8.29,8.29,0,0,0-3.6-3.8,7.83,7.83,0,0,0-5.19-.9m-.5-2.2a9.87,9.87,0,0,1,6.29.9,10.76,10.76,0,0,1,5,5.1,10.35,10.35,0,0,1,.8,6.49,10.22,10.22,0,0,1-3.3,5.89,10.51,10.51,0,0,1-11.59,1.8,11,11,0,0,1-4.69-4.39,10.73,10.73,0,0,1,1.39-12.39,11,11,0,0,1,6.1-3.4" transform="translate(-0.03 -0.05)" fill="#363636"/><path d="M37.1,32.72h19v2.1h-19v-2.1" transform="translate(-0.03 -0.05)" fill="#363636"/><path d="M15.42,39H31.6L24.21,48.8A10.76,10.76,0,0,1,29.7,68.38a10.42,10.42,0,0,1-14.48-2.8A12.32,12.32,0,0,1,13.92,63a10.16,10.16,0,0,1-.6-3.4h2.2a8.26,8.26,0,0,0,1.8,5,8.84,8.84,0,0,0,6.59,3.29,8.63,8.63,0,0,0,7.49-5.29,8.29,8.29,0,0,0,.2-6,8.48,8.48,0,0,0-5.29-5.29c-2.3-.7-4.6-.2-6.9,0l7.5-10.09H15.42V39" transform="translate(-0.03 -0.05)" fill="#363636"/><path d="M37,39.11H55.88L38.89,75H36.1L52.38,41.31H37v-2.2" transform="translate(-0.03 -0.05)" fill="#363636"/><path d="M9.42,80.87a3.76,3.76,0,0,1,3.7.2v1.7a3.29,3.29,0,0,0-2.5-.8.68.68,0,0,0-.7.7c0,.4.4.6.7.7a4.72,4.72,0,0,1,2.5,1.1,2.22,2.22,0,0,1-.7,3,.37.37,0,0,1-.3.1,4.76,4.76,0,0,1-3.7-.3v-1.8a3.42,3.42,0,0,0,2.9.9.62.62,0,0,0,.5-.8.52.52,0,0,0-.2-.4c-.9-.49-2.1-.39-2.8-1.19a2.06,2.06,0,0,1,.3-2.9c.1-.1.2-.1.3-.2" transform="translate(-0.03 -0.05)" fill="#363636"/><path d="M24,82.07a2.29,2.29,0,0,0-1.5,1.9,2.21,2.21,0,0,0,1.2,2.19,2.13,2.13,0,0,0,2.4-.4,2.3,2.3,0,0,0,.4-2.49,2.11,2.11,0,0,0-2.5-1.2m-.4-1.4a3.64,3.64,0,0,1,4.29,1.9,3.74,3.74,0,0,1-1.19,4.69,3.65,3.65,0,0,1-5-.9,3.82,3.82,0,0,1,1.9-5.69" transform="translate(-0.03 -0.05)" fill="#363636"/><path d="M.23,80.67h1.5v5.59h2.4v1.4H.23Z" transform="translate(-0.03 -0.05)" fill="#363636"/><path d="M5.33,80.67h1.5v7.09H5.33Z" transform="translate(-0.03 -0.05)" fill="#363636"/><path d="M16.22,84.67v1.79a9,9,0,0,0,1.69-.1.93.93,0,0,0,.4-1.2c-.1-.1-.2-.29-.4-.29a4.87,4.87,0,0,0-1.69-.2m0-2.7v1.5a3.75,3.75,0,0,0,1.49-.1.71.71,0,0,0,.2-1.1l-.29-.3a6.53,6.53,0,0,0-1.4,0m-1.5-1.3h2.6a2.5,2.5,0,0,1,1.79.8,1.73,1.73,0,0,1-.3,2.4l-.1.1a1.82,1.82,0,0,1,1.1,1,2.21,2.21,0,0,1-.4,2.19,2.55,2.55,0,0,1-1.89.6h-2.7l-.1-7.09" transform="translate(-0.03 -0.05)" fill="#363636"/><path d="M29.7,80.67h1.5l3.2,4.69V80.67h1.5v7.09H34.4l-3.3-4.69v4.69H29.6V80.67Z" transform="translate(-0.03 -0.05)" fill="#363636"/><path d="M9.22,94.16a1.91,1.91,0,0,0-1.5,1.59,2.14,2.14,0,0,0,1.6,2.6h.2a2.14,2.14,0,0,0,2.3-2v-.5A2.06,2.06,0,0,0,9.52,94c-.1.2-.2.2-.3.2M9,92.76a3.7,3.7,0,0,1,2.9,6.59,3.63,3.63,0,0,1-5-.8,3.73,3.73,0,0,1,.6-5.09A2.57,2.57,0,0,1,9,92.76" transform="translate(-0.03 -0.05)" fill="#363636"/><path d="M35,93.56a4.37,4.37,0,0,1,4.89-.4v1.7a3,3,0,0,0-3.89-.2,2.23,2.23,0,0,0,2.59,3.59v-1.2H37.1v-1.3h3v3.4a5,5,0,0,1-2.59.8,3.56,3.56,0,0,1-3-1.5,3.92,3.92,0,0,1,.5-4.89" transform="translate(-0.03 -0.05)" fill="#363636"/><path d="M1.73,94.16V96a6.15,6.15,0,0,0,1.4-.1,1.08,1.08,0,0,0,.4-1.29l-.3-.3a2.57,2.57,0,0,0-1.5-.1m-1.5-1.4h2.5a2.41,2.41,0,0,1,1.8.7,2.35,2.35,0,0,1-.2,3.29c-.1,0-.2.1-.3.2a4.45,4.45,0,0,1-2.3.3v2.5H.23Z" transform="translate(-0.03 -0.05)" fill="#363636"/><path d="M16.32,94.16V96a3.15,3.15,0,0,0,1.39-.1.94.94,0,0,0,.3-1.29c-.1-.1-.1-.2-.2-.3a2.48,2.48,0,0,0-1.49-.1m-1.4-1.4h2.5a2.61,2.61,0,0,1,2,1,2.25,2.25,0,0,1-.2,2.69,2.36,2.36,0,0,1-.9.6c.6.9,1.3,1.8,1.9,2.8h-1.7l-1.69-2.6h-.4v2.6h-1.5V92.76" transform="translate(-0.03 -0.05)" fill="#363636"/><path d="M20.61,92.76h5.2v1.4H24v5.69h-1.5V94.16h-1.8v-1.4" transform="translate(-0.03 -0.05)" fill="#363636"/><path d="M26.91,92.76H28.4V97a1.75,1.75,0,0,0,.4,1.2,1.21,1.21,0,0,0,1.5.2,1.37,1.37,0,0,0,.6-1.3V92.76h1.5V97a2.93,2.93,0,0,1-.7,2.2,2.89,2.89,0,0,1-4.19,0,3.06,3.06,0,0,1-.7-2l.1-4.39" transform="translate(-0.03 -0.05)" fill="#363636"/><path d="M43.39,97h1.7c-.3-.8-.6-1.5-.9-2.29L43.39,97m.2-4.19h1.3l2.79,7.09H46.09l-.6-1.5h-2.6l-.6,1.5h-1.5l2.8-7.09" transform="translate(-0.03 -0.05)" fill="#363636"/><path d="M48.78,92.76h1.5v5.69h2.4v1.4h-3.9Z" transform="translate(-0.03 -0.05)" fill="#363636"/></svg>
