<svg xmlns="http://www.w3.org/2000/svg" viewBox="0 0 65.41 100.03"><polygon points="0.01 74.94 31.05 74.94 32.66 72.68 2.25 72.68 2.25 2.21 63.21 2.21 63.21 72.68 47.23 72.68 45.58 74.94 65.41 74.93 65.38 70.98 65.36 0.03 8.81 0.03 0 0 0.01 74.94" fill="#fff"/><path d="M8.21,6.39,29.33,29c0-7.5,0-15,.06-22.51H31.8V35.34Q21.18,23.9,10.57,12.46V51.89H8.08q0-22.76.07-45.52" transform="translate(0 0)" fill="#fff"/><path d="M45.2,8.91A8.34,8.34,0,0,0,39,13.58a8.59,8.59,0,0,0-.39,6.32,8.47,8.47,0,0,0,3.5,4.5,8.17,8.17,0,0,0,9.94-.94,8.37,8.37,0,0,0,2.6-4.87,8.52,8.52,0,0,0-.7-5,8.39,8.39,0,0,0-3.64-3.83,8.15,8.15,0,0,0-5.15-.85M44.71,6.7A10.33,10.33,0,0,1,51,7.58a10.5,10.5,0,0,1,5,5.06,10.79,10.79,0,0,1-2.4,12.49A10.4,10.4,0,0,1,42,26.89a10.64,10.64,0,0,1-4.66-4.42A10.91,10.91,0,0,1,36,17.11a10.76,10.76,0,0,1,2.71-7,10.42,10.42,0,0,1,6-3.37" transform="translate(0 0)" fill="#fff"/><path d="M37.06,32.72h19v2.13h-19V32.72" transform="translate(0 0)" fill="#fff"/><path d="M23.17,69.27a10.29,10.29,0,0,1-2.07-.19,13.61,13.61,0,0,1-1.77-.48,8.06,8.06,0,0,1-1.49-.69,10.42,10.42,0,0,1-3.27-3l-.1-.15,1.81-1.4.11.18A7.93,7.93,0,0,0,18.92,66a8.43,8.43,0,0,0,1.17.57,8.7,8.7,0,0,0,1.41.4,9.34,9.34,0,0,0,1.67.15,8.85,8.85,0,0,0,3.22-.57A8.26,8.26,0,0,0,29,65a7.17,7.17,0,0,0,2.35-5.42A7.33,7.33,0,0,0,29,54.05a8.25,8.25,0,0,0-2.57-1.63,8.86,8.86,0,0,0-3.22-.58,9.56,9.56,0,0,0-2.32.28,14.36,14.36,0,0,0-1.82.6,8.4,8.4,0,0,0-1.58.88h-.08L15.78,53v0l1.75-14.41H31.85v2.07H19.48l-1.07,8.77a4.6,4.6,0,0,1-.1.79l-.11.57v.14a8.75,8.75,0,0,1,1.21-.54,11.41,11.41,0,0,1,1.64-.47,9.51,9.51,0,0,1,2.13-.22,10.91,10.91,0,0,1,4.11.77,10.69,10.69,0,0,1,3.32,2.1,9.94,9.94,0,0,1,2.22,3.12,9.35,9.35,0,0,1,0,7.68,9.81,9.81,0,0,1-2.24,3.09,10.42,10.42,0,0,1-3.32,2.07,10.93,10.93,0,0,1-4.08.75" transform="translate(0 0)" fill="#fff"/><path d="M9.41,80.93a3.84,3.84,0,0,1,3.69.19v1.7A3.24,3.24,0,0,0,10.6,82a.75.75,0,0,0-.69.69c0,.39.42.55.72.65a4.73,4.73,0,0,1,2.46,1.13,2.19,2.19,0,0,1-.68,3,2,2,0,0,1-.25.14,4.45,4.45,0,0,1-3.72-.33V85.48a3.43,3.43,0,0,0,2.88.91.66.66,0,0,0,.53-.77.68.68,0,0,0-.23-.39c-.87-.51-2-.43-2.79-1.19a2.09,2.09,0,0,1,.31-2.93c.09-.06.18-.13.27-.18" transform="translate(0 0)" fill="#fff"/><path d="M24,82.12A2.16,2.16,0,0,0,22.51,84a2.19,2.19,0,0,0,1.17,2.18,2.09,2.09,0,0,0,2.43-.44,2.3,2.3,0,0,0,.36-2.53A2.07,2.07,0,0,0,24,82.12m-.35-1.46a3.65,3.65,0,0,1,4.25,1.9,3.73,3.73,0,0,1-1.23,4.7,3.66,3.66,0,0,1-5-.92,3.74,3.74,0,0,1,.73-5,3.62,3.62,0,0,1,1.25-.64" transform="translate(0 0)" fill="#fff"/><path d="M.18,80.68H1.67v5.65H4.1v1.43H.18Z" transform="translate(0 0)" fill="#fff"/><path d="M5.33,80.68H6.84v7.08H5.33Z" transform="translate(0 0)" fill="#fff"/><path d="M16.17,84.73v1.75a5.66,5.66,0,0,0,1.74-.12.86.86,0,0,0,.34-1.17.92.92,0,0,0-.34-.34,5.59,5.59,0,0,0-1.73-.12m0-2.77V83.5a3.85,3.85,0,0,0,1.47-.13.78.78,0,0,0,.22-1.07.84.84,0,0,0-.28-.25A4.77,4.77,0,0,0,16.18,82m-1.47-1.28h2.63a2.25,2.25,0,0,1,1.78.79,1.74,1.74,0,0,1-.33,2.44l-.1.07a1.8,1.8,0,0,1,1.06,1,2.05,2.05,0,0,1-.43,2.16,2.72,2.72,0,0,1-1.87.64H14.71V80.7" transform="translate(0 0)" fill="#fff"/><path d="M29.68,80.68h1.53l3.22,4.67V80.68h1.46v7.08H34.41l-3.27-4.64v4.65H29.68Z" transform="translate(0 0)" fill="#fff"/><path d="M9.22,94.22a2.16,2.16,0,0,0-1.51,1.62,2.19,2.19,0,0,0,1.63,2.64l.17,0a2.16,2.16,0,0,0,2.35-2,2.44,2.44,0,0,0,0-.47,2.13,2.13,0,0,0-2.32-1.92,1.67,1.67,0,0,0-.31,0M9,92.75a3.65,3.65,0,0,1,4,2,3.74,3.74,0,0,1-1.15,4.62,3.66,3.66,0,0,1-5-.77,3.75,3.75,0,0,1,.6-5.07A3.52,3.52,0,0,1,9,92.79" transform="translate(0 0)" fill="#fff"/><path d="M35,93.61a4.37,4.37,0,0,1,4.9-.37v1.69a3.07,3.07,0,0,0-3.91-.2,2.36,2.36,0,0,0-.15,3.11,2.46,2.46,0,0,0,2.79.54V97.21H37.09V95.89h3v3.35a4.22,4.22,0,0,1-2.6.75,3.61,3.61,0,0,1-3-1.47,3.88,3.88,0,0,1,.57-4.92" transform="translate(0 0)" fill="#fff"/><path d="M1.67,94.17V96a3.9,3.9,0,0,0,1.44-.12.91.91,0,0,0,.36-1.25.83.83,0,0,0-.26-.3,3.11,3.11,0,0,0-1.54-.18M.18,92.8H2.7a2.69,2.69,0,0,1,1.81.71,2.32,2.32,0,0,1-.17,3.28,2.27,2.27,0,0,1-.35.26,4.71,4.71,0,0,1-2.32.32v2.51H.18Z" transform="translate(0 0)" fill="#fff"/><path d="M16.33,94.17V96a3.74,3.74,0,0,0,1.41-.13.94.94,0,0,0,.32-1.29,1,1,0,0,0-.23-.26,3,3,0,0,0-1.5-.18M14.84,92.8h2.48a2.51,2.51,0,0,1,2,1,2.32,2.32,0,0,1-.17,2.72,2.91,2.91,0,0,1-.89.62l1.91,2.76H18.41L16.7,97.32h-.39V99.9H14.82V92.82" transform="translate(0 0)" fill="#fff"/><path d="M20.62,92.8h5.17v1.42H24v5.66H22.46V94.22H20.62V92.8" transform="translate(0 0)" fill="#fff"/><path d="M26.92,92.8h1.49v4.14a1.72,1.72,0,0,0,.38,1.23,1.32,1.32,0,0,0,1.53.2A1.47,1.47,0,0,0,31,97.06V92.8h1.52v4.14a3.23,3.23,0,0,1-.68,2.2,2.8,2.8,0,0,1-4.91-2V92.75" transform="translate(0 0)" fill="#fff"/><path d="M43.41,97h1.73c-.29-.76-.59-1.52-.88-2.29L43.41,97m.21-4.24H45q1.39,3.54,2.8,7.08H46.17l-.58-1.53H43l-.59,1.53H40.82l2.8-7.08" transform="translate(0 0)" fill="#fff"/><path d="M48.83,92.8h1.5v5.65h2.42v1.43H48.83Z" transform="translate(0 0)" fill="#fff"/><path d="M39.6,75.12H36.82l12.73-17.5a9.53,9.53,0,0,1-3.22.56h-.12A9.28,9.28,0,0,1,36.94,49v-.2a9.58,9.58,0,1,1,19.16-.51h0a5,5,0,0,1,0,.55,11.29,11.29,0,0,1-2,6.15Z" transform="translate(0 0)" fill="#fff"/><path d="M46.48,56a7.12,7.12,0,0,0,7.37-6.86h0v-.31A7.33,7.33,0,1,0,46.37,56h.11" transform="translate(0 0)"/><path d="M46.52,41.42a7.21,7.21,0,1,0-.15,14.42h.11a7,7,0,0,0,7.24-6.75v-.31a7.22,7.22,0,0,0-2-5.14,7.12,7.12,0,0,0-5.06-2.21h-.14m.22,14.67h-.33a7.46,7.46,0,1,1,.15-14.92h.15A7.44,7.44,0,0,1,54,48.75v.35a7.23,7.23,0,0,1-7.23,7" transform="translate(0 0)" fill="#fff"/></svg>
