<svg xmlns="http://www.w3.org/2000/svg" viewBox="0 0 147.77 150"><path d="M82.87,26.7a3.14,3.14,0,0,1-1-.17,2.62,2.62,0,0,1-.8-.48,2,2,0,0,1-.51-.68,1.94,1.94,0,0,1,0-1.63,2.29,2.29,0,0,1,.38-.54,2.06,2.06,0,0,1,.56-.38,2.86,2.86,0,0,1-.43-.35,3.35,3.35,0,0,1-.29-.44,1.67,1.67,0,0,1-.12-.62,1.8,1.8,0,0,1,.16-.72,2.13,2.13,0,0,1,.46-.61,2,2,0,0,1,.7-.42,2.8,2.8,0,0,1,1.85,0,2.12,2.12,0,0,1,.71.42,1.93,1.93,0,0,1,.45.61,1.62,1.62,0,0,1,.17.72A1.23,1.23,0,0,1,85,22a2.57,2.57,0,0,1-.29.44,2.06,2.06,0,0,1-.42.35,1.79,1.79,0,0,1,.56.38,1.91,1.91,0,0,1,.39.54,1.64,1.64,0,0,1,.18.82,1.91,1.91,0,0,1-.18.81,2,2,0,0,1-.51.68,2.79,2.79,0,0,1-.8.48A3.26,3.26,0,0,1,82.87,26.7Zm0-3.21a1.22,1.22,0,0,0-.87.3,1,1,0,0,0-.31.72,1.08,1.08,0,0,0,.31.72,1.46,1.46,0,0,0,1.73,0,1,1,0,0,0,.32-.72.9.9,0,0,0-.32-.72,1.19,1.19,0,0,0-.86-.33Zm0-1.12a1,1,0,0,0,.69-.25.81.81,0,0,0,0-1.14l0-.05a1.1,1.1,0,0,0-1.39,0,.82.82,0,0,0,0,1.14l0,.05A1,1,0,0,0,82.87,22.37Z" transform="translate(-0.05 0.01)" fill="#fff"/><path d="M1.54,73.94a72.39,72.39,0,1,1,126.91,47.54h2a73.89,73.89,0,1,0-113,0h2A72.13,72.13,0,0,1,1.54,73.94" transform="translate(-0.05 0.01)" fill="#fff"/><path d="M3.19,73.94a70.75,70.75,0,1,1,123.09,47.54h1a71.51,71.51,0,1,0-106.74,0h1A70.53,70.53,0,0,1,3.19,73.94" transform="translate(-0.05 0.01)" fill="#fff"/><path d="M33.81,44a5,5,0,0,1-2.36-.56,4,4,0,0,1-1.61-1.52,4.48,4.48,0,0,1-.59-2.32,4.58,4.58,0,0,1,.57-2.27,4,4,0,0,1,1.63-1.6,5,5,0,0,1,2.45-.59,5.35,5.35,0,0,1,1.43.19,4.36,4.36,0,0,1,1.25.5l-.29,1.46a5.15,5.15,0,0,0-2.37-.61,3.09,3.09,0,0,0-1.49.35,2.53,2.53,0,0,0-1,1,3.06,3.06,0,0,0-.38,1.54,2.78,2.78,0,0,0,.79,2.08,2.87,2.87,0,0,0,2.14.77,4.82,4.82,0,0,0,1.25-.16,5.76,5.76,0,0,0,1.25-.48l.18,1.49a4.52,4.52,0,0,1-1.32.51,6.43,6.43,0,0,1-1.51.18" transform="translate(-0.05 0.01)" fill="#fff"/><polygon points="38.04 35.31 43.7 35.31 43.7 36.76 39.7 36.76 39.7 38.8 43.24 38.8 43.24 40.24 39.7 40.24 39.7 42.44 43.86 42.44 43.86 43.88 38.04 43.88 38.04 35.31" fill="#fff"/><path d="M45.44,35.31h2.79a3.47,3.47,0,0,1,2.32.72A2.73,2.73,0,0,1,50,40.45L52.26,44H50.32L48.48,40.8H47.09v3.05H45.44Zm1.65,4.14h.85c1.18,0,1.77-.47,1.77-1.39a1.22,1.22,0,0,0-.44-1A2,2,0,0,0,48,36.71h-.9Z" transform="translate(-0.05 0.01)" fill="#fff"/><polygon points="54.84 36.73 52.1 36.73 52.1 35.31 59.33 35.31 59.33 36.73 56.57 36.73 56.57 43.88 54.84 43.88 54.84 36.73" fill="#fff"/><rect x="60.53" y="35.31" width="1.73" height="8.57" fill="#fff"/><polygon points="64.08 35.31 69.59 35.31 69.59 36.76 65.79 36.76 65.79 39.04 69.07 39.04 69.07 40.48 65.79 40.48 65.79 43.88 64.08 43.88 64.08 35.31" fill="#fff"/><rect x="70.91" y="35.31" width="1.73" height="8.57" fill="#fff"/><path d="M78.61,44a5.06,5.06,0,0,1-2.36-.52A3.93,3.93,0,0,1,74.64,42a4.85,4.85,0,0,1,0-4.59,4.11,4.11,0,0,1,1.63-1.6,5,5,0,0,1,2.45-.59,5.35,5.35,0,0,1,1.43.19,4.3,4.3,0,0,1,1.24.5l-.28,1.46a5.15,5.15,0,0,0-2.36-.61,2.88,2.88,0,0,0-1.49.35,2.53,2.53,0,0,0-1,1,3,3,0,0,0-.37,1.54,2.74,2.74,0,0,0,.79,2.08,2.83,2.83,0,0,0,2.13.77,4.82,4.82,0,0,0,1.25-.16,5.57,5.57,0,0,0,1.25-.48l.18,1.49a5.09,5.09,0,0,1-1.31.51,6.51,6.51,0,0,1-1.52.18" transform="translate(-0.05 0.01)" fill="#fff"/><path d="M85.55,35.31h1.83l3.41,8.57H89l-.81-2.26H84.69l-.82,2.26H82.14Zm2.12,5-1.26-3.46-1.25,3.46Z" transform="translate(-0.05 0.01)" fill="#fff"/><polygon points="92.94 36.73 90.19 36.73 90.19 35.31 97.41 35.31 97.41 36.73 94.66 36.73 94.66 43.88 92.94 43.88 92.94 36.73" fill="#fff"/><polygon points="98.61 35.31 104.28 35.31 104.28 36.76 100.28 36.76 100.28 38.8 103.81 38.8 103.81 40.24 100.28 40.24 100.28 42.44 104.44 42.44 104.44 43.88 98.61 43.88 98.61 35.31" fill="#fff"/><path d="M110.41,44.06a2.64,2.64,0,0,1-1.34-.33,2.42,2.42,0,0,1-.94-.91,2.85,2.85,0,0,1-.35-1.37,3.53,3.53,0,0,1,.42-1.69,3.32,3.32,0,0,1,1.18-1.31,3,3,0,0,1,1.7-.49,2.72,2.72,0,0,1,1.34.33,2.34,2.34,0,0,1,1,.92,2.62,2.62,0,0,1,.35,1.37,3.29,3.29,0,0,1-.43,1.68,3.21,3.21,0,0,1-1.18,1.27,3,3,0,0,1-1.7.49m.1-1.17a1.55,1.55,0,0,0,.93-.28,2.05,2.05,0,0,0,.71-.78,2.29,2.29,0,0,0,.27-1.12,1.59,1.59,0,0,0-.38-1.13,1.34,1.34,0,0,0-1-.41,1.64,1.64,0,0,0-1,.28,2.11,2.11,0,0,0-.7.78,2.57,2.57,0,0,0-.26,1.13,1.62,1.62,0,0,0,.38,1.12,1.37,1.37,0,0,0,1,.41" transform="translate(-0.05 0.01)" fill="#fff"/><path d="M115.68,39.28h-1l.21-1.09h1l.19-.95a3.38,3.38,0,0,1,.93-1.91,2.46,2.46,0,0,1,1.77-.64,2.71,2.71,0,0,1,.69.08,1.79,1.79,0,0,1,.56.23l-.26,1.06a1.77,1.77,0,0,0-.92-.23,1.31,1.31,0,0,0-1,.38,2.4,2.4,0,0,0-.53,1.22l-.15.76h1.6l-.21,1.09H117l-.88,4.6h-1.31Z" transform="translate(-0.05 0.01)" fill="#fff"/><polygon points="20.69 47.68 28.61 47.68 28.61 49.7 23.03 49.7 23.03 52.57 27.97 52.57 27.97 54.58 23.03 54.58 23.03 57.66 28.84 57.66 28.84 59.68 20.69 59.68 20.69 47.68" fill="#fff"/><polygon points="34.35 53.44 30.35 47.68 33.17 47.68 35.87 51.79 38.49 47.68 41.25 47.68 37.21 53.47 41.52 59.68 38.67 59.68 35.7 55.11 32.75 59.68 29.99 59.68 34.35 53.44" fill="#fff"/><path d="M48.19,59.85a7.16,7.16,0,0,1-3.31-.74A5.5,5.5,0,0,1,42.58,57a6.33,6.33,0,0,1-.82-3.24,6.42,6.42,0,0,1,.8-3.18,5.71,5.71,0,0,1,2.28-2.24,7.09,7.09,0,0,1,3.43-.82,8,8,0,0,1,2,.26,6.61,6.61,0,0,1,1.75.7l-.4,2a7.4,7.4,0,0,0-3.32-.85,4.2,4.2,0,0,0-2.08.49,3.59,3.59,0,0,0-1.44,1.4,4.25,4.25,0,0,0-.52,2.15,4,4,0,0,0,1.1,2.92,4.05,4.05,0,0,0,3,1.09,6.69,6.69,0,0,0,1.78-.23,8,8,0,0,0,1.76-.66l.25,2.08a6.5,6.5,0,0,1-1.85.71,8.83,8.83,0,0,1-2.11.26" transform="translate(-0.05 0.01)" fill="#fff"/><polygon points="54.13 47.68 62.05 47.68 62.05 49.7 56.46 49.7 56.46 52.57 61.41 52.57 61.41 54.58 56.46 54.58 56.46 57.66 62.28 57.66 62.28 59.68 54.13 59.68 54.13 47.68" fill="#fff"/><polygon points="64.43 47.68 66.83 47.68 66.83 57.69 72.27 57.69 72.27 59.68 64.43 59.68 64.43 47.68" fill="#fff"/><polygon points="73.95 47.68 76.37 47.68 76.37 57.69 81.79 57.69 81.79 59.68 73.95 59.68 73.95 47.68" fill="#fff"/><polygon points="83.47 47.68 91.4 47.68 91.4 49.7 85.81 49.7 85.81 52.57 90.75 52.57 90.75 54.58 85.81 54.58 85.81 57.66 91.63 57.66 91.63 59.68 83.47 59.68 83.47 47.68" fill="#fff"/><polygon points="93.77 47.68 95.91 47.68 102.2 56.01 102.2 47.68 104.5 47.68 104.5 59.68 102.35 59.68 96.06 51.37 96.06 59.68 93.77 59.68 93.77 47.68" fill="#fff"/><path d="M112.83,59.85a7.15,7.15,0,0,1-3.3-.74A5.31,5.31,0,0,1,107.28,57a6.15,6.15,0,0,1-.83-3.24,6.29,6.29,0,0,1,.8-3.18,5.78,5.78,0,0,1,2.28-2.24A7,7,0,0,1,113,47.5a7.89,7.89,0,0,1,2,.26,6.41,6.41,0,0,1,1.74.7l-.39,2a7.4,7.4,0,0,0-3.32-.85,4.23,4.23,0,0,0-2.09.49,3.59,3.59,0,0,0-1.44,1.4,4.46,4.46,0,0,0-.52,2.15,3.91,3.91,0,0,0,1.11,2.92,4.05,4.05,0,0,0,3,1.09,6.48,6.48,0,0,0,1.75-.24,7.87,7.87,0,0,0,1.75-.66l.26,2.08a6.5,6.5,0,0,1-1.85.71,8.92,8.92,0,0,1-2.12.26" transform="translate(-0.05 0.01)" fill="#fff"/><polygon points="118.78 47.68 126.7 47.68 126.7 49.7 121.11 49.7 121.11 52.57 126.05 52.57 126.05 54.58 121.11 54.58 121.11 57.66 126.92 57.66 126.92 59.68 118.78 59.68 118.78 47.68" fill="#fff"/><path d="M62.66,26.69V25.62a22.1,22.1,0,0,0,1.91-1.84,8.31,8.31,0,0,0,1-1.28,2.07,2.07,0,0,0,.26-.94,1,1,0,0,0-.29-.75,1.1,1.1,0,0,0-.77-.27,2,2,0,0,0-.91.22,2.7,2.7,0,0,0-.81.61l-.24-1.17a2.7,2.7,0,0,1,1-.61,3.28,3.28,0,0,1,1.2-.23,2.4,2.4,0,0,1,1.64.55,1.88,1.88,0,0,1,.6,1.48,3.08,3.08,0,0,1-.34,1.4,7.59,7.59,0,0,1-1.12,1.57c-.3.24-.7.61-1.22,1.1h2.79v1.22Z" transform="translate(-0.05 0.01)" fill="#fff"/><path d="M71,26.84a2.28,2.28,0,0,1-1.94-1,4.85,4.85,0,0,1-.69-2.75,4.83,4.83,0,0,1,.69-2.75,2.4,2.4,0,0,1,3.34-.54,2.31,2.31,0,0,1,.54.54,4.73,4.73,0,0,1,.7,2.74,4.78,4.78,0,0,1-.7,2.75,2.27,2.27,0,0,1-1.94,1m0-1.22q1.17,0,1.17-2.52c0-1.68-.39-2.51-1.17-2.51s-1.17.83-1.17,2.51.39,2.52,1.17,2.52" transform="translate(-0.05 0.01)" fill="#fff"/><polygon points="76.73 20.92 74.87 21.75 74.65 20.57 77.01 19.53 78.09 19.53 78.09 26.68 76.73 26.68 76.73 20.92" fill="#fff"/><path d="M54.71,93.68a3.13,3.13,0,1,0,3.12,3.13h0a3.12,3.12,0,0,0-3.12-3.12" transform="translate(-0.05 0.01)" fill="#fff"/><path d="M93.21,93.64a3.13,3.13,0,1,0,3.11,3.13h0a3.12,3.12,0,0,0-3.11-3.12" transform="translate(-0.05 0.01)" fill="#fff"/><path d="M93.68,103.2a6.45,6.45,0,1,1,6.44-6.45h0a6.45,6.45,0,0,1-6.44,6.44m0-15.73A9.3,9.3,0,1,0,103,96.76h0a9.29,9.29,0,0,0-9.27-9.29h0m0,24.79a15.41,15.41,0,1,1,15.4-15.41h0a15.4,15.4,0,0,1-15.4,15.41M55.44,77.72A48.79,48.79,0,0,1,74.56,74,46,46,0,0,1,93.1,77.73,19.13,19.13,0,0,0,74.56,96.84,19.12,19.12,0,0,0,55.44,77.72m0,34.54A15.41,15.41,0,1,1,70.82,96.82v0a15.41,15.41,0,0,1-15.41,15.41M113,78H100.2c-6.52-4.39-15.43-7.14-25.65-7.14S54.81,73.59,48.29,78H36.11a17.82,17.82,0,0,1,3.82,7.63A19.12,19.12,0,0,0,70.26,108.9a47.78,47.78,0,0,1,4.29,6s2.75-4.1,4.29-6a19.13,19.13,0,0,0,30.32-23.29A18,18,0,0,1,113,78M55.18,103.24a6.44,6.44,0,1,1,6.45-6.44,6.43,6.43,0,0,1-6.45,6.44h0m0-15.73a9.3,9.3,0,1,0,9.3,9.29,9.29,9.29,0,0,0-9.3-9.29h0" transform="translate(-0.05 0.01)" fill="#fff"/><path d="M117.3,79.64a1.93,1.93,0,0,0,.48,0c.2-.06.21-.2.21-.34a.29.29,0,0,0-.18-.3,1.1,1.1,0,0,0-.51,0Zm0,1.44h-.61V78.54h.9c.46,0,1,0,1,.74a.64.64,0,0,1-.53.67l.61,1.13H118l-.53-1h-.2Z" transform="translate(-0.05 0.01)" fill="#fff"/><path d="M117.69,81.77a1.88,1.88,0,1,1,1.89-1.87,1.87,1.87,0,0,1-1.89,1.87h0m0-4.19A2.32,2.32,0,1,0,120,79.9a2.32,2.32,0,0,0-2.32-2.32h0" transform="translate(-0.05 0.01)" fill="#fff"/><path d="M133.15,132.62a2,2,0,0,0,.49,0c.2-.06.21-.2.21-.34a.29.29,0,0,0-.18-.3,1.51,1.51,0,0,0-.52,0Zm0,1.44h-.63v-2.54h.9c.45,0,1,0,1,.74a.63.63,0,0,1-.52.67l.6,1.13h-.66l-.53-1h-.21Z" transform="translate(-0.05 0.01)" fill="#fff"/><path d="M133.52,134.76a1.88,1.88,0,1,1,1.87-1.88,1.88,1.88,0,0,1-1.87,1.88h0m0-4.19a2.31,2.31,0,1,0,2.31,2.31,2.3,2.3,0,0,0-2.31-2.31h0" transform="translate(-0.05 0.01)" fill="#fff"/><path d="M22.13,133.69v-2.1H18.71v-3.15l-2.63.79v2.36h-2v2.1h2v6.68c0,3,1.22,4.51,3.63,4.51a6.33,6.33,0,0,0,2.24-.35H22l-.12-2.07h-.13a5.36,5.36,0,0,1-1.38.15,1.49,1.49,0,0,1-1.28-.54,3.3,3.3,0,0,1-.41-1.87v-6.56Z" transform="translate(-0.05 0.01)" fill="#fff"/><path d="M31.21,131.38a3.82,3.82,0,0,0-.68-.06,3.7,3.7,0,0,0-2.25.78,4.47,4.47,0,0,0-1.35,1.72l-.13-2.2H24.4v.11c.07,1.05.11,2.43.11,4.07v8.86h2.68v-6.9a4.22,4.22,0,0,1,.94-2.9,2.88,2.88,0,0,1,2.22-1,3.21,3.21,0,0,1,.82.07h.13v-2.55Z" transform="translate(-0.05 0.01)" fill="#fff"/><rect x="33.59" y="131.59" width="2.68" height="13.05" fill="#fff"/><path d="M35,129.47A1.73,1.73,0,0,0,36.2,129a1.69,1.69,0,0,0,.46-1.19,1.62,1.62,0,0,0-.47-1.18,1.79,1.79,0,0,0-2.42,0,1.59,1.59,0,0,0-.48,1.18,1.66,1.66,0,0,0,.47,1.19,1.64,1.64,0,0,0,1.2.48" transform="translate(-0.05 0.01)" fill="#fff"/><path d="M42.78,134.16a3.15,3.15,0,0,1,1.89-.62,3,3,0,0,1,2.57,1.24,5.09,5.09,0,0,1,1,3.22,5.5,5.5,0,0,1-1,3.45,3.36,3.36,0,0,1-4.72.5l-.28-.25a3.48,3.48,0,0,1-1-2.48v-2.07a5,5,0,0,1,.34-1.47,3.45,3.45,0,0,1,1.2-1.52m6.6-1a5,5,0,0,0-4-1.88,5.14,5.14,0,0,0-4.44,2.23l-.11-1.94H38.45v.18c.07,1.08.1,2.5.1,4.2v14h2.68v-6.72a4.23,4.23,0,0,0,1.42,1.17A5.15,5.15,0,0,0,45,145a5.43,5.43,0,0,0,4.23-1.94,7.6,7.6,0,0,0,1.69-5.16,7.25,7.25,0,0,0-1.57-4.78" transform="translate(-0.05 0.01)" fill="#fff"/><path d="M59.18,142a3.25,3.25,0,0,1-2.29.84,2.16,2.16,0,0,1-1.52-.51,2,2,0,0,1-.57-1.52A2.23,2.23,0,0,1,56,138.9a8.72,8.72,0,0,1,4.15-.73v2a2.54,2.54,0,0,1-.92,1.89m3.76,2.47a17.43,17.43,0,0,1-.21-3.06v-4.7a5.73,5.73,0,0,0-1.31-4,5,5,0,0,0-3.85-1.49,8.18,8.18,0,0,0-4.47,1.19H53l.63,1.83.12-.07a6.22,6.22,0,0,1,3.43-1,2.87,2.87,0,0,1,2.15.74,2.8,2.8,0,0,1,.72,2v.13a11.55,11.55,0,0,0-5.88,1.25A4,4,0,0,0,52.12,141a3.59,3.59,0,0,0,1.13,2.68,4.12,4.12,0,0,0,3,1.12,4.93,4.93,0,0,0,4-1.79l.27,1.49H63Z" transform="translate(-0.05 0.01)" fill="#fff"/><path d="M73.72,137v2a3.63,3.63,0,0,1-1,2.66,3.16,3.16,0,0,1-2.28,1,3,3,0,0,1-2.61-1.25,6,6,0,0,1,0-6.62,3.2,3.2,0,0,1,4.88-.27,3.4,3.4,0,0,1,1,2.5m2.8,7.74v-.19c-.07-.81-.1-1.94-.1-3.35V125.49H73.72v7.36a4.31,4.31,0,0,0-1.33-1A4.9,4.9,0,0,0,70,131.3a5.26,5.26,0,0,0-4.16,2,7.64,7.64,0,0,0-1.67,5.07,7.13,7.13,0,0,0,1.59,4.77,5.24,5.24,0,0,0,6.65,1.2,4.74,4.74,0,0,0,1.52-1.47l.14,1.88Z" transform="translate(-0.05 0.01)" fill="#fff"/><path d="M87.55,131.59s-3.35,6.83-3.59,7.6c-.3-.93-3.62-7.6-3.62-7.6H77.42l6.55,13,6.44-13Z" transform="translate(-0.05 0.01)" fill="#fff"/><rect x="91.65" y="131.59" width="2.69" height="13.05" fill="#fff"/><path d="M93,129.47a1.7,1.7,0,0,0,1.23-.48,1.66,1.66,0,0,0,.47-1.19,1.59,1.59,0,0,0-.48-1.18,1.77,1.77,0,0,0-2.41,0,1.59,1.59,0,0,0-.48,1.18,1.66,1.66,0,0,0,.47,1.19,1.62,1.62,0,0,0,1.2.48" transform="translate(-0.05 0.01)" fill="#fff"/><path d="M105,138.57a6.66,6.66,0,0,0-2.71-1.6,5.88,5.88,0,0,1-2-1,1.37,1.37,0,0,1-.46-1.05,1.47,1.47,0,0,1,.53-1.16,2.22,2.22,0,0,1,1.49-.46,5.37,5.37,0,0,1,2.7.76l.12.06.68-2h-.08a6.61,6.61,0,0,0-3.34-.81,5,5,0,0,0-3.35,1.07,3.59,3.59,0,0,0-1.29,2.8c0,1.65,1.21,2.91,3.6,3.73a5.51,5.51,0,0,1,1.84.93,1.64,1.64,0,0,1,.5,1.25,1.51,1.51,0,0,1-.65,1.28,2.91,2.91,0,0,1-1.77.48,6.06,6.06,0,0,1-3.18-.94l-.12-.07-.65,2.1h.07a7.94,7.94,0,0,0,3.82.91,5.76,5.76,0,0,0,3.7-1.09,3.61,3.61,0,0,0,1.37-2.91,3.47,3.47,0,0,0-.83-2.35" transform="translate(-0.05 0.01)" fill="#fff"/><path d="M113.41,142.88a3.18,3.18,0,0,1-2.59-1.34,5.39,5.39,0,0,1-1-3.41,5.77,5.77,0,0,1,1-3.44,3.21,3.21,0,0,1,2.71-1.31,3.12,3.12,0,0,1,2.68,1.37,5.61,5.61,0,0,1,1,3.34,5.45,5.45,0,0,1-1.08,3.49,3.29,3.29,0,0,1-2.67,1.34m4.68-9.71a5.86,5.86,0,0,0-4.5-1.88,6.21,6.21,0,0,0-4.61,1.89,7,7,0,0,0-1.81,5,6.74,6.74,0,0,0,1.76,4.84,6,6,0,0,0,4.48,1.87,6.49,6.49,0,0,0,3.25-.85,6,6,0,0,0,2.33-2.43,7.92,7.92,0,0,0,.83-3.67,6.78,6.78,0,0,0-1.73-4.8" transform="translate(-0.05 0.01)" fill="#fff"/><path d="M128.82,131.38a3.79,3.79,0,0,0-.67-.06,3.71,3.71,0,0,0-2.26.78,4.47,4.47,0,0,0-1.35,1.72l-.14-2.2H122v.11c.07,1.05.1,2.43.1,4.07v8.86h2.69v-6.9a4.17,4.17,0,0,1,.93-2.9,2.91,2.91,0,0,1,2.22-1,3.29,3.29,0,0,1,.83.07h.13v-2.55Z" transform="translate(-0.05 0.01)" fill="#fff"/></svg>
