<svg xmlns="http://www.w3.org/2000/svg" viewBox="0 0 100 50.59"><path d="M428.77,311.44s-1.93-5.86-2.38-6.53l-2.19-4.53-1.87-3.48s-.56-1.09-4.41-2.94l-6.42-3.23a7.41,7.41,0,0,0-1.71-.57c-.56-.05-8.26-2.28-8.26-2.28l8.57,1.89s-3.93-2.84-4.94-4.35c0,0,4,3.54,5.3,4l5.1,2.7s5.81,2.93,6,3.29c0,0-1.33-2-5.84-4.4a76.68,76.68,0,0,1-8.08-6.43,16.07,16.07,0,0,0-2.3-2L410,286l4.21,3.32a39.21,39.21,0,0,0,4,2.7,13.38,13.38,0,0,1,2,1.36,19.88,19.88,0,0,0-4.89-4,9,9,0,0,1-3.57-2.91s2.32,2.23,3.72,2.58a9.82,9.82,0,0,1,3.87,2.75,21.7,21.7,0,0,0-4.57-4.91s-5.16-4.07-6.29-5.71c0,0-1.39-2-1.73-2.78a21.43,21.43,0,0,0,3.69,4.23l4.61,3.76-6.36-8.48,7.33,8.82,2.94,3.54s-1.68-4.82-2.89-6.51c0,0-5.07-5.89-5.88-6.35,0,0-.54-.43.22-.07,0,0,4.64,4.41,5.33,5.4a.37.37,0,0,1,.06.1c.41.76-3.43-5.49-3.43-5.49A35.09,35.09,0,0,1,419,289.21l.88,2.16a19.67,19.67,0,0,1,2.44,4.47,8.33,8.33,0,0,0,1.56,2.48,21.37,21.37,0,0,0-1.26-5.61s-4.61-11.37-6.54-12.43h0s3.08,1.6,6.89,12c0,0-3.9-11.45-7.27-14,0,0,2.64,1.52,5.85,9.07,0,0-2.95-9.26-5.38-11,0,0,2.79,1.2,6.15,12.24,0,0-1.85-9.95-3.38-12.39a43.54,43.54,0,0,1,3.93,12.29s1.71,8.71,1.65,9.84c0,0,1.38,5.67,3,7.8l-.53-6.36a18.3,18.3,0,0,0-.71-3,85.06,85.06,0,0,1-2.87-8.85s-2.32-10.91-1.9-13c0,0,1.42,10.16,2.52,13,0,0-2.16-11.87-.29-14.55a39.51,39.51,0,0,0,.34,11.95s0-8.12.86-9.23c0,0-1,12.64.18,15.49,0,0-.95-9.35.22-12.62,0,0,0,10.78.24,11.89a16.52,16.52,0,0,1,.31,2.45,19,19,0,0,0,1.15,4s.11.25.14-.12l.13-3.68.14-4.14s-1.84-8.19.26-15.6c0,0-.79,4.94-.54,6.12,0,0,1.18-6.25,2.41-7.77,0,0-2.27,6.43-2.24,8.58,0,0-.41,5.67.45,7,0,0,.09.17.09-.41a11.77,11.77,0,0,1,.63-2.24,3,3,0,0,0,.26-1s1.59-11.25,2.23-11.59a100.57,100.57,0,0,0-1.61,10.41s3.71-7.54,3.7-9.43c0,0-.17,3.52-3,9.1a7.57,7.57,0,0,0-.74,2s-.89,2.46-.88,2.71c0,0-.07.25-.31,2.08a22.15,22.15,0,0,1,2-3.88,12.15,12.15,0,0,0,2.18-4.27,10.36,10.36,0,0,1-1.91,4.59s-2.25,3.81-2.22,5.1c0,0,0,.11.19-.16l3.69-6.79s3.35-8.26,4-8.59c0,0,.11-.14,0,.11l-3.55,8.46a42.34,42.34,0,0,1-4.21,7.75,3,3,0,0,0-.37,1.84s0,.25.17-.11a42.69,42.69,0,0,1,3-4.69c1.64-2.22,3-4.1,3-4.1s4.49-6.67,3.82-8c0,0,1,.86-2.39,6.64l6.16-5.49-6.52,6.52a7.06,7.06,0,0,0-1.19,1.14s-3.27,4.6-4.46,6.53a14.5,14.5,0,0,0-1.45,3.09,2.67,2.67,0,0,0-.14,1.22l-.08,8.07a31.94,31.94,0,0,0,.39,4,21.25,21.25,0,0,1,.65,2.52,3.7,3.7,0,0,1-.08.76Z" transform="translate(-371.23 -272.1)" fill="#fff"/><path d="M403.39,317.74v.07h-.06a.7.7,0,0,0-.61.43L401.06,322a3.63,3.63,0,0,0-.26.71h-.06l-1.94-4.43a.69.69,0,0,0-.61-.44h-.06v-.07h1.56v.07h-.06a.29.29,0,0,0-.26.43l1.45,3.63,1.5-3.62a.3.3,0,0,0-.26-.44H402v-.07Z" transform="translate(-371.23 -272.1)" fill="#fff"/><path d="M406.63,322.59h-1.51v-.07h.09a.44.44,0,0,0,.44-.44v-3.83a.44.44,0,0,0-.44-.44h-.09v-.07h1.51v.07h-.09a.45.45,0,0,0-.44.43v3.84a.45.45,0,0,0,.44.44h.09Z" transform="translate(-371.23 -272.1)" fill="#fff"/><path d="M412.11,321.47l-.4,1.12h-2.87v-.07h.09a.44.44,0,0,0,.44-.44v-3.83a.44.44,0,0,0-.44-.44h-.09v-.06h1.52v.06h-.09a.46.46,0,0,0-.45.44v4.13h1a1.2,1.2,0,0,0,1.23-.91Z" transform="translate(-371.23 -272.1)" fill="#fff"/><path d="M418,322.08a.68.68,0,0,0,.6.44h.06v.07h-1.56v-.07h.07a.29.29,0,0,0,.26-.43l-.44-1.18h-1.87l-.46,1.18a.29.29,0,0,0,.26.43H415v.07h-1.39v-.07h.06a.69.69,0,0,0,.61-.44l1.57-3.72a3.73,3.73,0,0,0,.25-.71h.07ZM417,320.7l-.84-2.22-.87,2.22Z" transform="translate(-371.23 -272.1)" fill="#fff"/><path d="M425.74,322.09a.48.48,0,0,0,.5.43h.11v.07h-1.5v-.07h.1a.27.27,0,0,0,.27-.29l-.31-3.48L423.46,322a3.18,3.18,0,0,0-.24.7h-.07l-1.77-3.83-.3,3.38a.28.28,0,0,0,.27.29h.11v.07h-1.34v-.07h.11a.48.48,0,0,0,.5-.43l.52-4.44h.07l1.93,4.17,1.89-4.17h.06Z" transform="translate(-371.23 -272.1)" fill="#fff"/><path d="M433.19,320.17a2.49,2.49,0,1,1-2.48-2.52A2.36,2.36,0,0,1,433.19,320.17Zm-.53,0c0-1.39-.78-2.31-2-2.31s-2,.92-2,2.31.78,2.31,2,2.31S432.66,321.55,432.66,320.17Z" transform="translate(-371.23 -272.1)" fill="#fff"/><path d="M439.9,317.75v.06h-.11a.36.36,0,0,0-.37.33v2.74a1.73,1.73,0,0,1-1.86,1.8,1.75,1.75,0,0,1-1.92-1.79v-2.73a.37.37,0,0,0-.37-.35h-.11v-.06h1.4v.06h-.11a.35.35,0,0,0-.36.34v2.64a1.51,1.51,0,1,0,3,.09v-2.73a.36.36,0,0,0-.37-.34h-.11v-.06Z" transform="translate(-371.23 -272.1)" fill="#fff"/><path d="M443.82,317.74a1.23,1.23,0,0,1,1.35,1.31,1.28,1.28,0,0,1-1.17,1.31,1.63,1.63,0,0,1,.49.49s.6.85.87,1.15a1.24,1.24,0,0,0,.94.52v.07h-.38a1.49,1.49,0,0,1-1.21-.61c-.08-.09-.86-1.23-.91-1.29-.18-.23-.38-.47-.64-.47v-.06h.37a1,1,0,0,0,1.08-.72,1.24,1.24,0,0,0,0-.41c0-.63-.34-1-.85-1s-.78,0-.87,0v4.12a.46.46,0,0,0,.45.44h.09v.07H442v-.07H442a.45.45,0,0,0,.45-.43v-3.84a.45.45,0,0,0-.45-.44H442v-.06Z" transform="translate(-371.23 -272.1)" fill="#fff"/><path d="M451.74,322.08a.68.68,0,0,0,.6.44h.06v.07h-1.56v-.07h.07a.29.29,0,0,0,.26-.43l-.44-1.18h-1.87l-.46,1.18a.29.29,0,0,0,.26.43h.06v.07h-1.39v-.07h.06a.69.69,0,0,0,.61-.44l1.57-3.72a3.73,3.73,0,0,0,.25-.71h.07Zm-1.09-1.38-.84-2.22-.87,2.22Z" transform="translate(-371.23 -272.1)" fill="#fff"/><path d="M375.45,299.27a1.17,1.17,0,0,1,.5.3c.09.14,0,.36-.5.31,0,0-4.44-.38-4.21-2.24,0,0-.31-3.14,14.54-4.45,0,0,9.53-.74,15.56,1.59,0,0,6.67,2.59,1.31,6.22,0,0-3.27,1.77-9.11,1.71v6a.6.6,0,0,1-.64.57.56.56,0,0,1-.58-.57l.08-6a7.4,7.4,0,0,1-2.35-.72s-.39-.24-.11-.41.2-.14.48,0a6.13,6.13,0,0,0,1.95.31v-5.08s0-.53.41-.41a1.22,1.22,0,0,1,.78,1.15l-.05,4.48s6.59.14,9.13-2.37c0,0,2.34-2.15-.95-3.65,0,0-8.26-4-24.38-.48,0,0-4.3.79-5,2.1C372.35,297.57,371.72,298.43,375.45,299.27Z" transform="translate(-371.23 -272.1)" fill="#fff"/><path d="M402.48,304.4c.26,0,.42-.29.52-.47a1,1,0,0,0,.15-.58.62.62,0,0,0-.95-.48.74.74,0,0,0-.19.2.81.81,0,0,0-.07.39,1.64,1.64,0,0,0,.07.44,1.1,1.1,0,0,0,.14.36A.53.53,0,0,0,402.48,304.4Z" transform="translate(-371.23 -272.1)" fill="#fff"/><path d="M401,306a2.84,2.84,0,0,0,0,2.32s.48,1,1.33,1a.6.6,0,0,0,.65-.5s.08-.37-.43-.41a.66.66,0,0,1-.61-.76l0-1.34s0-.76-.26-.81C401.64,305.55,401.24,305.38,401,306Z" transform="translate(-371.23 -272.1)" fill="#fff"/><path d="M405.22,305.22a6.3,6.3,0,0,0,1,3.71,1,1,0,0,0,1.67,0l1-1.17a3.09,3.09,0,0,0,2.36,1.61,2.09,2.09,0,0,0,1.74-.94s.36-.65-.56-.42a2,2,0,0,1-2.27-.31,3.19,3.19,0,0,1-.66-1.12s-.09-.61-.51-.17c0,0-1.58,1.71-1.62,1.7s-.35.48-.7-.11a4.63,4.63,0,0,1-.63-2.34s.14-1-.43-.87C405.68,304.79,405.23,304.85,405.22,305.22Z" transform="translate(-371.23 -272.1)" fill="#fff"/><path d="M424.58,306.24s-.47-.52-.42.21a1.67,1.67,0,0,1-1,1.92s-5.14,2.28-7.84-1c0,0,2.84.05,2.45-1.93a1.42,1.42,0,0,0-1.95-1,2.57,2.57,0,0,0-1.54,1.51s-1,2.83,3.65,3.82c0,0,4,.75,6.29-1.18A1.85,1.85,0,0,0,424.58,306.24Zm-7.81-.88s1,.91-1.64.89C415.13,306.25,416,304.4,416.77,305.36Z" transform="translate(-371.23 -272.1)" fill="#fff"/><path d="M429.91,306.16s-.58.19-.63.67c0,0-.18.45.92.39l8.48-.53s.33-.06.34.2a7.15,7.15,0,0,0,.64,2.45s.48.57.7.28c0,0-.34-1.4-.56-3l6.13-.2a4.69,4.69,0,0,1-.07,2.1s-.54,1.1.28,1.12c0,0,.78,0,.86-1.15v-.08a10,10,0,0,0-.12-2.09l8.24.16s-.22.83.31.84c0,0,.3,0,.25.36v.78s0,.62.27.62c0,0,.47.13.7-.61,0,0,.44-2.41-.93-2,0,0-.08-.78-1-.66l-7.89-.32a22.93,22.93,0,0,0-.48-2.68,7.84,7.84,0,0,1-.5-2.22l.06-.87s.13-.95-.65-.79c-.08,0-.61.12-.44.93a25.39,25.39,0,0,0,.56,2.59,18.52,18.52,0,0,1,.46,3l-6.11-.11a12.16,12.16,0,0,1-.11-3.61l.23-3.57s.1-.6-.14-.69c0,0-.29-.28-.56.76a22.81,22.81,0,0,0-.29,7.22S432.6,305.35,429.91,306.16Z" transform="translate(-371.23 -272.1)" fill="#fff"/><path d="M455.35,303.24c.26,0,.42-.29.51-.46a.9.9,0,0,0,.16-.58.62.62,0,0,0-.95-.48.61.61,0,0,0-.19.2.72.72,0,0,0-.08.39,1.72,1.72,0,0,0,.08.44.79.79,0,0,0,.14.35A.43.43,0,0,0,455.35,303.24Z" transform="translate(-371.23 -272.1)" fill="#fff"/><path d="M461.65,297.56a42.06,42.06,0,0,0-.58,7.21,14.05,14.05,0,0,0,.94,4.57.66.66,0,0,0,.68.36s.49-.16.17-1a16.19,16.19,0,0,1-1-5.66,13,13,0,0,1,.18-1.57,10.75,10.75,0,0,0,.36-3.88s-.12-.78-.36-.81C462.05,296.75,461.81,296.47,461.65,297.56Z" transform="translate(-371.23 -272.1)" fill="#fff"/><path d="M466.32,297.65a24,24,0,0,0-.65,6.2,23.41,23.41,0,0,1,.45,4.15l0,1.21s0,.61.43.5c0,0,.37,0,.42-.72a15,15,0,0,0-.21-4.64,5.66,5.66,0,0,1-.12-2.38A12.09,12.09,0,0,0,467,298s0-.78-.19-.84S466.48,296.9,466.32,297.65Z" transform="translate(-371.23 -272.1)" fill="#fff"/><path d="M469.4,306a2.31,2.31,0,0,1,0-2.29l.53-.62s.71-.43.9,0a.81.81,0,0,1-.28,1s-.69.58-.56,1.2l.9,1.43a1.23,1.23,0,0,1,0,1.67l-1.49,1s-.85.62-1.38,0c0,0-.24-.42.76-.85l1.1-.48s.62-.29.14-1.05Z" transform="translate(-371.23 -272.1)" fill="#fff"/></svg>
