<svg xmlns="http://www.w3.org/2000/svg" viewBox="0 0 61.73 100"><path d="M0,0V73.7H28.85l1.57-2.33H2.33v-69H59.4v69H47.84L46.26,73.7H61.73V0ZM49.45,17.53a5.59,5.59,0,1,1-11.17,0,5.59,5.59,0,1,1,11.17,0m2.58,0a7.89,7.89,0,0,0-8.15-8,8,8,0,1,0,0,16,7.89,7.89,0,0,0,8.15-8M39.81,59.73a9.17,9.17,0,0,0,9.49-9.25,9.45,9.45,0,1,0-9.49,9.25M52,50.53a14.38,14.38,0,0,1-2.55,7.82L39.16,73.66H36l8.22-12.2a12.15,12.15,0,0,1-4.59.9A11.78,11.78,0,0,1,27.68,50.48,12.18,12.18,0,1,1,52,50.53M49.09,30.59H38.61v2.17H49.09ZM30.43,10.2V32.76h-2L12.89,15V59.93H10.2V10.2h2l.06.07L27.74,28.09V10.2ZM51,92.8v5.65h2.47v1.42h-4V92.8ZM44,97h1.77l-.9-2.31Zm1.57-4.24,2.84,7.07H46.8l-.6-1.53H43.5l-.6,1.53H41.35L44.2,92.8Zm-6.38,4.4H37.59V95.9h3v3.34a4.29,4.29,0,0,1-2.53.76,3.52,3.52,0,0,1-3.8-3.63,3.68,3.68,0,0,1,3.9-3.71,4.5,4.5,0,0,1,2.28.59v1.67a3.57,3.57,0,0,0-2.27-.82,2.21,2.21,0,0,0-2.37,2.27,2.15,2.15,0,0,0,2.28,2.22,2.55,2.55,0,0,0,1.08-.23Zm-11.93-.14V92.8h1.53V97c0,1,.46,1.55,1.3,1.55s1.31-.59,1.31-1.55V92.8H32.9v4.26A2.68,2.68,0,0,1,30.06,100a2.68,2.68,0,0,1-2.83-2.94M20.82,92.8h5.25v1.41H24.21v5.66H22.69V94.21H20.82ZM16.44,96h.86a.94.94,0,0,0,1.05-.94.93.93,0,0,0-1.05-.93h-.86Zm0,3.84H14.93V92.8h2.36c1.52,0,2.58.81,2.58,2.26a2.12,2.12,0,0,1-1.45,2l1.95,2.77H18.58l-1.74-2.59h-.4ZM9.75,94.14a2.2,2.2,0,1,0,2.15,2.19,2.15,2.15,0,0,0-2.15-2.19m0,5.86a3.67,3.67,0,1,1,3.7-3.67A3.66,3.66,0,0,1,9.75,100M1.52,96h.91a.94.94,0,1,0,0-1.86H1.52ZM2.4,92.8c1.54,0,2.6.82,2.6,2.28s-1.06,2.28-2.6,2.28H1.52v2.51H0V92.8Z" transform="translate(0 0)" fill="#fff"/><polygon points="0 80.67 0 87.78 1.74 87.78 1.74 85.14 3.91 85.14 3.91 83.65 1.74 83.65 1.74 82.16 4.36 82.16 4.36 80.67 0 80.67" fill="#fff"/><path d="M7.72,82.29s-.16.77-.29,1.22L7,84.89H8.43L8,83.51c-.13-.45-.29-1.22-.29-1.22Zm1.11,4H6.62l-.43,1.49H4.4l2.41-7.11H8.64l2.42,7.11H9.27Z" transform="translate(0 0)" fill="#fff"/><path d="M14.36,83.89a.82.82,0,0,0,.9-.88c0-.53-.2-.85-1.07-.85H13.6v1.73Zm-2.5-3.22h2.48a3.67,3.67,0,0,1,1.38.17A2.06,2.06,0,0,1,17,82.9,2.16,2.16,0,0,1,16,84.84v0a4.1,4.1,0,0,1,.27.43l1.38,2.49H15.68l-1.27-2.4H13.6v2.4H11.86Z" transform="translate(0 0)" fill="#fff"/><path d="M21.86,86.31a2,2,0,0,0,1.92-2.13,1.92,1.92,0,1,0-3.84,0,2,2,0,0,0,1.92,2.13m0-5.76a3.6,3.6,0,0,1,3.72,3.63,3.72,3.72,0,0,1-7.44,0,3.6,3.6,0,0,1,3.72-3.63" transform="translate(0 0)" fill="#fff"/></svg>
