<svg xmlns="http://www.w3.org/2000/svg" viewBox="0 0 65.41 100"><path d="M388.59,247.16c2.93.06,5.87,0,8.81,0H454q0,35.49,0,71c0,1.31,0,2.63,0,3.95-7.22,0-14.44,0-21.66,0,.33-.75.66-1.5,1-2.25H451.8V249.37h-61v70.47h29.79l-1,2.25q-15.52,0-31,0,0-37.45,0-74.93Z" transform="translate(-388.59 -247.16)" fill="#fff"/><path d="M396.8,253.54l21.12,22.63c0-7.51,0-15,.06-22.52.8,0,1.61,0,2.41,0q0,14.42,0,28.83l-21.23-22.87q0,19.71,0,39.43h-2.49q0-22.77.07-45.53Z" transform="translate(-388.59 -247.16)" fill="#fff"/><path d="M433.3,253.85a10.41,10.41,0,0,1,6.31.88,10.59,10.59,0,0,1,5,5.06,10.81,10.81,0,0,1-2.4,12.5,10.41,10.41,0,0,1-11.6,1.75,10.62,10.62,0,0,1-4.66-4.41,10.92,10.92,0,0,1-1.34-5.37,10.78,10.78,0,0,1,2.71-7,10.52,10.52,0,0,1,6-3.37Zm.49,2.21a8.33,8.33,0,0,0-6.16,4.68,8.56,8.56,0,0,0-.39,6.31,8.46,8.46,0,0,0,3.5,4.51,8.17,8.17,0,0,0,9.94-.94,8.4,8.4,0,0,0,2.6-4.87,8.55,8.55,0,0,0-.7-5,8.44,8.44,0,0,0-3.64-3.83,8.29,8.29,0,0,0-5.15-.85Z" transform="translate(-388.59 -247.16)" fill="#fff"/><path d="M425.65,279.88h19V282h-19v-2.13Z" transform="translate(-388.59 -247.16)" fill="#fff"/><path d="M425.63,286.22q9.47,0,18.94,0-8.52,17.94-17.05,35.87h-2.8L441,288.48l-15.38-.05c0-.74,0-1.47,0-2.21Z" transform="translate(-388.59 -247.16)" fill="#fff"/><path d="M403.31,312a10.36,10.36,0,0,0,3.21,2.95,8.58,8.58,0,0,0,1.46.68,12,12,0,0,0,1.75.47,10.07,10.07,0,0,0,2,.19,10.87,10.87,0,0,0,4-.74,10.2,10.2,0,0,0,3.26-2,9.64,9.64,0,0,0,2.2-3,8.78,8.78,0,0,0,.81-3.75,9,9,0,0,0-.8-3.77,9.66,9.66,0,0,0-2.18-3.06,10.43,10.43,0,0,0-3.26-2.07,10.79,10.79,0,0,0-4-.75,9,9,0,0,0-2.09.22,13.76,13.76,0,0,0-1.62.46,8.92,8.92,0,0,0-1.42.67h-.11c0-.14.06-.3.11-.48s.06-.34.1-.57.08-.49.11-.78l1.07-8.88h12.32V286h-14l-1.72,14.15,1.38.48a9.6,9.6,0,0,1,1.62-.9,14.15,14.15,0,0,1,1.84-.61,9.75,9.75,0,0,1,2.37-.28,9.11,9.11,0,0,1,3.29.59,8.47,8.47,0,0,1,2.65,1.65,7.79,7.79,0,0,1,1.77,2.5,7.59,7.59,0,0,1,.64,3.13,7.42,7.42,0,0,1-.64,3.1,7.62,7.62,0,0,1-1.77,2.46,8.39,8.39,0,0,1-2.65,1.62,8.91,8.91,0,0,1-3.29.6,9.2,9.2,0,0,1-1.71-.16,7.9,7.9,0,0,1-2.64-1,7.88,7.88,0,0,1-2.59-2.52L403.31,312Z" transform="translate(-388.59 -247.16)" fill="#fff"/><path d="M403.31,312a10.36,10.36,0,0,0,3.21,2.95,8.58,8.58,0,0,0,1.46.68,12,12,0,0,0,1.75.47,10.07,10.07,0,0,0,2,.19,10.87,10.87,0,0,0,4-.74,10.2,10.2,0,0,0,3.26-2,9.64,9.64,0,0,0,2.2-3,8.78,8.78,0,0,0,.81-3.75,9,9,0,0,0-.8-3.77,9.66,9.66,0,0,0-2.18-3.06,10.43,10.43,0,0,0-3.26-2.07,10.79,10.79,0,0,0-4-.75,9,9,0,0,0-2.09.22,13.76,13.76,0,0,0-1.62.46,8.92,8.92,0,0,0-1.42.67h-.11c0-.14.06-.3.11-.48s.06-.34.1-.57.08-.49.11-.78l1.07-8.88h12.32V286h-14l-1.72,14.15,1.38.48a9.6,9.6,0,0,1,1.62-.9,14.15,14.15,0,0,1,1.84-.61,9.75,9.75,0,0,1,2.37-.28,9.11,9.11,0,0,1,3.29.59,8.47,8.47,0,0,1,2.65,1.65,7.79,7.79,0,0,1,1.77,2.5,7.59,7.59,0,0,1,.64,3.13,7.42,7.42,0,0,1-.64,3.1,7.62,7.62,0,0,1-1.77,2.46,8.39,8.39,0,0,1-2.65,1.62,8.91,8.91,0,0,1-3.29.6,9.2,9.2,0,0,1-1.71-.16,7.9,7.9,0,0,1-2.64-1,7.88,7.88,0,0,1-2.59-2.52L403.31,312Z" transform="translate(-388.59 -247.16)" fill="#fff"/><path d="M398,328.09a3.85,3.85,0,0,1,3.69.18c0,.57,0,1.14,0,1.71a3.18,3.18,0,0,0-2.5-.83.73.73,0,0,0-.69.68c0,.39.42.56.72.66a4.62,4.62,0,0,1,2.46,1.13,2.19,2.19,0,0,1-.93,3.16,4.47,4.47,0,0,1-3.72-.33v-1.82a3.43,3.43,0,0,0,2.88.92.67.67,0,0,0,.3-1.17c-.87-.51-2-.42-2.79-1.18a2.08,2.08,0,0,1,.58-3.11Z" transform="translate(-388.59 -247.16)" fill="#fff"/><path d="M412.2,327.84a3.66,3.66,0,0,1,4.25,1.89,3.73,3.73,0,0,1-1.23,4.7,3.66,3.66,0,0,1-5-.92,3.74,3.74,0,0,1,.73-5,3.51,3.51,0,0,1,1.25-.63Zm.35,1.45a2.15,2.15,0,0,0-1.45,1.88,2.19,2.19,0,0,0,1.17,2.18,2.09,2.09,0,0,0,2.43-.44,2.32,2.32,0,0,0,.36-2.54,2.09,2.09,0,0,0-2.51-1.08Z" transform="translate(-388.59 -247.16)" fill="#fff"/><path d="M388.77,327.83h1.49v5.65h2.43c0,.48,0,1,0,1.43h-3.92v-7.08Z" transform="translate(-388.59 -247.16)" fill="#fff"/><path d="M393.92,327.83h1.51v7.08h-1.51v-7.08Z" transform="translate(-388.59 -247.16)" fill="#fff"/><path d="M403.29,327.83h2.63a2.21,2.21,0,0,1,1.78.79,1.73,1.73,0,0,1-.43,2.5,1.84,1.84,0,0,1,1.06,1,2.06,2.06,0,0,1-.43,2.16,2.69,2.69,0,0,1-1.87.63H403.3c0-2.36,0-4.72,0-7.08Zm1.47,1.28v1.55a3.82,3.82,0,0,0,1.47-.13.77.77,0,0,0-.06-1.32,4.42,4.42,0,0,0-1.41-.1Zm0,2.78v1.74a5.33,5.33,0,0,0,1.74-.12.85.85,0,0,0,0-1.5,5.27,5.27,0,0,0-1.73-.12Z" transform="translate(-388.59 -247.16)" fill="#fff"/><path d="M418.27,327.83h1.53l3.22,4.68v-4.68h1.46v7.08H423l-3.25-4.65v4.65h-1.46v-7.08Z" transform="translate(-388.59 -247.16)" fill="#fff"/><path d="M397.57,339.9a3.64,3.64,0,0,1,4.05,2,3.74,3.74,0,0,1-1.15,4.62,3.67,3.67,0,0,1-5-.78,3.73,3.73,0,0,1,.6-5.06,3.54,3.54,0,0,1,1.53-.75Zm.24,1.48A2.13,2.13,0,0,0,396.3,343a2.18,2.18,0,0,0,1.8,2.66,2.15,2.15,0,0,0,2.34-2.41,2.12,2.12,0,0,0-2.63-1.87Z" transform="translate(-388.59 -247.16)" fill="#fff"/><path d="M423.61,340.77a4.35,4.35,0,0,1,4.9-.37v1.69a3.06,3.06,0,0,0-3.91-.2,2.36,2.36,0,0,0-.15,3.11,2.51,2.51,0,0,0,2.79.54v-1.18h-1.56v-1.31h3v3.36a4.29,4.29,0,0,1-2.6.74,3.58,3.58,0,0,1-3-1.47,3.87,3.87,0,0,1,.57-4.91Z" transform="translate(-388.59 -247.16)" fill="#fff"/><path d="M388.77,340c.84,0,1.68,0,2.52,0a2.63,2.63,0,0,1,1.81.7,2.32,2.32,0,0,1-.52,3.54,4.58,4.58,0,0,1-2.32.32V347h-1.49V340Zm1.49,1.37v1.85a4.08,4.08,0,0,0,1.44-.11.93.93,0,0,0,.1-1.56,3.2,3.2,0,0,0-1.54-.18Z" transform="translate(-388.59 -247.16)" fill="#fff"/><path d="M403.43,340c.83,0,1.66,0,2.48,0a2.47,2.47,0,0,1,2,1,2.31,2.31,0,0,1-.17,2.72,3,3,0,0,1-.89.62c.64.91,1.27,1.83,1.91,2.75H407l-1.71-2.58h-.39V347h-1.49c0-2.36,0-4.72,0-7.08Zm1.49,1.37v1.86a3.52,3.52,0,0,0,1.41-.13.93.93,0,0,0,.09-1.54,3,3,0,0,0-1.5-.19Z" transform="translate(-388.59 -247.16)" fill="#fff"/><path d="M409.21,340h5.17v1.42h-1.82c0,1.89,0,3.78,0,5.66h-1.51v-5.66h-1.84V340Z" transform="translate(-388.59 -247.16)" fill="#fff"/><path d="M415.51,340H417v4.15a1.76,1.76,0,0,0,.38,1.23,1.33,1.33,0,0,0,1.53.2,1.49,1.49,0,0,0,.64-1.31V340h1.52v4.14a3.21,3.21,0,0,1-.68,2.2,2.73,2.73,0,0,1-2.16.87,2.67,2.67,0,0,1-2.06-.85,3.05,3.05,0,0,1-.69-2V340Z" transform="translate(-388.59 -247.16)" fill="#fff"/><path d="M432.18,340h1.33q1.39,3.54,2.8,7.08h-1.58c-.19-.51-.39-1-.58-1.52h-2.64c-.2.5-.39,1-.59,1.52h-1.54l2.8-7.08ZM432,344.2h1.73c-.29-.77-.59-1.53-.88-2.29-.28.76-.57,1.52-.85,2.29Z" transform="translate(-388.59 -247.16)" fill="#fff"/><path d="M437.42,340h1.5v5.65h2.42V347h-3.92V340Z" transform="translate(-388.59 -247.16)" fill="#fff"/></svg>
