<svg xmlns="http://www.w3.org/2000/svg" viewBox="0 0 61.73 100"><path d="M391.94,328.06v5.64h2.47v1.43h-4v-7.07Zm5.27,0v7.07h-1.53v-7.07Zm1.6,4.8a3.76,3.76,0,0,0,2.41,1c.69,0,1.07-.28,1.07-.77s-.71-.69-1.49-.91c-1-.24-2.07-.63-2.07-2a2.32,2.32,0,0,1,2.62-2.24,4,4,0,0,1,2.19.59v1.69a3.32,3.32,0,0,0-2.18-.87c-.73,0-1.07.3-1.07.74s.6.61,1.28.8c1,.26,2.3.6,2.3,2.09a2.33,2.33,0,0,1-2.62,2.3,4.77,4.77,0,0,1-2.44-.61Zm6.41-4.8h2.58c1.31,0,2.25.7,2.25,1.91a1.5,1.5,0,0,1-.83,1.38,1.72,1.72,0,0,1,1.25,1.71c0,1.29-1,2.07-2.51,2.07h-2.74Zm2.43,2.81c.53,0,.91-.26.91-.77s-.38-.78-.91-.78h-.95v1.55Zm.21,3c.65,0,1.08-.31,1.08-.88s-.43-.88-1.08-.88H406.7v1.76Zm7.42,1.4a3.67,3.67,0,1,1,3.7-3.67A3.66,3.66,0,0,1,415.28,335.26Zm0-5.86a2.19,2.19,0,1,0,2.15,2.19A2.15,2.15,0,0,0,415.28,329.4Zm11.5-1.34v7.07h-1.52l-3.32-4.67v4.67h-1.48v-7.07H422l3.29,4.68v-4.68Zm-33.95,12.13c1.54,0,2.6.82,2.6,2.28s-1.06,2.28-2.6,2.28h-.89v2.51h-1.51v-7.07Zm-.89,3.22h.92a.94.94,0,1,0,0-1.86h-.92Zm8.24,4a3.67,3.67,0,1,1,3.7-3.67A3.67,3.67,0,0,1,400.18,347.39Zm0-5.86a2.2,2.2,0,1,0,2.14,2.19A2.15,2.15,0,0,0,400.18,341.53Zm6.68,5.73h-1.5v-7.07h2.35c1.53,0,2.59.82,2.59,2.26a2.12,2.12,0,0,1-1.46,2l2,2.77H409l-1.74-2.59h-.41Zm0-3.84h.86a.93.93,0,0,0,1-.94.92.92,0,0,0-1-.93h-.86Zm4.38-3.23h5.26v1.41h-1.86v5.66h-1.53V341.6h-1.87Zm6.41,4.26v-4.26h1.54v4.18c0,1,.45,1.55,1.3,1.55s1.3-.59,1.3-1.55v-4.18h1.54v4.26a2.84,2.84,0,1,1-5.68,0Zm11.94.14H428v-1.3h3v3.34a4.23,4.23,0,0,1-2.52.76,3.51,3.51,0,0,1-3.8-3.63,3.68,3.68,0,0,1,3.9-3.71,4.5,4.5,0,0,1,2.28.59v1.67a3.57,3.57,0,0,0-2.27-.82,2.21,2.21,0,0,0-2.38,2.27,2.16,2.16,0,0,0,2.29,2.22,2.59,2.59,0,0,0,1.08-.23Zm6.38-4.4,2.84,7.07h-1.59l-.59-1.53h-2.7l-.6,1.53h-1.55l2.84-7.07Zm-1.58,4.24h1.78l-.9-2.31Zm7.08-4.24v5.65h2.46v1.42h-4v-7.07Zm-20.62-82.6v22.56h-2L403.32,262.4v44.92h-2.69V257.59h2l.06.07,15.51,17.82V257.59Zm18.67,22.56V278H429v2.17Zm2.94,17.77a14.44,14.44,0,0,1-2.55,7.83l-10.32,15.3H426.4l8.23-12.2a12.19,12.19,0,0,1-4.59.9,11.78,11.78,0,0,1-11.93-11.88,12.18,12.18,0,1,1,24.35.05Zm-12.23,9.2a9.17,9.17,0,0,0,9.49-9.25,9.44,9.44,0,1,0-9.49,9.25Zm12.23-42.2a8.18,8.18,0,1,0-8.15,8A7.9,7.9,0,0,0,442.46,264.92Zm-2.59,0a5.58,5.58,0,1,1-5.56-5.69A5.51,5.51,0,0,1,439.87,264.92Zm-49.44-17.53v73.7h28.85l1.57-2.33H392.76v-69h57.06v69H438.26l-1.57,2.33h15.47v-73.7Z" transform="translate(-390.43 -247.39)" fill="#fff"/></svg>
