<svg xmlns="http://www.w3.org/2000/svg" viewBox="0 0 65.48 100"><path d="M0,0C2.92,0,5.86,0,8.8,0H65.42V75H56.07V72.71h7.15V2.19H2.2v70.5H45.3v2.25H0Z" transform="translate(0.05 0.02)" fill="#fff"/><path d="M8.2,6.36,29.33,29c0-7.51,0-15,.06-22.53H31.8V35.31L10.56,12.44V51.88H8.07q0-22.79.07-45.55Z" transform="translate(0.05 0.02)" fill="#fff"/><path d="M44.71,6.67A10.51,10.51,0,0,1,56,12.62a10.8,10.8,0,0,1-2.4,12.5A10.41,10.41,0,0,1,42,26.87a10.57,10.57,0,0,1-4.66-4.41A11,11,0,0,1,36,17.09a10.84,10.84,0,0,1,2.71-7,10.57,10.57,0,0,1,6-3.37Zm.49,2.21A8.36,8.36,0,0,0,39,13.57a8.52,8.52,0,0,0,3.11,10.82,8.18,8.18,0,0,0,10-.94,8.37,8.37,0,0,0,2.6-4.87,8.59,8.59,0,0,0-.7-5,8.25,8.25,0,0,0-8.8-4.69Z" transform="translate(0.05 0.02)" fill="#fff"/><path d="M37.06,32.71h19v2.12h-19V32.7Z" transform="translate(0.05 0.02)" fill="#fff"/><path d="M4.41,86.33H2.18l-.43,1.5H0l2.43-7.14H4.22l2.43,7.14H4.85Zm-1.12-4s-.16.78-.29,1.22l-.41,1.39H4l-.4-1.39c-.13-.44-.29-1.22-.29-1.22Z" transform="translate(0.05 0.02)" fill="#fff"/><path d="M7.45,80.69H9.2v5.64h2.92v1.5H7.45Z" transform="translate(0.05 0.02)" fill="#fff"/><path d="M13.08,80.69h2.63c1.43,0,2.43.64,2.43,1.87a1.76,1.76,0,0,1-.83,1.52h0a1.6,1.6,0,0,1,1.12,1.61c0,1.56-1.3,2.13-2.72,2.13H13.08Zm2.65,2.76a.6.6,0,0,0,.63-.65.58.58,0,0,0-.66-.61h-.87v1.26Zm.15,2.88a.71.71,0,0,0,.76-.75.69.69,0,0,0-.75-.73H14.83v1.48Z" transform="translate(0.05 0.02)" fill="#fff"/><path d="M19.57,80.69h1.75V85.2a1.1,1.1,0,0,0,1.24,1.15A1.1,1.1,0,0,0,23.8,85.2V80.69h1.75V85.2a2.73,2.73,0,0,1-3,2.75,2.73,2.73,0,0,1-3-2.75Z" transform="translate(0.05 0.02)" fill="#fff"/><path d="M27.14,80.69h4.38v1.5H28.89v1.5h2.18v1.5H28.89v2.64H27.14Z" transform="translate(0.05 0.02)" fill="#fff"/><path d="M32.63,80.69h4.48v1.5H34.38v1.3h2.18V85H34.38v1.35h2.87v1.5H32.63Z" transform="translate(0.05 0.02)" fill="#fff"/><path d="M38.51,80.69h1.75v7.14H38.51Z" transform="translate(0.05 0.02)" fill="#fff"/><path d="M41.94,80.69h2.49a3.7,3.7,0,0,1,1.39.17,2.08,2.08,0,0,1,1.32,2.08,2.19,2.19,0,0,1-1.07,2h0a4.1,4.1,0,0,1,.27.43l1.39,2.5H45.78l-1.27-2.4h-.82v2.4H41.94Zm2.51,3.23a.81.81,0,0,0,.91-.87c0-.54-.2-.86-1.08-.86h-.59v1.73Z" transform="translate(0.05 0.02)" fill="#fff"/><path d="M52.37,86.33H50.14l-.43,1.5H47.92l2.42-7.14h1.84l2.43,7.14h-1.8Zm-1.12-4s-.16.78-.28,1.22l-.42,1.39H52l-.4-1.39c-.13-.44-.29-1.22-.29-1.22Z" transform="translate(0.05 0.02)" fill="#fff"/><path d="M.17,92.71h3a2.47,2.47,0,0,1,0,4.94H1.91v2.21H.17Zm2.6,3.44a.87.87,0,0,0,.91-1,.85.85,0,0,0-.88-1H1.91v1.94Z" transform="translate(0.05 0.02)" fill="#fff"/><path d="M9.76,92.59a3.62,3.62,0,0,1,3.74,3.65A3.66,3.66,0,0,1,9.76,100,3.66,3.66,0,0,1,6,96.24,3.62,3.62,0,0,1,9.76,92.59Zm0,5.79a2,2,0,0,0,1.93-2.14,1.93,1.93,0,1,0-3.86,0A2,2,0,0,0,9.76,98.38Z" transform="translate(0.05 0.02)" fill="#fff"/><path d="M14.69,92.71h2.49a3.7,3.7,0,0,1,1.39.17A2.08,2.08,0,0,1,19.89,95a2.18,2.18,0,0,1-1.07,2v0a4.1,4.1,0,0,1,.27.43l1.39,2.5H18.53l-1.27-2.41h-.82v2.41H14.69ZM17.2,96a.82.82,0,0,0,.91-.88c0-.54-.2-.86-1.08-.86h-.59V96Z" transform="translate(0.05 0.02)" fill="#fff"/><path d="M22.91,94.21H20.74v-1.5h6.09v1.5H24.66v5.65H22.91Z" transform="translate(0.05 0.02)" fill="#fff"/><path d="M27.61,92.71h1.75v4.52a1.24,1.24,0,0,0,2.48,0V92.71h1.75v4.52a2.73,2.73,0,0,1-3,2.75,2.73,2.73,0,0,1-3-2.75Z" transform="translate(0.05 0.02)" fill="#fff"/><path d="M38.45,92.59a4,4,0,0,1,2.75,1l-.84,1.31a2.85,2.85,0,0,0-1.74-.66,1.91,1.91,0,0,0-2.11,2,2,2,0,0,0,2.05,2.17A2.45,2.45,0,0,0,40,97.86v-.55H39V95.82h2.56v4H40.1v-.2c0-.15,0-.3,0-.3h0a3,3,0,0,1-1.88.62,3.5,3.5,0,0,1-3.51-3.71A3.62,3.62,0,0,1,38.45,92.59Z" transform="translate(0.05 0.02)" fill="#fff"/><path d="M46.46,98.36H44.23l-.43,1.5H42l2.43-7.15h1.84l2.43,7.15H46.9Zm-1.12-4s-.16.78-.29,1.23L44.64,97h1.41l-.4-1.39c-.13-.45-.29-1.23-.29-1.23Z" transform="translate(0.05 0.02)" fill="#fff"/><path d="M49.5,92.71h1.75v5.65h2.92v1.5H49.5Z" transform="translate(0.05 0.02)" fill="#fff"/><path d="M14.08,65.64c0-9.88,14.4-11.16,14.4-18.76,0-3.08-2.32-5.4-5.84-5.4-4.12,0-6.28,3.84-6.28,3.84l-2.08-1.4a9.9,9.9,0,0,1,8.52-5.08c5.36,0,8.56,3.48,8.56,7.88,0,9.44-14.2,10.76-14.24,18.24H31.8v2.48H14.24A9.69,9.69,0,0,1,14.08,65.64Z" transform="translate(0.05 0.02)" fill="#fff"/><path d="M35.22,57.84,49.07,39.32h3V57.2h4v2.44h-4V75H49.31V59.64H35.22Zm14.09-.64V45.44c0-1.2.12-2.64.12-2.64h-.08A22.36,22.36,0,0,1,48,44.92l-9.37,12.2v.08Z" transform="translate(0.05 0.02)" fill="#fff"/></svg>
