<svg xmlns="http://www.w3.org/2000/svg" viewBox="0 0 100 87.15"><path d="M21.94,64.41c-.21-.27-.37-.45-.52-.49a.73.73,0,0,0-.36,0H20.9s0-.1.16-.14c.44-.15.91-.28,1-.3s.43-.18.92-.34h.21a.29.29,0,0,1-.13.13.31.31,0,0,0-.2.11c-.06,0-.06.12,0,.21a6.46,6.46,0,0,0,.44.71c.34.51,2,2.8,2.29,3.22h0l.16-4.94c0-.26,0-.35.11-.37s.18.08.38.31l3.17,3.65h0c0-.61-.11-3.06-.15-4.15a1.81,1.81,0,0,0-.08-.51c-.05-.14-.16-.23-.49-.12h-.17s0-.1.17-.14c.45-.15.81-.24.88-.27s.42-.17.7-.26h.17a.12.12,0,0,1-.09.12,1,1,0,0,0-.28.14c-.18.15-.16.51-.17,1v5.57c0,.33,0,.45-.11.48s-.17,0-.4-.32L26.22,64h0c0,.49-.14,3.84-.24,4.74,0,.4,0,.52-.15.55s-.15,0-.3-.25Z" transform="translate(0 0)" fill="#fff"/><path d="M35.26,62.29c-.27-1.33-.32-1.57-.39-1.85s-.2-.42-.4-.42a.86.86,0,0,0-.32,0L34,60s0-.09.19-.12l1.14-.2c.21,0,.72-.18,1.05-.24h.2a.12.12,0,0,1-.12.11l-.26.08c-.22.1-.26.26-.22.57s.09.52.36,1.85l.32,1.53c.17.84.31,1.53.42,1.9s.17.37.44.35h.6s0,.1-.15.12c-.57.12-1.13.2-1.36.25s-.74.18-1.09.25h-.19s0-.08.12-.1l.31-.1c.16-.07.19-.23.16-.49s-.17-1.06-.34-1.9Z" transform="translate(0 0)" fill="#fff"/><path d="M42.82,64c.07.69.2.91.38,1a1.85,1.85,0,0,0,.47,0c.1,0,.15,0,.16.06s-.08.1-.2.11h-1.1c-.17,0-.49.07-1,.1-.11,0-.19,0-.2-.07s.05-.08.14-.08A1.62,1.62,0,0,0,41.9,65c.23-.09.24-.35.19-1.12l-.32-5.25c0-.18,0-.3.09-.31s.19.1.35.25,1.57,1.45,3,2.63c.65.56,1.94,1.74,2.1,1.87h0l-.4-4c0-.54-.14-.7-.36-.77a1.29,1.29,0,0,0-.48,0c-.1,0-.14,0-.14-.07s.09-.09.22-.1l1.08-.05.86-.1c.12,0,.21,0,.21.07s0,.08-.15.09h-.27c-.24.09-.3.28-.27.77L48,64.64c0,.2,0,.28-.1.29a.55.55,0,0,1-.31-.18c-.6-.48-1.83-1.56-2.82-2.4s-2.11-1.91-2.28-2.07h0Z" transform="translate(0 0)" fill="#fff"/><path d="M53.82,63.7c0,.69,0,.93.22,1a1.4,1.4,0,0,0,.45.1c.1,0,.15,0,.15.09s-.09.08-.21.07a6.94,6.94,0,0,1-1.1-.12c-.17,0-.5,0-1-.06-.11,0-.19,0-.18-.11s.06-.06.14-.06a1.41,1.41,0,0,0,.41,0c.23,0,.29-.3.37-1.07l.53-5.23c0-.18.06-.3.14-.29s.17.13.31.3S55.4,60,56.58,61.4c.55.65,1.64,2,1.78,2.19h0l.26-4c0-.54,0-.72-.23-.82a1.28,1.28,0,0,0-.47-.1c-.1,0-.14,0-.13-.09s.1-.07.24-.06a6.26,6.26,0,0,1,1.06.12H60c.12,0,.21,0,.2.1s-.06.07-.17.06h-.26c-.26,0-.34.23-.4.72l-.58,5.58c0,.19-.06.27-.14.26a.44.44,0,0,1-.28-.22c-.52-.58-1.55-1.84-2.39-2.83S54.17,60.13,54,60h0Z" transform="translate(0 0)" fill="#fff"/><path d="M64.83,62.21c.3-1.32.35-1.56.4-1.84a.46.46,0,0,0-.26-.58,2.07,2.07,0,0,0-.33-.1c-.1,0-.15,0-.14-.11s.08-.07.21,0l.7.17.55.14,2.17.48h.53v.09c0,.09-.08.16-.2.55a3.62,3.62,0,0,1-.17.56.08.08,0,0,1-.08.08h0c-.06,0-.06-.06,0-.14a.86.86,0,0,0,0-.32c0-.17-.09-.3-.51-.44-.14,0-1-.28-1.22-.32s-.07,0-.08.08l-.49,2.19v.11s1.19.27,1.4.29h.44c.1,0,.12-.09.16-.08L68,63a6.45,6.45,0,0,0-.21.62l-.17.57c0,.07,0,.16-.11.15a.08.08,0,0,1-.06-.1h0a1.71,1.71,0,0,0,0-.32c0-.18-.09-.34-.41-.45-.16,0-1-.25-1.22-.3,0,0-.06,0-.07.08l-.16.68c-.06.3-.25,1.09-.3,1.34-.12.61,0,.77.88,1a2.38,2.38,0,0,0,.84.08c.25-.06.39-.22.53-.56a.09.09,0,0,1,.08-.11s0,0,0,0,0,.09,0,.18a7.32,7.32,0,0,1-.33.93c-.11.21-.19.2-.52.12-.65-.14-1.12-.27-1.49-.36l-.9-.23L64,66.24a3.14,3.14,0,0,1-.61-.12c-.18,0-.21-.08-.19-.08s0-.07.15,0h.32c.19,0,.27-.17.36-.42s.28-1,.46-1.84Z" transform="translate(0 0)" fill="#fff"/><path d="M73.82,65.4v.18a2.28,2.28,0,0,0,.6.31.91.91,0,0,0,.65.07A1.58,1.58,0,0,0,76,64.88,1.43,1.43,0,0,0,75.43,63l-.16-.07a2.42,2.42,0,0,0-.46-.13c-.06,0-.09,0-.12.09Zm-.75-1c.45-1.27.53-1.5.61-1.78s.07-.44-.19-.6a1.83,1.83,0,0,0-.32-.14.09.09,0,0,1-.11-.08s0,0,0,0,.08,0,.21,0l1.14.44,1.19.39a2.88,2.88,0,0,1,1.41.91,1.54,1.54,0,0,1,.16,1.35,2.46,2.46,0,0,1-1.77,1.48c.41,1.2.72,2.15,1,2.85a1.71,1.71,0,0,0,.73.9l.23.11a.09.09,0,0,1,.08.08s0,0,0,0a.18.18,0,0,1-.19,0L76.48,70a1.82,1.82,0,0,1-.84-.48,4.29,4.29,0,0,1-.71-1.64c-.17-.58-.35-1.28-.42-1.45a.14.14,0,0,0-.12-.11L73.66,66h-.09v.12c-.28.78-.51,1.44-.6,1.81s-.07.45.17.57a2.32,2.32,0,0,0,.39.18.1.1,0,0,1,.09.07s0,0,0,0a.2.2,0,0,1-.2,0c-.48-.17-1.09-.42-1.22-.46l-1-.34C71,68,71,68,71,68s.06-.06.16,0a1.65,1.65,0,0,0,.32.07c.17,0,.28-.14.4-.37s.41-1,.68-1.77Z" transform="translate(0 0)" fill="#fff"/><polygon points="40.67 26.17 40.85 25.91 40.8 26.02 40.95 25.98 40.82 26.37 41.28 26.29 41.15 26.42 41.22 26.53 41.35 26.5 41.3 26.76 40.85 26.92 40.98 26.88 41.02 27.01 40.69 27.21 41.11 27.36 41.33 27.29 41.2 27.42 40.95 27.44 40.54 27.78 41.02 27.71 41.09 27.6 41.31 27.62 42.16 27.51 42.29 27.4 42.09 27.32 42.34 27.14 42.36 26.96 41.98 26.92 42.07 26.79 41.9 26.66 42.01 26.63 41.74 26.39 41.64 26.11 41.28 25.96 41.42 25.89 41.37 25.84 41.53 25.71 41.63 25.47 41.11 25.5 41.18 25.43 41.13 25.4 41.37 25.27 41.33 25.19 40.96 25.21 40.87 25.31 40.87 25.4 40.73 25.5 40.8 25.58 40.64 25.76 40.82 25.78 40.67 26.17" fill="#fff"/><polygon points="39.62 27.23 39.51 27.31 40.41 27.12 40.52 26.57 40.71 26.43 40.58 26.22 40.34 26.26 40.3 26.17 40.25 26.28 40.25 26.2 40.1 26.22 39.95 26.37 40.08 26.39 39.97 26.5 39.71 26.48 39.6 26.57 39.73 26.63 39.6 26.7 39.64 26.78 39.84 26.81 39.62 27 39.88 26.98 39.48 27.12 39.59 27.16 39.48 27.23 39.62 27.23" fill="#fff"/><polygon points="46.33 19.9 45.85 19.77 45.82 19.81 45.89 19.85 45.76 19.81 45.82 19.88 45.48 19.86 45.73 19.88 45.59 19.92 45.73 19.96 46.26 19.94 45.89 19.99 46.65 20.07 46.94 20.03 47.16 19.88 46.7 19.86 46.75 19.81 46.44 19.86 46.48 19.79 46.39 19.77 46.33 19.9" fill="#fff"/><polygon points="45.17 19.94 45.3 20.12 45.01 19.94 44.86 19.99 44.92 20.07 44.59 19.99 44.84 19.92 44.29 19.99 44.4 20.09 44.53 20.05 44.47 20.1 44.6 20.14 44.42 20.12 44.75 20.21 44.6 20.23 44.71 20.29 45.01 20.25 44.97 20.23 45.01 20.18 45.14 20.14 45.17 20.23 45.36 20.18 45.32 20.23 45.48 20.25 44.82 20.34 44.88 20.4 45.41 20.36 45.05 20.42 45.27 20.47 44.9 20.45 44.97 20.54 45.34 20.58 45.19 20.6 45.34 20.69 45.47 20.67 45.59 20.49 45.56 20.47 45.67 20.47 45.69 20.34 45.8 20.34 45.8 20.25 46.22 20.16 45.73 20.07 45.67 19.97 45.5 20.03 45.56 19.94 45.28 19.88 45.17 19.94" fill="#fff"/><path d="M66.81,39.48a.64.64,0,0,0,.06.9.71.71,0,0,0,.14.1c.15,0,.38-.18.25-.33s-.09-.51.28-.68.73,0,1.11,0a2.14,2.14,0,0,0,1.67-.9,1.78,1.78,0,0,0,.21-1.94,1.32,1.32,0,0,0-1.81-.47h0l-.12.08c-.2.48-.07.36.23.23a1,1,0,0,1,1.2.4,1.27,1.27,0,0,1-.15,1.36,1.85,1.85,0,0,1-1.68.78,1.45,1.45,0,0,0-1.38.48" transform="translate(0 0)" fill="#fff"/><path d="M57.89,30.38c.21,0,1.8.18,1.8.18a2.81,2.81,0,0,0-.52-.62,14,14,0,0,0-1.34-1.07c-.23-.14-.32.1-.43.31a3.06,3.06,0,0,0-.14,1c0,.13.16.13.63.23" transform="translate(0 0)" fill="#fff"/><path d="M53.17,32.94c-.36-.1-.37-.06-.34,0a3.9,3.9,0,0,0,.83.56c.34.19.48.21.57.18s.3-.09,0-.39a2,2,0,0,0-1-.36" transform="translate(0 0)" fill="#fff"/><path d="M72.78,41.82a21,21,0,0,0,5.67-5.57c-.06-.38-.13-.76-.2-1.14-.8,1.63-2.4,3.57-5.56,5.85l-.36.28C72,41.84,71,44.88,71,44.88c-.1.26-.08.66.5,1.49.18.25,3.26,4.59,4,5.88q.21.34.42.72c.15-.3.28-.61.41-.91-.08-.14-.16-.26-.22-.35-.43-.69-3.69-5.25-3.69-5.25-.43-.68-.89-1.24-.82-1.55a19,19,0,0,1,1.12-3.09" transform="translate(0 0)" fill="#fff"/><path d="M17.43,58.23c-.27.22-.43.39-.46.54a.74.74,0,0,0,.06.36v.16s-.1,0-.15-.15c-.18-.42-.34-.89-.37-1s-.2-.43-.39-.9c-.08-.13-.08-.2,0-.2s.1,0,.14.12a.45.45,0,0,0,.11.19.18.18,0,0,0,.22,0,4.69,4.69,0,0,0,.68-.49c.49-.36,2.67-2.14,3.07-2.48h0l-4.94.15c-.26,0-.35,0-.38-.09s.07-.18.29-.39l3.44-3.4h0c-.61.08-3.05.31-4.13.41a2.33,2.33,0,0,0-.51.11c-.13.06-.22.18-.08.5v.17s-.1,0-.15-.16c-.18-.44-.3-.79-.33-.87s-.19-.4-.3-.67V50a.14.14,0,0,1,.13.08,1.2,1.2,0,0,0,.16.27c.16.16.52.12,1.06.1,1.19,0,4.16-.24,5.56-.34.33,0,.44,0,.48.08s0,.17-.29.42L16.92,54h0c.48,0,3.84-.11,4.74-.07.4,0,.52,0,.56.12s0,.16-.23.32Z" transform="translate(0 0)" fill="#fff"/><path d="M15.72,41c-2,.17-3.12,1.41-3,2.87.09,1,.75,2.13,3,1.94,1.84-.15,3.21-1.29,3.07-3-.05-.62-.47-2-3-1.82m.33,6a3.42,3.42,0,0,1-3.75-3v-.32c-.19-2.2,1-3.68,3-3.85a3.52,3.52,0,0,1,3.92,3v.31A3.39,3.39,0,0,1,16.53,47h-.48" transform="translate(0 0)" fill="#fff"/><path d="M15.89,35.57c.1,0,.14,0,.17-.06a1.82,1.82,0,0,0,.2-.65.88.88,0,0,0,0-.64A1.55,1.55,0,0,0,15,33.48a1.42,1.42,0,0,0-1.79.91v.16a1.77,1.77,0,0,0,0,.46c0,.07,0,.09.11.11Zm-.86.91c-1.34-.22-1.58-.26-1.86-.29s-.46,0-.57.29a1.3,1.3,0,0,0-.08.34c0,.09,0,.14-.11.13s-.06-.07,0-.21c.08-.46.2-1,.23-1.19s.14-1,.18-1.24a2.86,2.86,0,0,1,.65-1.55,1.52,1.52,0,0,1,1.3-.39,2.49,2.49,0,0,1,1.77,1.49c1.11-.61,2-1.09,2.62-1.51a1.79,1.79,0,0,0,.77-.88,1.05,1.05,0,0,0,.06-.24c0-.07.05-.11.09-.1s.08.08.06.18l-.14.84a1.62,1.62,0,0,1-.33.9,4.17,4.17,0,0,1-1.49,1c-.54.27-1.2.57-1.35.66a.19.19,0,0,0-.09.15l-.15.76s0,.07.06.08h.12c.82.14,1.51.25,1.89.27s.46,0,.54-.26a3.2,3.2,0,0,0,.1-.42q0-.1.09-.09c.06,0,.08.07.06.19-.09.51-.22,1.15-.25,1.28s-.09.72-.15,1.07c0,.12-.06.17-.12.16s-.06,0,0-.15a1.71,1.71,0,0,0,0-.32c0-.18-.19-.26-.43-.34s-1.06-.22-1.86-.36Z" transform="translate(0 0)" fill="#fff"/><path d="M18.73,28.23c1.06.42,1.63.64,1.85.53s.32-.28.57-.93c.18-.43.3-.76.16-1a1.18,1.18,0,0,0-.41-.42.1.1,0,0,1-.1-.1.06.06,0,0,1,0,0c0-.07.07,0,.17,0a7.92,7.92,0,0,1,.9.5c.16.13.18.19,0,.61-.23.6-.42,1-.58,1.39s-.29.66-.42,1a3.8,3.8,0,0,1-.18.47l-.21.58c-.06.17-.09.15-.15.13s-.05-.06,0-.16a1.09,1.09,0,0,0,.08-.31c0-.18-.13-.29-.36-.42s-1-.44-1.74-.74l-1.45-.58c-1.26-.49-1.49-.59-1.76-.68s-.45-.08-.61.17a2.1,2.1,0,0,0-.13.26c0,.1-.08.14-.13.12s-.06-.09,0-.22c.16-.38.39-.89.48-1.12s.29-.81.42-1.13c0-.12.08-.17.14-.14s.06.08,0,.17a3.38,3.38,0,0,0-.11.34c0,.24.07.36.35.49s.49.21,1.75.71Z" transform="translate(0 0)" fill="#fff"/><path d="M21.13,22.16c.77.54,1.33.93,1.48,1a1.9,1.9,0,0,0,.6.31c.21,0,.56-.17,1-.75a2.8,2.8,0,0,0,.65-2,2.8,2.8,0,0,0-1.37-1.89,3.08,3.08,0,0,0-2.31-.59A3.54,3.54,0,0,0,19,19.78a3.2,3.2,0,0,0-.29.51.16.16,0,0,0,.09.19c.24.18.87.63,1.45,1Zm-1.44.34c-1.1-.78-1.31-.92-1.55-1.07s-.41-.19-.63,0a1.44,1.44,0,0,0-.22.27c-.06.08-.11.11-.16.07s0-.09.05-.2c.27-.39.62-.83.76-1s.46-.7.77-1.13c.64-.91,1.5-2.12,2.88-2.33a3.2,3.2,0,0,1,2.34.6,3.54,3.54,0,0,1,1.47,2.22,4.11,4.11,0,0,1-.86,3c-.19.26-.42.54-.64.8s-.41.5-.54.68l-.29.42c-.12.17-.24.36-.34.51s-.12.13-.17.1,0-.08,0-.16a1.56,1.56,0,0,0,.16-.28c.07-.17-.06-.32-.25-.5s-.86-.65-1.52-1.12Z" transform="translate(0 0)" fill="#fff"/><path d="M28.34,10.26,27.27,11c-.41.31-.56.47-.56.71a1.27,1.27,0,0,0,.05.34v.14a.19.19,0,0,1-.14-.07,8.12,8.12,0,0,1-.43-.95c-.05-.11-.06-.17,0-.2a1,1,0,0,0,.37-.13,7.39,7.39,0,0,0,.76-.47l2.89-2A4,4,0,0,0,30.66,8l.17-.17c.05,0,.09,0,.16.11l.57.86c.13.19.06.14,0,.17s-.1,0-.19-.09l-.06-.08c-.15-.18-.48-.25-1.14.19l-.94.61,2.08,3a18.91,18.91,0,0,0,1.12,1.54c.16.19.32.32.55.19a2.3,2.3,0,0,0,.4-.23q.12-.08.15,0a.18.18,0,0,1-.08.17L32.3,15c-.16.12-.61.46-.9.66-.1.07-.16.08-.2,0s0-.08.08-.14a1.21,1.21,0,0,0,.24-.21c.13-.13.06-.32-.06-.55s-.58-.91-1.05-1.58Z" transform="translate(0 0)" fill="#fff"/><path d="M36.35,8.91c0,.1.06.12.13.12a2.13,2.13,0,0,0,.66-.16c.33-.14.42-.21.53-.38a1.57,1.57,0,0,0,0-1.43A1.42,1.42,0,0,0,36,6h-.2a3.42,3.42,0,0,0-.43.21V6.4Zm-1.24-.26c-.5-1.25-.59-1.48-.71-1.74s-.25-.38-.55-.33a2.13,2.13,0,0,0-.33.11h-.17s0-.1.15-.15l1.15-.43,1.15-.49a3,3,0,0,1,1.66-.25,1.59,1.59,0,0,1,1,.91,2.48,2.48,0,0,1-.35,2.28c1.1.63,2,1.14,2.66,1.46a1.84,1.84,0,0,0,1.15.19l.24-.07h.12a.16.16,0,0,1-.12.14l-.79.32a1.81,1.81,0,0,1-.94.19A4.4,4.4,0,0,1,38.82,10c-.51-.32-1.11-.73-1.27-.81a.17.17,0,0,0-.17,0l-.72.27s-.06,0,0,.09v.12c.31.76.57,1.42.75,1.75s.24.39.5.32a3.38,3.38,0,0,0,.42-.13h.13a.17.17,0,0,1-.14.15c-.47.19-1.1.41-1.22.46l-1,.43h-.19a.14.14,0,0,1,.1-.12,1.59,1.59,0,0,0,.29-.15c.15-.1.12-.3.05-.55-.19-.6-.41-1.2-.66-1.78Z" transform="translate(0 0)" fill="#fff"/><path d="M45.13,7.16V7.1L44,5S44,5,43.94,5s0,.06,0,.09l-.47,2.29s0,.06.05,0Zm-1.72.72a.08.08,0,0,0-.07.08l-.27,1.33a1.75,1.75,0,0,0,0,.56c0,.16.12.26.39.22h.28s0,.1-.14.12a4.94,4.94,0,0,0-.93.12l-1,.19c-.12,0-.17,0-.18-.07s0-.07.09-.08l.27-.06c.4-.12.52-.44.62-.91l1.26-5.84c.06-.27.1-.38.19-.39s.14.06.26.25c.29.45,2.25,3.81,3,5,.46.74.73.82.92.84h.38c.07,0,.11,0,.12.06s-.06.1-.39.15l-1.66.24h-.28s0-.07.11-.1a.14.14,0,0,0,.06-.19h0l-1-1.75a.09.09,0,0,0-.1,0Z" transform="translate(0 0)" fill="#fff"/><path d="M48.94,3.67c-.18-.5-.33-.61-.65-.71A1,1,0,0,0,48,3c-.08,0-.1,0-.1-.08s.1-.08.23-.07l1.29.08h1.09c.11,0,.2,0,.2.09S50.6,3,50.52,3a.65.65,0,0,0-.34,0,.22.22,0,0,0-.1.18,2.33,2.33,0,0,0,.17.69L51.6,8h0C52,7,53.3,4.28,53.54,3.7a1.39,1.39,0,0,0,.1-.33.18.18,0,0,0-.11-.17,1.13,1.13,0,0,0-.36-.06c-.08,0-.15,0-.14-.08s.08-.08.25-.08c.44,0,.81.07.93.07h.84c.11,0,.18,0,.18.09s-.06.08-.15.07a.85.85,0,0,0-.44.09c-.12.08-.26.22-.52.78-.38.82-.64,1.29-1.17,2.36-.63,1.27-1.08,2.22-1.3,2.65s-.31.65-.44.64-.16-.13-.31-.55Z" transform="translate(0 0)" fill="#fff"/><path d="M57.37,6.22c.34-1.3.4-1.54.45-1.82a.48.48,0,0,0-.24-.59,1.42,1.42,0,0,0-.33-.11c-.09,0-.14-.06-.13-.12s.08-.06.21,0l.7.19.54.16,2.15.55h.53v.09c0,.09-.08.15-.21.54a3.69,3.69,0,0,1-.19.56c0,.1-.05.09-.11.07s-.07-.06-.05-.14a.86.86,0,0,0,0-.32c0-.17-.08-.3-.5-.46-.14-.06-1-.31-1.21-.35s-.07,0-.08.07l-.5,2.19v.11l1.38.34h.45c.1,0,.12-.09.17-.07s0,0,0,.08-.08.18-.23.61c-.05.17-.17.51-.19.57s0,.16-.11.14-.07,0-.06-.1a1.61,1.61,0,0,0,0-.31c0-.19-.08-.35-.39-.46s-1-.29-1.22-.35c0,0-.06,0-.07.08L58.06,8c-.07.29-.28,1.08-.34,1.33-.14.6,0,.76.85,1a2.35,2.35,0,0,0,.83.11c.25,0,.4-.2.55-.54a.11.11,0,0,1,.11-.11h0c.06,0,.05.09,0,.18a8,8,0,0,1-.36.92c-.12.21-.19.19-.52.11-.65-.17-1.12-.31-1.48-.41l-.89-.26-.49-.12-.6-.13c-.11,0-.17-.07-.15-.13s0-.06.15,0a.86.86,0,0,0,.32,0c.18,0,.27-.17.37-.41.22-.6.41-1.22.57-1.84Z" transform="translate(0 0)" fill="#fff"/><path d="M64.21,10.22c-.49,1-.75,1.58-.65,1.8s.26.34.89.64c.42.2.74.35,1,.22a1,1,0,0,0,.44-.38.09.09,0,0,1,.09-.09l0,0c.06,0,0,.07,0,.16a5.61,5.61,0,0,1-.56.87c-.13.15-.19.17-.61,0s-1-.49-1.34-.67-.64-.33-1-.49a3.82,3.82,0,0,1-.46-.21l-.56-.25a.13.13,0,0,1-.13-.11.09.09,0,0,1,0-.05c0-.06.06,0,.16,0a1.82,1.82,0,0,0,.3.11c.18,0,.3-.11.45-.33s.5-1,.85-1.69l.67-1.41c.59-1.22.69-1.44.8-1.71s.11-.44-.13-.62a1.28,1.28,0,0,0-.25-.15.11.11,0,0,1-.11-.09.09.09,0,0,1,0,0c0-.06.09,0,.21,0,.38.18.87.45,1.09.55l1.1.5c.11,0,.16.09.13.15s-.08,0-.18,0a1.27,1.27,0,0,0-.32-.13c-.24-.06-.36,0-.51.31s-.25.48-.83,1.7Z" transform="translate(0 0)" fill="#fff"/><path d="M73.16,16.15h.07L74.14,14V14h-.09L72,15V15Zm-1.63-.9h-.1l-1.22.6a1.82,1.82,0,0,0-.47.31c-.11.11-.12.25.08.44l.09.09c.08.07.09.1,0,.14s-.1,0-.17,0l-.67-.67c-.07-.06-.45-.37-.79-.69-.08-.07-.11-.13-.06-.18s.07,0,.13,0a.91.91,0,0,0,.21.18c.34.23.67.13,1.1-.08l5.43-2.57c.25-.12.36-.15.42-.09s0,.15,0,.36c-.17.5-1.6,4.13-2.1,5.5-.3.82-.19,1.09-.08,1.25a1.6,1.6,0,0,0,.25.27c0,.05.07.09,0,.14s-.12,0-.36-.22L72,18.88c-.11-.12-.19-.19-.14-.24s.07,0,.14,0a.15.15,0,0,0,.2-.08h0l.8-1.85a.09.09,0,0,0,0-.1Z" transform="translate(0 0)" fill="#fff"/><path d="M78.7,17.29a1.34,1.34,0,0,0,.36-.62,1.06,1.06,0,0,0-.12-.34c0-.07-.07-.12,0-.16s.1,0,.17.12c.25.39.49.82.53.88s.28.39.55.82c.07.11.08.17,0,.2s-.1,0-.15-.09-.08-.14-.15-.17-.13,0-.22,0a8.36,8.36,0,0,0-.58.61c-.42.44-2.24,2.58-2.58,3h0l4.83-1c.26-.06.35-.05.39,0s0,.19-.22.44l-2.78,4h0c.59-.18,3-.84,4-1.13a2.13,2.13,0,0,0,.49-.21c.11-.07.18-.21,0-.5,0-.07-.06-.14,0-.17s.1,0,.17.13c.26.4.43.73.48.79s.26.37.42.61c0,.08.07.15,0,.18s-.1,0-.14-.06a.91.91,0,0,0-.2-.24c-.19-.14-.54,0-1.07.08-1.16.26-4,1-5.4,1.34-.32.08-.43.1-.5,0s0-.17.22-.46l2.8-4h0c-.47.1-3.76.79-4.66.91-.39.05-.51.07-.57,0s0-.15.17-.35Z" transform="translate(0 0)" fill="#fff"/><path d="M82.24,30.88l1.85-1.42s.08,0,.07-.07-.06,0-.1,0l-2.33-.12s-.06,0,0,.05Zm-1.07-1.6h-.09l-1.36-.08a1.75,1.75,0,0,0-.56,0c-.15.05-.24.16-.15.42v.27a.14.14,0,0,1-.13-.11c-.08-.28-.17-.65-.26-.91,0-.09-.2-.55-.34-1v-.19a.11.11,0,0,1,.1.08,2,2,0,0,0,.1.26c.17.37.51.44,1,.48l6,.46c.28,0,.38,0,.41.13s0,.15-.2.3c-.4.34-3.44,2.79-4.56,3.73-.66.56-.7.85-.69,1a.65.65,0,0,0,.08.37v.13s-.11,0-.21-.37-.29-.92-.49-1.6c0-.16-.07-.26,0-.28s.08,0,.12.1a.13.13,0,0,0,.18,0h0l1.59-1.24a.11.11,0,0,0,0-.11Z" transform="translate(0 0)" fill="#fff"/><path d="M84.06,36.86c-.1,0-.13,0-.15.09a2.58,2.58,0,0,0,0,.68.92.92,0,0,0,.21.62,1.56,1.56,0,0,0,1.37.41A1.47,1.47,0,0,0,87,37.23a1.32,1.32,0,0,0-.08-.52c0-.06-.06-.08-.13-.07Zm.62-1.11c1.34-.11,1.59-.13,1.87-.17s.44-.12.48-.42a2,2,0,0,0,0-.35c0-.09,0-.15.07-.15s.09.05.1.18a5.38,5.38,0,0,0,.07,1.2,10.38,10.38,0,0,1,.13,1.25A2.88,2.88,0,0,1,87.15,39a1.55,1.55,0,0,1-1.17.7,2.53,2.53,0,0,1-2.08-1c-.92.87-1.66,1.54-2.17,2.11a1.83,1.83,0,0,0-.52,1V42c0,.07,0,.11-.06.11s-.15,0-.15-.1v-.87a1.89,1.89,0,0,1,.09-1,4.36,4.36,0,0,1,1.21-1.32c.45-.39,1-.85,1.15-1a.25.25,0,0,0,0-.17v-.77a.07.07,0,0,0-.07-.07h-.13c-.82.06-1.52.12-1.89.19s-.45.12-.46.39a3.23,3.23,0,0,0,0,.44c0,.07,0,.1-.06.11s-.1-.06-.11-.17c0-.52-.07-1.17-.07-1.31s-.09-.72-.12-1.07c0-.12,0-.18.07-.19s.08,0,.09.14a1.55,1.55,0,0,0,.06.31c0,.18.25.2.51.22a12,12,0,0,0,1.89-.11Z" transform="translate(0 0)" fill="#fff"/><path d="M83.72,44.88c-.92-.17-1.6-.28-1.77-.3a1.94,1.94,0,0,0-.68,0c-.19.09-.43.39-.55,1.09a2.46,2.46,0,0,0,1.58,3.1h0a2.78,2.78,0,0,0,.7.12,3,3,0,0,0,2.34-.46,3.48,3.48,0,0,0,1.31-2.33,2.72,2.72,0,0,0,0-.57c0-.09-.06-.12-.15-.14L84.83,45ZM84.88,44c1.33.24,1.57.28,1.86.31s.45,0,.56-.29a2,2,0,0,0,.09-.33c0-.1,0-.15.1-.14s.07.08.05.21c-.08.46-.21,1-.25,1.25s-.12.83-.21,1.36c-.19,1.09-.45,2.55-1.62,3.33a3.15,3.15,0,0,1-2.37.46,3.55,3.55,0,0,1-2.27-1.39,4.05,4.05,0,0,1-.52-3.11c.06-.32.15-.67.23-1s.17-.63.21-.85a4.29,4.29,0,0,0,.07-.5,3.31,3.31,0,0,1,.09-.6c0-.17.06-.17.12-.16s.07,0,0,.15A.86.86,0,0,0,81,43c0,.18.19.26.43.34a16.54,16.54,0,0,0,1.86.37Z" transform="translate(0 0)" fill="#fff"/><path d="M79,51.32c.11-.11.16-.11.34,0a7.23,7.23,0,0,1,1,.51c.08.07.2.12.17.19s-.11,0-.17,0a1.74,1.74,0,0,0-.45-.11,1.24,1.24,0,0,0-1.33.81A1.09,1.09,0,0,0,79,54.19h0A1.72,1.72,0,0,0,80.65,54l.45-.25a2.67,2.67,0,0,1,2.46-.37,1.77,1.77,0,0,1,.8,2.4h0a.61.61,0,0,1-.07.14,4.25,4.25,0,0,1-.61,1c0,.06-.09.09-.15.07s-.33-.18-1-.46c-.18-.08-.24-.13-.21-.19s.09-.06.18,0a1.18,1.18,0,0,0,1.42-.72,1,1,0,0,0-.34-1.29H83.5c-.38-.16-.75-.1-1.55.36l-.27.15c-1.17.67-1.89.77-2.66.44a1.8,1.8,0,0,1-1-1.39,2.65,2.65,0,0,1,.23-1.44,3,3,0,0,1,.73-1.1" transform="translate(0 0)" fill="#fff"/><path d="M17.24,63.32a39.81,39.81,0,1,1,65.49-.2l.66.31a40.54,40.54,0,1,0-66.79.19l.66-.3" transform="translate(0 0)" fill="#fff"/><path d="M74.88,71.57a39.73,39.73,0,0,1-49.67.22l-.78.29a40.43,40.43,0,0,0,51.23-.22l-.78-.29" transform="translate(0 0)" fill="#fff"/><path d="M94,85.14a68.29,68.29,0,0,0-20.34-6.35l.35-.21a35.49,35.49,0,0,1,6.85-2.48l2-.6.29-.09h0l.2-.45,1.74-4.12A61.74,61.74,0,0,1,98,76l-8.3,1.22s3.4,6.27,4.3,7.88M76.23,72.42c.48.18.93.36,1.38.55l.79.33A39.75,39.75,0,0,1,82,75l-1.29.38c-1.48.43-3.13.91-4.61,1.47A16.46,16.46,0,0,0,73.71,78l2.55-5.51M50,66.6c-10,0-20.29,3.16-26,5.32h0a55.53,55.53,0,0,0-6.61,2.92c-.29-.72-3.54-8.78-3.76-9.3a80.65,80.65,0,0,1,36.28-9.19,79.25,79.25,0,0,1,36.76,9.12c-.11.26-1,2.37-1.91,4.5l-.12.28-1.85,4.33A49.81,49.81,0,0,0,77,71.89l-.7-.28h0L76,71.49h0A78.46,78.46,0,0,0,50,66.6M26.34,78.17a9.4,9.4,0,0,0-1-.51l-.21-.09L25,77.5a49,49,0,0,0-5.53-1.83l-1.37-.4q2.82-1.41,5.78-2.54c.21.48,1.77,3.88,2.48,5.44M6,85.36l4.16-7.83L2,76.28A62.07,62.07,0,0,1,15,71l1.7,4.2.18.45h.28l2.08.62c2.35.66,5.44,1.55,7.09,2.63A67.7,67.7,0,0,0,6,85.36m94-8.87L99.2,76a58.14,58.14,0,0,0-13.8-5.81l2.1-5L87.24,65a78.88,78.88,0,0,0-37.4-9.4,81,81,0,0,0-36.91,9.45l-.26.15,2.05,5.09A58.19,58.19,0,0,0,.79,76.18L0,76.7l9.06,1.39L4.24,87.15l1.07-.61A65.63,65.63,0,0,1,27.18,79.6l.57-.08-3.22-7c5.66-2.11,15.75-5.15,25.45-5.15a77.09,77.09,0,0,1,25.58,4.84l-3,6.61h0l-.25.54.55.08a65.68,65.68,0,0,1,21.88,6.94l1.08.62-4.94-9.13L100,76.49" transform="translate(0 0)" fill="#fff"/><polygon points="85.47 76.9 85.09 77.95 84.72 76.9 84.3 76.9 84.3 78.37 84.57 78.37 84.57 77.19 84.97 78.37 85.21 78.37 85.61 77.19 85.61 78.37 85.88 78.37 85.88 76.9 85.47 76.9" fill="#fff"/><polygon points="82.81 77.15 83.28 77.15 83.28 78.37 83.57 78.37 83.57 77.15 84.05 77.15 84.05 76.9 82.81 76.9 82.81 77.15" fill="#fff"/><path d="M81.31,78.39h0a.43.43,0,0,1-.14.23.34.34,0,0,1-.24.07.39.39,0,0,1-.35-.16.69.69,0,0,1-.12-.42.75.75,0,0,1,.07-.33.39.39,0,0,1,.38-.23.37.37,0,0,1,.28.1.38.38,0,0,1,.11.23h.28a.61.61,0,0,0-.32-.51,1,1,0,0,0-.38-.08.65.65,0,0,0-.54.24.88.88,0,0,0-.21.6.81.81,0,0,0,.23.61.73.73,0,0,0,.56.23.77.77,0,0,0,.44-.14.66.66,0,0,0,.23-.42h-.27Z" transform="translate(0 0)" fill="#fff"/><path d="M80.86,79.33A1.1,1.1,0,0,1,80,79a1.17,1.17,0,1,1,1.61,0,1.2,1.2,0,0,1-.79.33m0-2.59a1.42,1.42,0,1,0,1,.41,1.34,1.34,0,0,0-1-.41" transform="translate(0 0)" fill="#fff"/><path d="M59,67.6A28.34,28.34,0,0,1,49.91,69,28.7,28.7,0,0,1,41,67.65l-1.47.23a29.14,29.14,0,0,0,21-.06L59,67.6" transform="translate(0 0)" fill="#fff"/><path d="M28.34,59.19A28.52,28.52,0,1,1,71.58,59l.76.22a29.22,29.22,0,1,0-44.75.13l.75-.22" transform="translate(0 0)" fill="#fff"/><path d="M25.68,36.54a17.47,17.47,0,0,1,5.67-12.91l.14.29h0V24l-.23.07-.09.12v.23l.11.05-.08.08.13.11h.09l-.12.06.07.07h-.06l.28.11-.15.06h.63L32,25l.16.06-.09.11h.46l-.09-.11h.18l.31-.35v-.18l-.07-.06.28-.09-.08-.05h.15v-.08l.22-.05-.11-.08h.17V24h.17l-.15-.15.05-.06h.19l.11,0-.06-.07h.42v-.09h.08l.09-.13h.13l-.17.1h.09v-.07h.24l.09-.14H35l.31-.19.15-.18.28-.09-.06-.15.13.15h.29l.11-.08.76-.07,1-.41h-.64l-.55.09.31-.09H36.8v-.1l.57-.07L37,22.13V22h0l.53.13.18.22h.17V22.3l.16.09,0-.14.12-.13-.19.05.15-.11h-.24L38,22l-.37-.13-.2.09v-.09l.17-.06H37.2l.39-.08-.35-.07h.18l.39-.15.29.15.39-.08,0-.09-.36-.11.11-.06h.55l-.35-.05.09-.09H38.4l.18-.06L38.34,21l.44.09L39,21,38.74,21h-.09l-.15-.11.87-.07v-.16h-.06L39,20.48l-.24.06.26-.19h0l.42-.12h-.15l.1-.11L39.7,20l-.49.08V20l.77-.11h-.9l1.16-.06h0l.51-.09-.54-.16h0a.62.62,0,0,1-.27-.09.68.68,0,0,0-.24-.08A18,18,0,0,1,43.21,19a17.53,17.53,0,0,1,10.14,3.2l-1,.39-.06.17-.2.1-.41-.22.31-.1-.07-.11-.68-.12.2.09v.27l.17.09v.32l-.44-.19-.45.26.29.31H50.4v-.06l-.33-.11v.15h.27l.12.17h-.15l-.66-.2v-.11l-.13-.12v-.15L49,22.79l1.49.27.44-.2v-.09l-.1-.15-1.17-.4h-.61l-.18-.07h.2L48.79,22v.07h-.41l.06-.06L48.18,22l.46-.08-.38-.11-.23.1h0l.11-.05H48l-.09.17h-.09v-.14l-.26.22.12-.21h-.17l-.31.26-.38-.1.11.15L46.64,22l-.22.18V22l-.11.12v-.09h-.09v.07l.09.08-.31-.1-.13.13v.08l-.23.05h0v.09h-.11l-.13.15h-.13l-.26.2V23l-.18.09H45l-.15.05v.07l-.07-.05v.08h0l-.2.07h.07l-.07.07h-.11l-.26.2.09.09-.57.17h-.13l.13.09H43.4V24h-.31l.28.08-.3.05h.06l-.06.15.32-.07h.1L43.6,24v.09h.07l-.16.11H43.1v.09h.11l-.13.09h.09v.11l.18-.19h.16l-.29.21h.13l-.26.09h.26l-.2.22.27.11V25h.23l.43-.31h.14v-.21l.06.06v.09h.11v.18l.17.18v.15l.24.24-.09.09L45,26v.05h.3l.07-.2h.35l.15-.39v-.25h-.12l.53-.21h-.15l.2-.14L46,24.59l-.06.05V24l.21-.12.68-.41-.1-.11.06-.14.13-.06-.06-.06.46-.05.28.13.07.14h-.18l-.61.5-.13.11.17.33-.06.24.33.09.1.11h-.06l1.05-.22h.22v.11l.39.11-.48.06-.06.09-.48-.08L47.4,25l.05.24h.19v.42l-.39-.24-.18.06-.15.24.08.55h-.13l.09-.2-.33.39-.19.05V26.4H46l-.74.3L45,26.44h-.13l-.44.14.08-.11h-.24l-.11-.14V26l.29-.17-.18-.09.09-.33-.5.24V26l.13.08v.13l.07.1-.06.09.09.15H44v.15l-.23-.14-.16.1.11.07h-.48V27h-.07v-.15l-.22.3.19,0-.35.13-.19.07-.22.06v.22l-.34.15.06.09h-.39l-.2-.11.1.33-.48-.06-.32.09.06.22.64.19h-.09v.13l.22.15.09.33-.07-.08-.13.59-.13.07-1.58-.09-.31.22.15.22-.06.15v.27l-.26.69.19.07-.08.48.39-.06H40l.28.31.31-.18h.6l.58-.59-.1-.22.31-.46.59-.31v-.44l.22-.09h.26l.27.1.35-.24.32-.19.34.15.26.5,1.14.71.17.41-.13.18.09.09.28-.35V31l-.15-.1.06-.18.11-.07.31.22v-.07l-.13-.2-.53-.22v-.16h-.2l-.13-.09-.31-.46-.28-.17v-.38l.35-.06v.21l.19-.13.37.55H46l.18.12h-.13l.59.35h.07v.42l.22.24.25.22h-.09l.13.16h.39l.36.23V31.3L47.61,31h.11v-.11l.1.05-.19-.25v-.18l.24.2v-.09l.15.09V30.6l.13.07L48,30.55l.18-.1.44.06h.2l-.14.18.33-.27h.35v-.08l-.33.07L49,30.3l-.15-.18.26-.41v-.22l.14-.11v-.16l.19-.22-.08-.09.09.05.34-.2.09.11h-.09l.47.06-.25.2.22.07v.19h.15l.35-.22h.24V29h-.43L50.29,29h.11l.21.14V29l.17-.17.79-.2v.06l-.18.12h-.18l.2.19-.42.28L52.3,30l.13.24v.15l-.27.18h-.57l-.46-.11-.35-.24h-.44l-.55.31-.5-.08v.11l.16.06-.79.09-.09.13V31h.18v.27l.09.08-.18-.08v.13l.22.08.08.33h.25L49,32l.3-.06.35.2.27-.22.51.28.45-.26L51,32l.12-.09v.68l-.22.52-.22.57-.28.07-.25-.07-.09-.09h-.32l-.46.22-1-.27-.53-.17-.09-.16h-.51l-.26.22v.44l-.26.13-.35-.22-.49-.13-.17-.31-1-.26-.38-.26.35-.4-.17-.3.13-.27L44.4,32l-.2-.16-.26.11h-1L42,32l-.88.46h-.61l-.25-.23h-.13l-.26.52-.68.51-.2.37V34l-.11.17-.09.13L38,34.8,37.9,35l-.28.22-.11.33-.57.9-.09.37.2.22-.09.31.11.28-.17.77-.11.29-.18.13.27.37-.07.17v.2l.24.24.28-.08-.17.08.11.24.5.58.09.39.4.29.59.59.5.22.77-.22h.48l.31.13.9-.44.2-.06h.65l.2.16.13.13V42l.22.19.6-.17.17.2h.18l.08.24-.06.35-.11.29.06.08-.06.14.15.11h-.17v.21l-.13.11.15.37.52.66.25.35.08.23v.13l.25.65-.05.29.18.59v.38l-.35.48L44.74,49v.26l.74,1.4v.51l.2,1,.35.4.36,1.07a17.81,17.81,0,0,1-2.3.27l-.44-.61c-1.93-2.62-1.43-3-2.28-3.63S39,47.52,38.44,47s-1.07-.75-1.5.22.19,2.34.86,3.31.92,1.31.81,1.91c-.08.41-.69.72-.69.72s-2.31-1-3.22-1.41l-.45-.17c-.29-.18-.58-.35-.85-.54-.51-.49-1.95-1.69-2.26-1.89s-.55-.81-1.4-1.45l-.07-.05a17.46,17.46,0,0,1-4-11.15m13.9-17.15.12.33-.4-.27.28-.06M52.29,36.5l.07.42a.67.67,0,0,0-.26.45,1,1,0,0,0,0,.42l-.24-.21-.19-1-.35-.35V36h.07l-.16-.17-.52-1.11-.22-.3L50.35,34l.45.7h.09l.11-.46h0l-.06.43h.15l.68,1.17L52,36Zm.31,2.22h0v.09l-.21-.49.06.08a1.34,1.34,0,0,1,.22.36M52.3,49l.43-.48.05-1.63-.14-.13-.11-.35v-.57l-.18-.26L52.5,45l.3-.61.33-.35.29-.46.23-.18.59.06h.25a14.7,14.7,0,0,1,1.22,1.81,17.86,17.86,0,0,1,.7,2.4,1.09,1.09,0,0,0,.07.24c-.34.39-.69.77-1.07,1.13l-.17-.72V48l.09.15.09-.15-.13-.77L55.11,47H55v.27l-.16.17h-.09v.18h-.09l.09.09-.17.11V48L54.47,48l-.11.11v.14l-.14-.11-.47.17-.16.4.15.74-.39.66v.73a17.17,17.17,0,0,1-3.06,1.75l.17-.66h-.11l.09-.13.56-.24.18-.22.06-.63L51,50.19V50l.78-.74Zm-24.81-2.1c-.74.42-.4.81.2,1.86a21.46,21.46,0,0,0,2,2.82c.8,1,1.84,2.05,2.32,2.69s1.32,2.61,2.6,3l.47.17,1.09-.22c-.75-.28-1.32-.47-1.39-.49-.77-.26-1.43-1.38-1.87-2.12a6.46,6.46,0,0,0-.44-.71c-.25-.33-.61-.73-1-1.19s-.91-1-1.31-1.51l-.37-.46a17.52,17.52,0,0,1-1.62-2.29L28,48.21a4.57,4.57,0,0,1-.35-.7l.13-.08c.3-.17.58,0,1.38.59l.23.17a4.51,4.51,0,0,1,.92.93,2.42,2.42,0,0,0,.51.55c.28.18,1.83,1.47,2.25,1.88a1.66,1.66,0,0,0,.85.55l.56.22s3.13,1.22,3.15,1.29c-.27.28-.33.64-.07.44.46-.35,1.91-1.07,1.66-1.83a6.82,6.82,0,0,0-1-2,4.68,4.68,0,0,1-1-2.18,1.49,1.49,0,0,1,.1-.55c.32-.52.61-.26.84,0s.47.6.76.91a15.72,15.72,0,0,0,1.92,1.82c.32.24.31.36.56.83a11.77,11.77,0,0,0,1.45,2.47c.88,1.21,1.46,2.08,1.84,2.72h.71c-.22-.38-.49-.82-.86-1.36a20.9,20.9,0,0,0,2.36-.32s.86,1,1.27,1.57h.66a10.75,10.75,0,0,0-1.31-1.69,18.26,18.26,0,0,0,9.26-5.54,19.76,19.76,0,0,0,1.26,2,6.74,6.74,0,0,1,1.19,2.71A16.52,16.52,0,0,1,59,56l-.39.39-.18.18.87.1a16.21,16.21,0,0,1,9-4.4c.64-.1,1.2-.15,1.61-.18h.51a1.46,1.46,0,0,0-.28-.2,3.18,3.18,0,0,0-1.15,0,19.9,19.9,0,0,0-9.45,3.65,14.63,14.63,0,0,0,.19-1.75v-.45a8,8,0,0,0-1.42-3,10.94,10.94,0,0,1-1.55-2.9c-.15-1,0-1.1-.25-1.56a17,17,0,0,0-1.11-2.11c1,0,3.58.12,4,.15s2.16.23,3.06.23c1.23,0,2-.25,2.78-2.14a1.75,1.75,0,0,0,.73.56c.54.25,1.63-.32,2-.55.77-.41,3-1.74,3.56-2.88A3.76,3.76,0,0,0,71.16,35c-.91-.93-2.53,0-2.65,0s-.19.14-.09.4.13.11.34,0,1.59-.59,2.09.07A3.16,3.16,0,0,1,71,38.63a5.93,5.93,0,0,1-2.6,2.5c-1,.62-1.9,1-2.22.82a1.35,1.35,0,0,1-.83-1.44c0-.12-.19-.11-.3.09a21.94,21.94,0,0,1-1,2c-.31.47-.77.87-2.19.82-1.58,0-2.69-.15-3.39-.2s-4.8,0-5.83-.34a1.26,1.26,0,0,1-.68-1A1.74,1.74,0,0,1,52.64,40a1.43,1.43,0,0,0,.57-1c0-.33-.66-.77-.73-1a1,1,0,0,1,.14-.65c.14-.24,2.28.11,2.34-.11S52.88,36,52.8,35.81A1.06,1.06,0,0,1,53,35c.1-.19.55-1.44.55-1.44L52.76,33c-.57-.39-.51-.6-.51-.73a.8.8,0,0,1,.11-.5c.31-.43,2.92-1.53,3.55-2.2S57,28.48,57,27.86a6.39,6.39,0,0,1,1.56.95l.66.48a.91.91,0,0,0,.16.11,23.57,23.57,0,0,0-2.09-2.15,1.47,1.47,0,0,1-.41-1.09.49.49,0,0,1,0-.17,1.71,1.71,0,0,1,.3-.5c.21-.25,5-6.07,11.34-4.61A21.23,21.23,0,0,1,72,22c-.38-.45-.76-.87-1.16-1.29-.62-.2-1.27-.38-2-.54-6-1.36-10.54,3.16-11.74,4.51a18.28,18.28,0,0,0-7.66-5.3L49,19.2a19.42,19.42,0,0,0-3.53-.81h-.41c-.62-.06-1.24-.1-1.88-.1a18.25,18.25,0,0,0-6.33,1.13l-.45.17A18.34,18.34,0,0,0,25.15,33.67c0,.18-.06.36-.08.55a18,18,0,0,0-.15,2.32,18.19,18.19,0,0,0,3.14,10.25,1,1,0,0,0-.57.15" transform="translate(0 0)" fill="#fff"/><path d="M37.73,70.8s-.15-.2-.13-.24a2.82,2.82,0,0,1,2.55-.75,1.93,1.93,0,0,1,1.16,2.47v.11a4.23,4.23,0,0,1-2.11,2.12c-.79.49-1.19.7-1.84,1.07v.08c.41.19,1.82.68,2.36.83.21.06.48,0,1.15-.7a.39.39,0,0,1,.21.17A7.57,7.57,0,0,1,40,77.36a1.82,1.82,0,0,1-.52-.08c-.82-.25-2-.7-3-1-.21-.07-.45-.12-.58-.15a.41.41,0,0,1,0-.22,13.81,13.81,0,0,0,2.57-1.45,4.27,4.27,0,0,0,1.76-2.08,1.38,1.38,0,0,0-.62-1.85l-.19-.08A2,2,0,0,0,37.73,70.8Z" transform="translate(0 0)" fill="#fff"/><path d="M48.12,72a4.2,4.2,0,0,1,.51,3,4.36,4.36,0,0,1-1.47,3.24,2,2,0,0,1-1.43.4A2,2,0,0,1,44.45,78a4.18,4.18,0,0,1-.66-3.24,4.54,4.54,0,0,1,1.21-3,2.31,2.31,0,0,1,1.79-.61A1.76,1.76,0,0,1,48.12,72Zm-2.38-.14a4.64,4.64,0,0,0-.89,2.54c-.26,2.4.13,3.71,1.14,3.82a.89.89,0,0,0,.68-.2,5,5,0,0,0,.9-2.84c.25-2.25-.19-3.51-1.09-3.61a.92.92,0,0,0-.74.25Z" transform="translate(0 0)" fill="#fff"/><path d="M51.33,73s-.21-.12-.21-.17a2.84,2.84,0,0,1,2.05-1.69,1.94,1.94,0,0,1,2,1.82l0,.1a4.27,4.27,0,0,1-1.11,2.78c-.54.76-.82,1.11-1.27,1.71l0,.07c.45,0,1.94-.09,2.49-.16.22,0,.45-.19.79-1.1a.42.42,0,0,1,.26.08A7.84,7.84,0,0,1,56,78.18a1.91,1.91,0,0,1-.51.13c-.86.1-2.12.14-3.16.26-.22,0-.46.07-.59.09a.5.5,0,0,1-.08-.2,14,14,0,0,0,1.79-2.34,4.29,4.29,0,0,0,.8-2.61,1.38,1.38,0,0,0-1.29-1.46h-.21A2,2,0,0,0,51.33,73Z" transform="translate(0 0)" fill="#fff"/><path d="M61.38,70.09A4.2,4.2,0,0,1,63,72.65a4.37,4.37,0,0,1-.08,3.56,2,2,0,0,1-1.16.93,2.07,2.07,0,0,1-1.43-.09,4.17,4.17,0,0,1-1.87-2.72,4.58,4.58,0,0,1-.07-3.24,2.32,2.32,0,0,1,1.41-1.26A1.77,1.77,0,0,1,61.38,70.09Zm-2.25.8a4.66,4.66,0,0,0,.18,2.69c.7,2.31,1.57,3.36,2.55,3.07a.89.89,0,0,0,.54-.45,5,5,0,0,0-.28-3c-.66-2.17-1.55-3.15-2.42-2.89a.91.91,0,0,0-.58.52Z" transform="translate(0 0)" fill="#fff"/></svg>
