<svg xmlns="http://www.w3.org/2000/svg" viewBox="0 0 100 100"><rect x="0.5" y="0.5" width="99" height="99" fill="none" stroke="#fff"/><path d="M75.37,7.88h.92a.77.77,0,0,1,.7.59v.14s0,.08.07,0a2.36,2.36,0,0,1,.57-.52,2.15,2.15,0,0,1,1-.38,2.17,2.17,0,0,1,.72,0,1.76,1.76,0,0,1,1.33,1c.07.14.08.14.16,0a2.51,2.51,0,0,1,.93-.78,2.67,2.67,0,0,1,1.51-.23,1.75,1.75,0,0,1,1.5,1.22A4.46,4.46,0,0,1,85,9.8h0v4.63h-.92a.79.79,0,0,1-.84-.72V10.62a3,3,0,0,0-.07-.73.59.59,0,0,0-.58-.53,1.26,1.26,0,0,0-1.17.67,2.4,2.4,0,0,0-.31.86,3.23,3.23,0,0,0-.07.69v2.78c0,.08,0,.09-.1.09H79.34c-.07,0-.1,0-.1-.09V10.54a1.91,1.91,0,0,0-.12-.75.7.7,0,0,0-.75-.44,1.11,1.11,0,0,0-.85.53,2.66,2.66,0,0,0-.38.9,4.7,4.7,0,0,0-.09.92v2.72c0,.08,0,.09-.09.09H75.39c-.07,0-.1,0-.1-.09V11.88h0v2.54h0V8a.17.17,0,0,1,0-.1" transform="translate(0 0)" fill="#fff"/><path d="M43.68,5a1.31,1.31,0,0,1,.37.15,1.13,1.13,0,0,1,.52,1.15,1.1,1.1,0,0,1-.84.9,1.07,1.07,0,0,1-1.25-.83s0,0,0-.07A1.1,1.1,0,0,1,43.31,5h0Z" transform="translate(0 0)" fill="#fff"/><path d="M42.16,14.51H40.45a.88.88,0,0,1-.72-.46c-.18-.3-.32-.62-.49-.94s-.4-.77-.59-1.16a.28.28,0,0,0-.25-.18h-.24c-.13,0-.12,0-.12.12v2.53c0,.05,0,.07-.07.07H36.25s-.09,0-.09-.07v-9c0-.13,0-.12.11-.11h1a.71.71,0,0,1,.71.55,2.16,2.16,0,0,1,0,.36V10c0,.12,0,.12.12.12h.29a.44.44,0,0,0,.36-.22L40,7.93a.11.11,0,0,1,.11-.06h2l-.14.22-1.57,2.43a3.44,3.44,0,0,1-.28.36V11a3,3,0,0,1,.52.87c.41.84.89,1.63,1.36,2.43l.16.28" transform="translate(0 0)" fill="#fff"/><path d="M47.35,8.6c.11-.1.2-.21.31-.3a2.43,2.43,0,0,1,1.52-.6,2.75,2.75,0,0,1,1.14.16,1.9,1.9,0,0,1,1.15,1.3,3.77,3.77,0,0,1,.14,1v4.2c0,.13,0,.11-.11.11h-.94a.81.81,0,0,1-.79-.83V10.52a2,2,0,0,0-.06-.49A.65.65,0,0,0,49,9.48a1.52,1.52,0,0,0-1.57,1.28,2.36,2.36,0,0,0-.08.65v3c0,.08,0,.1-.1.1H45.64c-.07,0-.08,0-.08-.09V7.84h1a.79.79,0,0,1,.75.68v.06" transform="translate(0 0)" fill="#fff"/><path d="M67.49,9.61v.47c0,.06,0,.08-.07.08h-.87a.65.65,0,0,1-.65-.53.37.37,0,0,0-.27-.24,1.63,1.63,0,0,0-1.78.5,2,2,0,0,0-.36.77,2.13,2.13,0,0,0,0,.94,1.66,1.66,0,0,0,.9,1.23,2,2,0,0,0,1.18.17,2.53,2.53,0,0,0,1.1-.51,2.34,2.34,0,0,0,.4-.37h.07l.7,1.21a.08.08,0,0,1,0,.11h0a3.67,3.67,0,0,1-1.76,1.08,3.65,3.65,0,0,1-1.47.08,3.36,3.36,0,0,1-1.46-.54,3.27,3.27,0,0,1-1.25-1.61,4,4,0,0,1-.21-1.38,3.43,3.43,0,0,1,1-2.38A3.19,3.19,0,0,1,64,7.9a3.8,3.8,0,0,1,1.11-.19A3.28,3.28,0,0,1,66.58,8a1.64,1.64,0,0,1,.85.73,1.06,1.06,0,0,1,.12.55V9.6Z" transform="translate(0 0)" fill="#fff"/><path d="M42.67,11.18V7.93s0-.09.06-.08h1a.8.8,0,0,1,.76.79,1,1,0,0,1,0,.25v5.52c0,.07,0,.09-.1.09H42.77c-.08,0-.09,0-.09-.1V11.18Z" transform="translate(0 0)" fill="#fff"/><path d="M60.3,14.58a1.09,1.09,0,0,1-1.07-1.11h0a1.07,1.07,0,1,1,2.14,0h0a1.08,1.08,0,0,1-1.06,1.1h0" transform="translate(0 0)" fill="#fff"/><path d="M58.51,14.18a.43.43,0,0,1,0-.16V8c0-.12,0-.12-.12-.12h.06c.06,0,.08,0,.08.07v6.28" transform="translate(0 0)" fill="#fff"/><path d="M75.37,7.88V14.5a.21.21,0,0,1,0-.11V7.88" transform="translate(0 0)" fill="#fff"/><path d="M19.16,12.5a1.08,1.08,0,0,1-.85.41H16.77c-.06,0-.07,0-.07-.07v-.95h0V11a.51.51,0,0,1,.44-.57h1.12a1.09,1.09,0,0,1,1,.53,1.49,1.49,0,0,1-.1,1.55M16.73,8.14h0V7.38a.56.56,0,0,1,.52-.57,5.57,5.57,0,0,1,1,0,.89.89,0,0,1,.78.78,1.31,1.31,0,0,1-.21,1.05.91.91,0,0,1-.75.35H16.78c-.06,0-.08,0-.08-.07V8.13M20,9.73l-.19-.12L20,9.5a2.16,2.16,0,0,0,.39-.41,2.31,2.31,0,0,0,.44-1.57,2.13,2.13,0,0,0-1.11-1.85,3.18,3.18,0,0,0-1.57-.39H15.92a.89.89,0,0,0-.72.37,1.08,1.08,0,0,0-.2.45v8.37h3.16a3.68,3.68,0,0,0,1.27-.21,2.45,2.45,0,0,0,1.43-1.17,2.64,2.64,0,0,0,.25-1.87,2,2,0,0,0-1-1.48" transform="translate(0 0)" fill="#fff"/><path d="M56.59,11.92a1.12,1.12,0,0,1-1.07.78,1.23,1.23,0,0,1-1.28-.94,2.43,2.43,0,0,1,0-1.64,1.11,1.11,0,0,1,1-.76,1.46,1.46,0,0,1,.77.15,1.16,1.16,0,0,1,.57.84,2.58,2.58,0,0,1,.07.68,2.7,2.7,0,0,1-.13.89m1.84-4.09h-.85a.76.76,0,0,0-.71.49,3,3,0,0,0-.4-.31,2.76,2.76,0,0,0-1.78-.31,2.63,2.63,0,0,0-2.2,1.84,4.22,4.22,0,0,0-.09,2.63,3,3,0,0,0,.92,1.52,2.7,2.7,0,0,0,2,.66,2.07,2.07,0,0,0,1.32-.49h0a2,2,0,0,1,0,.35,1.2,1.2,0,0,1-.67,1,2.39,2.39,0,0,1-1.4.13,5.64,5.64,0,0,1-.78-.21.49.49,0,0,0-.61.29v.09l-.33.85v.11a4.69,4.69,0,0,0,1.5.52l.46.07h.69a4.64,4.64,0,0,0,.65-.11,3.14,3.14,0,0,0,1.52-.84,2.9,2.9,0,0,0,.8-1.95V7.92c0-.07,0-.09-.08-.09" transform="translate(0 0)" fill="#fff"/><path d="M72.9,11.11a2,2,0,0,1-.34,1.25,1.35,1.35,0,0,1-.82.58A1.45,1.45,0,0,1,70,12.1a2.16,2.16,0,0,1-.2-1,1.91,1.91,0,0,1,.53-1.36,1.42,1.42,0,0,1,1.19-.39,1.46,1.46,0,0,1,1.28,1.07,1.79,1.79,0,0,1,.11.69m1.71-.84a3.19,3.19,0,0,0-.29-.8,3,3,0,0,0-1.23-1.3,3.08,3.08,0,0,0-1.34-.44,3.35,3.35,0,0,0-1,0,3.21,3.21,0,0,0-2.29,1.49A3.54,3.54,0,0,0,68,11.15a4.34,4.34,0,0,0,0,.51,3.41,3.41,0,0,0,.31,1.09,3.1,3.1,0,0,0,1,1.24,3.29,3.29,0,0,0,1.62.59,3.53,3.53,0,0,0,1.7-.24,3.1,3.1,0,0,0,1.32-1,3.5,3.5,0,0,0,.55-1.09,5.35,5.35,0,0,0,.14-.8,4.25,4.25,0,0,0-.09-1.18" transform="translate(0 0)" fill="#fff"/><path d="M33.73,11.17a2,2,0,0,1-.38,1.25,1.41,1.41,0,0,1-1.26.57,1.54,1.54,0,0,1-1.42-1.34,2.24,2.24,0,0,1,.23-1.6,1.43,1.43,0,0,1,1.48-.7,1.52,1.52,0,0,1,1.28,1.2,2.15,2.15,0,0,1,.07.62m0-3.09A3.46,3.46,0,0,0,31,7.9a3.06,3.06,0,0,0-2,1.93,3.88,3.88,0,0,0-.16,2.08,3.23,3.23,0,0,0,3.32,2.7,3.55,3.55,0,0,0,.86-.1,3.13,3.13,0,0,0,2.14-1.75,3.74,3.74,0,0,0,.26-2.4,3.17,3.17,0,0,0-1.69-2.28" transform="translate(0 0)" fill="#fff"/><path d="M26.31,12.2a1.39,1.39,0,0,1-1.17.79A1.53,1.53,0,0,1,23.5,11.7v-.19a2,2,0,0,1,0-.35,2,2,0,0,1,.4-1.28,1.4,1.4,0,0,1,1.36-.53,1.43,1.43,0,0,1,1.22,1,2.2,2.2,0,0,1-.12,1.81m.28-4.11a3.39,3.39,0,0,0-2.48-.23A3.1,3.1,0,0,0,22,9.68a3.72,3.72,0,0,0-.25,2.06A3.24,3.24,0,0,0,25,14.61a3.76,3.76,0,0,0,1-.13,3.16,3.16,0,0,0,2-1.78,3.72,3.72,0,0,0,.25-2.28A3.17,3.17,0,0,0,26.59,8.1" transform="translate(0 0)" fill="#fff"/><path d="M11.07,21.2a1.84,1.84,0,0,0-.8.18,2.23,2.23,0,0,0-.69.53,2.46,2.46,0,0,0-.48.79,2.87,2.87,0,0,0,0,2,2.46,2.46,0,0,0,.48.79,2,2,0,0,0,.69.52,1.71,1.71,0,0,0,.8.19,1.61,1.61,0,0,0,.72-.16,2.11,2.11,0,0,0,.61-.41,2,2,0,0,0,.42-.57A1.52,1.52,0,0,0,13,24.4H11.16v-.7h2.65v3.15h-.65L13,26.1a2.74,2.74,0,0,1-.5.4,3.24,3.24,0,0,1-.6.27,2.2,2.2,0,0,1-.8.13A2.53,2.53,0,0,1,10,26.65,2.77,2.77,0,0,1,9,26a3.29,3.29,0,0,1-.64-3.55,3.52,3.52,0,0,1,.65-1,2.74,2.74,0,0,1,.94-.67,2.53,2.53,0,0,1,1.11-.25,2.82,2.82,0,0,1,1,.15,2.44,2.44,0,0,1,.75.43,2.91,2.91,0,0,1,.57.64,3.66,3.66,0,0,1,.38.83h-.84a2.23,2.23,0,0,0-.62-1A1.77,1.77,0,0,0,11.07,21.2Z" transform="translate(0 0)" fill="#fff"/><path d="M16.87,26.9a1.56,1.56,0,0,1-.67-.15,1.8,1.8,0,0,1-.94-1,2.35,2.35,0,0,1-.14-.79v-2.6h.75V25a1.48,1.48,0,0,0,.09.51,1.29,1.29,0,0,0,.23.39,1.1,1.1,0,0,0,.35.26,1,1,0,0,0,.43.09,1.17,1.17,0,0,0,.87-.34,1.23,1.23,0,0,0,.33-.91v-2.6h.75v4.5h-.55l-.2-.5a1.26,1.26,0,0,1-.33.28,2.17,2.17,0,0,1-.41.19A1.77,1.77,0,0,1,16.87,26.9Z" transform="translate(0 0)" fill="#fff"/><path d="M23.87,25.65a2.78,2.78,0,0,1-.28.47,2.52,2.52,0,0,1-.4.4,2.57,2.57,0,0,1-.52.27,2,2,0,0,1-1.46-.06,1.91,1.91,0,0,1-.68-.48,2.08,2.08,0,0,1-.45-.72,2.82,2.82,0,0,1,0-1.86,2.29,2.29,0,0,1,.45-.73,1.94,1.94,0,0,1,.66-.47A1.74,1.74,0,0,1,22,22.3a1.85,1.85,0,0,1,1.41.62,2.25,2.25,0,0,1,.43.71,2.41,2.41,0,0,1,.16.92V25h-3.2a1.16,1.16,0,0,0,.14.47,1.6,1.6,0,0,0,.28.4,1.62,1.62,0,0,0,.41.27,1.12,1.12,0,0,0,.47.11,1.15,1.15,0,0,0,.37-.06l.3-.14a.76.76,0,0,0,.23-.17l.15-.18ZM22,23a1,1,0,0,0-.44.1,1.26,1.26,0,0,0-.37.32,1.42,1.42,0,0,0-.28.41,1.85,1.85,0,0,0-.16.52h2.44a1.62,1.62,0,0,0-.41-1A1.09,1.09,0,0,0,22,23Z" transform="translate(0 0)" fill="#fff"/><path d="M27.91,25.55a1,1,0,0,1-.11.52,1.1,1.1,0,0,1-.31.43,1.32,1.32,0,0,1-.48.29,2,2,0,0,1-.64.11,1.72,1.72,0,0,1-1.19-.4,1.42,1.42,0,0,1-.46-1h.75a.77.77,0,0,0,.26.5.93.93,0,0,0,.64.2A.83.83,0,0,0,27,26a.6.6,0,0,0,.21-.45.44.44,0,0,0-.18-.38,1.4,1.4,0,0,0-.43-.2L26,24.84a2.35,2.35,0,0,1-.56-.2,1.21,1.21,0,0,1-.44-.37,1.13,1.13,0,0,1-.18-.67,1.25,1.25,0,0,1,.11-.5,1.45,1.45,0,0,1,.78-.7,1.87,1.87,0,0,1,.62-.1,1.56,1.56,0,0,1,1.11.37,1.44,1.44,0,0,1,.44,1h-.71a.66.66,0,0,0-.23-.47.95.95,0,0,0-1.11,0,.53.53,0,0,0-.2.42.41.41,0,0,0,.17.37,1,1,0,0,0,.44.2,3.53,3.53,0,0,0,.56.14,2.75,2.75,0,0,1,.57.2,1.09,1.09,0,0,1,.43.37A1.13,1.13,0,0,1,27.91,25.55Z" transform="translate(0 0)" fill="#fff"/><path d="M29.36,21.15H30v1.2h1v.7H30v2.37a.83.83,0,0,0,.2.59.76.76,0,0,0,.55.21H31v.65H30.9a1,1,0,0,1-.34,0,1.17,1.17,0,0,1-.49-.11,1.43,1.43,0,0,1-.42-.31,1.5,1.5,0,0,1-.28-.47,1.55,1.55,0,0,1-.11-.56V23.05h-.8v-.7h.35a.49.49,0,0,0,.55-.42.29.29,0,0,0,0-.13Z" transform="translate(0 0)" fill="#fff"/><path d="M36.41,24.25h-1.2v2.6h-.8v-6.3h2.35A1.89,1.89,0,0,1,38.5,21.7a1.74,1.74,0,0,1,.15.71,1.77,1.77,0,0,1-.22.9,2.07,2.07,0,0,1-.48.54,2.27,2.27,0,0,1-.69.36l1.54,2.65h-.9Zm-1.2-.7h1.55a1.11,1.11,0,0,0,.4-.13,1.07,1.07,0,0,0,.35-.25,1.15,1.15,0,0,0,.24-1.26,1.31,1.31,0,0,0-.24-.37,1.21,1.21,0,0,0-.35-.24,1,1,0,0,0-.42-.09H35.21Z" transform="translate(0 0)" fill="#fff"/><path d="M43.46,25.65a2.83,2.83,0,0,1-.29.47,1.9,1.9,0,0,1-.4.4,1.72,1.72,0,0,1-.52.27,2,2,0,0,1-.64.11,2.11,2.11,0,0,1-.82-.17,1.88,1.88,0,0,1-.67-.48,2.08,2.08,0,0,1-.45-.72,2.55,2.55,0,0,1,.49-2.59,2,2,0,0,1,.66-.47,1.81,1.81,0,0,1,.79-.17,1.83,1.83,0,0,1,.77.16,2,2,0,0,1,1.06,1.17,2.41,2.41,0,0,1,.16.92.49.49,0,0,1,0,.17V25H40.4a1.14,1.14,0,0,0,.13.47,1.64,1.64,0,0,0,.29.4,1.56,1.56,0,0,0,.4.27,1.13,1.13,0,0,0,.48.11,1.15,1.15,0,0,0,.37-.06l.3-.14a1.24,1.24,0,0,0,.23-.17l.15-.18ZM41.56,23a1,1,0,0,0-.44.1,1.26,1.26,0,0,0-.38.27,1.65,1.65,0,0,0-.28.41,1.56,1.56,0,0,0-.15.52h2.44a1.62,1.62,0,0,0-.41-1A1,1,0,0,0,41.56,23Z" transform="translate(0 0)" fill="#fff"/><path d="M48.24,22.35l-1.8,4.5h-.7l-1.8-4.5h.8l1.35,3.45,1.35-3.45Z" transform="translate(0 0)" fill="#fff"/><path d="M48.89,21.08a.45.45,0,0,1,.13-.35.52.52,0,0,1,.68,0,.5.5,0,0,1,.14.35.47.47,0,0,1-.14.33.48.48,0,0,1-.68,0h0A.46.46,0,0,1,48.89,21.08Zm.85,5.77H49v-4.5h.75Z" transform="translate(0 0)" fill="#fff"/><path d="M54.68,25.65a2.25,2.25,0,0,1-.28.47,1.9,1.9,0,0,1-.4.4,2.57,2.57,0,0,1-.52.27A2,2,0,0,1,52,26.73a1.88,1.88,0,0,1-.67-.48,2.08,2.08,0,0,1-.45-.72,2.52,2.52,0,0,1,.44-2.59,2,2,0,0,1,.66-.47,1.81,1.81,0,0,1,.79-.17,1.83,1.83,0,0,1,.77.16,2,2,0,0,1,1.06,1.17,2.41,2.41,0,0,1,.16.92.49.49,0,0,1,0,.17V25H51.59a1.14,1.14,0,0,0,.13.47,1.64,1.64,0,0,0,.29.4,1.56,1.56,0,0,0,.4.27,1.12,1.12,0,0,0,.47.11,1.21,1.21,0,0,0,.38-.06l.3-.14.23-.17.14-.18ZM52.79,23a1,1,0,0,0-.44.1,1.26,1.26,0,0,0-.38.27,1.65,1.65,0,0,0-.28.41,1.56,1.56,0,0,0-.15.52H54a1.62,1.62,0,0,0-.41-1A1,1,0,0,0,52.79,23Z" transform="translate(0 0)" fill="#fff"/><path d="M57.33,26.85h-.6l-1.5-4.5H56l1,3.2,1-3.2h.5l1,3.2,1-3.2h.8l-1.5,4.5h-.6l-1-3.2Z" transform="translate(0 0)" fill="#fff"/><path d="M67.72,25.3H65.16l-.6,1.55h-.85l2.41-6.3h.69l2.4,6.3h-.85Zm-2.35-.7h2.1l-1-2.75Z" transform="translate(0 0)" fill="#fff"/><path d="M71.26,26.85h-.6l-1.5-4.5H70l1,3.2,1-3.2h.5l1,3.2,1.05-3.2h.8l-1.5,4.5h-.6l-1-3.2Z" transform="translate(0 0)" fill="#fff"/><path d="M77.81,22.3a2,2,0,0,1,.68.12,1.7,1.7,0,0,1,.54.34,1.42,1.42,0,0,1,.35.49,1.54,1.54,0,0,1,.13.6v3H79l-.2-.5a1.54,1.54,0,0,1-.34.28,2,2,0,0,1-.42.19,2.33,2.33,0,0,1-.59.08,1.88,1.88,0,0,1-.62-.11,1.2,1.2,0,0,1-.47-.29,1.28,1.28,0,0,1-.3-.43,1,1,0,0,1-.11-.52A1.34,1.34,0,0,1,76,25a1.17,1.17,0,0,1,.45-.46,2.73,2.73,0,0,1,.87-.3,7.27,7.27,0,0,1,1.4-.1v-.25a.8.8,0,0,0-.27-.6,1.13,1.13,0,0,0-1.3-.08.9.9,0,0,0-.28.48h-.75a1.38,1.38,0,0,1,.17-.52,1.45,1.45,0,0,1,.83-.71A1.82,1.82,0,0,1,77.81,22.3Zm-.4,3.9a1.45,1.45,0,0,0,.55-.1,1.18,1.18,0,0,0,.42-.24,1.12,1.12,0,0,0,.28-.33.75.75,0,0,0,.1-.38V24.8a9.91,9.91,0,0,0-1.09,0A2.86,2.86,0,0,0,77,25a.67.67,0,0,0-.3.25.8.8,0,0,0-.07.34.58.58,0,0,0,.2.41A.76.76,0,0,0,77.41,26.2Z" transform="translate(0 0)" fill="#fff"/><path d="M82.91,23.05h-.2a1.17,1.17,0,0,0-.87.34,1.23,1.23,0,0,0-.33.91v2.55h-.75v-4.5h.55l.2.5a1.4,1.4,0,0,1,.33-.27,2.22,2.22,0,0,1,.41-.2,1.77,1.77,0,0,1,.56-.08h.1Z" transform="translate(0 0)" fill="#fff"/><path d="M86.85,26.35a1.75,1.75,0,0,1-.33.28,2.08,2.08,0,0,1-.43.19,2.25,2.25,0,0,1-.58.08,2.11,2.11,0,0,1-.82-.17,1.88,1.88,0,0,1-.67-.48,2.08,2.08,0,0,1-.45-.72,2.82,2.82,0,0,1,0-1.86,2.29,2.29,0,0,1,.45-.73,2.08,2.08,0,0,1,.67-.47,2,2,0,0,1,1.41-.08l.42.21a2.35,2.35,0,0,1,.33.3V20.55h.76v6.3h-.56ZM87,24.6a1.84,1.84,0,0,0-.12-.66,1.71,1.71,0,0,0-.3-.5,1.2,1.2,0,0,0-.45-.32,1.25,1.25,0,0,0-1.07,0,1.2,1.2,0,0,0-.45.32,1.71,1.71,0,0,0-.3.5,1.85,1.85,0,0,0,0,1.31,1.63,1.63,0,0,0,.3.51,1.45,1.45,0,0,0,.45.33,1.33,1.33,0,0,0,1.07,0,1.45,1.45,0,0,0,.45-.33,1.63,1.63,0,0,0,.3-.51A1.82,1.82,0,0,0,87,24.6Z" transform="translate(0 0)" fill="#fff"/><path d="M91.9,25.55a1,1,0,0,1-.11.52,1.1,1.1,0,0,1-.31.43,1.32,1.32,0,0,1-.48.29,1.81,1.81,0,0,1-.65.11,1.7,1.7,0,0,1-1.18-.4,1.47,1.47,0,0,1-.47-1h.76a.8.8,0,0,0,.25.5,1,1,0,0,0,.64.2A.87.87,0,0,0,91,26a.6.6,0,0,0,.21-.45.44.44,0,0,0-.18-.38,1.4,1.4,0,0,0-.43-.2L90,24.84a2.35,2.35,0,0,1-.56-.2,1.06,1.06,0,0,1-.44-.37,1.13,1.13,0,0,1-.18-.67,1.25,1.25,0,0,1,.11-.5,1.53,1.53,0,0,1,.31-.41,1.36,1.36,0,0,1,.47-.29,1.87,1.87,0,0,1,.62-.1,1.56,1.56,0,0,1,1.11.37,1.39,1.39,0,0,1,.43,1H91.1a.66.66,0,0,0-.23-.47.95.95,0,0,0-1.11,0,.54.54,0,0,0-.21.42.41.41,0,0,0,.18.37,1.13,1.13,0,0,0,.43.2,4,4,0,0,0,.57.14,2.75,2.75,0,0,1,.57.2,1.18,1.18,0,0,1,.43.37A1.15,1.15,0,0,1,91.9,25.55Z" transform="translate(0 0)" fill="#fff"/><path d="M45.16,36.15v.7h-3.9v-.6l2.5-2.75a2.85,2.85,0,0,0,.31-.38,3,3,0,0,0,.2-.4,1.27,1.27,0,0,0,.09-.47,1,1,0,0,0-.31-.75,1.1,1.1,0,0,0-.83-.3A1.13,1.13,0,0,0,42,32.4h-.86a1.88,1.88,0,0,1,.15-.74,1.71,1.71,0,0,1,.42-.61,2,2,0,0,1,.64-.4,2.18,2.18,0,0,1,.8-.15,2.29,2.29,0,0,1,.78.14,1.73,1.73,0,0,1,.62.38,1.81,1.81,0,0,1,.4.55,1.46,1.46,0,0,1,.14.68,1.64,1.64,0,0,1-.13.65,2.86,2.86,0,0,1-.3.54,3.35,3.35,0,0,1-.42.51l-2,2.2Z" transform="translate(0 0)" fill="#fff"/><path d="M50.85,33.7a4.19,4.19,0,0,1-.2,1.36,3,3,0,0,1-.54,1,2.24,2.24,0,0,1-.78.62,2.16,2.16,0,0,1-1.86,0,2.24,2.24,0,0,1-.78-.62,3.43,3.43,0,0,1-.53-1A4.19,4.19,0,0,1,46,33.7a4.25,4.25,0,0,1,.2-1.37,3.21,3.21,0,0,1,.53-1,2.24,2.24,0,0,1,.78-.62,2.16,2.16,0,0,1,1.86,0,2.24,2.24,0,0,1,.78.62,3,3,0,0,1,.54,1A4.25,4.25,0,0,1,50.85,33.7Zm-4.09,0a3.79,3.79,0,0,0,.13,1.11,2.79,2.79,0,0,0,.37.78,1.56,1.56,0,0,0,.53.46,1.34,1.34,0,0,0,1.23,0,1.53,1.53,0,0,0,.52-.46,2.24,2.24,0,0,0,.37-.78,4.39,4.39,0,0,0,0-2.22,2.24,2.24,0,0,0-.37-.78,1.44,1.44,0,0,0-.52-.46,1.34,1.34,0,0,0-1.23,0,1.56,1.56,0,0,0-.53.46,2.54,2.54,0,0,0-.37.78A3.79,3.79,0,0,0,46.76,33.7Z" transform="translate(0 0)" fill="#fff"/><path d="M53.5,30.55v6.3h-.8v-5.2l-.9.6-.35-.6L53,30.55Z" transform="translate(0 0)" fill="#fff"/><path d="M56.75,36.9a2.51,2.51,0,0,1-.86-.15,2.17,2.17,0,0,1-.67-.4,1.56,1.56,0,0,1-.42-.59,1.74,1.74,0,0,1-.15-.71,1.68,1.68,0,0,1,.16-.76,2,2,0,0,1,.38-.49,1.71,1.71,0,0,1,.56-.35,1.21,1.21,0,0,1-.43-.27,1.68,1.68,0,0,1-.3-.4,1.6,1.6,0,0,1,0-1.25,2,2,0,0,1,.39-.52,2.07,2.07,0,0,1,.6-.37,2,2,0,0,1,1.46,0,2,2,0,0,1,.58.37,1.85,1.85,0,0,1,.4.52,1.48,1.48,0,0,1,.14.62,1.26,1.26,0,0,1-.14.63,1.64,1.64,0,0,1-.29.4,1.17,1.17,0,0,1-.42.27,1.93,1.93,0,0,1,.54.35,2,2,0,0,1,.38.49,1.45,1.45,0,0,1,.18.76,1.8,1.8,0,0,1-.59,1.3,2.12,2.12,0,0,1-.66.4A2.4,2.4,0,0,1,56.75,36.9Zm0-3a1.35,1.35,0,0,0-1,.33,1.07,1.07,0,0,0-.35.82,1.12,1.12,0,0,0,.35.86,1.64,1.64,0,0,0,2,0,1.15,1.15,0,0,0,.35-.86,1.07,1.07,0,0,0-.35-.82,1.34,1.34,0,0,0-1-.38Zm0-.7a1.15,1.15,0,0,0,.41-.08,1.94,1.94,0,0,0,.34-.21,1,1,0,0,0,.21-.3.74.74,0,0,0,.09-.36,1.09,1.09,0,0,0-.3-.7,1.11,1.11,0,0,0-.34-.22,1.15,1.15,0,0,0-.41-.08,1.2,1.2,0,0,0-.42.08,1.11,1.11,0,0,0-.34.22,1,1,0,0,0-.22.31,1,1,0,0,0-.07.39.89.89,0,0,0,.07.36,1.29,1.29,0,0,0,.22.3,1.94,1.94,0,0,0,.34.21,1,1,0,0,0,.42,0Z" transform="translate(0 0)" fill="#fff"/><path d="M50,95A27,27,0,1,0,23,68h0A27,27,0,0,0,50,95" transform="translate(0 0)" fill="#fff"/><path d="M39,77.36a9.18,9.18,0,0,1-3.12-.49,7.08,7.08,0,0,1-2.37-1.35A5.89,5.89,0,0,1,32,73.59a5.28,5.28,0,0,1-.53-2.31A4.7,4.7,0,0,1,31.93,69,7,7,0,0,1,33,67.47a6,6,0,0,1,1.6-1.15,6.2,6.2,0,0,1-1.22-1,5.15,5.15,0,0,1-.81-1.3,4.31,4.31,0,0,1-.37-1.87,4.74,4.74,0,0,1,.48-2.09,5.63,5.63,0,0,1,1.37-1.8A6.8,6.8,0,0,1,36.22,57a8.15,8.15,0,0,1,5.47,0,6.8,6.8,0,0,1,2.13,1.24,5.55,5.55,0,0,1,1.34,1.81,4.74,4.74,0,0,1,.48,2.09A4.18,4.18,0,0,1,45.26,64a5.56,5.56,0,0,1-.84,1.3,6.65,6.65,0,0,1-1.18,1,6,6,0,0,1,1.6,1.15A6.66,6.66,0,0,1,45.94,69a4.8,4.8,0,0,1,.5,2.27,5.28,5.28,0,0,1-.53,2.31,5.89,5.89,0,0,1-1.5,1.93A7.08,7.08,0,0,1,42,76.88,9.45,9.45,0,0,1,39,77.36Zm0-9a2.93,2.93,0,0,0-2.11.74,2.55,2.55,0,0,0,0,3.61l0,0a3.42,3.42,0,0,0,4.22,0,2.55,2.55,0,0,0,0-3.61l0,0A2.94,2.94,0,0,0,39,68.42Zm0-8a2.18,2.18,0,0,0-1.6.63,2,2,0,0,0-.64,1.45,2,2,0,0,0,.64,1.46,2.37,2.37,0,0,0,3.2,0,2,2,0,0,0,.6-1.42A2,2,0,0,0,40.52,61,2.21,2.21,0,0,0,39,60.42Z" transform="translate(0 0)" fill="#363636"/><path d="M48.4,75a2.46,2.46,0,1,1,.72,1.68A2.31,2.31,0,0,1,48.4,75Z" transform="translate(0 0)" fill="#363636"/><path d="M68.72,57v3.68L61,77.2H56l7.39-15.68H55.27V57Z" transform="translate(0 0)" fill="#363636"/><path d="M40.05,86.6a2,2,0,0,1-.13.72,1.87,1.87,0,0,1-.35.57,1.62,1.62,0,0,1-.52.38,1.56,1.56,0,0,1-.64.13,1.61,1.61,0,0,1-.65-.13,1.62,1.62,0,0,1-.52-.38,1.87,1.87,0,0,1-.35-.57,2.22,2.22,0,0,1,0-1.44,1.87,1.87,0,0,1,.35-.57,1.62,1.62,0,0,1,1.17-.51,1.57,1.57,0,0,1,.64.14,1.59,1.59,0,0,1,.52.37,1.87,1.87,0,0,1,.35.57A2,2,0,0,1,40.05,86.6Zm-2.92,0a1.65,1.65,0,0,0,.1.58,1.31,1.31,0,0,0,.28.45,1.53,1.53,0,0,0,.41.31,1.25,1.25,0,0,0,1,0,1.35,1.35,0,0,0,.4-.31,1.31,1.31,0,0,0,.28-.45,1.77,1.77,0,0,0,0-1.16,1.48,1.48,0,0,0-.28-.45,1.24,1.24,0,0,0-.89-.41,1.17,1.17,0,0,0-.49.11,1.12,1.12,0,0,0-.41.3,1.48,1.48,0,0,0-.28.45,1.62,1.62,0,0,0-.07.58Z" transform="translate(0 0)" fill="#363636"/><path d="M42.33,88.42a1.24,1.24,0,0,1-.57-.11,1.28,1.28,0,0,1-.43-.3,1.22,1.22,0,0,1-.3-.47,1.73,1.73,0,0,1-.11-.6V84.86h.37v2.08a1,1,0,0,0,.08.44,1.05,1.05,0,0,0,.23.36,1.16,1.16,0,0,0,.34.24,1.2,1.2,0,0,0,.42.08,1.38,1.38,0,0,0,.45-.08,1.41,1.41,0,0,0,.36-.24,1.18,1.18,0,0,0,.23-.35,1.17,1.17,0,0,0,.09-.45V84.86h.35v3.52H43.6l-.11-.52h0a1.16,1.16,0,0,1-.26.28,1.17,1.17,0,0,1-.34.2A1.52,1.52,0,0,1,42.33,88.42Z" transform="translate(0 0)" fill="#363636"/><path d="M45.33,85.2h-.69v-.36H45a.35.35,0,0,0,.4-.29.21.21,0,0,0,0-.11V83.8h.32v1h.88v.36h-.88v2.16a.64.64,0,0,0,.19.52.65.65,0,0,0,.46.16h.23v.32a.14.14,0,0,1-.09,0,.45.45,0,0,1-.23,0,.8.8,0,0,1-.65-.28,1,1,0,0,1-.26-.76Z" transform="translate(0 0)" fill="#363636"/><path d="M52.24,86.6a2,2,0,0,1-.13.72,1.75,1.75,0,0,1-.35.57,1.48,1.48,0,0,1-1.16.51,1.51,1.51,0,0,1-1.16-.51A1.89,1.89,0,0,1,49,86.6a2,2,0,0,1,.13-.72,1.75,1.75,0,0,1,.35-.57,1.38,1.38,0,0,1,.52-.37,1.57,1.57,0,0,1,.64-.14,1.62,1.62,0,0,1,.65.14,1.55,1.55,0,0,1,.51.37,1.75,1.75,0,0,1,.35.57A2,2,0,0,1,52.24,86.6Zm-2.92,0a1.91,1.91,0,0,0,.1.58,1.62,1.62,0,0,0,.28.45,1.53,1.53,0,0,0,.41.31,1.25,1.25,0,0,0,1,0,1.53,1.53,0,0,0,.41-.31,1.62,1.62,0,0,0,.28-.45,1.77,1.77,0,0,0,0-1.16,1.62,1.62,0,0,0-.28-.45,1.31,1.31,0,0,0-.41-.3,1.17,1.17,0,0,0-1,0,1.31,1.31,0,0,0-.41.3,1.62,1.62,0,0,0-.28.45A1.89,1.89,0,0,0,49.32,86.6Z" transform="translate(0 0)" fill="#363636"/><path d="M53.36,84.36a1.1,1.1,0,0,1,.26-.76.91.91,0,0,1,.66-.28h.32v.32h-.24a.76.76,0,0,0-.46.16.67.67,0,0,0-.18.52v.48h.88v.36h-.88v3.16h-.36V85.16H52.8V84.8h.56Z" transform="translate(0 0)" fill="#363636"/><path d="M58.24,83.32v5h-.4V83.8l-.92.64-.2-.32L58,83.28Z" transform="translate(0 0)" fill="#363636"/><path d="M63.16,85.84a3.44,3.44,0,0,1-.15,1.1,2.69,2.69,0,0,1-.43.8,1.72,1.72,0,0,1-.61.49,1.62,1.62,0,0,1-.72.17,1.7,1.7,0,0,1-.73-.17,1.62,1.62,0,0,1-.61-.49,2.69,2.69,0,0,1-.43-.8,3.75,3.75,0,0,1-.16-1.1,3.64,3.64,0,0,1,.16-1.09,2.48,2.48,0,0,1,.43-.8,1.75,1.75,0,0,1,.61-.5,1.7,1.7,0,0,1,.73-.17,1.62,1.62,0,0,1,.72.17,1.84,1.84,0,0,1,.61.5,2.48,2.48,0,0,1,.43.8A3.63,3.63,0,0,1,63.16,85.84Zm-3.43,0a3.06,3.06,0,0,0,.13,1,2,2,0,0,0,.34.69,1.3,1.3,0,0,0,.48.42,1.19,1.19,0,0,0,1.13,0,1.3,1.3,0,0,0,.48-.42,2.22,2.22,0,0,0,.34-.69,3.2,3.2,0,0,0,0-1.89,2.27,2.27,0,0,0-.34-.7,1.62,1.62,0,0,0-.48-.42,1.19,1.19,0,0,0-1.13,0,1.62,1.62,0,0,0-.48.42,2.27,2.27,0,0,0-.34.7,3,3,0,0,0-.14.89Z" transform="translate(0 0)" fill="#363636"/></svg>
