<svg xmlns="http://www.w3.org/2000/svg" viewBox="0 0 36 36"><circle cx="18" cy="18" r="18" fill="#ffc107"/><path d="M10,13.35l4,1.45c1.37-3.18,3.36-5.64,5.43-6.78a11.66,11.66,0,0,0-9.71,4.36A.63.63,0,0,0,10,13.35Zm5.16,1.88,9.32,3.39c1.4-4.74.73-9-1.67-9.92a2.51,2.51,0,0,0-.9-.16c-2.27,0-5,2.71-6.75,6.69Zm10.7-4.87a9.5,9.5,0,0,1,.52,2.16A16.89,16.89,0,0,1,25.65,19l4,1.46A.63.63,0,0,0,30.5,20a11.72,11.72,0,0,0-4.63-9.59Zm1.5,15.14H18l2.54-7-2.35-.86L15.38,25.5H6.12a.62.62,0,0,0-.62.62v1.25a.63.63,0,0,0,.62.63H27.37a.63.63,0,0,0,.63-.63V26.12a.63.63,0,0,0-.63-.62Z" transform="translate(0 0)" fill="#fff"/></svg>
