<svg xmlns="http://www.w3.org/2000/svg" viewBox="0 0 100 26"><rect width="100" height="26" fill="#fff"/><path d="M51,17.53h6V16.2H52.28V13.75h4.64V12.52H52.29V9.89H57V8.57H51Z" transform="translate(0 -0.05)"/><path d="M84.67,17.47h1.38V8.63H84.67Z" transform="translate(0 -0.05)"/><path d="M92.73,17.47H98V16.19H94.14V8.63H92.73Z" transform="translate(0 -0.05)"/><path d="M73.62,17.53H75V14.74h2.2a3.17,3.17,0,0,0,2.67-3v-.27h0a3.24,3.24,0,0,0-3.28-2.9H73.65Zm2.89-4H75V9.74H76.5a1.93,1.93,0,0,1,2,1.82v.11h0A1.85,1.85,0,0,1,78,13l-.06.06a1.89,1.89,0,0,1-1.13.52H76.5Z" transform="translate(0 -0.05)"/><path d="M43.81,17.51h1.32V8.59h-.58L40,15V15l-4.6-6.36h-.53v8.92h1.35V12.1L40,17.42l3.86-5.32Z" transform="translate(0 -0.05)"/><path d="M66.4,12.47c-.32-.11-.64-.21-1-.29a5.38,5.38,0,0,1-1.29-.41,1.61,1.61,0,0,1-.44-.38.93.93,0,0,1-.12-.46A1.05,1.05,0,0,1,64,10a2,2,0,0,1,1.23-.38,1.75,1.75,0,0,1,1.11.33,1.21,1.21,0,0,1,.34.47L68,9.92a2.18,2.18,0,0,0-.66-.82,3.28,3.28,0,0,0-2.14-.63,3.69,3.69,0,0,0-2.29.69A2.15,2.15,0,0,0,62,11a1.76,1.76,0,0,0,.61,1.41,4.36,4.36,0,0,0,1.87.85l.27.07c1,.25,2.21.73,2.21,1.55a1.32,1.32,0,0,1-.5,1.09,2.15,2.15,0,0,1-1.4.42A2,2,0,0,1,63.77,16a1.43,1.43,0,0,1-.43-.65L62,15.87a2.44,2.44,0,0,0,.73,1,3.59,3.59,0,0,0,2.36.76,3.77,3.77,0,0,0,2.5-.8,2.44,2.44,0,0,0,1-2.09,2.32,2.32,0,0,0-.61-1.41,4,4,0,0,0-1.48-.87" transform="translate(0 -0.05)"/><polygon points="7.68 11.29 14.44 6.68 20.04 10.51 21.21 9.71 14.44 5.08 2 13.59 2.03 13.6 2 13.62 4.19 15.12 5.36 14.32 4.31 13.6 6.55 12.08 8.78 13.6 9.91 12.83 7.68 11.29"/><polyline points="17.82 13.6 16.2 14.71 16.2 20.89 16.2 20.88 16.2 25.53 17.49 24.65 17.49 23.09 17.49 20.03 22.36 16.71 23.5 15.93 26.87 13.62 26.85 13.6 26.87 13.59 23.5 11.28 26.87 8.97 14.44 0.47 2 8.97 4.22 10.49 5.37 9.71 4.29 8.97 14.44 2.04 24.59 8.97 18.96 12.83 20.1 13.6 22.33 12.08 24.57 13.6 17.49 18.43 17.49 15.38 18.96 14.38"/><polyline points="5.38 15.93 6.52 16.71 11.37 20.03 11.39 23.09 11.39 24.65 12.69 25.53 12.67 20.88 12.68 20.88 12.65 14.69 11.06 13.6 9.91 14.38 11.36 15.37 11.37 18.43 7.68 15.9 6.55 15.12"/><path d="M17.49,24.7l9.38-6.42L23.5,16l-1.14.78,2.23,1.53-7.1,4.83Zm-6.1-1.56-7.1-4.83,2.23-1.52L5.38,16,2,18.28l9.39,6.42ZM7.69,16l2.23-1.53,1.15-.79,3.38-2.31,5.6,3.86,1.14-.79L14.43,9.8,9.92,12.88l-1.16.77L6.54,15.17Z" transform="translate(0 -0.05)"/></svg>
