<svg xmlns="http://www.w3.org/2000/svg" viewBox="0 0 36 36"><circle cx="18" cy="18" r="18" fill="#dc3545"/><path d="M28.94,10.19v12.5c0,2.53-3,4.68-6.35,4.68l3.07,2.43a.39.39,0,0,1-.24.7H10.58a.39.39,0,0,1-.24-.7l3.07-2.43c-3.33,0-6.35-2.15-6.35-4.68V10.19c0-2.59,3.13-4.69,6.25-4.69h9.38C25.86,5.5,28.94,7.6,28.94,10.19ZM16.83,16.83V11.36a1.17,1.17,0,0,0-1.17-1.17H10.58a1.17,1.17,0,0,0-1.17,1.17v5.47A1.17,1.17,0,0,0,10.58,18h5.08A1.17,1.17,0,0,0,16.83,16.83Zm9.76,0V11.36a1.17,1.17,0,0,0-1.17-1.17H20.34a1.17,1.17,0,0,0-1.17,1.17v5.47A1.17,1.17,0,0,0,20.34,18h5.08A1.17,1.17,0,0,0,26.59,16.83Zm-2.34,2.73a2.35,2.35,0,1,0,2.34,2.35A2.35,2.35,0,0,0,24.25,19.56Zm-12.5,0a2.35,2.35,0,1,0,2.34,2.35A2.35,2.35,0,0,0,11.75,19.56Z" transform="translate(0 0)" fill="#fff"/></svg>
