<svg xmlns="http://www.w3.org/2000/svg" viewBox="0 0 36 36"><circle r="18" transform="translate(18 18)" fill="#28a745"/><path d="M-5.47,7.81H5.47A1.56,1.56,0,0,1,3.91,9.38H3.13a1.56,1.56,0,0,0-1.57,1.56v1A.58.58,0,0,1,1,12.5H-1a.58.58,0,0,1-.58-.59v-1A1.56,1.56,0,0,0-3.13,9.38h-.78A1.56,1.56,0,0,1-5.47,7.81ZM10.16-2.34A10.16,10.16,0,0,1,5.4,6.25H-5.4a10.16,10.16,0,0,1-4.76-8.59A10.16,10.16,0,0,1,0-12.5,10.16,10.16,0,0,1,10.16-2.34ZM1.36-.2A1.61,1.61,0,0,0,3-1.82,1.62,1.62,0,0,0,1.9-3.33a1.59,1.59,0,0,1-2,2.05A1.61,1.61,0,0,0,1.36-.2Zm2.4,2.29A1.61,1.61,0,0,0,2.68.58,1.59,1.59,0,0,1,.63,2.63a1.61,1.61,0,0,0,3.13-.54ZM6.88-1a1.59,1.59,0,0,0-1.07-1.5,1.59,1.59,0,0,1-2,2A1.6,1.6,0,0,0,5.27.58,1.62,1.62,0,0,0,6.88-1Z" transform="translate(18 18)" fill="#fff"/></svg>
