<svg xmlns="http://www.w3.org/2000/svg" viewBox="0 0 36 36"><circle r="18" transform="translate(18 18)" fill="#007bff"/><path d="M7.17-7.39,2.77-4.85-5.38-9.6a.71.71,0,0,0-.72,0L-8.62-8.14A.71.71,0,0,0-8.76-7L-3-1.49-7,.8-10-.46a.7.7,0,0,0-.63,0l-1.54.89a.71.71,0,0,0-.16,1.11l3.62,3.47,1.19,4.87a.72.72,0,0,0,1,.42l1.54-.89a.73.73,0,0,0,.35-.53l.38-3.18,4-2.29,1.93,7.71a.71.71,0,0,0,1,.44L5.3,10.14a.72.72,0,0,0,.36-.62l0-9.43L10-2.46c1.37-.78,3.07-3.24,2.28-4.6S8.54-8.18,7.17-7.39Z" transform="translate(18 18)" fill="#fff"/></svg>
