<svg xmlns="http://www.w3.org/2000/svg" xmlns:xlink="http://www.w3.org/1999/xlink" viewBox="0 0 902 564"><defs><linearGradient id="a" x1="-4441.31" y1="-1072.81" x2="-4137.04" y2="-1072.81" gradientTransform="translate(3999.51 -2276.35) rotate(-48.05)" gradientUnits="userSpaceOnUse"><stop offset="0" stop-color="#ffc444"/><stop offset="1" stop-color="#f36f56"/></linearGradient><clipPath id="c"><path d="M287,358.34l53.12-2.13s8.91-27.65-4.88-46.36c-28.13-38.18,7.27-60.15,20.71-71.58,20.29-17.22,30.65-41.25-.55-50.28s-2.18-58,34.59-81.07c36-22.61,16.55-99.6-65.81-57.83C275,74,285,126.85,283.67,154.71s-42.51,31.82-27,65.17c13.24,28.5,37,48.7,20.32,69.33S259.34,332.24,287,358.34Z" fill="url(#a)"/></clipPath><linearGradient id="d" x1="1168.15" y1="957.22" x2="1062.31" y2="1258.03" gradientTransform="translate(-837 -864.23) rotate(-2.3)" xlink:href="#a"/><linearGradient id="e" x1="-947.2" y1="-331.01" x2="-813.74" y2="19.66" gradientTransform="matrix(-0.65, 0.76, 0.76, 0.65, -207.47, 1051.41)" gradientUnits="userSpaceOnUse"><stop offset="0" stop-color="#e38ddd"/><stop offset="1" stop-color="#9571f6"/></linearGradient><clipPath id="f"><path d="M352.73,368.1l-37.11,30s-33.23-9.54-29.73-28.08S260.45,338.44,246,329.65c-39.28-23.85-3.5-63.37-51.19-98.22C182.09,222.16,154.45,209,153,190.32,151.43,169.09,170,168,166.7,152.69c-5.1-23.87,5.67-48.74,30.79-49.91,24.8-1.16,43.69,36,39.44,91,1.43,39.47,7.25,44.31,23.63,53.24,11.48,6.24,46.74,15.59,46.08,38.39s2.27,42.74,18.48,45.59C349.79,335.36,352.73,368.1,352.73,368.1Z" fill="none"/></clipPath><linearGradient id="g" x1="4731.63" y1="-546.63" x2="4896.55" y2="-275.12" gradientTransform="matrix(-0.73, 0.69, 0.69, 0.73, 4072.08, -2795.24)" gradientUnits="userSpaceOnUse"><stop offset="0" stop-color="#ff9085"/><stop offset="1" stop-color="#fb6fbb"/></linearGradient><clipPath id="h"><path d="M360.33,315.58,305,367.07c-10.21-4.31-27.22-14-18.82-28.06,11.68-19.6-13.47-46.25-26.9-51.39-16.62-6.37-55-22-37.37-52.56,14.64-25.44,29.21-39.2,6.7-65.2s-23-55,2.37-76.16c26.71-22.28,17-73.11,47.81-82.16C332.51-4.22,352.67,80.89,324.18,138s10.91,48.08,31.69,67.12c28.37,26-17.26,57.83-17.29,78.6C338.55,300,351.46,310.22,360.33,315.58Z" fill="none"/></clipPath><linearGradient id="i" x1="346.15" y1="80.95" x2="488.08" y2="80.95" gradientUnits="userSpaceOnUse"><stop offset="0" stop-color="#444b8c"/><stop offset="1" stop-color="#26264f"/></linearGradient><linearGradient id="j" x1="1361.01" y1="42.01" x2="1508.4" y2="429.3" gradientTransform="matrix(-0.99, 0.12, 0.12, 0.99, 2007.32, -183.9)" gradientUnits="userSpaceOnUse"><stop offset="0" stop-color="#aa80f9"/><stop offset="1" stop-color="#6165d7"/></linearGradient><clipPath id="k"><path d="M623.14,365.7l-49-3.39s-18.52-32.78-3-45.31,2.71-44.92-2.13-63c-13.14-49,41.46-54.45,29.61-118.79-3.15-17.12-14.88-48.7-3-65,13.56-18.57,28.38-5.56,36.54-20.5C645,26.37,670.47,14.13,690.31,32.06c19.58,17.69,8,62.27-33.51,104.06-26.39,33.36-25.36,41.69-19.16,61.3,4.34,13.74,24.52,47.88,8.15,66s-28,36.65-17.74,51.17C643.71,336.72,623.14,365.7,623.14,365.7Z" fill="none"/></clipPath><clipPath id="l"><path d="M585.28,401.05l50.49,6.05s12.64-24.45,2.49-44c-20.72-39.87,16.06-55,30.51-63.64,21.79-13,35.25-33.84,7.18-47s6.82-54.42,45.07-70.4c37.43-15.65,30.88-90.41-53.28-63.9-50.26,15.83-48.92,66.6-54.42,92.4s-45,23.25-35.49,56.71c8.14,28.58,27.5,51,8.57,67.74S563.17,372.52,585.28,401.05Z" fill="none"/></clipPath><linearGradient id="m" x1="-1305.16" y1="843.75" x2="-1405.42" y2="1128.69" gradientTransform="translate(2106.51 -559.52) rotate(6.92)" xlink:href="#e"/><linearGradient id="n" x1="4314.13" y1="-163.62" x2="4410.26" y2="-5.37" gradientTransform="matrix(-0.98, 0.2, 0.2, 0.98, 4932.63, -485.03)" xlink:href="#g"/><clipPath id="o"><path d="M649.35,401.44l-41.57,8.68c-3.65-5.38-9-15.59-.87-20.08,11.31-6.25,7-27.59,2-34.4-6.13-8.43-20-28.35-2.65-38.28,14.44-8.27,25.45-10.65,22.2-30.84s5-35,23.31-37.75c19.32-2.88,29.44-31.62,46.88-26.53,30.4,8.88,15.3,58.21-15,78.12s-8.75,27.72-4.32,43.86c6.06,22-25.12,23.8-31.18,34.29C643.43,386.73,646.65,396,649.35,401.44Z" fill="none"/></clipPath><linearGradient id="p" x1="587.8" y1="465.29" x2="673.15" y2="465.29" gradientUnits="userSpaceOnUse"><stop offset="0" stop-color="#d0d1d3"/><stop offset="1" stop-color="#ebeff2"/></linearGradient><linearGradient id="q" x1="625.73" y1="427.96" x2="635.22" y2="427.96" xlink:href="#p"/><linearGradient id="r" x1="677.58" y1="417.87" x2="660.18" y2="395.2" gradientUnits="userSpaceOnUse"><stop offset="0" stop-color="#311944"/><stop offset="1" stop-color="#893976"/></linearGradient><linearGradient id="s" x1="637.92" y1="367.23" x2="660.27" y2="307.97" xlink:href="#r"/><linearGradient id="t" x1="625.42" y1="377.8" x2="625.07" y2="406.8" xlink:href="#r"/><linearGradient id="u" x1="538.25" y1="427.52" x2="564.18" y2="521.1" xlink:href="#r"/><linearGradient id="v" x1="561.33" y1="493.68" x2="561.7" y2="462.11" gradientTransform="matrix(1, 0, 0, 1, 0, 0)" xlink:href="#a"/><linearGradient id="w" x1="570.71" y1="418.52" x2="596.65" y2="512.1" xlink:href="#r"/><linearGradient id="x" x1="597.83" y1="494.12" x2="598.21" y2="462.54" gradientTransform="matrix(1, 0, 0, 1, 0, 0)" xlink:href="#a"/><linearGradient id="y" x1="543.13" y1="392.14" x2="576.74" y2="392.14" xlink:href="#i"/><linearGradient id="z" x1="543.13" y1="392.14" x2="576.74" y2="392.14" xlink:href="#i"/><linearGradient id="aa" x1="562.11" y1="396.95" x2="613.13" y2="396.95" xlink:href="#i"/><linearGradient id="ab" x1="443.02" y1="255.65" x2="474.6" y2="287.79" gradientTransform="matrix(1, 0, 0, 1, 0, 0)" xlink:href="#a"/><linearGradient id="ac" x1="594.24" y1="161.09" x2="443.14" y2="315.56" gradientUnits="userSpaceOnUse"><stop offset="0" stop-color="#6165d7"/><stop offset="1" stop-color="#aa80f9"/></linearGradient><linearGradient id="ad" x1="664.67" y1="402.99" x2="550.79" y2="239.5" xlink:href="#ac"/><linearGradient id="ae" x1="664.66" y1="403" x2="550.78" y2="239.51" gradientTransform="matrix(1, 0, 0, 1, 0, 0)" xlink:href="#j"/><linearGradient id="af" x1="595.31" y1="312.31" x2="613.68" y2="312.31" gradientTransform="matrix(1, 0, 0, 1, 0, 0)" xlink:href="#a"/><linearGradient id="ag" x1="696.61" y1="380.75" x2="582.73" y2="217.25" xlink:href="#ac"/><linearGradient id="ah" x1="-1971.99" y1="-66.23" x2="-1971.99" y2="-98.79" gradientTransform="translate(2147.59 1384.4) rotate(34.21)" xlink:href="#a"/><linearGradient id="ai" x1="568.7" y1="210.44" x2="555.09" y2="175.85" gradientUnits="userSpaceOnUse"><stop offset="0" stop-color="#444b8c"/><stop offset="1" stop-color="#3e4177"/></linearGradient><linearGradient id="aj" x1="-1995" y1="-75.62" x2="-1979.78" y2="-105.22" gradientTransform="translate(2147.59 1384.4) rotate(34.21)" xlink:href="#a"/><linearGradient id="ak" x1="332.78" y1="525.1" x2="318.87" y2="479.25" gradientTransform="translate(43.56 17.91) rotate(0.79)" xlink:href="#i"/><linearGradient id="al" x1="320.79" y1="516.17" x2="320.79" y2="442.51" gradientTransform="translate(43.56 17.91) rotate(0.79)" xlink:href="#a"/><linearGradient id="am" x1="347.91" y1="516.17" x2="347.91" y2="442.51" gradientTransform="translate(43.56 17.91) rotate(0.79)" xlink:href="#a"/><linearGradient id="an" x1="353.03" y1="518.96" x2="339.13" y2="473.1" gradientTransform="translate(43.56 17.91) rotate(0.79)" xlink:href="#i"/><linearGradient id="ao" x1="314.42" y1="357.21" x2="307.66" y2="509.43" gradientTransform="translate(43.56 17.91) rotate(0.79)" xlink:href="#r"/><linearGradient id="ap" x1="314.42" y1="357.21" x2="307.66" y2="509.43" gradientTransform="translate(43.56 17.91) rotate(0.79)" xlink:href="#r"/><linearGradient id="aq" x1="417.55" y1="421.97" x2="293.53" y2="416.33" gradientTransform="translate(43.56 17.91) rotate(0.79)" xlink:href="#r"/><linearGradient id="ar" x1="233.99" y1="454.47" x2="321.94" y2="266.54" gradientTransform="translate(43.56 17.91) rotate(0.79)" xlink:href="#g"/><linearGradient id="as" x1="-2330.75" y1="6.61" x2="-2262.05" y2="147.88" gradientTransform="matrix(-0.98, -0.19, -0.19, 0.98, -1881.98, -176.61)" xlink:href="#g"/><linearGradient id="at" x1="330.91" y1="210.67" x2="315.04" y2="236.34" gradientTransform="translate(43.56 17.91) rotate(0.79)" xlink:href="#a"/><linearGradient id="au" x1="389.99" y1="250.41" x2="358.02" y2="302.14" gradientTransform="translate(43.56 17.91) rotate(0.79)" xlink:href="#i"/><linearGradient id="av" x1="426.9" y1="274.99" x2="399.28" y2="326.86" gradientTransform="matrix(1, 0, 0, 1, 0, 0)" xlink:href="#a"/><linearGradient id="aw" x1="386.73" y1="247.09" x2="394.34" y2="231.3" gradientTransform="translate(43.56 17.91) rotate(0.79)" xlink:href="#j"/><linearGradient id="ax" x1="429.87" y1="244.99" x2="422.87" y2="310.89" gradientTransform="matrix(1, 0, 0, 1, 0, 0)" xlink:href="#a"/><linearGradient id="ay" x1="428.92" y1="244.89" x2="421.92" y2="310.79" gradientTransform="matrix(1, 0, 0, 1, 0, 0)" xlink:href="#a"/><linearGradient id="az" x1="422.63" y1="244.22" x2="415.63" y2="310.12" gradientTransform="matrix(1, 0, 0, 1, 0, 0)" xlink:href="#a"/><linearGradient id="ba" x1="396.76" y1="270.85" x2="389.09" y2="283.27" gradientTransform="translate(43.56 17.91) rotate(0.79)" xlink:href="#a"/><linearGradient id="bb" x1="273.46" y1="472.94" x2="361.41" y2="285.02" gradientTransform="translate(43.56 17.91) rotate(0.79)" xlink:href="#g"/><linearGradient id="bc" x1="242.79" y1="318.17" x2="306.93" y2="181.12" gradientTransform="translate(43.56 17.91) rotate(0.79)" xlink:href="#i"/><linearGradient id="bd" x1="260.22" y1="531.92" x2="343.27" y2="531.92" xlink:href="#p"/><linearGradient id="be" x1="-5181.33" y1="495.59" x2="-5172.09" y2="495.59" gradientTransform="matrix(-1, 0, 0, 1, -4874.96, 0)" xlink:href="#p"/><linearGradient id="bf" x1="-5130.87" y1="485.77" x2="-5147.8" y2="463.71" gradientTransform="matrix(-1, 0, 0, 1, -4874.96, 0)" xlink:href="#r"/><linearGradient id="bg" x1="469.74" y1="334.79" x2="461.19" y2="359.62" xlink:href="#i"/><linearGradient id="bh" x1="441.32" y1="335.93" x2="521.64" y2="335.93" xlink:href="#r"/><linearGradient id="bi" x1="440.11" y1="335.93" x2="520.44" y2="335.93" xlink:href="#i"/><linearGradient id="bj" x1="399.43" y1="363.03" x2="520.44" y2="363.03" xlink:href="#i"/><linearGradient id="bk" x1="535.47" y1="377.38" x2="561.57" y2="432.21" gradientTransform="matrix(1, 0, 0, 1, 0, 0)" xlink:href="#a"/><linearGradient id="bl" x1="544.68" y1="364.82" x2="535.63" y2="388.33" gradientTransform="matrix(1, 0, 0, 1, 0, 0)" xlink:href="#a"/><linearGradient id="bm" x1="535.47" y1="374.06" x2="561.57" y2="428.89" gradientTransform="matrix(1, 0, 0, 1, 0, 0)" xlink:href="#a"/><linearGradient id="bn" x1="544.68" y1="361.5" x2="535.63" y2="385.01" gradientTransform="matrix(1, 0, 0, 1, 0, 0)" xlink:href="#a"/><linearGradient id="bo" x1="535.47" y1="370.74" x2="561.57" y2="425.57" gradientTransform="matrix(1, 0, 0, 1, 0, 0)" xlink:href="#a"/><linearGradient id="bp" x1="544.68" y1="358.18" x2="535.63" y2="381.68" gradientTransform="matrix(1, 0, 0, 1, 0, 0)" xlink:href="#a"/><linearGradient id="bq" x1="-3480.29" y1="187.25" x2="-3378.35" y2="187.25" gradientTransform="matrix(-1, 0, 0, 1, -2999.68, 0)" xlink:href="#g"/><linearGradient id="br" x1="-3466.83" y1="160.44" x2="-3378.37" y2="276.94" gradientTransform="matrix(-1, 0, 0, 1, -2999.68, 0)" xlink:href="#g"/><linearGradient id="bs" x1="137.7" y1="815.1" x2="141.88" y2="503.95" xlink:href="#i"/><linearGradient id="bt" x1="145.24" y1="813.46" x2="149.41" y2="503.4" gradientTransform="matrix(1, 0, 0, 1, 0, 0)" xlink:href="#j"/><linearGradient id="bu" x1="65.37" y1="348.8" x2="236.1" y2="348.8" gradientTransform="matrix(1, 0, 0, 1, 0, 0)" xlink:href="#j"/><linearGradient id="bv" x1="65.37" y1="376.51" x2="236" y2="376.51" gradientTransform="matrix(1, 0, 0, 1, 0, 0)" xlink:href="#j"/><linearGradient id="bw" x1="153.41" y1="310.57" x2="142.51" y2="559.16" gradientTransform="matrix(1, 0, 0, 1, 0, 0)" xlink:href="#e"/><linearGradient id="bx" x1="204.09" y1="338.56" x2="201.85" y2="389.56" gradientUnits="userSpaceOnUse"><stop offset="0" stop-color="#311944"/><stop offset="1" stop-color="#a03976"/></linearGradient><linearGradient id="by" x1="217.02" y1="338.56" x2="214.78" y2="389.56" xlink:href="#bx"/><linearGradient id="bz" x1="204.08" y1="352.14" x2="201.69" y2="406.78" xlink:href="#bx"/><linearGradient id="ca" x1="217.04" y1="351.17" x2="214.49" y2="409.44" xlink:href="#bx"/><linearGradient id="cb" x1="3163.8" y1="-6261.83" x2="3161.73" y2="-6214.46" gradientTransform="translate(-6043 -2823) rotate(90)" xlink:href="#bx"/><linearGradient id="cc" x1="3191.39" y1="-6262.14" x2="3189.15" y2="-6211.16" gradientTransform="translate(-6043 -2823) rotate(90)" xlink:href="#bx"/><linearGradient id="cd" x1="238.53" y1="332.31" x2="-28.82" y2="481.03" xlink:href="#ai"/><linearGradient id="ce" x1="244.6" y1="350.86" x2="-14.34" y2="494.9" xlink:href="#ai"/><linearGradient id="cf" x1="250.12" y1="368.25" x2="-1.1" y2="508.01" xlink:href="#ai"/><linearGradient id="cg" x1="257.52" y1="384.62" x2="13.91" y2="520.14" xlink:href="#ai"/><linearGradient id="ch" x1="252.08" y1="353.68" x2="-16.59" y2="503.13" xlink:href="#ai"/><linearGradient id="ci" x1="257.55" y1="372.05" x2="-2.67" y2="516.8" xlink:href="#ai"/><linearGradient id="cj" x1="262.52" y1="389.27" x2="10.06" y2="529.71" xlink:href="#ai"/><linearGradient id="ck" x1="269.38" y1="405.45" x2="24.57" y2="541.64" xlink:href="#ai"/><linearGradient id="cl" x1="265.73" y1="374.29" x2="-4.22" y2="524.46" xlink:href="#ai"/><linearGradient id="cm" x1="270.6" y1="392.49" x2="9.14" y2="537.94" xlink:href="#ai"/><linearGradient id="cn" x1="275.02" y1="409.55" x2="21.35" y2="550.66" xlink:href="#ai"/><linearGradient id="co" x1="281.35" y1="425.56" x2="35.37" y2="562.4" xlink:href="#ai"/><linearGradient id="cp" x1="279.49" y1="394.14" x2="8.28" y2="545.02" xlink:href="#ai"/><linearGradient id="cq" x1="283.76" y1="412.19" x2="21.08" y2="558.31" xlink:href="#ai"/><linearGradient id="cr" x1="287.63" y1="429.1" x2="32.78" y2="570.87" xlink:href="#ai"/><linearGradient id="cs" x1="293.43" y1="415.88" x2="20.87" y2="567.5" xlink:href="#ai"/><linearGradient id="ct" x1="297.09" y1="433.74" x2="33.11" y2="580.59" xlink:href="#ai"/><linearGradient id="cu" x1="300.39" y1="450.48" x2="44.28" y2="592.95" xlink:href="#ai"/><linearGradient id="cv" x1="299.05" y1="455.7" x2="52.22" y2="593.01" xlink:href="#ai"/><linearGradient id="cw" x1="95.63" y1="395.58" x2="91.3" y2="494.29" xlink:href="#i"/><linearGradient id="cx" x1="135.59" y1="394.83" x2="131.34" y2="491.71" xlink:href="#i"/><linearGradient id="cy" x1="175.56" y1="394.08" x2="171.4" y2="489.14" xlink:href="#i"/><linearGradient id="cz" x1="214.19" y1="393.36" x2="210.09" y2="486.66" xlink:href="#i"/><linearGradient id="da" x1="95.62" y1="424.19" x2="91.22" y2="524.54" xlink:href="#i"/><linearGradient id="db" x1="135.57" y1="422.96" x2="131.25" y2="521.43" xlink:href="#i"/><linearGradient id="dc" x1="175.52" y1="421.74" x2="171.28" y2="518.32" xlink:href="#i"/><linearGradient id="dd" x1="214.12" y1="420.55" x2="209.97" y2="515.33" xlink:href="#i"/><linearGradient id="de" x1="95.62" y1="452.11" x2="91.15" y2="554.06" xlink:href="#i"/><linearGradient id="df" x1="135.54" y1="450.42" x2="131.16" y2="550.43" xlink:href="#i"/><linearGradient id="dg" x1="175.48" y1="448.72" x2="171.17" y2="546.81" xlink:href="#i"/><linearGradient id="dh" x1="214.06" y1="447.09" x2="209.84" y2="543.31" xlink:href="#i"/><linearGradient id="di" x1="95.61" y1="479.33" x2="91.07" y2="582.86" xlink:href="#i"/><linearGradient id="dj" x1="135.52" y1="477.19" x2="131.07" y2="578.72" xlink:href="#i"/><linearGradient id="dk" x1="175.43" y1="475.04" x2="171.07" y2="574.59" xlink:href="#i"/><linearGradient id="dl" x1="95.61" y1="508.52" x2="90.99" y2="613.73" xlink:href="#i"/><linearGradient id="dm" x1="135.49" y1="505.89" x2="130.97" y2="609.05" xlink:href="#i"/><linearGradient id="dn" x1="175.39" y1="503.26" x2="170.95" y2="604.38" xlink:href="#i"/><linearGradient id="do" x1="215.16" y1="459.63" x2="204.09" y2="712.14" xlink:href="#i"/><linearGradient id="dp" x1="635.08" y1="518.79" x2="774.43" y2="518.79" gradientUnits="userSpaceOnUse"><stop offset="0" stop-color="#fcb148"/><stop offset="0.05" stop-color="#fdba46"/><stop offset="0.14" stop-color="#ffc244"/><stop offset="0.32" stop-color="#ffc444"/><stop offset="0.48" stop-color="#fdb946"/><stop offset="0.78" stop-color="#f99c4d"/><stop offset="0.87" stop-color="#f8924f"/><stop offset="1" stop-color="#f8924f"/></linearGradient><linearGradient id="dq" x1="705.39" y1="503.09" x2="712.74" y2="564.6" gradientUnits="userSpaceOnUse"><stop offset="0" stop-color="#ffdb44"/><stop offset="1" stop-color="#feef06"/></linearGradient><linearGradient id="dr" x1="705.08" y1="500.35" x2="707.33" y2="519.24" xlink:href="#dq"/><linearGradient id="ds" x1="-3807.95" y1="772.58" x2="-3805.7" y2="791.4" gradientTransform="translate(-3100.75 1289.84) rotate(180)" gradientUnits="userSpaceOnUse"><stop offset="0" stop-color="#f36f56"/><stop offset="0.31" stop-color="#f99c4c"/><stop offset="0.55" stop-color="#fdb946"/><stop offset="0.68" stop-color="#ffc444"/><stop offset="0.8" stop-color="#ffc244"/><stop offset="0.87" stop-color="#feba46"/><stop offset="0.92" stop-color="#fcad49"/><stop offset="0.96" stop-color="#f99a4d"/><stop offset="1" stop-color="#f68252"/><stop offset="1" stop-color="#f57e53"/></linearGradient><linearGradient id="dt" x1="618.24" y1="504.68" x2="757.59" y2="504.68" xlink:href="#dp"/><linearGradient id="du" x1="688.56" y1="488.98" x2="695.9" y2="550.49" xlink:href="#dq"/><linearGradient id="dv" x1="688.24" y1="486.24" x2="690.49" y2="505.13" xlink:href="#dq"/><linearGradient id="dw" x1="-3791.11" y1="786.69" x2="-3788.86" y2="805.51" xlink:href="#ds"/><linearGradient id="dx" x1="632.77" y1="490.61" x2="772.12" y2="490.61" xlink:href="#dp"/><linearGradient id="dy" x1="703.09" y1="474.91" x2="710.43" y2="536.42" xlink:href="#dq"/><linearGradient id="dz" x1="702.77" y1="472.17" x2="705.02" y2="491.06" xlink:href="#dq"/><linearGradient id="ea" x1="-3805.64" y1="800.76" x2="-3803.39" y2="819.58" xlink:href="#ds"/><linearGradient id="eb" x1="641.58" y1="476.5" x2="780.94" y2="476.5" xlink:href="#dp"/><linearGradient id="ec" x1="711.9" y1="460.8" x2="719.25" y2="522.31" xlink:href="#dq"/><linearGradient id="ed" x1="711.58" y1="458.06" x2="713.84" y2="476.95" xlink:href="#dq"/><linearGradient id="ee" x1="-3814.45" y1="814.87" x2="-3812.21" y2="833.69" xlink:href="#ds"/><linearGradient id="ef" x1="635.08" y1="461.28" x2="774.43" y2="461.28" xlink:href="#dp"/><linearGradient id="eg" x1="705.39" y1="445.58" x2="712.74" y2="507.08" xlink:href="#dq"/><linearGradient id="eh" x1="705.08" y1="442.84" x2="707.33" y2="461.73" xlink:href="#dq"/><linearGradient id="ei" x1="-3807.95" y1="830.09" x2="-3805.7" y2="848.91" xlink:href="#ds"/><linearGradient id="ej" x1="618.24" y1="447.17" x2="757.59" y2="447.17" xlink:href="#dp"/><linearGradient id="ek" x1="688.56" y1="431.47" x2="695.9" y2="492.97" xlink:href="#dq"/><linearGradient id="el" x1="688.24" y1="428.73" x2="690.49" y2="447.62" xlink:href="#dq"/><linearGradient id="em" x1="-3791.11" y1="844.2" x2="-3788.86" y2="863.03" xlink:href="#ds"/><linearGradient id="en" x1="632.77" y1="433.1" x2="772.12" y2="433.1" xlink:href="#dp"/><linearGradient id="eo" x1="703.09" y1="417.4" x2="710.43" y2="478.9" xlink:href="#dq"/><linearGradient id="ep" x1="702.77" y1="414.66" x2="705.02" y2="433.55" xlink:href="#dq"/><linearGradient id="eq" x1="-3805.64" y1="858.27" x2="-3803.39" y2="877.09" xlink:href="#ds"/><linearGradient id="er" x1="625.21" y1="418.99" x2="764.57" y2="418.99" xlink:href="#dp"/><linearGradient id="es" x1="695.53" y1="403.29" x2="702.88" y2="464.79" xlink:href="#dq"/><linearGradient id="et" x1="695.21" y1="400.55" x2="697.47" y2="419.44" xlink:href="#dq"/><linearGradient id="eu" x1="-3798.08" y1="872.38" x2="-3795.83" y2="891.2" xlink:href="#ds"/><linearGradient id="ev" x1="-163.37" y1="-979.95" x2="-24.01" y2="-979.95" gradientTransform="matrix(0.58, 0.81, -0.81, 0.58, 55.38, 1116.65)" xlink:href="#dp"/><linearGradient id="ew" x1="-93.05" y1="-995.64" x2="-85.7" y2="-934.15" gradientTransform="matrix(0.58, 0.81, -0.81, 0.58, 55.38, 1116.65)" xlink:href="#dq"/><linearGradient id="ex" x1="-93.37" y1="-998.39" x2="-91.11" y2="-979.5" gradientTransform="matrix(0.58, 0.81, -0.81, 0.58, 55.38, 1116.65)" xlink:href="#dq"/><linearGradient id="ey" x1="-3008.94" y1="2270.86" x2="-3006.69" y2="2289.68" gradientTransform="matrix(-0.58, -0.81, 0.81, -0.58, -2792.2, -662.37)" xlink:href="#ds"/></defs><g style="isolation:isolate"><rect width="902" height="564" fill="#eee"/><path d="M471.06,9.62c-135.56-4.06-253,95.57-270.73,226.3-19.39,142.93,87.36,271.54,218.72,292.13,163.39,25.62,321.87-122.59,307.64-283.38C716,123.52,608.85,13.74,471.06,9.62Z" fill="#f4f7fa"/><path d="M287,358.34l53.12-2.13s8.91-27.65-4.88-46.36c-28.13-38.18,7.27-60.15,20.71-71.58,20.29-17.22,30.65-41.25-.55-50.28s-2.18-58,34.59-81.07c36-22.61,16.55-99.6-65.81-57.83C275,74,285,126.85,283.67,154.71s-42.51,31.82-27,65.17c13.24,28.5,37,48.7,20.32,69.33S259.34,332.24,287,358.34Z" fill="url(#a)"/><g clip-path="url(#c)"><path d="M287,358.34l53.12-2.13s8.91-27.65-4.88-46.36c-28.13-38.18,7.27-60.15,20.71-71.58,20.29-17.22,28.66-38.76,2.93-51.49-29.11-14.4-5.66-56.77,31.11-79.86,36-22.61,16.55-99.6-65.81-57.83C275,74,285,126.85,283.67,154.71s-42.51,31.82-27,65.17c13.24,28.5,37,48.7,20.32,69.33S259.34,332.24,287,358.34Z" fill="url(#d)"/><g opacity="0.5" style="mix-blend-mode:soft-light"><path d="M310.18,362.34l1.1-.24c-.16-.68-15.19-68.63-9.78-140.5,5-66.2,28.83-149.36,114.2-169.58l-.26-1.09c-38,9-67.18,31-86.73,65.4-15.62,27.48-25.15,62.88-28.34,105.21C295,293.57,310,361.66,310.18,362.34Z" fill="#beb8f2"/><path d="M321.16,131.06l1.11-.19c-6.1-36.85,5.9-90,6-90.56l-1.09-.26C327.08,40.59,315,94,321.16,131.06Z" fill="#beb8f2"/><path d="M334.81,108.5c36.81-25,72.54-15.17,72.89-15.06l.31-1.08c-.36-.11-36.57-10.13-73.83,15.21Z" fill="#beb8f2"/><path d="M300.52,268.78c10.42-53.38,81.81-69.23,82.52-69.33l-.08-1.11c-.7,0-73,16.37-83.54,70.22Z" fill="#beb8f2"/><path d="M299.28,246.39l1.08-.28c-8.42-33.66-46.18-55.54-46.56-55.76l-.56,1C253.62,191.54,291,213.19,299.28,246.39Z" fill="#beb8f2"/><path d="M309.15,351.35c.79-20.64,29.52-38.11,29.81-38.29l-.58-1c-1.21.72-29.54,18-30.36,39.21Z" fill="#beb8f2"/><path d="M305.37,335.31l1.1-.23c-3.4-16-28.43-32.93-36.66-38.5-1.16-.79-2.17-1.47-2.32-1.62l-.81.78a28.85,28.85,0,0,0,2.5,1.77C277.32,303,302.07,319.77,305.37,335.31Z" fill="#beb8f2"/></g></g><path d="M325.12,331c14.18,2.5,20.8,14.79,24.19,24.44a14.74,14.74,0,0,0-1.65,3.24c-5.4,11.67-10.19,15.5-17.34,26.16-1.53,2.3-8.09,7.66-10.92,9.68l-5.32,3.68s-31.69-9.69-28.19-28.23S260.45,338.44,246,329.65c-8.89-5.4-11.22-10.71-14.17-13.22-31.21-26.54-48.3-24-53.15-38.85-5.35-16.41,13.95-24.22,9.08-42.38-5.51-20.5-33.82-24.31-34.7-44.88a27,27,0,0,1,1.46-11.56c4.1-10.87,14.75-14.2,12.21-26.07-5.1-23.87,5.67-48.74,30.79-49.91,24.8-1.16,50.31,35.63,46.06,90.65,1.43,39.47.63,44.68,17,53.61,11.48,6.24,46.74,15.59,46.08,38.39S308.91,328.17,325.12,331Z" fill="url(#e)"/><g clip-path="url(#f)"><g opacity="0.5" style="mix-blend-mode:soft-light"><path d="M334.8,379.86l-.66.68c-3.78-3.62-7.53-7.31-11.17-11a508.86,508.86,0,0,1-68.89-85.84,415.43,415.43,0,0,1-38.73-78,357,357,0,0,1-17.2-64.29A297.65,297.65,0,0,1,194,97.76c0-2.44.06-4.94.15-7.36.12-3.22.25-6.56.05-9.76l.92-.12a98.09,98.09,0,0,1-.06,9.85c-.09,2.4-.18,4.89-.14,7.3a294.61,294.61,0,0,0,4.11,43.52,357.08,357.08,0,0,0,17.16,64.13,415,415,0,0,0,38.65,77.88,507.69,507.69,0,0,0,68.79,85.7C327.28,372.57,331,376.25,334.8,379.86Z" fill="#fcfdfe"/><path d="M229.47,237l-.82.45c-17.07-33.73-77.26-58.92-77.86-59.17l.4-.85C151.8,177.69,212.27,203,229.47,237Z" fill="#fcfdfe"/><path d="M285.87,326.55l-.77.55c-14.41-21.37.42-71.45.57-72l.88.2C286.4,255.85,271.69,305.52,285.87,326.55Z" fill="#fcfdfe"/><path d="M295.16,337.89l-.67.66c-11.88-11.88-35-21.27-65-26.44-1.51-.27-1.51-.27-1.63-.38l.66-.67-.33.33.19-.42c.1,0,.67.13,1.33.24C259.92,316.41,283.17,325.89,295.16,337.89Z" fill="#fcfdfe"/><path d="M328,373.17l-.82.45c-8.46-16.55,3.71-43.16,3.83-43.43l.83.33C331.72,330.78,319.74,357,328,373.17Z" fill="#fcfdfe"/><path d="M334,381c-14-5.78-30.36-7.63-50.14-5.65l0-.9c19.93-2,36.47-.13,50.56,5.71Z" fill="#fcfdfe"/><path d="M201.36,153.7l-.84.41c-8.39-19.36-21.89-37.42-26.32-43.35a25.86,25.86,0,0,1-1.55-2.14l.83-.45c.08.15.69,1,1.47,2C179.4,116.14,192.93,134.25,201.36,153.7Z" fill="#fcfdfe"/><path d="M210.15,187.54l-.91.16c-1.94-20.07,24.27-53.29,25.39-54.69l.7.53C235.06,133.88,208.24,167.85,210.15,187.54Z" fill="#fcfdfe"/></g></g><path d="M359.69,328.75c-2.63,1.93,7.79,32-13.76,22.95-5.38-2.27-20-13.87-38.06,2l-10.5,9.24c-10.1-4.85-18.72-11.3-11.2-23.92,11.68-19.6-13.47-46.25-26.9-51.39-16.62-6.37-55-22-37.37-52.56,14.64-25.44,29.21-39.2,6.7-65.2s-23-55,2.37-76.16c26.71-22.28,17-73.11,47.81-82.16C332.51-4.22,352.67,80.89,324.18,138s10.91,48.08,31.69,67.12a48.57,48.57,0,0,1,7,9.14c15.34,25.89-3.45,50.61-2.87,83.13C360.8,341.71,364.13,325.51,359.69,328.75Z" fill="url(#g)"/><g clip-path="url(#h)"><g opacity="0.5" style="mix-blend-mode:soft-light"><path d="M326.51,331.7l-1.38.88c-59.81-96-70.23-222.79-27.21-330.78l1.49.5C256.57,109.84,267,236.06,326.51,331.7Z" fill="#fcfdfe"/><path d="M298.63,276.34l-1.2,1.12c-30.88-32-84.34-29.4-84.88-29.37v-1.57C213.09,246.49,267.25,243.82,298.63,276.34Z" fill="#fcfdfe"/><path d="M316,313.71l-1.57.46c-11-44.07,48.29-107.44,48.89-108.07l1.15,1C363.89,207.77,305.19,270.48,316,313.71Z" fill="#fcfdfe"/><path d="M274.14,167.18l-1.52.59c-11.8-33.93-63.4-54.77-63.92-55l.67-1.47C209.9,111.54,262.12,132.63,274.14,167.18Z" fill="#fcfdfe"/><path d="M276,93.84l-1.55-.36c12-40.51,61.67-71,62.17-71.27l.79,1.33C336.89,23.84,287.76,54,276,93.84Z" fill="#fcfdfe"/></g></g><path d="M568.44,499.55c0,5.12-3.89,9.47-8.69,9.72L254.28,525.13a9.49,9.49,0,0,1-10.16-9.51V62.42A9.39,9.39,0,0,1,254.28,53l4.09-.22L559.75,71.63c4.8.3,8.69,4.68,8.69,9.8Z" fill="#97a6b7"/><path d="M574.46,499.34c0,5.12-3.89,9.47-8.7,9.72L260.3,524.92a9.5,9.5,0,0,1-10.17-9.51V62.21a9.39,9.39,0,0,1,10.17-9.42L565.76,71.42c4.81.3,8.7,4.68,8.7,9.8Z" fill="#d8dee8"/><path d="M339.55,95.39c-7.6,9.77-8.68,28.2,4.33,35.8,28.21,17.35,65.08,11.93,92.2-6.51,20-14,11.46-39.87,5.75-60.82L381.75,60.2C376.58,74.65,349.07,82.7,339.55,95.39Z" fill="#d8dee8" style="mix-blend-mode:multiply"/><path d="M560.09,481.2a8.44,8.44,0,0,1-7.72,8.57L275.78,502.71a8.38,8.38,0,0,1-8.9-8.41V106.37a8.34,8.34,0,0,1,8.9-8.37l276.59,13.93a8.48,8.48,0,0,1,7.72,8.6Z" fill="#fff"/><path d="M484.26,99.59a4.91,4.91,0,0,0-4.62-4.18l-14.56-.78c-6.57-.36-11.33-5.84-11-12.74l.72-16a5.07,5.07,0,0,0-4.73-5.49l-4.7-.29A6,6,0,0,1,439.89,53c1-6.6-3.34-12.28-9.7-12.71s-12.38,4.6-13.39,11.23a7.63,7.63,0,0,1-2.65,4.68,7,7,0,0,1-4.95,1.7l-4.79-.3A6.47,6.47,0,0,0,398,62.47l-4.16,16C392,85.39,385.45,90.35,378.61,90l-15.32-.82a6.62,6.62,0,0,0-6.15,3.73l-11,22.06,1,1.2,141,5.49ZM428.11,54a3.11,3.11,0,0,1-2.85-3.72A3.84,3.84,0,0,1,429.18,47,3.12,3.12,0,0,1,432,50.72,3.84,3.84,0,0,1,428.11,54Z" fill="url(#i)"/><path d="M485.21,100.8a4.93,4.93,0,0,0-4.62-4.19L466,95.83c-6.58-.35-11.34-5.83-11-12.73l.72-16a5.1,5.1,0,0,0-4.74-5.5l-4.7-.29a6,6,0,0,1-5.46-7.15c1-6.59-3.33-12.28-9.69-12.7s-12.39,4.6-13.39,11.23a7.68,7.68,0,0,1-2.65,4.68,7.11,7.11,0,0,1-5,1.7l-4.8-.3a6.47,6.47,0,0,0-6.45,4.87l-4.17,16c-1.8,6.92-8.33,11.88-15.18,11.51l-15.31-.82a6.62,6.62,0,0,0-6.15,3.73l-11,22.05L489,122.85ZM429.06,55.22a3.14,3.14,0,0,1-2.86-3.73,3.86,3.86,0,0,1,3.92-3.29A3.13,3.13,0,0,1,433,51.93,3.84,3.84,0,0,1,429.06,55.22Z" fill="#97a6b7"/><path d="M480.59,96.61,466,95.83a11.37,11.37,0,0,1-9.73-6.41c-13.49,2.83-27.7-.12-41.91,2.72-9.77,2.17-8.68,17.35-19.53,18.44-15.55,2.1-30.95,2.25-46.18,2.4l-1.58,3.17L489,122.85l-3.82-22A4.93,4.93,0,0,0,480.59,96.61Z" fill="#97a6b7" opacity="0.3" style="mix-blend-mode:multiply"/><polygon points="302.94 422.88 296.46 423.08 296.46 373.74 302.94 373.63 302.94 422.88" fill="#d8dee8"/><polygon points="315.41 422.51 308.97 422.7 308.97 388.9 315.4 388.77 315.41 422.51" fill="#d8dee8"/><polygon points="327.8 422.14 321.4 422.33 321.39 379.77 327.78 379.65 327.8 422.14" fill="#d8dee8"/><polygon points="340.1 421.77 333.75 421.96 333.73 388.18 340.09 388.05 340.1 421.77" fill="#d8dee8"/><polygon points="352.33 421.4 346.01 421.59 346 397.14 352.31 396.99 352.33 421.4" fill="#d8dee8"/><polygon points="364.47 421.04 358.2 421.23 358.17 372.69 364.44 372.59 364.47 421.04" fill="#d8dee8"/><polygon points="376.54 420.68 370.31 420.87 370.3 406.33 376.53 406.17 376.54 420.68" fill="#d8dee8"/><polygon points="388.53 420.32 382.34 420.51 382.31 381.81 388.5 381.69 388.53 420.32" fill="#d8dee8"/><polygon points="539.27 353.11 296.46 356.1 296.46 343.27 539.24 341.09 539.27 353.11" fill="#d8dee8"/><polygon points="539.49 448.79 296.46 458.32 296.46 445.46 539.46 436.76 539.49 448.79" fill="#d8dee8"/><polygon points="413.84 158.18 296.46 153.37 296.46 139.47 413.82 144.71 413.84 158.18" fill="#d8dee8"/><polygon points="539.33 378.71 411.29 381.21 411.28 372.01 539.31 369.83 539.33 378.71" fill="#d8dee8"/><polygon points="539.37 397.53 411.32 400.71 411.31 392.04 539.35 389.17 539.37 397.53" fill="#d8dee8"/><polygon points="539.41 416.88 411.34 420.75 411.33 411.54 539.39 407.99 539.41 416.88" fill="#d8dee8"/><polygon points="539.63 316.69 295.15 317.21 295.15 179.93 298.55 180.06 298.42 313.66 539.56 313.38 539.63 316.69" fill="#d8dee8"/><path d="M309.85,305.32a1.81,1.81,0,0,1-1.24-.47,1.6,1.6,0,0,1,0-2.36l57.94-56a1.76,1.76,0,0,1,2.23-.16L398.28,267l53.37-47.42a1.65,1.65,0,0,1,2.07-.08l28.73,20.85,42.38-44.42a1.6,1.6,0,0,1,2.31,2.2l-43.29,45.43a1.62,1.62,0,0,1-2.12.18l-28.82-20.89-53.33,47.45a1.74,1.74,0,0,1-2.14.11L368,249.8l-56.84,55A1.81,1.81,0,0,1,309.85,305.32Z" fill="#d8dee8"/><path d="M367.37,241.41c-3.79.14-6.71,3.05-6.5,6.5s3.47,6.13,7.26,6,6.69-3.06,6.48-6.5S371.16,241.27,367.37,241.41Z" fill="#97a6b7"/><path d="M309.27,297.55c-3.92.2-6.93,3.2-6.72,6.7s3.57,6.18,7.49,6,6.9-3.21,6.69-6.7S313.18,297.35,309.27,297.55Z" fill="#97a6b7"/><path d="M398.05,262.89a6.37,6.37,0,0,0-6.39,6.49c.2,3.42,3.41,6.06,7.14,5.88a6.36,6.36,0,0,0,6.37-6.48A6.63,6.63,0,0,0,398.05,262.89Z" fill="#97a6b7"/><path d="M482.3,235.37a6.11,6.11,0,0,0-6.1,6.29,6.44,6.44,0,0,0,6.83,5.8,6.1,6.1,0,0,0,6.08-6.29A6.44,6.44,0,0,0,482.3,235.37Z" fill="#97a6b7"/><path d="M532.27,196.85a6.41,6.41,0,0,0-6.64-5.81,5.9,5.9,0,0,0-6,6.14,6.39,6.39,0,0,0,6.66,5.8A5.9,5.9,0,0,0,532.27,196.85Z" fill="#97a6b7"/><path d="M452.4,214.66a6.14,6.14,0,0,0-6.2,6.31,6.56,6.56,0,0,0,6.94,5.88,6.13,6.13,0,0,0,6.17-6.3A6.56,6.56,0,0,0,452.4,214.66Z" fill="#97a6b7"/><path d="M628.05,314.63c9,12.7,5.44,27.72,1.29,38.16a14.46,14.46,0,0,0-3.5,1.42c-12.21,5.48-18.5,5-31.33,8.35-2.77.72-11.47.18-15-.29l-6.59-1s-17.25-31.75-1.7-44.28,2.71-44.92-2.13-63c-13.14-49,41.46-54.45,29.61-118.79-3.15-17.12-14.88-48.7-3-65,13.56-18.57,28.38-5.56,36.54-20.5C645,26.37,670.47,14.13,690.31,32.06c19.58,17.69,8,62.27-33.51,104.06-26.39,33.36-25.36,41.69-19.16,61.3,4.34,13.74,24.52,47.88,8.15,66S617.76,300.11,628.05,314.63Z" fill="url(#j)"/><g clip-path="url(#k)"><g opacity="0.5" style="mix-blend-mode:soft-light"><path d="M601.37,361.83l-1,.06c-.34-5.79-.61-11.63-.81-17.36-1.46-42.44,1.1-83.48,7.6-122a489.87,489.87,0,0,1,25-92.92,408.94,408.94,0,0,1,31.73-65.49,327.21,327.21,0,0,1,27.26-38.8c1.66-2,3.47-4,5.23-5.9,2.34-2.55,4.76-5.18,6.83-7.94l.78.58c-2.11,2.8-4.54,5.45-6.89,8-1.75,1.9-3.56,3.87-5.2,5.87a326,326,0,0,0-27.18,38.68A407.93,407.93,0,0,0,633.09,130a489.56,489.56,0,0,0-24.94,92.73c-6.49,38.44-9,79.41-7.59,121.79C600.76,350.22,601,356.05,601.37,361.83Z" fill="#fcfdfe"/><path d="M621.08,165.85l-.94-.24C630.7,125.2,602.67,59.35,602.38,58.69l.9-.38C603.56,59,631.72,125.12,621.08,165.85Z" fill="#fcfdfe"/><path d="M601.44,281.47l-1-.13c4-28.3,50-58.11,50.52-58.41l.52.82C651.06,224.05,605.35,253.61,601.44,281.47Z" fill="#fcfdfe"/><path d="M600.58,297.72l-1,0c-.72-18.64-11.66-43.67-30.81-70.49-1-1.35-1-1.35-1-1.53l1-.05-.48,0,.44-.2c0,.09.41.6.84,1.19C588.85,253.67,599.86,278.9,600.58,297.72Z" fill="#fcfdfe"/><path d="M600.9,351.26,600,351c5.11-19.9,32.85-32.51,33.13-32.64l.4.89C633.21,319.39,605.9,331.82,600.9,351.26Z" fill="#fcfdfe"/><path d="M599.94,362.17c-6.55-15.21-17.68-29.05-34-42.3l.62-.75c16.47,13.34,27.69,27.3,34.3,42.67Z" fill="#fcfdfe"/><path d="M657.79,76.6l-.93-.3c7.13-22.13,9.48-47,10.25-55.23.19-2,.26-2.68.33-2.91l.93.26c0,.18-.15,1.31-.29,2.74C667.31,29.38,665,54.36,657.79,76.6Z" fill="#fcfdfe"/><path d="M640.88,110.88l-.79-.55C652.58,92.45,695.56,85,697.38,84.69l.16,1C697.1,85.72,653.15,93.35,640.88,110.88Z" fill="#fcfdfe"/></g></g><g clip-path="url(#l)"><path d="M585.28,401.05l50.49,6.05s12.64-24.45,2.49-44c-20.72-39.87,16.06-55,30.51-63.64,21.79-13,33-31.82,10.65-47.59-25.28-17.83,3.35-53.81,41.6-69.79,37.43-15.65,30.88-90.41-53.28-63.9-50.26,15.83-48.92,66.6-54.42,92.4s-45,23.25-35.49,56.71c8.14,28.58,27.5,51,8.57,67.74S563.17,372.52,585.28,401.05Z" fill="url(#m)"/><g opacity="0.5" style="mix-blend-mode:soft-light"><path d="M606.56,408.3l1.08-.07c0-.65-3.84-66.32,12.27-132.53,14.84-61,50.1-135,133.8-140.92l-.07-1.06c-37.26,2.65-68.19,18.76-91.91,47.89-19,23.27-33.38,54.85-42.87,93.86C602.72,341.84,606.52,407.64,606.56,408.3Z" fill="#beb8f2"/><path d="M652.34,194.21h1.08c-.12-35.3,19.36-83.09,19.56-83.57l-1-.4C671.78,110.71,652.23,158.7,652.34,194.21Z" fill="#beb8f2"/><path d="M668.69,175.23c38.59-17.79,70.81-3.18,71.13-3l.46-.95c-.33-.16-33-15-72,3Z" fill="#beb8f2"/><path d="M611.77,319.55c18-48.21,87.85-52.2,88.53-52.18l.1-1.05c-.67-.08-71.47,4.22-89.64,52.87Z" fill="#beb8f2"/><path d="M614,298.48l1.07-.09c-2.8-32.68-35.1-58.8-35.43-59.06l-.67.82C579.31,240.41,611.26,266.26,614,298.48Z" fill="#beb8f2"/><path d="M607.27,397.89c3.91-19.14,33.71-31.09,34-31.21l-.4-1c-1.25.5-30.64,12.29-34.66,32Z" fill="#beb8f2"/><path d="M606.16,382.35l1.07-.05c-.75-15.42-21.8-35-28.72-41.46-1-.91-1.82-1.69-1.94-1.86l-.88.6a24.36,24.36,0,0,0,2.09,2C584.61,348,605.42,367.36,606.16,382.35Z" fill="#beb8f2"/></g></g><path d="M645.81,389.35c-.15.1-.3.2-.44.31a96,96,0,0,1-32.31,14.6l-7.73,1.38c-3.44-5.62-5.71-11.58,1.58-15.6,11.32-6.25,7-27.59,2-34.4-6.13-8.43-20-28.35-2.65-38.28,14.44-8.27,25.45-10.65,22.2-30.84s5-35,23.31-37.75c19.32-2.88,29.44-31.62,46.88-26.53,30.4,8.88,15.3,58.21-15,78.12s-8.75,27.72-4.32,43.86c6.06,22-25.12,23.8-31.18,34.29A18.68,18.68,0,0,0,645.81,389.35Z" fill="url(#n)"/><g clip-path="url(#o)"><g opacity="0.5" style="mix-blend-mode:soft-light"><path d="M628.41,399h-.92c-.76-67.28,31.13-134.59,83.23-175.68l.57.72C659.41,265,627.65,332,628.41,399Z" fill="#fcfdfe"/><path d="M631.14,362.27l-.9.2c-5.52-25.86-32-41.3-32.22-41.45l.46-.8C598.75,320.37,625.53,336,631.14,362.27Z" fill="#fcfdfe"/><path d="M628.61,386.61l-.89-.26c7.53-25.73,54.47-39.15,54.94-39.29l.25.89C682.44,348.08,636,361.37,628.61,386.61Z" fill="#fcfdfe"/><path d="M651.15,299.44l-.9-.18c4.21-20.85-14.51-47.55-14.7-47.82l.76-.53C636.5,251.18,655.44,278.21,651.15,299.44Z" fill="#fcfdfe"/><path d="M673.39,263l-.64-.67c17.55-16.71,50.28-16.53,50.61-16.52v.92C723,246.67,690.66,246.49,673.39,263Z" fill="#fcfdfe"/></g></g><ellipse cx="630.47" cy="471.08" rx="42.67" ry="17.42" fill="#b7c0ce"/><path d="M673.15,469c0,9.08-19.11,16.44-42.68,16.44S587.8,478.12,587.8,469s19.11-23.94,42.67-23.94S673.15,460,673.15,469Z" fill="url(#p)"/><path d="M673.15,469c0-9.08-19.11-23.94-42.68-23.94a57.83,57.83,0,0,0-28.34,7.48,6.15,6.15,0,0,0-.67,3.25c.48,5.1,8.82,8.24,13.6,9.28,12,2.61,17.92-4.59,27.85-4.32,6.14.17,14.65,3.26,24.74,16.32C671.15,474.72,673.15,472,673.15,469Z" fill="#b7c0ce"/><path d="M632.81,453.35a9.72,9.72,0,0,1-4.79,0,3.09,3.09,0,0,1-2.29-3V402.26h9.49v48.06A3.15,3.15,0,0,1,632.81,453.35Z" fill="#fff"/><path d="M632.81,453.35a9.72,9.72,0,0,1-4.79,0,3.09,3.09,0,0,1-2.29-3V402.26h9.49v48.06A3.15,3.15,0,0,1,632.81,453.35Z" fill="url(#q)"/><path d="M580.33,382l14.5-9.17c.6-3.42,7.44-39.23,35.18-50.48,11.28-4.57,23.42-4,30.08-3.73,13.3.59,22.79,1,27.35,7.36,5.86,8.15-4,15.53-1.93,38.84.83,9.5,2.94,13.72.31,20-3.15,7.54-10.45,11.72-16.13,14.07a82.48,82.48,0,0,1-34.21,10.92c-26.28,2.31-45.91-9-52.66-13.28a8.69,8.69,0,0,1-5.89-6.53A7.65,7.65,0,0,1,580.33,382Z" fill="url(#r)"/><path d="M663,320.54c9.83.29,16,.18,19.33,4.57,3.55,4.61,0,8.54-.71,25-.6,15,2,20.88-2.8,29.17a31,31,0,0,1-6.34,7.38c-13.71,11.19-49.08,11.05-64-12.3-11.88-18.63-6.93-46.1,7-55.18C622.4,314.68,624,319.39,663,320.54Z" fill="url(#s)"/><path d="M579.28,373.78l14.5-9.17s38.83-12.76,74.75,5.24a11.92,11.92,0,0,1,6.53,10.67,8.56,8.56,0,0,1-5.26,7.9,78,78,0,0,1-35.37,13.2c-26.81,2.93-46.77-9.34-52.66-13.29a8.7,8.7,0,0,1-5.9-6.53A7.66,7.66,0,0,1,579.28,373.78Z" fill="url(#t)"/><path d="M563.8,480.57a52.41,52.41,0,0,1,1.28,6.83c0,1.81-20,4.34-20.26,3s3-3.77,5.45-4.73,9.5-3.56,9.5-3.56Z" fill="url(#u)"/><path d="M558.53,475.89l1.14,6.27s2.46,1.35,4.41,0l.48-7Z" fill="url(#v)"/><path d="M600.25,485.93a52.41,52.41,0,0,1,1.28,6.83c0,1.82-19.95,4.35-20.26,3s3-3.77,5.45-4.73,9.5-3.57,9.5-3.57Z" fill="url(#w)"/><path d="M595,481.26l1.15,6.26s2.45,1.36,4.41,0l.48-6.95Z" fill="url(#x)"/><path d="M549,310.73l-5.82,14.66c.28,27,1.69,56.22,4.79,87.37,2.3,23.17,5.3,45.06,8.74,65.55l9.4-1.19a94.36,94.36,0,0,0,7.23-40.39c-.89-17.64-6.42-19.55-7.43-36.43-1.31-21.88,7.38-28.44,10.16-55.1A141.16,141.16,0,0,0,574.51,306Z" fill="url(#y)"/><path d="M574.51,306l-13.8,2.57c-7.19,15.2-8.31,30.51-6.31,37.09,2.84,9.3,8.56,11.89,9,21.42s-4.9,12.31-7.52,23.68c-1.82,7.87-.61,14.87,1.88,28.56,5,27.58,12.41,35.54,7.51,45.11-1.39,2.71-4,6-9.47,8.83.28,1.7.55,3.4.83,5.07l9.4-1.19a94.36,94.36,0,0,0,7.23-40.39c-.89-17.64-6.42-19.55-7.43-36.43-1.31-21.88,7.38-28.44,10.16-55.1A141.16,141.16,0,0,0,574.51,306Z" opacity="0.3" fill="url(#z)" style="mix-blend-mode:multiply"/><path d="M562.11,318.19c6.25,23.39,12.13,48.48,17.29,75.18,6.23,32.23,10.62,62.74,13.66,91.15l10.37-.53c11.44-28,10.81-46.29,7.9-58a172.17,172.17,0,0,1-5.43-26.69,189.26,189.26,0,0,1-1-25.09c.13-18.88,1.78-23.13.92-37.49-.81-13.48-1.3-20.29-5.46-24C589.41,303.09,564,317.11,562.11,318.19Z" fill="url(#aa)"/><path d="M461.7,263.87s-7.6-.65-8.7-1.88-2.76-3.21-2.93-4.34-1.63.56-.3,3-2.45,1.93-3,1.87c-1.35-.14-6.52-.29-6.37,0s-.61,1.74,3.06,3.4c3.21,1.45,7,.51,9.12.61l2.09.1,5.54.42Z" fill="url(#ab)"/><path d="M457.25,260.32c-.34,2.53-.67,5.06-1,7.6,5,4.19,16.16,12.24,31.64,13.45,27.29,2.13,54.35-18.07,59.38-40.78,2.5-11.25.46-27-6.53-29.57-1.94-.71-4.86-.61-10.87,3.43-16,10.77-17.4,24.93-26.26,34.5C497.22,255.84,484.68,262.81,457.25,260.32Z" fill="url(#ac)"/><path d="M540.87,330.42c-3.74-5.23,0-10.85.1-21.32.13-11.86-4.57-13.46-10.62-32.62-4-12.74-7.89-25-5.64-39.84,1.08-7.12,2.91-19.2,12.27-25.72,4.82-3.36,11.76-3.62,25.44-4,16.92-.47,25.38-.7,31.93,2.1,1,.41,20.9,9.28,23.57,26.12,2.72,17.14-15.87,21-16.53,44.16-.3,10.41,3,26.13,5.1,36.33,2,9.79,3.1,12.25,1.39,15.4-4.12,7.59-18.69,6.69-47.82,4.89C548.63,335.21,543.67,334.31,540.87,330.42Z" fill="url(#ad)"/><path d="M580.71,277.23c1.58,4.39,6.23,7.38,10.15,18,.85,2.3,6.88,18.69,1.13,23.31-3.32,2.66-6.84-1.6-15.41-1.51-14.86.16-20.9,13.14-30.82,10.53a13.36,13.36,0,0,1-6.47-4.24,9.8,9.8,0,0,0,1.58,7.06c2.8,3.89,7.76,4.79,19.19,5.5,29.13,1.8,43.7,2.7,47.82-4.89,1.71-3.15.65-5.61-1.39-15.4-2.12-10.2-5.4-25.92-5.1-36.33.66-23.2,19.25-27,16.53-44.16a26.87,26.87,0,0,0-5.3-11.95C589.56,234.75,575.76,263.45,580.71,277.23Z" opacity="0.3" fill="url(#ae)" style="mix-blend-mode:multiply"/><path d="M613.53,308.75,609,312.17a11.2,11.2,0,0,0-6.22-3.19c-3.55-.48-7.46.94-7.47,2.06,0,.89,2.51,1.6,2.9,1.71,3.13.87,5.31-.24,6.64.89a9.55,9.55,0,0,0,2.38,1.8,6.91,6.91,0,0,0,.89.37c2.09.63,5.29-3.19,5.56-3.52Z" fill="url(#af)"/><path d="M594.43,247.35c-4.11-8-7.51-20.43-3.57-39.65,37,11.27,58,43.32,53,70.47-4.14,22.38-24.72,34.77-29.32,37.4l-3.95-7.33c5-6.61,10.56-16.24,8.85-26.58C617.06,267.33,602.75,263.51,594.43,247.35Z" fill="url(#ag)"/><path d="M561.94,189.86a38.48,38.48,0,0,0,3.12,10.8c2.1,4.11,11.57,6,13.53,6.84s-3.22,4-8.6,5-20.94,1-23.9-.84,2.09-2.08,5.85-3.81,5.38-9.48,4.42-12.85S561.94,189.86,561.94,189.86Z" fill="url(#ah)"/><path d="M553.19,188.27c-3-2.54-3.45-2.83-3.83-3.76-1.54-3.73,1-9.22,4.81-10.82.2-.09,2.74-1.13,3.83-.08.93.9-.21,2.33.53,4.14s2.21,1.7,5.19,3.76c2.45,1.69,4,2.74,4.43,4.36,1,3.33-2.75,8.56-6.39,8.72C560.45,194.64,560,194,553.19,188.27Z" fill="url(#ai)"/><path d="M561.45,195.14a8,8,0,0,1-7.36,2.87c-4.16-.68-3.87-10.12-1-11.85a5.3,5.3,0,0,1,4.17-.14c.84.33,1.09.71,2.47,1.21s1.65.35,2,.72.71,1.51-.37,4.17a2.27,2.27,0,0,1,2.51-.56,1.38,1.38,0,0,1,.5.6C564.86,193.28,563.75,194.56,561.45,195.14Z" fill="url(#aj)"/><path d="M464.63,480.15a.32.32,0,0,1-.32-.27l-24.4-131.19a.33.33,0,0,1,.26-.39.34.34,0,0,1,.39.27L464.3,476.23V340a.33.33,0,1,1,.66,0V479.82a.33.33,0,0,1-.3.33Z" fill="#c47eb7"/><path d="M337.26,484.08h0a.33.33,0,0,1-.31-.33V355.28a.34.34,0,0,1,.67,0V479.73l20.74-125a.33.33,0,0,1,.38-.27.34.34,0,0,1,.28.38L337.59,483.8A.34.34,0,0,1,337.26,484.08Z" fill="#c47eb7"/><path d="M650.92,526.59a.34.34,0,0,1-.33-.27L620.73,384.89a.33.33,0,0,1,.26-.39.33.33,0,0,1,.39.26l29.21,138.33V384.67a.33.33,0,0,1,.66,0V526.26a.33.33,0,0,1-.3.32Z" fill="#c47eb7"/><path d="M502.36,551.31h0a.33.33,0,0,1-.3-.33V408.85a.34.34,0,0,1,.33-.34.33.33,0,0,1,.33.34V547.7l32.09-157.83a.32.32,0,0,1,.39-.26.34.34,0,0,1,.26.39l-32.74,161A.32.32,0,0,1,502.36,551.31Z" fill="#c47eb7"/><path d="M652.25,382.94v2.44L502,409.89,335.91,355.83v-2.44C361.92,345.72,652.25,382.94,652.25,382.94Z" fill="#b7c0ce"/><polygon points="473.87 340.75 652.25 382.94 502.02 407.45 335.91 353.39 473.87 340.75" fill="#fff"/><path d="M355.81,525.14c-1.42,2.91-1,4.15-.67,4.7,1,1.61,3.54.09,10.07.87a11.21,11.21,0,0,0,4.05-.14c1.56-.37,3.4-1.2,3.32-1.62,0-.16-.3-.22-.41-.24-1.81-.38-13.15-3.87-13.15-3.87Z" fill="url(#ak)"/><path d="M354.94,518.76l1,6.49s2.79,2,3.52-.42a33.56,33.56,0,0,0,.52-6.36Z" fill="url(#al)"/><polygon points="387.86 521.98 385.12 529.45 381.14 528.81 382.06 521.89 387.86 521.98" fill="url(#am)"/><path d="M383.88,533.56c-1.93-2.28-3.64-2.07-4-3.64a3.21,3.21,0,0,1,1.62-3.32c1.6-.81,3.54.45,4,.73,3,1.94,2.17,5,5,6.28a7.27,7.27,0,0,1,2.41,1.43c.4.37,1.39,1.3,1.16,1.94s-2,.72-3.72.69c-2,0-3,0-4-.64C385,536.19,385.37,535.33,383.88,533.56Z" fill="url(#an)"/><path d="M333.66,363.53A214.39,214.39,0,0,0,339,402c2.64,11.3,4.08,13.23,5,21.06,2,17.05-3.46,19.61-4,38.94a117.54,117.54,0,0,0,7.74,44.58,121,121,0,0,0,5.81,13.27c2,1.66,5,.94,8.1.23.75-19.36,1.8-37.59,2.55-57l9.36-87.51Z" fill="url(#ao)"/><path d="M361.62,520.1c.75-19.36,1.8-37.59,2.55-57l9.36-87.51-39.87-12.11c0,1,.12,2,.18,3,18.86,15.68,22.76,28.34,22.76,37,0,10.54-5.64,15.89-4.19,31.14,1,10.9,4.37,12.76,4.58,22.61.27,12.7-5,19.95-7.52,27.34-2.41,7.14-3.11,17.2,2.15,31.38.68,1.46,1.32,2.76,1.9,3.89C355.51,521.53,358.48,520.81,361.62,520.1Z" opacity="0.3" fill="url(#ap)" style="mix-blend-mode:multiply"/><path d="M357.34,377.58a226.72,226.72,0,0,1,18.81,36.85,54.44,54.44,0,0,1,4.13,16.47A51.81,51.81,0,0,1,378.14,450a100,100,0,0,0-4.63,19.19c-3.25,23.5,2.65,43,7.18,54.14l7.1,2.46A389.13,389.13,0,0,0,403,463.54c2.24-14.26,3.95-25.43,3.67-39.58-.3-14.92-2.93-38.47-15.74-66.4Z" fill="url(#aq)"/><path d="M360,248.33c15,2.24,26.38,4.66,31.61,12.36,5.53,8.14-2.84,14.53-4.77,32.68-2.95,27.79,13.2,37.8,9.22,65.8a72.32,72.32,0,0,1-6.49,21.15A76.08,76.08,0,0,1,367,393.74c-15,5.61-22.53,2.7-42.85,4.3-33.24,2.61-38,12.37-53.18,6.76-15.32-5.67-26.67-21.65-23.6-28.64,1.85-4.19,8-1.73,16.61-7,11.12-6.81,9-15.73,18-23.61,12.88-11.31,25.73-.44,36.75-10.28s12-33.59,6.86-47.54c-3.35-9.11-3.62-19.1-6.16-28.47a6.12,6.12,0,0,1,.06-3.45c1.75-5.45,11.63-6.7,19.1-7.58A85.53,85.53,0,0,1,360,248.33Z" fill="url(#ar)"/><path d="M272.45,394.25c4.54-3.17,1.86-11.82,8.59-16.59,6.24-4.42,11.3,1.08,20.57-2,11.9-3.93,11-15.44,22.42-19.37,8.19-2.82,10.79,2.4,22.7,2.37s27.35-5.27,36.94-18.07a42.33,42.33,0,0,0,7.46-16.51c3.4,10.2,7.06,20,4.92,35.07a72.32,72.32,0,0,1-6.49,21.15A76.08,76.08,0,0,1,367,393.74c-15,5.61-22.53,2.7-42.85,4.3-33.24,2.61-38,12.37-53.18,6.76-9.79-3.63-17.94-11.46-21.76-18.46C262.53,395.62,269.16,396.55,272.45,394.25Z" opacity="0.3" fill="url(#as)" style="mix-blend-mode:multiply"/><path d="M368.05,222.33s4.27,7.63,4.65,13-5.74,5.14-5.74,5.14l.3,3.41a7.4,7.4,0,0,0,5,6.35l2.43.84s-15.66,3.7-24.39-2.18l2.47-.3a7.41,7.41,0,0,0,6.5-6.76l.12-1.46S356.27,223.59,368.05,222.33Z" fill="url(#at)"/><path d="M393.07,307.85l19.46-43.43a1.34,1.34,0,0,1,1.38-.78l34,4.29a1.34,1.34,0,0,1,1,1.91L426,316.77a1.35,1.35,0,0,1-1.52.71L394.21,310Z" fill="url(#au)"/><path d="M398.42,302.59l15.76-35.16a1.07,1.07,0,0,1,1.12-.63l27.55,3.47a1.08,1.08,0,0,1,.83,1.55l-18.57,38a1.09,1.09,0,0,1-1.23.58l-24.53-6.07Z" fill="url(#av)"/><path d="M419.89,267.22l1.25-2.82a1,1,0,0,1,1-.58l14.15,1.67a1,1,0,0,1,.78,1.37l-1.4,3.07a1,1,0,0,1-1,.56l-14-1.91A1,1,0,0,1,419.89,267.22Z" fill="url(#aw)"/><path d="M439.2,276.72h-.07l-24.95-3.2a.57.57,0,0,1-.49-.63.57.57,0,0,1,.63-.49l25,3.2a.57.57,0,0,1,.49.63A.56.56,0,0,1,439.2,276.72Z" fill="url(#ax)"/><path d="M437.92,279.24h-.07L413,275.79a.56.56,0,1,1,.16-1.11L438,278.12a.56.56,0,0,1,.48.64A.55.55,0,0,1,437.92,279.24Z" fill="url(#ay)"/><path d="M425.43,283.2h-.09l-13.54-2.26a.56.56,0,0,1,.19-1.11l13.54,2.25a.57.57,0,0,1,.46.65A.56.56,0,0,1,425.43,283.2Z" fill="url(#az)"/><path d="M431.64,305.28s5.55-3.77,6.19-6.43a38.24,38.24,0,0,0,.49-7.66l-3.24,7.05a3.79,3.79,0,0,1-2.23-2.77c-.67-2.32-1.81-.19-1.35,1.56S431.64,305.28,431.64,305.28Z" fill="url(#ba)"/><path d="M389,258.07a41.41,41.41,0,0,1,11.25,10c11.1,14.37,6.77,29.69,16,35.1,2.62,1.55,7.24,2.81,15.56-.13l3.19,1.69s3.9,19.82-20.17,20.57-36.06-29.19-36.06-29.19Z" fill="url(#bb)"/><path d="M365.75,230.06c-.81-.05-1.5-1.07-2.05-.75s-.49,1.83.05,2.88a3.83,3.83,0,0,0,1.5,1.55,9.9,9.9,0,0,0-1.67,4c-.66,3.93,1.49,7,2.4,8.85,4.07,8.22-1.71,21.47-8.22,28.23-5.3,5.51-7.87,3.39-11,7.86-6.1,8.7,2.78,17.92-.23,29.51-4.56,17.62-32.11,23.43-33.26,23.66l-1.22.23c-12.36,2.23-31.11,5.63-44.57-4.28-10.08-7.4-14.91-20.57-14.41-32.27a37.76,37.76,0,0,1,10.12-24.48c1.47-1.55,10.21-10.66,22.28-11,6.4-.2,7.73,2,12.59.53,6.66-2.05,10.65-8.22,13.13-12,4.55-7.05,2.61-8.49,5.92-12,6.49-6.83,14.39-1.75,21.34-7.8s2.48-13.78,9.11-19c6.85-5.35,20.19-3.82,23.16,2.31C373.27,221.35,368.25,230.21,365.75,230.06Z" fill="url(#bc)"/><ellipse cx="301.74" cy="537.55" rx="41.53" ry="16.95" fill="#b7c0ce"/><path d="M260.22,535.56c0,8.84,18.59,16,41.52,16s41.53-7.16,41.53-16-18.59-23.29-41.53-23.29S260.22,526.73,260.22,535.56Z" fill="url(#bd)"/><path d="M260.22,535.56c0-8.83,18.59-23.29,41.52-23.29a56.47,56.47,0,0,1,27.59,7.27,6.06,6.06,0,0,1,.65,3.17c-.47,5-8.58,8-13.24,9-11.72,2.54-17.44-4.47-27.1-4.2-6,.16-14.26,3.16-24.08,15.88C262.17,541.1,260.22,538.42,260.22,535.56Z" fill="#b7c0ce"/><path d="M299.47,520.3a9.43,9.43,0,0,0,4.66,0,3,3,0,0,0,2.23-2.92V470.58h-9.23v46.77A3.06,3.06,0,0,0,299.47,520.3Z" fill="#fff"/><path d="M299.47,520.3a9.43,9.43,0,0,0,4.66,0,3,3,0,0,0,2.23-2.92V470.58h-9.23v46.77A3.06,3.06,0,0,0,299.47,520.3Z" fill="url(#be)"/><path d="M350.54,450.87,336.43,442c-.59-3.33-7.24-38.18-34.23-49.12-11-4.45-22.8-3.92-29.28-3.63-12.94.58-22.17,1-26.61,7.16-5.7,7.93,3.86,15.12,1.88,37.79-.81,9.25-2.86,13.36-.31,19.48,3.07,7.34,10.17,11.41,15.7,13.7A80.27,80.27,0,0,0,296.87,478c25.58,2.24,44.68-8.73,51.25-12.93a8.45,8.45,0,0,0,5.73-6.35A7.45,7.45,0,0,0,350.54,450.87Z" fill="url(#bf)"/><path d="M399.43,362.26l121-.9V364a1.46,1.46,0,0,1-1.25,1.45L485,370.72a3.65,3.65,0,0,0-1.8.72l-83-6c-.17-.72-.74-1.34-.74-2.08Z" fill="url(#bg)"/><path d="M443.34,357.86l75.84,4.87a2.18,2.18,0,0,0,2.46-2.07V311.35a2.35,2.35,0,0,0-2.46-2.22H443.34a2,2,0,0,0-2,2v44.57A2.19,2.19,0,0,0,443.34,357.86Z" fill="url(#bh)"/><path d="M518,309.13H440.88a.76.76,0,0,0-.77.77v47a.93.93,0,0,0,.86.92l77,5a2.19,2.19,0,0,0,2.47-2.07V311.35A2.36,2.36,0,0,0,518,309.13Z" fill="url(#bi)"/><path d="M444.49,354.71,515.13,359a1.8,1.8,0,0,0,2-1.7V314.08a1.94,1.94,0,0,0-2-1.83L444.49,312a1.65,1.65,0,0,0-1.67,1.65V353A1.78,1.78,0,0,0,444.49,354.71Z" fill="#f4f7fa"/><path d="M460.1,344.36c5.87-2.87,10.49.76,14.95-2.82,2.71-2.17,1.38-3.79,4.71-7,3.68-3.59,6.08-2.38,9.78-5.61,4.69-4.09,2.34-7.27,6.38-10.21,4.89-3.56,10.17-.26,14.82-3.67a10.13,10.13,0,0,0,3.69-5.89H519a1.38,1.38,0,0,1,1.45,1.3v51.15A1.29,1.29,0,0,1,519,362.8l-77.7-5a1.23,1.23,0,0,1-.93-.52c5.69-.18,9.18-1.91,11.41-3.69C456.14,350.09,455.38,346.65,460.1,344.36Z" fill="#fff" opacity="0.95" style="mix-blend-mode:soft-light"/><path d="M477.37,310.47a.87.87,0,0,0,.88.84.83.83,0,1,0-.88-.84Z" fill="#fff"/><polygon points="462.02 352.71 462.15 352.72 462.15 314.28 462.02 314.28 462.02 352.71" fill="#d8dee8"/><polygon points="463.7 343.05 515.15 345.28 515.15 345.15 463.7 342.92 463.7 343.05" fill="#d8dee8"/><polygon points="459.93 353.26 445.35 352.35 445.35 314.28 459.93 314.28 459.93 353.26" fill="#d8dee8"/><polygon points="514.02 330.26 463.7 329.06 463.7 314.28 514.02 314.28 514.02 330.26" fill="#d8dee8"/><polygon points="514.02 344.1 463.7 341.86 463.7 331.42 514.02 332.82 514.02 344.1" fill="#d8dee8"/><path d="M439.11,357.72l81.33,5.13L485,368.29a5.52,5.52,0,0,1-1.22,0l-84.32-6.08,38.38-4.51A7.06,7.06,0,0,1,439.11,357.72Z" fill="url(#bj)"/><polygon points="508.57 362.89 440.86 358.56 419.9 361 487.03 365.63 508.57 362.89" fill="#d8dee8" opacity="0.47"/><path d="M493.61,384l62.59-9.42a5.39,5.39,0,0,1,2,.06l24.36,5.2a1.57,1.57,0,0,1-.06,3.09l-58.81,9.94a1.57,1.57,0,0,1-.61,0l-29.59-6.65A1.12,1.12,0,0,1,493.61,384Z" fill="url(#bk)"/><path d="M493.61,382.22l62.59-9.42a5.6,5.6,0,0,1,2,.06l24.36,5.2a1.57,1.57,0,0,1-.06,3.09l-58.81,9.94a1.57,1.57,0,0,1-.61,0l-29.59-6.65A1.12,1.12,0,0,1,493.61,382.22Z" fill="url(#bl)"/><path d="M493.61,380.71l62.59-9.43a5.6,5.6,0,0,1,2,.07l24.36,5.2a1.57,1.57,0,0,1-.06,3.09l-58.81,9.94a1.79,1.79,0,0,1-.61,0l-29.59-6.65A1.12,1.12,0,0,1,493.61,380.71Z" fill="url(#bm)"/><path d="M493.61,378.9l62.59-9.42a5.39,5.39,0,0,1,2,.06l24.36,5.2a1.57,1.57,0,0,1-.06,3.09l-58.81,9.94a1.57,1.57,0,0,1-.61,0l-29.59-6.65A1.12,1.12,0,0,1,493.61,378.9Z" fill="url(#bn)"/><path d="M493.61,377.39,556.2,368a5.6,5.6,0,0,1,2,.07l24.36,5.2a1.57,1.57,0,0,1-.06,3.09l-58.81,9.94a1.79,1.79,0,0,1-.61,0l-29.59-6.65A1.12,1.12,0,0,1,493.61,377.39Z" fill="url(#bo)"/><path d="M493.61,375.58l62.59-9.43a5.6,5.6,0,0,1,2,.07l24.36,5.2a1.57,1.57,0,0,1-.06,3.09l-58.81,9.94a1.57,1.57,0,0,1-.61,0l-29.59-6.65A1.12,1.12,0,0,1,493.61,375.58Z" fill="url(#bp)"/><path d="M386.06,207.38a32,32,0,0,1-7.38-20.13c0-21.43,22.82-38.8,51-38.8s51,17.37,51,38.8-22.82,38.81-51,38.81a62.49,62.49,0,0,1-28.49-6.62c-5.37.92-13.72,2.46-18.12,3.28a1.69,1.69,0,0,1-1.89-2.26Z" fill="url(#bq)"/><g opacity="0.3" style="mix-blend-mode:multiply"><path d="M401.75,195.47c11.43-4.81,24,5.33,31.86-1.74s-.64-21.23,6.95-31.28c3.61-4.79,9.69-7,16.64-7.84,14.09,6.9,23.41,18.94,23.41,32.64,0,21.44-22.82,38.81-51,38.81a62.49,62.49,0,0,1-28.49-6.62c-4.24.72-10.33,1.84-14.87,2.67C389.64,204.74,395.81,198,401.75,195.47Z" fill="url(#br)"/></g><path d="M229.13,333.86l-.55,185.55a18.44,18.44,0,0,1-16.6,18L76.28,548.73c-10.45.88-19-6.51-19-16.3V332.65c0-9.28,7.59-16.78,17.22-17.52.61-.05,1.24-.06,1.87-.05l136.19,2A16.77,16.77,0,0,1,229.13,333.86Z" fill="url(#bs)"/><path d="M236.1,333.91l-.57,185c0,9.07-7,17.15-16.12,17.91L84.65,548c-10.38.86-19.3-6.47-19.3-16.23l0-199.11c0-9.24,7.75-16.71,17.31-17.45.62-.05,1.45-.06,2.07-.05l135.27,2A16.35,16.35,0,0,1,236.1,333.91Z" fill="url(#bt)"/><g opacity="0.3" style="mix-blend-mode:multiply"><path d="M236.1,333.64,236,380.13,65.37,382.47V332.42c0-9,7.4-16.22,16.64-17.25a25.13,25.13,0,0,1,2.74,0l135.27,2A16.12,16.12,0,0,1,236.1,333.64Z" fill="url(#bu)"/><path d="M236,365.85l-.06,19.31c-16.54,4.92-47,8.57-81.95,9.25-15.43.3-30.36,0-43.84-.82-18-1.09-33.13-3.08-44.78-5.7v-20.8c4.39-1,8.42-1.92,13.19-2.77C89,362.47,101.46,361,115.13,360c12.21-.9,25.46-1.42,39.12-1.47,17.59-.07,33.92.64,47.95,1.94l3.24.31c3.36.34,6.58.71,9.64,1.12l3.2.44c2.4.35,4.47.72,6.65,1.11C229.13,364.16,232.84,365,236,365.85Z" fill="url(#bv)"/></g><path d="M227.75,370.16a5.1,5.1,0,0,1-5,5.06l-140,1.6A5.44,5.44,0,0,1,77,371.54V338.11a5.48,5.48,0,0,1,5.7-5.31l140.09,1a5,5,0,0,1,5,5Z" fill="#fff"/><path d="M224.57,369.49a3.23,3.23,0,0,1-3.19,3.2L82.07,374.12a3.45,3.45,0,0,1-3.6-3.33l0-33.29a3.47,3.47,0,0,1,3.59-3.35l139.41.91a3.19,3.19,0,0,1,3.17,3.19Z" fill="url(#bw)"/><g opacity="0.3"><path d="M205.31,350.69a1.54,1.54,0,0,1-1.59,1.53h-.07a1.54,1.54,0,0,1-1.59-1.53l0-6.34a1.45,1.45,0,0,1,1.59-1.39h.08a1.44,1.44,0,0,1,1.58,1.4Z" fill="url(#bx)"/><path d="M218.22,350.69a1.54,1.54,0,0,1-1.57,1.53h-.07a1.53,1.53,0,0,1-1.57-1.53l0-6.32A1.45,1.45,0,0,1,216.6,343h.08a1.44,1.44,0,0,1,1.56,1.42Z" fill="url(#by)"/><path d="M205.28,365a1.74,1.74,0,0,1-1.59,1.74h-.08a1.71,1.71,0,0,1-1.58-1.72l0-6.56a1.64,1.64,0,0,1,1.59-1.64h.07a1.63,1.63,0,0,1,1.59,1.62Z" fill="url(#bz)"/><path d="M218.18,365c0,.86-.7,1.12-1.57,1.78h-.07A1.75,1.75,0,0,1,215,365l0-6.86c0-.86.71-2,1.57-2h.08c.86,0,1.56,1.09,1.56,1.95Z" fill="url(#ca)"/></g><g opacity="0.3"><path d="M214.74,340.47a1.46,1.46,0,0,1-1.43,1.57h-6.06c-.88,0-1.11-.7-1.11-1.56v-.08c0-.86.32-1.57,1.19-1.57l6.19,0c.87,0,1.22.69,1.22,1.56Z" fill="url(#cb)"/><path d="M214.74,368a1.5,1.5,0,0,1-1.46,1.59l-6.38.06a1.42,1.42,0,0,1-1.42-1.55V368a1.51,1.51,0,0,1,1.48-1.58l6.38-.06a1.4,1.4,0,0,1,1.4,1.54Z" fill="url(#cc)"/></g><path d="M164.43,529.38a37,37,0,0,1-2.83,9.13c-.49,1-1,2.13-1.64,3.24L84.65,548c-10.38.86-19.3-6.47-19.3-16.23l0-199.39c0-9,7.4-16.37,16.64-17.4.22.07.56.14.78.22,9.72,3.12,20.31,8.81,26.64,19.19,3.94,6.47,6.29,14.8,5.77,25.54a73,73,0,0,1-1,8.83q-.47,2.71-.94,5.55c-.4,2.35-.79,4.76-1.18,7.21-.6,3.93-1.16,7.95-1.61,12-.43,3.9-.76,7.84-.92,11.78,0,.76-.06,1.52-.08,2.28q-.09,3.69,0,7.34c.06,1.67.16,3.32.3,5,.8,9.23,3,18,7.31,25.72,3.29,5.8,8.23,10.27,13.41,14.4,1.37,1.09,2.75,2.15,4.13,3.22a114.29,114.29,0,0,1,13.2,11.64l.29.31a64.77,64.77,0,0,1,5.42,6.57,48.6,48.6,0,0,1,4.7,8.13c.5,1.09,1,2.2,1.39,3.32.74,1.93,1.37,3.9,1.93,5.92.25.9.49,1.82.72,2.75l0,.11a95.24,95.24,0,0,1,2.24,11.44A52.7,52.7,0,0,1,164.43,529.38Z" fill="#fff" opacity="0.3" style="mix-blend-mode:soft-light"/><g style="mix-blend-mode:multiply"><path d="M109.86,417.09a3.79,3.79,0,0,1-3.75,3.65l-25.26.77A3.6,3.6,0,0,1,77,418V409a3.83,3.83,0,0,1,3.84-3.69l25.28-.59a3.54,3.54,0,0,1,3.74,3.46Z" fill="url(#cd)"/><path d="M150.7,415.91a3.7,3.7,0,0,1-3.62,3.6l-24.4.73a3.49,3.49,0,0,1-3.7-3.42v-8.9a3.72,3.72,0,0,1,3.71-3.62l24.4-.58a3.46,3.46,0,0,1,3.61,3.41Z" fill="url(#ce)"/><path d="M188.82,414.82a3.59,3.59,0,0,1-3.5,3.53l-23.59.72a3.4,3.4,0,0,1-3.58-3.37l0-8.76a3.64,3.64,0,0,1,3.59-3.56l23.59-.55a3.35,3.35,0,0,1,3.49,3.35Z" fill="url(#cf)"/><path d="M227,413.73a3.52,3.52,0,0,1-3.39,3.47l-22.8.69a3.32,3.32,0,0,1-3.46-3.31l0-8.61a3.54,3.54,0,0,1,3.46-3.5l22.81-.53a3.26,3.26,0,0,1,3.37,3.29Z" fill="url(#cg)"/><path d="M109.84,445.8a3.86,3.86,0,0,1-3.75,3.7l-25.26,1.07A3.54,3.54,0,0,1,77,447.14v-9.06a3.89,3.89,0,0,1,3.84-3.73l25.26-.9a3.49,3.49,0,0,1,3.74,3.41Z" fill="url(#ch)"/><path d="M150.65,444.13a3.73,3.73,0,0,1-3.62,3.63l-24.38,1a3.45,3.45,0,0,1-3.7-3.37v-8.9a3.79,3.79,0,0,1,3.71-3.67l24.39-.86a3.4,3.4,0,0,1,3.61,3.35Z" fill="url(#ci)"/><path d="M188.76,442.57a3.65,3.65,0,0,1-3.5,3.57l-23.58,1a3.33,3.33,0,0,1-3.57-3.31v-8.76a3.69,3.69,0,0,1,3.59-3.59l23.58-.84a3.31,3.31,0,0,1,3.49,3.3Z" fill="url(#cj)"/><path d="M226.91,441a3.57,3.57,0,0,1-3.39,3.51l-22.79,1a3.25,3.25,0,0,1-3.45-3.27l0-8.6a3.59,3.59,0,0,1,3.47-3.53l22.79-.82a3.22,3.22,0,0,1,3.37,3.25Z" fill="url(#ck)"/><path d="M109.81,473.82a3.9,3.9,0,0,1-3.74,3.74l-25.25,1.37A3.49,3.49,0,0,1,77,475.55V466.5a3.94,3.94,0,0,1,3.84-3.77l25.25-1.2a3.44,3.44,0,0,1,3.74,3.36Z" fill="url(#cl)"/><path d="M150.61,471.66a3.81,3.81,0,0,1-3.62,3.68l-24.37,1.32a3.39,3.39,0,0,1-3.7-3.32v-8.9a3.84,3.84,0,0,1,3.71-3.7L147,459.58a3.35,3.35,0,0,1,3.61,3.31Z" fill="url(#cm)"/><path d="M188.7,469.65a3.7,3.7,0,0,1-3.5,3.61l-23.57,1.28a3.29,3.29,0,0,1-3.57-3.27v-8.74a3.75,3.75,0,0,1,3.59-3.64l23.57-1.12a3.27,3.27,0,0,1,3.49,3.26Z" fill="url(#cn)"/><path d="M226.83,467.64a3.62,3.62,0,0,1-3.39,3.55l-22.78,1.23a3.21,3.21,0,0,1-3.45-3.22l0-8.59A3.67,3.67,0,0,1,200.7,457L223.49,456a3.17,3.17,0,0,1,3.36,3.21Z" fill="url(#co)"/><path d="M109.79,501.14a4,4,0,0,1-3.75,3.78l-25.23,1.67A3.45,3.45,0,0,1,77,503.25v-9a4,4,0,0,1,3.84-3.81l25.24-1.49a3.38,3.38,0,0,1,3.73,3.31Z" fill="url(#cp)"/><path d="M150.56,498.51a3.85,3.85,0,0,1-3.61,3.72l-24.36,1.6a3.34,3.34,0,0,1-3.7-3.28v-8.88a3.9,3.9,0,0,1,3.71-3.74L147,486.49a3.3,3.3,0,0,1,3.61,3.26Z" fill="url(#cq)"/><path d="M188.64,496.06a3.75,3.75,0,0,1-3.5,3.65l-23.56,1.55A3.25,3.25,0,0,1,158,498l0-8.74a3.79,3.79,0,0,1,3.58-3.68l23.56-1.39a3.22,3.22,0,0,1,3.49,3.21Z" fill="url(#cr)"/><path d="M109.76,530.44a4,4,0,0,1-3.74,3.82l-25.22,2A3.39,3.39,0,0,1,77,533v-9a4.05,4.05,0,0,1,3.84-3.85L106,518.26a3.35,3.35,0,0,1,3.74,3.27Z" fill="url(#cs)"/><path d="M150.52,527.3a3.92,3.92,0,0,1-3.62,3.76L122.56,533a3.3,3.3,0,0,1-3.7-3.23v-8.88a3.94,3.94,0,0,1,3.7-3.78l24.36-1.74a3.24,3.24,0,0,1,3.6,3.21Z" fill="url(#ct)"/><path d="M188.58,524.38a3.81,3.81,0,0,1-3.5,3.69l-23.55,1.84a3.2,3.2,0,0,1-3.57-3.18l0-8.72a3.84,3.84,0,0,1,3.58-3.72l23.55-1.69a3.18,3.18,0,0,1,3.49,3.17Z" fill="url(#cu)"/><path d="M223.3,482l-22.78,1.34c-1.91.12-3.35,2.24-3.35,4.13v8.87l-.05,18.24v8.86a3.27,3.27,0,0,0,3.33,3.45l22.76-1.79a4.11,4.11,0,0,0,3.5-3.93V517.7l0-5.3.05-18v-4l0-4.78C226.78,483.79,225.16,481.87,223.3,482Z" fill="url(#cv)"/></g><path d="M111.27,417a3.79,3.79,0,0,1-3.74,3.66l-25.24.76A3.58,3.58,0,0,1,78.46,418v-9.07a3.83,3.83,0,0,1,3.84-3.68l25.24-.59a3.54,3.54,0,0,1,3.74,3.46Z" fill="url(#cw)"/><path d="M150.7,415.91a3.7,3.7,0,0,1-3.62,3.6l-24.4.73a3.49,3.49,0,0,1-3.7-3.42v-8.9a3.72,3.72,0,0,1,3.71-3.62l24.4-.58a3.46,3.46,0,0,1,3.61,3.41Z" fill="url(#cx)"/><path d="M190.14,414.78a3.6,3.6,0,0,1-3.5,3.53l-23.56.71a3.4,3.4,0,0,1-3.58-3.36l0-8.75a3.64,3.64,0,0,1,3.58-3.56l23.57-.55a3.36,3.36,0,0,1,3.49,3.34Z" fill="url(#cy)"/><path d="M228.26,413.69a3.52,3.52,0,0,1-3.39,3.47l-22.77.69a3.31,3.31,0,0,1-3.45-3.31l0-8.61a3.54,3.54,0,0,1,3.47-3.49l22.78-.53a3.26,3.26,0,0,1,3.36,3.29Z" fill="url(#cz)"/><path d="M111.24,445.74a3.83,3.83,0,0,1-3.74,3.7l-25.22,1.07a3.53,3.53,0,0,1-3.83-3.43V438a3.89,3.89,0,0,1,3.83-3.73l25.24-.9a3.49,3.49,0,0,1,3.73,3.41Z" fill="url(#da)"/><path d="M150.65,444.13a3.73,3.73,0,0,1-3.62,3.63l-24.38,1a3.45,3.45,0,0,1-3.7-3.37v-8.9a3.79,3.79,0,0,1,3.71-3.67l24.39-.86a3.4,3.4,0,0,1,3.61,3.35Z" fill="url(#db)"/><path d="M190.08,442.52a3.65,3.65,0,0,1-3.5,3.57l-23.56,1a3.33,3.33,0,0,1-3.56-3.32V435a3.68,3.68,0,0,1,3.58-3.59l23.56-.84a3.31,3.31,0,0,1,3.49,3.3Z" fill="url(#dc)"/><path d="M228.18,441a3.57,3.57,0,0,1-3.39,3.51l-22.76,1a3.26,3.26,0,0,1-3.45-3.26l0-8.6a3.6,3.6,0,0,1,3.47-3.53l22.77-.81a3.21,3.21,0,0,1,3.36,3.25Z" fill="url(#dd)"/><path d="M111.22,473.74a3.89,3.89,0,0,1-3.74,3.74l-25.22,1.37a3.48,3.48,0,0,1-3.82-3.38v-9a3.94,3.94,0,0,1,3.83-3.77l25.22-1.2a3.44,3.44,0,0,1,3.74,3.36Z" fill="url(#de)"/><path d="M150.61,471.66a3.81,3.81,0,0,1-3.62,3.68l-24.37,1.32a3.39,3.39,0,0,1-3.7-3.32v-8.9a3.84,3.84,0,0,1,3.71-3.7L147,459.58a3.35,3.35,0,0,1,3.61,3.31Z" fill="url(#df)"/><path d="M190,469.58a3.69,3.69,0,0,1-3.49,3.61L163,474.47a3.28,3.28,0,0,1-3.56-3.27v-8.74a3.76,3.76,0,0,1,3.58-3.64l23.55-1.11A3.24,3.24,0,0,1,190,461Z" fill="url(#dg)"/><path d="M228.1,467.57a3.62,3.62,0,0,1-3.38,3.55L202,472.35a3.19,3.19,0,0,1-3.44-3.22l0-8.59A3.64,3.64,0,0,1,202,457l22.76-1.08a3.17,3.17,0,0,1,3.36,3.2Z" fill="url(#dh)"/><path d="M111.19,501.05a4,4,0,0,1-3.74,3.78l-25.2,1.66a3.43,3.43,0,0,1-3.82-3.33v-9a4,4,0,0,1,3.83-3.81l25.21-1.49a3.4,3.4,0,0,1,3.73,3.32Z" fill="url(#di)"/><path d="M150.56,498.51a3.85,3.85,0,0,1-3.61,3.72l-24.36,1.6a3.34,3.34,0,0,1-3.7-3.28v-8.88a3.9,3.9,0,0,1,3.71-3.74L147,486.49a3.3,3.3,0,0,1,3.61,3.26Z" fill="url(#dj)"/><path d="M190,496a3.74,3.74,0,0,1-3.49,3.64l-23.53,1.55a3.24,3.24,0,0,1-3.57-3.22l0-8.73a3.79,3.79,0,0,1,3.57-3.68l23.54-1.39a3.21,3.21,0,0,1,3.48,3.21Z" fill="url(#dk)"/><path d="M111.16,530.33a4,4,0,0,1-3.73,3.82l-25.19,2a3.37,3.37,0,0,1-3.82-3.28v-9A4,4,0,0,1,82.25,520l25.19-1.8a3.33,3.33,0,0,1,3.73,3.27Z" fill="url(#dl)"/><path d="M150.52,527.3a3.92,3.92,0,0,1-3.62,3.76L122.56,533a3.3,3.3,0,0,1-3.7-3.23v-8.88a3.94,3.94,0,0,1,3.7-3.78l24.36-1.74a3.24,3.24,0,0,1,3.6,3.21Z" fill="url(#dm)"/><path d="M189.89,524.28a3.81,3.81,0,0,1-3.5,3.68l-23.52,1.85a3.2,3.2,0,0,1-3.56-3.18v-8.72a3.86,3.86,0,0,1,3.58-3.72l23.53-1.68a3.16,3.16,0,0,1,3.48,3.16Z" fill="url(#dn)"/><path d="M224.62,481.9l-22.76,1.35c-1.9.11-3.38,2.24-3.39,4.12v8.87l0,18.22,0,5.36v3.5a3.31,3.31,0,0,0,3.38,3.44L224.49,525a4.07,4.07,0,0,0,3.45-3.92V517.6l0-5.29.05-18v-4l0-4.77C228.05,483.71,226.48,481.79,224.62,481.9Z" fill="url(#do)"/><path d="M645.43,508.15v13.43c0,4.34,27.12,7.86,60.57,7.86s60.56-3.52,60.56-7.86V508.15Z" fill="url(#dp)"/><path d="M766.56,508.15c0,4.34-27.11,7.86-60.56,7.86s-60.57-3.52-60.57-7.86,27.12-7.86,60.57-7.86S766.56,503.8,766.56,508.15Z" fill="url(#dq)"/><path d="M706,516.55c-29.63,0-60.6-2.83-60.6-8.29,0-.3.1-.83.4-.83s.17.42.17.72c0,3.46,24.66,7.31,60,7.31s60-3.85,60-7.31c0-.3.05-.59.35-.59s.23.4.23.7C766.6,513.72,735.62,516.55,706,516.55Z" fill="url(#dr)"/><path d="M700.27,508.58c.6-.41,1.23-.81,1.91-1.21a11.75,11.75,0,0,1,2.6-1.09,26,26,0,0,1,4-.79,51.22,51.22,0,0,1,6-.32q3.51,0,6.6.22a45.07,45.07,0,0,1,5.42.72,16.81,16.81,0,0,1,3.8,1.18,3,3,0,0,1,1.74,1.61l6.82.07a6.36,6.36,0,0,1,1.31.12c.38.08.56.18.56.3V510l-8.77-.09a4.42,4.42,0,0,1-2.35,1.89,24,24,0,0,1-4.81,1.49l-3.19-.45a3.37,3.37,0,0,1-.71-.17c-.18-.06-.27-.14-.27-.22s.25-.23.74-.36,1.05-.32,1.67-.52a15.78,15.78,0,0,0,1.83-.72,2.42,2.42,0,0,0,1.2-1l-20.69-.21a16.52,16.52,0,0,1-1.83,1.18,11.87,11.87,0,0,1-2.68,1.05,27.81,27.81,0,0,1-4.17.75,61.35,61.35,0,0,1-6.28.31c-1.89,0-3.74-.07-5.55-.22a36.66,36.66,0,0,1-4.82-.69,14.67,14.67,0,0,1-3.45-1.13c-.9-.45-1.4-1-1.51-1.55l-5.61-.06a7.6,7.6,0,0,1-1.33-.11c-.38-.08-.58-.18-.58-.3v-.56l7.67.07a4.17,4.17,0,0,1,2.1-1.55,24.54,24.54,0,0,1,3.9-1.17l2.57.36c.78.11,1.16.23,1.17.38s-.16.18-.49.3l-1.15.42a10.48,10.48,0,0,0-1.28.58,2.78,2.78,0,0,0-.93.75Zm-18.93.77a2,2,0,0,0,1,.95,7.92,7.92,0,0,0,1.95.66,20,20,0,0,0,2.63.38c1,.08,2,.12,3.06.11,1.24,0,2.33-.06,3.25-.16a19.6,19.6,0,0,0,2.44-.41,12.24,12.24,0,0,0,1.83-.61,11.41,11.41,0,0,0,1.4-.74Zm45-.5a2.09,2.09,0,0,0-1.12-1,9.4,9.4,0,0,0-2.24-.71,24.56,24.56,0,0,0-3.18-.43c-1.21-.09-2.54-.14-4-.13a31.31,31.31,0,0,0-3.35.18,16.68,16.68,0,0,0-2.43.44,9,9,0,0,0-1.75.64,13.14,13.14,0,0,0-1.34.79Z" fill="#fcb048"/><path d="M706,501.14c-27,0-55.13,2.37-59.62,7,.17.17.33.34.49.52,3.79-3.19,27-6.41,59.13-6.41,32.94,0,56.53,3.38,59.39,6.66.14-.18.29-.35.45-.52C762.14,503.6,733.49,501.14,706,501.14Z" fill="url(#ds)"/><path d="M628.6,494v13.44c0,4.34,27.11,7.86,60.56,7.86s60.57-3.52,60.57-7.86V494Z" fill="url(#dt)"/><path d="M749.73,494c0,4.35-27.12,7.86-60.57,7.86S628.6,498.38,628.6,494s27.11-7.85,60.56-7.85S749.73,489.69,749.73,494Z" fill="url(#du)"/><path d="M689.16,502.44c-29.62,0-60.6-2.83-60.6-8.29,0-.3.11-.83.41-.83s.17.42.17.71c0,3.47,24.65,7.32,60,7.32s60-3.85,60-7.32c0-.29.06-.58.36-.58s.22.4.22.7C749.76,499.61,718.79,502.44,689.16,502.44Z" fill="url(#dv)"/><path d="M683.44,494.47c.59-.41,1.22-.81,1.9-1.21a12,12,0,0,1,2.6-1.09,25,25,0,0,1,4-.79,51,51,0,0,1,6-.32c2.34,0,4.53.06,6.59.22a44.52,44.52,0,0,1,5.42.72,16.65,16.65,0,0,1,3.8,1.18,3,3,0,0,1,1.74,1.61l6.82.07a6.29,6.29,0,0,1,1.31.12q.57.12.57.3v.56l-8.77-.09a4.38,4.38,0,0,1-2.35,1.89,23.2,23.2,0,0,1-4.81,1.48l-3.19-.44a3.26,3.26,0,0,1-.7-.17c-.19-.06-.28-.14-.28-.22s.25-.23.74-.37,1.06-.31,1.68-.51a18.75,18.75,0,0,0,1.83-.72,2.52,2.52,0,0,0,1.2-1l-20.7-.21a17,17,0,0,1-1.83,1.18,11.5,11.5,0,0,1-2.68,1,28.73,28.73,0,0,1-4.16.75,61.66,61.66,0,0,1-6.28.31c-1.9,0-3.75-.07-5.55-.22a36.42,36.42,0,0,1-4.82-.69,14.61,14.61,0,0,1-3.46-1.13c-.9-.45-1.4-1-1.5-1.55l-5.62-.06a7.49,7.49,0,0,1-1.32-.11c-.39-.08-.59-.18-.59-.3v-.56l7.67.07a4.17,4.17,0,0,1,2.1-1.55,23.84,23.84,0,0,1,3.9-1.17l2.57.36c.78.11,1.17.23,1.17.38s-.16.18-.48.3-.71.26-1.15.42a9.83,9.83,0,0,0-1.28.58,2.83,2.83,0,0,0-.94.74Zm-18.94.77a2,2,0,0,0,1,.95,7.92,7.92,0,0,0,2,.66,20.22,20.22,0,0,0,2.63.38c1,.08,2,.12,3.06.11,1.25,0,2.33-.06,3.26-.16a19.11,19.11,0,0,0,2.43-.41,11.86,11.86,0,0,0,1.83-.61,11.41,11.41,0,0,0,1.4-.74Zm45-.5a2.11,2.11,0,0,0-1.12-1,9.91,9.91,0,0,0-2.24-.7,24.56,24.56,0,0,0-3.18-.43c-1.2-.09-2.54-.14-4-.13-1.29,0-2.41.07-3.34.17a16.49,16.49,0,0,0-2.44.45,9.24,9.24,0,0,0-1.75.64,13.14,13.14,0,0,0-1.34.79Z" fill="#fcb048"/><path d="M689.17,487c-27,0-55.12,2.37-59.62,7a6,6,0,0,1,.49.52c3.79-3.19,27-6.41,59.13-6.41,32.94,0,56.54,3.38,59.39,6.66a4.5,4.5,0,0,1,.46-.52C745.3,489.49,716.65,487,689.17,487Z" fill="url(#dw)"/><path d="M643.12,480V493.4c0,4.34,27.12,7.86,60.57,7.86s60.57-3.52,60.57-7.86V480Z" fill="url(#dx)"/><path d="M764.26,480c0,4.34-27.12,7.86-60.57,7.86s-60.57-3.52-60.57-7.86,27.12-7.86,60.57-7.86S764.26,475.62,764.26,480Z" fill="url(#dy)"/><path d="M703.69,488.37c-29.62,0-60.6-2.83-60.6-8.29,0-.3.11-.83.4-.83s.18.42.18.72c0,3.46,24.65,7.31,60,7.31s60-3.85,60-7.31c0-.3,0-.58.35-.58s.23.39.23.69C764.29,485.54,733.31,488.37,703.69,488.37Z" fill="url(#dz)"/><path d="M698,480.4c.59-.41,1.22-.81,1.9-1.21a11.75,11.75,0,0,1,2.6-1.09,26.22,26.22,0,0,1,4-.79,51.22,51.22,0,0,1,6-.32c2.35,0,4.54.06,6.6.22a44.52,44.52,0,0,1,5.42.72,16.81,16.81,0,0,1,3.8,1.18,3,3,0,0,1,1.74,1.61l6.82.07a7.14,7.14,0,0,1,1.31.12c.38.08.56.18.57.3v.56l-8.77-.09a4.42,4.42,0,0,1-2.35,1.89,24,24,0,0,1-4.81,1.49l-3.19-.45a3.12,3.12,0,0,1-.7-.17c-.19-.06-.28-.14-.28-.22s.25-.23.74-.36,1-.31,1.67-.52a15.78,15.78,0,0,0,1.83-.72,2.42,2.42,0,0,0,1.2-1l-20.69-.2a18.1,18.1,0,0,1-1.83,1.17,11.68,11.68,0,0,1-2.68,1.05,27.58,27.58,0,0,1-4.17.75,61.29,61.29,0,0,1-6.27.31c-1.9,0-3.75-.07-5.56-.22a36.5,36.5,0,0,1-4.81-.69,14.61,14.61,0,0,1-3.46-1.13c-.9-.45-1.4-1-1.51-1.55l-5.61-.05a8.75,8.75,0,0,1-1.33-.12c-.38-.08-.58-.18-.58-.3v-.56l7.67.07a4.1,4.1,0,0,1,2.1-1.54,24.47,24.47,0,0,1,3.9-1.18l2.57.36c.78.11,1.17.23,1.17.38s-.16.18-.48.3l-1.16.42a11.21,11.21,0,0,0-1.28.58,2.78,2.78,0,0,0-.93.75Zm-18.94.77a2,2,0,0,0,1,.95,7.92,7.92,0,0,0,2,.66,20.22,20.22,0,0,0,2.63.38c1,.08,2,.12,3.06.11,1.24,0,2.33-.06,3.25-.16a19.6,19.6,0,0,0,2.44-.41,11.86,11.86,0,0,0,1.83-.61,11.41,11.41,0,0,0,1.4-.74Zm45.05-.5a2.09,2.09,0,0,0-1.12-1,9.87,9.87,0,0,0-2.24-.71,24.56,24.56,0,0,0-3.18-.43c-1.21-.09-2.54-.14-4-.13a31.46,31.46,0,0,0-3.35.18,16.68,16.68,0,0,0-2.43.44,9.24,9.24,0,0,0-1.75.64,13.14,13.14,0,0,0-1.34.79Z" fill="#fcb048"/><path d="M703.7,473c-27,0-55.13,2.37-59.62,7,.17.17.34.34.49.52,3.79-3.19,27-6.41,59.13-6.41,32.94,0,56.53,3.38,59.39,6.66.14-.18.29-.35.45-.52C759.83,475.42,731.18,473,703.7,473Z" fill="url(#ea)"/><path d="M651.94,465.86v13.43c0,4.34,27.12,7.86,60.57,7.86s60.56-3.52,60.56-7.86V465.86Z" fill="url(#eb)"/><ellipse cx="712.51" cy="465.85" rx="60.57" ry="7.86" fill="url(#ec)"/><path d="M712.51,474.26c-29.63,0-60.61-2.83-60.61-8.29,0-.3.11-.83.41-.83s.17.42.17.72c0,3.46,24.65,7.31,60,7.31s60-3.85,60-7.31c0-.3.05-.59.35-.59s.23.4.23.7C773.11,471.43,742.13,474.26,712.51,474.26Z" fill="url(#ed)"/><path d="M706.78,466.29c.6-.41,1.23-.81,1.91-1.21a11.75,11.75,0,0,1,2.6-1.09,25.73,25.73,0,0,1,4-.79,51.22,51.22,0,0,1,6-.32q3.51,0,6.59.22a44.52,44.52,0,0,1,5.42.72,16.75,16.75,0,0,1,3.81,1.18,3,3,0,0,1,1.74,1.61l6.82.07a6.43,6.43,0,0,1,1.31.12c.38.08.56.18.56.3v.56l-8.76-.09a4.42,4.42,0,0,1-2.35,1.89,23.59,23.59,0,0,1-4.81,1.48l-3.19-.44a3.37,3.37,0,0,1-.71-.17c-.18-.06-.27-.14-.27-.22s.24-.23.74-.36,1.05-.32,1.67-.52a15.78,15.78,0,0,0,1.83-.72,2.52,2.52,0,0,0,1.2-1l-20.69-.21a19.31,19.31,0,0,1-1.83,1.18,11.78,11.78,0,0,1-2.69,1,27.42,27.42,0,0,1-4.16.75,61.51,61.51,0,0,1-6.28.31c-1.89,0-3.74-.07-5.55-.22a36.66,36.66,0,0,1-4.82-.69,14.67,14.67,0,0,1-3.45-1.13c-.9-.45-1.4-1-1.51-1.55l-5.61-.06a7.52,7.52,0,0,1-1.33-.11c-.39-.08-.58-.18-.58-.3V466L682,466a4.12,4.12,0,0,1,2.1-1.55,24.72,24.72,0,0,1,3.89-1.17l2.57.36c.78.11,1.17.23,1.17.38s-.16.18-.48.3-.71.26-1.15.42a9.83,9.83,0,0,0-1.28.58,2.59,2.59,0,0,0-.93.75Zm-18.94.77a2.07,2.07,0,0,0,1,.95,8.07,8.07,0,0,0,1.95.66,20.48,20.48,0,0,0,2.63.38c1,.08,2,.12,3.07.11,1.24,0,2.32-.06,3.25-.16a19.11,19.11,0,0,0,2.43-.41A11.51,11.51,0,0,0,704,468a10.72,10.72,0,0,0,1.4-.74Zm45-.5a2.12,2.12,0,0,0-1.11-1,10.25,10.25,0,0,0-2.24-.7,24.56,24.56,0,0,0-3.18-.43c-1.21-.09-2.54-.14-4-.13-1.3,0-2.42.07-3.35.17a16.59,16.59,0,0,0-2.43.45,8.75,8.75,0,0,0-1.75.64,13.14,13.14,0,0,0-1.34.79Z" fill="#fcb048"/><path d="M712.51,458.85c-27,0-55.12,2.37-59.62,7a4.79,4.79,0,0,1,.49.52c3.79-3.19,27-6.41,59.13-6.41,33,0,56.54,3.38,59.4,6.66a5.59,5.59,0,0,1,.45-.52C768.64,461.31,740,458.85,712.51,458.85Z" fill="url(#ee)"/><path d="M645.43,450.63v13.44c0,4.34,27.12,7.85,60.57,7.85s60.56-3.51,60.56-7.85V450.63Z" fill="url(#ef)"/><ellipse cx="706" cy="450.63" rx="60.57" ry="7.86" fill="url(#eg)"/><path d="M706,459c-29.63,0-60.6-2.83-60.6-8.28,0-.3.1-.83.4-.83s.17.41.17.71c0,3.46,24.66,7.32,60,7.32s60-3.86,60-7.32c0-.3.05-.58.35-.58s.23.4.23.7C766.6,456.21,735.62,459,706,459Z" fill="url(#eh)"/><path d="M700.27,451.07c.6-.41,1.23-.82,1.91-1.22a11.77,11.77,0,0,1,2.6-1.08,23.77,23.77,0,0,1,4-.79,51,51,0,0,1,6-.33q3.51,0,6.6.23a45.07,45.07,0,0,1,5.42.72,16.32,16.32,0,0,1,3.8,1.18,3,3,0,0,1,1.74,1.61l6.82.07a6.36,6.36,0,0,1,1.31.12c.38.08.56.17.56.29v.56l-8.77-.08a4.42,4.42,0,0,1-2.35,1.89,24,24,0,0,1-4.81,1.48l-3.19-.44a4.13,4.13,0,0,1-.71-.17c-.18-.07-.27-.14-.27-.22s.25-.23.74-.37,1.05-.31,1.67-.51a17.88,17.88,0,0,0,1.83-.73,2.46,2.46,0,0,0,1.2-1l-20.69-.21a20,20,0,0,1-1.83,1.18,11.9,11.9,0,0,1-2.68,1,29,29,0,0,1-4.17.76,59,59,0,0,1-6.28.3q-2.84,0-5.55-.21a40.37,40.37,0,0,1-4.82-.69,15.15,15.15,0,0,1-3.45-1.13c-.9-.45-1.4-1-1.51-1.55l-5.61-.06a6.7,6.7,0,0,1-1.33-.12c-.38-.07-.58-.17-.58-.29v-.57l7.67.08a4.17,4.17,0,0,1,2.1-1.55,23.54,23.54,0,0,1,3.9-1.17l2.57.35c.78.11,1.16.24,1.17.39s-.16.18-.49.29l-1.15.43a10.41,10.41,0,0,0-1.28.57,2.78,2.78,0,0,0-.93.75Zm-18.93.76a2,2,0,0,0,1,1,8.85,8.85,0,0,0,1.95.66,20.07,20.07,0,0,0,2.63.37q1.45.12,3.06.12c1.24,0,2.33-.06,3.25-.16a19.48,19.48,0,0,0,2.44-.42,11.23,11.23,0,0,0,1.83-.6,10.2,10.2,0,0,0,1.4-.75Zm45-.5a2.13,2.13,0,0,0-1.12-1,9.87,9.87,0,0,0-2.24-.71,24.69,24.69,0,0,0-3.18-.42c-1.21-.1-2.54-.14-4-.13a29.12,29.12,0,0,0-3.35.17,18.15,18.15,0,0,0-2.43.44,9,9,0,0,0-1.75.65,13.14,13.14,0,0,0-1.34.79Z" fill="#fcb048"/><path d="M706,443.62c-27,0-55.13,2.38-59.62,7a6.11,6.11,0,0,1,.49.52c3.79-3.2,27-6.41,59.13-6.41,32.94,0,56.53,3.38,59.39,6.65a5.47,5.47,0,0,1,.45-.51C762.14,446.09,733.49,443.62,706,443.62Z" fill="url(#ei)"/><path d="M628.6,436.52V450c0,4.35,27.11,7.86,60.56,7.86s60.57-3.51,60.57-7.86V436.52Z" fill="url(#ej)"/><ellipse cx="689.16" cy="436.52" rx="60.57" ry="7.86" fill="url(#ek)"/><path d="M689.16,444.92c-29.62,0-60.6-2.83-60.6-8.28,0-.3.11-.83.41-.83s.17.41.17.71c0,3.46,24.65,7.32,60,7.32s60-3.86,60-7.32c0-.3.06-.58.36-.58s.22.4.22.7C749.76,442.1,718.79,444.92,689.16,444.92Z" fill="url(#el)"/><path d="M683.44,437c.59-.41,1.22-.82,1.9-1.22a12,12,0,0,1,2.6-1.08,23.91,23.91,0,0,1,4-.79,50.69,50.69,0,0,1,6-.33c2.34,0,4.53.07,6.59.23a44.52,44.52,0,0,1,5.42.72,16.16,16.16,0,0,1,3.8,1.18,3,3,0,0,1,1.74,1.61l6.82.07a6.29,6.29,0,0,1,1.31.12c.38.08.57.17.57.29v.56l-8.77-.08a4.38,4.38,0,0,1-2.35,1.89,23.82,23.82,0,0,1-4.81,1.48l-3.19-.44a4,4,0,0,1-.7-.17c-.19-.07-.28-.14-.28-.22s.25-.23.74-.37,1.06-.31,1.68-.51a18.84,18.84,0,0,0,1.83-.73,2.56,2.56,0,0,0,1.2-1l-20.7-.21a18.74,18.74,0,0,1-1.83,1.18,11.53,11.53,0,0,1-2.68,1,27.42,27.42,0,0,1-4.16.75,56.36,56.36,0,0,1-6.28.31q-2.85,0-5.55-.21a40.07,40.07,0,0,1-4.82-.69,15.08,15.08,0,0,1-3.46-1.13c-.9-.45-1.4-1-1.5-1.55l-5.62-.06a6.6,6.6,0,0,1-1.32-.12c-.39-.07-.59-.17-.59-.3v-.56l7.67.08a4.11,4.11,0,0,1,2.1-1.55,23.84,23.84,0,0,1,3.9-1.17l2.57.35q1.17.17,1.17.39c0,.08-.16.17-.48.29l-1.15.43a9.78,9.78,0,0,0-1.28.57,2.73,2.73,0,0,0-.94.75Zm-18.94.76a2,2,0,0,0,1,1,8.38,8.38,0,0,0,2,.65,18.64,18.64,0,0,0,2.63.38q1.47.12,3.06.12c1.25,0,2.33-.06,3.26-.16a19,19,0,0,0,2.43-.42,10.91,10.91,0,0,0,1.83-.6,10.2,10.2,0,0,0,1.4-.75Zm45-.5a2.1,2.1,0,0,0-1.12-1,9.87,9.87,0,0,0-2.24-.71,24.69,24.69,0,0,0-3.18-.42c-1.2-.1-2.54-.14-4-.13a28.93,28.93,0,0,0-3.34.17,18,18,0,0,0-2.44.44,9.21,9.21,0,0,0-1.75.65,11.53,11.53,0,0,0-1.34.79Z" fill="#fcb048"/><path d="M689.17,429.51c-27,0-55.12,2.38-59.62,7a4.85,4.85,0,0,1,.49.52c3.79-3.2,27-6.41,59.13-6.41,32.94,0,56.54,3.38,59.39,6.65a4.41,4.41,0,0,1,.46-.51C745.3,432,716.65,429.51,689.17,429.51Z" fill="url(#em)"/><path d="M643.12,422.45v13.44c0,4.34,27.12,7.86,60.57,7.86s60.57-3.52,60.57-7.86V422.45Z" fill="url(#en)"/><ellipse cx="703.69" cy="422.45" rx="60.57" ry="7.86" fill="url(#eo)"/><path d="M703.69,430.85c-29.62,0-60.6-2.83-60.6-8.28,0-.3.11-.83.4-.83s.18.41.18.71c0,3.46,24.65,7.32,60,7.32s60-3.86,60-7.32c0-.3,0-.58.35-.58s.23.4.23.7C764.29,428,733.31,430.85,703.69,430.85Z" fill="url(#ep)"/><path d="M698,422.89c.59-.41,1.22-.82,1.9-1.22a11.77,11.77,0,0,1,2.6-1.08,24,24,0,0,1,4-.79,51,51,0,0,1,6-.33c2.35,0,4.54.07,6.6.23a44.52,44.52,0,0,1,5.42.72,16.32,16.32,0,0,1,3.8,1.18,3,3,0,0,1,1.74,1.61l6.82.07a6.36,6.36,0,0,1,1.31.12c.38.08.56.17.57.29v.57l-8.77-.09a4.42,4.42,0,0,1-2.35,1.89,24,24,0,0,1-4.81,1.48l-3.19-.44a3.78,3.78,0,0,1-.7-.17c-.19-.07-.28-.14-.28-.22s.25-.23.74-.37,1-.31,1.67-.51a17.88,17.88,0,0,0,1.83-.73,2.41,2.41,0,0,0,1.2-1l-20.69-.21a20,20,0,0,1-1.83,1.18,11.71,11.71,0,0,1-2.68,1,28.75,28.75,0,0,1-4.17.76,58.89,58.89,0,0,1-6.27.3c-1.9,0-3.75-.06-5.56-.21a38.25,38.25,0,0,1-4.81-.69,14.61,14.61,0,0,1-3.46-1.13c-.9-.45-1.4-1-1.51-1.55l-5.61-.06a6.78,6.78,0,0,1-1.33-.12c-.38-.07-.58-.17-.58-.29v-.57l7.67.08a4.17,4.17,0,0,1,2.1-1.55,23.54,23.54,0,0,1,3.9-1.17l2.57.35q1.17.17,1.17.39c0,.08-.16.18-.48.29l-1.16.43A11.13,11.13,0,0,0,680,422a2.78,2.78,0,0,0-.93.75Zm-18.94.76a2,2,0,0,0,1,1,8.85,8.85,0,0,0,2,.66,20.31,20.31,0,0,0,2.63.37c1,.08,2,.12,3.06.12,1.24,0,2.33-.06,3.25-.16a19.48,19.48,0,0,0,2.44-.42,10.91,10.91,0,0,0,1.83-.6,10.2,10.2,0,0,0,1.4-.75Zm45.05-.5a2.13,2.13,0,0,0-1.12-1,9.87,9.87,0,0,0-2.24-.71,24.69,24.69,0,0,0-3.18-.42c-1.21-.1-2.54-.14-4-.13a29.24,29.24,0,0,0-3.35.17,18.15,18.15,0,0,0-2.43.44,9.21,9.21,0,0,0-1.75.65,13.14,13.14,0,0,0-1.34.79Z" fill="#fcb048"/><path d="M703.7,415.44c-27,0-55.13,2.38-59.62,7a4.85,4.85,0,0,1,.49.52c3.79-3.2,27-6.41,59.13-6.41,32.94,0,56.53,3.38,59.39,6.65a5.47,5.47,0,0,1,.45-.51C759.83,417.91,731.18,415.44,703.7,415.44Z" fill="url(#eq)"/><path d="M635.57,408.34v13.43c0,4.35,27.11,7.86,60.56,7.86s60.57-3.51,60.57-7.86V408.34Z" fill="url(#er)"/><ellipse cx="696.13" cy="408.34" rx="60.57" ry="7.86" fill="url(#es)"/><path d="M696.13,416.74c-29.62,0-60.6-2.83-60.6-8.28,0-.3.11-.83.41-.83s.17.41.17.71c0,3.46,24.65,7.32,60,7.32s60-3.86,60-7.32c0-.3.05-.58.35-.58s.22.4.22.7C756.73,413.92,725.76,416.74,696.13,416.74Z" fill="url(#et)"/><path d="M690.41,408.78c.59-.41,1.23-.82,1.9-1.22a12,12,0,0,1,2.6-1.08,23.91,23.91,0,0,1,4-.79,50.69,50.69,0,0,1,6-.33c2.34,0,4.53.07,6.59.23a44.52,44.52,0,0,1,5.42.72,16.26,16.26,0,0,1,3.81,1.18,3,3,0,0,1,1.74,1.61l6.82.07a6.26,6.26,0,0,1,1.3.12c.38.08.57.17.57.29v.56l-8.77-.08A4.38,4.38,0,0,1,720,412a23.91,23.91,0,0,1-4.8,1.48L712,413a4,4,0,0,1-.7-.17c-.19-.07-.28-.14-.28-.22s.25-.23.74-.37,1.06-.31,1.68-.51a17.88,17.88,0,0,0,1.83-.73,2.56,2.56,0,0,0,1.2-1l-20.7-.21A19.81,19.81,0,0,1,694,411a11.81,11.81,0,0,1-2.69,1,27.42,27.42,0,0,1-4.16.75,56.36,56.36,0,0,1-6.28.31c-1.9,0-3.74-.06-5.55-.21a40.07,40.07,0,0,1-4.82-.69A15.42,15.42,0,0,1,667,411c-.89-.45-1.4-1-1.5-1.55l-5.62-.06a6.6,6.6,0,0,1-1.32-.12c-.39-.07-.59-.17-.59-.3v-.56l7.68.08a4.08,4.08,0,0,1,2.09-1.55,24.15,24.15,0,0,1,3.9-1.17l2.57.35q1.17.16,1.17.39c0,.08-.16.17-.48.29l-1.15.43a9.78,9.78,0,0,0-1.28.57,2.73,2.73,0,0,0-.94.75Zm-18.94.76a2.09,2.09,0,0,0,1,1,8.38,8.38,0,0,0,2,.65,18.64,18.64,0,0,0,2.63.38q1.47.12,3.06.12c1.25,0,2.33-.06,3.26-.16a19,19,0,0,0,2.43-.42,10.91,10.91,0,0,0,1.83-.6,10.2,10.2,0,0,0,1.4-.75Zm45-.5a2.11,2.11,0,0,0-1.11-1,10.14,10.14,0,0,0-2.25-.71,24.45,24.45,0,0,0-3.18-.42c-1.2-.1-2.54-.14-4-.13a29,29,0,0,0-3.35.17,18.32,18.32,0,0,0-2.44.44,8.85,8.85,0,0,0-1.74.65,11.68,11.68,0,0,0-1.35.79Z" fill="#fcb048"/><path d="M696.14,401.33c-27,0-55.12,2.38-59.62,7a4,4,0,0,1,.49.52c3.79-3.2,27-6.41,59.13-6.41,33,0,56.54,3.38,59.39,6.65a4.41,4.41,0,0,1,.46-.51C752.27,403.8,723.63,401.33,696.14,401.33Z" fill="url(#eu)"/><path d="M773.93,417.81,763,425.6c-3.54,2.51,9.31,26.65,28.7,53.91s38,47.31,41.51,44.8l10.95-7.79Z" fill="url(#ev)"/><path d="M844.14,516.52C840.6,519,822,499,802.63,471.72s-32.24-51.39-28.7-53.91,22.12,17.54,41.51,44.8S847.68,514,844.14,516.52Z" fill="url(#ew)"/><path d="M802.19,472c-17.18-24.14-32.82-51-28.38-54.19.25-.17.74-.39.91-.15s-.24.38-.48.55c-2.82,2,8.33,24.33,28.83,53.16s37.93,46.67,40.75,44.67c.25-.18.51-.3.68-.05s-.19.41-.44.59C839.61,519.78,819.36,496.17,802.19,472Z" fill="url(#ex)"/><path d="M805.36,462.76c.68.24,1.37.52,2.09.84a12.44,12.44,0,0,1,2.4,1.49,24.3,24.3,0,0,1,2.95,2.8,50.83,50.83,0,0,1,3.73,4.68q2.06,2.85,3.64,5.51a44.78,44.78,0,0,1,2.56,4.83,16.47,16.47,0,0,1,1.24,3.78,3.07,3.07,0,0,1-.3,2.36l3.89,5.59a6.34,6.34,0,0,1,.66,1.14q.24.53.09.63l-.46.33-5-7.19a4.46,4.46,0,0,1-2.9-.83,24.13,24.13,0,0,1-4-3.05l-1.49-2.86a4.64,4.64,0,0,1-.28-.67c0-.19,0-.31,0-.35s.34.06.73.39.87.67,1.39,1.06a17.89,17.89,0,0,0,1.65,1.07,2.49,2.49,0,0,0,1.51.4l-11.83-17a18.49,18.49,0,0,1-2-.81,11.76,11.76,0,0,1-2.4-1.58,28.14,28.14,0,0,1-3-3,59.4,59.4,0,0,1-3.89-4.93c-1.1-1.55-2.12-3.09-3-4.65a38.36,38.36,0,0,1-2.23-4.33A14.34,14.34,0,0,1,790,445a2.37,2.37,0,0,1,.39-2.12l-3.21-4.61a7.51,7.51,0,0,1-.67-1.15c-.17-.36-.2-.58-.1-.65l.46-.33,4.39,6.3a4.1,4.1,0,0,1,2.47.81,23.24,23.24,0,0,1,3.21,2.5l1.21,2.3q.54,1.05.36,1.17c-.06,0-.24,0-.52-.22l-1-.69a11.26,11.26,0,0,0-1.21-.71,2.82,2.82,0,0,0-1.15-.33Zm-11.6-15a2.06,2.06,0,0,0-.19,1.38,8.13,8.13,0,0,0,.6,2,19,19,0,0,0,1.21,2.36c.5.84,1.06,1.7,1.69,2.56a29.55,29.55,0,0,0,2,2.56,20.57,20.57,0,0,0,1.75,1.75,11.48,11.48,0,0,0,1.55,1.14,9.79,9.79,0,0,0,1.42.7Zm26.52,36.42a2.15,2.15,0,0,0,.15-1.48,10,10,0,0,0-.72-2.24,24.27,24.27,0,0,0-1.5-2.84c-.62-1-1.36-2.15-2.21-3.33a30.31,30.31,0,0,0-2.08-2.63,18.75,18.75,0,0,0-1.77-1.73,9.61,9.61,0,0,0-1.54-1.05,14.4,14.4,0,0,0-1.42-.63Z" fill="#fcb048"/><path d="M814.75,463.11c-15.65-22-33.89-43.54-40.24-44.54a5.42,5.42,0,0,1-.14.7c4.8,1.24,20.88,18.29,39.49,44.47,19.1,26.84,30,48,29,52.25a5.46,5.46,0,0,1,.68.08C845.28,510.28,830.68,485.51,814.75,463.11Z" fill="url(#ey)"/></g></svg>
