<svg xmlns="http://www.w3.org/2000/svg" viewBox="0 0 100 34.75"><path d="M406.4,298.22v-4.1c0-2.78,0-4.42,0-4.93a1.28,1.28,0,0,0-1.05-1.33,4.83,4.83,0,0,0-1-.07c-.28,0-.41-.07-.41-.21s.18-.21.54-.21l2,0,1.53,0c.33,0,.91,0,1.73,0l1.83,0a6.62,6.62,0,0,1,4.56,1.33,3.57,3.57,0,0,1,1.22,2.77,5.31,5.31,0,0,1-1.7,4,6.14,6.14,0,0,1-4.33,1.58,4.74,4.74,0,0,1-.51,0q-.3,0-.3-.21c0-.17.23-.26.69-.26a3,3,0,0,0,2.16-1,3.92,3.92,0,0,0,1.12-2.82,4.35,4.35,0,0,0-1.44-3.49,3.61,3.61,0,0,0-2.45-.91,3.5,3.5,0,0,0-.92.08c-.16.06-.23.21-.23.46v9.31q0,4,.12,5c.1.76.41,1.18.95,1.26a10.17,10.17,0,0,0,1.25.09c.26,0,.4.06.4.19s-.16.23-.47.23c-.62,0-1.38,0-2.27,0l-1.53,0-1.38,0c-.78,0-1.35,0-1.71,0s-.49-.08-.49-.23.18-.18.54-.21.49-.06.74-.07.61-.51.71-1.28c.08-.61.12-2.26.12-5" transform="translate(-371.29 -279.5)" fill="#363636"/><path d="M425.17,305.3a9.3,9.3,0,0,1-3.57-.61.75.75,0,0,1-.47-.79c0-.84,0-1.86.12-3,0-.4.13-.61.3-.61s.24.14.24.4a4,4,0,0,0,.22,1.19,3.28,3.28,0,0,0,3.51,2.35,3.5,3.5,0,0,0,2.47-.86,2.41,2.41,0,0,0,.81-1.8c0-1.28-.8-2.53-2.4-3.72l-1.13-.84q-3.63-2.7-3.63-5.52a3.87,3.87,0,0,1,1.57-3.16,6.46,6.46,0,0,1,4.1-1.24,14.23,14.23,0,0,1,3.25.4c.23.06.35.16.35.28,0,0,0,.24-.05.83s-.05,1.23-.05,2c0,.47-.09.7-.27.7s-.25-.14-.25-.42a2.41,2.41,0,0,0-.63-1.53,3.3,3.3,0,0,0-2.67-1.14,3.24,3.24,0,0,0-2.14.66,2.16,2.16,0,0,0-.78,1.73,2.51,2.51,0,0,0,.55,1.55,9.94,9.94,0,0,0,2.05,1.81l.68.48a12.81,12.81,0,0,1,3.12,2.93,5.25,5.25,0,0,1,.9,3,4.51,4.51,0,0,1-2.3,4,7.27,7.27,0,0,1-3.9,1" transform="translate(-371.29 -279.5)" fill="#363636"/><path d="M440.59,288.88V296c0,.23.07.37.22.42a6.17,6.17,0,0,0,1.86.23,3.11,3.11,0,0,0,1.74-.39,4,4,0,0,0,1.45-3.5,4.27,4.27,0,0,0-1.33-3.37,3.66,3.66,0,0,0-2.42-.89,3.86,3.86,0,0,0-1.4.14.3.3,0,0,0-.12.28m-2.89,9.34v-4.1c0-2.78,0-4.42-.05-4.93a1.28,1.28,0,0,0-1.06-1.33,4.78,4.78,0,0,0-.95-.07q-.42,0-.42-.21t.54-.21l2,0,1.38,0,1.75,0,1.7,0a8.31,8.31,0,0,1,4.51,1,3.5,3.5,0,0,1,1.08,1.19,3.7,3.7,0,0,1,.59,2q0,2.73-3.24,5.22,2.67,3.21,2.94,3.49c.95,1.13,1.74,2,2.38,2.63a5.38,5.38,0,0,0,2.74,1.58l.57,0q.42,0,.42.21c0,.15-.16.23-.47.23h-2.33a6,6,0,0,1-2.62-.44,12.9,12.9,0,0,1-3.36-3.42c-.7-.95-1.51-2-2.42-3.22a.57.57,0,0,0-.44-.16h-2.14c-.13,0-.19.06-.19.18v.33q0,3.93.12,4.95c.1.78.42,1.21,1,1.27a10.58,10.58,0,0,0,1.21.09c.19,0,.29.06.29.19s-.16.23-.49.23c-.56,0-1.29,0-2.19,0l-1.41,0-1.3,0c-.75,0-1.32,0-1.69,0s-.49-.08-.49-.23.18-.18.54-.21.49-.06.73-.07.61-.51.71-1.28c.08-.61.13-2.26.13-5" transform="translate(-371.29 -279.5)" fill="#363636"/><path d="M458.18,297.73h4.51c.11,0,.16-.05.12-.14l-2.2-5.75q-.06-.21-.12-.21t-.15.21l-2.26,5.73c0,.1,0,.16.1.16m5,1.16h-5.47c-.1,0-.17.07-.22.19l-1.32,3.33a4.15,4.15,0,0,0-.37,1.42c0,.48.33.72,1,.72h.37c.24,0,.37.06.37.19s-.14.23-.42.23-.7,0-1.31,0l-1.29,0c-1.42.05-2.38.07-2.89.07-.31,0-.47-.08-.47-.23s.1-.19.3-.19a4.77,4.77,0,0,0,.76-.05,1.92,1.92,0,0,0,1.27-.65,5.29,5.29,0,0,0,.81-1.44l6.15-14.62q.39-.93.69-.93c.18,0,.38.25.61.74q2.25,5.4,6.08,14.32c.68,1.54,1.4,2.38,2.16,2.54a5.09,5.09,0,0,0,1,.09c.22,0,.32.06.32.19s-.08.15-.24.18a5.68,5.68,0,0,1-.89.05c-2,0-3.56,0-4.63-.05-.49,0-.73-.07-.73-.18s.11-.2.34-.21.34-.26.22-.54l-2-4.93a.25.25,0,0,0-.24-.17" transform="translate(-371.29 -279.5)" fill="#363636"/><path d="M391,281.58a4.49,4.49,0,0,1,1.33,3.41l0,7.84h.26l12.07-12.06-12.29,18.34,0,12.44s0,.22.14.26a46.26,46.26,0,0,0,4.88-1l-5.46,3.46h-5.31V312h-.44s-4.33,3.76-8.32.57a3.53,3.53,0,0,1-1.25-1.84,3.15,3.15,0,0,1-.12-.84c0-1.2,0-27.81,0-27.81h-.6l-4.53.92,5.42-3.49h5.54v2.37h.37s2.86-2.59,6.23-1.59a5.49,5.49,0,0,1,2.11,1.31" transform="translate(-371.29 -279.5)" fill="#363636"/><path d="M386,285.46c-1.82-.53-3.49,1.19-3.47,3.6l.08,18.42a1.09,1.09,0,0,0,.71,1.08,1.59,1.59,0,0,0,1.45-.49,3.41,3.41,0,0,0,.49-.6,3.56,3.56,0,0,0,.74-1.94V298.9l-2.61-7.83,2.57,2.16Z" transform="translate(-371.29 -279.5)" fill="#fff"/></svg>
