<svg xmlns="http://www.w3.org/2000/svg" viewBox="0 0 99.87 34.9"><circle cx="17.36" cy="17.4" r="17.2" fill="none"/><path d="M3.1,18.7a14.3,14.3,0,0,1,4.1-5.3,3.13,3.13,0,0,0-2.5-.2A13.11,13.11,0,0,1,12,8.3L9.5,1.8A17.42,17.42,0,0,0,1.9,25.1a17.18,17.18,0,0,0,9,8.2C2.5,28.1,3.1,18.7,3.1,18.7ZM16.3,24c-2.5-2.2-2.7-3.7-2.7-3.7a5.67,5.67,0,0,0-.8,1.3c-2.3-3.9,1.7-8.1,1.7-8.1-3.9,2-4.8,6.7-4.7,8.7A5.46,5.46,0,0,0,11.4,26a10.15,10.15,0,0,1,.6-2.5c1.1,2.3,3.6,3.4,4.3,7.7a7.32,7.32,0,0,1-.1,3.6h1.1a13.72,13.72,0,0,0,4-.5c.5-5.7-3-8.6-5-10.3Zm6.8-12.2a1.5,1.5,0,0,0,1.4-1s-.6-.3-1.3-.6a5.73,5.73,0,0,0-1.4-.4,1.4,1.4,0,0,0,.8,1.9.9.9,0,0,0,.5.1ZM13.7,3.1A2.5,2.5,0,0,0,16.2.5V-.1a17.23,17.23,0,0,0-5,1.1,2.75,2.75,0,0,0,2.5,2.1Zm7.1,0A2.65,2.65,0,0,0,23.3,1a17.09,17.09,0,0,0-5-1V.6a2.48,2.48,0,0,0,2.5,2.5ZM92.9,15.8c-2.1-.7-4.4-1-4.4-2.3,0-1,1.3-1.4,2.4-1.4a9.1,9.1,0,0,1,4,1V10.7a15.5,15.5,0,0,0-4.8-.7c-4.3,0-6.8,1.6-6.8,4.3,0,2.2,1.7,3.4,3.6,4.1,2.4.8,4.6,1,4.6,2.5,0,1.2-1.7,1.5-2.9,1.5a10.39,10.39,0,0,1-5.2-1.1v2.5a22.39,22.39,0,0,0,5.7.8c6.3,0,7.5-2.8,7.5-4.5.1-2.4-1.1-3.5-3.7-4.3ZM25,1.8,22.5,8.2c1.5.4,4.2,1.5,3.8,2.3-.2.4-.6.7-.4.8L31.6,14c.1.1.2.2.1.3a2.59,2.59,0,0,1-1.4,1.1,3.94,3.94,0,0,1-1.7,2.5,2.57,2.57,0,1,0-5,1.2A2.38,2.38,0,0,0,26.1,21a2.83,2.83,0,0,0,1.8-.9,4.37,4.37,0,0,1-1.5,4,3.3,3.3,0,0,0-3.8-1.7C14,18.3,18,11.6,18.2,11.3a4.33,4.33,0,0,0-.5.1A2.43,2.43,0,0,1,15.3,9h0a2.92,2.92,0,0,1,.2-.9,2.58,2.58,0,0,0-1,1.9,2.27,2.27,0,0,0,1.7,2.4,8.35,8.35,0,0,0-.7,6.2c1,3.8,5.1,4.5,7.5,7.2,3.1,3.5,2.8,6.1,2.7,6.7A17.39,17.39,0,0,0,32.5,8.9,17.74,17.74,0,0,0,25,1.8ZM32,20c-.7.6-1.8.8-3.3-.3a5.82,5.82,0,0,0-2.5-1.2,5.45,5.45,0,0,1,2.2.1,5.93,5.93,0,0,0,2.3.5,4.55,4.55,0,0,0,2-.5A1.51,1.51,0,0,1,32,20Zm66.3-9.8a1.69,1.69,0,0,0-1.7,1.7V12a1.83,1.83,0,0,0,1.6,1.8h.1a1.71,1.71,0,0,0,1.6-1.9A1.91,1.91,0,0,0,98.3,10.2Zm0,3.3a1.37,1.37,0,0,1-1.4-1.4V12a1.51,1.51,0,0,1,1.5-1.3,1.37,1.37,0,0,1,1.3,1.5A1.49,1.49,0,0,1,98.3,13.5Zm-32,4c0,4.4,4.1,7.1,10.5,7.1a16.22,16.22,0,0,0,4.9-.8V21.4a12.6,12.6,0,0,1-4.3.8c-2.4,0-5.9-1.2-5.9-4.9,0-2.9,2.1-4.9,5.5-4.9a9.2,9.2,0,0,1,4.6,1.1V11.1a14.26,14.26,0,0,0-5-.9c-6.2-.1-10.3,2.7-10.3,7.3ZM99,11.6c0-.4-.2-.6-.7-.6h-.7v2h.3v-.8h.3l.5.8h.4l-.5-.9a.47.47,0,0,0,.5-.5c0,.1,0,0-.1,0Zm-1.1.3v-.6h.4c.2,0,.4,0,.4.3s-.2.3-.5.3ZM59.7,24.2h5V10.4h-5ZM52,17.8c2.1-.7,3.6-2.1,3.6-3.7a3.21,3.21,0,0,0-2.2-3.2,13,13,0,0,0-4.4-.5H41.2V24.3h5V12.4h1.1c1.9,0,3,.7,3,2.2,0,2.2-3.4,3.4-3.4,3.4a37.9,37.9,0,0,0,3.4,4.5,5.31,5.31,0,0,0,4.5,2,23.08,23.08,0,0,0,3.7-.3A43.89,43.89,0,0,1,52,17.8Z" transform="translate(-0.04 0.1)" fill="#363636"/></svg>
