<svg xmlns="http://www.w3.org/2000/svg" viewBox="0 0 155.9 35"><path d="M27.55,30.54a17.61,17.61,0,0,0,7-1.66A25.6,25.6,0,0,0,46,19.18a6.51,6.51,0,0,0-2.82-.34c-3.4,8-16.33,15.6-24.63,7.39l.25.24a11.1,11.1,0,0,0,8.79,4.07" transform="translate(-15.96 -3.5)" fill="#363636"/><path d="M33.77,31.45a19.45,19.45,0,0,1-5.72.91h0a11.9,11.9,0,0,1-9.95-5,4.64,4.64,0,0,1-.58-.83,4.78,4.78,0,0,0,.74,1.24c1.74,2.74,4.81,5.39,10.45,5.39a21.52,21.52,0,0,0,3.82-.33A25,25,0,0,0,49.45,21.41a5.29,5.29,0,0,0-1.25-1.07A24.51,24.51,0,0,1,33.77,31.45" transform="translate(-15.96 -3.5)" fill="#363636"/><path d="M34.68,29.38A18.61,18.61,0,0,1,27.47,31a11.8,11.8,0,0,1-9.12-4.23,1.36,1.36,0,0,0-.34-.34l.5.75A11.26,11.26,0,0,0,28.05,32,18.16,18.16,0,0,0,33.61,31,24.91,24.91,0,0,0,47.79,20.17a7.88,7.88,0,0,0-1.41-.75,25,25,0,0,1-11.7,10" transform="translate(-15.96 -3.5)" fill="#363636"/><path d="M31,36.92H29.79A19,19,0,0,1,24.48,36a17.62,17.62,0,0,0,23.31-5.14l-.08.08a26.55,26.55,0,0,1-16.68,6" transform="translate(-15.96 -3.5)" fill="#363636"/><path d="M31.28,35.27c-.58,0-1.16.08-1.66.08h0c-4.89,0-8.12-1.66-10.2-3.73a14.93,14.93,0,0,0,3,3.06,17.14,17.14,0,0,0,7.38,1.83H31a25.51,25.51,0,0,0,17.59-7,15.56,15.56,0,0,0,1.66-4.31A21,21,0,0,1,48,27.64a25.5,25.5,0,0,1-16.76,7.63" transform="translate(-15.96 -3.5)" fill="#363636"/><path d="M32.69,33.44a23,23,0,0,1-3.89.42h0c-5.81,0-9.13-2.82-10.87-5.64-.25-.5-.58-.92-.75-1.33A18.33,18.33,0,0,0,18,28.71c1.66,3.07,5,6.14,11.7,6.14a12.1,12.1,0,0,0,1.66-.08A25.54,25.54,0,0,0,50.61,23.9v-.08a2.71,2.71,0,0,0-.67-1.91c-.41.67-.91,1.33-1.41,2a26,26,0,0,1-15.84,9.54" transform="translate(-15.96 -3.5)" fill="#363636"/><path d="M50.53,18.76a17.43,17.43,0,0,0-14.93-15c-5.89-.75-11,.91-14.68,5,.58,4,3.15,6.8,7,8.45,6.89-6.88,17.42-8.37,22.65,1.58" transform="translate(-15.96 -3.5)" fill="#363636"/><path d="M40.66,19.42c-5.06.5-9,.17-12.61-1.41a20.25,20.25,0,0,0-5.31,9.13c5,2.32,11.53,1.41,17.92-7.72" transform="translate(-15.96 -3.5)" fill="#363636"/><path d="M20.42,9.22a17.55,17.55,0,0,0-3.07,4.56c-.33.75-.58,1.5-.83,2.16l-.5,2c-.49,3.07,2.08,7,6.06,8.88a20.25,20.25,0,0,1,5.31-9.13C23.57,16,21,13.2,20.42,9.22" transform="translate(-15.96 -3.5)" fill="#363636"/><path d="M58.4,7a1.07,1.07,0,0,0,.34.25,3,3,0,0,0,1.9.5c1.08,0,1.75-.33,1.75-.91s-.83-.67-1.83-.75a4.25,4.25,0,0,1-2.07-.41.79.79,0,0,1-.33-.75C58.07,3.67,60,3.58,60.48,3.58a3.94,3.94,0,0,1,2,.42,2.74,2.74,0,0,1,.5.41l-.67.25A1.22,1.22,0,0,0,62,4.41a3.11,3.11,0,0,0-1.57-.33,5.24,5.24,0,0,0-1.25.17.64.64,0,0,0-.41.58.44.44,0,0,0,.16.33,1.24,1.24,0,0,0,.91.25,7.48,7.48,0,0,0,1.33.08c.25,0,.42.08.67.08A1.19,1.19,0,0,1,63,6.73a1,1,0,0,1-.25.75,2.79,2.79,0,0,1-2.24.66A7.55,7.55,0,0,1,59.15,8a2.5,2.5,0,0,1-1.57-.91L58.4,7" transform="translate(-15.96 -3.5)" fill="#363636"/><path d="M70.18,6c0,1.49-1.41,2.24-3.07,2.24A3.55,3.55,0,0,1,65,7.73a2,2,0,0,1-1-1.82c0-1.66,1.5-2.41,3.07-2.41,1.74.08,3.07,1,3.07,2.49M64.79,6a1.64,1.64,0,0,0,.42,1.16,3.06,3.06,0,0,0,1.9.58c1.83,0,2.33-1,2.33-1.82,0-1.17-1.08-1.83-2.41-1.83C66,4.16,64.79,4.66,64.79,6Z" transform="translate(-15.96 -3.5)" fill="#363636"/><path d="M77.23,6.9a2.3,2.3,0,0,1-.91.91,4.33,4.33,0,0,1-2,.42c-2.07,0-3.07-1-3.07-2.32a1.86,1.86,0,0,1,.91-1.75,3.4,3.4,0,0,1,2.08-.58,5,5,0,0,1,1.9.42,4.8,4.8,0,0,1,.92.83L76.32,5a1.91,1.91,0,0,0-.58-.58,3.39,3.39,0,0,0-1.49-.33c-1.17,0-2.33.5-2.33,1.74a1.86,1.86,0,0,0,.5,1.25,2.55,2.55,0,0,0,1.91.66,2.41,2.41,0,0,0,1.57-.41,2.85,2.85,0,0,0,.5-.5l.83.08" transform="translate(-15.96 -3.5)" fill="#363636"/><rect x="62.43" y="0.25" width="0.75" height="4.48" fill="#363636"/><polyline points="64.67 0.25 69.4 0.25 69.4 0.75 65.42 0.75 65.42 2.07 69.23 2.07 69.23 2.65 65.42 2.65 65.42 4.15 69.56 4.15 69.56 4.64 64.67 4.64 64.67 0.25" fill="#363636"/><polyline points="70.14 0.25 75.04 0.25 75.04 0.75 72.96 0.75 72.96 4.64 72.22 4.64 72.22 0.75 70.14 0.75 70.14 0.25" fill="#363636"/><path d="M92.33,3.75l1.74,1.91c.08.16.16.16.16.33a.7.7,0,0,1,.17-.25l1.82-2h.92L94.57,6.49V8.23H94V6.4L91.5,3.67h.83" transform="translate(-15.96 -3.5)" fill="#363636"/><path d="M106.76,6c0,1.49-1.41,2.24-3.07,2.24a3.53,3.53,0,0,1-2.07-.5,2,2,0,0,1-1-1.82c0-1.66,1.49-2.41,3.07-2.41,1.74.08,3.07,1,3.07,2.49m-5.39,0a1.67,1.67,0,0,0,.41,1.16,2.69,2.69,0,0,0,1.91.66c1.82,0,2.32-1,2.32-1.82,0-1.16-1.08-1.83-2.4-1.83C102.53,4.16,101.37,4.66,101.37,6Z" transform="translate(-15.96 -3.5)" fill="#363636"/><polyline points="92.12 0.25 96.6 0.25 96.6 0.75 92.79 0.75 92.79 2.16 96.44 2.16 96.44 2.74 92.79 2.74 92.79 4.64 92.12 4.64 92.12 0.25" fill="#363636"/><rect x="41.28" y="30.44" width="1.24" height="4.48" fill="#363636"/><path d="M60,33.94h3.48a1.94,1.94,0,0,1,1.5.5,1.17,1.17,0,0,1,.33.83,1.3,1.3,0,0,1-.5,1,1.8,1.8,0,0,1-.83.25l1.49,1.82H64l-1.33-1.82H61.22v1.91H60V33.94m1.24,1.91h2c.24,0,.74,0,.74-.5a.51.51,0,0,0-.08-.33.89.89,0,0,0-.75-.25h-2v1.08Z" transform="translate(-15.96 -3.5)" fill="#363636"/><polyline points="50.41 30.44 55.13 30.44 55.13 31.27 51.73 31.27 51.73 32.26 55.05 32.26 55.05 33.01 51.73 33.01 51.73 34.09 55.3 34.09 55.3 34.92 50.41 34.92 50.41 30.44" fill="#363636"/><polyline points="56.54 30.44 57.87 30.44 57.87 34.09 60.61 34.09 60.61 34.92 56.54 34.92 56.54 30.44" fill="#363636"/><path d="M79.39,33.94h1.33l2.48,4.48H81.79l-.41-.83H78.81l-.42.83H77l2.41-4.48m.74,1.41c0-.08-.08-.08-.08-.17s0-.08-.08-.16c0,.08,0,.08-.08.16s-.09.09-.09.17l-.66,1.41h1.74Z" transform="translate(-15.96 -3.5)" fill="#363636"/><path d="M83.78,33.94H85l2.49,2.49a6.15,6.15,0,0,1,.66.74,3.54,3.54,0,0,0-.08-.91V34h1.24v4.4H88.1l-2.49-2.49a4.2,4.2,0,0,0-.67-.66A2.09,2.09,0,0,0,85,36V38.5H83.87V33.94" transform="translate(-15.96 -3.5)" fill="#363636"/><path d="M90.83,33.94h3.32a2,2,0,0,1,2.16,2.15,2.25,2.25,0,0,1-.5,1.41,2.89,2.89,0,0,1-2.41.83H90.83V33.94m1.25.83v2.82h1.41a1.59,1.59,0,0,0,1.32-.42,1.44,1.44,0,0,0,.34-1.08,1.31,1.31,0,0,0-1.58-1.41H92.08Z" transform="translate(-15.96 -3.5)" fill="#363636"/><path d="M60.81,15.11a2.7,2.7,0,0,0,2.9,2.74,3.74,3.74,0,0,0,2-.58,2.31,2.31,0,0,0,.75-.91l3.4.33a2.81,2.81,0,0,1-.58,1.08c-1.16,1.57-3.48,2.07-5.64,2.07a10.43,10.43,0,0,1-2.82-.33c-2.07-.58-3.73-1.91-3.73-4.4,0-1.74,1-4.81,6.72-4.81,4.81,0,5.64,1.91,5.88,2.82l-3.31.5a2.73,2.73,0,0,0-.83-.91,3.12,3.12,0,0,0-1.74-.42,2.84,2.84,0,0,0-3,2.82" transform="translate(-15.96 -3.5)" fill="#363636"/><polyline points="55.46 7.22 59.03 7.22 59.03 10.45 63.43 10.45 63.43 7.22 66.99 7.22 66.99 16.09 63.43 16.09 63.43 12.69 59.03 12.69 59.03 16.09 55.46 16.09 55.46 7.22" fill="#363636"/><path d="M88.18,10.72h4.06l4.32,8.79h-3.9l-.5-1.41H88.35l-.5,1.41H84l4.23-8.79m2.07,2.48-1.16,3h2.32Z" transform="translate(-15.96 -3.5)" fill="#363636"/><path d="M97.8,10.72h7.3a5,5,0,0,1,2.82.58,2.62,2.62,0,0,1,1.16,2.24,2.31,2.31,0,0,1-.66,1.65,3.09,3.09,0,0,1-1.66.83l2.49,3.49h-4l-2.07-3.24h-1.91v3.24H97.72V10.72m3.65,3.64H104c.58,0,1.49,0,1.49-.82a.9.9,0,0,0-.25-.59,1.3,1.3,0,0,0-.91-.24h-3Z" transform="translate(-15.96 -3.5)" fill="#363636"/><polyline points="104.48 7.22 104.48 9.21 101 9.21 101 16.09 97.35 16.09 97.35 9.21 93.86 9.21 93.86 7.22 104.48 7.22" fill="#363636"/><polyline points="116.34 7.22 116.34 9.21 109.37 9.21 109.37 10.7 115.76 10.7 115.76 12.69 109.37 12.69 109.37 14.1 116.42 14.1 116.42 16.09 105.81 16.09 105.81 7.22 116.34 7.22" fill="#363636"/><path d="M134.46,10.72h7.3a5,5,0,0,1,2.82.58,2.64,2.64,0,0,1,1.16,2.24,2.31,2.31,0,0,1-.66,1.65,3.13,3.13,0,0,1-1.66.83l2.48,3.49h-4l-2.07-3.24h-1.91v3.24h-3.56V10.72M138,14.36h2.65c.58,0,1.49,0,1.49-.82a.9.9,0,0,0-.25-.59,1.31,1.31,0,0,0-.91-.24h-3v1.65Z" transform="translate(-15.96 -3.5)" fill="#363636"/><polyline points="142.05 7.22 142.05 9.21 135.17 9.21 135.17 10.7 141.55 10.7 141.55 12.69 135.17 12.69 135.17 14.1 142.22 14.1 142.22 16.09 131.6 16.09 131.6 7.22 142.05 7.22" fill="#363636"/><path d="M160.25,10.72h5.64c1,0,3.9-.09,5.31,2.07a3.92,3.92,0,0,1,.66,2.4,5.28,5.28,0,0,1-.41,2,3.72,3.72,0,0,1-1.83,1.75,6.88,6.88,0,0,1-3,.58h-6.3V10.72m3.4,6.88h1.57a3.65,3.65,0,0,0,2.32-.5,2.24,2.24,0,0,0,.83-1.82,2.19,2.19,0,0,0-.91-1.83,4.14,4.14,0,0,0-2.15-.5h-1.66V17.6Z" transform="translate(-15.96 -3.5)" fill="#363636"/><path d="M60.73,24.48c0,.09.08.25.08.34a5,5,0,0,0,1.82.58c.67.16,1.33.24,2.08.41a7.11,7.11,0,0,1,1.24.33,2.18,2.18,0,0,1,1.74,2.08,2.72,2.72,0,0,1-.49,1.49c-.83,1.08-2.49,1.57-5.23,1.57a7.32,7.32,0,0,1-4.15-1,3,3,0,0,1-1.07-1.91l3.48-.08c.17.58.83,1,2.24,1a2.3,2.3,0,0,0,1.24-.24c.25-.17.5-.34.5-.67s-.41-.58-.66-.66c-.42-.17-2.66-.5-3.15-.58l-1.17-.25a2.46,2.46,0,0,1-2-2.24,2.52,2.52,0,0,1,.83-1.74c1.08-1,3.15-1.16,4.23-1.16a13.48,13.48,0,0,1,3.07.33,2.88,2.88,0,0,1,2.24,2.24l-3.48.16c-.09-.25-.25-.83-1.74-.83-.5.09-1.66.17-1.66.83" transform="translate(-15.96 -3.5)" fill="#363636"/><path d="M69.68,22.24h3.57v5a2.47,2.47,0,0,0,.25,1.24,2.43,2.43,0,0,0,2.07.92,2.49,2.49,0,0,0,1.74-.5,2.2,2.2,0,0,0,.59-1.74v-5h3.56v4.65a4.85,4.85,0,0,1-.58,2.9c-1.08,1.49-3.73,1.66-5.31,1.66a9,9,0,0,1-4.23-.67,2.84,2.84,0,0,1-1.74-2.82V22.24" transform="translate(-15.96 -3.5)" fill="#363636"/><path d="M83.87,22.24h7.3a4.84,4.84,0,0,1,2.82.58,2.67,2.67,0,0,1,1.16,2.24,2.28,2.28,0,0,1-.67,1.66,3.06,3.06,0,0,1-1.66.83L95.31,31h-4L89.26,27.8H87.35V31H83.78v-8.8m3.65,3.57h2.66c.58,0,1.49,0,1.49-.83a.9.9,0,0,0-.25-.58,1.27,1.27,0,0,0-.91-.25h-3Z" transform="translate(-15.96 -3.5)" fill="#363636"/><path d="M95.56,22.24h3.73l1.58,3.49a21,21,0,0,1,.83,2c.33-.75.41-1,.83-1.83.5-1.16,1.08-2.4,1.66-3.56h3.73l-4.56,8.79H100l-4.48-8.88" transform="translate(-15.96 -3.5)" fill="#363636"/><polyline points="103.57 18.74 103.57 20.65 96.69 20.65 96.69 22.14 103.07 22.14 103.07 24.14 96.6 24.14 96.6 25.55 103.73 25.55 103.73 27.54 93.12 27.54 93.12 18.74 103.57 18.74" fill="#363636"/><path d="M124.67,22.24l1.66,2.66a6.14,6.14,0,0,1,.5,1l.58-1.16L129,22.24h4.14l-4.48,6.22v2.66h-3.56V28.46l-4.56-6.22h4.14" transform="translate(-15.96 -3.5)" fill="#363636"/><path d="M143.08,22.41a4.29,4.29,0,0,1,3.07,4.15,4.34,4.34,0,0,1-.74,2.4,3.89,3.89,0,0,1-1.16,1.16,8.26,8.26,0,0,1-4.81,1.16c-3.49,0-4.9-1.07-5.64-2a3.94,3.94,0,0,1-.92-2.65,4,4,0,0,1,.92-2.74c1.41-1.74,3.73-2,5.55-2.07a11.42,11.42,0,0,1,3.73.58m-6.46,4.15a2.67,2.67,0,0,0,3,2.73,4,4,0,0,0,1.41-.24,2.76,2.76,0,0,0,1.49-2.49,2.62,2.62,0,0,0-2.9-2.74A2.71,2.71,0,0,0,136.62,26.56Z" transform="translate(-15.96 -3.5)" fill="#363636"/><path d="M147.81,22.24h7.3a4.84,4.84,0,0,1,2.82.58,2.64,2.64,0,0,1,1.16,2.24,2.32,2.32,0,0,1-.66,1.66,3.09,3.09,0,0,1-1.66.83L159.26,31h-3.9l-2.07-3.24h-1.91V31h-3.57v-8.8m3.57,3.57H154c.58,0,1.5,0,1.5-.83a1,1,0,0,0-.25-.58,1.3,1.3,0,0,0-.92-.25h-3v1.66Z" transform="translate(-15.96 -3.5)" fill="#363636"/><path d="M164.23,24.48a.49.49,0,0,0,.09.34,5,5,0,0,0,1.82.58c.67.16,1.41.24,2.08.41a7.36,7.36,0,0,1,1.24.33,2.18,2.18,0,0,1,1.74,2.08,2.65,2.65,0,0,1-.5,1.49c-.83,1.08-2.48,1.57-5.22,1.57-1,0-3-.08-4.15-1a3,3,0,0,1-1.08-1.91l3.49-.08c.16.58.83,1,2.24,1a2.3,2.3,0,0,0,1.24-.24c.25-.17.5-.34.5-.67s-.42-.58-.67-.66c-.41-.17-2.65-.5-3.15-.58s-.74-.17-1.16-.25a2.46,2.46,0,0,1-2-2.24,2.48,2.48,0,0,1,.83-1.74c1.08-1,3.15-1.16,4.23-1.16a13.55,13.55,0,0,1,3.07.33,2.9,2.9,0,0,1,2.24,2.24l-3.49.16c-.08-.25-.24-.83-1.74-.83-.58.09-1.66.17-1.66.83" transform="translate(-15.96 -3.5)" fill="#363636"/></svg>
