<?xml version="1.0" encoding="utf-8"?>
<!-- Generator: Adobe Illustrator 23.0.3, SVG Export Plug-In . SVG Version: 6.00 Build 0)  -->
<svg version="1.1" id="Layer_1" xmlns="http://www.w3.org/2000/svg" xmlns:xlink="http://www.w3.org/1999/xlink" x="0px" y="0px"
	 viewBox="0 0 1024 1024" style="enable-background:new 0 0 1024 1024;" xml:space="preserve">
<style type="text/css">
	.st0{fill:#BD964C;}
	.st1{fill:#363436;}
</style>
<g>
	<path class="st0" d="M861,445.6l129.9-88.8L512,29.4L33.1,356.8l85.6,58.5l44-30.1l-41.6-28.4L512,89.6l390.9,267.2L686.1,505
		L512,386L337.9,505L252,446.3l260-177.7l215.6,147.4l45-30.7L512,207.1L33.1,534.5l0.9,0.6l-1,0.7l84.5,57.7l44.9-30.7L122,535.1
		l85.9-58.7l85.9,58.7L33.1,713.4l411.6,281.2l-0.7-179.2l0.1,0.1l-0.9-238.4l-61.2-41.8L512,446.2l130.1,88.9L580,577.5l-0.2,238
		l0.2-0.1l-0.2,179l411.1-281L861,624.6l129.9-88.8l-1-0.7l1-0.7L861,445.6z M394.6,900.2L121.1,713.4l86-58.8l187.1,127.8
		L394.6,900.2z M393.5,603.2L394,721l-142-97.1l85.9-58.7L393.5,603.2z M902.9,713.4L629.6,900.2l0.1-117.5l187.3-128L902.9,713.4z
		 M629.6,721.3l0.1-117.5l56.4-38.6l42,28.7l44-30.1l-42-28.7l85.9-58.7l85.9,58.7L629.6,721.3z"/>
	<path class="st1" d="M629.6,960.3l361.3-247L861,624.6l-44,30.1l85.9,58.7L629.6,900.2L629.6,960.3z M394.6,900.2L121.1,713.4
		l86-58.8l-44.1-30L33.1,713.4l361.6,247L394.6,900.2z M252,623.9l85.9-58.7l44-30.1L512,446.2l216.1,147.7l44-30.1L512,386
		L337.9,505l-44,30.1l-85.8,58.6L252,623.9z"/>
</g>
</svg>
